<svg width="1675" height="1322" viewBox="0 0 1675 1322" fill="none" xmlns="http://www.w3.org/2000/svg">
<path d="M1674.59 68.8468C1509.98 13.5456 1336.09 -8.79197 1162.85 3.10939C989.606 15.0107 820.405 60.918 664.905 138.21C509.405 215.502 370.652 322.665 256.568 453.581C142.483 584.497 55.3012 736.601 0 901.21L1254 1322L1674.59 68.8468Z" fill="#75FDA8"/>
<path d="M1200.03 907.709V843.825H1251.21V859.024H1214.28L1218.43 854.987V907.709H1200.03Z" fill="#2B2E2B"/>
<path d="M1117.58 907.709V843.825H1135.98V868.761H1163.77V843.825H1182.29V907.709H1163.77V883.841H1135.98V907.709H1117.58Z" fill="#2B2E2B"/>
<path d="M1033.28 907.709V843.825H1051.68V881.823L1082.79 843.825H1099.77V907.709H1081.37V869.711L1050.37 907.709H1033.28Z" fill="#2B2E2B"/>
<path d="M983.378 907.709V854.749L987.534 859.024H961.767V843.825H1023.39V859.024H997.627L1001.78 854.749V907.709H983.378Z" fill="#2B2E2B"/>
<path d="M926.859 908.659C919.576 908.659 913.164 907.234 907.623 904.384C902.161 901.534 897.926 897.655 894.917 892.747C891.909 887.76 890.405 882.1 890.405 875.767C890.405 869.355 891.87 863.695 894.799 858.787C897.807 853.8 901.884 849.921 907.029 847.15C912.175 844.3 917.993 842.875 924.485 842.875C930.738 842.875 936.359 844.221 941.346 846.912C946.412 849.525 950.41 853.325 953.339 858.312C956.268 863.22 957.733 869.117 957.733 876.004C957.733 876.717 957.693 877.548 957.614 878.498C957.535 879.369 957.456 880.2 957.376 880.992H905.486V870.186H947.639L940.515 873.392C940.515 870.067 939.842 867.178 938.496 864.724C937.15 862.27 935.29 860.37 932.915 859.024C930.54 857.599 927.77 856.887 924.603 856.887C921.437 856.887 918.627 857.599 916.173 859.024C913.798 860.37 911.937 862.309 910.592 864.843C909.246 867.297 908.573 870.226 908.573 873.63V876.479C908.573 879.963 909.325 883.05 910.829 885.741C912.412 888.354 914.589 890.372 917.36 891.797C920.21 893.143 923.535 893.816 927.334 893.816C930.738 893.816 933.707 893.301 936.24 892.272C938.852 891.243 941.227 889.7 943.365 887.641L953.22 898.328C950.291 901.653 946.61 904.226 942.177 906.047C937.744 907.788 932.638 908.659 926.859 908.659Z" fill="#2B2E2B"/>
<path d="M866.658 907.709L845.284 877.429L860.365 868.523L888.507 907.709H866.658ZM821.417 907.709V843.825H839.941V907.709H821.417ZM834.479 883.485V868.642H856.802V883.485H834.479ZM862.146 877.904L844.809 876.004L867.252 843.825H886.963L862.146 877.904Z" fill="#2B2E2B"/>
<path d="M776.604 908.659C771.221 908.659 766.511 907.471 762.474 905.097C758.436 902.722 755.27 899.12 752.974 894.291C750.758 889.383 749.649 883.208 749.649 875.767C749.649 868.247 750.718 862.072 752.855 857.243C754.993 852.414 758.08 848.812 762.117 846.437C766.155 844.063 770.984 842.875 776.604 842.875C782.62 842.875 788.003 844.26 792.753 847.031C797.582 849.723 801.382 853.522 804.152 858.431C807.002 863.339 808.427 869.117 808.427 875.767C808.427 882.496 807.002 888.314 804.152 893.222C801.382 898.13 797.582 901.93 792.753 904.622C788.003 907.313 782.62 908.659 776.604 908.659ZM738.844 930.745V843.825H756.536V856.887L756.18 875.886L757.368 894.766V930.745H738.844ZM773.398 893.46C776.485 893.46 779.216 892.747 781.591 891.322C784.045 889.897 785.985 887.879 787.41 885.266C788.914 882.575 789.666 879.408 789.666 875.767C789.666 872.046 788.914 868.88 787.41 866.268C785.985 863.655 784.045 861.637 781.591 860.212C779.216 858.787 776.485 858.074 773.398 858.074C770.311 858.074 767.54 858.787 765.086 860.212C762.632 861.637 760.692 863.655 759.268 866.268C757.843 868.88 757.13 872.046 757.13 875.767C757.13 879.408 757.843 882.575 759.268 885.266C760.692 887.879 762.632 889.897 765.086 891.322C767.54 892.747 770.311 893.46 773.398 893.46Z" fill="#2B2E2B"/>
<path d="M705.537 907.709V895.241L704.349 892.51V870.186C704.349 866.228 703.122 863.141 700.668 860.924C698.293 858.708 694.612 857.599 689.625 857.599C686.221 857.599 682.857 858.153 679.532 859.262C676.286 860.291 673.515 861.716 671.22 863.536L664.57 850.593C668.053 848.139 672.249 846.24 677.157 844.894C682.065 843.548 687.052 842.875 692.119 842.875C701.856 842.875 709.416 845.171 714.799 849.762C720.182 854.354 722.873 861.518 722.873 871.255V907.709H705.537ZM686.063 908.659C681.075 908.659 676.801 907.828 673.238 906.165C669.676 904.424 666.945 902.088 665.045 899.159C663.145 896.23 662.195 892.945 662.195 889.304C662.195 885.504 663.106 882.179 664.926 879.329C666.826 876.479 669.795 874.263 673.832 872.68C677.869 871.017 683.134 870.186 689.625 870.186H706.605V880.992H691.644C687.29 880.992 684.282 881.704 682.619 883.129C681.036 884.554 680.244 886.335 680.244 888.473C680.244 890.847 681.155 892.747 682.975 894.172C684.875 895.518 687.448 896.191 690.694 896.191C693.781 896.191 696.552 895.478 699.006 894.053C701.46 892.549 703.241 890.372 704.349 887.523L707.199 896.072C705.853 900.189 703.399 903.315 699.837 905.453C696.275 907.59 691.683 908.659 686.063 908.659Z" fill="#2B2E2B"/>
<path d="M570.48 907.709V843.825H589.836L613.94 887.522H606.222L631.989 843.825H649.326L649.563 907.709H632.821V862.824L635.67 864.723L613.703 901.534H605.866L583.78 863.417L587.223 862.586V907.709H570.48Z" fill="#2B2E2B"/>
<path d="M452.549 907.709V843.825H470.954V881.823L502.065 843.825H519.045V907.709H500.64V869.711L469.648 907.709H452.549Z" fill="#2B2E2B"/>
<path d="M1186.19 759.28V746.812L1185 744.081V721.757C1185 717.799 1183.78 714.712 1181.32 712.495C1178.95 710.279 1175.27 709.17 1170.28 709.17C1166.88 709.17 1163.51 709.724 1160.19 710.833C1156.94 711.862 1154.17 713.287 1151.87 715.107L1145.22 702.164C1148.71 699.71 1152.9 697.811 1157.81 696.465C1162.72 695.119 1167.71 694.446 1172.77 694.446C1182.51 694.446 1190.07 696.742 1195.45 701.333C1200.84 705.925 1203.53 713.089 1203.53 722.826V759.28H1186.19ZM1166.72 760.23C1161.73 760.23 1157.45 759.399 1153.89 757.736C1150.33 755.995 1147.6 753.659 1145.7 750.73C1143.8 747.801 1142.85 744.516 1142.85 740.875C1142.85 737.075 1143.76 733.75 1145.58 730.9C1147.48 728.05 1150.45 725.834 1154.49 724.251C1158.52 722.588 1163.79 721.757 1170.28 721.757H1187.26V732.563H1172.3C1167.94 732.563 1164.94 733.275 1163.27 734.7C1161.69 736.125 1160.9 737.906 1160.9 740.044C1160.9 742.418 1161.81 744.318 1163.63 745.743C1165.53 747.089 1168.1 747.762 1171.35 747.762C1174.44 747.762 1177.21 747.049 1179.66 745.624C1182.11 744.12 1183.9 741.943 1185 739.094L1187.85 747.643C1186.51 751.76 1184.05 754.886 1180.49 757.024C1176.93 759.161 1172.34 760.23 1166.72 760.23Z" fill="#2B2E2B"/>
<path d="M1051.14 759.28V695.396H1070.49L1094.6 739.093H1086.88L1112.64 695.396H1129.98L1130.22 759.28H1113.48V714.395L1116.33 716.295L1094.36 753.105H1086.52L1064.43 714.988L1067.88 714.157V759.28H1051.14Z" fill="#2B2E2B"/>
<path d="M1006.06 760.23C998.778 760.23 992.366 758.805 986.824 755.955C981.362 753.105 977.127 749.226 974.119 744.318C971.111 739.331 969.606 733.671 969.606 727.338C969.606 720.926 971.071 715.266 974 710.358C977.008 705.371 981.085 701.492 986.23 698.721C991.376 695.871 997.194 694.446 1003.69 694.446C1009.94 694.446 1015.56 695.792 1020.55 698.483C1025.61 701.096 1029.61 704.896 1032.54 709.883C1035.47 714.791 1036.93 720.688 1036.93 727.576C1036.93 728.288 1036.89 729.119 1036.82 730.069C1036.74 730.94 1036.66 731.771 1036.58 732.563H984.687V721.757H1026.84L1019.72 724.963C1019.72 721.638 1019.04 718.749 1017.7 716.295C1016.35 713.841 1014.49 711.941 1012.12 710.595C1009.74 709.17 1006.97 708.458 1003.8 708.458C1000.64 708.458 997.828 709.17 995.374 710.595C992.999 711.941 991.139 713.88 989.793 716.414C988.447 718.868 987.774 721.797 987.774 725.201V728.05C987.774 731.534 988.526 734.621 990.03 737.312C991.614 739.925 993.79 741.943 996.561 743.368C999.411 744.714 1002.74 745.387 1006.54 745.387C1009.94 745.387 1012.91 744.872 1015.44 743.843C1018.05 742.814 1020.43 741.271 1022.57 739.212L1032.42 749.899C1029.49 753.224 1025.81 755.797 1021.38 757.618C1016.95 759.359 1011.84 760.23 1006.06 760.23Z" fill="#2B2E2B"/>
<path d="M927.602 759.28V706.32L931.758 710.595H905.991V695.396H967.619V710.595H941.852L946.008 706.32V759.28H927.602Z" fill="#2B2E2B"/>
<path d="M874.192 760.23C867.305 760.23 861.17 758.845 855.787 756.074C850.404 753.224 846.169 749.306 843.082 744.318C840.073 739.331 838.569 733.671 838.569 727.338C838.569 720.926 840.073 715.266 843.082 710.358C846.169 705.371 850.404 701.492 855.787 698.721C861.17 695.871 867.305 694.446 874.192 694.446C880.921 694.446 886.779 695.871 891.766 698.721C896.753 701.492 900.435 705.489 902.809 710.714L888.441 718.432C886.779 715.424 884.681 713.208 882.148 711.783C879.694 710.358 877.003 709.645 874.074 709.645C870.907 709.645 868.057 710.358 865.524 711.783C862.991 713.208 860.972 715.226 859.468 717.839C858.043 720.451 857.331 723.617 857.331 727.338C857.331 731.059 858.043 734.225 859.468 736.837C860.972 739.45 862.991 741.468 865.524 742.893C868.057 744.318 870.907 745.031 874.074 745.031C877.003 745.031 879.694 744.358 882.148 743.012C884.681 741.587 886.779 739.331 888.441 736.244L902.809 744.081C900.435 749.226 896.753 753.224 891.766 756.074C886.779 758.845 880.921 760.23 874.192 760.23Z" fill="#2B2E2B"/>
<path d="M759.495 759.28V695.396H777.9V733.394L809.011 695.396H825.991V759.28H807.586V721.282L776.594 759.28H759.495Z" fill="#2B2E2B"/>
<path d="M719.617 760.23C712.73 760.23 706.595 758.845 701.212 756.074C695.829 753.224 691.594 749.306 688.506 744.318C685.498 739.331 683.994 733.671 683.994 727.338C683.994 720.926 685.498 715.266 688.506 710.358C691.594 705.371 695.829 701.492 701.212 698.721C706.595 695.871 712.73 694.446 719.617 694.446C726.346 694.446 732.204 695.871 737.191 698.721C742.178 701.492 745.859 705.489 748.234 710.714L733.866 718.432C732.204 715.424 730.106 713.208 727.573 711.783C725.119 710.358 722.427 709.645 719.498 709.645C716.332 709.645 713.482 710.358 710.949 711.783C708.416 713.208 706.397 715.226 704.893 717.839C703.468 720.451 702.756 723.617 702.756 727.338C702.756 731.059 703.468 734.225 704.893 736.837C706.397 739.45 708.416 741.468 710.949 742.893C713.482 744.318 716.332 745.031 719.498 745.031C722.427 745.031 725.119 744.358 727.573 743.012C730.106 741.587 732.204 739.331 733.866 736.244L748.234 744.081C745.859 749.226 742.178 753.224 737.191 756.074C732.204 758.845 726.346 760.23 719.617 760.23Z" fill="#2B2E2B"/>
<path d="M641.45 760.23C634.642 760.23 628.586 758.805 623.282 755.955C618.057 753.105 613.901 749.226 610.814 744.318C607.806 739.331 606.302 733.671 606.302 727.338C606.302 720.926 607.806 715.266 610.814 710.358C613.901 705.371 618.057 701.492 623.282 698.721C628.586 695.871 634.642 694.446 641.45 694.446C648.179 694.446 654.195 695.871 659.499 698.721C664.803 701.492 668.959 705.331 671.967 710.239C674.975 715.147 676.479 720.847 676.479 727.338C676.479 733.671 674.975 739.331 671.967 744.318C668.959 749.226 664.803 753.105 659.499 755.955C654.195 758.805 648.179 760.23 641.45 760.23ZM641.45 745.031C644.537 745.031 647.308 744.318 649.762 742.893C652.216 741.468 654.155 739.45 655.58 736.837C657.005 734.146 657.718 730.979 657.718 727.338C657.718 723.617 657.005 720.451 655.58 717.839C654.155 715.226 652.216 713.208 649.762 711.783C647.308 710.358 644.537 709.645 641.45 709.645C638.362 709.645 635.592 710.358 633.138 711.783C630.684 713.208 628.705 715.226 627.201 717.839C625.776 720.451 625.063 723.617 625.063 727.338C625.063 730.979 625.776 734.146 627.201 736.837C628.705 739.45 630.684 741.468 633.138 742.893C635.592 744.318 638.362 745.031 641.45 745.031Z" fill="#2B2E2B"/>
<path d="M582.555 759.28L561.181 729L576.261 720.094L604.403 759.28H582.555ZM537.313 759.28V695.396H555.837V759.28H537.313ZM550.375 735.056V720.213H572.699V735.056H550.375ZM578.042 729.475L560.706 727.575L583.148 695.396H602.86L578.042 729.475Z" fill="#2B2E2B"/>
<path d="M469.637 724.607V709.883H510.722V724.607H469.637ZM480.562 674.735C486.815 674.735 492.555 675.804 497.779 677.941C503.004 679.999 507.556 682.968 511.435 686.847C515.314 690.726 518.322 695.278 520.459 700.502C522.597 705.727 523.665 711.466 523.665 717.72C523.665 723.974 522.597 729.713 520.459 734.938C518.322 740.163 515.314 744.714 511.435 748.593C507.556 752.472 503.004 755.48 497.779 757.618C492.555 759.676 486.815 760.705 480.562 760.705C473.2 760.705 466.55 759.439 460.613 756.905C454.755 754.372 449.847 750.691 445.889 745.862L458.119 734.463C461.048 737.788 464.294 740.281 467.856 741.944C471.418 743.527 475.337 744.319 479.612 744.319C483.174 744.319 486.459 743.685 489.467 742.419C492.555 741.073 495.167 739.252 497.304 736.957C499.521 734.582 501.183 731.771 502.292 728.526C503.479 725.28 504.073 721.678 504.073 717.72C504.073 713.762 503.479 710.16 502.292 706.915C501.183 703.669 499.521 700.898 497.304 698.602C495.167 696.228 492.555 694.407 489.467 693.14C486.459 691.795 483.174 691.122 479.612 691.122C475.337 691.122 471.418 691.953 467.856 693.615C464.294 695.199 461.048 697.653 458.119 700.977L445.889 689.578C449.847 684.749 454.755 681.068 460.613 678.535C466.55 676.002 473.2 674.735 480.562 674.735Z" fill="#2B2E2B"/>
<path d="M946.777 461.54L1018.22 356.931H1036L964.562 461.54H946.777ZM955.894 413.419C950.812 413.419 946.329 412.274 942.443 409.982C938.557 407.591 935.468 404.254 933.177 399.97C930.985 395.586 929.889 390.455 929.889 384.577C929.889 378.699 930.985 373.618 933.177 369.334C935.468 365.05 938.557 361.713 942.443 359.322C946.329 356.931 950.812 355.735 955.894 355.735C960.975 355.735 965.459 356.931 969.344 359.322C973.23 361.713 976.269 365.05 978.461 369.334C980.653 373.618 981.749 378.699 981.749 384.577C981.749 390.455 980.653 395.586 978.461 399.97C976.269 404.254 973.23 407.591 969.344 409.982C965.459 412.274 960.975 413.419 955.894 413.419ZM955.894 401.165C959.182 401.165 961.822 399.82 963.815 397.13C965.807 394.341 966.804 390.156 966.804 384.577C966.804 378.998 965.807 374.864 963.815 372.174C961.822 369.384 959.182 367.989 955.894 367.989C952.705 367.989 950.065 369.384 947.973 372.174C945.98 374.864 944.983 378.998 944.983 384.577C944.983 390.057 945.98 394.191 947.973 396.981C950.065 399.77 952.705 401.165 955.894 401.165ZM1026.88 462.735C1021.9 462.735 1017.42 461.589 1013.43 459.298C1009.55 456.907 1006.51 453.569 1004.32 449.285C1002.12 444.902 1001.03 439.771 1001.03 433.893C1001.03 428.015 1002.12 422.934 1004.32 418.65C1006.51 414.366 1009.55 411.028 1013.43 408.637C1017.42 406.246 1021.9 405.051 1026.88 405.051C1032.06 405.051 1036.6 406.246 1040.48 408.637C1044.37 411.028 1047.41 414.366 1049.6 418.65C1051.79 422.934 1052.89 428.015 1052.89 433.893C1052.89 439.771 1051.79 444.902 1049.6 449.285C1047.41 453.569 1044.37 456.907 1040.48 459.298C1036.6 461.589 1032.06 462.735 1026.88 462.735ZM1026.88 450.481C1030.17 450.481 1032.81 449.136 1034.8 446.446C1036.8 443.656 1037.79 439.472 1037.79 433.893C1037.79 428.413 1036.8 424.279 1034.8 421.489C1032.81 418.7 1030.17 417.305 1026.88 417.305C1023.7 417.305 1021.06 418.7 1018.96 421.489C1016.97 424.179 1015.97 428.314 1015.97 433.893C1015.97 439.472 1016.97 443.656 1018.96 446.446C1021.06 449.136 1023.7 450.481 1026.88 450.481Z" fill="#2B2E2B"/>
<path d="M795.55 642.735C775.926 642.735 756.437 640.182 737.082 635.076C717.996 629.702 701.598 622.178 687.889 612.503L713.695 562.52C724.448 570.313 736.813 576.494 750.792 581.062C765.039 585.631 779.421 587.915 793.937 587.915C810.335 587.915 823.238 584.69 832.647 578.241C842.055 571.791 846.76 562.789 846.76 551.234C846.76 543.978 844.878 537.529 841.114 531.885C837.351 526.242 830.631 521.943 820.953 518.987C811.545 516.031 798.238 514.553 781.034 514.553H708.856L723.373 355.735H895.55V408.137H746.76L780.631 378.308L770.55 491.576L736.679 461.748H796.356C824.313 461.748 846.76 465.644 863.695 473.437C880.899 480.962 893.399 491.308 901.195 504.475C908.991 517.643 912.889 532.557 912.889 549.218C912.889 565.879 908.722 581.331 900.389 595.574C892.055 609.547 879.152 620.968 861.679 629.836C844.475 638.435 822.432 642.735 795.55 642.735Z" fill="#2B2E2B"/>
<path d="M458.723 637.735V595.411L567.012 492.623C575.568 484.83 581.851 477.843 585.862 471.662C589.873 465.481 592.546 459.838 593.883 454.732C595.488 449.626 596.29 444.924 596.29 440.624C596.29 429.338 592.413 420.738 584.659 414.826C577.172 408.646 566.076 405.555 551.37 405.555C539.605 405.555 528.643 407.839 518.482 412.408C508.589 416.976 500.167 424.097 493.215 433.772L445.889 403.137C456.584 387.013 471.557 374.249 490.808 364.843C510.06 355.438 532.252 350.735 557.386 350.735C578.242 350.735 596.423 354.229 611.931 361.215C627.707 367.934 639.873 377.473 648.429 389.835C657.252 402.196 661.664 416.976 661.664 434.175C661.664 443.311 660.461 452.448 658.054 461.585C655.915 470.453 651.37 479.858 644.418 489.801C637.734 499.744 627.841 510.896 614.739 523.258L524.899 608.31L512.466 584.527H670.889V637.735H458.723Z" fill="#2B2E2B"/>
</svg>
