<svg width="316" height="145" viewBox="0 0 316 145" fill="none" xmlns="http://www.w3.org/2000/svg">
<rect x="3.5" y="3.5" width="309" height="138" rx="69" stroke="white" stroke-width="7"/>
<path d="M229.987 94.5334V87.3761L248.391 69.9941C249.846 68.6762 250.914 67.4947 251.595 66.4495C252.277 65.4043 252.731 64.45 252.959 63.5865C253.231 62.7231 253.368 61.9279 253.368 61.2008C253.368 59.2922 252.709 57.838 251.391 56.8382C250.118 55.793 248.232 55.2704 245.733 55.2704C243.734 55.2704 241.87 55.6567 240.144 56.4292C238.462 57.2018 237.031 58.406 235.849 60.042L227.806 54.8614C229.623 52.1348 232.168 49.9763 235.44 48.3858C238.712 46.7953 242.484 46 246.756 46C250.3 46 253.39 46.5908 256.026 47.7723C258.707 48.9084 260.775 50.5216 262.229 52.612C263.729 54.7024 264.478 57.2018 264.478 60.1101C264.478 61.6552 264.274 63.2003 263.865 64.7454C263.501 66.245 262.729 67.8355 261.547 69.5169C260.411 71.1983 258.73 73.0842 256.503 75.1746L241.234 89.5574L239.121 85.5357H266.046V94.5334H229.987Z" fill="white"/>
<path d="M199.655 95.3514C195.928 95.3514 192.452 94.7379 189.225 93.5109C186.044 92.284 183.272 90.5571 180.909 88.3304C178.592 86.1037 176.774 83.4907 175.456 80.4914C174.184 77.4922 173.547 74.2203 173.547 70.6757C173.547 67.1311 174.184 63.8592 175.456 60.8599C176.774 57.8607 178.614 55.2477 180.977 53.021C183.341 50.7943 186.113 49.0674 189.294 47.8404C192.475 46.6135 195.928 46 199.655 46C203.426 46 206.88 46.6135 210.016 47.8404C213.197 49.0674 215.946 50.7943 218.264 53.021C220.627 55.2023 222.467 57.7925 223.785 60.7918C225.103 63.791 225.762 67.0857 225.762 70.6757C225.762 74.2203 225.103 77.5149 223.785 80.5596C222.467 83.5589 220.627 86.1719 218.264 88.3986C215.946 90.5798 213.197 92.284 210.016 93.5109C206.88 94.7379 203.426 95.3514 199.655 95.3514ZM215.264 105.508C213.401 105.508 211.629 105.303 209.948 104.894C208.312 104.485 206.676 103.827 205.04 102.918C203.449 102.009 201.768 100.782 199.995 99.2368C198.269 97.6917 196.383 95.7831 194.338 93.5109L205.926 90.5798C207.153 92.2612 208.289 93.6018 209.334 94.6016C210.379 95.6013 211.379 96.3057 212.333 96.7147C213.333 97.1237 214.378 97.3282 215.469 97.3282C218.377 97.3282 220.968 96.1466 223.24 93.7836L228.148 99.6458C224.921 103.554 220.627 105.508 215.264 105.508ZM199.655 85.9446C201.79 85.9446 203.745 85.5811 205.517 84.854C207.335 84.1269 208.925 83.0817 210.288 81.7184C211.652 80.3551 212.697 78.7419 213.424 76.8787C214.196 74.9701 214.583 72.9024 214.583 70.6757C214.583 68.4035 214.196 66.3359 213.424 64.4727C212.697 62.6095 211.652 60.9963 210.288 59.633C208.925 58.2697 207.335 57.2245 205.517 56.4974C203.745 55.7703 201.79 55.4068 199.655 55.4068C197.519 55.4068 195.542 55.7703 193.724 56.4974C191.907 57.2245 190.316 58.2697 188.953 59.633C187.635 60.9963 186.59 62.6095 185.817 64.4727C185.09 66.3359 184.727 68.4035 184.727 70.6757C184.727 72.9024 185.09 74.9701 185.817 76.8787C186.59 78.7419 187.635 80.3551 188.953 81.7184C190.316 83.0817 191.907 84.1269 193.724 84.854C195.542 85.5811 197.519 85.9446 199.655 85.9446Z" fill="white"/>
<path d="M145.902 86.4219V54.9297H154.696V86.4219H145.902ZM134.11 74.8338V66.5177H166.556V74.8338H134.11Z" fill="white"/>
<path d="M113.21 94.5333V50.9078L117.982 55.6793H103.667V46.8179H124.253V94.5333H113.21Z" fill="white"/>
<path d="M75.1072 95.3514C71.3808 95.3514 67.9044 94.7379 64.6779 93.5109C61.4969 92.284 58.7249 90.5571 56.3618 88.3304C54.0442 86.1037 52.2265 83.4907 50.9086 80.4914C49.6362 77.4922 49 74.2203 49 70.6757C49 67.1311 49.6362 63.8592 50.9086 60.8599C52.2265 57.8607 54.0669 55.2477 56.43 53.021C58.793 50.7943 61.5651 49.0674 64.7461 47.8404C67.9271 46.6135 71.3808 46 75.1072 46C78.879 46 82.3326 46.6135 85.4682 47.8404C88.6493 49.0674 91.3986 50.7943 93.7162 53.021C96.0792 55.2023 97.9197 57.7925 99.2375 60.7918C100.555 63.791 101.214 67.0857 101.214 70.6757C101.214 74.2203 100.555 77.5149 99.2375 80.5596C97.9197 83.5589 96.0792 86.1719 93.7162 88.3986C91.3986 90.5798 88.6493 92.284 85.4682 93.5109C82.3326 94.7379 78.879 95.3514 75.1072 95.3514ZM90.7169 105.508C88.8538 105.508 87.0815 105.303 85.4001 104.894C83.7641 104.485 82.1281 103.827 80.4922 102.918C78.9017 102.009 77.2203 100.782 75.448 99.2368C73.7211 97.6917 71.8352 95.7831 69.7903 93.5109L81.3783 90.5798C82.6053 92.2612 83.7414 93.6018 84.7866 94.6016C85.8318 95.6013 86.8315 96.3057 87.7858 96.7147C88.7856 97.1237 89.8308 97.3282 90.9214 97.3282C93.8298 97.3282 96.4201 96.1466 98.6922 93.7836L103.6 99.6458C100.374 103.554 96.0792 105.508 90.7169 105.508ZM75.1072 85.9446C77.243 85.9446 79.1971 85.5811 80.9693 84.854C82.7871 84.1269 84.3776 83.0817 85.7409 81.7184C87.1042 80.3551 88.1494 78.7419 88.8765 76.8787C89.649 74.9701 90.0353 72.9024 90.0353 70.6757C90.0353 68.4035 89.649 66.3359 88.8765 64.4727C88.1494 62.6095 87.1042 60.9963 85.7409 59.633C84.3776 58.2697 82.7871 57.2245 80.9693 56.4974C79.1971 55.7703 77.243 55.4068 75.1072 55.4068C72.9713 55.4068 70.9945 55.7703 69.1768 56.4974C67.3591 57.2245 65.7686 58.2697 64.4053 59.633C63.0874 60.9963 62.0422 62.6095 61.2697 64.4727C60.5426 66.3359 60.179 68.4035 60.179 70.6757C60.179 72.9024 60.5426 74.9701 61.2697 76.8787C62.0422 78.7419 63.0874 80.3551 64.4053 81.7184C65.7686 83.0817 67.3591 84.1269 69.1768 84.854C70.9945 85.5811 72.9713 85.9446 75.1072 85.9446Z" fill="white"/>
</svg>
