<svg width="1176" height="613" viewBox="0 0 1176 613" fill="none" xmlns="http://www.w3.org/2000/svg">
<mask id="mask0_1789_180" style="mask-type:luminance" maskUnits="userSpaceOnUse" x="19" y="10" width="1138" height="593">
<path d="M1081 10H95C53.0264 10 19 44.0264 19 86V527C19 568.974 53.0264 603 95 603H1081C1122.97 603 1157 568.974 1157 527V86C1157 44.0264 1122.97 10 1081 10Z" fill="white"/>
</mask>
<g mask="url(#mask0_1789_180)">
<path d="M1081 10H95C53.0264 10 19 44.0264 19 86V527C19 568.974 53.0264 603 95 603H1081C1122.97 603 1157 568.974 1157 527V86C1157 44.0264 1122.97 10 1081 10Z" fill="black"/>
<path d="M1081 11.5H95C53.8548 11.5 20.5 44.8548 20.5 86V527C20.5 568.145 53.8548 601.5 95 601.5H1081C1122.15 601.5 1155.5 568.145 1155.5 527V86C1155.5 44.8548 1122.15 11.5 1081 11.5Z" fill="black" stroke="#003E1C" stroke-width="3"/>
<g filter="url(#filter0_f_1789_180)">
<path d="M-15 -54V614.519L220.349 668L188.256 507.556L158.169 253.519L484.448 424.659L580.727 360.482L265.145 90.4H675L626.86 -54H-15Z" fill="#009345" fill-opacity="0.5"/>
<path d="M-15 -54V614.519L220.349 668L188.256 507.556L158.169 253.519L484.448 424.659L580.727 360.482L265.145 90.4H675L626.86 -54H-15Z" stroke="black"/>
</g>
<path d="M124.88 396.271V392.975H136.432V396.271H124.88ZM127.792 383.279C129.435 383.279 130.949 383.567 132.336 384.143C133.723 384.698 134.928 385.498 135.952 386.543C136.997 387.567 137.797 388.783 138.352 390.191C138.928 391.599 139.216 393.135 139.216 394.799C139.216 396.463 138.928 397.999 138.352 399.407C137.797 400.815 136.997 402.042 135.952 403.087C134.928 404.111 133.723 404.911 132.336 405.487C130.949 406.042 129.435 406.319 127.792 406.319C125.893 406.319 124.165 405.999 122.608 405.359C121.072 404.719 119.792 403.791 118.768 402.575L121.392 400.015C122.224 400.911 123.152 401.583 124.176 402.031C125.221 402.458 126.352 402.671 127.568 402.671C128.635 402.671 129.627 402.479 130.544 402.095C131.461 401.69 132.251 401.146 132.912 400.463C133.573 399.759 134.085 398.927 134.448 397.967C134.811 397.007 134.992 395.951 134.992 394.799C134.992 393.647 134.811 392.591 134.448 391.631C134.085 390.671 133.573 389.85 132.912 389.167C132.251 388.463 131.461 387.919 130.544 387.535C129.627 387.13 128.635 386.927 127.568 386.927C126.352 386.927 125.221 387.151 124.176 387.599C123.152 388.026 122.224 388.687 121.392 389.583L118.768 387.023C119.792 385.807 121.072 384.879 122.608 384.239C124.165 383.599 125.893 383.279 127.792 383.279ZM155.663 405.999L149.487 397.807L152.751 395.791L160.367 405.999H155.663ZM143.407 405.999V388.911H147.407V405.999H143.407ZM146.223 399.151V395.823H152.015V399.151H146.223ZM153.135 397.935L149.391 397.487L155.663 388.911H159.951L153.135 397.935ZM170.242 406.223C168.492 406.223 166.935 405.85 165.57 405.103C164.204 404.335 163.127 403.29 162.338 401.967C161.548 400.644 161.154 399.14 161.154 397.455C161.154 395.748 161.548 394.244 162.338 392.943C163.127 391.62 164.204 390.586 165.57 389.839C166.935 389.092 168.492 388.719 170.242 388.719C172.012 388.719 173.58 389.092 174.946 389.839C176.332 390.586 177.41 391.61 178.178 392.911C178.967 394.212 179.362 395.727 179.362 397.455C179.362 399.14 178.967 400.644 178.178 401.967C177.41 403.29 176.332 404.335 174.946 405.103C173.58 405.85 172.012 406.223 170.242 406.223ZM170.242 402.799C171.223 402.799 172.098 402.586 172.866 402.159C173.634 401.732 174.231 401.114 174.658 400.303C175.106 399.492 175.33 398.543 175.33 397.455C175.33 396.346 175.106 395.396 174.658 394.607C174.231 393.796 173.634 393.178 172.866 392.751C172.098 392.324 171.234 392.111 170.274 392.111C169.292 392.111 168.418 392.324 167.65 392.751C166.903 393.178 166.306 393.796 165.858 394.607C165.41 395.396 165.186 396.346 165.186 397.455C165.186 398.543 165.41 399.492 165.858 400.303C166.306 401.114 166.903 401.732 167.65 402.159C168.418 402.586 169.282 402.799 170.242 402.799ZM191.089 406.223C189.297 406.223 187.697 405.85 186.289 405.103C184.902 404.335 183.814 403.29 183.025 401.967C182.236 400.644 181.841 399.14 181.841 397.455C181.841 395.748 182.236 394.244 183.025 392.943C183.814 391.62 184.902 390.586 186.289 389.839C187.697 389.092 189.297 388.719 191.089 388.719C192.753 388.719 194.214 389.06 195.473 389.743C196.753 390.404 197.724 391.386 198.385 392.687L195.313 394.479C194.801 393.668 194.172 393.071 193.425 392.687C192.7 392.303 191.91 392.111 191.057 392.111C190.076 392.111 189.19 392.324 188.401 392.751C187.612 393.178 186.993 393.796 186.545 394.607C186.097 395.396 185.873 396.346 185.873 397.455C185.873 398.564 186.097 399.524 186.545 400.335C186.993 401.124 187.612 401.732 188.401 402.159C189.19 402.586 190.076 402.799 191.057 402.799C191.91 402.799 192.7 402.607 193.425 402.223C194.172 401.839 194.801 401.242 195.313 400.431L198.385 402.223C197.724 403.503 196.753 404.495 195.473 405.199C194.214 405.882 192.753 406.223 191.089 406.223ZM201.907 405.999V388.911H205.907V400.175L215.347 388.911H218.995V405.999H214.995V394.735L205.587 405.999H201.907ZM232.152 406.223C230.36 406.223 228.76 405.85 227.352 405.103C225.965 404.335 224.877 403.29 224.088 401.967C223.298 400.644 222.904 399.14 222.904 397.455C222.904 395.748 223.298 394.244 224.088 392.943C224.877 391.62 225.965 390.586 227.352 389.839C228.76 389.092 230.36 388.719 232.152 388.719C233.816 388.719 235.277 389.06 236.536 389.743C237.816 390.404 238.786 391.386 239.448 392.687L236.376 394.479C235.864 393.668 235.234 393.071 234.488 392.687C233.762 392.303 232.973 392.111 232.12 392.111C231.138 392.111 230.253 392.324 229.464 392.751C228.674 393.178 228.056 393.796 227.608 394.607C227.16 395.396 226.936 396.346 226.936 397.455C226.936 398.564 227.16 399.524 227.608 400.335C228.056 401.124 228.674 401.732 229.464 402.159C230.253 402.586 231.138 402.799 232.12 402.799C232.973 402.799 233.762 402.607 234.488 402.223C235.234 401.839 235.864 401.242 236.376 400.431L239.448 402.223C238.786 403.503 237.816 404.495 236.536 405.199C235.277 405.882 233.816 406.223 232.152 406.223ZM246.396 405.999V391.343L247.324 392.303H240.38V388.911H256.38V392.303H249.468L250.396 391.343V405.999H246.396ZM266.5 406.223C264.601 406.223 262.937 405.85 261.508 405.103C260.1 404.335 259.001 403.29 258.212 401.967C257.444 400.644 257.06 399.14 257.06 397.455C257.06 395.748 257.433 394.244 258.18 392.943C258.948 391.62 259.993 390.586 261.316 389.839C262.66 389.092 264.185 388.719 265.892 388.719C267.556 388.719 269.038 389.082 270.34 389.807C271.641 390.532 272.665 391.556 273.412 392.879C274.158 394.202 274.532 395.759 274.532 397.551C274.532 397.722 274.521 397.914 274.5 398.127C274.5 398.34 274.489 398.543 274.468 398.735H260.228V396.079H272.356L270.788 396.911C270.809 395.93 270.606 395.066 270.18 394.319C269.753 393.572 269.166 392.986 268.42 392.559C267.694 392.132 266.852 391.919 265.892 391.919C264.91 391.919 264.046 392.132 263.3 392.559C262.574 392.986 261.998 393.583 261.572 394.351C261.166 395.098 260.964 395.983 260.964 397.007V397.647C260.964 398.671 261.198 399.578 261.668 400.367C262.137 401.156 262.798 401.764 263.652 402.191C264.505 402.618 265.486 402.831 266.596 402.831C267.556 402.831 268.42 402.682 269.188 402.383C269.956 402.084 270.638 401.615 271.236 400.975L273.38 403.439C272.612 404.335 271.641 405.028 270.468 405.519C269.316 405.988 267.993 406.223 266.5 406.223ZM278.907 405.999V388.911H283.099L289.979 401.039H288.315L295.547 388.911H299.291L299.323 405.999H295.707V393.199L296.347 393.615L289.947 404.207H288.219L281.787 393.327L282.555 393.135V405.999H278.907ZM315.056 405.999V402.543L314.832 401.807V395.759C314.832 394.586 314.48 393.679 313.776 393.039C313.072 392.378 312.005 392.047 310.576 392.047C309.616 392.047 308.667 392.196 307.728 392.495C306.811 392.794 306.032 393.21 305.392 393.743L303.824 390.831C304.741 390.127 305.829 389.604 307.088 389.263C308.368 388.9 309.691 388.719 311.056 388.719C313.531 388.719 315.44 389.316 316.784 390.511C318.149 391.684 318.832 393.508 318.832 395.983V405.999H315.056ZM309.68 406.223C308.4 406.223 307.28 406.01 306.32 405.583C305.36 405.135 304.613 404.527 304.08 403.759C303.568 402.97 303.312 402.084 303.312 401.103C303.312 400.143 303.536 399.279 303.984 398.511C304.453 397.743 305.211 397.135 306.256 396.687C307.301 396.239 308.688 396.015 310.416 396.015H315.376V398.671H310.704C309.339 398.671 308.421 398.895 307.952 399.343C307.483 399.77 307.248 400.303 307.248 400.943C307.248 401.668 307.536 402.244 308.112 402.671C308.688 403.098 309.488 403.311 310.512 403.311C311.493 403.311 312.368 403.087 313.136 402.639C313.925 402.191 314.491 401.53 314.832 400.655L315.504 403.055C315.12 404.058 314.427 404.836 313.424 405.391C312.443 405.946 311.195 406.223 309.68 406.223ZM342.578 406.319C339.506 406.319 337.095 405.455 335.346 403.727C333.618 401.999 332.754 399.503 332.754 396.239V383.599H336.914V396.079C336.914 398.383 337.404 400.058 338.385 401.103C339.388 402.148 340.796 402.671 342.61 402.671C344.423 402.671 345.82 402.148 346.802 401.103C347.783 400.058 348.274 398.383 348.274 396.079V383.599H352.37V396.239C352.37 399.503 351.495 401.999 349.746 403.727C348.018 405.455 345.628 406.319 342.578 406.319ZM368.564 406.319C366.857 406.319 365.268 406.042 363.796 405.487C362.345 404.911 361.076 404.111 359.988 403.087C358.921 402.042 358.089 400.815 357.492 399.407C356.894 397.999 356.596 396.463 356.596 394.799C356.596 393.135 356.894 391.599 357.492 390.191C358.089 388.783 358.932 387.567 360.02 386.543C361.108 385.498 362.377 384.698 363.828 384.143C365.278 383.567 366.868 383.279 368.596 383.279C370.43 383.279 372.105 383.599 373.62 384.239C375.134 384.858 376.414 385.786 377.46 387.023L374.772 389.551C373.961 388.676 373.054 388.026 372.052 387.599C371.049 387.151 369.961 386.927 368.788 386.927C367.614 386.927 366.537 387.119 365.556 387.503C364.596 387.887 363.753 388.431 363.028 389.135C362.324 389.839 361.769 390.671 361.364 391.631C360.98 392.591 360.788 393.647 360.788 394.799C360.788 395.951 360.98 397.007 361.364 397.967C361.769 398.927 362.324 399.759 363.028 400.463C363.753 401.167 364.596 401.711 365.556 402.095C366.537 402.479 367.614 402.671 368.788 402.671C369.961 402.671 371.049 402.458 372.052 402.031C373.054 401.583 373.961 400.911 374.772 400.015L377.46 402.575C376.414 403.791 375.134 404.719 373.62 405.359C372.105 405.999 370.42 406.319 368.564 406.319ZM381.446 405.999V383.599H391.942C394.63 383.599 396.678 384.132 398.086 385.199C399.494 386.244 400.198 387.652 400.198 389.423C400.198 390.618 399.92 391.642 399.366 392.495C398.811 393.327 398.064 393.978 397.126 394.447C396.208 394.895 395.206 395.119 394.118 395.119L394.694 393.967C395.952 393.967 397.083 394.202 398.086 394.671C399.088 395.119 399.878 395.78 400.454 396.655C401.051 397.53 401.35 398.618 401.35 399.919C401.35 401.839 400.614 403.332 399.142 404.399C397.67 405.466 395.483 405.999 392.582 405.999H381.446ZM385.606 402.735H392.326C393.883 402.735 395.078 402.479 395.91 401.967C396.742 401.455 397.158 400.634 397.158 399.503C397.158 398.394 396.742 397.583 395.91 397.071C395.078 396.538 393.883 396.271 392.326 396.271H385.286V393.039H391.494C392.944 393.039 394.054 392.783 394.822 392.271C395.611 391.759 396.006 390.991 396.006 389.967C396.006 388.922 395.611 388.143 394.822 387.631C394.054 387.119 392.944 386.863 391.494 386.863H385.606V402.735ZM422.473 406.319C421.065 406.319 419.806 406.106 418.697 405.679C417.588 405.252 416.628 404.602 415.817 403.727C415.028 402.831 414.42 401.7 413.993 400.335C413.566 398.97 413.353 397.348 413.353 395.471C413.353 394.106 413.47 392.858 413.705 391.727C413.94 390.596 414.292 389.583 414.761 388.687C415.23 387.77 415.817 386.959 416.521 386.255C417.246 385.551 418.089 384.964 419.049 384.495C420.009 384.026 421.097 383.663 422.313 383.407L430.249 381.711L430.825 385.295L423.625 386.767C423.22 386.852 422.729 386.98 422.153 387.151C421.598 387.3 421.022 387.535 420.425 387.855C419.849 388.154 419.305 388.591 418.793 389.167C418.302 389.722 417.897 390.447 417.577 391.343C417.278 392.218 417.129 393.316 417.129 394.639C417.129 395.044 417.14 395.354 417.161 395.567C417.204 395.759 417.236 395.972 417.257 396.207C417.3 396.42 417.321 396.74 417.321 397.167L415.817 395.599C416.244 394.511 416.83 393.583 417.577 392.815C418.345 392.026 419.23 391.428 420.233 391.023C421.257 390.596 422.366 390.383 423.561 390.383C425.161 390.383 426.58 390.714 427.817 391.375C429.054 392.036 430.025 392.964 430.729 394.159C431.433 395.354 431.785 396.708 431.785 398.223C431.785 399.802 431.401 401.199 430.633 402.415C429.865 403.631 428.777 404.591 427.369 405.295C425.982 405.978 424.35 406.319 422.473 406.319ZM422.793 403.087C423.753 403.087 424.596 402.884 425.321 402.479C426.068 402.052 426.644 401.476 427.049 400.751C427.476 400.026 427.689 399.215 427.689 398.319C427.689 397.423 427.476 396.644 427.049 395.983C426.644 395.3 426.068 394.756 425.321 394.351C424.596 393.946 423.732 393.743 422.729 393.743C421.769 393.743 420.905 393.935 420.137 394.319C419.39 394.703 418.804 395.236 418.377 395.919C417.972 396.58 417.769 397.348 417.769 398.223C417.769 399.119 417.982 399.94 418.409 400.687C418.836 401.434 419.422 402.02 420.169 402.447C420.937 402.874 421.812 403.087 422.793 403.087ZM436.724 412.431C435.892 412.431 435.06 412.292 434.228 412.015C433.396 411.738 432.703 411.354 432.148 410.863L433.748 407.919C434.153 408.282 434.612 408.57 435.124 408.783C435.636 408.996 436.159 409.103 436.692 409.103C437.417 409.103 438.004 408.922 438.452 408.559C438.9 408.196 439.316 407.588 439.7 406.735L440.692 404.495L441.012 404.015L447.476 388.911H451.316L443.316 407.375C442.783 408.655 442.185 409.668 441.524 410.415C440.884 411.162 440.159 411.684 439.348 411.983C438.559 412.282 437.684 412.431 436.724 412.431ZM440.244 406.607L432.532 388.911H436.692L442.964 403.663L440.244 406.607ZM464.775 404.143V392.303H458.215L458.119 395.055C458.076 396.036 458.012 396.986 457.927 397.903C457.842 398.799 457.703 399.631 457.511 400.399C457.319 401.146 457.042 401.764 456.679 402.255C456.316 402.746 455.836 403.066 455.239 403.215L451.271 402.607C451.911 402.607 452.423 402.404 452.807 401.999C453.212 401.572 453.522 400.996 453.735 400.271C453.97 399.524 454.14 398.682 454.247 397.743C454.354 396.783 454.428 395.791 454.471 394.767L454.695 388.911H468.775V404.143H464.775ZM450.663 409.807V402.607H471.303V409.807H467.559V405.999H454.375V409.807H450.663ZM482.844 406.223C480.945 406.223 479.281 405.85 477.852 405.103C476.444 404.335 475.345 403.29 474.556 401.967C473.788 400.644 473.404 399.14 473.404 397.455C473.404 395.748 473.777 394.244 474.524 392.943C475.292 391.62 476.337 390.586 477.66 389.839C479.004 389.092 480.529 388.719 482.236 388.719C483.9 388.719 485.382 389.082 486.684 389.807C487.985 390.532 489.009 391.556 489.756 392.879C490.502 394.202 490.876 395.759 490.876 397.551C490.876 397.722 490.865 397.914 490.844 398.127C490.844 398.34 490.833 398.543 490.812 398.735H476.572V396.079H488.7L487.132 396.911C487.153 395.93 486.95 395.066 486.524 394.319C486.097 393.572 485.51 392.986 484.764 392.559C484.038 392.132 483.196 391.919 482.236 391.919C481.254 391.919 480.39 392.132 479.644 392.559C478.918 392.986 478.342 393.583 477.916 394.351C477.51 395.098 477.308 395.983 477.308 397.007V397.647C477.308 398.671 477.542 399.578 478.012 400.367C478.481 401.156 479.142 401.764 479.996 402.191C480.849 402.618 481.83 402.831 482.94 402.831C483.9 402.831 484.764 402.682 485.532 402.383C486.3 402.084 486.982 401.615 487.58 400.975L489.724 403.439C488.956 404.335 487.985 405.028 486.812 405.519C485.66 405.988 484.337 406.223 482.844 406.223ZM498.146 405.999V391.343L499.074 392.303H492.13V388.911H508.13V392.303H501.218L502.146 391.343V405.999H498.146ZM527.492 406.223C525.742 406.223 524.185 405.85 522.82 405.103C521.454 404.335 520.377 403.29 519.588 401.967C518.798 400.644 518.404 399.14 518.404 397.455C518.404 395.748 518.798 394.244 519.588 392.943C520.377 391.62 521.454 390.586 522.82 389.839C524.185 389.092 525.742 388.719 527.492 388.719C529.262 388.719 530.83 389.092 532.196 389.839C533.582 390.586 534.66 391.61 535.428 392.911C536.217 394.212 536.612 395.727 536.612 397.455C536.612 399.14 536.217 400.644 535.428 401.967C534.66 403.29 533.582 404.335 532.196 405.103C530.83 405.85 529.262 406.223 527.492 406.223ZM527.492 402.799C528.473 402.799 529.348 402.586 530.116 402.159C530.884 401.732 531.481 401.114 531.908 400.303C532.356 399.492 532.58 398.543 532.58 397.455C532.58 396.346 532.356 395.396 531.908 394.607C531.481 393.796 530.884 393.178 530.116 392.751C529.348 392.324 528.484 392.111 527.524 392.111C526.542 392.111 525.668 392.324 524.9 392.751C524.153 393.178 523.556 393.796 523.108 394.607C522.66 395.396 522.436 396.346 522.436 397.455C522.436 398.543 522.66 399.492 523.108 400.303C523.556 401.114 524.153 401.732 524.9 402.159C525.668 402.586 526.532 402.799 527.492 402.799ZM548.723 406.319C547.315 406.319 546.056 406.106 544.947 405.679C543.838 405.252 542.878 404.602 542.067 403.727C541.278 402.831 540.67 401.7 540.243 400.335C539.816 398.97 539.603 397.348 539.603 395.471C539.603 394.106 539.72 392.858 539.955 391.727C540.19 390.596 540.542 389.583 541.011 388.687C541.48 387.77 542.067 386.959 542.771 386.255C543.496 385.551 544.339 384.964 545.299 384.495C546.259 384.026 547.347 383.663 548.563 383.407L556.499 381.711L557.075 385.295L549.875 386.767C549.47 386.852 548.979 386.98 548.403 387.151C547.848 387.3 547.272 387.535 546.675 387.855C546.099 388.154 545.555 388.591 545.043 389.167C544.552 389.722 544.147 390.447 543.827 391.343C543.528 392.218 543.379 393.316 543.379 394.639C543.379 395.044 543.39 395.354 543.411 395.567C543.454 395.759 543.486 395.972 543.507 396.207C543.55 396.42 543.571 396.74 543.571 397.167L542.067 395.599C542.494 394.511 543.08 393.583 543.827 392.815C544.595 392.026 545.48 391.428 546.483 391.023C547.507 390.596 548.616 390.383 549.811 390.383C551.411 390.383 552.83 390.714 554.067 391.375C555.304 392.036 556.275 392.964 556.979 394.159C557.683 395.354 558.035 396.708 558.035 398.223C558.035 399.802 557.651 401.199 556.883 402.415C556.115 403.631 555.027 404.591 553.619 405.295C552.232 405.978 550.6 406.319 548.723 406.319ZM549.043 403.087C550.003 403.087 550.846 402.884 551.571 402.479C552.318 402.052 552.894 401.476 553.299 400.751C553.726 400.026 553.939 399.215 553.939 398.319C553.939 397.423 553.726 396.644 553.299 395.983C552.894 395.3 552.318 394.756 551.571 394.351C550.846 393.946 549.982 393.743 548.979 393.743C548.019 393.743 547.155 393.935 546.387 394.319C545.64 394.703 545.054 395.236 544.627 395.919C544.222 396.58 544.019 397.348 544.019 398.223C544.019 399.119 544.232 399.94 544.659 400.687C545.086 401.434 545.672 402.02 546.419 402.447C547.187 402.874 548.062 403.087 549.043 403.087ZM571.379 406.223C569.992 406.223 568.723 405.903 567.571 405.263C566.44 404.623 565.533 403.663 564.851 402.383C564.189 401.082 563.859 399.439 563.859 397.455C563.859 395.45 564.179 393.807 564.819 392.527C565.48 391.247 566.376 390.298 567.507 389.679C568.637 389.039 569.928 388.719 571.379 388.719C573.064 388.719 574.547 389.082 575.827 389.807C577.128 390.532 578.152 391.546 578.899 392.847C579.667 394.148 580.051 395.684 580.051 397.455C580.051 399.226 579.667 400.772 578.899 402.095C578.152 403.396 577.128 404.41 575.827 405.135C574.547 405.86 573.064 406.223 571.379 406.223ZM561.907 412.207V388.911H565.715V392.943L565.587 397.487L565.907 402.031V412.207H561.907ZM570.931 402.799C571.891 402.799 572.744 402.586 573.491 402.159C574.259 401.732 574.867 401.114 575.315 400.303C575.763 399.492 575.987 398.543 575.987 397.455C575.987 396.346 575.763 395.396 575.315 394.607C574.867 393.796 574.259 393.178 573.491 392.751C572.744 392.324 571.891 392.111 570.931 392.111C569.971 392.111 569.107 392.324 568.339 392.751C567.571 393.178 566.963 393.796 566.515 394.607C566.067 395.396 565.843 396.346 565.843 397.455C565.843 398.543 566.067 399.492 566.515 400.303C566.963 401.114 567.571 401.732 568.339 402.159C569.107 402.586 569.971 402.799 570.931 402.799ZM594.181 405.999V402.543L593.957 401.807V395.759C593.957 394.586 593.605 393.679 592.901 393.039C592.197 392.378 591.13 392.047 589.701 392.047C588.741 392.047 587.792 392.196 586.853 392.495C585.936 392.794 585.157 393.21 584.517 393.743L582.949 390.831C583.866 390.127 584.954 389.604 586.213 389.263C587.493 388.9 588.816 388.719 590.181 388.719C592.656 388.719 594.565 389.316 595.909 390.511C597.274 391.684 597.957 393.508 597.957 395.983V405.999H594.181ZM588.805 406.223C587.525 406.223 586.405 406.01 585.445 405.583C584.485 405.135 583.738 404.527 583.205 403.759C582.693 402.97 582.437 402.084 582.437 401.103C582.437 400.143 582.661 399.279 583.109 398.511C583.578 397.743 584.336 397.135 585.381 396.687C586.426 396.239 587.813 396.015 589.541 396.015H594.501V398.671H589.829C588.464 398.671 587.546 398.895 587.077 399.343C586.608 399.77 586.373 400.303 586.373 400.943C586.373 401.668 586.661 402.244 587.237 402.671C587.813 403.098 588.613 403.311 589.637 403.311C590.618 403.311 591.493 403.087 592.261 402.639C593.05 402.191 593.616 401.53 593.957 400.655L594.629 403.055C594.245 404.058 593.552 404.836 592.549 405.391C591.568 405.946 590.32 406.223 588.805 406.223ZM610.683 406.223C608.891 406.223 607.291 405.85 605.883 405.103C604.496 404.335 603.408 403.29 602.619 401.967C601.829 400.644 601.435 399.14 601.435 397.455C601.435 395.748 601.829 394.244 602.619 392.943C603.408 391.62 604.496 390.586 605.883 389.839C607.291 389.092 608.891 388.719 610.683 388.719C612.347 388.719 613.808 389.06 615.067 389.743C616.347 390.404 617.317 391.386 617.979 392.687L614.907 394.479C614.395 393.668 613.765 393.071 613.019 392.687C612.293 392.303 611.504 392.111 610.651 392.111C609.669 392.111 608.784 392.324 607.995 392.751C607.205 393.178 606.587 393.796 606.139 394.607C605.691 395.396 605.467 396.346 605.467 397.455C605.467 398.564 605.691 399.524 606.139 400.335C606.587 401.124 607.205 401.732 607.995 402.159C608.784 402.586 609.669 402.799 610.651 402.799C611.504 402.799 612.293 402.607 613.019 402.223C613.765 401.839 614.395 401.242 614.907 400.431L617.979 402.223C617.317 403.503 616.347 404.495 615.067 405.199C613.808 405.882 612.347 406.223 610.683 406.223ZM624.928 405.999V391.343L625.856 392.303H618.912V388.911H634.912V392.303H628L628.928 391.343V405.999H624.928ZM648.181 405.999V402.543L647.957 401.807V395.759C647.957 394.586 647.605 393.679 646.901 393.039C646.197 392.378 645.13 392.047 643.701 392.047C642.741 392.047 641.792 392.196 640.853 392.495C639.936 392.794 639.157 393.21 638.517 393.743L636.949 390.831C637.866 390.127 638.954 389.604 640.213 389.263C641.493 388.9 642.816 388.719 644.181 388.719C646.656 388.719 648.565 389.316 649.909 390.511C651.274 391.684 651.957 393.508 651.957 395.983V405.999H648.181ZM642.805 406.223C641.525 406.223 640.405 406.01 639.445 405.583C638.485 405.135 637.738 404.527 637.205 403.759C636.693 402.97 636.437 402.084 636.437 401.103C636.437 400.143 636.661 399.279 637.109 398.511C637.578 397.743 638.336 397.135 639.381 396.687C640.426 396.239 641.813 396.015 643.541 396.015H648.501V398.671H643.829C642.464 398.671 641.546 398.895 641.077 399.343C640.608 399.77 640.373 400.303 640.373 400.943C640.373 401.668 640.661 402.244 641.237 402.671C641.813 403.098 642.613 403.311 643.637 403.311C644.618 403.311 645.493 403.087 646.261 402.639C647.05 402.191 647.616 401.53 647.957 400.655L648.629 403.055C648.245 404.058 647.552 404.836 646.549 405.391C645.568 405.946 644.32 406.223 642.805 406.223ZM660.459 405.999V391.343L661.387 392.303H654.443V388.911H670.443V392.303H663.531L664.459 391.343V405.999H660.459ZM681.92 394.543C684.118 394.543 685.792 395.034 686.944 396.015C688.096 396.996 688.672 398.383 688.672 400.175C688.672 402.031 688.032 403.482 686.752 404.527C685.472 405.551 683.67 406.052 681.344 406.031L673.344 405.999V388.911H677.344V394.511L681.92 394.543ZM680.992 403.087C682.166 403.108 683.062 402.863 683.68 402.351C684.299 401.839 684.608 401.092 684.608 400.111C684.608 399.13 684.299 398.426 683.68 397.999C683.083 397.551 682.187 397.316 680.992 397.295L677.344 397.263V403.055L680.992 403.087ZM701.032 405.999V388.911H705.032V395.855H713.64V388.911H717.64V405.999H713.64V399.247H705.032V405.999H701.032ZM730.617 406.223C728.867 406.223 727.31 405.85 725.945 405.103C724.579 404.335 723.502 403.29 722.713 401.967C721.923 400.644 721.529 399.14 721.529 397.455C721.529 395.748 721.923 394.244 722.713 392.943C723.502 391.62 724.579 390.586 725.945 389.839C727.31 389.092 728.867 388.719 730.617 388.719C732.387 388.719 733.955 389.092 735.321 389.839C736.707 390.586 737.785 391.61 738.553 392.911C739.342 394.212 739.737 395.727 739.737 397.455C739.737 399.14 739.342 400.644 738.553 401.967C737.785 403.29 736.707 404.335 735.321 405.103C733.955 405.85 732.387 406.223 730.617 406.223ZM730.617 402.799C731.598 402.799 732.473 402.586 733.241 402.159C734.009 401.732 734.606 401.114 735.033 400.303C735.481 399.492 735.705 398.543 735.705 397.455C735.705 396.346 735.481 395.396 735.033 394.607C734.606 393.796 734.009 393.178 733.241 392.751C732.473 392.324 731.609 392.111 730.649 392.111C729.667 392.111 728.793 392.324 728.025 392.751C727.278 393.178 726.681 393.796 726.233 394.607C725.785 395.396 725.561 396.346 725.561 397.455C725.561 398.543 725.785 399.492 726.233 400.303C726.681 401.114 727.278 401.732 728.025 402.159C728.793 402.586 729.657 402.799 730.617 402.799ZM743.688 405.999V388.911H752.04C754.109 388.911 755.731 389.295 756.904 390.063C758.099 390.831 758.696 391.919 758.696 393.327C758.696 394.714 758.141 395.802 757.032 396.591C755.923 397.359 754.451 397.743 752.616 397.743L753.096 396.751C755.165 396.751 756.701 397.135 757.704 397.903C758.728 398.65 759.24 399.748 759.24 401.199C759.24 402.714 758.675 403.898 757.544 404.751C756.413 405.583 754.696 405.999 752.392 405.999H743.688ZM747.496 403.087H752.072C753.16 403.087 753.981 402.916 754.536 402.575C755.091 402.212 755.368 401.668 755.368 400.943C755.368 400.175 755.112 399.61 754.6 399.247C754.088 398.884 753.288 398.703 752.2 398.703H747.496V403.087ZM747.496 396.047H751.688C752.712 396.047 753.48 395.866 753.992 395.503C754.525 395.119 754.792 394.586 754.792 393.903C754.792 393.199 754.525 392.676 753.992 392.335C753.48 391.994 752.712 391.823 751.688 391.823H747.496V396.047ZM780.749 405.999V388.911H784.749V405.999H780.749ZM771.821 394.543C774.018 394.543 775.682 395.034 776.812 396.015C777.965 396.996 778.541 398.383 778.541 400.175C778.541 402.031 777.901 403.482 776.621 404.527C775.362 405.551 773.57 406.052 771.245 406.031L763.501 405.999V388.911H767.501V394.511L771.821 394.543ZM770.893 403.087C772.066 403.108 772.962 402.863 773.581 402.351C774.199 401.839 774.509 401.092 774.509 400.111C774.509 399.13 774.199 398.426 773.581 397.999C772.983 397.551 772.087 397.316 770.893 397.295L767.501 397.263V403.055L770.893 403.087ZM790.126 405.999V388.911H794.318L801.198 401.039H799.534L806.766 388.911H810.51L810.542 405.999H806.926V393.199L807.566 393.615L801.166 404.207H799.438L793.006 393.327L793.774 393.135V405.999H790.126ZM815.907 405.999V388.911H819.907V400.175L829.347 388.911H832.995V405.999H828.995V394.735L819.587 405.999H815.907ZM848.755 412.431C847.923 412.431 847.091 412.292 846.259 412.015C845.427 411.738 844.734 411.354 844.179 410.863L845.779 407.919C846.185 408.282 846.643 408.57 847.155 408.783C847.667 408.996 848.19 409.103 848.723 409.103C849.449 409.103 850.035 408.922 850.483 408.559C850.931 408.196 851.347 407.588 851.731 406.735L852.723 404.495L853.043 404.015L859.507 388.911H863.347L855.347 407.375C854.814 408.655 854.217 409.668 853.555 410.415C852.915 411.162 852.19 411.684 851.379 411.983C850.59 412.282 849.715 412.431 848.755 412.431ZM852.275 406.607L844.563 388.911H848.723L854.995 403.663L852.275 406.607ZM869.709 405.999V391.343L870.637 392.303H863.693V388.911H879.693V392.303H872.781L873.709 391.343V405.999H869.709ZM882.594 405.999V388.911H886.594V400.175L896.034 388.911H899.682V405.999H895.682V394.735L886.274 405.999H882.594ZM902.567 405.967L902.759 402.607C902.908 402.628 903.047 402.65 903.175 402.671C903.303 402.692 903.42 402.703 903.527 402.703C904.188 402.703 904.7 402.5 905.063 402.095C905.426 401.69 905.692 401.146 905.863 400.463C906.055 399.759 906.183 398.98 906.247 398.127C906.332 397.252 906.396 396.378 906.439 395.503L906.727 388.911H920.551V405.999H916.551V391.215L917.479 392.303H909.351L910.215 391.183L909.991 395.695C909.927 397.21 909.799 398.618 909.607 399.919C909.436 401.199 909.159 402.319 908.775 403.279C908.412 404.239 907.9 404.986 907.239 405.519C906.599 406.052 905.778 406.319 904.775 406.319C904.455 406.319 904.103 406.287 903.719 406.223C903.356 406.159 902.972 406.074 902.567 405.967ZM925.938 405.999V388.911H929.938V400.175L939.378 388.911H943.026V405.999H939.026V394.735L929.618 405.999H925.938ZM951.959 405.999V391.343L952.887 392.303H945.943V388.911H961.943V392.303H955.031L955.959 391.343V405.999H951.959ZM975.212 405.999V402.543L974.988 401.807V395.759C974.988 394.586 974.636 393.679 973.932 393.039C973.228 392.378 972.162 392.047 970.732 392.047C969.772 392.047 968.823 392.196 967.884 392.495C966.967 392.794 966.188 393.21 965.548 393.743L963.98 390.831C964.898 390.127 965.986 389.604 967.244 389.263C968.524 388.9 969.847 388.719 971.212 388.719C973.687 388.719 975.596 389.316 976.94 390.511C978.306 391.684 978.988 393.508 978.988 395.983V405.999H975.212ZM969.836 406.223C968.556 406.223 967.436 406.01 966.476 405.583C965.516 405.135 964.77 404.527 964.236 403.759C963.724 402.97 963.468 402.084 963.468 401.103C963.468 400.143 963.692 399.279 964.14 398.511C964.61 397.743 965.367 397.135 966.412 396.687C967.458 396.239 968.844 396.015 970.572 396.015H975.532V398.671H970.86C969.495 398.671 968.578 398.895 968.108 399.343C967.639 399.77 967.404 400.303 967.404 400.943C967.404 401.668 967.692 402.244 968.268 402.671C968.844 403.098 969.644 403.311 970.668 403.311C971.65 403.311 972.524 403.087 973.292 402.639C974.082 402.191 974.647 401.53 974.988 400.655L975.66 403.055C975.276 404.058 974.583 404.836 973.58 405.391C972.599 405.946 971.351 406.223 969.836 406.223ZM983.938 405.999V388.911H988.13L995.01 401.039H993.346L1000.58 388.911H1004.32L1004.35 405.999H1000.74V393.199L1001.38 393.615L994.978 404.207H993.25L986.818 393.327L987.586 393.135V405.999H983.938ZM1009.72 405.999V388.911H1013.72V400.175L1023.16 388.911H1026.81V405.999H1022.81V394.735L1013.4 405.999H1009.72ZM1031.07 410.831L1032.92 403.759L1033.47 406.127C1032.72 406.127 1032.09 405.903 1031.58 405.455C1031.09 404.986 1030.84 404.356 1030.84 403.567C1030.84 402.756 1031.09 402.116 1031.58 401.647C1032.09 401.156 1032.71 400.911 1033.44 400.911C1034.18 400.911 1034.8 401.156 1035.29 401.647C1035.78 402.138 1036.03 402.778 1036.03 403.567C1036.03 403.78 1036.01 404.015 1035.96 404.271C1035.92 404.506 1035.85 404.783 1035.74 405.103C1035.65 405.423 1035.51 405.828 1035.29 406.319L1033.66 410.831H1031.07ZM132.944 449.999L126.768 441.807L130.032 439.791L137.648 449.999H132.944ZM120.688 449.999V432.911H124.688V449.999H120.688ZM123.504 443.151V439.823H129.296V443.151H123.504ZM130.416 441.935L126.672 441.487L132.944 432.911H137.232L130.416 441.935ZM147.523 450.223C145.773 450.223 144.216 449.85 142.851 449.103C141.485 448.335 140.408 447.29 139.619 445.967C138.829 444.644 138.435 443.14 138.435 441.455C138.435 439.748 138.829 438.244 139.619 436.943C140.408 435.62 141.485 434.586 142.851 433.839C144.216 433.092 145.773 432.719 147.523 432.719C149.293 432.719 150.861 433.092 152.227 433.839C153.613 434.586 154.691 435.61 155.459 436.911C156.248 438.212 156.643 439.727 156.643 441.455C156.643 443.14 156.248 444.644 155.459 445.967C154.691 447.29 153.613 448.335 152.227 449.103C150.861 449.85 149.293 450.223 147.523 450.223ZM147.523 446.799C148.504 446.799 149.379 446.586 150.147 446.159C150.915 445.732 151.512 445.114 151.939 444.303C152.387 443.492 152.611 442.543 152.611 441.455C152.611 440.346 152.387 439.396 151.939 438.607C151.512 437.796 150.915 437.178 150.147 436.751C149.379 436.324 148.515 436.111 147.555 436.111C146.573 436.111 145.699 436.324 144.931 436.751C144.184 437.178 143.587 437.796 143.139 438.607C142.691 439.396 142.467 440.346 142.467 441.455C142.467 442.543 142.691 443.492 143.139 444.303C143.587 445.114 144.184 445.732 144.931 446.159C145.699 446.586 146.563 446.799 147.523 446.799ZM163.521 449.999V435.343L164.449 436.303H157.505V432.911H173.505V436.303H166.593L167.521 435.343V449.999H163.521ZM183.273 450.223C181.523 450.223 179.966 449.85 178.601 449.103C177.235 448.335 176.158 447.29 175.369 445.967C174.579 444.644 174.185 443.14 174.185 441.455C174.185 439.748 174.579 438.244 175.369 436.943C176.158 435.62 177.235 434.586 178.601 433.839C179.966 433.092 181.523 432.719 183.273 432.719C185.043 432.719 186.611 433.092 187.977 433.839C189.363 434.586 190.441 435.61 191.209 436.911C191.998 438.212 192.393 439.727 192.393 441.455C192.393 443.14 191.998 444.644 191.209 445.967C190.441 447.29 189.363 448.335 187.977 449.103C186.611 449.85 185.043 450.223 183.273 450.223ZM183.273 446.799C184.254 446.799 185.129 446.586 185.897 446.159C186.665 445.732 187.262 445.114 187.689 444.303C188.137 443.492 188.361 442.543 188.361 441.455C188.361 440.346 188.137 439.396 187.689 438.607C187.262 437.796 186.665 437.178 185.897 436.751C185.129 436.324 184.265 436.111 183.305 436.111C182.323 436.111 181.449 436.324 180.681 436.751C179.934 437.178 179.337 437.796 178.889 438.607C178.441 439.396 178.217 440.346 178.217 441.455C178.217 442.543 178.441 443.492 178.889 444.303C179.337 445.114 179.934 445.732 180.681 446.159C181.449 446.586 182.313 446.799 183.273 446.799ZM205.816 450.223C204.43 450.223 203.16 449.903 202.008 449.263C200.878 448.623 199.971 447.663 199.288 446.383C198.627 445.082 198.296 443.439 198.296 441.455C198.296 439.45 198.616 437.807 199.256 436.527C199.918 435.247 200.814 434.298 201.944 433.679C203.075 433.039 204.366 432.719 205.816 432.719C207.502 432.719 208.984 433.082 210.264 433.807C211.566 434.532 212.59 435.546 213.336 436.847C214.104 438.148 214.488 439.684 214.488 441.455C214.488 443.226 214.104 444.772 213.336 446.095C212.59 447.396 211.566 448.41 210.264 449.135C208.984 449.86 207.502 450.223 205.816 450.223ZM196.344 456.207V432.911H200.152V436.943L200.024 441.487L200.344 446.031V456.207H196.344ZM205.368 446.799C206.328 446.799 207.182 446.586 207.928 446.159C208.696 445.732 209.304 445.114 209.752 444.303C210.2 443.492 210.424 442.543 210.424 441.455C210.424 440.346 210.2 439.396 209.752 438.607C209.304 437.796 208.696 437.178 207.928 436.751C207.182 436.324 206.328 436.111 205.368 436.111C204.408 436.111 203.544 436.324 202.776 436.751C202.008 437.178 201.4 437.796 200.952 438.607C200.504 439.396 200.28 440.346 200.28 441.455C200.28 442.543 200.504 443.492 200.952 444.303C201.4 445.114 202.008 445.732 202.776 446.159C203.544 446.586 204.408 446.799 205.368 446.799ZM235.717 449.999V432.911H239.717V449.999H235.717ZM226.789 438.543C228.987 438.543 230.651 439.034 231.781 440.015C232.933 440.996 233.509 442.383 233.509 444.175C233.509 446.031 232.869 447.482 231.589 448.527C230.331 449.551 228.539 450.052 226.213 450.031L218.469 449.999V432.911H222.469V438.511L226.789 438.543ZM225.861 447.087C227.035 447.108 227.931 446.863 228.549 446.351C229.168 445.839 229.477 445.092 229.477 444.111C229.477 443.13 229.168 442.426 228.549 441.999C227.952 441.551 227.056 441.316 225.861 441.295L222.469 441.263V447.055L225.861 447.087ZM253.062 450.223C251.164 450.223 249.5 449.85 248.07 449.103C246.662 448.335 245.564 447.29 244.774 445.967C244.006 444.644 243.622 443.14 243.622 441.455C243.622 439.748 243.996 438.244 244.742 436.943C245.51 435.62 246.556 434.586 247.878 433.839C249.222 433.092 250.748 432.719 252.454 432.719C254.118 432.719 255.601 433.082 256.902 433.807C258.204 434.532 259.228 435.556 259.974 436.879C260.721 438.202 261.094 439.759 261.094 441.551C261.094 441.722 261.084 441.914 261.062 442.127C261.062 442.34 261.052 442.543 261.03 442.735H246.79V440.079H258.918L257.35 440.911C257.372 439.93 257.169 439.066 256.742 438.319C256.316 437.572 255.729 436.986 254.982 436.559C254.257 436.132 253.414 435.919 252.454 435.919C251.473 435.919 250.609 436.132 249.862 436.559C249.137 436.986 248.561 437.583 248.134 438.351C247.729 439.098 247.526 439.983 247.526 441.007V441.647C247.526 442.671 247.761 443.578 248.23 444.367C248.7 445.156 249.361 445.764 250.214 446.191C251.068 446.618 252.049 446.831 253.158 446.831C254.118 446.831 254.982 446.682 255.75 446.383C256.518 446.084 257.201 445.615 257.798 444.975L259.942 447.439C259.174 448.335 258.204 449.028 257.03 449.519C255.878 449.988 254.556 450.223 253.062 450.223ZM282.089 450.223C280.297 450.223 278.697 449.85 277.289 449.103C275.902 448.335 274.814 447.29 274.025 445.967C273.236 444.644 272.841 443.14 272.841 441.455C272.841 439.748 273.236 438.244 274.025 436.943C274.814 435.62 275.902 434.586 277.289 433.839C278.697 433.092 280.297 432.719 282.089 432.719C283.753 432.719 285.214 433.06 286.473 433.743C287.753 434.404 288.724 435.386 289.385 436.687L286.313 438.479C285.801 437.668 285.172 437.071 284.425 436.687C283.7 436.303 282.91 436.111 282.057 436.111C281.076 436.111 280.19 436.324 279.401 436.751C278.612 437.178 277.993 437.796 277.545 438.607C277.097 439.396 276.873 440.346 276.873 441.455C276.873 442.564 277.097 443.524 277.545 444.335C277.993 445.124 278.612 445.732 279.401 446.159C280.19 446.586 281.076 446.799 282.057 446.799C282.91 446.799 283.7 446.607 284.425 446.223C285.172 445.839 285.801 445.242 286.313 444.431L289.385 446.223C288.724 447.503 287.753 448.495 286.473 449.199C285.214 449.882 283.753 450.223 282.089 450.223ZM296.334 449.999V435.343L297.262 436.303H290.318V432.911H306.318V436.303H299.406L300.334 435.343V449.999H296.334ZM319.587 449.999V446.543L319.363 445.807V439.759C319.363 438.586 319.011 437.679 318.307 437.039C317.603 436.378 316.537 436.047 315.107 436.047C314.147 436.047 313.198 436.196 312.259 436.495C311.342 436.794 310.563 437.21 309.923 437.743L308.355 434.831C309.273 434.127 310.361 433.604 311.619 433.263C312.899 432.9 314.222 432.719 315.587 432.719C318.062 432.719 319.971 433.316 321.315 434.511C322.681 435.684 323.363 437.508 323.363 439.983V449.999H319.587ZM314.211 450.223C312.931 450.223 311.811 450.01 310.851 449.583C309.891 449.135 309.145 448.527 308.611 447.759C308.099 446.97 307.843 446.084 307.843 445.103C307.843 444.143 308.067 443.279 308.515 442.511C308.985 441.743 309.742 441.135 310.787 440.687C311.833 440.239 313.219 440.015 314.947 440.015H319.907V442.671H315.235C313.87 442.671 312.953 442.895 312.483 443.343C312.014 443.77 311.779 444.303 311.779 444.943C311.779 445.668 312.067 446.244 312.643 446.671C313.219 447.098 314.019 447.311 315.043 447.311C316.025 447.311 316.899 447.087 317.667 446.639C318.457 446.191 319.022 445.53 319.363 444.655L320.035 447.055C319.651 448.058 318.958 448.836 317.955 449.391C316.974 449.946 315.726 450.223 314.211 450.223ZM328.313 449.999V432.911H332.313V439.855H340.921V432.911H344.921V449.999H340.921V443.247H332.313V449.999H328.313ZM351.818 456.431C350.986 456.431 350.154 456.292 349.322 456.015C348.49 455.738 347.796 455.354 347.242 454.863L348.842 451.919C349.247 452.282 349.706 452.57 350.218 452.783C350.73 452.996 351.252 453.103 351.786 453.103C352.511 453.103 353.098 452.922 353.546 452.559C353.994 452.196 354.41 451.588 354.794 450.735L355.786 448.495L356.106 448.015L362.57 432.911H366.41L358.41 451.375C357.876 452.655 357.279 453.668 356.618 454.415C355.978 455.162 355.252 455.684 354.442 455.983C353.652 456.282 352.778 456.431 351.818 456.431ZM355.338 450.607L347.626 432.911H351.786L358.058 447.663L355.338 450.607ZM372.771 449.999V435.343L373.699 436.303H366.755V432.911H382.755V436.303H375.843L376.771 435.343V449.999H372.771ZM394.501 449.999V432.911H410.885V449.999H406.917V435.375L407.845 436.303H397.573L398.501 435.375V449.999H394.501ZM423.898 450.223C422.148 450.223 420.591 449.85 419.226 449.103C417.86 448.335 416.783 447.29 415.994 445.967C415.204 444.644 414.81 443.14 414.81 441.455C414.81 439.748 415.204 438.244 415.994 436.943C416.783 435.62 417.86 434.586 419.226 433.839C420.591 433.092 422.148 432.719 423.898 432.719C425.668 432.719 427.236 433.092 428.602 433.839C429.988 434.586 431.066 435.61 431.834 436.911C432.623 438.212 433.018 439.727 433.018 441.455C433.018 443.14 432.623 444.644 431.834 445.967C431.066 447.29 429.988 448.335 428.602 449.103C427.236 449.85 425.668 450.223 423.898 450.223ZM423.898 446.799C424.879 446.799 425.754 446.586 426.522 446.159C427.29 445.732 427.887 445.114 428.314 444.303C428.762 443.492 428.986 442.543 428.986 441.455C428.986 440.346 428.762 439.396 428.314 438.607C427.887 437.796 427.29 437.178 426.522 436.751C425.754 436.324 424.89 436.111 423.93 436.111C422.948 436.111 422.074 436.324 421.306 436.751C420.559 437.178 419.962 437.796 419.514 438.607C419.066 439.396 418.842 440.346 418.842 441.455C418.842 442.543 419.066 443.492 419.514 444.303C419.962 445.114 420.559 445.732 421.306 446.159C422.074 446.586 422.938 446.799 423.898 446.799ZM436.969 449.999V432.911H441.161L448.041 445.039H446.377L453.609 432.911H457.353L457.385 449.999H453.769V437.199L454.409 437.615L448.009 448.207H446.281L439.849 437.327L440.617 437.135V449.999H436.969ZM470.367 450.223C468.617 450.223 467.06 449.85 465.695 449.103C464.329 448.335 463.252 447.29 462.463 445.967C461.673 444.644 461.279 443.14 461.279 441.455C461.279 439.748 461.673 438.244 462.463 436.943C463.252 435.62 464.329 434.586 465.695 433.839C467.06 433.092 468.617 432.719 470.367 432.719C472.137 432.719 473.705 433.092 475.071 433.839C476.457 434.586 477.535 435.61 478.303 436.911C479.092 438.212 479.487 439.727 479.487 441.455C479.487 443.14 479.092 444.644 478.303 445.967C477.535 447.29 476.457 448.335 475.071 449.103C473.705 449.85 472.137 450.223 470.367 450.223ZM470.367 446.799C471.348 446.799 472.223 446.586 472.991 446.159C473.759 445.732 474.356 445.114 474.783 444.303C475.231 443.492 475.455 442.543 475.455 441.455C475.455 440.346 475.231 439.396 474.783 438.607C474.356 437.796 473.759 437.178 472.991 436.751C472.223 436.324 471.359 436.111 470.399 436.111C469.417 436.111 468.543 436.324 467.775 436.751C467.028 437.178 466.431 437.796 465.983 438.607C465.535 439.396 465.311 440.346 465.311 441.455C465.311 442.543 465.535 443.492 465.983 444.303C466.431 445.114 467.028 445.732 467.775 446.159C468.543 446.586 469.407 446.799 470.367 446.799ZM494.926 446.607L494.062 447.567V432.911H498.062V447.567L497.102 446.607H505.55L504.622 447.567V432.911H508.622V449.999H483.438V432.911H487.438V447.567L486.51 446.607H494.926ZM507.342 453.519V449.007L508.27 449.999H504.494V446.607H511.086V453.519H507.342ZM514.001 449.999V432.911H518.001V439.855H526.609V432.911H530.609V449.999H526.609V443.247H518.001V449.999H514.001ZM535.969 449.999V432.911H539.969V444.175L549.409 432.911H553.057V449.999H549.057V438.735L539.649 449.999H535.969ZM570.694 449.999L564.518 441.807L567.782 439.791L575.398 449.999H570.694ZM558.438 449.999V432.911H562.438V449.999H558.438ZM561.254 443.151V439.823H567.046V443.151H561.254ZM568.166 441.935L564.422 441.487L570.694 432.911H574.982L568.166 441.935ZM588.275 449.999V446.543L588.051 445.807V439.759C588.051 438.586 587.699 437.679 586.995 437.039C586.291 436.378 585.224 436.047 583.795 436.047C582.835 436.047 581.885 436.196 580.947 436.495C580.029 436.794 579.251 437.21 578.611 437.743L577.043 434.831C577.96 434.127 579.048 433.604 580.307 433.263C581.587 432.9 582.909 432.719 584.275 432.719C586.749 432.719 588.659 433.316 590.003 434.511C591.368 435.684 592.051 437.508 592.051 439.983V449.999H588.275ZM582.899 450.223C581.619 450.223 580.499 450.01 579.539 449.583C578.579 449.135 577.832 448.527 577.299 447.759C576.787 446.97 576.531 446.084 576.531 445.103C576.531 444.143 576.755 443.279 577.203 442.511C577.672 441.743 578.429 441.135 579.475 440.687C580.52 440.239 581.907 440.015 583.635 440.015H588.595V442.671H583.923C582.557 442.671 581.64 442.895 581.171 443.343C580.701 443.77 580.467 444.303 580.467 444.943C580.467 445.668 580.755 446.244 581.331 446.671C581.907 447.098 582.707 447.311 583.731 447.311C584.712 447.311 585.587 447.087 586.355 446.639C587.144 446.191 587.709 445.53 588.051 444.655L588.723 447.055C588.339 448.058 587.645 448.836 586.643 449.391C585.661 449.946 584.413 450.223 582.899 450.223ZM597.001 449.999V432.911H601.193L608.073 445.039H606.409L613.641 432.911H617.385L617.417 449.999H613.801V437.199L614.441 437.615L608.041 448.207H606.313L599.881 437.327L600.649 437.135V449.999H597.001ZM622.782 449.999V432.911H626.782V444.175L636.222 432.911H639.87V449.999H635.87V438.735L626.462 449.999H622.782ZM666.35 449.999L660.174 441.807L663.438 439.791L671.054 449.999H666.35ZM654.094 449.999V432.911H658.094V449.999H654.094ZM656.91 443.151V439.823H662.702V443.151H656.91ZM663.822 441.935L660.078 441.487L666.35 432.911H670.638L663.822 441.935ZM683.931 449.999V446.543L683.707 445.807V439.759C683.707 438.586 683.355 437.679 682.651 437.039C681.947 436.378 680.88 436.047 679.451 436.047C678.491 436.047 677.542 436.196 676.603 436.495C675.686 436.794 674.907 437.21 674.267 437.743L672.699 434.831C673.616 434.127 674.704 433.604 675.963 433.263C677.243 432.9 678.566 432.719 679.931 432.719C682.406 432.719 684.315 433.316 685.659 434.511C687.024 435.684 687.707 437.508 687.707 439.983V449.999H683.931ZM678.555 450.223C677.275 450.223 676.155 450.01 675.195 449.583C674.235 449.135 673.488 448.527 672.955 447.759C672.443 446.97 672.187 446.084 672.187 445.103C672.187 444.143 672.411 443.279 672.859 442.511C673.328 441.743 674.086 441.135 675.131 440.687C676.176 440.239 677.563 440.015 679.291 440.015H684.251V442.671H679.579C678.214 442.671 677.296 442.895 676.827 443.343C676.358 443.77 676.123 444.303 676.123 444.943C676.123 445.668 676.411 446.244 676.987 446.671C677.563 447.098 678.363 447.311 679.387 447.311C680.368 447.311 681.243 447.087 682.011 446.639C682.8 446.191 683.366 445.53 683.707 444.655L684.379 447.055C683.995 448.058 683.302 448.836 682.299 449.391C681.318 449.946 680.07 450.223 678.555 450.223ZM713.041 449.999L708.049 441.807L711.313 439.791L717.809 449.999H713.041ZM704.817 443.151V439.823H710.545V443.151H704.817ZM711.697 441.935L707.921 441.487L713.105 432.911H717.361L711.697 441.935ZM694.993 449.999H690.257L696.721 439.791L699.985 441.807L694.993 449.999ZM706.001 449.999H702.033V432.911H706.001V449.999ZM703.217 443.151H697.521V439.823H703.217V443.151ZM696.337 441.935L690.673 432.911H694.929L700.081 441.487L696.337 441.935ZM732.494 448.143V436.303H725.934L725.838 439.055C725.795 440.036 725.731 440.986 725.646 441.903C725.56 442.799 725.422 443.631 725.23 444.399C725.038 445.146 724.76 445.764 724.398 446.255C724.035 446.746 723.555 447.066 722.958 447.215L718.99 446.607C719.63 446.607 720.142 446.404 720.526 445.999C720.931 445.572 721.24 444.996 721.454 444.271C721.688 443.524 721.859 442.682 721.966 441.743C722.072 440.783 722.147 439.791 722.19 438.767L722.414 432.911H736.494V448.143H732.494ZM718.382 453.807V446.607H739.022V453.807H735.278V449.999H722.094V453.807H718.382ZM750.21 450.223C748.461 450.223 746.904 449.85 745.538 449.103C744.173 448.335 743.096 447.29 742.306 445.967C741.517 444.644 741.122 443.14 741.122 441.455C741.122 439.748 741.517 438.244 742.306 436.943C743.096 435.62 744.173 434.586 745.538 433.839C746.904 433.092 748.461 432.719 750.21 432.719C751.981 432.719 753.549 433.092 754.914 433.839C756.301 434.586 757.378 435.61 758.146 436.911C758.936 438.212 759.33 439.727 759.33 441.455C759.33 443.14 758.936 444.644 758.146 445.967C757.378 447.29 756.301 448.335 754.914 449.103C753.549 449.85 751.981 450.223 750.21 450.223ZM750.21 446.799C751.192 446.799 752.066 446.586 752.834 446.159C753.602 445.732 754.2 445.114 754.626 444.303C755.074 443.492 755.298 442.543 755.298 441.455C755.298 440.346 755.074 439.396 754.626 438.607C754.2 437.796 753.602 437.178 752.834 436.751C752.066 436.324 751.202 436.111 750.242 436.111C749.261 436.111 748.386 436.324 747.618 436.751C746.872 437.178 746.274 437.796 745.826 438.607C745.378 439.396 745.154 440.346 745.154 441.455C745.154 442.543 745.378 443.492 745.826 444.303C746.274 445.114 746.872 445.732 747.618 446.159C748.386 446.586 749.25 446.799 750.21 446.799ZM763.282 449.999V432.911H776.402V436.303H766.354L767.282 435.407V449.999H763.282ZM786.179 450.223C784.43 450.223 782.872 449.85 781.507 449.103C780.142 448.335 779.064 447.29 778.275 445.967C777.486 444.644 777.091 443.14 777.091 441.455C777.091 439.748 777.486 438.244 778.275 436.943C779.064 435.62 780.142 434.586 781.507 433.839C782.872 433.092 784.43 432.719 786.179 432.719C787.95 432.719 789.518 433.092 790.883 433.839C792.27 434.586 793.347 435.61 794.115 436.911C794.904 438.212 795.299 439.727 795.299 441.455C795.299 443.14 794.904 444.644 794.115 445.967C793.347 447.29 792.27 448.335 790.883 449.103C789.518 449.85 787.95 450.223 786.179 450.223ZM786.179 446.799C787.16 446.799 788.035 446.586 788.803 446.159C789.571 445.732 790.168 445.114 790.595 444.303C791.043 443.492 791.267 442.543 791.267 441.455C791.267 440.346 791.043 439.396 790.595 438.607C790.168 437.796 789.571 437.178 788.803 436.751C788.035 436.324 787.171 436.111 786.211 436.111C785.23 436.111 784.355 436.324 783.587 436.751C782.84 437.178 782.243 437.796 781.795 438.607C781.347 439.396 781.123 440.346 781.123 441.455C781.123 442.543 781.347 443.492 781.795 444.303C782.243 445.114 782.84 445.732 783.587 446.159C784.355 446.586 785.219 446.799 786.179 446.799ZM808.094 449.999V432.911H824.478V449.999H820.51V435.375L821.438 436.303H811.166L812.094 435.375V449.999H808.094ZM839.348 450.223C837.961 450.223 836.692 449.903 835.54 449.263C834.409 448.623 833.502 447.663 832.82 446.383C832.158 445.082 831.828 443.439 831.828 441.455C831.828 439.45 832.148 437.807 832.788 436.527C833.449 435.247 834.345 434.298 835.476 433.679C836.606 433.039 837.897 432.719 839.348 432.719C841.033 432.719 842.516 433.082 843.796 433.807C845.097 434.532 846.121 435.546 846.868 436.847C847.636 438.148 848.02 439.684 848.02 441.455C848.02 443.226 847.636 444.772 846.868 446.095C846.121 447.396 845.097 448.41 843.796 449.135C842.516 449.86 841.033 450.223 839.348 450.223ZM829.876 456.207V432.911H833.684V436.943L833.556 441.487L833.876 446.031V456.207H829.876ZM838.9 446.799C839.86 446.799 840.713 446.586 841.46 446.159C842.228 445.732 842.836 445.114 843.284 444.303C843.732 443.492 843.956 442.543 843.956 441.455C843.956 440.346 843.732 439.396 843.284 438.607C842.836 437.796 842.228 437.178 841.46 436.751C840.713 436.324 839.86 436.111 838.9 436.111C837.94 436.111 837.076 436.324 836.308 436.751C835.54 437.178 834.932 437.796 834.484 438.607C834.036 439.396 833.812 440.346 833.812 441.455C833.812 442.543 834.036 443.492 834.484 444.303C834.932 445.114 835.54 445.732 836.308 446.159C837.076 446.586 837.94 446.799 838.9 446.799ZM852.001 449.999V432.911H856.001V444.175L865.441 432.911H869.089V449.999H865.089V438.735L855.681 449.999H852.001ZM883.313 449.999V432.911H887.313V444.175L896.753 432.911H900.401V449.999H896.401V438.735L886.993 449.999H883.313ZM910.971 450.287C909.67 450.287 908.379 450.138 907.099 449.839C905.84 449.519 904.699 449.071 903.675 448.495L904.795 445.519C905.627 445.988 906.566 446.351 907.611 446.607C908.656 446.863 909.702 446.991 910.747 446.991C911.643 446.991 912.411 446.906 913.051 446.735C913.691 446.543 914.182 446.266 914.523 445.903C914.886 445.54 915.067 445.124 915.067 444.655C915.067 443.972 914.768 443.46 914.171 443.119C913.595 442.756 912.763 442.575 911.675 442.575H908.379V439.887H911.355C912.038 439.887 912.614 439.812 913.083 439.663C913.574 439.514 913.947 439.29 914.203 438.991C914.459 438.692 914.587 438.34 914.587 437.935C914.587 437.53 914.427 437.178 914.107 436.879C913.808 436.559 913.371 436.324 912.795 436.175C912.219 436.004 911.526 435.919 910.715 435.919C909.862 435.919 908.976 436.026 908.059 436.239C907.163 436.452 906.246 436.762 905.307 437.167L904.283 434.223C905.371 433.732 906.427 433.359 907.451 433.103C908.496 432.826 909.531 432.676 910.555 432.655C912.112 432.591 913.499 432.751 914.715 433.135C915.931 433.519 916.891 434.074 917.595 434.799C918.299 435.524 918.651 436.378 918.651 437.359C918.651 438.17 918.395 438.906 917.883 439.567C917.392 440.207 916.71 440.708 915.835 441.071C914.982 441.434 914 441.615 912.891 441.615L913.019 440.751C914.918 440.751 916.411 441.135 917.499 441.903C918.587 442.65 919.131 443.674 919.131 444.975C919.131 446.02 918.779 446.948 918.075 447.759C917.371 448.548 916.4 449.167 915.163 449.615C913.947 450.063 912.55 450.287 910.971 450.287ZM924.786 456.431C923.955 456.431 923.123 456.292 922.291 456.015C921.459 455.738 920.765 455.354 920.21 454.863L921.811 451.919C922.216 452.282 922.675 452.57 923.187 452.783C923.699 452.996 924.221 453.103 924.755 453.103C925.48 453.103 926.067 452.922 926.515 452.559C926.963 452.196 927.379 451.588 927.763 450.735L928.755 448.495L929.075 448.015L935.539 432.911H939.378L931.379 451.375C930.845 452.655 930.248 453.668 929.587 454.415C928.947 455.162 928.221 455.684 927.411 455.983C926.621 456.282 925.747 456.431 924.786 456.431ZM928.307 450.607L920.595 432.911H924.755L931.027 447.663L928.307 450.607ZM952.941 443.247C952.13 443.631 951.266 443.951 950.349 444.207C949.453 444.442 948.503 444.559 947.501 444.559C945.346 444.559 943.671 444.058 942.477 443.055C941.282 442.052 940.685 440.495 940.685 438.383V432.911H944.685V438.127C944.685 439.258 945.005 440.079 945.645 440.591C946.306 441.103 947.213 441.359 948.365 441.359C949.133 441.359 949.901 441.263 950.669 441.071C951.437 440.879 952.194 440.612 952.941 440.271V443.247ZM952.653 449.999V432.911H956.653V449.999H952.653ZM970 450.223C968.101 450.223 966.437 449.85 965.008 449.103C963.6 448.335 962.501 447.29 961.712 445.967C960.944 444.644 960.56 443.14 960.56 441.455C960.56 439.748 960.933 438.244 961.68 436.943C962.448 435.62 963.493 434.586 964.816 433.839C966.16 433.092 967.685 432.719 969.392 432.719C971.056 432.719 972.538 433.082 973.84 433.807C975.141 434.532 976.165 435.556 976.912 436.879C977.658 438.202 978.032 439.759 978.032 441.551C978.032 441.722 978.021 441.914 978 442.127C978 442.34 977.989 442.543 977.968 442.735H963.728V440.079H975.856L974.288 440.911C974.309 439.93 974.106 439.066 973.68 438.319C973.253 437.572 972.666 436.986 971.92 436.559C971.194 436.132 970.352 435.919 969.392 435.919C968.41 435.919 967.546 436.132 966.8 436.559C966.074 436.986 965.498 437.583 965.072 438.351C964.666 439.098 964.464 439.983 964.464 441.007V441.647C964.464 442.671 964.698 443.578 965.168 444.367C965.637 445.156 966.298 445.764 967.152 446.191C968.005 446.618 968.986 446.831 970.096 446.831C971.056 446.831 971.92 446.682 972.688 446.383C973.456 446.084 974.138 445.615 974.736 444.975L976.88 447.439C976.112 448.335 975.141 449.028 973.968 449.519C972.816 449.988 971.493 450.223 970 450.223ZM982.407 449.999V432.911H986.407V439.855H995.015V432.911H999.015V449.999H995.015V443.247H986.407V449.999H982.407ZM1004.38 449.999V432.911H1008.38V444.175L1017.82 432.911H1021.46V449.999H1017.46V438.735L1008.06 449.999H1004.38ZM1026.84 449.999V432.911H1030.84V444.175L1040.28 432.911H1043.93V449.999H1039.93V438.735L1030.52 449.999H1026.84ZM132.944 493.999L126.768 485.807L130.032 483.791L137.648 493.999H132.944ZM120.688 493.999V476.911H124.688V493.999H120.688ZM123.504 487.151V483.823H129.296V487.151H123.504ZM130.416 485.935L126.672 485.487L132.944 476.911H137.232L130.416 485.935ZM149.941 494.223C148.555 494.223 147.285 493.903 146.133 493.263C145.003 492.623 144.096 491.663 143.413 490.383C142.752 489.082 142.421 487.439 142.421 485.455C142.421 483.45 142.741 481.807 143.381 480.527C144.043 479.247 144.939 478.298 146.069 477.679C147.2 477.039 148.491 476.719 149.941 476.719C151.627 476.719 153.109 477.082 154.389 477.807C155.691 478.532 156.715 479.546 157.461 480.847C158.229 482.148 158.613 483.684 158.613 485.455C158.613 487.226 158.229 488.772 157.461 490.095C156.715 491.396 155.691 492.41 154.389 493.135C153.109 493.86 151.627 494.223 149.941 494.223ZM140.469 500.207V476.911H144.277V480.943L144.149 485.487L144.469 490.031V500.207H140.469ZM149.493 490.799C150.453 490.799 151.307 490.586 152.053 490.159C152.821 489.732 153.429 489.114 153.877 488.303C154.325 487.492 154.549 486.543 154.549 485.455C154.549 484.346 154.325 483.396 153.877 482.607C153.429 481.796 152.821 481.178 152.053 480.751C151.307 480.324 150.453 480.111 149.493 480.111C148.533 480.111 147.669 480.324 146.901 480.751C146.133 481.178 145.525 481.796 145.077 482.607C144.629 483.396 144.405 484.346 144.405 485.455C144.405 486.543 144.629 487.492 145.077 488.303C145.525 489.114 146.133 489.732 146.901 490.159C147.669 490.586 148.533 490.799 149.493 490.799ZM162.594 493.999V476.911H166.594V488.175L176.034 476.911H179.682V493.999H175.682V482.735L166.274 493.999H162.594ZM185.063 493.999V476.911H201.447V493.999H197.479V479.375L198.407 480.303H188.135L189.063 479.375V493.999H185.063ZM210.396 493.999V479.343L211.324 480.303H204.38V476.911H220.38V480.303H213.468L214.396 479.343V493.999H210.396ZM230.148 494.223C228.398 494.223 226.841 493.85 225.476 493.103C224.11 492.335 223.033 491.29 222.244 489.967C221.454 488.644 221.06 487.14 221.06 485.455C221.06 483.748 221.454 482.244 222.244 480.943C223.033 479.62 224.11 478.586 225.476 477.839C226.841 477.092 228.398 476.719 230.148 476.719C231.918 476.719 233.486 477.092 234.852 477.839C236.238 478.586 237.316 479.61 238.084 480.911C238.873 482.212 239.268 483.727 239.268 485.455C239.268 487.14 238.873 488.644 238.084 489.967C237.316 491.29 236.238 492.335 234.852 493.103C233.486 493.85 231.918 494.223 230.148 494.223ZM230.148 490.799C231.129 490.799 232.004 490.586 232.772 490.159C233.54 489.732 234.137 489.114 234.564 488.303C235.012 487.492 235.236 486.543 235.236 485.455C235.236 484.346 235.012 483.396 234.564 482.607C234.137 481.796 233.54 481.178 232.772 480.751C232.004 480.324 231.14 480.111 230.18 480.111C229.198 480.111 228.324 480.324 227.556 480.751C226.809 481.178 226.212 481.796 225.764 482.607C225.316 483.396 225.092 484.346 225.092 485.455C225.092 486.543 225.316 487.492 225.764 488.303C226.212 489.114 226.809 489.732 227.556 490.159C228.324 490.586 229.188 490.799 230.148 490.799ZM243.219 493.999V476.911H247.219V488.175L256.659 476.911H260.307V493.999H256.307V482.735L246.899 493.999H243.219ZM265.688 493.999V476.911H269.688V483.855H278.296V476.911H282.296V493.999H278.296V487.247H269.688V493.999H265.688ZM299.369 492.143V480.303H292.809L292.713 483.055C292.67 484.036 292.606 484.986 292.521 485.903C292.435 486.799 292.297 487.631 292.105 488.399C291.913 489.146 291.635 489.764 291.273 490.255C290.91 490.746 290.43 491.066 289.833 491.215L285.865 490.607C286.505 490.607 287.017 490.404 287.401 489.999C287.806 489.572 288.115 488.996 288.329 488.271C288.563 487.524 288.734 486.682 288.841 485.743C288.947 484.783 289.022 483.791 289.065 482.767L289.289 476.911H303.369V492.143H299.369ZM285.257 497.807V490.607H305.897V497.807H302.153V493.999H288.969V497.807H285.257ZM311.005 500.431C310.173 500.431 309.341 500.292 308.509 500.015C307.677 499.738 306.984 499.354 306.429 498.863L308.029 495.919C308.435 496.282 308.893 496.57 309.405 496.783C309.917 496.996 310.44 497.103 310.973 497.103C311.699 497.103 312.285 496.922 312.733 496.559C313.181 496.196 313.597 495.588 313.981 494.735L314.973 492.495L315.293 492.015L321.757 476.911H325.597L317.597 495.375C317.064 496.655 316.467 497.668 315.805 498.415C315.165 499.162 314.44 499.684 313.629 499.983C312.84 500.282 311.965 500.431 311.005 500.431ZM314.525 494.607L306.813 476.911H310.973L317.245 491.663L314.525 494.607ZM335.683 494.223C333.891 494.223 332.291 493.85 330.883 493.103C329.496 492.335 328.408 491.29 327.619 489.967C326.829 488.644 326.435 487.14 326.435 485.455C326.435 483.748 326.829 482.244 327.619 480.943C328.408 479.62 329.496 478.586 330.883 477.839C332.291 477.092 333.891 476.719 335.683 476.719C337.347 476.719 338.808 477.06 340.067 477.743C341.347 478.404 342.317 479.386 342.979 480.687L339.907 482.479C339.395 481.668 338.765 481.071 338.019 480.687C337.293 480.303 336.504 480.111 335.651 480.111C334.669 480.111 333.784 480.324 332.995 480.751C332.205 481.178 331.587 481.796 331.139 482.607C330.691 483.396 330.467 484.346 330.467 485.455C330.467 486.564 330.691 487.524 331.139 488.335C331.587 489.124 332.205 489.732 332.995 490.159C333.784 490.586 334.669 490.799 335.651 490.799C336.504 490.799 337.293 490.607 338.019 490.223C338.765 489.839 339.395 489.242 339.907 488.431L342.979 490.223C342.317 491.503 341.347 492.495 340.067 493.199C338.808 493.882 337.347 494.223 335.683 494.223ZM349.928 493.999V479.343L350.856 480.303H343.912V476.911H359.912V480.303H353L353.928 479.343V493.999H349.928ZM372.285 494.223C370.898 494.223 369.629 493.903 368.477 493.263C367.346 492.623 366.44 491.663 365.757 490.383C365.096 489.082 364.765 487.439 364.765 485.455C364.765 483.45 365.085 481.807 365.725 480.527C366.386 479.247 367.282 478.298 368.413 477.679C369.544 477.039 370.834 476.719 372.285 476.719C373.97 476.719 375.453 477.082 376.733 477.807C378.034 478.532 379.058 479.546 379.805 480.847C380.573 482.148 380.957 483.684 380.957 485.455C380.957 487.226 380.573 488.772 379.805 490.095C379.058 491.396 378.034 492.41 376.733 493.135C375.453 493.86 373.97 494.223 372.285 494.223ZM362.813 500.207V476.911H366.621V480.943L366.493 485.487L366.813 490.031V500.207H362.813ZM371.837 490.799C372.797 490.799 373.65 490.586 374.397 490.159C375.165 489.732 375.773 489.114 376.221 488.303C376.669 487.492 376.893 486.543 376.893 485.455C376.893 484.346 376.669 483.396 376.221 482.607C375.773 481.796 375.165 481.178 374.397 480.751C373.65 480.324 372.797 480.111 371.837 480.111C370.877 480.111 370.013 480.324 369.245 480.751C368.477 481.178 367.869 481.796 367.421 482.607C366.973 483.396 366.749 484.346 366.749 485.455C366.749 486.543 366.973 487.492 367.421 488.303C367.869 489.114 368.477 489.732 369.245 490.159C370.013 490.586 370.877 490.799 371.837 490.799ZM384.938 493.999V476.911H388.938V488.175L398.378 476.911H402.026V493.999H398.026V482.735L388.618 493.999H384.938ZM407.407 493.999V476.911H411.407V488.175L420.847 476.911H424.495V493.999H420.495V482.735L411.087 493.999H407.407Z" fill="#A1A19D"/>
<path d="M117.48 326V298H129.6C132.107 298 134.267 298.413 136.08 299.24C137.893 300.04 139.293 301.2 140.28 302.72C141.267 304.24 141.76 306.053 141.76 308.16C141.76 310.24 141.267 312.04 140.28 313.56C139.293 315.08 137.893 316.253 136.08 317.08C134.267 317.88 132.107 318.28 129.6 318.28H121.08L123.96 315.36V326H117.48ZM123.96 316.08L121.08 313H129.24C131.24 313 132.733 312.573 133.72 311.72C134.707 310.867 135.2 309.68 135.2 308.16C135.2 306.613 134.707 305.413 133.72 304.56C132.733 303.707 131.24 303.28 129.24 303.28H121.08L123.96 300.2V316.08ZM158.239 326V321.8L157.839 320.88V313.36C157.839 312.027 157.426 310.987 156.599 310.24C155.799 309.493 154.559 309.12 152.879 309.12C151.733 309.12 150.599 309.307 149.479 309.68C148.386 310.027 147.453 310.507 146.679 311.12L144.439 306.76C145.613 305.933 147.026 305.293 148.679 304.84C150.333 304.387 152.013 304.16 153.719 304.16C156.999 304.16 159.546 304.933 161.359 306.48C163.173 308.027 164.079 310.44 164.079 313.72V326H158.239ZM151.679 326.32C149.999 326.32 148.559 326.04 147.359 325.48C146.159 324.893 145.239 324.107 144.599 323.12C143.959 322.133 143.639 321.027 143.639 319.8C143.639 318.52 143.946 317.4 144.559 316.44C145.199 315.48 146.199 314.733 147.559 314.2C148.919 313.64 150.693 313.36 152.879 313.36H158.599V317H153.559C152.093 317 151.079 317.24 150.519 317.72C149.986 318.2 149.719 318.8 149.719 319.52C149.719 320.32 150.026 320.96 150.639 321.44C151.279 321.893 152.146 322.12 153.239 322.12C154.279 322.12 155.213 321.88 156.039 321.4C156.866 320.893 157.466 320.16 157.839 319.2L158.799 322.08C158.346 323.467 157.519 324.52 156.319 325.24C155.119 325.96 153.573 326.32 151.679 326.32ZM179.74 326.32C177.42 326.32 175.353 325.853 173.54 324.92C171.727 323.96 170.3 322.64 169.26 320.96C168.247 319.28 167.74 317.373 167.74 315.24C167.74 313.08 168.247 311.173 169.26 309.52C170.3 307.84 171.727 306.533 173.54 305.6C175.353 304.64 177.42 304.16 179.74 304.16C182.007 304.16 183.98 304.64 185.66 305.6C187.34 306.533 188.58 307.88 189.38 309.64L184.54 312.24C183.98 311.227 183.273 310.48 182.42 310C181.593 309.52 180.687 309.28 179.7 309.28C178.633 309.28 177.673 309.52 176.82 310C175.967 310.48 175.287 311.16 174.78 312.04C174.3 312.92 174.06 313.987 174.06 315.24C174.06 316.493 174.3 317.56 174.78 318.44C175.287 319.32 175.967 320 176.82 320.48C177.673 320.96 178.633 321.2 179.7 321.2C180.687 321.2 181.593 320.973 182.42 320.52C183.273 320.04 183.98 319.28 184.54 318.24L189.38 320.88C188.58 322.613 187.34 323.96 185.66 324.92C183.98 325.853 182.007 326.32 179.74 326.32ZM207.852 320.88L206.492 322.32V304.48H212.732V322.32L211.292 320.88H221.212L219.812 322.32V304.48H226.012V326H193.172V304.48H199.372V322.32L197.972 320.88H207.852ZM232 326V304.48H238.2V317.28L248.68 304.48H254.4V326H248.2V313.2L237.76 326H232ZM273.078 326.32C271.265 326.32 269.678 325.92 268.318 325.12C266.958 324.32 265.892 323.107 265.118 321.48C264.372 319.827 263.998 317.747 263.998 315.24C263.998 312.707 264.358 310.627 265.078 309C265.798 307.373 266.838 306.16 268.198 305.36C269.558 304.56 271.185 304.16 273.078 304.16C275.105 304.16 276.918 304.627 278.518 305.56C280.145 306.467 281.425 307.747 282.358 309.4C283.318 311.053 283.798 313 283.798 315.24C283.798 317.507 283.318 319.467 282.358 321.12C281.425 322.773 280.145 324.053 278.518 324.96C276.918 325.867 275.105 326.32 273.078 326.32ZM260.358 333.76V304.48H266.318V308.88L266.198 315.28L266.598 321.64V333.76H260.358ZM271.998 321.2C273.038 321.2 273.958 320.96 274.758 320.48C275.585 320 276.238 319.32 276.718 318.44C277.225 317.533 277.478 316.467 277.478 315.24C277.478 313.987 277.225 312.92 276.718 312.04C276.238 311.16 275.585 310.48 274.758 310C273.958 309.52 273.038 309.28 271.998 309.28C270.958 309.28 270.025 309.52 269.198 310C268.372 310.48 267.718 311.16 267.238 312.04C266.758 312.92 266.518 313.987 266.518 315.24C266.518 316.467 266.758 317.533 267.238 318.44C267.718 319.32 268.372 320 269.198 320.48C270.025 320.96 270.958 321.2 271.998 321.2ZM298.692 326.32C296.239 326.32 294.079 325.84 292.212 324.88C290.372 323.92 288.945 322.613 287.932 320.96C286.919 319.28 286.412 317.373 286.412 315.24C286.412 313.08 286.905 311.173 287.892 309.52C288.905 307.84 290.279 306.533 292.012 305.6C293.745 304.64 295.705 304.16 297.892 304.16C299.999 304.16 301.892 304.613 303.572 305.52C305.279 306.4 306.625 307.68 307.612 309.36C308.599 311.013 309.092 313 309.092 315.32C309.092 315.56 309.079 315.84 309.052 316.16C309.025 316.453 308.999 316.733 308.972 317H291.492V313.36H305.692L303.292 314.44C303.292 313.32 303.065 312.347 302.612 311.52C302.159 310.693 301.532 310.053 300.732 309.6C299.932 309.12 298.999 308.88 297.932 308.88C296.865 308.88 295.919 309.12 295.092 309.6C294.292 310.053 293.665 310.707 293.212 311.56C292.759 312.387 292.532 313.373 292.532 314.52V315.48C292.532 316.653 292.785 317.693 293.292 318.6C293.825 319.48 294.559 320.16 295.492 320.64C296.452 321.093 297.572 321.32 298.852 321.32C299.999 321.32 300.999 321.147 301.852 320.8C302.732 320.453 303.532 319.933 304.252 319.24L307.572 322.84C306.585 323.96 305.345 324.827 303.852 325.44C302.359 326.027 300.639 326.32 298.692 326.32ZM313.875 326V304.48H320.075V312.88H329.435V304.48H335.675V326H329.435V317.96H320.075V326H313.875ZM341.648 326V304.48H347.848V317.28L358.328 304.48H364.048V326H357.848V313.2L347.408 326H341.648ZM380.567 326.32C378.114 326.32 375.954 325.84 374.087 324.88C372.247 323.92 370.82 322.613 369.807 320.96C368.794 319.28 368.287 317.373 368.287 315.24C368.287 313.08 368.78 311.173 369.767 309.52C370.78 307.84 372.154 306.533 373.887 305.6C375.62 304.64 377.58 304.16 379.767 304.16C381.874 304.16 383.767 304.613 385.447 305.52C387.154 306.4 388.5 307.68 389.487 309.36C390.474 311.013 390.967 313 390.967 315.32C390.967 315.56 390.954 315.84 390.927 316.16C390.9 316.453 390.874 316.733 390.847 317H373.367V313.36H387.567L385.167 314.44C385.167 313.32 384.94 312.347 384.487 311.52C384.034 310.693 383.407 310.053 382.607 309.6C381.807 309.12 380.874 308.88 379.807 308.88C378.74 308.88 377.794 309.12 376.967 309.6C376.167 310.053 375.54 310.707 375.087 311.56C374.634 312.387 374.407 313.373 374.407 314.52V315.48C374.407 316.653 374.66 317.693 375.167 318.6C375.7 319.48 376.434 320.16 377.367 320.64C378.327 321.093 379.447 321.32 380.727 321.32C381.874 321.32 382.874 321.147 383.727 320.8C384.607 320.453 385.407 319.933 386.127 319.24L389.447 322.84C388.46 323.96 387.22 324.827 385.727 325.44C384.234 326.027 382.514 326.32 380.567 326.32ZM411.358 317.28V313H422.598V317.28H411.358ZM414.358 304.08C416.705 304.08 418.785 304.56 420.598 305.52C422.411 306.453 423.838 307.76 424.878 309.44C425.918 311.12 426.438 313.053 426.438 315.24C426.438 317.4 425.918 319.333 424.878 321.04C423.838 322.72 422.411 324.04 420.598 325C418.785 325.933 416.705 326.4 414.358 326.4C412.305 326.4 410.438 326.067 408.758 325.4C407.105 324.707 405.731 323.72 404.638 322.44L408.198 319.08C408.998 319.88 409.878 320.507 410.838 320.96C411.825 321.387 412.918 321.6 414.118 321.6C415.425 321.6 416.558 321.333 417.518 320.8C418.505 320.267 419.278 319.52 419.838 318.56C420.398 317.6 420.678 316.493 420.678 315.24C420.678 313.96 420.398 312.84 419.838 311.88C419.278 310.92 418.505 310.173 417.518 309.64C416.558 309.107 415.425 308.84 414.118 308.84C412.918 308.84 411.825 309.067 410.838 309.52C409.878 309.947 408.998 310.573 408.198 311.4L404.638 308.08C405.731 306.773 407.105 305.787 408.758 305.12C410.438 304.427 412.305 304.08 414.358 304.08ZM445.912 326L438.712 315.8L443.792 312.8L453.272 326H445.912ZM430.672 326V304.48H436.912V326H430.672ZM435.072 317.84V312.84H442.592V317.84H435.072ZM444.392 315.96L438.552 315.32L446.112 304.48H452.752L444.392 315.96ZM465.752 326.32C463.459 326.32 461.419 325.84 459.632 324.88C457.872 323.92 456.472 322.613 455.432 320.96C454.419 319.28 453.912 317.373 453.912 315.24C453.912 313.08 454.419 311.173 455.432 309.52C456.472 307.84 457.872 306.533 459.632 305.6C461.419 304.64 463.459 304.16 465.752 304.16C468.019 304.16 470.045 304.64 471.832 305.6C473.619 306.533 475.019 307.827 476.032 309.48C477.045 311.133 477.552 313.053 477.552 315.24C477.552 317.373 477.045 319.28 476.032 320.96C475.019 322.613 473.619 323.92 471.832 324.88C470.045 325.84 468.019 326.32 465.752 326.32ZM465.752 321.2C466.792 321.2 467.725 320.96 468.552 320.48C469.379 320 470.032 319.32 470.512 318.44C470.992 317.533 471.232 316.467 471.232 315.24C471.232 313.987 470.992 312.92 470.512 312.04C470.032 311.16 469.379 310.48 468.552 310C467.725 309.52 466.792 309.28 465.752 309.28C464.712 309.28 463.779 309.52 462.952 310C462.125 310.48 461.459 311.16 460.952 312.04C460.472 312.92 460.232 313.987 460.232 315.24C460.232 316.467 460.472 317.533 460.952 318.44C461.459 319.32 462.125 320 462.952 320.48C463.779 320.96 464.712 321.2 465.752 321.2ZM492.084 326.32C489.764 326.32 487.697 325.853 485.884 324.92C484.07 323.96 482.644 322.64 481.604 320.96C480.59 319.28 480.084 317.373 480.084 315.24C480.084 313.08 480.59 311.173 481.604 309.52C482.644 307.84 484.07 306.533 485.884 305.6C487.697 304.64 489.764 304.16 492.084 304.16C494.35 304.16 496.324 304.64 498.004 305.6C499.684 306.533 500.924 307.88 501.724 309.64L496.884 312.24C496.324 311.227 495.617 310.48 494.764 310C493.937 309.52 493.03 309.28 492.044 309.28C490.977 309.28 490.017 309.52 489.164 310C488.31 310.48 487.63 311.16 487.124 312.04C486.644 312.92 486.404 313.987 486.404 315.24C486.404 316.493 486.644 317.56 487.124 318.44C487.63 319.32 488.31 320 489.164 320.48C490.017 320.96 490.977 321.2 492.044 321.2C493.03 321.2 493.937 320.973 494.764 320.52C495.617 320.04 496.324 319.28 496.884 318.24L501.724 320.88C500.924 322.613 499.684 323.96 498.004 324.92C496.324 325.853 494.35 326.32 492.084 326.32ZM505.516 326V304.48H511.716V317.28L522.196 304.48H527.916V326H521.716V313.2L511.276 326H505.516ZM544.154 326.32C541.834 326.32 539.767 325.853 537.954 324.92C536.141 323.96 534.714 322.64 533.674 320.96C532.661 319.28 532.154 317.373 532.154 315.24C532.154 313.08 532.661 311.173 533.674 309.52C534.714 307.84 536.141 306.533 537.954 305.6C539.767 304.64 541.834 304.16 544.154 304.16C546.421 304.16 548.394 304.64 550.074 305.6C551.754 306.533 552.994 307.88 553.794 309.64L548.954 312.24C548.394 311.227 547.687 310.48 546.834 310C546.007 309.52 545.101 309.28 544.114 309.28C543.047 309.28 542.087 309.52 541.234 310C540.381 310.48 539.701 311.16 539.194 312.04C538.714 312.92 538.474 313.987 538.474 315.24C538.474 316.493 538.714 317.56 539.194 318.44C539.701 319.32 540.381 320 541.234 320.48C542.087 320.96 543.047 321.2 544.114 321.2C545.101 321.2 546.007 320.973 546.834 320.52C547.687 320.04 548.394 319.28 548.954 318.24L553.794 320.88C552.994 322.613 551.754 323.96 550.074 324.92C548.394 325.853 546.421 326.32 544.154 326.32ZM562.147 326V308.16L563.547 309.6H554.867V304.48H575.627V309.6H566.947L568.347 308.16V326H562.147ZM588.575 326.32C586.121 326.32 583.961 325.84 582.095 324.88C580.255 323.92 578.828 322.613 577.815 320.96C576.801 319.28 576.295 317.373 576.295 315.24C576.295 313.08 576.788 311.173 577.775 309.52C578.788 307.84 580.161 306.533 581.895 305.6C583.628 304.64 585.588 304.16 587.775 304.16C589.881 304.16 591.775 304.613 593.455 305.52C595.161 306.4 596.508 307.68 597.495 309.36C598.481 311.013 598.975 313 598.975 315.32C598.975 315.56 598.961 315.84 598.935 316.16C598.908 316.453 598.881 316.733 598.855 317H581.375V313.36H595.575L593.175 314.44C593.175 313.32 592.948 312.347 592.495 311.52C592.041 310.693 591.415 310.053 590.615 309.6C589.815 309.12 588.881 308.88 587.815 308.88C586.748 308.88 585.801 309.12 584.975 309.6C584.175 310.053 583.548 310.707 583.095 311.56C582.641 312.387 582.415 313.373 582.415 314.52V315.48C582.415 316.653 582.668 317.693 583.175 318.6C583.708 319.48 584.441 320.16 585.375 320.64C586.335 321.093 587.455 321.32 588.735 321.32C589.881 321.32 590.881 321.147 591.735 320.8C592.615 320.453 593.415 319.933 594.135 319.24L597.455 322.84C596.468 323.96 595.228 324.827 593.735 325.44C592.241 326.027 590.521 326.32 588.575 326.32ZM603.758 326V304.48H610.278L618.398 319.2H615.798L624.478 304.48H630.318L630.398 326H624.758V310.88L625.718 311.52L618.318 323.92H615.678L608.238 311.08L609.398 310.8V326H603.758ZM658.535 326V304.48H664.735V326H658.535ZM647.695 311.36C650.522 311.387 652.642 312.027 654.055 313.28C655.495 314.507 656.216 316.253 656.216 318.52C656.216 320.893 655.403 322.747 653.776 324.08C652.149 325.387 649.842 326.04 646.855 326.04L636.375 326V304.48H642.576V311.36H647.695ZM646.295 321.6C647.495 321.627 648.415 321.373 649.055 320.84C649.695 320.307 650.016 319.507 650.016 318.44C650.016 317.373 649.695 316.613 649.055 316.16C648.415 315.68 647.495 315.427 646.295 315.4L642.576 315.36V321.6H646.295Z" fill="#009D4A"/>
<path d="M168.16 240.9C158.787 240.9 149.603 239.57 140.61 236.91C131.743 234.123 124.27 230.323 118.19 225.51L128.83 206.32C133.643 210.247 139.47 213.413 146.31 215.82C153.15 218.227 160.307 219.43 167.78 219.43C176.647 219.43 183.55 217.657 188.49 214.11C193.43 210.437 195.9 205.497 195.9 199.29C195.9 193.21 193.62 188.397 189.06 184.85C184.5 181.303 177.153 179.53 167.02 179.53H154.86V162.62L192.86 117.4L196.09 126.71H124.65V106H215.28V122.53L177.28 167.75L164.36 160.15H171.77C188.11 160.15 200.333 163.823 208.44 171.17C216.673 178.39 220.79 187.7 220.79 199.1C220.79 206.573 218.89 213.477 215.09 219.81C211.29 226.143 205.463 231.273 197.61 235.2C189.883 239 180.067 240.9 168.16 240.9Z" fill="#009D4A"/>
</g>
<path d="M1081 11.5H95C53.8548 11.5 20.5 44.8548 20.5 86V527C20.5 568.145 53.8548 601.5 95 601.5H1081C1122.15 601.5 1155.5 568.145 1155.5 527V86C1155.5 44.8548 1122.15 11.5 1081 11.5Z" stroke="#009D4A" stroke-width="3"/>
<defs>
<filter id="filter0_f_1789_180" x="-194.2" y="-233.2" width="1048.59" height="1080.56" filterUnits="userSpaceOnUse" color-interpolation-filters="sRGB">
<feFlood flood-opacity="0" result="BackgroundImageFix"/>
<feBlend mode="normal" in="SourceGraphic" in2="BackgroundImageFix" result="shape"/>
<feGaussianBlur stdDeviation="89.35" result="effect1_foregroundBlur_1789_180"/>
</filter>
</defs>
</svg>
