<svg width="855" height="431" viewBox="0 0 855 431" fill="none" xmlns="http://www.w3.org/2000/svg">
<g clip-path="url(#clip0_1769_96)">
<rect width="855" height="431" rx="78" fill="#725252"/>
<rect x="-60" y="-7" width="915" height="438" fill="black"/>
<path d="M102.76 238.48C98.7867 238.48 95.68 237.373 93.44 235.16C91.2 232.947 90.08 229.787 90.08 225.68V210H96.56V225.44C96.56 228.107 97.1067 230.027 98.2 231.2C99.2933 232.373 100.827 232.96 102.8 232.96C104.773 232.96 106.307 232.373 107.4 231.2C108.493 230.027 109.04 228.107 109.04 225.44V210H115.44V225.68C115.44 229.787 114.32 232.947 112.08 235.16C109.84 237.373 106.733 238.48 102.76 238.48ZM135.403 238.48C133.217 238.48 131.177 238.12 129.283 237.4C127.417 236.68 125.79 235.667 124.403 234.36C123.043 233.053 121.977 231.52 121.203 229.76C120.457 228 120.083 226.08 120.083 224C120.083 221.92 120.457 220 121.203 218.24C121.977 216.48 123.057 214.947 124.443 213.64C125.83 212.333 127.457 211.32 129.323 210.6C131.19 209.88 133.217 209.52 135.403 209.52C137.617 209.52 139.643 209.88 141.483 210.6C143.35 211.32 144.963 212.333 146.323 213.64C147.71 214.92 148.79 216.44 149.563 218.2C150.337 219.96 150.723 221.893 150.723 224C150.723 226.08 150.337 228.013 149.563 229.8C148.79 231.56 147.71 233.093 146.323 234.4C144.963 235.68 143.35 236.68 141.483 237.4C139.643 238.12 137.617 238.48 135.403 238.48ZM144.563 244.44C143.47 244.44 142.43 244.32 141.443 244.08C140.483 243.84 139.523 243.453 138.563 242.92C137.63 242.387 136.643 241.667 135.603 240.76C134.59 239.853 133.483 238.733 132.283 237.4L139.083 235.68C139.803 236.667 140.47 237.453 141.083 238.04C141.697 238.627 142.283 239.04 142.843 239.28C143.43 239.52 144.043 239.64 144.683 239.64C146.39 239.64 147.91 238.947 149.243 237.56L152.123 241C150.23 243.293 147.71 244.44 144.563 244.44ZM135.403 232.96C136.657 232.96 137.803 232.747 138.843 232.32C139.91 231.893 140.843 231.28 141.643 230.48C142.443 229.68 143.057 228.733 143.483 227.64C143.937 226.52 144.163 225.307 144.163 224C144.163 222.667 143.937 221.453 143.483 220.36C143.057 219.267 142.443 218.32 141.643 217.52C140.843 216.72 139.91 216.107 138.843 215.68C137.803 215.253 136.657 215.04 135.403 215.04C134.15 215.04 132.99 215.253 131.923 215.68C130.857 216.107 129.923 216.72 129.123 217.52C128.35 218.32 127.737 219.267 127.283 220.36C126.857 221.453 126.643 222.667 126.643 224C126.643 225.307 126.857 226.52 127.283 227.64C127.737 228.733 128.35 229.68 129.123 230.48C129.923 231.28 130.857 231.893 131.923 232.32C132.99 232.747 134.15 232.96 135.403 232.96ZM155.593 238V210H169.273C172.793 210 175.433 210.667 177.193 212C178.98 213.333 179.873 215.093 179.873 217.28C179.873 218.747 179.513 220.027 178.793 221.12C178.073 222.187 177.087 223.013 175.833 223.6C174.58 224.187 173.14 224.48 171.513 224.48L172.273 222.84C174.033 222.84 175.593 223.133 176.953 223.72C178.313 224.28 179.367 225.12 180.113 226.24C180.887 227.36 181.273 228.733 181.273 230.36C181.273 232.76 180.327 234.64 178.433 236C176.54 237.333 173.753 238 170.073 238H155.593ZM162.033 233.12H169.593C171.273 233.12 172.54 232.853 173.393 232.32C174.273 231.76 174.713 230.88 174.713 229.68C174.713 228.507 174.273 227.64 173.393 227.08C172.54 226.493 171.273 226.2 169.593 226.2H161.553V221.48H168.473C170.047 221.48 171.247 221.213 172.073 220.68C172.927 220.12 173.353 219.28 173.353 218.16C173.353 217.067 172.927 216.253 172.073 215.72C171.247 215.16 170.047 214.88 168.473 214.88H162.033V233.12ZM186.179 238V210H198.299C200.806 210 202.966 210.413 204.779 211.24C206.593 212.04 207.993 213.2 208.979 214.72C209.966 216.24 210.459 218.053 210.459 220.16C210.459 222.24 209.966 224.04 208.979 225.56C207.993 227.053 206.593 228.2 204.779 229C202.966 229.8 200.806 230.2 198.299 230.2H189.779L192.659 227.36V238H186.179ZM203.979 238L196.979 227.84H203.899L210.979 238H203.979ZM192.659 228.08L189.779 225.04H197.939C199.939 225.04 201.433 224.613 202.419 223.76C203.406 222.88 203.899 221.68 203.899 220.16C203.899 218.613 203.406 217.413 202.419 216.56C201.433 215.707 199.939 215.28 197.939 215.28H189.779L192.659 212.2V228.08ZM228.158 238V233.8L227.758 232.88V225.36C227.758 224.027 227.345 222.987 226.518 222.24C225.718 221.493 224.478 221.12 222.798 221.12C221.651 221.12 220.518 221.307 219.398 221.68C218.305 222.027 217.371 222.507 216.598 223.12L214.358 218.76C215.531 217.933 216.945 217.293 218.598 216.84C220.251 216.387 221.931 216.16 223.638 216.16C226.918 216.16 229.465 216.933 231.278 218.48C233.091 220.027 233.998 222.44 233.998 225.72V238H228.158ZM221.598 238.32C219.918 238.32 218.478 238.04 217.278 237.48C216.078 236.893 215.158 236.107 214.518 235.12C213.878 234.133 213.558 233.027 213.558 231.8C213.558 230.52 213.865 229.4 214.478 228.44C215.118 227.48 216.118 226.733 217.478 226.2C218.838 225.64 220.611 225.36 222.798 225.36H228.518V229H223.478C222.011 229 220.998 229.24 220.438 229.72C219.905 230.2 219.638 230.8 219.638 231.52C219.638 232.32 219.945 232.96 220.558 233.44C221.198 233.893 222.065 234.12 223.158 234.12C224.198 234.12 225.131 233.88 225.958 233.4C226.785 232.893 227.385 232.16 227.758 231.2L228.718 234.08C228.265 235.467 227.438 236.52 226.238 237.24C225.038 237.96 223.491 238.32 221.598 238.32ZM253.646 238.48C251.459 238.48 249.419 238.12 247.526 237.4C245.659 236.68 244.032 235.667 242.646 234.36C241.286 233.053 240.219 231.52 239.446 229.76C238.699 228 238.326 226.08 238.326 224C238.326 221.92 238.699 220 239.446 218.24C240.219 216.48 241.299 214.947 242.686 213.64C244.072 212.333 245.699 211.32 247.566 210.6C249.432 209.88 251.459 209.52 253.646 209.52C255.859 209.52 257.886 209.88 259.726 210.6C261.592 211.32 263.206 212.333 264.566 213.64C265.952 214.92 267.032 216.44 267.806 218.2C268.579 219.96 268.966 221.893 268.966 224C268.966 226.08 268.579 228.013 267.806 229.8C267.032 231.56 265.952 233.093 264.566 234.4C263.206 235.68 261.592 236.68 259.726 237.4C257.886 238.12 255.859 238.48 253.646 238.48ZM262.806 244.44C261.712 244.44 260.672 244.32 259.686 244.08C258.726 243.84 257.766 243.453 256.806 242.92C255.872 242.387 254.886 241.667 253.846 240.76C252.832 239.853 251.726 238.733 250.526 237.4L257.326 235.68C258.046 236.667 258.712 237.453 259.326 238.04C259.939 238.627 260.526 239.04 261.086 239.28C261.672 239.52 262.286 239.64 262.926 239.64C264.632 239.64 266.152 238.947 267.486 237.56L270.366 241C268.472 243.293 265.952 244.44 262.806 244.44ZM253.646 232.96C254.899 232.96 256.046 232.747 257.086 232.32C258.152 231.893 259.086 231.28 259.886 230.48C260.686 229.68 261.299 228.733 261.726 227.64C262.179 226.52 262.406 225.307 262.406 224C262.406 222.667 262.179 221.453 261.726 220.36C261.299 219.267 260.686 218.32 259.886 217.52C259.086 216.72 258.152 216.107 257.086 215.68C256.046 215.253 254.899 215.04 253.646 215.04C252.392 215.04 251.232 215.253 250.166 215.68C249.099 216.107 248.166 216.72 247.366 217.52C246.592 218.32 245.979 219.267 245.526 220.36C245.099 221.453 244.886 222.667 244.886 224C244.886 225.307 245.099 226.52 245.526 227.64C245.979 228.733 246.592 229.68 247.366 230.48C248.166 231.28 249.099 231.893 250.166 232.32C251.232 232.747 252.392 232.96 253.646 232.96ZM273.396 238V216.48H279.636V238H273.396ZM276.516 213.48C275.369 213.48 274.436 213.147 273.716 212.48C272.996 211.813 272.636 210.987 272.636 210C272.636 209.013 272.996 208.187 273.716 207.52C274.436 206.853 275.369 206.52 276.516 206.52C277.662 206.52 278.596 206.84 279.316 207.48C280.036 208.093 280.396 208.893 280.396 209.88C280.396 210.92 280.036 211.787 279.316 212.48C278.622 213.147 277.689 213.48 276.516 213.48ZM299.267 238.48C297.107 238.48 295.094 238.133 293.227 237.44C291.387 236.72 289.787 235.707 288.427 234.4C287.067 233.093 286 231.56 285.227 229.8C284.48 228.04 284.107 226.107 284.107 224C284.107 221.893 284.48 219.96 285.227 218.2C286 216.44 287.067 214.907 288.427 213.6C289.814 212.293 291.427 211.293 293.267 210.6C295.107 209.88 297.12 209.52 299.307 209.52C301.734 209.52 303.92 209.947 305.867 210.8C307.84 211.627 309.494 212.853 310.827 214.48L306.667 218.32C305.707 217.227 304.64 216.413 303.467 215.88C302.294 215.32 301.014 215.04 299.627 215.04C298.32 215.04 297.12 215.253 296.027 215.68C294.934 216.107 293.987 216.72 293.187 217.52C292.387 218.32 291.76 219.267 291.307 220.36C290.88 221.453 290.667 222.667 290.667 224C290.667 225.333 290.88 226.547 291.307 227.64C291.76 228.733 292.387 229.68 293.187 230.48C293.987 231.28 294.934 231.893 296.027 232.32C297.12 232.747 298.32 232.96 299.627 232.96C301.014 232.96 302.294 232.693 303.467 232.16C304.64 231.6 305.707 230.76 306.667 229.64L310.827 233.48C309.494 235.107 307.84 236.347 305.867 237.2C303.92 238.053 301.72 238.48 299.267 238.48ZM315.203 238V210H321.683V232.72H335.723V238H315.203ZM349.439 238.48C346.879 238.48 344.653 237.947 342.759 236.88C340.893 235.813 339.453 234.253 338.439 232.2C337.426 230.147 336.919 227.613 336.919 224.6C336.919 221.373 337.519 218.64 338.719 216.4C339.946 214.16 341.626 212.453 343.759 211.28C345.919 210.107 348.399 209.52 351.199 209.52C352.693 209.52 354.119 209.68 355.479 210C356.839 210.32 358.013 210.8 358.999 211.44L356.599 216.2C355.826 215.667 354.999 215.307 354.119 215.12C353.239 214.907 352.319 214.8 351.359 214.8C348.933 214.8 347.013 215.533 345.599 217C344.186 218.467 343.479 220.64 343.479 223.52C343.479 224 343.479 224.533 343.479 225.12C343.506 225.707 343.586 226.293 343.719 226.88L341.919 225.2C342.426 224.16 343.079 223.293 343.879 222.6C344.679 221.88 345.626 221.347 346.719 221C347.839 220.627 349.066 220.44 350.399 220.44C352.213 220.44 353.839 220.8 355.279 221.52C356.719 222.24 357.866 223.253 358.719 224.56C359.599 225.867 360.039 227.4 360.039 229.16C360.039 231.053 359.559 232.707 358.599 234.12C357.666 235.507 356.399 236.587 354.799 237.36C353.226 238.107 351.439 238.48 349.439 238.48ZM349.079 233.64C349.986 233.64 350.786 233.48 351.479 233.16C352.199 232.813 352.759 232.32 353.159 231.68C353.559 231.04 353.759 230.307 353.759 229.48C353.759 228.2 353.319 227.187 352.439 226.44C351.586 225.667 350.439 225.28 348.999 225.28C348.039 225.28 347.199 225.467 346.479 225.84C345.759 226.187 345.186 226.68 344.759 227.32C344.359 227.933 344.159 228.653 344.159 229.48C344.159 230.28 344.359 231 344.759 231.64C345.159 232.253 345.719 232.747 346.439 233.12C347.159 233.467 348.039 233.64 349.079 233.64ZM376.428 238.32C374.615 238.32 373.028 237.92 371.668 237.12C370.308 236.32 369.241 235.107 368.468 233.48C367.721 231.827 367.348 229.747 367.348 227.24C367.348 224.707 367.708 222.627 368.428 221C369.148 219.373 370.188 218.16 371.548 217.36C372.908 216.56 374.535 216.16 376.428 216.16C378.455 216.16 380.268 216.627 381.868 217.56C383.495 218.467 384.775 219.747 385.708 221.4C386.668 223.053 387.148 225 387.148 227.24C387.148 229.507 386.668 231.467 385.708 233.12C384.775 234.773 383.495 236.053 381.868 236.96C380.268 237.867 378.455 238.32 376.428 238.32ZM363.708 245.76V216.48H369.668V220.88L369.548 227.28L369.948 233.64V245.76H363.708ZM375.348 233.2C376.388 233.2 377.308 232.96 378.108 232.48C378.935 232 379.588 231.32 380.068 230.44C380.575 229.533 380.828 228.467 380.828 227.24C380.828 225.987 380.575 224.92 380.068 224.04C379.588 223.16 378.935 222.48 378.108 222C377.308 221.52 376.388 221.28 375.348 221.28C374.308 221.28 373.375 221.52 372.548 222C371.721 222.48 371.068 223.16 370.588 224.04C370.108 224.92 369.868 225.987 369.868 227.24C369.868 228.467 370.108 229.533 370.588 230.44C371.068 231.32 371.721 232 372.548 232.48C373.375 232.96 374.308 233.2 375.348 233.2ZM387.941 238L397.581 225.36L397.461 228.8L388.221 216.48H395.221L401.061 224.52L398.421 224.6L404.461 216.48H411.101L401.821 228.68V225.32L411.421 238H404.341L398.221 229.44L400.821 229.8L394.741 238H387.941ZM420.639 238V226.56L422.119 230.48L409.799 210H416.679L426.119 225.72H422.159L431.639 210H437.999L425.679 230.48L427.119 226.56V238H420.639ZM448.128 238.32C445.834 238.32 443.794 237.84 442.008 236.88C440.248 235.92 438.848 234.613 437.808 232.96C436.794 231.28 436.288 229.373 436.288 227.24C436.288 225.08 436.794 223.173 437.808 221.52C438.848 219.84 440.248 218.533 442.008 217.6C443.794 216.64 445.834 216.16 448.128 216.16C450.394 216.16 452.421 216.64 454.208 217.6C455.994 218.533 457.394 219.827 458.408 221.48C459.421 223.133 459.928 225.053 459.928 227.24C459.928 229.373 459.421 231.28 458.408 232.96C457.394 234.613 455.994 235.92 454.208 236.88C452.421 237.84 450.394 238.32 448.128 238.32ZM448.128 233.2C449.168 233.2 450.101 232.96 450.928 232.48C451.754 232 452.408 231.32 452.888 230.44C453.368 229.533 453.608 228.467 453.608 227.24C453.608 225.987 453.368 224.92 452.888 224.04C452.408 223.16 451.754 222.48 450.928 222C450.101 221.52 449.168 221.28 448.128 221.28C447.088 221.28 446.154 221.52 445.328 222C444.501 222.48 443.834 223.16 443.328 224.04C442.848 224.92 442.608 225.987 442.608 227.24C442.608 228.467 442.848 229.533 443.328 230.44C443.834 231.32 444.501 232 445.328 232.48C446.154 232.96 447.088 233.2 448.128 233.2ZM462.459 232.12V227.76L475.659 210H482.459L469.539 227.76L466.379 226.84H488.419V232.12H462.459ZM477.539 238V232.12L477.739 226.84V221.6H483.859V238H477.539ZM511.317 210H517.797V238H511.317V210ZM498.597 238H492.117V210H498.597V238ZM511.797 226.52H498.117V221.04H511.797V226.52ZM524.422 238V210H529.782L546.302 230.16H543.702V210H550.102V238H544.782L528.222 217.84H530.822V238H524.422ZM556.286 238V216.48H562.246V222.56L561.406 220.8C562.046 219.28 563.073 218.133 564.486 217.36C565.9 216.56 567.62 216.16 569.646 216.16V221.92C569.38 221.893 569.14 221.88 568.926 221.88C568.713 221.853 568.486 221.84 568.246 221.84C566.54 221.84 565.153 222.333 564.086 223.32C563.046 224.28 562.526 225.787 562.526 227.84V238H556.286ZM600.956 216.16C602.662 216.16 604.169 216.507 605.476 217.2C606.809 217.867 607.849 218.907 608.596 220.32C609.369 221.707 609.756 223.493 609.756 225.68V238H603.516V226.64C603.516 224.907 603.156 223.627 602.436 222.8C601.716 221.973 600.702 221.56 599.396 221.56C598.489 221.56 597.676 221.773 596.956 222.2C596.236 222.6 595.676 223.213 595.276 224.04C594.876 224.867 594.676 225.92 594.676 227.2V238H588.436V226.64C588.436 224.907 588.076 223.627 587.356 222.8C586.662 221.973 585.662 221.56 584.356 221.56C583.449 221.56 582.636 221.773 581.916 222.2C581.196 222.6 580.636 223.213 580.236 224.04C579.836 224.867 579.636 225.92 579.636 227.2V238H573.396V216.48H579.356V222.36L578.236 220.64C578.982 219.173 580.036 218.067 581.396 217.32C582.782 216.547 584.356 216.16 586.116 216.16C588.089 216.16 589.809 216.667 591.276 217.68C592.769 218.667 593.756 220.187 594.236 222.24L592.036 221.64C592.756 219.96 593.902 218.627 595.476 217.64C597.076 216.653 598.902 216.16 600.956 216.16ZM625.629 238.48C623.282 238.48 621.229 238.133 619.469 237.44C617.709 236.72 616.335 235.72 615.349 234.44C614.362 233.133 613.869 231.613 613.869 229.88C613.869 228.147 614.349 226.68 615.309 225.48C616.295 224.253 617.669 223.333 619.429 222.72C621.189 222.08 623.255 221.76 625.629 221.76C628.029 221.76 630.109 222.08 631.869 222.72C633.655 223.333 635.029 224.253 635.989 225.48C636.975 226.68 637.469 228.147 637.469 229.88C637.469 231.613 636.975 233.133 635.989 234.44C635.002 235.72 633.615 236.72 631.829 237.44C630.069 238.133 628.002 238.48 625.629 238.48ZM625.629 233.72C627.255 233.72 628.535 233.36 629.469 232.64C630.429 231.92 630.909 230.933 630.909 229.68C630.909 228.427 630.429 227.453 629.469 226.76C628.535 226.04 627.255 225.68 625.629 225.68C624.029 225.68 622.762 226.04 621.829 226.76C620.895 227.453 620.429 228.427 620.429 229.68C620.429 230.933 620.895 231.92 621.829 232.64C622.762 233.36 624.029 233.72 625.629 233.72ZM625.629 225.04C623.469 225.04 621.575 224.747 619.949 224.16C618.349 223.573 617.095 222.72 616.189 221.6C615.309 220.453 614.869 219.093 614.869 217.52C614.869 215.867 615.322 214.453 616.229 213.28C617.135 212.08 618.402 211.16 620.029 210.52C621.655 209.853 623.522 209.52 625.629 209.52C627.789 209.52 629.669 209.853 631.269 210.52C632.895 211.16 634.162 212.08 635.069 213.28C636.002 214.453 636.469 215.867 636.469 217.52C636.469 219.093 636.015 220.453 635.109 221.6C634.229 222.72 632.975 223.573 631.349 224.16C629.722 224.747 627.815 225.04 625.629 225.04ZM625.629 221.24C626.989 221.24 628.055 220.933 628.829 220.32C629.629 219.707 630.029 218.867 630.029 217.8C630.029 216.68 629.615 215.813 628.789 215.2C627.989 214.587 626.935 214.28 625.629 214.28C624.349 214.28 623.309 214.587 622.509 215.2C621.709 215.813 621.309 216.68 621.309 217.8C621.309 218.867 621.695 219.707 622.469 220.32C623.242 220.933 624.295 221.24 625.629 221.24ZM650.555 238.32C648.022 238.32 646.048 237.68 644.635 236.4C643.222 235.093 642.515 233.16 642.515 230.6V211.72H648.755V230.52C648.755 231.427 648.995 232.133 649.475 232.64C649.955 233.12 650.608 233.36 651.435 233.36C652.422 233.36 653.262 233.093 653.955 232.56L655.635 236.96C654.995 237.413 654.222 237.76 653.315 238C652.435 238.213 651.515 238.32 650.555 238.32ZM639.195 221.76V216.96H654.115V221.76H639.195ZM661.888 238.32C660.822 238.32 659.902 237.96 659.128 237.24C658.382 236.493 658.008 235.547 658.008 234.4C658.008 233.253 658.382 232.333 659.128 231.64C659.902 230.92 660.822 230.56 661.888 230.56C662.982 230.56 663.902 230.92 664.648 231.64C665.395 232.333 665.768 233.253 665.768 234.4C665.768 235.547 665.395 236.493 664.648 237.24C663.902 237.96 662.982 238.32 661.888 238.32ZM672.357 238.32C671.291 238.32 670.371 237.96 669.597 237.24C668.851 236.493 668.477 235.547 668.477 234.4C668.477 233.253 668.851 232.333 669.597 231.64C670.371 230.92 671.291 230.56 672.357 230.56C673.451 230.56 674.371 230.92 675.117 231.64C675.864 232.333 676.237 233.253 676.237 234.4C676.237 235.547 675.864 236.493 675.117 237.24C674.371 237.96 673.451 238.32 672.357 238.32ZM682.826 238.32C681.759 238.32 680.839 237.96 680.066 237.24C679.319 236.493 678.946 235.547 678.946 234.4C678.946 233.253 679.319 232.333 680.066 231.64C680.839 230.92 681.759 230.56 682.826 230.56C683.919 230.56 684.839 230.92 685.586 231.64C686.333 232.333 686.706 233.253 686.706 234.4C686.706 235.547 686.333 236.493 685.586 237.24C684.839 237.96 683.919 238.32 682.826 238.32Z" fill="#009D4A"/>
<rect x="87" y="62" width="558" height="97" rx="48.5" fill="#1C1917"/>
<path d="M121.776 123V100.6H131.088C133.456 100.6 135.312 101.091 136.656 102.072C138.021 103.032 138.704 104.451 138.704 106.328C138.704 108.184 138.053 109.592 136.752 110.552C135.451 111.491 133.744 111.96 131.632 111.96L132.176 111.16C134.672 111.16 136.571 111.651 137.872 112.632C139.173 113.613 139.824 115.053 139.824 116.952C139.824 118.872 139.141 120.365 137.776 121.432C136.432 122.477 134.405 123 131.696 123H121.776ZM124.112 121.112H131.696C133.595 121.112 135.035 120.76 136.016 120.056C136.997 119.352 137.488 118.264 137.488 116.792C137.488 115.341 136.997 114.275 136.016 113.592C135.035 112.909 133.595 112.568 131.696 112.568H124.112V121.112ZM124.112 110.744H130.96C132.688 110.744 134.011 110.403 134.928 109.72C135.867 109.016 136.336 107.981 136.336 106.616C136.336 105.251 135.867 104.227 134.928 103.544C134.011 102.84 132.688 102.488 130.96 102.488H124.112V110.744ZM152.113 123.16C150.491 123.16 149.03 122.797 147.729 122.072C146.449 121.325 145.435 120.312 144.689 119.032C143.942 117.731 143.569 116.248 143.569 114.584C143.569 112.899 143.942 111.416 144.689 110.136C145.435 108.856 146.449 107.853 147.729 107.128C149.009 106.403 150.47 106.04 152.113 106.04C153.777 106.04 155.249 106.403 156.529 107.128C157.83 107.853 158.843 108.856 159.569 110.136C160.315 111.416 160.689 112.899 160.689 114.584C160.689 116.248 160.315 117.731 159.569 119.032C158.843 120.312 157.83 121.325 156.529 122.072C155.227 122.797 153.755 123.16 152.113 123.16ZM152.113 121.144C153.329 121.144 154.406 120.877 155.345 120.344C156.283 119.789 157.019 119.021 157.553 118.04C158.107 117.037 158.385 115.885 158.385 114.584C158.385 113.261 158.107 112.109 157.553 111.128C157.019 110.147 156.283 109.389 155.345 108.856C154.406 108.301 153.339 108.024 152.145 108.024C150.95 108.024 149.883 108.301 148.945 108.856C148.006 109.389 147.259 110.147 146.705 111.128C146.15 112.109 145.873 113.261 145.873 114.584C145.873 115.885 146.15 117.037 146.705 118.04C147.259 119.021 148.006 119.789 148.945 120.344C149.883 120.877 150.939 121.144 152.113 121.144ZM169.932 123.192C168.716 123.192 167.51 123.021 166.316 122.68C165.121 122.339 164.065 121.816 163.148 121.112L163.884 119.416C164.694 120.013 165.633 120.472 166.7 120.792C167.766 121.091 168.822 121.24 169.868 121.24C170.913 121.219 171.82 121.069 172.588 120.792C173.356 120.515 173.953 120.131 174.38 119.64C174.806 119.149 175.02 118.595 175.02 117.976C175.02 117.08 174.614 116.387 173.804 115.896C172.993 115.384 171.884 115.128 170.476 115.128H167.596V113.464H170.316C171.148 113.464 171.884 113.357 172.524 113.144C173.164 112.931 173.654 112.621 173.996 112.216C174.358 111.811 174.54 111.331 174.54 110.776C174.54 110.179 174.326 109.667 173.9 109.24C173.494 108.813 172.929 108.493 172.204 108.28C171.478 108.067 170.657 107.96 169.74 107.96C168.908 107.981 168.044 108.109 167.148 108.344C166.252 108.557 165.366 108.888 164.492 109.336L163.852 107.576C164.833 107.064 165.804 106.68 166.764 106.424C167.745 106.147 168.726 106.008 169.708 106.008C171.052 105.965 172.257 106.125 173.324 106.488C174.412 106.851 175.276 107.373 175.916 108.056C176.556 108.717 176.876 109.517 176.876 110.456C176.876 111.288 176.62 112.013 176.108 112.632C175.596 113.251 174.913 113.731 174.06 114.072C173.206 114.413 172.236 114.584 171.148 114.584L171.244 113.976C173.164 113.976 174.657 114.349 175.724 115.096C176.812 115.843 177.356 116.856 177.356 118.136C177.356 119.139 177.025 120.024 176.364 120.792C175.702 121.539 174.806 122.125 173.676 122.552C172.566 122.979 171.318 123.192 169.932 123.192ZM182.513 123V106.2H184.785V113.624H195.377V106.2H197.649V123H195.377V115.576H184.785V123H182.513ZM214.539 123V119.288L214.443 118.68V112.472C214.443 111.043 214.038 109.944 213.227 109.176C212.438 108.408 211.254 108.024 209.675 108.024C208.587 108.024 207.552 108.205 206.571 108.568C205.59 108.931 204.758 109.411 204.075 110.008L203.051 108.312C203.904 107.587 204.928 107.032 206.123 106.648C207.318 106.243 208.576 106.04 209.899 106.04C212.075 106.04 213.75 106.584 214.923 107.672C216.118 108.739 216.715 110.371 216.715 112.568V123H214.539ZM208.747 123.16C207.488 123.16 206.39 122.957 205.451 122.552C204.534 122.125 203.83 121.549 203.339 120.824C202.848 120.077 202.603 119.224 202.603 118.264C202.603 117.389 202.806 116.6 203.211 115.896C203.638 115.171 204.32 114.595 205.259 114.168C206.219 113.72 207.499 113.496 209.099 113.496H214.891V115.192H209.163C207.542 115.192 206.411 115.48 205.771 116.056C205.152 116.632 204.843 117.347 204.843 118.2C204.843 119.16 205.216 119.928 205.963 120.504C206.71 121.08 207.755 121.368 209.099 121.368C210.379 121.368 211.478 121.08 212.395 120.504C213.334 119.907 214.016 119.053 214.443 117.944L214.955 119.512C214.528 120.621 213.782 121.507 212.715 122.168C211.67 122.829 210.347 123.16 208.747 123.16ZM222.763 123V106.2H234.667V108.184H224.459L225.035 107.608V123H222.763ZM246.623 123.16C245.172 123.16 243.86 122.829 242.687 122.168C241.513 121.485 240.575 120.515 239.871 119.256C239.188 117.976 238.847 116.419 238.847 114.584C238.847 112.749 239.188 111.203 239.871 109.944C240.553 108.664 241.481 107.693 242.655 107.032C243.828 106.371 245.151 106.04 246.623 106.04C248.223 106.04 249.652 106.403 250.911 107.128C252.191 107.832 253.193 108.835 253.919 110.136C254.644 111.416 255.007 112.899 255.007 114.584C255.007 116.291 254.644 117.784 253.919 119.064C253.193 120.344 252.191 121.347 250.911 122.072C249.652 122.797 248.223 123.16 246.623 123.16ZM237.951 129.208V106.2H240.127V111.256L239.903 114.616L240.223 118.008V129.208H237.951ZM246.463 121.144C247.657 121.144 248.724 120.877 249.663 120.344C250.601 119.789 251.348 119.021 251.903 118.04C252.457 117.037 252.735 115.885 252.735 114.584C252.735 113.283 252.457 112.141 251.903 111.16C251.348 110.179 250.601 109.411 249.663 108.856C248.724 108.301 247.657 108.024 246.463 108.024C245.268 108.024 244.191 108.301 243.231 108.856C242.292 109.411 241.545 110.179 240.991 111.16C240.457 112.141 240.191 113.283 240.191 114.584C240.191 115.885 240.457 117.037 240.991 118.04C241.545 119.021 242.292 119.789 243.231 120.344C244.191 120.877 245.268 121.144 246.463 121.144ZM270.227 123V119.288L270.131 118.68V112.472C270.131 111.043 269.725 109.944 268.915 109.176C268.125 108.408 266.941 108.024 265.363 108.024C264.275 108.024 263.24 108.205 262.259 108.568C261.277 108.931 260.445 109.411 259.763 110.008L258.739 108.312C259.592 107.587 260.616 107.032 261.811 106.648C263.005 106.243 264.264 106.04 265.587 106.04C267.763 106.04 269.437 106.584 270.611 107.672C271.805 108.739 272.403 110.371 272.403 112.568V123H270.227ZM264.435 123.16C263.176 123.16 262.077 122.957 261.139 122.552C260.221 122.125 259.517 121.549 259.027 120.824C258.536 120.077 258.291 119.224 258.291 118.264C258.291 117.389 258.493 116.6 258.899 115.896C259.325 115.171 260.008 114.595 260.947 114.168C261.907 113.72 263.187 113.496 264.786 113.496H270.579V115.192H264.851C263.229 115.192 262.099 115.48 261.459 116.056C260.84 116.632 260.531 117.347 260.531 118.2C260.531 119.16 260.904 119.928 261.651 120.504C262.397 121.08 263.443 121.368 264.786 121.368C266.067 121.368 267.165 121.08 268.083 120.504C269.021 119.907 269.704 119.053 270.131 117.944L270.643 119.512C270.216 120.621 269.469 121.507 268.403 122.168C267.357 122.829 266.035 123.16 264.435 123.16ZM298.387 123L292.627 114.68L294.515 113.56L301.107 123H298.387ZM288.851 115.512V113.56H294.163V115.512H288.851ZM294.739 114.84L292.563 114.52L298.163 106.2H300.627L294.739 114.84ZM278.483 123H275.763L282.355 113.56L284.211 114.68L278.483 123ZM289.555 123H287.283V106.2H289.555V123ZM287.987 115.512H282.707V113.56H287.987V115.512ZM282.163 114.84L276.243 106.2H278.707L284.275 114.52L282.163 114.84ZM316.408 121.912V108.184H308.312L308.12 111.928C308.078 113.059 308.003 114.168 307.896 115.256C307.811 116.344 307.651 117.347 307.416 118.264C307.203 119.16 306.894 119.896 306.488 120.472C306.083 121.027 305.56 121.347 304.92 121.432L302.648 121.016C303.31 121.037 303.854 120.803 304.28 120.312C304.707 119.8 305.038 119.107 305.272 118.232C305.507 117.357 305.678 116.365 305.784 115.256C305.891 114.125 305.976 112.973 306.04 111.8L306.264 106.2H318.68V121.912H316.408ZM301.944 127.064V121.016H321.304V127.064H319.16V123H304.088V127.064H301.944ZM332.932 123.16C331.183 123.16 329.647 122.797 328.324 122.072C327.001 121.325 325.967 120.312 325.22 119.032C324.473 117.731 324.1 116.248 324.1 114.584C324.1 112.92 324.452 111.448 325.156 110.168C325.881 108.888 326.863 107.885 328.1 107.16C329.359 106.413 330.767 106.04 332.324 106.04C333.903 106.04 335.3 106.403 336.516 107.128C337.753 107.832 338.724 108.835 339.428 110.136C340.132 111.416 340.484 112.899 340.484 114.584C340.484 114.691 340.473 114.808 340.452 114.936C340.452 115.043 340.452 115.16 340.452 115.288H325.828V113.592H339.236L338.34 114.264C338.34 113.048 338.073 111.971 337.54 111.032C337.028 110.072 336.324 109.325 335.428 108.792C334.532 108.259 333.497 107.992 332.324 107.992C331.172 107.992 330.137 108.259 329.22 108.792C328.303 109.325 327.588 110.072 327.076 111.032C326.564 111.992 326.308 113.091 326.308 114.328V114.68C326.308 115.96 326.585 117.091 327.14 118.072C327.716 119.032 328.505 119.789 329.508 120.344C330.532 120.877 331.695 121.144 332.996 121.144C334.02 121.144 334.969 120.963 335.844 120.6C336.74 120.237 337.508 119.683 338.148 118.936L339.428 120.408C338.681 121.304 337.743 121.987 336.612 122.456C335.503 122.925 334.276 123.16 332.932 123.16ZM345.513 123V106.2H347.785V113.624H358.377V106.2H360.649V123H358.377V115.576H347.785V123H345.513ZM367.107 123V106.2H369.379V119.544L380.611 106.2H382.627V123H380.355V109.624L369.155 123H367.107ZM399.986 123V116.952L400.402 117.432H394.706C392.552 117.432 390.866 116.963 389.65 116.024C388.434 115.085 387.826 113.72 387.826 111.928C387.826 110.008 388.477 108.579 389.778 107.64C391.08 106.68 392.818 106.2 394.994 106.2H402.066V123H399.986ZM387.698 123L392.306 116.536H394.674L390.162 123H387.698ZM399.986 116.28V107.512L400.402 108.184H395.058C393.501 108.184 392.285 108.483 391.41 109.08C390.557 109.677 390.13 110.648 390.13 111.992C390.13 114.488 391.72 115.736 394.898 115.736H400.402L399.986 116.28ZM423.96 123.16C422.296 123.16 420.802 122.797 419.48 122.072C418.178 121.325 417.154 120.312 416.408 119.032C415.661 117.731 415.288 116.248 415.288 114.584C415.288 112.899 415.661 111.416 416.408 110.136C417.154 108.856 418.178 107.853 419.48 107.128C420.802 106.403 422.296 106.04 423.96 106.04C425.389 106.04 426.68 106.317 427.832 106.872C428.984 107.427 429.89 108.259 430.552 109.368L428.856 110.52C428.28 109.667 427.565 109.037 426.712 108.632C425.858 108.227 424.93 108.024 423.928 108.024C422.733 108.024 421.656 108.301 420.696 108.856C419.736 109.389 418.978 110.147 418.424 111.128C417.869 112.109 417.592 113.261 417.592 114.584C417.592 115.907 417.869 117.059 418.424 118.04C418.978 119.021 419.736 119.789 420.696 120.344C421.656 120.877 422.733 121.144 423.928 121.144C424.93 121.144 425.858 120.941 426.712 120.536C427.565 120.131 428.28 119.512 428.856 118.68L430.552 119.832C429.89 120.92 428.984 121.752 427.832 122.328C426.68 122.883 425.389 123.16 423.96 123.16ZM441.582 123.16C439.96 123.16 438.499 122.797 437.198 122.072C435.918 121.325 434.904 120.312 434.158 119.032C433.411 117.731 433.038 116.248 433.038 114.584C433.038 112.899 433.411 111.416 434.158 110.136C434.904 108.856 435.918 107.853 437.198 107.128C438.478 106.403 439.939 106.04 441.582 106.04C443.246 106.04 444.718 106.403 445.998 107.128C447.299 107.853 448.312 108.856 449.038 110.136C449.784 111.416 450.158 112.899 450.158 114.584C450.158 116.248 449.784 117.731 449.038 119.032C448.312 120.312 447.299 121.325 445.998 122.072C444.696 122.797 443.224 123.16 441.582 123.16ZM441.582 121.144C442.798 121.144 443.875 120.877 444.814 120.344C445.752 119.789 446.488 119.021 447.022 118.04C447.576 117.037 447.854 115.885 447.854 114.584C447.854 113.261 447.576 112.109 447.022 111.128C446.488 110.147 445.752 109.389 444.814 108.856C443.875 108.301 442.808 108.024 441.614 108.024C440.419 108.024 439.352 108.301 438.414 108.856C437.475 109.389 436.728 110.147 436.174 111.128C435.619 112.109 435.342 113.261 435.342 114.584C435.342 115.885 435.619 117.037 436.174 118.04C436.728 119.021 437.475 119.789 438.414 120.344C439.352 120.877 440.408 121.144 441.582 121.144ZM461.925 123.16C460.304 123.16 458.843 122.797 457.541 122.072C456.261 121.325 455.248 120.312 454.501 119.032C453.755 117.731 453.381 116.248 453.381 114.584C453.381 112.899 453.755 111.416 454.501 110.136C455.248 108.856 456.261 107.853 457.541 107.128C458.821 106.403 460.283 106.04 461.925 106.04C463.589 106.04 465.061 106.403 466.341 107.128C467.643 107.853 468.656 108.856 469.381 110.136C470.128 111.416 470.501 112.899 470.501 114.584C470.501 116.248 470.128 117.731 469.381 119.032C468.656 120.312 467.643 121.325 466.341 122.072C465.04 122.797 463.568 123.16 461.925 123.16ZM461.925 121.144C463.141 121.144 464.219 120.877 465.157 120.344C466.096 119.789 466.832 119.021 467.365 118.04C467.92 117.037 468.197 115.885 468.197 114.584C468.197 113.261 467.92 112.109 467.365 111.128C466.832 110.147 466.096 109.389 465.157 108.856C464.219 108.301 463.152 108.024 461.957 108.024C460.763 108.024 459.696 108.301 458.757 108.856C457.819 109.389 457.072 110.147 456.517 111.128C455.963 112.109 455.685 113.261 455.685 114.584C455.685 115.885 455.963 117.037 456.517 118.04C457.072 119.021 457.819 119.789 458.757 120.344C459.696 120.877 460.752 121.144 461.925 121.144ZM482.909 123.192C481.544 123.192 480.328 122.968 479.261 122.52C478.216 122.072 477.32 121.389 476.573 120.472C475.826 119.555 475.261 118.424 474.877 117.08C474.493 115.715 474.301 114.136 474.301 112.344C474.301 110.744 474.45 109.347 474.749 108.152C475.048 106.936 475.464 105.891 475.997 105.016C476.53 104.141 477.149 103.405 477.853 102.808C478.578 102.189 479.357 101.699 480.189 101.336C481.042 100.952 481.917 100.664 482.813 100.472L490.365 98.712L490.749 100.824L483.645 102.424C483.197 102.531 482.653 102.68 482.013 102.872C481.394 103.064 480.754 103.352 480.093 103.736C479.453 104.12 478.856 104.653 478.301 105.336C477.746 106.019 477.298 106.904 476.957 107.992C476.637 109.059 476.477 110.392 476.477 111.992C476.477 112.333 476.488 112.611 476.509 112.824C476.53 113.016 476.552 113.229 476.573 113.464C476.616 113.677 476.648 113.997 476.669 114.424L475.677 113.592C475.912 112.291 476.392 111.16 477.117 110.2C477.842 109.219 478.749 108.461 479.837 107.928C480.946 107.373 482.173 107.096 483.517 107.096C485.074 107.096 486.461 107.437 487.677 108.12C488.893 108.781 489.842 109.709 490.525 110.904C491.229 112.099 491.581 113.485 491.581 115.064C491.581 116.621 491.218 118.019 490.493 119.256C489.789 120.493 488.786 121.464 487.485 122.168C486.184 122.851 484.658 123.192 482.909 123.192ZM483.165 121.304C484.36 121.304 485.416 121.037 486.333 120.504C487.25 119.949 487.965 119.203 488.477 118.264C489.01 117.325 489.277 116.269 489.277 115.096C489.277 113.944 489.01 112.92 488.477 112.024C487.965 111.128 487.25 110.424 486.333 109.912C485.416 109.379 484.349 109.112 483.133 109.112C481.938 109.112 480.882 109.368 479.965 109.88C479.048 110.371 478.322 111.064 477.789 111.96C477.277 112.856 477.021 113.891 477.021 115.064C477.021 116.237 477.277 117.293 477.789 118.232C478.322 119.171 479.048 119.917 479.965 120.472C480.904 121.027 481.97 121.304 483.165 121.304ZM507.491 121.016L506.979 121.624V106.2H509.251V121.624L508.643 121.016H518.019L517.411 121.624V106.2H519.683V123H496.451V106.2H498.723V121.624L498.147 121.016H507.491ZM520.131 126.68V122.392L520.707 123H517.283V121.016H522.275V126.68H520.131ZM533.338 123.16C531.589 123.16 530.053 122.797 528.73 122.072C527.408 121.325 526.373 120.312 525.626 119.032C524.88 117.731 524.506 116.248 524.506 114.584C524.506 112.92 524.858 111.448 525.562 110.168C526.288 108.888 527.269 107.885 528.506 107.16C529.765 106.413 531.173 106.04 532.73 106.04C534.309 106.04 535.706 106.403 536.922 107.128C538.16 107.832 539.13 108.835 539.834 110.136C540.538 111.416 540.89 112.899 540.89 114.584C540.89 114.691 540.88 114.808 540.858 114.936C540.858 115.043 540.858 115.16 540.858 115.288H526.234V113.592H539.642L538.746 114.264C538.746 113.048 538.48 111.971 537.946 111.032C537.434 110.072 536.73 109.325 535.834 108.792C534.938 108.259 533.904 107.992 532.73 107.992C531.578 107.992 530.544 108.259 529.626 108.792C528.709 109.325 527.994 110.072 527.482 111.032C526.97 111.992 526.714 113.091 526.714 114.328V114.68C526.714 115.96 526.992 117.091 527.546 118.072C528.122 119.032 528.912 119.789 529.914 120.344C530.938 120.877 532.101 121.144 533.402 121.144C534.426 121.144 535.376 120.963 536.25 120.6C537.146 120.237 537.914 119.683 538.554 118.936L539.834 120.408C539.088 121.304 538.149 121.987 537.018 122.456C535.909 122.925 534.682 123.16 533.338 123.16ZM552.96 123.16C551.296 123.16 549.802 122.797 548.48 122.072C547.178 121.325 546.154 120.312 545.408 119.032C544.661 117.731 544.288 116.248 544.288 114.584C544.288 112.899 544.661 111.416 545.408 110.136C546.154 108.856 547.178 107.853 548.48 107.128C549.802 106.403 551.296 106.04 552.96 106.04C554.389 106.04 555.68 106.317 556.832 106.872C557.984 107.427 558.89 108.259 559.552 109.368L557.856 110.52C557.28 109.667 556.565 109.037 555.712 108.632C554.858 108.227 553.93 108.024 552.928 108.024C551.733 108.024 550.656 108.301 549.696 108.856C548.736 109.389 547.978 110.147 547.424 111.128C546.869 112.109 546.592 113.261 546.592 114.584C546.592 115.907 546.869 117.059 547.424 118.04C547.978 119.021 548.736 119.789 549.696 120.344C550.656 120.877 551.733 121.144 552.928 121.144C553.93 121.144 554.858 120.941 555.712 120.536C556.565 120.131 557.28 119.512 557.856 118.68L559.552 119.832C558.89 120.92 557.984 121.752 556.832 122.328C555.68 122.883 554.389 123.16 552.96 123.16ZM566.838 123V107.576L567.414 108.184H560.47V106.2H575.478V108.184H568.534L569.11 107.576V123H566.838ZM578.763 123V106.2H586.187C588.086 106.2 589.579 106.563 590.667 107.288C591.777 108.013 592.331 109.08 592.331 110.488C592.331 111.853 591.809 112.909 590.763 113.656C589.718 114.381 588.342 114.744 586.635 114.744L587.083 114.072C589.089 114.072 590.561 114.445 591.499 115.192C592.438 115.939 592.907 117.016 592.907 118.424C592.907 119.875 592.374 121.005 591.307 121.816C590.262 122.605 588.63 123 586.411 123H578.763ZM580.971 121.208H586.315C587.745 121.208 588.822 120.984 589.547 120.536C590.294 120.067 590.667 119.32 590.667 118.296C590.667 117.272 590.337 116.525 589.675 116.056C589.014 115.587 587.969 115.352 586.539 115.352H580.971V121.208ZM580.971 113.656H586.027C587.329 113.656 588.321 113.411 589.003 112.92C589.707 112.429 590.059 111.715 590.059 110.776C590.059 109.837 589.707 109.133 589.003 108.664C588.321 108.195 587.329 107.96 586.027 107.96H580.971V113.656ZM598.52 129.368C597.731 129.368 596.973 129.24 596.248 128.984C595.544 128.728 594.936 128.344 594.424 127.832L595.48 126.136C595.907 126.541 596.365 126.851 596.856 127.064C597.368 127.299 597.933 127.416 598.552 127.416C599.299 127.416 599.939 127.203 600.472 126.776C601.027 126.371 601.549 125.645 602.04 124.6L603.128 122.136L603.384 121.784L610.296 106.2H612.536L604.12 125.016C603.651 126.104 603.128 126.968 602.552 127.608C601.997 128.248 601.389 128.696 600.728 128.952C600.067 129.229 599.331 129.368 598.52 129.368ZM603 123.48L595.256 106.2H597.624L604.472 121.624L603 123.48Z" fill="#009D4A"/>
<path d="M87 350L108.154 320.845L113.923 341.67L132 311" stroke="#009D4A" stroke-width="4" stroke-linecap="round"/>
<path d="M163.68 314.824C166.784 314.824 169.456 315.464 171.696 316.744C173.936 318.024 175.664 319.896 176.88 322.36C178.096 324.792 178.704 327.832 178.704 331.48C178.704 335.352 177.968 338.632 176.496 341.32C175.056 344.008 173.056 346.056 170.496 347.464C167.936 348.872 164.96 349.576 161.568 349.576C159.808 349.576 158.112 349.384 156.48 349C154.848 348.616 153.44 348.04 152.256 347.272L155.136 341.56C156.064 342.2 157.056 342.648 158.112 342.904C159.168 343.128 160.272 343.24 161.424 343.24C164.304 343.24 166.592 342.36 168.288 340.6C170.016 338.84 170.88 336.232 170.88 332.776C170.88 332.2 170.864 331.56 170.832 330.856C170.8 330.152 170.72 329.448 170.592 328.744L172.704 330.76C172.16 332.008 171.392 333.064 170.4 333.928C169.408 334.76 168.256 335.4 166.944 335.848C165.632 336.264 164.16 336.472 162.528 336.472C160.384 336.472 158.432 336.04 156.672 335.176C154.944 334.312 153.552 333.096 152.496 331.528C151.472 329.96 150.96 328.12 150.96 326.008C150.96 323.704 151.52 321.72 152.64 320.056C153.792 318.392 155.328 317.112 157.248 316.216C159.2 315.288 161.344 314.824 163.68 314.824ZM164.16 320.632C163.04 320.632 162.064 320.84 161.232 321.256C160.4 321.64 159.744 322.216 159.264 322.984C158.784 323.72 158.544 324.6 158.544 325.624C158.544 327.16 159.056 328.392 160.08 329.32C161.136 330.216 162.528 330.664 164.256 330.664C165.376 330.664 166.368 330.456 167.232 330.04C168.128 329.592 168.816 328.984 169.296 328.216C169.776 327.448 170.016 326.584 170.016 325.624C170.016 324.664 169.776 323.816 169.296 323.08C168.848 322.312 168.192 321.72 167.328 321.304C166.464 320.856 165.408 320.632 164.16 320.632ZM193.859 349.576C191.523 349.576 189.203 349.272 186.898 348.664C184.627 348.024 182.675 347.128 181.043 345.976L184.115 340.024C185.395 340.952 186.867 341.688 188.531 342.232C190.227 342.776 191.939 343.048 193.667 343.048C195.619 343.048 197.155 342.664 198.275 341.896C199.395 341.128 199.955 340.056 199.955 338.68C199.955 337.816 199.731 337.048 199.283 336.376C198.835 335.704 198.035 335.192 196.883 334.84C195.763 334.488 194.179 334.312 192.131 334.312H183.539L185.267 315.4H205.763V321.64H188.051L192.083 318.088L190.883 331.576L186.851 328.024H193.955C197.283 328.024 199.955 328.488 201.971 329.416C204.019 330.312 205.507 331.544 206.435 333.112C207.363 334.68 207.827 336.456 207.827 338.44C207.827 340.424 207.331 342.264 206.339 343.96C205.347 345.624 203.811 346.984 201.731 348.04C199.683 349.064 197.059 349.576 193.859 349.576ZM215.397 349.384C214.117 349.384 213.013 348.952 212.085 348.088C211.189 347.192 210.741 346.056 210.741 344.68C210.741 343.304 211.189 342.2 212.085 341.368C213.013 340.504 214.117 340.072 215.397 340.072C216.709 340.072 217.813 340.504 218.709 341.368C219.605 342.2 220.053 343.304 220.053 344.68C220.053 346.056 219.605 347.192 218.709 348.088C217.813 348.952 216.709 349.384 215.397 349.384ZM227.931 349V318.28L231.291 321.64H221.211V315.4H235.707V349H227.931ZM252.968 349.576C250.632 349.576 248.312 349.272 246.008 348.664C243.736 348.024 241.784 347.128 240.152 345.976L243.224 340.024C244.504 340.952 245.976 341.688 247.64 342.232C249.336 342.776 251.048 343.048 252.776 343.048C254.728 343.048 256.264 342.664 257.384 341.896C258.504 341.128 259.064 340.056 259.064 338.68C259.064 337.816 258.84 337.048 258.392 336.376C257.944 335.704 257.144 335.192 255.992 334.84C254.872 334.488 253.288 334.312 251.24 334.312H242.648L244.376 315.4H264.872V321.64H247.16L251.192 318.088L249.992 331.576L245.96 328.024H253.064C256.392 328.024 259.064 328.488 261.08 329.416C263.128 330.312 264.616 331.544 265.544 333.112C266.472 334.68 266.936 336.456 266.936 338.44C266.936 340.424 266.44 342.264 265.448 343.96C264.456 345.624 262.92 346.984 260.84 348.04C258.792 349.064 256.168 349.576 252.968 349.576ZM284.491 349.576C281.739 349.576 279.275 348.904 277.099 347.56C274.923 346.184 273.211 344.2 271.963 341.608C270.715 339.016 270.091 335.88 270.091 332.2C270.091 328.52 270.715 325.384 271.963 322.792C273.211 320.2 274.923 318.232 277.099 316.888C279.275 315.512 281.739 314.824 284.491 314.824C287.275 314.824 289.739 315.512 291.883 316.888C294.059 318.232 295.771 320.2 297.019 322.792C298.267 325.384 298.891 328.52 298.891 332.2C298.891 335.88 298.267 339.016 297.019 341.608C295.771 344.2 294.059 346.184 291.883 347.56C289.739 348.904 287.275 349.576 284.491 349.576ZM284.491 343C285.803 343 286.939 342.632 287.899 341.896C288.891 341.16 289.659 339.992 290.203 338.392C290.779 336.792 291.067 334.728 291.067 332.2C291.067 329.672 290.779 327.608 290.203 326.008C289.659 324.408 288.891 323.24 287.899 322.504C286.939 321.768 285.803 321.4 284.491 321.4C283.211 321.4 282.075 321.768 281.083 322.504C280.123 323.24 279.355 324.408 278.779 326.008C278.235 327.608 277.963 329.672 277.963 332.2C277.963 334.728 278.235 336.792 278.779 338.392C279.355 339.992 280.123 341.16 281.083 341.896C282.075 342.632 283.211 343 284.491 343ZM306.476 349.384C305.196 349.384 304.092 348.952 303.164 348.088C302.268 347.192 301.82 346.056 301.82 344.68C301.82 343.304 302.268 342.2 303.164 341.368C304.092 340.504 305.196 340.072 306.476 340.072C307.788 340.072 308.892 340.504 309.788 341.368C310.684 342.2 311.132 343.304 311.132 344.68C311.132 346.056 310.684 347.192 309.788 348.088C308.892 348.952 307.788 349.384 306.476 349.384ZM328.413 349.576C325.661 349.576 323.197 348.904 321.021 347.56C318.845 346.184 317.133 344.2 315.885 341.608C314.637 339.016 314.013 335.88 314.013 332.2C314.013 328.52 314.637 325.384 315.885 322.792C317.133 320.2 318.845 318.232 321.021 316.888C323.197 315.512 325.661 314.824 328.413 314.824C331.197 314.824 333.661 315.512 335.805 316.888C337.981 318.232 339.693 320.2 340.941 322.792C342.189 325.384 342.813 328.52 342.813 332.2C342.813 335.88 342.189 339.016 340.941 341.608C339.693 344.2 337.981 346.184 335.805 347.56C333.661 348.904 331.197 349.576 328.413 349.576ZM328.413 343C329.725 343 330.861 342.632 331.821 341.896C332.813 341.16 333.581 339.992 334.125 338.392C334.701 336.792 334.989 334.728 334.989 332.2C334.989 329.672 334.701 327.608 334.125 326.008C333.581 324.408 332.813 323.24 331.821 322.504C330.861 321.768 329.725 321.4 328.413 321.4C327.133 321.4 325.997 321.768 325.005 322.504C324.045 323.24 323.277 324.408 322.701 326.008C322.157 327.608 321.885 329.672 321.885 332.2C321.885 334.728 322.157 336.792 322.701 338.392C323.277 339.992 324.045 341.16 325.005 341.896C325.997 342.632 327.133 343 328.413 343ZM360.991 349.576C358.239 349.576 355.775 348.904 353.599 347.56C351.423 346.184 349.711 344.2 348.463 341.608C347.215 339.016 346.591 335.88 346.591 332.2C346.591 328.52 347.215 325.384 348.463 322.792C349.711 320.2 351.423 318.232 353.599 316.888C355.775 315.512 358.239 314.824 360.991 314.824C363.775 314.824 366.239 315.512 368.383 316.888C370.559 318.232 372.271 320.2 373.519 322.792C374.767 325.384 375.391 328.52 375.391 332.2C375.391 335.88 374.767 339.016 373.519 341.608C372.271 344.2 370.559 346.184 368.383 347.56C366.239 348.904 363.775 349.576 360.991 349.576ZM360.991 343C362.303 343 363.439 342.632 364.399 341.896C365.391 341.16 366.159 339.992 366.703 338.392C367.279 336.792 367.567 334.728 367.567 332.2C367.567 329.672 367.279 327.608 366.703 326.008C366.159 324.408 365.391 323.24 364.399 322.504C363.439 321.768 362.303 321.4 360.991 321.4C359.711 321.4 358.575 321.768 357.583 322.504C356.623 323.24 355.855 324.408 355.279 326.008C354.735 327.608 354.463 329.672 354.463 332.2C354.463 334.728 354.735 336.792 355.279 338.392C355.855 339.992 356.623 341.16 357.583 341.896C358.575 342.632 359.711 343 360.991 343ZM393.569 349.576C390.817 349.576 388.353 348.904 386.177 347.56C384.001 346.184 382.289 344.2 381.041 341.608C379.793 339.016 379.169 335.88 379.169 332.2C379.169 328.52 379.793 325.384 381.041 322.792C382.289 320.2 384.001 318.232 386.177 316.888C388.353 315.512 390.817 314.824 393.569 314.824C396.353 314.824 398.817 315.512 400.961 316.888C403.137 318.232 404.849 320.2 406.097 322.792C407.345 325.384 407.969 328.52 407.969 332.2C407.969 335.88 407.345 339.016 406.097 341.608C404.849 344.2 403.137 346.184 400.961 347.56C398.817 348.904 396.353 349.576 393.569 349.576ZM393.569 343C394.881 343 396.017 342.632 396.977 341.896C397.969 341.16 398.737 339.992 399.281 338.392C399.857 336.792 400.145 334.728 400.145 332.2C400.145 329.672 399.857 327.608 399.281 326.008C398.737 324.408 397.969 323.24 396.977 322.504C396.017 321.768 394.881 321.4 393.569 321.4C392.289 321.4 391.153 321.768 390.161 322.504C389.201 323.24 388.433 324.408 387.857 326.008C387.313 327.608 387.041 329.672 387.041 332.2C387.041 334.728 387.313 336.792 387.857 338.392C388.433 339.992 389.201 341.16 390.161 341.896C391.153 342.632 392.289 343 393.569 343Z" fill="white"/>
<path d="M433.08 349V334.728L434.2 335.88H427.256V331.784H443.864V335.88H436.92L438.04 334.728V349H433.08ZM453.87 349.256C452.036 349.256 450.404 348.872 448.974 348.104C447.566 347.336 446.446 346.291 445.614 344.968C444.804 343.624 444.398 342.099 444.398 340.392C444.398 338.664 444.804 337.139 445.614 335.816C446.446 334.472 447.566 333.427 448.974 332.68C450.404 331.912 452.036 331.528 453.87 331.528C455.684 331.528 457.305 331.912 458.734 332.68C460.164 333.427 461.284 334.461 462.094 335.784C462.905 337.107 463.31 338.643 463.31 340.392C463.31 342.099 462.905 343.624 462.094 344.968C461.284 346.291 460.164 347.336 458.734 348.104C457.305 348.872 455.684 349.256 453.87 349.256ZM453.87 345.16C454.702 345.16 455.449 344.968 456.11 344.584C456.772 344.2 457.294 343.656 457.678 342.952C458.062 342.227 458.254 341.373 458.254 340.392C458.254 339.389 458.062 338.536 457.678 337.832C457.294 337.128 456.772 336.584 456.11 336.2C455.449 335.816 454.702 335.624 453.87 335.624C453.038 335.624 452.292 335.816 451.63 336.2C450.969 336.584 450.436 337.128 450.03 337.832C449.646 338.536 449.454 339.389 449.454 340.392C449.454 341.373 449.646 342.227 450.03 342.952C450.436 343.656 450.969 344.2 451.63 344.584C452.292 344.968 453.038 345.16 453.87 345.16ZM478.936 349L473.176 340.84L477.24 338.44L484.824 349H478.936ZM466.744 349V331.784H471.736V349H466.744ZM470.264 342.472V338.472H476.28V342.472H470.264ZM477.72 340.968L473.048 340.456L479.096 331.784H484.408L477.72 340.968ZM495.16 349.256C493.197 349.256 491.469 348.872 489.976 348.104C488.504 347.336 487.362 346.291 486.552 344.968C485.741 343.624 485.336 342.099 485.336 340.392C485.336 338.664 485.73 337.139 486.52 335.816C487.33 334.472 488.429 333.427 489.816 332.68C491.202 331.912 492.77 331.528 494.52 331.528C496.205 331.528 497.72 331.891 499.064 332.616C500.429 333.32 501.506 334.344 502.296 335.688C503.085 337.011 503.48 338.6 503.48 340.456C503.48 340.648 503.469 340.872 503.448 341.128C503.426 341.363 503.405 341.587 503.384 341.8H489.4V338.888H500.76L498.84 339.752C498.84 338.856 498.658 338.077 498.296 337.416C497.933 336.755 497.432 336.243 496.792 335.88C496.152 335.496 495.405 335.304 494.552 335.304C493.698 335.304 492.941 335.496 492.28 335.88C491.64 336.243 491.138 336.765 490.776 337.448C490.413 338.109 490.232 338.899 490.232 339.816V340.584C490.232 341.523 490.434 342.355 490.84 343.08C491.266 343.784 491.853 344.328 492.6 344.712C493.368 345.075 494.264 345.256 495.288 345.256C496.205 345.256 497.005 345.117 497.688 344.84C498.392 344.563 499.032 344.147 499.608 343.592L502.264 346.472C501.474 347.368 500.482 348.061 499.288 348.552C498.093 349.021 496.717 349.256 495.16 349.256ZM507.306 349V331.784H512.266V338.504H519.754V331.784H524.746V349H519.754V342.568H512.266V349H507.306ZM537.589 349.256C535.754 349.256 534.122 348.872 532.693 348.104C531.285 347.336 530.165 346.291 529.333 344.968C528.522 343.624 528.117 342.099 528.117 340.392C528.117 338.664 528.522 337.139 529.333 335.816C530.165 334.472 531.285 333.427 532.693 332.68C534.122 331.912 535.754 331.528 537.589 331.528C539.402 331.528 541.024 331.912 542.453 332.68C543.882 333.427 545.002 334.461 545.813 335.784C546.624 337.107 547.029 338.643 547.029 340.392C547.029 342.099 546.624 343.624 545.813 344.968C545.002 346.291 543.882 347.336 542.453 348.104C541.024 348.872 539.402 349.256 537.589 349.256ZM537.589 345.16C538.421 345.16 539.168 344.968 539.829 344.584C540.49 344.2 541.013 343.656 541.397 342.952C541.781 342.227 541.973 341.373 541.973 340.392C541.973 339.389 541.781 338.536 541.397 337.832C541.013 337.128 540.49 336.584 539.829 336.2C539.168 335.816 538.421 335.624 537.589 335.624C536.757 335.624 536.01 335.816 535.349 336.2C534.688 336.584 534.154 337.128 533.749 337.832C533.365 338.536 533.173 339.389 533.173 340.392C533.173 341.373 533.365 342.227 533.749 342.952C534.154 343.656 534.688 344.2 535.349 344.584C536.01 344.968 536.757 345.16 537.589 345.16ZM550.463 349V331.784H559.263C561.417 331.784 563.103 332.179 564.319 332.968C565.535 333.736 566.142 334.824 566.142 336.232C566.142 337.64 565.567 338.749 564.415 339.56C563.284 340.349 561.78 340.744 559.903 340.744L560.415 339.592C562.505 339.592 564.063 339.976 565.087 340.744C566.132 341.512 566.655 342.632 566.655 344.104C566.655 345.619 566.079 346.813 564.927 347.688C563.775 348.563 562.015 349 559.647 349H550.463ZM555.039 345.608H559.231C560.148 345.608 560.831 345.459 561.279 345.16C561.748 344.84 561.983 344.36 561.983 343.72C561.983 343.059 561.769 342.579 561.343 342.28C560.916 341.96 560.244 341.8 559.327 341.8H555.039V345.608ZM555.039 338.856H558.815C559.689 338.856 560.34 338.696 560.767 338.376C561.215 338.056 561.439 337.597 561.439 337C561.439 336.381 561.215 335.923 560.767 335.624C560.34 335.325 559.689 335.176 558.815 335.176H555.039V338.856Z" fill="white"/>
<path d="M776.604 199.856L766.013 223.155C762.724 223.155 758.991 222.797 755.846 223.579H755L776.604 199.008V199.856Z" fill="#8AB8FE"/>
<path d="M755.849 223.578H766.015C769.64 231.413 772.694 239.278 776.607 246.877V247.725L755 223.578H755.849Z" fill="#4787EA"/>
<path d="M798.21 224.002C798.166 223.8 797.986 223.609 797.786 223.578C794.641 222.799 790.908 223.157 787.619 223.154L777.452 199.855H777.876C784.893 207.587 792.067 215.35 798.648 223.384L798.21 224.002Z" fill="#243FD1"/>
<path d="M797.786 223.579C797.986 223.607 798.163 223.798 798.21 224.003L777.876 246.88H777.452L787.619 223.582C790.598 223.585 795.046 223.185 797.786 223.582V223.579Z" fill="#12209E"/>
<path d="M777.877 199.855H777.452C776.923 199.9 777.045 200.487 777.009 200.887C776.373 207.543 777.034 216.251 777.031 223.156C777.031 223.298 777.031 223.439 777.031 223.581C776.889 223.581 776.748 223.581 776.606 223.581V199.007C777.244 198.948 777.652 199.284 777.877 199.855Z" fill="#697FF4"/>
<path d="M777.452 246.877H777.877C777.66 247.448 777.247 247.814 776.606 247.725V223.578C776.748 223.578 776.889 223.578 777.031 223.578C777.031 230.639 776.471 238.959 777.009 245.848C777.039 246.247 776.928 246.835 777.452 246.879V246.877Z" fill="#596DD7"/>
<path d="M776.604 223.154C773.079 223.154 769.538 223.151 766.013 223.154L776.604 199.855V223.154Z" fill="#4576F2"/>
<path d="M766.016 223.154V223.578H755.849C758.994 222.799 762.726 223.157 766.016 223.154Z" fill="#97BEF8"/>
<path d="M776.604 223.578V246.877C772.694 239.278 769.637 231.413 766.013 223.578C769.538 223.578 773.079 223.578 776.604 223.578Z" fill="#2E5FDB"/>
<path d="M787.619 223.153C784.094 223.15 780.552 223.153 777.027 223.153C777.03 216.247 776.373 207.539 777.005 200.883C777.044 200.487 776.919 199.899 777.449 199.852L787.616 223.15L787.619 223.153Z" fill="#3346F5"/>
<path d="M797.786 223.576C795.046 223.18 790.598 223.579 787.619 223.576V223.152C790.908 223.152 794.641 222.794 797.786 223.576Z" fill="#5667CF"/>
<path d="M787.619 223.579L777.452 246.878C776.927 246.833 777.038 246.246 777.008 245.846C776.47 238.957 777.03 230.637 777.03 223.577C780.555 223.577 784.096 223.571 787.621 223.577L787.619 223.579Z" fill="#1D2DC5"/>
<path d="M776.604 223.154V223.578C773.079 223.578 769.538 223.578 766.013 223.578V223.154C769.538 223.151 773.079 223.154 776.604 223.154Z" fill="#6D92EF"/>
<path d="M787.62 223.154V223.578C784.095 223.572 780.553 223.578 777.028 223.578C777.028 223.436 777.028 223.295 777.028 223.154C780.553 223.154 784.095 223.151 787.62 223.154Z" fill="#606DEA"/>
</g>
<rect x="1.5" y="1.5" width="852" height="428" rx="76.5" stroke="#009D4A" stroke-width="3"/>
<defs>
<clipPath id="clip0_1769_96">
<rect width="855" height="431" rx="78" fill="white"/>
</clipPath>
</defs>
</svg>
