<svg width="316" height="145" viewBox="0 0 316 145" fill="none" xmlns="http://www.w3.org/2000/svg">
<rect width="316" height="145" rx="72.5" fill="#99330B"/>
<rect x="3.5" y="3.5" width="309" height="138" rx="69" stroke="white" stroke-width="7"/>
<path d="M164.865 85.1192V77.5723L187.713 46.8311H199.484L177.12 77.5723L171.65 75.9799H209.8V85.1192H164.865ZM190.967 95.297V85.1192L191.314 75.9799V66.9098H201.907V95.297H190.967Z" fill="white"/>
<path d="M133.518 96.1277C129.733 96.1277 126.202 95.5045 122.925 94.2583C119.693 93.012 116.878 91.258 114.478 88.9962C112.124 86.7345 110.277 84.0804 108.939 81.034C107.646 77.9875 107 74.6642 107 71.0638C107 67.4635 107.646 64.1401 108.939 61.0937C110.277 58.0473 112.147 55.3932 114.547 53.1314C116.947 50.8697 119.763 49.1157 122.994 47.8694C126.225 46.6231 129.733 46 133.518 46C137.349 46 140.857 46.6231 144.042 47.8694C147.273 49.1157 150.065 50.8697 152.42 53.1314C154.82 55.347 156.689 57.978 158.028 61.0245C159.366 64.0709 160.036 67.4173 160.036 71.0638C160.036 74.6642 159.366 78.0106 158.028 81.1032C156.689 84.1497 154.82 86.8037 152.42 89.0655C150.065 91.2811 147.273 93.012 144.042 94.2583C140.857 95.5045 137.349 96.1277 133.518 96.1277ZM149.373 106.444C147.481 106.444 145.68 106.236 143.973 105.821C142.311 105.405 140.649 104.736 138.988 103.813C137.372 102.89 135.664 101.644 133.864 100.074C132.11 98.5048 130.194 96.5662 128.117 94.2583L139.888 91.2811C141.134 92.9889 142.288 94.3506 143.349 95.3661C144.411 96.3815 145.427 97.097 146.396 97.5124C147.411 97.9278 148.473 98.1355 149.581 98.1355C152.535 98.1355 155.166 96.9354 157.474 94.5352L162.459 100.49C159.182 104.459 154.82 106.444 149.373 106.444ZM133.518 86.5729C135.687 86.5729 137.672 86.2037 139.472 85.4652C141.319 84.7266 142.934 83.665 144.319 82.2802C145.704 80.8955 146.765 79.2569 147.504 77.3644C148.288 75.4258 148.681 73.3256 148.681 71.0638C148.681 68.7559 148.288 66.6557 147.504 64.7633C146.765 62.8708 145.704 61.2322 144.319 59.8474C142.934 58.4627 141.319 57.401 139.472 56.6625C137.672 55.924 135.687 55.5547 133.518 55.5547C131.348 55.5547 129.341 55.924 127.494 56.6625C125.648 57.401 124.032 58.4627 122.648 59.8474C121.309 61.2322 120.247 62.8708 119.463 64.7633C118.724 66.6557 118.355 68.7559 118.355 71.0638C118.355 73.3256 118.724 75.4258 119.463 77.3644C120.247 79.2569 121.309 80.8955 122.648 82.2802C124.032 83.665 125.648 84.7266 127.494 85.4652C129.341 86.2037 131.348 86.5729 133.518 86.5729Z" fill="white"/>
</svg>
