<svg width="855" height="431" viewBox="0 0 855 431" fill="none" xmlns="http://www.w3.org/2000/svg">
<g clip-path="url(#clip0_1773_219)">
<rect width="855" height="431" rx="78" fill="#725252"/>
<rect x="-60" y="-7" width="915" height="438" fill="black"/>
<path d="M102.76 238.48C98.7867 238.48 95.68 237.373 93.44 235.16C91.2 232.947 90.08 229.787 90.08 225.68V210H96.56V225.44C96.56 228.107 97.1067 230.027 98.2 231.2C99.2933 232.373 100.827 232.96 102.8 232.96C104.773 232.96 106.307 232.373 107.4 231.2C108.493 230.027 109.04 228.107 109.04 225.44V210H115.44V225.68C115.44 229.787 114.32 232.947 112.08 235.16C109.84 237.373 106.733 238.48 102.76 238.48ZM135.403 238.48C133.217 238.48 131.177 238.12 129.283 237.4C127.417 236.68 125.79 235.667 124.403 234.36C123.043 233.053 121.977 231.52 121.203 229.76C120.457 228 120.083 226.08 120.083 224C120.083 221.92 120.457 220 121.203 218.24C121.977 216.48 123.057 214.947 124.443 213.64C125.83 212.333 127.457 211.32 129.323 210.6C131.19 209.88 133.217 209.52 135.403 209.52C137.617 209.52 139.643 209.88 141.483 210.6C143.35 211.32 144.963 212.333 146.323 213.64C147.71 214.92 148.79 216.44 149.563 218.2C150.337 219.96 150.723 221.893 150.723 224C150.723 226.08 150.337 228.013 149.563 229.8C148.79 231.56 147.71 233.093 146.323 234.4C144.963 235.68 143.35 236.68 141.483 237.4C139.643 238.12 137.617 238.48 135.403 238.48ZM144.563 244.44C143.47 244.44 142.43 244.32 141.443 244.08C140.483 243.84 139.523 243.453 138.563 242.92C137.63 242.387 136.643 241.667 135.603 240.76C134.59 239.853 133.483 238.733 132.283 237.4L139.083 235.68C139.803 236.667 140.47 237.453 141.083 238.04C141.697 238.627 142.283 239.04 142.843 239.28C143.43 239.52 144.043 239.64 144.683 239.64C146.39 239.64 147.91 238.947 149.243 237.56L152.123 241C150.23 243.293 147.71 244.44 144.563 244.44ZM135.403 232.96C136.657 232.96 137.803 232.747 138.843 232.32C139.91 231.893 140.843 231.28 141.643 230.48C142.443 229.68 143.057 228.733 143.483 227.64C143.937 226.52 144.163 225.307 144.163 224C144.163 222.667 143.937 221.453 143.483 220.36C143.057 219.267 142.443 218.32 141.643 217.52C140.843 216.72 139.91 216.107 138.843 215.68C137.803 215.253 136.657 215.04 135.403 215.04C134.15 215.04 132.99 215.253 131.923 215.68C130.857 216.107 129.923 216.72 129.123 217.52C128.35 218.32 127.737 219.267 127.283 220.36C126.857 221.453 126.643 222.667 126.643 224C126.643 225.307 126.857 226.52 127.283 227.64C127.737 228.733 128.35 229.68 129.123 230.48C129.923 231.28 130.857 231.893 131.923 232.32C132.99 232.747 134.15 232.96 135.403 232.96ZM168.993 238.48C166.833 238.48 164.82 238.133 162.953 237.44C161.113 236.72 159.513 235.707 158.153 234.4C156.793 233.093 155.727 231.56 154.953 229.8C154.207 228.04 153.833 226.107 153.833 224C153.833 221.893 154.207 219.96 154.953 218.2C155.727 216.44 156.793 214.907 158.153 213.6C159.54 212.293 161.153 211.293 162.993 210.6C164.833 209.88 166.847 209.52 169.033 209.52C171.46 209.52 173.647 209.947 175.593 210.8C177.567 211.627 179.22 212.853 180.553 214.48L176.393 218.32C175.433 217.227 174.367 216.413 173.193 215.88C172.02 215.32 170.74 215.04 169.353 215.04C168.047 215.04 166.847 215.253 165.753 215.68C164.66 216.107 163.713 216.72 162.913 217.52C162.113 218.32 161.487 219.267 161.033 220.36C160.607 221.453 160.393 222.667 160.393 224C160.393 225.333 160.607 226.547 161.033 227.64C161.487 228.733 162.113 229.68 162.913 230.48C163.713 231.28 164.66 231.893 165.753 232.32C166.847 232.747 168.047 232.96 169.353 232.96C170.74 232.96 172.02 232.693 173.193 232.16C174.367 231.6 175.433 230.76 176.393 229.64L180.553 233.48C179.22 235.107 177.567 236.347 175.593 237.2C173.647 238.053 171.447 238.48 168.993 238.48ZM187.209 246.08C186.089 246.08 184.983 245.907 183.889 245.56C182.796 245.213 181.903 244.733 181.209 244.12L183.489 239.68C183.969 240.107 184.516 240.44 185.129 240.68C185.769 240.92 186.396 241.04 187.009 241.04C187.889 241.04 188.583 240.827 189.089 240.4C189.623 240 190.103 239.32 190.529 238.36L191.649 235.72L192.129 235.04L199.849 216.48H205.849L196.129 239.32C195.436 241.053 194.636 242.413 193.729 243.4C192.849 244.387 191.863 245.08 190.769 245.48C189.703 245.88 188.516 246.08 187.209 246.08ZM190.889 238.84L181.289 216.48H187.729L195.169 234.48L190.889 238.84ZM222.278 238.48C220.092 238.48 218.052 238.12 216.158 237.4C214.292 236.68 212.665 235.667 211.278 234.36C209.918 233.053 208.852 231.52 208.078 229.76C207.332 228 206.958 226.08 206.958 224C206.958 221.92 207.332 220 208.078 218.24C208.852 216.48 209.932 214.947 211.318 213.64C212.705 212.333 214.332 211.32 216.198 210.6C218.065 209.88 220.092 209.52 222.278 209.52C224.492 209.52 226.518 209.88 228.358 210.6C230.225 211.32 231.838 212.333 233.198 213.64C234.585 214.92 235.665 216.44 236.438 218.2C237.212 219.96 237.598 221.893 237.598 224C237.598 226.08 237.212 228.013 236.438 229.8C235.665 231.56 234.585 233.093 233.198 234.4C231.838 235.68 230.225 236.68 228.358 237.4C226.518 238.12 224.492 238.48 222.278 238.48ZM231.438 244.44C230.345 244.44 229.305 244.32 228.318 244.08C227.358 243.84 226.398 243.453 225.438 242.92C224.505 242.387 223.518 241.667 222.478 240.76C221.465 239.853 220.358 238.733 219.158 237.4L225.958 235.68C226.678 236.667 227.345 237.453 227.958 238.04C228.572 238.627 229.158 239.04 229.718 239.28C230.305 239.52 230.918 239.64 231.558 239.64C233.265 239.64 234.785 238.947 236.118 237.56L238.998 241C237.105 243.293 234.585 244.44 231.438 244.44ZM222.278 232.96C223.532 232.96 224.678 232.747 225.718 232.32C226.785 231.893 227.718 231.28 228.518 230.48C229.318 229.68 229.932 228.733 230.358 227.64C230.812 226.52 231.038 225.307 231.038 224C231.038 222.667 230.812 221.453 230.358 220.36C229.932 219.267 229.318 218.32 228.518 217.52C227.718 216.72 226.785 216.107 225.718 215.68C224.678 215.253 223.532 215.04 222.278 215.04C221.025 215.04 219.865 215.253 218.798 215.68C217.732 216.107 216.798 216.72 215.998 217.52C215.225 218.32 214.612 219.267 214.158 220.36C213.732 221.453 213.518 222.667 213.518 224C213.518 225.307 213.732 226.52 214.158 227.64C214.612 228.733 215.225 229.68 215.998 230.48C216.798 231.28 217.732 231.893 218.798 232.32C219.865 232.747 221.025 232.96 222.278 232.96ZM240.548 238V234.24L253.268 219.2L254.348 221.28H240.828V216.48H259.388V220.24L246.668 235.28L245.548 233.2H259.748V238H240.548ZM261.531 241.6V238H281.531V241.6H261.531ZM294.154 238.32C291.7 238.32 289.54 237.84 287.674 236.88C285.834 235.92 284.407 234.613 283.394 232.96C282.38 231.28 281.874 229.373 281.874 227.24C281.874 225.08 282.367 223.173 283.354 221.52C284.367 219.84 285.74 218.533 287.474 217.6C289.207 216.64 291.167 216.16 293.354 216.16C295.46 216.16 297.354 216.613 299.034 217.52C300.74 218.4 302.087 219.68 303.074 221.36C304.06 223.013 304.554 225 304.554 227.32C304.554 227.56 304.54 227.84 304.514 228.16C304.487 228.453 304.46 228.733 304.434 229H286.954V225.36H301.154L298.754 226.44C298.754 225.32 298.527 224.347 298.074 223.52C297.62 222.693 296.994 222.053 296.194 221.6C295.394 221.12 294.46 220.88 293.394 220.88C292.327 220.88 291.38 221.12 290.554 221.6C289.754 222.053 289.127 222.707 288.674 223.56C288.22 224.387 287.994 225.373 287.994 226.52V227.48C287.994 228.653 288.247 229.693 288.754 230.6C289.287 231.48 290.02 232.16 290.954 232.64C291.914 233.093 293.034 233.32 294.314 233.32C295.46 233.32 296.46 233.147 297.314 232.8C298.194 232.453 298.994 231.933 299.714 231.24L303.034 234.84C302.047 235.96 300.807 236.827 299.314 237.44C297.82 238.027 296.1 238.32 294.154 238.32ZM307.033 238V234.24L319.753 219.2L320.833 221.28H307.313V216.48H325.873V220.24L313.153 235.28L312.033 233.2H326.233V238H307.033ZM330.992 238V216C330.992 213.573 331.712 211.64 333.152 210.2C334.592 208.733 336.645 208 339.312 208C340.218 208 341.085 208.093 341.912 208.28C342.765 208.467 343.485 208.76 344.072 209.16L342.432 213.68C342.085 213.44 341.698 213.253 341.272 213.12C340.845 212.987 340.392 212.92 339.912 212.92C339.005 212.92 338.298 213.187 337.792 213.72C337.312 214.227 337.072 215 337.072 216.04V218.04L337.232 220.72V238H330.992ZM327.672 221.76V216.96H342.592V221.76H327.672ZM373.417 216.16C375.123 216.16 376.63 216.507 377.937 217.2C379.27 217.867 380.31 218.907 381.057 220.32C381.83 221.707 382.217 223.493 382.217 225.68V238H375.977V226.64C375.977 224.907 375.617 223.627 374.897 222.8C374.177 221.973 373.163 221.56 371.857 221.56C370.95 221.56 370.137 221.773 369.417 222.2C368.697 222.6 368.137 223.213 367.737 224.04C367.337 224.867 367.137 225.92 367.137 227.2V238H360.897V226.64C360.897 224.907 360.537 223.627 359.817 222.8C359.123 221.973 358.123 221.56 356.817 221.56C355.91 221.56 355.097 221.773 354.377 222.2C353.657 222.6 353.097 223.213 352.697 224.04C352.297 224.867 352.097 225.92 352.097 227.2V238H345.857V216.48H351.817V222.36L350.697 220.64C351.443 219.173 352.497 218.067 353.857 217.32C355.243 216.547 356.817 216.16 358.577 216.16C360.55 216.16 362.27 216.667 363.737 217.68C365.23 218.667 366.217 220.187 366.697 222.24L364.497 221.64C365.217 219.96 366.363 218.627 367.937 217.64C369.537 216.653 371.363 216.16 373.417 216.16ZM400.53 238.32C398.636 238.32 397.01 237.92 395.65 237.12C394.29 236.32 393.25 235.107 392.53 233.48C391.81 231.827 391.45 229.747 391.45 227.24C391.45 224.707 391.823 222.627 392.57 221C393.343 219.373 394.41 218.16 395.77 217.36C397.13 216.56 398.716 216.16 400.53 216.16C402.556 216.16 404.37 216.613 405.97 217.52C407.596 218.427 408.876 219.707 409.81 221.36C410.77 223.013 411.25 224.973 411.25 227.24C411.25 229.48 410.77 231.427 409.81 233.08C408.876 234.733 407.596 236.027 405.97 236.96C404.37 237.867 402.556 238.32 400.53 238.32ZM387.81 238V208.32H394.05V220.84L393.65 227.2L393.77 233.6V238H387.81ZM399.45 233.2C400.49 233.2 401.41 232.96 402.21 232.48C403.036 232 403.69 231.32 404.17 230.44C404.676 229.533 404.93 228.467 404.93 227.24C404.93 225.987 404.676 224.92 404.17 224.04C403.69 223.16 403.036 222.48 402.21 222C401.41 221.52 400.49 221.28 399.45 221.28C398.41 221.28 397.476 221.52 396.65 222C395.823 222.48 395.17 223.16 394.69 224.04C394.21 224.92 393.97 225.987 393.97 227.24C393.97 228.467 394.21 229.533 394.69 230.44C395.17 231.32 395.823 232 396.65 232.48C397.476 232.96 398.41 233.2 399.45 233.2ZM426.627 238.48C424.067 238.48 421.84 237.947 419.947 236.88C418.08 235.813 416.64 234.253 415.627 232.2C414.614 230.147 414.107 227.613 414.107 224.6C414.107 221.373 414.707 218.64 415.907 216.4C417.134 214.16 418.814 212.453 420.947 211.28C423.107 210.107 425.587 209.52 428.387 209.52C429.88 209.52 431.307 209.68 432.667 210C434.027 210.32 435.2 210.8 436.187 211.44L433.787 216.2C433.014 215.667 432.187 215.307 431.307 215.12C430.427 214.907 429.507 214.8 428.547 214.8C426.12 214.8 424.2 215.533 422.787 217C421.374 218.467 420.667 220.64 420.667 223.52C420.667 224 420.667 224.533 420.667 225.12C420.694 225.707 420.774 226.293 420.907 226.88L419.107 225.2C419.614 224.16 420.267 223.293 421.067 222.6C421.867 221.88 422.814 221.347 423.907 221C425.027 220.627 426.254 220.44 427.587 220.44C429.4 220.44 431.027 220.8 432.467 221.52C433.907 222.24 435.054 223.253 435.907 224.56C436.787 225.867 437.227 227.4 437.227 229.16C437.227 231.053 436.747 232.707 435.787 234.12C434.854 235.507 433.587 236.587 431.987 237.36C430.414 238.107 428.627 238.48 426.627 238.48ZM426.267 233.64C427.174 233.64 427.974 233.48 428.667 233.16C429.387 232.813 429.947 232.32 430.347 231.68C430.747 231.04 430.947 230.307 430.947 229.48C430.947 228.2 430.507 227.187 429.627 226.44C428.774 225.667 427.627 225.28 426.187 225.28C425.227 225.28 424.387 225.467 423.667 225.84C422.947 226.187 422.374 226.68 421.947 227.32C421.547 227.933 421.347 228.653 421.347 229.48C421.347 230.28 421.547 231 421.947 231.64C422.347 232.253 422.907 232.747 423.627 233.12C424.347 233.467 425.227 233.64 426.267 233.64ZM451.576 238.48C449.282 238.48 447.229 237.92 445.416 236.8C443.602 235.653 442.176 234 441.136 231.84C440.096 229.68 439.576 227.067 439.576 224C439.576 220.933 440.096 218.32 441.136 216.16C442.176 214 443.602 212.36 445.416 211.24C447.229 210.093 449.282 209.52 451.576 209.52C453.896 209.52 455.949 210.093 457.736 211.24C459.549 212.36 460.976 214 462.016 216.16C463.056 218.32 463.576 220.933 463.576 224C463.576 227.067 463.056 229.68 462.016 231.84C460.976 234 459.549 235.653 457.736 236.8C455.949 237.92 453.896 238.48 451.576 238.48ZM451.576 233C452.669 233 453.616 232.693 454.416 232.08C455.242 231.467 455.882 230.493 456.336 229.16C456.816 227.827 457.056 226.107 457.056 224C457.056 221.893 456.816 220.173 456.336 218.84C455.882 217.507 455.242 216.533 454.416 215.92C453.616 215.307 452.669 215 451.576 215C450.509 215 449.562 215.307 448.736 215.92C447.936 216.533 447.296 217.507 446.816 218.84C446.362 220.173 446.136 221.893 446.136 224C446.136 226.107 446.362 227.827 446.816 229.16C447.296 230.493 447.936 231.467 448.736 232.08C449.562 232.693 450.509 233 451.576 233ZM464.933 238L474.573 225.36L474.453 228.8L465.213 216.48H472.213L478.053 224.52L475.413 224.6L481.453 216.48H488.093L478.813 228.68V225.32L488.413 238H481.333L475.213 229.44L477.813 229.8L471.733 238H464.933ZM490.936 246.08C489.976 246.08 489.056 245.973 488.176 245.76C487.296 245.573 486.55 245.28 485.936 244.88L487.616 240.36C488.336 240.867 489.216 241.12 490.256 241.12C491.03 241.12 491.643 240.853 492.096 240.32C492.576 239.813 492.816 239.04 492.816 238V216.48H499.056V237.96C499.056 240.44 498.35 242.413 496.936 243.88C495.523 245.347 493.523 246.08 490.936 246.08ZM495.936 213.48C494.79 213.48 493.856 213.147 493.136 212.48C492.416 211.813 492.056 210.987 492.056 210C492.056 209.013 492.416 208.187 493.136 207.52C493.856 206.853 494.79 206.52 495.936 206.52C497.083 206.52 498.016 206.84 498.736 207.48C499.456 208.093 499.816 208.893 499.816 209.88C499.816 210.92 499.456 211.787 498.736 212.48C498.043 213.147 497.11 213.48 495.936 213.48ZM503.242 238V233.8L514.042 223.6C514.895 222.827 515.522 222.133 515.922 221.52C516.322 220.907 516.589 220.347 516.722 219.84C516.882 219.333 516.962 218.867 516.962 218.44C516.962 217.32 516.575 216.467 515.802 215.88C515.055 215.267 513.949 214.96 512.482 214.96C511.309 214.96 510.215 215.187 509.202 215.64C508.215 216.093 507.375 216.8 506.682 217.76L501.962 214.72C503.029 213.12 504.522 211.853 506.442 210.92C508.362 209.987 510.575 209.52 513.082 209.52C515.162 209.52 516.975 209.867 518.522 210.56C520.095 211.227 521.309 212.173 522.162 213.4C523.042 214.627 523.482 216.093 523.482 217.8C523.482 218.707 523.362 219.613 523.122 220.52C522.909 221.4 522.455 222.333 521.762 223.32C521.095 224.307 520.109 225.413 518.802 226.64L509.842 235.08L508.602 232.72H524.402V238H503.242ZM534.836 222.6H548.276V227.8H534.836V222.6ZM535.316 238H528.836V210H549.996V215.2H535.316V238ZM557.493 238L568.773 212.48L570.453 215.28H555.373L558.253 212.24V219.84H552.493V210H574.933V214.2L564.533 238H557.493ZM585.578 222.6H599.018V227.8H585.578V222.6ZM586.058 238H579.578V210H600.738V215.2H586.058V238ZM609.699 238.48C607.805 238.48 606.059 238.133 604.459 237.44C602.885 236.72 601.592 235.707 600.579 234.4L604.179 230.08C604.952 231.093 605.765 231.867 606.619 232.4C607.472 232.907 608.392 233.16 609.379 233.16C612.019 233.16 613.339 231.613 613.339 228.52V215.2H603.499V210H619.779V228.16C619.779 231.627 618.925 234.213 617.219 235.92C615.512 237.627 613.005 238.48 609.699 238.48ZM627.826 238.32C626.759 238.32 625.839 237.96 625.066 237.24C624.319 236.493 623.946 235.547 623.946 234.4C623.946 233.253 624.319 232.333 625.066 231.64C625.839 230.92 626.759 230.56 627.826 230.56C628.919 230.56 629.839 230.92 630.586 231.64C631.333 232.333 631.706 233.253 631.706 234.4C631.706 235.547 631.333 236.493 630.586 237.24C629.839 237.96 628.919 238.32 627.826 238.32ZM638.295 238.32C637.228 238.32 636.308 237.96 635.535 237.24C634.788 236.493 634.415 235.547 634.415 234.4C634.415 233.253 634.788 232.333 635.535 231.64C636.308 230.92 637.228 230.56 638.295 230.56C639.388 230.56 640.308 230.92 641.055 231.64C641.801 232.333 642.175 233.253 642.175 234.4C642.175 235.547 641.801 236.493 641.055 237.24C640.308 237.96 639.388 238.32 638.295 238.32ZM648.763 238.32C647.697 238.32 646.777 237.96 646.003 237.24C645.257 236.493 644.883 235.547 644.883 234.4C644.883 233.253 645.257 232.333 646.003 231.64C646.777 230.92 647.697 230.56 648.763 230.56C649.857 230.56 650.777 230.92 651.523 231.64C652.27 232.333 652.643 233.253 652.643 234.4C652.643 235.547 652.27 236.493 651.523 237.24C650.777 237.96 649.857 238.32 648.763 238.32Z" fill="#009D4A"/>
<rect x="87" y="62" width="527" height="97" rx="48.5" fill="#1C1917"/>
<path d="M121.776 123V100.6H124.112V119.16L138.448 100.6H140.592V123H138.256V104.472L123.92 123H121.776ZM147.607 123V106.2H149.879V113.624H160.471V106.2H162.743V123H160.471V115.576H149.879V123H147.607ZM169.201 123V106.2H171.473V119.544L182.705 106.2H184.721V123H182.449V109.624L171.249 123H169.201ZM191.232 123V106.2H193.504V121.016H203.776V106.2H206.048V123H191.232ZM206.624 127.064V122.808L207.2 123H203.776V121.016H208.768V127.064H206.624ZM213.107 123V106.2H215.379V119.544L226.611 106.2H228.627V123H226.355V109.624L215.155 123H213.107ZM245.57 123V119.288L245.474 118.68V112.472C245.474 111.043 245.069 109.944 244.258 109.176C243.469 108.408 242.285 108.024 240.706 108.024C239.618 108.024 238.584 108.205 237.602 108.568C236.621 108.931 235.789 109.411 235.106 110.008L234.082 108.312C234.936 107.587 235.96 107.032 237.154 106.648C238.349 106.243 239.608 106.04 240.93 106.04C243.106 106.04 244.781 106.584 245.954 107.672C247.149 108.739 247.746 110.371 247.746 112.568V123H245.57ZM239.778 123.16C238.52 123.16 237.421 122.957 236.482 122.552C235.565 122.125 234.861 121.549 234.37 120.824C233.88 120.077 233.634 119.224 233.634 118.264C233.634 117.389 233.837 116.6 234.242 115.896C234.669 115.171 235.352 114.595 236.29 114.168C237.25 113.72 238.53 113.496 240.13 113.496H245.922V115.192H240.194C238.573 115.192 237.442 115.48 236.802 116.056C236.184 116.632 235.874 117.347 235.874 118.2C235.874 119.16 236.248 119.928 236.994 120.504C237.741 121.08 238.786 121.368 240.13 121.368C241.41 121.368 242.509 121.08 243.426 120.504C244.365 119.907 245.048 119.053 245.474 117.944L245.986 119.512C245.56 120.621 244.813 121.507 243.746 122.168C242.701 122.829 241.378 123.16 239.778 123.16ZM256.995 123V107.576L257.571 108.184H250.627V106.2H265.635V108.184H258.691L259.267 107.576V123H256.995ZM268.92 123V106.2H271.192V119.544L282.424 106.2H284.44V123H282.168V109.624L270.968 123H268.92ZM290.951 123V106.2H298.375C300.273 106.2 301.767 106.563 302.855 107.288C303.964 108.013 304.519 109.08 304.519 110.488C304.519 111.853 303.996 112.909 302.951 113.656C301.905 114.381 300.529 114.744 298.823 114.744L299.271 114.072C301.276 114.072 302.748 114.445 303.687 115.192C304.625 115.939 305.095 117.016 305.095 118.424C305.095 119.875 304.561 121.005 303.495 121.816C302.449 122.605 300.817 123 298.599 123H290.951ZM293.159 121.208H298.503C299.932 121.208 301.009 120.984 301.735 120.536C302.481 120.067 302.855 119.32 302.855 118.296C302.855 117.272 302.524 116.525 301.863 116.056C301.201 115.587 300.156 115.352 298.727 115.352H293.159V121.208ZM293.159 113.656H298.215C299.516 113.656 300.508 113.411 301.191 112.92C301.895 112.429 302.247 111.715 302.247 110.776C302.247 109.837 301.895 109.133 301.191 108.664C300.508 108.195 299.516 107.96 298.215 107.96H293.159V113.656ZM326.804 123V106.2H329.076V123H326.804ZM317.492 112.12C319.604 112.141 321.214 112.611 322.324 113.528C323.433 114.445 323.988 115.768 323.988 117.496C323.988 119.288 323.39 120.664 322.196 121.624C321.001 122.584 319.294 123.053 317.076 123.032L310.42 123V106.2H312.692V112.056L317.492 112.12ZM316.916 121.304C318.494 121.325 319.678 121.016 320.468 120.376C321.278 119.715 321.684 118.755 321.684 117.496C321.684 116.237 321.289 115.32 320.5 114.744C319.71 114.147 318.516 113.837 316.916 113.816L312.692 113.752V121.24L316.916 121.304ZM350.832 123.16C349.21 123.16 347.749 122.797 346.448 122.072C345.168 121.325 344.154 120.312 343.408 119.032C342.661 117.731 342.288 116.248 342.288 114.584C342.288 112.899 342.661 111.416 343.408 110.136C344.154 108.856 345.168 107.853 346.448 107.128C347.728 106.403 349.189 106.04 350.832 106.04C352.496 106.04 353.968 106.403 355.248 107.128C356.549 107.853 357.562 108.856 358.288 110.136C359.034 111.416 359.408 112.899 359.408 114.584C359.408 116.248 359.034 117.731 358.288 119.032C357.562 120.312 356.549 121.325 355.248 122.072C353.946 122.797 352.474 123.16 350.832 123.16ZM350.832 121.144C352.048 121.144 353.125 120.877 354.064 120.344C355.002 119.789 355.738 119.021 356.272 118.04C356.826 117.037 357.104 115.885 357.104 114.584C357.104 113.261 356.826 112.109 356.272 111.128C355.738 110.147 355.002 109.389 354.064 108.856C353.125 108.301 352.058 108.024 350.864 108.024C349.669 108.024 348.602 108.301 347.664 108.856C346.725 109.389 345.978 110.147 345.424 111.128C344.869 112.109 344.592 113.261 344.592 114.584C344.592 115.885 344.869 117.037 345.424 118.04C345.978 119.021 346.725 119.789 347.664 120.344C348.602 120.877 349.658 121.144 350.832 121.144ZM366.838 123V107.576L367.414 108.184H360.47V106.2H375.478V108.184H368.534L369.11 107.576V123H366.838ZM394.178 123.16C392.514 123.16 391.021 122.797 389.698 122.072C388.397 121.325 387.373 120.312 386.626 119.032C385.88 117.731 385.506 116.248 385.506 114.584C385.506 112.899 385.88 111.416 386.626 110.136C387.373 108.856 388.397 107.853 389.698 107.128C391.021 106.403 392.514 106.04 394.178 106.04C395.608 106.04 396.898 106.317 398.05 106.872C399.202 107.427 400.109 108.259 400.77 109.368L399.074 110.52C398.498 109.667 397.784 109.037 396.93 108.632C396.077 108.227 395.149 108.024 394.146 108.024C392.952 108.024 391.874 108.301 390.914 108.856C389.954 109.389 389.197 110.147 388.642 111.128C388.088 112.109 387.81 113.261 387.81 114.584C387.81 115.907 388.088 117.059 388.642 118.04C389.197 119.021 389.954 119.789 390.914 120.344C391.874 120.877 392.952 121.144 394.146 121.144C395.149 121.144 396.077 120.941 396.93 120.536C397.784 120.131 398.498 119.512 399.074 118.68L400.77 119.832C400.109 120.92 399.202 121.752 398.05 122.328C396.898 122.883 395.608 123.16 394.178 123.16ZM411.8 123.16C410.179 123.16 408.718 122.797 407.416 122.072C406.136 121.325 405.123 120.312 404.376 119.032C403.63 117.731 403.256 116.248 403.256 114.584C403.256 112.899 403.63 111.416 404.376 110.136C405.123 108.856 406.136 107.853 407.416 107.128C408.696 106.403 410.158 106.04 411.8 106.04C413.464 106.04 414.936 106.403 416.216 107.128C417.518 107.853 418.531 108.856 419.256 110.136C420.003 111.416 420.376 112.899 420.376 114.584C420.376 116.248 420.003 117.731 419.256 119.032C418.531 120.312 417.518 121.325 416.216 122.072C414.915 122.797 413.443 123.16 411.8 123.16ZM411.8 121.144C413.016 121.144 414.094 120.877 415.032 120.344C415.971 119.789 416.707 119.021 417.24 118.04C417.795 117.037 418.072 115.885 418.072 114.584C418.072 113.261 417.795 112.109 417.24 111.128C416.707 110.147 415.971 109.389 415.032 108.856C414.094 108.301 413.027 108.024 411.832 108.024C410.638 108.024 409.571 108.301 408.632 108.856C407.694 109.389 406.947 110.147 406.392 111.128C405.838 112.109 405.56 113.261 405.56 114.584C405.56 115.885 405.838 117.037 406.392 118.04C406.947 119.021 407.694 119.789 408.632 120.344C409.571 120.877 410.627 121.144 411.8 121.144ZM432.144 123.16C430.523 123.16 429.061 122.797 427.76 122.072C426.48 121.325 425.467 120.312 424.72 119.032C423.973 117.731 423.6 116.248 423.6 114.584C423.6 112.899 423.973 111.416 424.72 110.136C425.467 108.856 426.48 107.853 427.76 107.128C429.04 106.403 430.501 106.04 432.144 106.04C433.808 106.04 435.28 106.403 436.56 107.128C437.861 107.853 438.875 108.856 439.6 110.136C440.347 111.416 440.72 112.899 440.72 114.584C440.72 116.248 440.347 117.731 439.6 119.032C438.875 120.312 437.861 121.325 436.56 122.072C435.259 122.797 433.787 123.16 432.144 123.16ZM432.144 121.144C433.36 121.144 434.437 120.877 435.376 120.344C436.315 119.789 437.051 119.021 437.584 118.04C438.139 117.037 438.416 115.885 438.416 114.584C438.416 113.261 438.139 112.109 437.584 111.128C437.051 110.147 436.315 109.389 435.376 108.856C434.437 108.301 433.371 108.024 432.176 108.024C430.981 108.024 429.915 108.301 428.976 108.856C428.037 109.389 427.291 110.147 426.736 111.128C426.181 112.109 425.904 113.261 425.904 114.584C425.904 115.885 426.181 117.037 426.736 118.04C427.291 119.021 428.037 119.789 428.976 120.344C429.915 120.877 430.971 121.144 432.144 121.144ZM453.128 123.192C451.762 123.192 450.546 122.968 449.48 122.52C448.434 122.072 447.538 121.389 446.792 120.472C446.045 119.555 445.48 118.424 445.096 117.08C444.712 115.715 444.52 114.136 444.52 112.344C444.52 110.744 444.669 109.347 444.968 108.152C445.266 106.936 445.682 105.891 446.216 105.016C446.749 104.141 447.368 103.405 448.072 102.808C448.797 102.189 449.576 101.699 450.408 101.336C451.261 100.952 452.136 100.664 453.032 100.472L460.584 98.712L460.968 100.824L453.864 102.424C453.416 102.531 452.872 102.68 452.232 102.872C451.613 103.064 450.973 103.352 450.312 103.736C449.672 104.12 449.074 104.653 448.52 105.336C447.965 106.019 447.517 106.904 447.176 107.992C446.856 109.059 446.696 110.392 446.696 111.992C446.696 112.333 446.706 112.611 446.728 112.824C446.749 113.016 446.77 113.229 446.792 113.464C446.834 113.677 446.866 113.997 446.888 114.424L445.896 113.592C446.13 112.291 446.61 111.16 447.336 110.2C448.061 109.219 448.968 108.461 450.056 107.928C451.165 107.373 452.392 107.096 453.736 107.096C455.293 107.096 456.68 107.437 457.896 108.12C459.112 108.781 460.061 109.709 460.744 110.904C461.448 112.099 461.8 113.485 461.8 115.064C461.8 116.621 461.437 118.019 460.712 119.256C460.008 120.493 459.005 121.464 457.704 122.168C456.402 122.851 454.877 123.192 453.128 123.192ZM453.384 121.304C454.578 121.304 455.634 121.037 456.552 120.504C457.469 119.949 458.184 119.203 458.696 118.264C459.229 117.325 459.496 116.269 459.496 115.096C459.496 113.944 459.229 112.92 458.696 112.024C458.184 111.128 457.469 110.424 456.552 109.912C455.634 109.379 454.568 109.112 453.352 109.112C452.157 109.112 451.101 109.368 450.184 109.88C449.266 110.371 448.541 111.064 448.008 111.96C447.496 112.856 447.24 113.891 447.24 115.064C447.24 116.237 447.496 117.293 448.008 118.232C448.541 119.171 449.266 119.917 450.184 120.472C451.122 121.027 452.189 121.304 453.384 121.304ZM477.71 121.016L477.198 121.624V106.2H479.47V121.624L478.862 121.016H488.238L487.63 121.624V106.2H489.902V123H466.67V106.2H468.942V121.624L468.366 121.016H477.71ZM490.35 126.68V122.392L490.926 123H487.502V121.016H492.494V126.68H490.35ZM503.557 123.16C501.808 123.16 500.272 122.797 498.949 122.072C497.626 121.325 496.592 120.312 495.845 119.032C495.098 117.731 494.725 116.248 494.725 114.584C494.725 112.92 495.077 111.448 495.781 110.168C496.506 108.888 497.488 107.885 498.725 107.16C499.984 106.413 501.392 106.04 502.949 106.04C504.528 106.04 505.925 106.403 507.141 107.128C508.378 107.832 509.349 108.835 510.053 110.136C510.757 111.416 511.109 112.899 511.109 114.584C511.109 114.691 511.098 114.808 511.077 114.936C511.077 115.043 511.077 115.16 511.077 115.288H496.453V113.592H509.861L508.965 114.264C508.965 113.048 508.698 111.971 508.165 111.032C507.653 110.072 506.949 109.325 506.053 108.792C505.157 108.259 504.122 107.992 502.949 107.992C501.797 107.992 500.762 108.259 499.845 108.792C498.928 109.325 498.213 110.072 497.701 111.032C497.189 111.992 496.933 113.091 496.933 114.328V114.68C496.933 115.96 497.21 117.091 497.765 118.072C498.341 119.032 499.13 119.789 500.133 120.344C501.157 120.877 502.32 121.144 503.621 121.144C504.645 121.144 505.594 120.963 506.469 120.6C507.365 120.237 508.133 119.683 508.773 118.936L510.053 120.408C509.306 121.304 508.368 121.987 507.237 122.456C506.128 122.925 504.901 123.16 503.557 123.16ZM523.178 123.16C521.514 123.16 520.021 122.797 518.698 122.072C517.397 121.325 516.373 120.312 515.626 119.032C514.88 117.731 514.506 116.248 514.506 114.584C514.506 112.899 514.88 111.416 515.626 110.136C516.373 108.856 517.397 107.853 518.698 107.128C520.021 106.403 521.514 106.04 523.178 106.04C524.608 106.04 525.898 106.317 527.05 106.872C528.202 107.427 529.109 108.259 529.77 109.368L528.074 110.52C527.498 109.667 526.784 109.037 525.93 108.632C525.077 108.227 524.149 108.024 523.146 108.024C521.952 108.024 520.874 108.301 519.914 108.856C518.954 109.389 518.197 110.147 517.642 111.128C517.088 112.109 516.81 113.261 516.81 114.584C516.81 115.907 517.088 117.059 517.642 118.04C518.197 119.021 518.954 119.789 519.914 120.344C520.874 120.877 521.952 121.144 523.146 121.144C524.149 121.144 525.077 120.941 525.93 120.536C526.784 120.131 527.498 119.512 528.074 118.68L529.77 119.832C529.109 120.92 528.202 121.752 527.05 122.328C525.898 122.883 524.608 123.16 523.178 123.16ZM537.057 123V107.576L537.633 108.184H530.689V106.2H545.697V108.184H538.753L539.329 107.576V123H537.057ZM548.982 123V106.2H556.406C558.305 106.2 559.798 106.563 560.886 107.288C561.995 108.013 562.55 109.08 562.55 110.488C562.55 111.853 562.027 112.909 560.982 113.656C559.937 114.381 558.561 114.744 556.854 114.744L557.302 114.072C559.307 114.072 560.779 114.445 561.718 115.192C562.657 115.939 563.126 117.016 563.126 118.424C563.126 119.875 562.593 121.005 561.526 121.816C560.481 122.605 558.849 123 556.63 123H548.982ZM551.19 121.208H556.534C557.963 121.208 559.041 120.984 559.766 120.536C560.513 120.067 560.886 119.32 560.886 118.296C560.886 117.272 560.555 116.525 559.894 116.056C559.233 115.587 558.187 115.352 556.758 115.352H551.19V121.208ZM551.19 113.656H556.246C557.547 113.656 558.539 113.411 559.222 112.92C559.926 112.429 560.278 111.715 560.278 110.776C560.278 109.837 559.926 109.133 559.222 108.664C558.539 108.195 557.547 107.96 556.246 107.96H551.19V113.656ZM578.883 123V119.288L578.787 118.68V112.472C578.787 111.043 578.381 109.944 577.571 109.176C576.781 108.408 575.597 108.024 574.019 108.024C572.931 108.024 571.896 108.205 570.915 108.568C569.933 108.931 569.101 109.411 568.419 110.008L567.395 108.312C568.248 107.587 569.272 107.032 570.467 106.648C571.661 106.243 572.92 106.04 574.243 106.04C576.419 106.04 578.093 106.584 579.267 107.672C580.461 108.739 581.059 110.371 581.059 112.568V123H578.883ZM573.091 123.16C571.832 123.16 570.733 122.957 569.795 122.552C568.877 122.125 568.173 121.549 567.683 120.824C567.192 120.077 566.947 119.224 566.947 118.264C566.947 117.389 567.149 116.6 567.555 115.896C567.981 115.171 568.664 114.595 569.603 114.168C570.563 113.72 571.843 113.496 573.443 113.496H579.235V115.192H573.507C571.885 115.192 570.755 115.48 570.115 116.056C569.496 116.632 569.187 117.347 569.187 118.2C569.187 119.16 569.56 119.928 570.307 120.504C571.053 121.08 572.099 121.368 573.443 121.368C574.723 121.368 575.821 121.08 576.739 120.504C577.677 119.907 578.36 119.053 578.787 117.944L579.299 119.512C578.872 120.621 578.125 121.507 577.059 122.168C576.013 122.829 574.691 123.16 573.091 123.16Z" fill="#009D4A"/>
<path d="M87 350L108.154 320.845L113.923 341.67L132 311" stroke="#009D4A" stroke-width="4" stroke-linecap="round"/>
<path d="M157.056 349V318.28L160.416 321.64H150.336V315.4H164.832V349H157.056ZM182.477 314.824C185.581 314.824 188.253 315.464 190.493 316.744C192.733 318.024 194.461 319.896 195.677 322.36C196.893 324.792 197.501 327.832 197.501 331.48C197.501 335.352 196.765 338.632 195.293 341.32C193.853 344.008 191.853 346.056 189.293 347.464C186.733 348.872 183.757 349.576 180.365 349.576C178.605 349.576 176.909 349.384 175.277 349C173.645 348.616 172.237 348.04 171.053 347.272L173.933 341.56C174.861 342.2 175.853 342.648 176.909 342.904C177.965 343.128 179.069 343.24 180.221 343.24C183.101 343.24 185.389 342.36 187.085 340.6C188.813 338.84 189.677 336.232 189.677 332.776C189.677 332.2 189.661 331.56 189.629 330.856C189.597 330.152 189.517 329.448 189.389 328.744L191.501 330.76C190.957 332.008 190.189 333.064 189.197 333.928C188.205 334.76 187.053 335.4 185.741 335.848C184.429 336.264 182.957 336.472 181.325 336.472C179.181 336.472 177.229 336.04 175.469 335.176C173.741 334.312 172.349 333.096 171.293 331.528C170.269 329.96 169.757 328.12 169.757 326.008C169.757 323.704 170.317 321.72 171.437 320.056C172.589 318.392 174.125 317.112 176.045 316.216C177.997 315.288 180.141 314.824 182.477 314.824ZM182.957 320.632C181.837 320.632 180.861 320.84 180.029 321.256C179.197 321.64 178.541 322.216 178.061 322.984C177.581 323.72 177.341 324.6 177.341 325.624C177.341 327.16 177.853 328.392 178.877 329.32C179.933 330.216 181.325 330.664 183.053 330.664C184.173 330.664 185.165 330.456 186.029 330.04C186.925 329.592 187.613 328.984 188.093 328.216C188.573 327.448 188.813 326.584 188.813 325.624C188.813 324.664 188.573 323.816 188.093 323.08C187.645 322.312 186.989 321.72 186.125 321.304C185.261 320.856 184.205 320.632 182.957 320.632ZM205.038 349.384C203.758 349.384 202.654 348.952 201.726 348.088C200.83 347.192 200.382 346.056 200.382 344.68C200.382 343.304 200.83 342.2 201.726 341.368C202.654 340.504 203.758 340.072 205.038 340.072C206.35 340.072 207.454 340.504 208.35 341.368C209.246 342.2 209.694 343.304 209.694 344.68C209.694 346.056 209.246 347.192 208.35 348.088C207.454 348.952 206.35 349.384 205.038 349.384ZM226.975 349.576C224.223 349.576 221.759 348.904 219.583 347.56C217.407 346.184 215.695 344.2 214.447 341.608C213.199 339.016 212.575 335.88 212.575 332.2C212.575 328.52 213.199 325.384 214.447 322.792C215.695 320.2 217.407 318.232 219.583 316.888C221.759 315.512 224.223 314.824 226.975 314.824C229.759 314.824 232.223 315.512 234.367 316.888C236.543 318.232 238.255 320.2 239.503 322.792C240.751 325.384 241.375 328.52 241.375 332.2C241.375 335.88 240.751 339.016 239.503 341.608C238.255 344.2 236.543 346.184 234.367 347.56C232.223 348.904 229.759 349.576 226.975 349.576ZM226.975 343C228.287 343 229.423 342.632 230.383 341.896C231.375 341.16 232.143 339.992 232.687 338.392C233.263 336.792 233.551 334.728 233.551 332.2C233.551 329.672 233.263 327.608 232.687 326.008C232.143 324.408 231.375 323.24 230.383 322.504C229.423 321.768 228.287 321.4 226.975 321.4C225.695 321.4 224.559 321.768 223.567 322.504C222.607 323.24 221.839 324.408 221.263 326.008C220.719 327.608 220.447 329.672 220.447 332.2C220.447 334.728 220.719 336.792 221.263 338.392C221.839 339.992 222.607 341.16 223.567 341.896C224.559 342.632 225.695 343 226.975 343ZM259.553 349.576C256.801 349.576 254.337 348.904 252.161 347.56C249.985 346.184 248.273 344.2 247.025 341.608C245.777 339.016 245.153 335.88 245.153 332.2C245.153 328.52 245.777 325.384 247.025 322.792C248.273 320.2 249.985 318.232 252.161 316.888C254.337 315.512 256.801 314.824 259.553 314.824C262.337 314.824 264.801 315.512 266.945 316.888C269.121 318.232 270.833 320.2 272.081 322.792C273.329 325.384 273.953 328.52 273.953 332.2C273.953 335.88 273.329 339.016 272.081 341.608C270.833 344.2 269.121 346.184 266.945 347.56C264.801 348.904 262.337 349.576 259.553 349.576ZM259.553 343C260.865 343 262.001 342.632 262.961 341.896C263.953 341.16 264.721 339.992 265.265 338.392C265.841 336.792 266.129 334.728 266.129 332.2C266.129 329.672 265.841 327.608 265.265 326.008C264.721 324.408 263.953 323.24 262.961 322.504C262.001 321.768 260.865 321.4 259.553 321.4C258.273 321.4 257.137 321.768 256.145 322.504C255.185 323.24 254.417 324.408 253.841 326.008C253.297 327.608 253.025 329.672 253.025 332.2C253.025 334.728 253.297 336.792 253.841 338.392C254.417 339.992 255.185 341.16 256.145 341.896C257.137 342.632 258.273 343 259.553 343ZM292.131 349.576C289.379 349.576 286.915 348.904 284.739 347.56C282.563 346.184 280.851 344.2 279.603 341.608C278.355 339.016 277.731 335.88 277.731 332.2C277.731 328.52 278.355 325.384 279.603 322.792C280.851 320.2 282.563 318.232 284.739 316.888C286.915 315.512 289.379 314.824 292.131 314.824C294.915 314.824 297.379 315.512 299.523 316.888C301.699 318.232 303.411 320.2 304.659 322.792C305.907 325.384 306.531 328.52 306.531 332.2C306.531 335.88 305.907 339.016 304.659 341.608C303.411 344.2 301.699 346.184 299.523 347.56C297.379 348.904 294.915 349.576 292.131 349.576ZM292.131 343C293.443 343 294.579 342.632 295.539 341.896C296.531 341.16 297.299 339.992 297.843 338.392C298.419 336.792 298.707 334.728 298.707 332.2C298.707 329.672 298.419 327.608 297.843 326.008C297.299 324.408 296.531 323.24 295.539 322.504C294.579 321.768 293.443 321.4 292.131 321.4C290.851 321.4 289.715 321.768 288.723 322.504C287.763 323.24 286.995 324.408 286.419 326.008C285.875 327.608 285.603 329.672 285.603 332.2C285.603 334.728 285.875 336.792 286.419 338.392C286.995 339.992 287.763 341.16 288.723 341.896C289.715 342.632 290.851 343 292.131 343ZM314.116 349.384C312.836 349.384 311.732 348.952 310.804 348.088C309.908 347.192 309.46 346.056 309.46 344.68C309.46 343.304 309.908 342.2 310.804 341.368C311.732 340.504 312.836 340.072 314.116 340.072C315.428 340.072 316.532 340.504 317.428 341.368C318.324 342.2 318.772 343.304 318.772 344.68C318.772 346.056 318.324 347.192 317.428 348.088C316.532 348.952 315.428 349.384 314.116 349.384ZM336.053 349.576C333.301 349.576 330.837 348.904 328.661 347.56C326.485 346.184 324.773 344.2 323.525 341.608C322.277 339.016 321.653 335.88 321.653 332.2C321.653 328.52 322.277 325.384 323.525 322.792C324.773 320.2 326.485 318.232 328.661 316.888C330.837 315.512 333.301 314.824 336.053 314.824C338.837 314.824 341.301 315.512 343.445 316.888C345.621 318.232 347.333 320.2 348.581 322.792C349.829 325.384 350.453 328.52 350.453 332.2C350.453 335.88 349.829 339.016 348.581 341.608C347.333 344.2 345.621 346.184 343.445 347.56C341.301 348.904 338.837 349.576 336.053 349.576ZM336.053 343C337.365 343 338.501 342.632 339.461 341.896C340.453 341.16 341.221 339.992 341.765 338.392C342.341 336.792 342.629 334.728 342.629 332.2C342.629 329.672 342.341 327.608 341.765 326.008C341.221 324.408 340.453 323.24 339.461 322.504C338.501 321.768 337.365 321.4 336.053 321.4C334.773 321.4 333.637 321.768 332.645 322.504C331.685 323.24 330.917 324.408 330.341 326.008C329.797 327.608 329.525 329.672 329.525 332.2C329.525 334.728 329.797 336.792 330.341 338.392C330.917 339.992 331.685 341.16 332.645 341.896C333.637 342.632 334.773 343 336.053 343ZM368.631 349.576C365.879 349.576 363.415 348.904 361.239 347.56C359.063 346.184 357.351 344.2 356.103 341.608C354.855 339.016 354.231 335.88 354.231 332.2C354.231 328.52 354.855 325.384 356.103 322.792C357.351 320.2 359.063 318.232 361.239 316.888C363.415 315.512 365.879 314.824 368.631 314.824C371.415 314.824 373.879 315.512 376.023 316.888C378.199 318.232 379.911 320.2 381.159 322.792C382.407 325.384 383.031 328.52 383.031 332.2C383.031 335.88 382.407 339.016 381.159 341.608C379.911 344.2 378.199 346.184 376.023 347.56C373.879 348.904 371.415 349.576 368.631 349.576ZM368.631 343C369.943 343 371.079 342.632 372.039 341.896C373.031 341.16 373.799 339.992 374.343 338.392C374.919 336.792 375.207 334.728 375.207 332.2C375.207 329.672 374.919 327.608 374.343 326.008C373.799 324.408 373.031 323.24 372.039 322.504C371.079 321.768 369.943 321.4 368.631 321.4C367.351 321.4 366.215 321.768 365.223 322.504C364.263 323.24 363.495 324.408 362.919 326.008C362.375 327.608 362.103 329.672 362.103 332.2C362.103 334.728 362.375 336.792 362.919 338.392C363.495 339.992 364.263 341.16 365.223 341.896C366.215 342.632 367.351 343 368.631 343ZM401.21 349.576C398.458 349.576 395.994 348.904 393.818 347.56C391.642 346.184 389.93 344.2 388.682 341.608C387.434 339.016 386.81 335.88 386.81 332.2C386.81 328.52 387.434 325.384 388.682 322.792C389.93 320.2 391.642 318.232 393.818 316.888C395.994 315.512 398.458 314.824 401.21 314.824C403.994 314.824 406.458 315.512 408.602 316.888C410.778 318.232 412.49 320.2 413.738 322.792C414.986 325.384 415.61 328.52 415.61 332.2C415.61 335.88 414.986 339.016 413.738 341.608C412.49 344.2 410.778 346.184 408.602 347.56C406.458 348.904 403.994 349.576 401.21 349.576ZM401.21 343C402.522 343 403.658 342.632 404.618 341.896C405.61 341.16 406.378 339.992 406.922 338.392C407.498 336.792 407.786 334.728 407.786 332.2C407.786 329.672 407.498 327.608 406.922 326.008C406.378 324.408 405.61 323.24 404.618 322.504C403.658 321.768 402.522 321.4 401.21 321.4C399.93 321.4 398.794 321.768 397.802 322.504C396.842 323.24 396.074 324.408 395.498 326.008C394.954 327.608 394.682 329.672 394.682 332.2C394.682 334.728 394.954 336.792 395.498 338.392C396.074 339.992 396.842 341.16 397.802 341.896C398.794 342.632 399.93 343 401.21 343Z" fill="white"/>
<path d="M449.08 349V334.728L450.2 335.88H443.256V331.784H459.864V335.88H452.92L454.04 334.728V349H449.08ZM469.87 349.256C468.036 349.256 466.404 348.872 464.974 348.104C463.566 347.336 462.446 346.291 461.614 344.968C460.804 343.624 460.398 342.099 460.398 340.392C460.398 338.664 460.804 337.139 461.614 335.816C462.446 334.472 463.566 333.427 464.974 332.68C466.404 331.912 468.036 331.528 469.87 331.528C471.684 331.528 473.305 331.912 474.734 332.68C476.164 333.427 477.284 334.461 478.094 335.784C478.905 337.107 479.31 338.643 479.31 340.392C479.31 342.099 478.905 343.624 478.094 344.968C477.284 346.291 476.164 347.336 474.734 348.104C473.305 348.872 471.684 349.256 469.87 349.256ZM469.87 345.16C470.702 345.16 471.449 344.968 472.11 344.584C472.772 344.2 473.294 343.656 473.678 342.952C474.062 342.227 474.254 341.373 474.254 340.392C474.254 339.389 474.062 338.536 473.678 337.832C473.294 337.128 472.772 336.584 472.11 336.2C471.449 335.816 470.702 335.624 469.87 335.624C469.038 335.624 468.292 335.816 467.63 336.2C466.969 336.584 466.436 337.128 466.03 337.832C465.646 338.536 465.454 339.389 465.454 340.392C465.454 341.373 465.646 342.227 466.03 342.952C466.436 343.656 466.969 344.2 467.63 344.584C468.292 344.968 469.038 345.16 469.87 345.16ZM494.936 349L489.176 340.84L493.24 338.44L500.824 349H494.936ZM482.744 349V331.784H487.736V349H482.744ZM486.264 342.472V338.472H492.28V342.472H486.264ZM493.72 340.968L489.048 340.456L495.096 331.784H500.408L493.72 340.968ZM511.16 349.256C509.197 349.256 507.469 348.872 505.976 348.104C504.504 347.336 503.362 346.291 502.552 344.968C501.741 343.624 501.336 342.099 501.336 340.392C501.336 338.664 501.73 337.139 502.52 335.816C503.33 334.472 504.429 333.427 505.816 332.68C507.202 331.912 508.77 331.528 510.52 331.528C512.205 331.528 513.72 331.891 515.064 332.616C516.429 333.32 517.506 334.344 518.296 335.688C519.085 337.011 519.48 338.6 519.48 340.456C519.48 340.648 519.469 340.872 519.448 341.128C519.426 341.363 519.405 341.587 519.384 341.8H505.4V338.888H516.76L514.84 339.752C514.84 338.856 514.658 338.077 514.296 337.416C513.933 336.755 513.432 336.243 512.792 335.88C512.152 335.496 511.405 335.304 510.552 335.304C509.698 335.304 508.941 335.496 508.28 335.88C507.64 336.243 507.138 336.765 506.776 337.448C506.413 338.109 506.232 338.899 506.232 339.816V340.584C506.232 341.523 506.434 342.355 506.84 343.08C507.266 343.784 507.853 344.328 508.6 344.712C509.368 345.075 510.264 345.256 511.288 345.256C512.205 345.256 513.005 345.117 513.688 344.84C514.392 344.563 515.032 344.147 515.608 343.592L518.264 346.472C517.474 347.368 516.482 348.061 515.288 348.552C514.093 349.021 512.717 349.256 511.16 349.256ZM523.306 349V331.784H528.266V338.504H535.754V331.784H540.746V349H535.754V342.568H528.266V349H523.306ZM553.589 349.256C551.754 349.256 550.122 348.872 548.693 348.104C547.285 347.336 546.165 346.291 545.333 344.968C544.522 343.624 544.117 342.099 544.117 340.392C544.117 338.664 544.522 337.139 545.333 335.816C546.165 334.472 547.285 333.427 548.693 332.68C550.122 331.912 551.754 331.528 553.589 331.528C555.402 331.528 557.024 331.912 558.453 332.68C559.882 333.427 561.002 334.461 561.813 335.784C562.624 337.107 563.029 338.643 563.029 340.392C563.029 342.099 562.624 343.624 561.813 344.968C561.002 346.291 559.882 347.336 558.453 348.104C557.024 348.872 555.402 349.256 553.589 349.256ZM553.589 345.16C554.421 345.16 555.168 344.968 555.829 344.584C556.49 344.2 557.013 343.656 557.397 342.952C557.781 342.227 557.973 341.373 557.973 340.392C557.973 339.389 557.781 338.536 557.397 337.832C557.013 337.128 556.49 336.584 555.829 336.2C555.168 335.816 554.421 335.624 553.589 335.624C552.757 335.624 552.01 335.816 551.349 336.2C550.688 336.584 550.154 337.128 549.749 337.832C549.365 338.536 549.173 339.389 549.173 340.392C549.173 341.373 549.365 342.227 549.749 342.952C550.154 343.656 550.688 344.2 551.349 344.584C552.01 344.968 552.757 345.16 553.589 345.16ZM566.463 349V331.784H575.263C577.417 331.784 579.103 332.179 580.319 332.968C581.535 333.736 582.142 334.824 582.142 336.232C582.142 337.64 581.567 338.749 580.415 339.56C579.284 340.349 577.78 340.744 575.903 340.744L576.415 339.592C578.505 339.592 580.063 339.976 581.087 340.744C582.132 341.512 582.655 342.632 582.655 344.104C582.655 345.619 582.079 346.813 580.927 347.688C579.775 348.563 578.015 349 575.647 349H566.463ZM571.039 345.608H575.231C576.148 345.608 576.831 345.459 577.279 345.16C577.748 344.84 577.983 344.36 577.983 343.72C577.983 343.059 577.769 342.579 577.343 342.28C576.916 341.96 576.244 341.8 575.327 341.8H571.039V345.608ZM571.039 338.856H574.815C575.689 338.856 576.34 338.696 576.767 338.376C577.215 338.056 577.439 337.597 577.439 337C577.439 336.381 577.215 335.923 576.767 335.624C576.34 335.325 575.689 335.176 574.815 335.176H571.039V338.856Z" fill="white"/>
<path d="M776.604 199.856L766.013 223.155C762.724 223.155 758.991 222.797 755.846 223.579H755L776.604 199.008V199.856Z" fill="#8AB8FE"/>
<path d="M755.849 223.578H766.015C769.64 231.413 772.694 239.278 776.607 246.877V247.725L755 223.578H755.849Z" fill="#4787EA"/>
<path d="M798.21 224.002C798.166 223.8 797.986 223.609 797.786 223.578C794.641 222.799 790.908 223.157 787.619 223.154L777.452 199.855H777.876C784.893 207.587 792.067 215.35 798.648 223.384L798.21 224.002Z" fill="#243FD1"/>
<path d="M797.786 223.579C797.986 223.607 798.163 223.798 798.21 224.003L777.876 246.88H777.452L787.619 223.582C790.598 223.585 795.046 223.185 797.786 223.582V223.579Z" fill="#12209E"/>
<path d="M777.877 199.855H777.452C776.923 199.9 777.045 200.487 777.009 200.887C776.373 207.543 777.034 216.251 777.031 223.156C777.031 223.298 777.031 223.439 777.031 223.581C776.889 223.581 776.748 223.581 776.606 223.581V199.007C777.244 198.948 777.652 199.284 777.877 199.855Z" fill="#697FF4"/>
<path d="M777.452 246.877H777.877C777.66 247.448 777.247 247.814 776.606 247.725V223.578C776.748 223.578 776.889 223.578 777.031 223.578C777.031 230.639 776.471 238.959 777.009 245.848C777.039 246.247 776.928 246.835 777.452 246.879V246.877Z" fill="#596DD7"/>
<path d="M776.604 223.154C773.079 223.154 769.538 223.151 766.013 223.154L776.604 199.855V223.154Z" fill="#4576F2"/>
<path d="M766.016 223.154V223.578H755.849C758.994 222.799 762.726 223.157 766.016 223.154Z" fill="#97BEF8"/>
<path d="M776.604 223.578V246.877C772.694 239.278 769.637 231.413 766.013 223.578C769.538 223.578 773.079 223.578 776.604 223.578Z" fill="#2E5FDB"/>
<path d="M787.619 223.153C784.094 223.15 780.552 223.153 777.027 223.153C777.03 216.247 776.373 207.539 777.005 200.883C777.044 200.487 776.919 199.899 777.449 199.852L787.616 223.15L787.619 223.153Z" fill="#3346F5"/>
<path d="M797.786 223.576C795.046 223.18 790.598 223.579 787.619 223.576V223.152C790.908 223.152 794.641 222.794 797.786 223.576Z" fill="#5667CF"/>
<path d="M787.619 223.579L777.452 246.878C776.927 246.833 777.038 246.246 777.008 245.846C776.47 238.957 777.03 230.637 777.03 223.577C780.555 223.577 784.096 223.571 787.621 223.577L787.619 223.579Z" fill="#1D2DC5"/>
<path d="M776.604 223.154V223.578C773.079 223.578 769.538 223.578 766.013 223.578V223.154C769.538 223.151 773.079 223.154 776.604 223.154Z" fill="#6D92EF"/>
<path d="M787.62 223.154V223.578C784.095 223.572 780.553 223.578 777.028 223.578C777.028 223.436 777.028 223.295 777.028 223.154C780.553 223.154 784.095 223.151 787.62 223.154Z" fill="#606DEA"/>
</g>
<rect x="1.5" y="1.5" width="852" height="428" rx="76.5" stroke="#009D4A" stroke-width="3"/>
<defs>
<clipPath id="clip0_1773_219">
<rect width="855" height="431" rx="78" fill="white"/>
</clipPath>
</defs>
</svg>
