<svg width="1176" height="613" viewBox="0 0 1176 613" fill="none" xmlns="http://www.w3.org/2000/svg">
<mask id="mask0_1789_190" style="mask-type:luminance" maskUnits="userSpaceOnUse" x="19" y="10" width="1138" height="593">
<path d="M1081 10H95C53.0264 10 19 44.0264 19 86V527C19 568.974 53.0264 603 95 603H1081C1122.97 603 1157 568.974 1157 527V86C1157 44.0264 1122.97 10 1081 10Z" fill="white"/>
</mask>
<g mask="url(#mask0_1789_190)">
<path d="M1081 10H95C53.0264 10 19 44.0264 19 86V527C19 568.974 53.0264 603 95 603H1081C1122.97 603 1157 568.974 1157 527V86C1157 44.0264 1122.97 10 1081 10Z" fill="black"/>
<path d="M1081 11.5H95C53.8548 11.5 20.5 44.8548 20.5 86V527C20.5 568.145 53.8548 601.5 95 601.5H1081C1122.15 601.5 1155.5 568.145 1155.5 527V86C1155.5 44.8548 1122.15 11.5 1081 11.5Z" fill="black" stroke="#003E1C" stroke-width="3"/>
<g filter="url(#filter0_f_1789_190)">
<path d="M-15 -54V614.519L220.349 668L188.256 507.556L158.169 253.519L484.448 424.659L580.727 360.482L265.145 90.4H675L626.86 -54H-15Z" fill="#009345" fill-opacity="0.5"/>
<path d="M-15 -54V614.519L220.349 668L188.256 507.556L158.169 253.519L484.448 424.659L580.727 360.482L265.145 90.4H675L626.86 -54H-15Z" stroke="black"/>
</g>
<path d="M135.952 405.999L128.368 395.087L131.728 393.007L140.656 405.999H135.952ZM121.136 405.999V383.599H125.232V405.999H121.136ZM123.984 396.559V392.975H131.536V396.559H123.984ZM132.112 395.279L128.304 394.767L135.952 383.599H140.368L132.112 395.279ZM153.619 405.999V402.543L153.395 401.807V395.759C153.395 394.586 153.043 393.679 152.339 393.039C151.635 392.378 150.568 392.047 149.139 392.047C148.179 392.047 147.229 392.196 146.291 392.495C145.373 392.794 144.595 393.21 143.955 393.743L142.387 390.831C143.304 390.127 144.392 389.604 145.651 389.263C146.931 388.9 148.253 388.719 149.619 388.719C152.093 388.719 154.003 389.316 155.347 390.511C156.712 391.684 157.395 393.508 157.395 395.983V405.999H153.619ZM148.243 406.223C146.963 406.223 145.843 406.01 144.883 405.583C143.923 405.135 143.176 404.527 142.643 403.759C142.131 402.97 141.875 402.084 141.875 401.103C141.875 400.143 142.099 399.279 142.547 398.511C143.016 397.743 143.773 397.135 144.819 396.687C145.864 396.239 147.251 396.015 148.979 396.015H153.939V398.671H149.267C147.901 398.671 146.984 398.895 146.515 399.343C146.045 399.77 145.811 400.303 145.811 400.943C145.811 401.668 146.099 402.244 146.675 402.671C147.251 403.098 148.051 403.311 149.075 403.311C150.056 403.311 150.931 403.087 151.699 402.639C152.488 402.191 153.053 401.53 153.395 400.655L154.067 403.055C153.683 404.058 152.989 404.836 151.987 405.391C151.005 405.946 149.757 406.223 148.243 406.223ZM182.728 405.999L177.736 397.807L181 395.791L187.496 405.999H182.728ZM174.504 399.151V395.823H180.232V399.151H174.504ZM181.384 397.935L177.608 397.487L182.792 388.911H187.048L181.384 397.935ZM164.68 405.999H159.944L166.408 395.791L169.672 397.807L164.68 405.999ZM175.688 405.999H171.72V388.911H175.688V405.999ZM172.904 399.151H167.208V395.823H172.904V399.151ZM166.024 397.935L160.36 388.911H164.616L169.768 397.487L166.024 397.935ZM202.181 404.143V392.303H195.621L195.525 395.055C195.483 396.036 195.419 396.986 195.333 397.903C195.248 398.799 195.109 399.631 194.917 400.399C194.725 401.146 194.448 401.764 194.085 402.255C193.723 402.746 193.243 403.066 192.645 403.215L188.677 402.607C189.317 402.607 189.829 402.404 190.213 401.999C190.619 401.572 190.928 400.996 191.141 400.271C191.376 399.524 191.547 398.682 191.653 397.743C191.76 396.783 191.835 395.791 191.877 394.767L192.101 388.911H206.181V404.143H202.181ZM188.069 409.807V402.607H208.709V409.807H204.965V405.999H191.781V409.807H188.069ZM229.53 405.999V388.911H233.53V405.999H229.53ZM220.602 394.543C222.799 394.543 224.463 395.034 225.594 396.015C226.746 396.996 227.322 398.383 227.322 400.175C227.322 402.031 226.682 403.482 225.402 404.527C224.143 405.551 222.351 406.052 220.026 406.031L212.282 405.999V388.911H216.282V394.511L220.602 394.543ZM219.674 403.087C220.847 403.108 221.743 402.863 222.362 402.351C222.98 401.839 223.29 401.092 223.29 400.111C223.29 399.13 222.98 398.426 222.362 397.999C221.764 397.551 220.868 397.316 219.674 397.295L216.282 397.263V403.055L219.674 403.087ZM238.907 405.999V388.911H242.907V400.175L252.347 388.911H255.995V405.999H251.995V394.735L242.587 405.999H238.907ZM247.195 386.895C245.488 386.895 244.176 386.5 243.259 385.711C242.341 384.9 241.872 383.727 241.851 382.191H244.507C244.528 382.959 244.763 383.567 245.211 384.015C245.68 384.463 246.331 384.687 247.163 384.687C247.973 384.687 248.613 384.463 249.083 384.015C249.573 383.567 249.829 382.959 249.851 382.191H252.571C252.549 383.727 252.069 384.9 251.131 385.711C250.213 386.5 248.901 386.895 247.195 386.895ZM270.219 405.999V388.911H274.219V395.855H282.827V388.911H286.827V405.999H282.827V399.247H274.219V405.999H270.219ZM302.556 405.999V402.543L302.332 401.807V395.759C302.332 394.586 301.98 393.679 301.276 393.039C300.572 392.378 299.505 392.047 298.076 392.047C297.116 392.047 296.167 392.196 295.228 392.495C294.311 392.794 293.532 393.21 292.892 393.743L291.324 390.831C292.241 390.127 293.329 389.604 294.588 389.263C295.868 388.9 297.191 388.719 298.556 388.719C301.031 388.719 302.94 389.316 304.284 390.511C305.649 391.684 306.332 393.508 306.332 395.983V405.999H302.556ZM297.18 406.223C295.9 406.223 294.78 406.01 293.82 405.583C292.86 405.135 292.113 404.527 291.58 403.759C291.068 402.97 290.812 402.084 290.812 401.103C290.812 400.143 291.036 399.279 291.484 398.511C291.953 397.743 292.711 397.135 293.756 396.687C294.801 396.239 296.188 396.015 297.916 396.015H302.876V398.671H298.204C296.839 398.671 295.921 398.895 295.452 399.343C294.983 399.77 294.748 400.303 294.748 400.943C294.748 401.668 295.036 402.244 295.612 402.671C296.188 403.098 296.988 403.311 298.012 403.311C298.993 403.311 299.868 403.087 300.636 402.639C301.425 402.191 301.991 401.53 302.332 400.655L303.004 403.055C302.62 404.058 301.927 404.836 300.924 405.391C299.943 405.946 298.695 406.223 297.18 406.223ZM322.77 402.607L321.906 403.567V388.911H325.906V403.567L324.946 402.607H333.394L332.466 403.567V388.911H336.466V405.999H311.282V388.911H315.282V403.567L314.354 402.607H322.77ZM350.688 405.999V388.911H367.072V405.999H363.104V391.375L364.032 392.303H353.76L354.688 391.375V405.999H350.688ZM380.085 406.223C378.336 406.223 376.779 405.85 375.413 405.103C374.048 404.335 372.971 403.29 372.181 401.967C371.392 400.644 370.997 399.14 370.997 397.455C370.997 395.748 371.392 394.244 372.181 392.943C372.971 391.62 374.048 390.586 375.413 389.839C376.779 389.092 378.336 388.719 380.085 388.719C381.856 388.719 383.424 389.092 384.789 389.839C386.176 390.586 387.253 391.61 388.021 392.911C388.811 394.212 389.205 395.727 389.205 397.455C389.205 399.14 388.811 400.644 388.021 401.967C387.253 403.29 386.176 404.335 384.789 405.103C383.424 405.85 381.856 406.223 380.085 406.223ZM380.085 402.799C381.067 402.799 381.941 402.586 382.709 402.159C383.477 401.732 384.075 401.114 384.501 400.303C384.949 399.492 385.173 398.543 385.173 397.455C385.173 396.346 384.949 395.396 384.501 394.607C384.075 393.796 383.477 393.178 382.709 392.751C381.941 392.324 381.077 392.111 380.117 392.111C379.136 392.111 378.261 392.324 377.493 392.751C376.747 393.178 376.149 393.796 375.701 394.607C375.253 395.396 375.029 396.346 375.029 397.455C375.029 398.543 375.253 399.492 375.701 400.303C376.149 401.114 376.747 401.732 377.493 402.159C378.261 402.586 379.125 402.799 380.085 402.799ZM404.681 404.143V392.303H398.121L398.025 395.055C397.983 396.036 397.919 396.986 397.833 397.903C397.748 398.799 397.609 399.631 397.417 400.399C397.225 401.146 396.948 401.764 396.585 402.255C396.223 402.746 395.743 403.066 395.145 403.215L391.177 402.607C391.817 402.607 392.329 402.404 392.713 401.999C393.119 401.572 393.428 400.996 393.641 400.271C393.876 399.524 394.047 398.682 394.153 397.743C394.26 396.783 394.335 395.791 394.377 394.767L394.601 388.911H408.681V404.143H404.681ZM390.569 409.807V402.607H411.209V409.807H407.465V405.999H394.281V409.807H390.569ZM414.782 405.999V388.911H431.166V405.999H427.198V391.375L428.126 392.303H417.854L418.782 391.375V405.999H414.782ZM436.563 405.999V388.911H440.563V400.175L450.003 388.911H453.651V405.999H449.651V394.735L440.243 405.999H436.563ZM466.808 406.223C465.016 406.223 463.416 405.85 462.008 405.103C460.621 404.335 459.533 403.29 458.744 401.967C457.954 400.644 457.56 399.14 457.56 397.455C457.56 395.748 457.954 394.244 458.744 392.943C459.533 391.62 460.621 390.586 462.008 389.839C463.416 389.092 465.016 388.719 466.808 388.719C468.472 388.719 469.933 389.06 471.192 389.743C472.472 390.404 473.442 391.386 474.104 392.687L471.032 394.479C470.52 393.668 469.89 393.071 469.144 392.687C468.418 392.303 467.629 392.111 466.776 392.111C465.794 392.111 464.909 392.324 464.12 392.751C463.33 393.178 462.712 393.796 462.264 394.607C461.816 395.396 461.592 396.346 461.592 397.455C461.592 398.564 461.816 399.524 462.264 400.335C462.712 401.124 463.33 401.732 464.12 402.159C464.909 402.586 465.794 402.799 466.776 402.799C467.629 402.799 468.418 402.607 469.144 402.223C469.89 401.839 470.52 401.242 471.032 400.431L474.104 402.223C473.442 403.503 472.472 404.495 471.192 405.199C469.933 405.882 468.472 406.223 466.808 406.223ZM488.41 399.247C487.599 399.631 486.735 399.951 485.818 400.207C484.922 400.442 483.972 400.559 482.97 400.559C480.815 400.559 479.14 400.058 477.946 399.055C476.751 398.052 476.154 396.495 476.154 394.383V388.911H480.154V394.127C480.154 395.258 480.474 396.079 481.114 396.591C481.775 397.103 482.682 397.359 483.834 397.359C484.602 397.359 485.37 397.263 486.138 397.071C486.906 396.879 487.663 396.612 488.41 396.271V399.247ZM488.122 405.999V388.911H492.122V405.999H488.122ZM497.501 405.999V388.911H501.501V400.175L510.941 388.911H514.589V405.999H510.589V394.735L501.181 405.999H497.501ZM532.225 405.999L526.049 397.807L529.313 395.791L536.929 405.999H532.225ZM519.969 405.999V388.911H523.969V405.999H519.969ZM522.785 399.151V395.823H528.577V399.151H522.785ZM529.697 397.935L525.953 397.487L532.225 388.911H536.513L529.697 397.935ZM559.442 405.999V400.175L560.018 400.847H554.898C552.552 400.847 550.706 400.356 549.362 399.375C548.04 398.372 547.378 396.932 547.378 395.055C547.378 393.05 548.082 391.524 549.49 390.479C550.92 389.434 552.818 388.911 555.186 388.911H563.026V405.999H559.442ZM547.154 405.999L551.762 399.471H555.858L551.442 405.999H547.154ZM559.442 398.895V391.215L560.018 392.271H555.314C554.077 392.271 553.117 392.506 552.434 392.975C551.773 393.423 551.442 394.159 551.442 395.183C551.442 397.103 552.69 398.063 555.186 398.063H560.018L559.442 398.895ZM568.407 405.999V388.911H576.759C578.828 388.911 580.449 389.295 581.623 390.063C582.817 390.831 583.415 391.919 583.415 393.327C583.415 394.714 582.86 395.802 581.751 396.591C580.641 397.359 579.169 397.743 577.335 397.743L577.815 396.751C579.884 396.751 581.42 397.135 582.423 397.903C583.447 398.65 583.959 399.748 583.959 401.199C583.959 402.714 583.393 403.898 582.263 404.751C581.132 405.583 579.415 405.999 577.111 405.999H568.407ZM572.215 403.087H576.791C577.879 403.087 578.7 402.916 579.255 402.575C579.809 402.212 580.087 401.668 580.087 400.943C580.087 400.175 579.831 399.61 579.319 399.247C578.807 398.884 578.007 398.703 576.919 398.703H572.215V403.087ZM572.215 396.047H576.407C577.431 396.047 578.199 395.866 578.711 395.503C579.244 395.119 579.511 394.586 579.511 393.903C579.511 393.199 579.244 392.676 578.711 392.335C578.199 391.994 577.431 391.823 576.407 391.823H572.215V396.047ZM585.723 405.967L585.915 402.607C586.065 402.628 586.203 402.65 586.331 402.671C586.459 402.692 586.577 402.703 586.683 402.703C587.345 402.703 587.857 402.5 588.219 402.095C588.582 401.69 588.849 401.146 589.019 400.463C589.211 399.759 589.339 398.98 589.403 398.127C589.489 397.252 589.553 396.378 589.595 395.503L589.883 388.911H603.707V405.999H599.707V391.215L600.635 392.303H592.507L593.371 391.183L593.147 395.695C593.083 397.21 592.955 398.618 592.763 399.919C592.593 401.199 592.315 402.319 591.931 403.279C591.569 404.239 591.057 404.986 590.395 405.519C589.755 406.052 588.934 406.319 587.931 406.319C587.611 406.319 587.259 406.287 586.875 406.223C586.513 406.159 586.129 406.074 585.723 405.967ZM619.942 405.999V400.175L620.518 400.847H615.398C613.052 400.847 611.206 400.356 609.862 399.375C608.54 398.372 607.878 396.932 607.878 395.055C607.878 393.05 608.582 391.524 609.99 390.479C611.42 389.434 613.318 388.911 615.686 388.911H623.526V405.999H619.942ZM607.654 405.999L612.262 399.471H616.358L611.942 405.999H607.654ZM619.942 398.895V391.215L620.518 392.271H615.814C614.577 392.271 613.617 392.506 612.934 392.975C612.273 393.423 611.942 394.159 611.942 395.183C611.942 397.103 613.19 398.063 615.686 398.063H620.518L619.942 398.895ZM636.875 406.223C634.976 406.223 633.312 405.85 631.883 405.103C630.475 404.335 629.376 403.29 628.587 401.967C627.819 400.644 627.435 399.14 627.435 397.455C627.435 395.748 627.808 394.244 628.555 392.943C629.323 391.62 630.368 390.586 631.691 389.839C633.035 389.092 634.56 388.719 636.267 388.719C637.931 388.719 639.413 389.082 640.715 389.807C642.016 390.532 643.039 391.556 643.786 392.879C644.532 394.202 644.906 395.759 644.906 397.551C644.906 397.722 644.896 397.914 644.875 398.127C644.875 398.34 644.864 398.543 644.843 398.735H630.603V396.079H642.731L641.163 396.911C641.184 395.93 640.981 395.066 640.555 394.319C640.128 393.572 639.541 392.986 638.795 392.559C638.069 392.132 637.227 391.919 636.267 391.919C635.285 391.919 634.421 392.132 633.675 392.559C632.949 392.986 632.373 393.583 631.947 394.351C631.541 395.098 631.339 395.983 631.339 397.007V397.647C631.339 398.671 631.573 399.578 632.043 400.367C632.512 401.156 633.172 401.764 634.026 402.191C634.879 402.618 635.861 402.831 636.971 402.831C637.931 402.831 638.794 402.682 639.562 402.383C640.331 402.084 641.013 401.615 641.611 400.975L643.755 403.439C642.987 404.335 642.016 405.028 640.843 405.519C639.691 405.988 638.368 406.223 636.875 406.223ZM652.177 405.999V391.343L653.106 392.303H646.161V388.911H662.161V392.303H655.25L656.177 391.343V405.999H652.177ZM672.089 406.223C670.297 406.223 668.697 405.85 667.289 405.103C665.902 404.335 664.814 403.29 664.025 401.967C663.236 400.644 662.841 399.14 662.841 397.455C662.841 395.748 663.236 394.244 664.025 392.943C664.814 391.62 665.902 390.586 667.289 389.839C668.697 389.092 670.297 388.719 672.089 388.719C673.753 388.719 675.214 389.06 676.473 389.743C677.753 390.404 678.724 391.386 679.385 392.687L676.312 394.479C675.8 393.668 675.172 393.071 674.425 392.687C673.7 392.303 672.91 392.111 672.057 392.111C671.076 392.111 670.19 392.324 669.401 392.751C668.612 393.178 667.993 393.796 667.545 394.607C667.097 395.396 666.873 396.346 666.873 397.455C666.873 398.564 667.097 399.524 667.545 400.335C667.993 401.124 668.612 401.732 669.401 402.159C670.19 402.586 671.076 402.799 672.057 402.799C672.91 402.799 673.7 402.607 674.425 402.223C675.172 401.839 675.8 401.242 676.312 400.431L679.385 402.223C678.724 403.503 677.753 404.495 676.473 405.199C675.214 405.882 673.753 406.223 672.089 406.223ZM693.286 405.999V400.175L693.862 400.847H688.742C686.395 400.847 684.55 400.356 683.206 399.375C681.883 398.372 681.222 396.932 681.222 395.055C681.222 393.05 681.925 391.524 683.333 390.479C684.762 389.434 686.662 388.911 689.03 388.911H696.87V405.999H693.286ZM680.998 405.999L685.606 399.471H689.702L685.286 405.999H680.998ZM693.286 398.895V391.215L693.862 392.271H689.158C687.921 392.271 686.961 392.506 686.278 392.975C685.617 393.423 685.286 394.159 685.286 395.183C685.286 397.103 686.534 398.063 689.03 398.063H693.862L693.286 398.895ZM711.094 405.999V388.911H715.286L722.166 401.039H720.502L727.734 388.911H731.478L731.51 405.999H727.894V393.199L728.534 393.615L722.134 404.207H720.406L713.974 393.327L714.742 393.135V405.999H711.094ZM747.244 405.999V402.543L747.02 401.807V395.759C747.02 394.586 746.668 393.679 745.964 393.039C745.26 392.378 744.193 392.047 742.764 392.047C741.804 392.047 740.854 392.196 739.916 392.495C738.998 392.794 738.22 393.21 737.58 393.743L736.012 390.831C736.929 390.127 738.017 389.604 739.276 389.263C740.556 388.9 741.878 388.719 743.244 388.719C745.718 388.719 747.628 389.316 748.972 390.511C750.337 391.684 751.02 393.508 751.02 395.983V405.999H747.244ZM741.868 406.223C740.588 406.223 739.468 406.01 738.508 405.583C737.548 405.135 736.801 404.527 736.268 403.759C735.756 402.97 735.5 402.084 735.5 401.103C735.5 400.143 735.724 399.279 736.172 398.511C736.641 397.743 737.397 397.135 738.443 396.687C739.488 396.239 740.876 396.015 742.604 396.015H747.564V398.671H742.892C741.526 398.671 740.609 398.895 740.14 399.343C739.67 399.77 739.436 400.303 739.436 400.943C739.436 401.668 739.724 402.244 740.3 402.671C740.876 403.098 741.676 403.311 742.7 403.311C743.681 403.311 744.555 403.087 745.323 402.639C746.112 402.191 746.678 401.53 747.02 400.655L747.692 403.055C747.308 404.058 746.614 404.836 745.612 405.391C744.63 405.946 743.382 406.223 741.868 406.223ZM753.473 405.967L753.665 402.607C753.815 402.628 753.953 402.65 754.081 402.671C754.209 402.692 754.326 402.703 754.432 402.703C755.094 402.703 755.607 402.5 755.969 402.095C756.332 401.69 756.599 401.146 756.769 400.463C756.961 399.759 757.089 398.98 757.153 398.127C757.239 397.252 757.302 396.378 757.344 395.503L757.633 388.911H771.457V405.999H767.457V391.215L768.385 392.303H760.257L761.12 391.183L760.896 395.695C760.832 397.21 760.705 398.618 760.513 399.919C760.343 401.199 760.065 402.319 759.681 403.279C759.319 404.239 758.807 404.986 758.145 405.519C757.505 406.052 756.684 406.319 755.681 406.319C755.361 406.319 755.009 406.287 754.625 406.223C754.263 406.159 753.879 406.074 753.473 405.967ZM784.812 406.223C782.914 406.223 781.25 405.85 779.82 405.103C778.412 404.335 777.314 403.29 776.524 401.967C775.756 400.644 775.372 399.14 775.372 397.455C775.372 395.748 775.746 394.244 776.492 392.943C777.26 391.62 778.306 390.586 779.628 389.839C780.972 389.092 782.497 388.719 784.203 388.719C785.867 388.719 787.35 389.082 788.651 389.807C789.953 390.532 790.978 391.556 791.724 392.879C792.471 394.202 792.844 395.759 792.844 397.551C792.844 397.722 792.834 397.914 792.812 398.127C792.812 398.34 792.802 398.543 792.78 398.735H778.54V396.079H790.668L789.099 396.911C789.121 395.93 788.919 395.066 788.492 394.319C788.066 393.572 787.479 392.986 786.732 392.559C786.007 392.132 785.163 391.919 784.203 391.919C783.222 391.919 782.359 392.132 781.612 392.559C780.887 392.986 780.311 393.583 779.884 394.351C779.479 395.098 779.276 395.983 779.276 397.007V397.647C779.276 398.671 779.51 399.578 779.979 400.367C780.449 401.156 781.111 401.764 781.964 402.191C782.818 402.618 783.799 402.831 784.908 402.831C785.868 402.831 786.732 402.682 787.5 402.383C788.268 402.084 788.95 401.615 789.547 400.975L791.692 403.439C790.924 404.335 789.954 405.028 788.78 405.519C787.628 405.988 786.306 406.223 784.812 406.223ZM797.219 405.999V388.911H801.219V395.855H809.827V388.911H813.827V405.999H809.827V399.247H801.219V405.999H797.219ZM827.764 394.543C829.961 394.543 831.636 395.034 832.788 396.015C833.94 396.996 834.516 398.383 834.516 400.175C834.516 402.031 833.876 403.482 832.596 404.527C831.316 405.551 829.513 406.052 827.188 406.031L819.188 405.999V388.911H823.188V394.511L827.764 394.543ZM826.836 403.087C828.009 403.108 828.905 402.863 829.524 402.351C830.143 401.839 830.452 401.092 830.452 400.111C830.452 399.13 830.143 398.426 829.524 397.999C828.927 397.551 828.031 397.316 826.836 397.295L823.188 397.263V403.055L826.836 403.087ZM850.288 405.999L844.112 397.807L847.375 395.791L854.992 405.999H850.288ZM838.031 405.999V388.911H842.031V405.999H838.031ZM840.848 399.151V395.823H846.64V399.151H840.848ZM847.76 397.935L844.016 397.487L850.288 388.911H854.576L847.76 397.935ZM857.812 405.999V388.911H861.812V400.175L871.253 388.911H874.901V405.999H870.901V394.735L861.493 405.999H857.812ZM880.281 405.999V388.911H884.474L891.354 401.039H889.69L896.922 388.911H900.666L900.698 405.999H897.082V393.199L897.722 393.615L891.322 404.207H889.594L883.161 393.327L883.93 393.135V405.999H880.281ZM914.906 405.999V388.911H923.259C925.328 388.911 926.949 389.295 928.123 390.063C929.317 390.831 929.915 391.919 929.915 393.327C929.915 394.714 929.359 395.802 928.25 396.591C927.14 397.359 925.669 397.743 923.835 397.743L924.315 396.751C926.384 396.751 927.919 397.135 928.922 397.903C929.946 398.65 930.458 399.748 930.458 401.199C930.458 402.714 929.893 403.898 928.763 404.751C927.632 405.583 925.915 405.999 923.611 405.999H914.906ZM918.715 403.087H923.291C924.379 403.087 925.2 402.916 925.755 402.575C926.309 402.212 926.587 401.668 926.587 400.943C926.587 400.175 926.33 399.61 925.818 399.247C925.306 398.884 924.507 398.703 923.419 398.703H918.715V403.087ZM918.715 396.047H922.906C923.93 396.047 924.699 395.866 925.211 395.503C925.744 395.119 926.01 394.586 926.01 393.903C926.01 393.199 925.744 392.676 925.211 392.335C924.699 391.994 923.93 391.823 922.906 391.823H918.715V396.047ZM934.719 405.999V388.911H938.719V400.175L948.159 388.911H951.807V405.999H947.807V394.735L938.399 405.999H934.719ZM957.188 405.999V388.911H961.188V395.855H969.796V388.911H973.796V405.999H969.796V399.247H961.188V405.999H957.188ZM982.708 405.999V391.343L983.637 392.303H976.693V388.911H992.693V392.303H985.781L986.708 391.343V405.999H982.708ZM995.594 405.999V388.911H999.594V400.175L1009.03 388.911H1012.68V405.999H1008.68V394.735L999.274 405.999H995.594ZM1030.32 405.999L1024.14 397.807L1027.41 395.791L1035.02 405.999H1030.32ZM1018.06 405.999V388.911H1022.06V405.999H1018.06ZM1020.88 399.151V395.823H1026.67V399.151H1020.88ZM1027.79 397.935L1024.05 397.487L1030.32 388.911H1034.61L1027.79 397.935ZM1044.9 406.223C1043.15 406.223 1041.59 405.85 1040.23 405.103C1038.86 404.335 1037.78 403.29 1036.99 401.967C1036.2 400.644 1035.81 399.14 1035.81 397.455C1035.81 395.748 1036.2 394.244 1036.99 392.943C1037.78 391.62 1038.86 390.586 1040.23 389.839C1041.59 389.092 1043.15 388.719 1044.9 388.719C1046.67 388.719 1048.24 389.092 1049.6 389.839C1050.99 390.586 1052.07 391.61 1052.83 392.911C1053.62 394.212 1054.02 395.727 1054.02 397.455C1054.02 399.14 1053.62 400.644 1052.83 401.967C1052.07 403.29 1050.99 404.335 1049.6 405.103C1048.24 405.85 1046.67 406.223 1044.9 406.223ZM1044.9 402.799C1045.88 402.799 1046.75 402.586 1047.52 402.159C1048.29 401.732 1048.89 401.114 1049.31 400.303C1049.76 399.492 1049.99 398.543 1049.99 397.455C1049.99 396.346 1049.76 395.396 1049.31 394.607C1048.89 393.796 1048.29 393.178 1047.52 392.751C1046.75 392.324 1045.89 392.111 1044.93 392.111C1043.95 392.111 1043.07 392.324 1042.31 392.751C1041.56 393.178 1040.96 393.796 1040.51 394.607C1040.07 395.396 1039.84 396.346 1039.84 397.455C1039.84 398.543 1040.07 399.492 1040.51 400.303C1040.96 401.114 1041.56 401.732 1042.31 402.159C1043.07 402.586 1043.94 402.799 1044.9 402.799ZM1057.97 405.999V388.911H1062.16L1069.04 401.039H1067.38L1074.61 388.911H1078.35L1078.39 405.999H1074.77V393.199L1075.41 393.615L1069.01 404.207H1067.28L1060.85 393.327L1061.62 393.135V405.999H1057.97ZM128.848 450.319C127.44 450.319 126.181 450.106 125.072 449.679C123.963 449.252 123.003 448.602 122.192 447.727C121.403 446.831 120.795 445.7 120.368 444.335C119.941 442.97 119.728 441.348 119.728 439.471C119.728 438.106 119.845 436.858 120.08 435.727C120.315 434.596 120.667 433.583 121.136 432.687C121.605 431.77 122.192 430.959 122.896 430.255C123.621 429.551 124.464 428.964 125.424 428.495C126.384 428.026 127.472 427.663 128.688 427.407L136.624 425.711L137.2 429.295L130 430.767C129.595 430.852 129.104 430.98 128.528 431.151C127.973 431.3 127.397 431.535 126.8 431.855C126.224 432.154 125.68 432.591 125.168 433.167C124.677 433.722 124.272 434.447 123.952 435.343C123.653 436.218 123.504 437.316 123.504 438.639C123.504 439.044 123.515 439.354 123.536 439.567C123.579 439.759 123.611 439.972 123.632 440.207C123.675 440.42 123.696 440.74 123.696 441.167L122.192 439.599C122.619 438.511 123.205 437.583 123.952 436.815C124.72 436.026 125.605 435.428 126.608 435.023C127.632 434.596 128.741 434.383 129.936 434.383C131.536 434.383 132.955 434.714 134.192 435.375C135.429 436.036 136.4 436.964 137.104 438.159C137.808 439.354 138.16 440.708 138.16 442.223C138.16 443.802 137.776 445.199 137.008 446.415C136.24 447.631 135.152 448.591 133.744 449.295C132.357 449.978 130.725 450.319 128.848 450.319ZM129.168 447.087C130.128 447.087 130.971 446.884 131.696 446.479C132.443 446.052 133.019 445.476 133.424 444.751C133.851 444.026 134.064 443.215 134.064 442.319C134.064 441.423 133.851 440.644 133.424 439.983C133.019 439.3 132.443 438.756 131.696 438.351C130.971 437.946 130.107 437.743 129.104 437.743C128.144 437.743 127.28 437.935 126.512 438.319C125.765 438.703 125.179 439.236 124.752 439.919C124.347 440.58 124.144 441.348 124.144 442.223C124.144 443.119 124.357 443.94 124.784 444.687C125.211 445.434 125.797 446.02 126.544 446.447C127.312 446.874 128.187 447.087 129.168 447.087ZM149.648 450.223C147.898 450.223 146.341 449.85 144.976 449.103C143.61 448.335 142.533 447.29 141.744 445.967C140.954 444.644 140.56 443.14 140.56 441.455C140.56 439.748 140.954 438.244 141.744 436.943C142.533 435.62 143.61 434.586 144.976 433.839C146.341 433.092 147.898 432.719 149.648 432.719C151.418 432.719 152.986 433.092 154.352 433.839C155.738 434.586 156.816 435.61 157.584 436.911C158.373 438.212 158.768 439.727 158.768 441.455C158.768 443.14 158.373 444.644 157.584 445.967C156.816 447.29 155.738 448.335 154.352 449.103C152.986 449.85 151.418 450.223 149.648 450.223ZM149.648 446.799C150.629 446.799 151.504 446.586 152.272 446.159C153.04 445.732 153.637 445.114 154.064 444.303C154.512 443.492 154.736 442.543 154.736 441.455C154.736 440.346 154.512 439.396 154.064 438.607C153.637 437.796 153.04 437.178 152.272 436.751C151.504 436.324 150.64 436.111 149.68 436.111C148.698 436.111 147.824 436.324 147.056 436.751C146.309 437.178 145.712 437.796 145.264 438.607C144.816 439.396 144.592 440.346 144.592 441.455C144.592 442.543 144.816 443.492 145.264 444.303C145.712 445.114 146.309 445.732 147.056 446.159C147.824 446.586 148.688 446.799 149.648 446.799ZM160.036 449.967L160.228 446.607C160.377 446.628 160.516 446.65 160.644 446.671C160.772 446.692 160.889 446.703 160.996 446.703C161.657 446.703 162.169 446.5 162.532 446.095C162.894 445.69 163.161 445.146 163.332 444.463C163.524 443.759 163.652 442.98 163.716 442.127C163.801 441.252 163.865 440.378 163.908 439.503L164.196 432.911H178.02V449.999H174.02V435.215L174.948 436.303H166.82L167.684 435.183L167.46 439.695C167.396 441.21 167.268 442.618 167.076 443.919C166.905 445.199 166.628 446.319 166.244 447.279C165.881 448.239 165.369 448.986 164.708 449.519C164.068 450.052 163.246 450.319 162.244 450.319C161.924 450.319 161.572 450.287 161.188 450.223C160.825 450.159 160.441 450.074 160.036 449.967ZM191.983 438.543C194.18 438.543 195.855 439.034 197.007 440.015C198.159 440.996 198.735 442.383 198.735 444.175C198.735 446.031 198.095 447.482 196.815 448.527C195.535 449.551 193.732 450.052 191.407 450.031L183.407 449.999V432.911H187.407V438.511L191.983 438.543ZM191.055 447.087C192.228 447.108 193.124 446.863 193.743 446.351C194.361 445.839 194.671 445.092 194.671 444.111C194.671 443.13 194.361 442.426 193.743 441.999C193.145 441.551 192.249 441.316 191.055 441.295L187.407 441.263V447.055L191.055 447.087ZM213.739 446.607L212.875 447.567V432.911H216.875V447.567L215.915 446.607H224.363L223.435 447.567V432.911H227.435V449.999H202.251V432.911H206.251V447.567L205.323 446.607H213.739ZM240.429 450.223C238.68 450.223 237.122 449.85 235.757 449.103C234.392 448.335 233.314 447.29 232.525 445.967C231.736 444.644 231.341 443.14 231.341 441.455C231.341 439.748 231.736 438.244 232.525 436.943C233.314 435.62 234.392 434.586 235.757 433.839C237.122 433.092 238.68 432.719 240.429 432.719C242.2 432.719 243.768 433.092 245.133 433.839C246.52 434.586 247.597 435.61 248.365 436.911C249.154 438.212 249.549 439.727 249.549 441.455C249.549 443.14 249.154 444.644 248.365 445.967C247.597 447.29 246.52 448.335 245.133 449.103C243.768 449.85 242.2 450.223 240.429 450.223ZM240.429 446.799C241.41 446.799 242.285 446.586 243.053 446.159C243.821 445.732 244.418 445.114 244.845 444.303C245.293 443.492 245.517 442.543 245.517 441.455C245.517 440.346 245.293 439.396 244.845 438.607C244.418 437.796 243.821 437.178 243.053 436.751C242.285 436.324 241.421 436.111 240.461 436.111C239.48 436.111 238.605 436.324 237.837 436.751C237.09 437.178 236.493 437.796 236.045 438.607C235.597 439.396 235.373 440.346 235.373 441.455C235.373 442.543 235.597 443.492 236.045 444.303C236.493 445.114 237.09 445.732 237.837 446.159C238.605 446.586 239.469 446.799 240.429 446.799ZM253.501 449.999V432.911H257.501V444.175L266.941 432.911H270.589V449.999H266.589V438.735L257.181 449.999H253.501ZM261.789 430.895C260.082 430.895 258.77 430.5 257.853 429.711C256.935 428.9 256.466 427.727 256.445 426.191H259.101C259.122 426.959 259.357 427.567 259.805 428.015C260.274 428.463 260.925 428.687 261.757 428.687C262.567 428.687 263.207 428.463 263.677 428.015C264.167 427.567 264.423 426.959 264.445 426.191H267.165C267.143 427.727 266.663 428.9 265.725 429.711C264.807 430.5 263.495 430.895 261.789 430.895ZM284.813 449.999V432.911H288.813V446.607H296.973V432.911H300.973V449.999H284.813ZM299.821 453.807V449.903L300.749 449.999H296.973V446.607H303.565V453.807H299.821ZM315.094 450.223C313.195 450.223 311.531 449.85 310.102 449.103C308.694 448.335 307.595 447.29 306.806 445.967C306.038 444.644 305.654 443.14 305.654 441.455C305.654 439.748 306.027 438.244 306.774 436.943C307.542 435.62 308.587 434.586 309.91 433.839C311.254 433.092 312.779 432.719 314.486 432.719C316.15 432.719 317.632 433.082 318.934 433.807C320.235 434.532 321.259 435.556 322.006 436.879C322.752 438.202 323.126 439.759 323.126 441.551C323.126 441.722 323.115 441.914 323.094 442.127C323.094 442.34 323.083 442.543 323.062 442.735H308.822V440.079H320.95L319.382 440.911C319.403 439.93 319.2 439.066 318.774 438.319C318.347 437.572 317.76 436.986 317.014 436.559C316.288 436.132 315.446 435.919 314.486 435.919C313.504 435.919 312.64 436.132 311.894 436.559C311.168 436.986 310.592 437.583 310.166 438.351C309.76 439.098 309.558 439.983 309.558 441.007V441.647C309.558 442.671 309.792 443.578 310.262 444.367C310.731 445.156 311.392 445.764 312.246 446.191C313.099 446.618 314.08 446.831 315.19 446.831C316.15 446.831 317.014 446.682 317.782 446.383C318.55 446.084 319.232 445.615 319.83 444.975L321.974 447.439C321.206 448.335 320.235 449.028 319.062 449.519C317.91 449.988 316.587 450.223 315.094 450.223ZM327.501 449.999V432.911H343.885V449.999H339.917V435.375L340.845 436.303H330.573L331.501 435.375V449.999H327.501ZM349.282 449.999V432.911H353.282V444.175L362.722 432.911H366.37V449.999H362.37V438.735L352.962 449.999H349.282ZM370.631 454.831L372.487 447.759L373.031 450.127C372.284 450.127 371.655 449.903 371.143 449.455C370.652 448.986 370.407 448.356 370.407 447.567C370.407 446.756 370.652 446.116 371.143 445.647C371.655 445.156 372.273 444.911 372.999 444.911C373.745 444.911 374.364 445.156 374.855 445.647C375.345 446.138 375.591 446.778 375.591 447.567C375.591 447.78 375.569 448.015 375.527 448.271C375.484 448.506 375.409 448.783 375.303 449.103C375.217 449.423 375.068 449.828 374.855 450.319L373.223 454.831H370.631ZM388.407 449.999V432.911H401.527V436.303H391.479L392.407 435.407V449.999H388.407ZM414.994 448.143V436.303H408.434L408.338 439.055C408.295 440.036 408.231 440.986 408.146 441.903C408.06 442.799 407.922 443.631 407.73 444.399C407.538 445.146 407.26 445.764 406.898 446.255C406.535 446.746 406.055 447.066 405.458 447.215L401.49 446.607C402.13 446.607 402.642 446.404 403.026 445.999C403.431 445.572 403.74 444.996 403.954 444.271C404.188 443.524 404.359 442.682 404.466 441.743C404.572 440.783 404.647 439.791 404.69 438.767L404.914 432.911H418.994V448.143H414.994ZM400.882 453.807V446.607H421.522V453.807H417.778V449.999H404.594V453.807H400.882ZM433.062 450.223C431.164 450.223 429.5 449.85 428.07 449.103C426.662 448.335 425.564 447.29 424.774 445.967C424.006 444.644 423.622 443.14 423.622 441.455C423.622 439.748 423.996 438.244 424.742 436.943C425.51 435.62 426.556 434.586 427.878 433.839C429.222 433.092 430.748 432.719 432.454 432.719C434.118 432.719 435.601 433.082 436.902 433.807C438.204 434.532 439.228 435.556 439.974 436.879C440.721 438.202 441.094 439.759 441.094 441.551C441.094 441.722 441.084 441.914 441.062 442.127C441.062 442.34 441.052 442.543 441.03 442.735H426.79V440.079H438.918L437.35 440.911C437.372 439.93 437.169 439.066 436.742 438.319C436.316 437.572 435.729 436.986 434.982 436.559C434.257 436.132 433.414 435.919 432.454 435.919C431.473 435.919 430.609 436.132 429.862 436.559C429.137 436.986 428.561 437.583 428.134 438.351C427.729 439.098 427.526 439.983 427.526 441.007V441.647C427.526 442.671 427.761 443.578 428.23 444.367C428.7 445.156 429.361 445.764 430.214 446.191C431.068 446.618 432.049 446.831 433.158 446.831C434.118 446.831 434.982 446.682 435.75 446.383C436.518 446.084 437.201 445.615 437.798 444.975L439.942 447.439C439.174 448.335 438.204 449.028 437.03 449.519C435.878 449.988 434.556 450.223 433.062 450.223ZM466.569 449.999L460.393 441.807L463.657 439.791L471.273 449.999H466.569ZM454.313 449.999V432.911H458.313V449.999H454.313ZM457.129 443.151V439.823H462.921V443.151H457.129ZM464.041 441.935L460.297 441.487L466.569 432.911H470.857L464.041 441.935ZM484.15 449.999V446.543L483.926 445.807V439.759C483.926 438.586 483.574 437.679 482.87 437.039C482.166 436.378 481.099 436.047 479.67 436.047C478.71 436.047 477.76 436.196 476.822 436.495C475.904 436.794 475.126 437.21 474.486 437.743L472.918 434.831C473.835 434.127 474.923 433.604 476.182 433.263C477.462 432.9 478.784 432.719 480.15 432.719C482.624 432.719 484.534 433.316 485.878 434.511C487.243 435.684 487.926 437.508 487.926 439.983V449.999H484.15ZM478.774 450.223C477.494 450.223 476.374 450.01 475.414 449.583C474.454 449.135 473.707 448.527 473.174 447.759C472.662 446.97 472.406 446.084 472.406 445.103C472.406 444.143 472.63 443.279 473.078 442.511C473.547 441.743 474.304 441.135 475.35 440.687C476.395 440.239 477.782 440.015 479.51 440.015H484.47V442.671H479.798C478.432 442.671 477.515 442.895 477.046 443.343C476.576 443.77 476.342 444.303 476.342 444.943C476.342 445.668 476.63 446.244 477.206 446.671C477.782 447.098 478.582 447.311 479.606 447.311C480.587 447.311 481.462 447.087 482.23 446.639C483.019 446.191 483.584 445.53 483.926 444.655L484.598 447.055C484.214 448.058 483.52 448.836 482.518 449.391C481.536 449.946 480.288 450.223 478.774 450.223ZM513.26 449.999L508.267 441.807L511.532 439.791L518.028 449.999H513.26ZM505.036 443.151V439.823H510.764V443.151H505.036ZM511.916 441.935L508.14 441.487L513.324 432.911H517.58L511.916 441.935ZM495.212 449.999H490.476L496.94 439.791L500.204 441.807L495.212 449.999ZM506.22 449.999H502.252V432.911H506.22V449.999ZM503.436 443.151H497.74V439.823H503.436V443.151ZM496.556 441.935L490.892 432.911H495.148L500.3 441.487L496.556 441.935ZM532.713 448.143V436.303H526.153L526.057 439.055C526.014 440.036 525.95 440.986 525.865 441.903C525.779 442.799 525.641 443.631 525.449 444.399C525.257 445.146 524.979 445.764 524.617 446.255C524.254 446.746 523.774 447.066 523.177 447.215L519.209 446.607C519.849 446.607 520.361 446.404 520.745 445.999C521.15 445.572 521.459 444.996 521.673 444.271C521.907 443.524 522.078 442.682 522.185 441.743C522.291 440.783 522.366 439.791 522.409 438.767L522.633 432.911H536.713V448.143H532.713ZM518.601 453.807V446.607H539.241V453.807H535.497V449.999H522.312V453.807H518.601ZM560.061 449.999V432.911H564.061V449.999H560.061ZM551.133 438.543C553.33 438.543 554.994 439.034 556.125 440.015C557.277 440.996 557.853 442.383 557.853 444.175C557.853 446.031 557.213 447.482 555.933 448.527C554.674 449.551 552.882 450.052 550.557 450.031L542.813 449.999V432.911H546.813V438.511L551.133 438.543ZM550.205 447.087C551.378 447.108 552.274 446.863 552.893 446.351C553.512 445.839 553.821 445.092 553.821 444.111C553.821 443.13 553.512 442.426 552.893 441.999C552.296 441.551 551.4 441.316 550.205 441.295L546.813 441.263V447.055L550.205 447.087ZM569.438 449.999V432.911H573.438V444.175L582.878 432.911H586.526V449.999H582.526V438.735L573.118 449.999H569.438ZM577.726 430.895C576.019 430.895 574.707 430.5 573.79 429.711C572.873 428.9 572.403 427.727 572.382 426.191H575.038C575.059 426.959 575.294 427.567 575.742 428.015C576.211 428.463 576.862 428.687 577.694 428.687C578.505 428.687 579.145 428.463 579.614 428.015C580.105 427.567 580.361 426.959 580.382 426.191H583.102C583.081 427.727 582.601 428.9 581.662 429.711C580.745 430.5 579.433 430.895 577.726 430.895ZM600.751 449.999V432.911H613.871V436.303H603.823L604.751 435.407V449.999H600.751ZM623.648 450.223C621.898 450.223 620.341 449.85 618.976 449.103C617.61 448.335 616.533 447.29 615.744 445.967C614.954 444.644 614.56 443.14 614.56 441.455C614.56 439.748 614.954 438.244 615.744 436.943C616.533 435.62 617.61 434.586 618.976 433.839C620.341 433.092 621.898 432.719 623.648 432.719C625.418 432.719 626.986 433.092 628.352 433.839C629.738 434.586 630.816 435.61 631.584 436.911C632.373 438.212 632.768 439.727 632.768 441.455C632.768 443.14 632.373 444.644 631.584 445.967C630.816 447.29 629.738 448.335 628.352 449.103C626.986 449.85 625.418 450.223 623.648 450.223ZM623.648 446.799C624.629 446.799 625.504 446.586 626.272 446.159C627.04 445.732 627.637 445.114 628.064 444.303C628.512 443.492 628.736 442.543 628.736 441.455C628.736 440.346 628.512 439.396 628.064 438.607C627.637 437.796 627.04 437.178 626.272 436.751C625.504 436.324 624.64 436.111 623.68 436.111C622.698 436.111 621.824 436.324 621.056 436.751C620.309 437.178 619.712 437.796 619.264 438.607C618.816 439.396 618.592 440.346 618.592 441.455C618.592 442.543 618.816 443.492 619.264 444.303C619.712 445.114 620.309 445.732 621.056 446.159C621.824 446.586 622.688 446.799 623.648 446.799ZM634.036 449.967L634.228 446.607C634.377 446.628 634.516 446.65 634.644 446.671C634.772 446.692 634.888 446.703 634.995 446.703C635.656 446.703 636.168 446.5 636.531 446.095C636.893 445.69 637.161 445.146 637.332 444.463C637.524 443.759 637.652 442.98 637.716 442.127C637.801 441.252 637.865 440.378 637.908 439.503L638.196 432.911H652.02V449.999H648.02V435.215L648.948 436.303H640.82L641.684 435.183L641.46 439.695C641.396 441.21 641.268 442.618 641.076 443.919C640.905 445.199 640.628 446.319 640.244 447.279C639.881 448.239 639.369 448.986 638.708 449.519C638.068 450.052 637.246 450.319 636.244 450.319C635.924 450.319 635.572 450.287 635.188 450.223C634.824 450.159 634.441 450.074 634.036 449.967ZM665.023 450.223C663.273 450.223 661.716 449.85 660.351 449.103C658.985 448.335 657.908 447.29 657.119 445.967C656.329 444.644 655.935 443.14 655.935 441.455C655.935 439.748 656.329 438.244 657.119 436.943C657.908 435.62 658.985 434.586 660.351 433.839C661.716 433.092 663.273 432.719 665.023 432.719C666.793 432.719 668.361 433.092 669.727 433.839C671.113 434.586 672.19 435.61 672.958 436.911C673.747 438.212 674.143 439.727 674.143 441.455C674.143 443.14 673.747 444.644 672.958 445.967C672.19 447.29 671.113 448.335 669.727 449.103C668.361 449.85 666.793 450.223 665.023 450.223ZM665.023 446.799C666.004 446.799 666.878 446.586 667.646 446.159C668.414 445.732 669.012 445.114 669.439 444.303C669.887 443.492 670.111 442.543 670.111 441.455C670.111 440.346 669.887 439.396 669.439 438.607C669.012 437.796 668.414 437.178 667.646 436.751C666.878 436.324 666.015 436.111 665.055 436.111C664.073 436.111 663.199 436.324 662.431 436.751C661.684 437.178 661.087 437.796 660.639 438.607C660.191 439.396 659.967 440.346 659.967 441.455C659.967 442.543 660.191 443.492 660.639 444.303C661.087 445.114 661.684 445.732 662.431 446.159C663.199 446.586 664.063 446.799 665.023 446.799ZM685.87 450.223C684.078 450.223 682.478 449.85 681.07 449.103C679.684 448.335 678.596 447.29 677.806 445.967C677.017 444.644 676.622 443.14 676.622 441.455C676.622 439.748 677.017 438.244 677.806 436.943C678.596 435.62 679.684 434.586 681.07 433.839C682.478 433.092 684.078 432.719 685.87 432.719C687.534 432.719 688.996 433.06 690.254 433.743C691.534 434.404 692.505 435.386 693.166 436.687L690.094 438.479C689.582 437.668 688.953 437.071 688.206 436.687C687.481 436.303 686.692 436.111 685.838 436.111C684.857 436.111 683.972 436.324 683.182 436.751C682.393 437.178 681.774 437.796 681.326 438.607C680.878 439.396 680.654 440.346 680.654 441.455C680.654 442.564 680.878 443.524 681.326 444.335C681.774 445.124 682.393 445.732 683.182 446.159C683.972 446.586 684.857 446.799 685.838 446.799C686.692 446.799 687.481 446.607 688.206 446.223C688.953 445.839 689.582 445.242 690.094 444.431L693.166 446.223C692.505 447.503 691.534 448.495 690.254 449.199C688.996 449.882 687.534 450.223 685.87 450.223ZM705.531 449.999V432.911H709.531V444.175L718.972 432.911H722.62V449.999H718.62V438.735L709.212 449.999H705.531ZM728 449.999V432.911H732.193L739.073 445.039H737.409L744.641 432.911H748.385L748.417 449.999H744.801V437.199L745.441 437.615L739.041 448.207H737.312L730.88 437.327L731.649 437.135V449.999H728ZM761.75 450.223C759.851 450.223 758.187 449.85 756.758 449.103C755.35 448.335 754.251 447.29 753.462 445.967C752.694 444.644 752.31 443.14 752.31 441.455C752.31 439.748 752.683 438.244 753.43 436.943C754.198 435.62 755.243 434.586 756.566 433.839C757.91 433.092 759.435 432.719 761.142 432.719C762.806 432.719 764.288 433.082 765.59 433.807C766.891 434.532 767.914 435.556 768.661 436.879C769.407 438.202 769.781 439.759 769.781 441.551C769.781 441.722 769.771 441.914 769.75 442.127C769.75 442.34 769.739 442.543 769.718 442.735H755.478V440.079H767.606L766.038 440.911C766.059 439.93 765.856 439.066 765.43 438.319C765.003 437.572 764.416 436.986 763.67 436.559C762.944 436.132 762.102 435.919 761.142 435.919C760.16 435.919 759.296 436.132 758.55 436.559C757.824 436.986 757.248 437.583 756.822 438.351C756.416 439.098 756.214 439.983 756.214 441.007V441.647C756.214 442.671 756.448 443.578 756.918 444.367C757.387 445.156 758.047 445.764 758.901 446.191C759.754 446.618 760.736 446.831 761.846 446.831C762.806 446.831 763.669 446.682 764.438 446.383C765.206 446.084 765.888 445.615 766.486 444.975L768.63 447.439C767.862 448.335 766.891 449.028 765.718 449.519C764.566 449.988 763.243 450.223 761.75 450.223ZM782.125 450.223C780.226 450.223 778.562 449.85 777.133 449.103C775.725 448.335 774.626 447.29 773.837 445.967C773.069 444.644 772.685 443.14 772.685 441.455C772.685 439.748 773.058 438.244 773.805 436.943C774.573 435.62 775.618 434.586 776.941 433.839C778.285 433.092 779.81 432.719 781.517 432.719C783.181 432.719 784.663 433.082 785.965 433.807C787.266 434.532 788.289 435.556 789.036 436.879C789.782 438.202 790.156 439.759 790.156 441.551C790.156 441.722 790.146 441.914 790.125 442.127C790.125 442.34 790.114 442.543 790.093 442.735H775.853V440.079H787.981L786.413 440.911C786.434 439.93 786.231 439.066 785.805 438.319C785.378 437.572 784.791 436.986 784.045 436.559C783.319 436.132 782.477 435.919 781.517 435.919C780.535 435.919 779.671 436.132 778.925 436.559C778.199 436.986 777.623 437.583 777.197 438.351C776.791 439.098 776.589 439.983 776.589 441.007V441.647C776.589 442.671 776.823 443.578 777.293 444.367C777.762 445.156 778.422 445.764 779.276 446.191C780.129 446.618 781.111 446.831 782.221 446.831C783.181 446.831 784.044 446.682 784.812 446.383C785.581 446.084 786.263 445.615 786.861 444.975L789.005 447.439C788.237 448.335 787.266 449.028 786.093 449.519C784.941 449.988 783.618 450.223 782.125 450.223ZM797.427 449.999V435.343L798.356 436.303H791.411V432.911H807.411V436.303H800.5L801.427 435.343V449.999H797.427ZM819.156 449.999V432.911H827.509C829.578 432.911 831.199 433.295 832.373 434.063C833.567 434.831 834.165 435.919 834.165 437.327C834.165 438.714 833.609 439.802 832.5 440.591C831.39 441.359 829.919 441.743 828.085 441.743L828.565 440.751C830.634 440.751 832.169 441.135 833.172 441.903C834.196 442.65 834.708 443.748 834.708 445.199C834.708 446.714 834.143 447.898 833.013 448.751C831.882 449.583 830.165 449.999 827.861 449.999H819.156ZM822.965 447.087H827.541C828.629 447.087 829.45 446.916 830.005 446.575C830.559 446.212 830.837 445.668 830.837 444.943C830.837 444.175 830.58 443.61 830.068 443.247C829.556 442.884 828.757 442.703 827.669 442.703H822.965V447.087ZM822.965 440.047H827.156C828.18 440.047 828.949 439.866 829.461 439.503C829.994 439.119 830.26 438.586 830.26 437.903C830.26 437.199 829.994 436.676 829.461 436.335C828.949 435.994 828.18 435.823 827.156 435.823H822.965V440.047ZM846.937 450.223C845.039 450.223 843.375 449.85 841.945 449.103C840.537 448.335 839.439 447.29 838.649 445.967C837.881 444.644 837.497 443.14 837.497 441.455C837.497 439.748 837.871 438.244 838.617 436.943C839.385 435.62 840.431 434.586 841.753 433.839C843.097 433.092 844.622 432.719 846.328 432.719C847.992 432.719 849.475 433.082 850.776 433.807C852.078 434.532 853.103 435.556 853.849 436.879C854.596 438.202 854.969 439.759 854.969 441.551C854.969 441.722 854.959 441.914 854.937 442.127C854.937 442.34 854.927 442.543 854.905 442.735H840.665V440.079H852.793L851.224 440.911C851.246 439.93 851.044 439.066 850.617 438.319C850.191 437.572 849.604 436.986 848.857 436.559C848.132 436.132 847.288 435.919 846.328 435.919C845.347 435.919 844.484 436.132 843.737 436.559C843.012 436.986 842.436 437.583 842.009 438.351C841.604 439.098 841.401 439.983 841.401 441.007V441.647C841.401 442.671 841.635 443.578 842.104 444.367C842.574 445.156 843.236 445.764 844.089 446.191C844.943 446.618 845.924 446.831 847.033 446.831C847.993 446.831 848.857 446.682 849.625 446.383C850.393 446.084 851.075 445.615 851.672 444.975L853.817 447.439C853.049 448.335 852.079 449.028 850.905 449.519C849.753 449.988 848.431 450.223 846.937 450.223ZM867.12 450.223C865.328 450.223 863.728 449.85 862.32 449.103C860.934 448.335 859.846 447.29 859.056 445.967C858.267 444.644 857.872 443.14 857.872 441.455C857.872 439.748 858.267 438.244 859.056 436.943C859.846 435.62 860.934 434.586 862.32 433.839C863.728 433.092 865.328 432.719 867.12 432.719C868.784 432.719 870.246 433.06 871.504 433.743C872.784 434.404 873.755 435.386 874.416 436.687L871.344 438.479C870.832 437.668 870.203 437.071 869.456 436.687C868.731 436.303 867.942 436.111 867.088 436.111C866.107 436.111 865.222 436.324 864.432 436.751C863.643 437.178 863.024 437.796 862.576 438.607C862.128 439.396 861.904 440.346 861.904 441.455C861.904 442.564 862.128 443.524 862.576 444.335C863.024 445.124 863.643 445.732 864.432 446.159C865.222 446.586 866.107 446.799 867.088 446.799C867.942 446.799 868.731 446.607 869.456 446.223C870.203 445.839 870.832 445.242 871.344 444.431L874.416 446.223C873.755 447.503 872.784 448.495 871.504 449.199C870.246 449.882 868.784 450.223 867.12 450.223ZM877.443 454.831L879.299 447.759L879.843 450.127C879.096 450.127 878.467 449.903 877.955 449.455C877.464 448.986 877.219 448.356 877.219 447.567C877.219 446.756 877.464 446.116 877.955 445.647C878.467 445.156 879.086 444.911 879.811 444.911C880.558 444.911 881.176 445.156 881.667 445.647C882.158 446.138 882.403 446.778 882.403 447.567C882.403 447.78 882.382 448.015 882.339 448.271C882.296 448.506 882.222 448.783 882.115 449.103C882.03 449.423 881.88 449.828 881.667 450.319L880.035 454.831H877.443ZM906.931 448.143V436.303H900.37L900.275 439.055C900.233 440.036 900.169 440.986 900.083 441.903C899.998 442.799 899.859 443.631 899.667 444.399C899.475 445.146 899.198 445.764 898.835 446.255C898.473 446.746 897.993 447.066 897.395 447.215L893.427 446.607C894.067 446.607 894.579 446.404 894.963 445.999C895.369 445.572 895.678 444.996 895.891 444.271C896.126 443.524 896.297 442.682 896.403 441.743C896.51 440.783 896.585 439.791 896.627 438.767L896.851 432.911H910.931V448.143H906.931ZM892.818 453.807V446.607H913.458V453.807H909.715V449.999H896.531V453.807H892.818ZM917.031 449.999V432.911H925.384C927.453 432.911 929.074 433.295 930.248 434.063C931.442 434.831 932.04 435.919 932.04 437.327C932.04 438.714 931.484 439.802 930.375 440.591C929.265 441.359 927.794 441.743 925.96 441.743L926.44 440.751C928.509 440.751 930.044 441.135 931.047 441.903C932.071 442.65 932.583 443.748 932.583 445.199C932.583 446.714 932.018 447.898 930.888 448.751C929.757 449.583 928.04 449.999 925.736 449.999H917.031ZM920.84 447.087H925.416C926.504 447.087 927.325 446.916 927.88 446.575C928.434 446.212 928.712 445.668 928.712 444.943C928.712 444.175 928.455 443.61 927.943 443.247C927.431 442.884 926.632 442.703 925.544 442.703H920.84V447.087ZM920.84 440.047H925.031C926.055 440.047 926.824 439.866 927.336 439.503C927.869 439.119 928.135 438.586 928.135 437.903C928.135 437.199 927.869 436.676 927.336 436.335C926.824 435.994 926.055 435.823 925.031 435.823H920.84V440.047ZM936.844 449.999V432.911H940.844V444.175L950.284 432.911H953.932V449.999H949.932V438.735L940.524 449.999H936.844ZM959.312 449.999V432.911H972.432V436.303H962.385L963.312 435.407V449.999H959.312ZM985.712 449.999V446.543L985.488 445.807V439.759C985.488 438.586 985.136 437.679 984.432 437.039C983.728 436.378 982.662 436.047 981.232 436.047C980.272 436.047 979.323 436.196 978.384 436.495C977.467 436.794 976.687 437.21 976.047 437.743L974.479 434.831C975.397 434.127 976.486 433.604 977.744 433.263C979.024 432.9 980.347 432.719 981.712 432.719C984.187 432.719 986.096 433.316 987.44 434.511C988.806 435.684 989.488 437.508 989.488 439.983V449.999H985.712ZM980.336 450.223C979.056 450.223 977.936 450.01 976.976 449.583C976.016 449.135 975.27 448.527 974.736 447.759C974.224 446.97 973.968 446.084 973.968 445.103C973.968 444.143 974.192 443.279 974.64 442.511C975.11 441.743 975.866 441.135 976.911 440.687C977.957 440.239 979.344 440.015 981.072 440.015H986.031V442.671H981.359C979.994 442.671 979.078 442.895 978.608 443.343C978.139 443.77 977.904 444.303 977.904 444.943C977.904 445.668 978.192 446.244 978.768 446.671C979.344 447.098 980.144 447.311 981.168 447.311C982.15 447.311 983.024 447.087 983.792 446.639C984.582 446.191 985.147 445.53 985.488 444.655L986.16 447.055C985.776 448.058 985.083 448.836 984.08 449.391C983.099 449.946 981.851 450.223 980.336 450.223ZM1005.29 449.999V444.175L1005.86 444.847H1000.74C998.395 444.847 996.55 444.356 995.206 443.375C993.883 442.372 993.222 440.932 993.222 439.055C993.222 437.05 993.925 435.524 995.333 434.479C996.762 433.434 998.662 432.911 1001.03 432.911H1008.87V449.999H1005.29ZM992.998 449.999L997.606 443.471H1001.7L997.286 449.999H992.998ZM1005.29 442.895V435.215L1005.86 436.271H1001.16C999.921 436.271 998.961 436.506 998.278 436.975C997.617 437.423 997.286 438.159 997.286 439.183C997.286 441.103 998.534 442.063 1001.03 442.063H1005.86L1005.29 442.895ZM120.688 493.999V476.911H137.072V493.999H133.104V479.375L134.032 480.303H123.76L124.688 479.375V493.999H120.688ZM151.941 494.223C150.555 494.223 149.285 493.903 148.133 493.263C147.003 492.623 146.096 491.663 145.413 490.383C144.752 489.082 144.421 487.439 144.421 485.455C144.421 483.45 144.741 481.807 145.381 480.527C146.043 479.247 146.939 478.298 148.069 477.679C149.2 477.039 150.491 476.719 151.941 476.719C153.627 476.719 155.109 477.082 156.389 477.807C157.691 478.532 158.715 479.546 159.461 480.847C160.229 482.148 160.613 483.684 160.613 485.455C160.613 487.226 160.229 488.772 159.461 490.095C158.715 491.396 157.691 492.41 156.389 493.135C155.109 493.86 153.627 494.223 151.941 494.223ZM142.469 500.207V476.911H146.277V480.943L146.149 485.487L146.469 490.031V500.207H142.469ZM151.493 490.799C152.453 490.799 153.307 490.586 154.053 490.159C154.821 489.732 155.429 489.114 155.877 488.303C156.325 487.492 156.549 486.543 156.549 485.455C156.549 484.346 156.325 483.396 155.877 482.607C155.429 481.796 154.821 481.178 154.053 480.751C153.307 480.324 152.453 480.111 151.493 480.111C150.533 480.111 149.669 480.324 148.901 480.751C148.133 481.178 147.525 481.796 147.077 482.607C146.629 483.396 146.405 484.346 146.405 485.455C146.405 486.543 146.629 487.492 147.077 488.303C147.525 489.114 148.133 489.732 148.901 490.159C149.669 490.586 150.533 490.799 151.493 490.799ZM172.21 494.223C170.461 494.223 168.904 493.85 167.538 493.103C166.173 492.335 165.096 491.29 164.306 489.967C163.517 488.644 163.122 487.14 163.122 485.455C163.122 483.748 163.517 482.244 164.306 480.943C165.096 479.62 166.173 478.586 167.538 477.839C168.904 477.092 170.461 476.719 172.21 476.719C173.981 476.719 175.549 477.092 176.914 477.839C178.301 478.586 179.378 479.61 180.146 480.911C180.936 482.212 181.33 483.727 181.33 485.455C181.33 487.14 180.936 488.644 180.146 489.967C179.378 491.29 178.301 492.335 176.914 493.103C175.549 493.85 173.981 494.223 172.21 494.223ZM172.21 490.799C173.192 490.799 174.066 490.586 174.834 490.159C175.602 489.732 176.2 489.114 176.626 488.303C177.074 487.492 177.298 486.543 177.298 485.455C177.298 484.346 177.074 483.396 176.626 482.607C176.2 481.796 175.602 481.178 174.834 480.751C174.066 480.324 173.202 480.111 172.242 480.111C171.261 480.111 170.386 480.324 169.618 480.751C168.872 481.178 168.274 481.796 167.826 482.607C167.378 483.396 167.154 484.346 167.154 485.455C167.154 486.543 167.378 487.492 167.826 488.303C168.274 489.114 168.872 489.732 169.618 490.159C170.386 490.586 171.25 490.799 172.21 490.799ZM193.25 494.223C191.351 494.223 189.687 493.85 188.258 493.103C186.85 492.335 185.751 491.29 184.962 489.967C184.194 488.644 183.81 487.14 183.81 485.455C183.81 483.748 184.183 482.244 184.93 480.943C185.698 479.62 186.743 478.586 188.066 477.839C189.41 477.092 190.935 476.719 192.642 476.719C194.306 476.719 195.788 477.082 197.09 477.807C198.391 478.532 199.415 479.556 200.162 480.879C200.908 482.202 201.282 483.759 201.282 485.551C201.282 485.722 201.271 485.914 201.25 486.127C201.25 486.34 201.239 486.543 201.218 486.735H186.978V484.079H199.106L197.538 484.911C197.559 483.93 197.356 483.066 196.93 482.319C196.503 481.572 195.916 480.986 195.17 480.559C194.444 480.132 193.602 479.919 192.642 479.919C191.66 479.919 190.796 480.132 190.05 480.559C189.324 480.986 188.748 481.583 188.322 482.351C187.916 483.098 187.714 483.983 187.714 485.007V485.647C187.714 486.671 187.948 487.578 188.418 488.367C188.887 489.156 189.548 489.764 190.402 490.191C191.255 490.618 192.236 490.831 193.346 490.831C194.306 490.831 195.17 490.682 195.938 490.383C196.706 490.084 197.388 489.615 197.986 488.975L200.13 491.439C199.362 492.335 198.391 493.028 197.218 493.519C196.066 493.988 194.743 494.223 193.25 494.223ZM217.913 493.999L211.737 485.807L215.001 483.791L222.617 493.999H217.913ZM205.657 493.999V476.911H209.657V493.999H205.657ZM208.473 487.151V483.823H214.265V487.151H208.473ZM215.385 485.935L211.641 485.487L217.913 476.911H222.201L215.385 485.935ZM228.771 493.999V479.343L229.699 480.303H222.755V476.911H238.755V480.303H231.843L232.771 479.343V493.999H228.771ZM250.501 493.999V476.911H258.853C260.922 476.911 262.543 477.295 263.717 478.063C264.911 478.831 265.509 479.919 265.509 481.327C265.509 482.714 264.954 483.802 263.845 484.591C262.735 485.359 261.263 485.743 259.429 485.743L259.909 484.751C261.978 484.751 263.514 485.135 264.517 485.903C265.541 486.65 266.053 487.748 266.053 489.199C266.053 490.714 265.487 491.898 264.357 492.751C263.226 493.583 261.509 493.999 259.205 493.999H250.501ZM254.309 491.087H258.885C259.973 491.087 260.794 490.916 261.349 490.575C261.903 490.212 262.181 489.668 262.181 488.943C262.181 488.175 261.925 487.61 261.413 487.247C260.901 486.884 260.101 486.703 259.013 486.703H254.309V491.087ZM254.309 484.047H258.501C259.525 484.047 260.293 483.866 260.805 483.503C261.338 483.119 261.605 482.586 261.605 481.903C261.605 481.199 261.338 480.676 260.805 480.335C260.293 479.994 259.525 479.823 258.501 479.823H254.309V484.047ZM270.313 493.999V476.911H274.505L281.385 489.039H279.721L286.953 476.911H290.697L290.729 493.999H287.113V481.199L287.753 481.615L281.353 492.207H279.625L273.193 481.327L273.961 481.135V493.999H270.313ZM304.062 494.223C302.164 494.223 300.5 493.85 299.07 493.103C297.662 492.335 296.564 491.29 295.774 489.967C295.006 488.644 294.622 487.14 294.622 485.455C294.622 483.748 294.996 482.244 295.742 480.943C296.51 479.62 297.556 478.586 298.878 477.839C300.222 477.092 301.748 476.719 303.454 476.719C305.118 476.719 306.601 477.082 307.902 477.807C309.204 478.532 310.228 479.556 310.974 480.879C311.721 482.202 312.094 483.759 312.094 485.551C312.094 485.722 312.084 485.914 312.062 486.127C312.062 486.34 312.052 486.543 312.03 486.735H297.79V484.079H309.918L308.35 484.911C308.372 483.93 308.169 483.066 307.742 482.319C307.316 481.572 306.729 480.986 305.982 480.559C305.257 480.132 304.414 479.919 303.454 479.919C302.473 479.919 301.609 480.132 300.862 480.559C300.137 480.986 299.561 481.583 299.134 482.351C298.729 483.098 298.526 483.983 298.526 485.007V485.647C298.526 486.671 298.761 487.578 299.23 488.367C299.7 489.156 300.361 489.764 301.214 490.191C302.068 490.618 303.049 490.831 304.158 490.831C305.118 490.831 305.982 490.682 306.75 490.383C307.518 490.084 308.201 489.615 308.798 488.975L310.942 491.439C310.174 492.335 309.204 493.028 308.03 493.519C306.878 493.988 305.556 494.223 304.062 494.223ZM324.245 494.223C322.453 494.223 320.853 493.85 319.445 493.103C318.059 492.335 316.971 491.29 316.181 489.967C315.392 488.644 314.997 487.14 314.997 485.455C314.997 483.748 315.392 482.244 316.181 480.943C316.971 479.62 318.059 478.586 319.445 477.839C320.853 477.092 322.453 476.719 324.245 476.719C325.909 476.719 327.371 477.06 328.629 477.743C329.909 478.404 330.88 479.386 331.541 480.687L328.469 482.479C327.957 481.668 327.328 481.071 326.581 480.687C325.856 480.303 325.067 480.111 324.213 480.111C323.232 480.111 322.347 480.324 321.557 480.751C320.768 481.178 320.149 481.796 319.701 482.607C319.253 483.396 319.029 484.346 319.029 485.455C319.029 486.564 319.253 487.524 319.701 488.335C320.149 489.124 320.768 489.732 321.557 490.159C322.347 490.586 323.232 490.799 324.213 490.799C325.067 490.799 325.856 490.607 326.581 490.223C327.328 489.839 327.957 489.242 328.469 488.431L331.541 490.223C330.88 491.503 329.909 492.495 328.629 493.199C327.371 493.882 325.909 494.223 324.245 494.223ZM338.49 493.999V479.343L339.418 480.303H332.474V476.911H348.474V480.303H341.562L342.49 479.343V493.999H338.49ZM358.594 494.223C356.695 494.223 355.031 493.85 353.602 493.103C352.194 492.335 351.095 491.29 350.306 489.967C349.538 488.644 349.154 487.14 349.154 485.455C349.154 483.748 349.527 482.244 350.274 480.943C351.042 479.62 352.087 478.586 353.41 477.839C354.754 477.092 356.279 476.719 357.986 476.719C359.65 476.719 361.132 477.082 362.434 477.807C363.735 478.532 364.759 479.556 365.506 480.879C366.252 482.202 366.626 483.759 366.626 485.551C366.626 485.722 366.615 485.914 366.594 486.127C366.594 486.34 366.583 486.543 366.562 486.735H352.322V484.079H364.45L362.882 484.911C362.903 483.93 362.7 483.066 362.274 482.319C361.847 481.572 361.26 480.986 360.514 480.559C359.788 480.132 358.946 479.919 357.986 479.919C357.004 479.919 356.14 480.132 355.394 480.559C354.668 480.986 354.092 481.583 353.666 482.351C353.26 483.098 353.058 483.983 353.058 485.007V485.647C353.058 486.671 353.292 487.578 353.762 488.367C354.231 489.156 354.892 489.764 355.746 490.191C356.599 490.618 357.58 490.831 358.69 490.831C359.65 490.831 360.514 490.682 361.282 490.383C362.05 490.084 362.732 489.615 363.33 488.975L365.474 491.439C364.706 492.335 363.735 493.028 362.562 493.519C361.41 493.988 360.087 494.223 358.594 494.223ZM369.881 498.831L371.737 491.759L372.281 494.127C371.534 494.127 370.905 493.903 370.393 493.455C369.902 492.986 369.657 492.356 369.657 491.567C369.657 490.756 369.902 490.116 370.393 489.647C370.905 489.156 371.523 488.911 372.249 488.911C372.995 488.911 373.614 489.156 374.105 489.647C374.595 490.138 374.841 490.778 374.841 491.567C374.841 491.78 374.819 492.015 374.777 492.271C374.734 492.506 374.659 492.783 374.553 493.103C374.467 493.423 374.318 493.828 374.105 494.319L372.473 498.831H369.881ZM387.657 493.999V476.911H391.849L398.729 489.039H397.065L404.297 476.911H408.041L408.073 493.999H404.457V481.199L405.097 481.615L398.697 492.207H396.969L390.537 481.327L391.305 481.135V493.999H387.657ZM430.686 493.999V476.911H434.686V493.999H430.686ZM421.758 482.543C423.955 482.543 425.619 483.034 426.75 484.015C427.902 484.996 428.478 486.383 428.478 488.175C428.478 490.031 427.838 491.482 426.558 492.527C425.299 493.551 423.507 494.052 421.182 494.031L413.438 493.999V476.911H417.438V482.511L421.758 482.543ZM420.83 491.087C422.003 491.108 422.899 490.863 423.518 490.351C424.137 489.839 424.446 489.092 424.446 488.111C424.446 487.13 424.137 486.426 423.518 485.999C422.921 485.551 422.025 485.316 420.83 485.295L417.438 485.263V491.055L420.83 491.087ZM458.379 494.223C456.992 494.223 455.723 493.903 454.571 493.263C453.44 492.623 452.533 491.663 451.851 490.383C451.189 489.082 450.859 487.439 450.859 485.455C450.859 483.45 451.179 481.807 451.819 480.527C452.48 479.247 453.376 478.298 454.507 477.679C455.637 477.039 456.928 476.719 458.379 476.719C460.064 476.719 461.547 477.082 462.827 477.807C464.128 478.532 465.152 479.546 465.899 480.847C466.667 482.148 467.051 483.684 467.051 485.455C467.051 487.226 466.667 488.772 465.899 490.095C465.152 491.396 464.128 492.41 462.827 493.135C461.547 493.86 460.064 494.223 458.379 494.223ZM448.907 500.207V476.911H452.715V480.943L452.587 485.487L452.907 490.031V500.207H448.907ZM457.931 490.799C458.891 490.799 459.744 490.586 460.491 490.159C461.259 489.732 461.867 489.114 462.315 488.303C462.763 487.492 462.987 486.543 462.987 485.455C462.987 484.346 462.763 483.396 462.315 482.607C461.867 481.796 461.259 481.178 460.491 480.751C459.744 480.324 458.891 480.111 457.931 480.111C456.971 480.111 456.107 480.324 455.339 480.751C454.571 481.178 453.963 481.796 453.515 482.607C453.067 483.396 452.843 484.346 452.843 485.455C452.843 486.543 453.067 487.492 453.515 488.303C453.963 489.114 454.571 489.732 455.339 490.159C456.107 490.586 456.971 490.799 457.931 490.799ZM481.181 493.999V490.543L480.957 489.807V483.759C480.957 482.586 480.605 481.679 479.901 481.039C479.197 480.378 478.13 480.047 476.701 480.047C475.741 480.047 474.792 480.196 473.853 480.495C472.936 480.794 472.157 481.21 471.517 481.743L469.949 478.831C470.866 478.127 471.954 477.604 473.213 477.263C474.493 476.9 475.816 476.719 477.181 476.719C479.656 476.719 481.565 477.316 482.909 478.511C484.274 479.684 484.957 481.508 484.957 483.983V493.999H481.181ZM475.805 494.223C474.525 494.223 473.405 494.01 472.445 493.583C471.485 493.135 470.738 492.527 470.205 491.759C469.693 490.97 469.437 490.084 469.437 489.103C469.437 488.143 469.661 487.279 470.109 486.511C470.578 485.743 471.336 485.135 472.381 484.687C473.426 484.239 474.813 484.015 476.541 484.015H481.501V486.671H476.829C475.464 486.671 474.546 486.895 474.077 487.343C473.608 487.77 473.373 488.303 473.373 488.943C473.373 489.668 473.661 490.244 474.237 490.671C474.813 491.098 475.613 491.311 476.637 491.311C477.618 491.311 478.493 491.087 479.261 490.639C480.05 490.191 480.616 489.53 480.957 488.655L481.629 491.055C481.245 492.058 480.552 492.836 479.549 493.391C478.568 493.946 477.32 494.223 475.805 494.223ZM495.096 494.287C493.795 494.287 492.504 494.138 491.224 493.839C489.965 493.519 488.824 493.071 487.8 492.495L488.92 489.519C489.752 489.988 490.691 490.351 491.736 490.607C492.781 490.863 493.827 490.991 494.872 490.991C495.768 490.991 496.536 490.906 497.176 490.735C497.816 490.543 498.307 490.266 498.648 489.903C499.011 489.54 499.192 489.124 499.192 488.655C499.192 487.972 498.893 487.46 498.296 487.119C497.72 486.756 496.888 486.575 495.8 486.575H492.504V483.887H495.48C496.163 483.887 496.739 483.812 497.208 483.663C497.699 483.514 498.072 483.29 498.328 482.991C498.584 482.692 498.712 482.34 498.712 481.935C498.712 481.53 498.552 481.178 498.232 480.879C497.933 480.559 497.496 480.324 496.92 480.175C496.344 480.004 495.651 479.919 494.84 479.919C493.987 479.919 493.101 480.026 492.184 480.239C491.288 480.452 490.371 480.762 489.432 481.167L488.408 478.223C489.496 477.732 490.552 477.359 491.576 477.103C492.621 476.826 493.656 476.676 494.68 476.655C496.237 476.591 497.624 476.751 498.84 477.135C500.056 477.519 501.016 478.074 501.72 478.799C502.424 479.524 502.776 480.378 502.776 481.359C502.776 482.17 502.52 482.906 502.008 483.567C501.517 484.207 500.835 484.708 499.96 485.071C499.107 485.434 498.125 485.615 497.016 485.615L497.144 484.751C499.043 484.751 500.536 485.135 501.624 485.903C502.712 486.65 503.256 487.674 503.256 488.975C503.256 490.02 502.904 490.948 502.2 491.759C501.496 492.548 500.525 493.167 499.288 493.615C498.072 494.063 496.675 494.287 495.096 494.287ZM507.376 493.999V476.911H515.728C517.797 476.911 519.418 477.295 520.592 478.063C521.786 478.831 522.384 479.919 522.384 481.327C522.384 482.714 521.829 483.802 520.72 484.591C519.61 485.359 518.138 485.743 516.304 485.743L516.784 484.751C518.853 484.751 520.389 485.135 521.392 485.903C522.416 486.65 522.928 487.748 522.928 489.199C522.928 490.714 522.362 491.898 521.232 492.751C520.101 493.583 518.384 493.999 516.08 493.999H507.376ZM511.184 491.087H515.76C516.848 491.087 517.669 490.916 518.224 490.575C518.778 490.212 519.056 489.668 519.056 488.943C519.056 488.175 518.8 487.61 518.288 487.247C517.776 486.884 516.976 486.703 515.888 486.703H511.184V491.087ZM511.184 484.047H515.376C516.4 484.047 517.168 483.866 517.68 483.503C518.213 483.119 518.48 482.586 518.48 481.903C518.48 481.199 518.213 480.676 517.68 480.335C517.168 479.994 516.4 479.823 515.376 479.823H511.184V484.047ZM527.188 493.999V476.911H531.188V488.175L540.628 476.911H544.276V493.999H540.276V482.735L530.868 493.999H527.188ZM549.657 493.999V476.911H558.009C560.078 476.911 561.699 477.295 562.873 478.063C564.067 478.831 564.665 479.919 564.665 481.327C564.665 482.714 564.11 483.802 563.001 484.591C561.891 485.359 560.419 485.743 558.585 485.743L559.065 484.751C561.134 484.751 562.67 485.135 563.673 485.903C564.697 486.65 565.209 487.748 565.209 489.199C565.209 490.714 564.643 491.898 563.513 492.751C562.382 493.583 560.665 493.999 558.361 493.999H549.657ZM553.465 491.087H558.041C559.129 491.087 559.95 490.916 560.505 490.575C561.059 490.212 561.337 489.668 561.337 488.943C561.337 488.175 561.081 487.61 560.569 487.247C560.057 486.884 559.257 486.703 558.169 486.703H553.465V491.087ZM553.465 484.047H557.657C558.681 484.047 559.449 483.866 559.961 483.503C560.494 483.119 560.761 482.586 560.761 481.903C560.761 481.199 560.494 480.676 559.961 480.335C559.449 479.994 558.681 479.823 557.657 479.823H553.465V484.047ZM579.837 493.999V490.543L579.613 489.807V483.759C579.613 482.586 579.261 481.679 578.557 481.039C577.853 480.378 576.787 480.047 575.357 480.047C574.397 480.047 573.448 480.196 572.509 480.495C571.592 480.794 570.813 481.21 570.173 481.743L568.605 478.831C569.523 478.127 570.611 477.604 571.869 477.263C573.149 476.9 574.472 476.719 575.837 476.719C578.312 476.719 580.221 477.316 581.565 478.511C582.931 479.684 583.613 481.508 583.613 483.983V493.999H579.837ZM574.461 494.223C573.181 494.223 572.061 494.01 571.101 493.583C570.141 493.135 569.395 492.527 568.861 491.759C568.349 490.97 568.093 490.084 568.093 489.103C568.093 488.143 568.317 487.279 568.765 486.511C569.235 485.743 569.992 485.135 571.037 484.687C572.083 484.239 573.469 484.015 575.197 484.015H580.157V486.671H575.485C574.12 486.671 573.203 486.895 572.733 487.343C572.264 487.77 572.029 488.303 572.029 488.943C572.029 489.668 572.317 490.244 572.893 490.671C573.469 491.098 574.269 491.311 575.293 491.311C576.275 491.311 577.149 491.087 577.917 490.639C578.707 490.191 579.272 489.53 579.613 488.655L580.285 491.055C579.901 492.058 579.208 492.836 578.205 493.391C577.224 493.946 575.976 494.223 574.461 494.223ZM596.531 494.223C594.632 494.223 592.968 493.85 591.539 493.103C590.131 492.335 589.032 491.29 588.243 489.967C587.475 488.644 587.091 487.14 587.091 485.455C587.091 483.748 587.464 482.244 588.211 480.943C588.979 479.62 590.024 478.586 591.347 477.839C592.691 477.092 594.216 476.719 595.923 476.719C597.587 476.719 599.07 477.082 600.371 477.807C601.672 478.532 602.696 479.556 603.443 480.879C604.19 482.202 604.563 483.759 604.563 485.551C604.563 485.722 604.552 485.914 604.531 486.127C604.531 486.34 604.52 486.543 604.499 486.735H590.259V484.079H602.387L600.819 484.911C600.84 483.93 600.638 483.066 600.211 482.319C599.784 481.572 599.198 480.986 598.451 480.559C597.726 480.132 596.883 479.919 595.923 479.919C594.942 479.919 594.078 480.132 593.331 480.559C592.606 480.986 592.03 481.583 591.603 482.351C591.198 483.098 590.995 483.983 590.995 485.007V485.647C590.995 486.671 591.23 487.578 591.699 488.367C592.168 489.156 592.83 489.764 593.683 490.191C594.536 490.618 595.518 490.831 596.627 490.831C597.587 490.831 598.451 490.682 599.219 490.383C599.987 490.084 600.67 489.615 601.267 488.975L603.411 491.439C602.643 492.335 601.672 493.028 600.499 493.519C599.347 493.988 598.024 494.223 596.531 494.223ZM608.938 493.999V476.911H613.13L620.01 489.039H618.346L625.578 476.911H629.322L629.354 493.999H625.738V481.199L626.378 481.615L619.978 492.207H618.25L611.818 481.327L612.586 481.135V493.999H608.938ZM642.495 494.223C640.703 494.223 639.103 493.85 637.695 493.103C636.309 492.335 635.221 491.29 634.431 489.967C633.642 488.644 633.247 487.14 633.247 485.455C633.247 483.748 633.642 482.244 634.431 480.943C635.221 479.62 636.309 478.586 637.695 477.839C639.103 477.092 640.703 476.719 642.495 476.719C644.159 476.719 645.621 477.06 646.879 477.743C648.159 478.404 649.13 479.386 649.791 480.687L646.719 482.479C646.207 481.668 645.578 481.071 644.831 480.687C644.106 480.303 643.317 480.111 642.463 480.111C641.482 480.111 640.597 480.324 639.807 480.751C639.018 481.178 638.399 481.796 637.951 482.607C637.503 483.396 637.279 484.346 637.279 485.455C637.279 486.564 637.503 487.524 637.951 488.335C638.399 489.124 639.018 489.732 639.807 490.159C640.597 490.586 641.482 490.799 642.463 490.799C643.317 490.799 644.106 490.607 644.831 490.223C645.578 489.839 646.207 489.242 646.719 488.431L649.791 490.223C649.13 491.503 648.159 492.495 646.879 493.199C645.621 493.882 644.159 494.223 642.495 494.223ZM663.692 493.999V488.175L664.268 488.847H659.148C656.802 488.847 654.956 488.356 653.612 487.375C652.29 486.372 651.628 484.932 651.628 483.055C651.628 481.05 652.332 479.524 653.74 478.479C655.17 477.434 657.068 476.911 659.436 476.911H667.276V493.999H663.692ZM651.404 493.999L656.012 487.471H660.108L655.692 493.999H651.404ZM663.692 486.895V479.215L664.268 480.271H659.564C658.327 480.271 657.367 480.506 656.684 480.975C656.023 481.423 655.692 482.159 655.692 483.183C655.692 485.103 656.94 486.063 659.436 486.063H664.268L663.692 486.895ZM681.5 493.999V476.911H685.5V488.175L694.941 476.911H698.589V493.999H694.589V482.735L685.181 493.999H681.5ZM720.589 494.223C718.797 494.223 717.197 493.85 715.789 493.103C714.402 492.335 713.314 491.29 712.525 489.967C711.736 488.644 711.341 487.14 711.341 485.455C711.341 483.748 711.736 482.244 712.525 480.943C713.314 479.62 714.402 478.586 715.789 477.839C717.197 477.092 718.797 476.719 720.589 476.719C722.253 476.719 723.714 477.06 724.973 477.743C726.253 478.404 727.224 479.386 727.885 480.687L724.812 482.479C724.3 481.668 723.672 481.071 722.925 480.687C722.2 480.303 721.41 480.111 720.557 480.111C719.576 480.111 718.69 480.324 717.901 480.751C717.112 481.178 716.493 481.796 716.045 482.607C715.597 483.396 715.373 484.346 715.373 485.455C715.373 486.564 715.597 487.524 716.045 488.335C716.493 489.124 717.112 489.732 717.901 490.159C718.69 490.586 719.576 490.799 720.557 490.799C721.41 490.799 722.2 490.607 722.925 490.223C723.672 489.839 724.3 489.242 724.812 488.431L727.885 490.223C727.224 491.503 726.253 492.495 724.973 493.199C723.714 493.882 722.253 494.223 720.589 494.223ZM731.406 493.999V476.911H747.791V493.999H743.823V479.375L744.75 480.303H734.479L735.406 479.375V493.999H731.406ZM750.692 493.967L750.884 490.607C751.033 490.628 751.172 490.65 751.3 490.671C751.428 490.692 751.544 490.703 751.651 490.703C752.312 490.703 752.824 490.5 753.188 490.095C753.551 489.69 753.817 489.146 753.988 488.463C754.18 487.759 754.308 486.98 754.372 486.127C754.457 485.252 754.521 484.378 754.564 483.503L754.852 476.911H768.676V493.999H764.676V479.215L765.604 480.303H757.476L758.34 479.183L758.116 483.695C758.052 485.21 757.924 486.618 757.732 487.919C757.561 489.199 757.284 490.319 756.9 491.279C756.537 492.239 756.025 492.986 755.364 493.519C754.724 494.052 753.903 494.319 752.9 494.319C752.58 494.319 752.228 494.287 751.844 494.223C751.481 494.159 751.097 494.074 750.692 493.967ZM784.431 493.999V490.543L784.207 489.807V483.759C784.207 482.586 783.855 481.679 783.151 481.039C782.447 480.378 781.38 480.047 779.951 480.047C778.991 480.047 778.042 480.196 777.103 480.495C776.186 480.794 775.407 481.21 774.767 481.743L773.198 478.831C774.115 478.127 775.204 477.604 776.463 477.263C777.743 476.9 779.066 476.719 780.431 476.719C782.906 476.719 784.815 477.316 786.159 478.511C787.524 479.684 788.207 481.508 788.207 483.983V493.999H784.431ZM779.055 494.223C777.775 494.223 776.655 494.01 775.695 493.583C774.735 493.135 773.988 492.527 773.455 491.759C772.943 490.97 772.687 490.084 772.687 489.103C772.687 488.143 772.911 487.279 773.359 486.511C773.828 485.743 774.585 485.135 775.63 484.687C776.675 484.239 778.063 484.015 779.791 484.015H784.75V486.671H780.078C778.713 486.671 777.796 486.895 777.327 487.343C776.858 487.77 776.623 488.303 776.623 488.943C776.623 489.668 776.911 490.244 777.487 490.671C778.063 491.098 778.863 491.311 779.887 491.311C780.868 491.311 781.742 491.087 782.51 490.639C783.299 490.191 783.866 489.53 784.207 488.655L784.879 491.055C784.495 492.058 783.802 492.836 782.799 493.391C781.818 493.946 780.57 494.223 779.055 494.223ZM803.941 487.247C803.13 487.631 802.266 487.951 801.349 488.207C800.453 488.442 799.502 488.559 798.5 488.559C796.345 488.559 794.671 488.058 793.477 487.055C792.282 486.052 791.685 484.495 791.685 482.383V476.911H795.685V482.127C795.685 483.258 796.005 484.079 796.645 484.591C797.306 485.103 798.213 485.359 799.365 485.359C800.133 485.359 800.901 485.263 801.669 485.071C802.437 484.879 803.194 484.612 803.941 484.271V487.247ZM803.653 493.999V476.911H807.653V493.999H803.653ZM813.031 493.999V476.911H817.031V488.175L826.472 476.911H830.12V493.999H826.12V482.735L816.712 493.999H813.031ZM835.5 493.999V476.911H843.853C845.922 476.911 847.543 477.295 848.717 478.063C849.911 478.831 850.509 479.919 850.509 481.327C850.509 482.714 849.953 483.802 848.844 484.591C847.734 485.359 846.263 485.743 844.429 485.743L844.909 484.751C846.978 484.751 848.514 485.135 849.517 485.903C850.541 486.65 851.052 487.748 851.052 489.199C851.052 490.714 850.487 491.898 849.357 492.751C848.226 493.583 846.509 493.999 844.205 493.999H835.5ZM839.309 491.087H843.885C844.973 491.087 845.794 490.916 846.349 490.575C846.903 490.212 847.181 489.668 847.181 488.943C847.181 488.175 846.925 487.61 846.413 487.247C845.901 486.884 845.101 486.703 844.013 486.703H839.309V491.087ZM839.309 484.047H843.5C844.524 484.047 845.293 483.866 845.805 483.503C846.338 483.119 846.604 482.586 846.604 481.903C846.604 481.199 846.338 480.676 845.805 480.335C845.293 479.994 844.524 479.823 843.5 479.823H839.309V484.047ZM865.681 493.999V490.543L865.457 489.807V483.759C865.457 482.586 865.105 481.679 864.401 481.039C863.697 480.378 862.63 480.047 861.201 480.047C860.241 480.047 859.292 480.196 858.353 480.495C857.436 480.794 856.657 481.21 856.017 481.743L854.448 478.831C855.365 478.127 856.454 477.604 857.713 477.263C858.993 476.9 860.316 476.719 861.681 476.719C864.156 476.719 866.065 477.316 867.409 478.511C868.774 479.684 869.457 481.508 869.457 483.983V493.999H865.681ZM860.305 494.223C859.025 494.223 857.905 494.01 856.945 493.583C855.985 493.135 855.238 492.527 854.705 491.759C854.193 490.97 853.937 490.084 853.937 489.103C853.937 488.143 854.161 487.279 854.609 486.511C855.078 485.743 855.835 485.135 856.88 484.687C857.925 484.239 859.313 484.015 861.041 484.015H866V486.671H861.328C859.963 486.671 859.046 486.895 858.577 487.343C858.108 487.77 857.873 488.303 857.873 488.943C857.873 489.668 858.161 490.244 858.737 490.671C859.313 491.098 860.113 491.311 861.137 491.311C862.118 491.311 862.992 491.087 863.76 490.639C864.549 490.191 865.116 489.53 865.457 488.655L866.129 491.055C865.745 492.058 865.052 492.836 864.049 493.391C863.068 493.946 861.82 494.223 860.305 494.223ZM882.375 494.223C880.476 494.223 878.812 493.85 877.383 493.103C875.975 492.335 874.876 491.29 874.087 489.967C873.319 488.644 872.935 487.14 872.935 485.455C872.935 483.748 873.308 482.244 874.055 480.943C874.823 479.62 875.868 478.586 877.191 477.839C878.535 477.092 880.06 476.719 881.767 476.719C883.431 476.719 884.913 477.082 886.215 477.807C887.516 478.532 888.539 479.556 889.286 480.879C890.032 482.202 890.406 483.759 890.406 485.551C890.406 485.722 890.396 485.914 890.375 486.127C890.375 486.34 890.364 486.543 890.343 486.735H876.103V484.079H888.231L886.663 484.911C886.684 483.93 886.481 483.066 886.055 482.319C885.628 481.572 885.041 480.986 884.295 480.559C883.569 480.132 882.727 479.919 881.767 479.919C880.785 479.919 879.921 480.132 879.175 480.559C878.449 480.986 877.873 481.583 877.447 482.351C877.041 483.098 876.839 483.983 876.839 485.007V485.647C876.839 486.671 877.073 487.578 877.543 488.367C878.012 489.156 878.672 489.764 879.526 490.191C880.379 490.618 881.361 490.831 882.471 490.831C883.431 490.831 884.294 490.682 885.062 490.383C885.831 490.084 886.513 489.615 887.111 488.975L889.255 491.439C888.487 492.335 887.516 493.028 886.343 493.519C885.191 493.988 883.868 494.223 882.375 494.223ZM894.781 493.999V476.911H898.974L905.854 489.039H904.19L911.422 476.911H915.166L915.198 493.999H911.582V481.199L912.222 481.615L905.822 492.207H904.094L897.661 481.327L898.43 481.135V493.999H894.781ZM928.339 494.223C926.547 494.223 924.947 493.85 923.539 493.103C922.152 492.335 921.064 491.29 920.275 489.967C919.486 488.644 919.091 487.14 919.091 485.455C919.091 483.748 919.486 482.244 920.275 480.943C921.064 479.62 922.152 478.586 923.539 477.839C924.947 477.092 926.547 476.719 928.339 476.719C930.003 476.719 931.464 477.06 932.723 477.743C934.003 478.404 934.974 479.386 935.635 480.687L932.562 482.479C932.05 481.668 931.422 481.071 930.675 480.687C929.95 480.303 929.16 480.111 928.307 480.111C927.326 480.111 926.44 480.324 925.651 480.751C924.862 481.178 924.243 481.796 923.795 482.607C923.347 483.396 923.123 484.346 923.123 485.455C923.123 486.564 923.347 487.524 923.795 488.335C924.243 489.124 924.862 489.732 925.651 490.159C926.44 490.586 927.326 490.799 928.307 490.799C929.16 490.799 929.95 490.607 930.675 490.223C931.422 489.839 932.05 489.242 932.562 488.431L935.635 490.223C934.974 491.503 934.003 492.495 932.723 493.199C931.464 493.882 930.003 494.223 928.339 494.223ZM949.536 493.999V488.175L950.112 488.847H944.992C942.645 488.847 940.8 488.356 939.456 487.375C938.133 486.372 937.472 484.932 937.472 483.055C937.472 481.05 938.175 479.524 939.583 478.479C941.012 477.434 942.912 476.911 945.28 476.911H953.12V493.999H949.536ZM937.248 493.999L941.856 487.471H945.952L941.536 493.999H937.248ZM949.536 486.895V479.215L950.112 480.271H945.408C944.171 480.271 943.211 480.506 942.528 480.975C941.867 481.423 941.536 482.159 941.536 483.183C941.536 485.103 942.784 486.063 945.28 486.063H950.112L949.536 486.895Z" fill="#A1A19D"/>
<path d="M117.32 326V298H130.04C133.08 298 135.76 298.587 138.08 299.76C140.4 300.907 142.213 302.52 143.52 304.6C144.827 306.68 145.48 309.147 145.48 312C145.48 314.827 144.827 317.293 143.52 319.4C142.213 321.48 140.4 323.107 138.08 324.28C135.76 325.427 133.08 326 130.04 326H117.32ZM123.8 320.68H129.72C131.587 320.68 133.2 320.333 134.56 319.64C135.947 318.92 137.013 317.907 137.76 316.6C138.533 315.293 138.92 313.76 138.92 312C138.92 310.213 138.533 308.68 137.76 307.4C137.013 306.093 135.947 305.093 134.56 304.4C133.2 303.68 131.587 303.32 129.72 303.32H123.8V320.68ZM146.296 326L158.776 298H165.176L177.696 326H170.896L160.656 301.28H163.216L152.936 326H146.296ZM152.536 320L154.256 315.08H168.656L170.416 320H152.536ZM193.811 326.48C191.597 326.48 189.544 326.12 187.651 325.4C185.784 324.68 184.157 323.667 182.771 322.36C181.411 321.053 180.344 319.52 179.571 317.76C178.824 316 178.451 314.08 178.451 312C178.451 309.92 178.824 308 179.571 306.24C180.344 304.48 181.424 302.947 182.811 301.64C184.197 300.333 185.824 299.32 187.691 298.6C189.557 297.88 191.584 297.52 193.771 297.52C195.984 297.52 198.011 297.88 199.851 298.6C201.717 299.32 203.331 300.333 204.691 301.64C206.077 302.947 207.157 304.48 207.931 306.24C208.704 307.973 209.091 309.893 209.091 312C209.091 314.08 208.704 316.013 207.931 317.8C207.157 319.56 206.077 321.093 204.691 322.4C203.331 323.68 201.717 324.68 199.851 325.4C198.011 326.12 195.997 326.48 193.811 326.48ZM193.771 320.96C195.024 320.96 196.171 320.747 197.211 320.32C198.277 319.893 199.211 319.28 200.011 318.48C200.811 317.68 201.424 316.733 201.851 315.64C202.304 314.547 202.531 313.333 202.531 312C202.531 310.667 202.304 309.453 201.851 308.36C201.424 307.267 200.811 306.32 200.011 305.52C199.237 304.72 198.317 304.107 197.251 303.68C196.184 303.253 195.024 303.04 193.771 303.04C192.517 303.04 191.357 303.253 190.291 303.68C189.251 304.107 188.331 304.72 187.531 305.52C186.731 306.32 186.104 307.267 185.651 308.36C185.224 309.453 185.011 310.667 185.011 312C185.011 313.307 185.224 314.52 185.651 315.64C186.104 316.733 186.717 317.68 187.491 318.48C188.291 319.28 189.224 319.893 190.291 320.32C191.357 320.747 192.517 320.96 193.771 320.96ZM224.969 326V304.48H231.169V317.28L241.649 304.48H247.369V326H241.169V313.2L230.729 326H224.969ZM267.615 334.08C266.495 334.08 265.389 333.907 264.295 333.56C263.202 333.213 262.309 332.733 261.615 332.12L263.895 327.68C264.375 328.107 264.922 328.44 265.535 328.68C266.175 328.92 266.802 329.04 267.415 329.04C268.295 329.04 268.989 328.827 269.495 328.4C270.029 328 270.509 327.32 270.935 326.36L272.055 323.72L272.535 323.04L280.255 304.48H286.255L276.535 327.32C275.842 329.053 275.042 330.413 274.135 331.4C273.255 332.387 272.269 333.08 271.175 333.48C270.109 333.88 268.922 334.08 267.615 334.08ZM271.295 326.84L261.695 304.48H268.135L275.575 322.48L271.295 326.84ZM289.266 326V304.48H310.666V326H304.426V308.2L305.826 309.6H294.066L295.466 308.2V326H289.266ZM329.328 326.32C327.515 326.32 325.928 325.92 324.568 325.12C323.208 324.32 322.142 323.107 321.368 321.48C320.622 319.827 320.248 317.747 320.248 315.24C320.248 312.707 320.608 310.627 321.328 309C322.048 307.373 323.088 306.16 324.448 305.36C325.808 304.56 327.435 304.16 329.328 304.16C331.355 304.16 333.168 304.627 334.768 305.56C336.395 306.467 337.675 307.747 338.608 309.4C339.568 311.053 340.048 313 340.048 315.24C340.048 317.507 339.568 319.467 338.608 321.12C337.675 322.773 336.395 324.053 334.768 324.96C333.168 325.867 331.355 326.32 329.328 326.32ZM316.608 333.76V304.48H322.568V308.88L322.448 315.28L322.848 321.64V333.76H316.608ZM328.248 321.2C329.288 321.2 330.208 320.96 331.008 320.48C331.835 320 332.488 319.32 332.968 318.44C333.475 317.533 333.728 316.467 333.728 315.24C333.728 313.987 333.475 312.92 332.968 312.04C332.488 311.16 331.835 310.48 331.008 310C330.208 309.52 329.288 309.28 328.248 309.28C327.208 309.28 326.275 309.52 325.448 310C324.622 310.48 323.968 311.16 323.488 312.04C323.008 312.92 322.768 313.987 322.768 315.24C322.768 316.467 323.008 317.533 323.488 318.44C323.968 319.32 324.622 320 325.448 320.48C326.275 320.96 327.208 321.2 328.248 321.2ZM356.95 326V321.8L356.55 320.88V313.36C356.55 312.027 356.137 310.987 355.31 310.24C354.51 309.493 353.27 309.12 351.59 309.12C350.444 309.12 349.31 309.307 348.19 309.68C347.097 310.027 346.164 310.507 345.39 311.12L343.15 306.76C344.324 305.933 345.737 305.293 347.39 304.84C349.044 304.387 350.724 304.16 352.43 304.16C355.71 304.16 358.257 304.933 360.07 306.48C361.884 308.027 362.79 310.44 362.79 313.72V326H356.95ZM350.39 326.32C348.71 326.32 347.27 326.04 346.07 325.48C344.87 324.893 343.95 324.107 343.31 323.12C342.67 322.133 342.35 321.027 342.35 319.8C342.35 318.52 342.657 317.4 343.27 316.44C343.91 315.48 344.91 314.733 346.27 314.2C347.63 313.64 349.404 313.36 351.59 313.36H357.31V317H352.27C350.804 317 349.79 317.24 349.23 317.72C348.697 318.2 348.43 318.8 348.43 319.52C348.43 320.32 348.737 320.96 349.35 321.44C349.99 321.893 350.857 322.12 351.95 322.12C352.99 322.12 353.924 321.88 354.75 321.4C355.577 320.893 356.177 320.16 356.55 319.2L357.51 322.08C357.057 323.467 356.23 324.52 355.03 325.24C353.83 325.96 352.284 326.32 350.39 326.32ZM368.211 326V304.48H379.211C381.904 304.48 384.011 304.973 385.531 305.96C387.051 306.92 387.811 308.28 387.811 310.04C387.811 311.8 387.091 313.187 385.651 314.2C384.238 315.187 382.358 315.68 380.011 315.68L380.651 314.24C383.264 314.24 385.211 314.72 386.491 315.68C387.798 316.64 388.451 318.04 388.451 319.88C388.451 321.773 387.731 323.267 386.291 324.36C384.851 325.453 382.651 326 379.691 326H368.211ZM373.931 321.76H379.171C380.318 321.76 381.171 321.573 381.731 321.2C382.318 320.8 382.611 320.2 382.611 319.4C382.611 318.573 382.344 317.973 381.811 317.6C381.278 317.2 380.438 317 379.291 317H373.931V321.76ZM373.931 313.32H378.651C379.744 313.32 380.558 313.12 381.091 312.72C381.651 312.32 381.931 311.747 381.931 311C381.931 310.227 381.651 309.653 381.091 309.28C380.558 308.907 379.744 308.72 378.651 308.72H373.931V313.32ZM390.374 325.96L390.694 320.84C390.854 320.867 391.014 320.893 391.174 320.92C391.334 320.92 391.48 320.92 391.614 320.92C392.36 320.92 392.947 320.707 393.374 320.28C393.8 319.853 394.12 319.28 394.334 318.56C394.547 317.813 394.694 316.973 394.774 316.04C394.88 315.107 394.96 314.133 395.014 313.12L395.334 304.48H413.734V326H407.494V308.08L408.894 309.6H399.454L400.774 308L400.494 313.4C400.414 315.32 400.254 317.08 400.014 318.68C399.8 320.28 399.44 321.667 398.934 322.84C398.427 323.987 397.747 324.88 396.894 325.52C396.04 326.133 394.947 326.44 393.614 326.44C393.134 326.44 392.627 326.4 392.094 326.32C391.56 326.24 390.987 326.12 390.374 325.96ZM430.254 326.32C427.801 326.32 425.641 325.84 423.774 324.88C421.934 323.92 420.508 322.613 419.494 320.96C418.481 319.28 417.974 317.373 417.974 315.24C417.974 313.08 418.468 311.173 419.454 309.52C420.468 307.84 421.841 306.533 423.574 305.6C425.308 304.64 427.268 304.16 429.454 304.16C431.561 304.16 433.454 304.613 435.134 305.52C436.841 306.4 438.188 307.68 439.174 309.36C440.161 311.013 440.654 313 440.654 315.32C440.654 315.56 440.641 315.84 440.614 316.16C440.588 316.453 440.561 316.733 440.534 317H423.054V313.36H437.254L434.854 314.44C434.854 313.32 434.628 312.347 434.174 311.52C433.721 310.693 433.094 310.053 432.294 309.6C431.494 309.12 430.561 308.88 429.494 308.88C428.428 308.88 427.481 309.12 426.654 309.6C425.854 310.053 425.228 310.707 424.774 311.56C424.321 312.387 424.094 313.373 424.094 314.52V315.48C424.094 316.653 424.348 317.693 424.854 318.6C425.388 319.48 426.121 320.16 427.054 320.64C428.014 321.093 429.134 321.32 430.414 321.32C431.561 321.32 432.561 321.147 433.414 320.8C434.294 320.453 435.094 319.933 435.814 319.24L439.134 322.84C438.148 323.96 436.908 324.827 435.414 325.44C433.921 326.027 432.201 326.32 430.254 326.32ZM445.438 326V304.48H451.638V312.88H460.998V304.48H467.238V326H460.998V317.96H451.638V326H445.438ZM473.211 326V304.48H479.411V317.28L489.891 304.48H495.611V326H489.411V313.2L478.971 326H473.211ZM512.129 326.32C509.676 326.32 507.516 325.84 505.649 324.88C503.809 323.92 502.383 322.613 501.369 320.96C500.356 319.28 499.849 317.373 499.849 315.24C499.849 313.08 500.343 311.173 501.329 309.52C502.343 307.84 503.716 306.533 505.449 305.6C507.183 304.64 509.143 304.16 511.329 304.16C513.436 304.16 515.329 304.613 517.009 305.52C518.716 306.4 520.063 307.68 521.049 309.36C522.036 311.013 522.529 313 522.529 315.32C522.529 315.56 522.516 315.84 522.489 316.16C522.463 316.453 522.436 316.733 522.409 317H504.929V313.36H519.129L516.729 314.44C516.729 313.32 516.503 312.347 516.049 311.52C515.596 310.693 514.969 310.053 514.169 309.6C513.369 309.12 512.436 308.88 511.369 308.88C510.303 308.88 509.356 309.12 508.529 309.6C507.729 310.053 507.103 310.707 506.649 311.56C506.196 312.387 505.969 313.373 505.969 314.52V315.48C505.969 316.653 506.223 317.693 506.729 318.6C507.263 319.48 507.996 320.16 508.929 320.64C509.889 321.093 511.009 321.32 512.289 321.32C513.436 321.32 514.436 321.147 515.289 320.8C516.169 320.453 516.969 319.933 517.689 319.24L521.009 322.84C520.023 323.96 518.783 324.827 517.289 325.44C515.796 326.027 514.076 326.32 512.129 326.32Z" fill="#009D4A"/>
<path d="M170.44 240.9C161.067 240.9 151.883 239.57 142.89 236.91C134.023 234.123 126.55 230.323 120.47 225.51L130.92 206.32C135.733 210.247 141.56 213.413 148.4 215.82C155.367 218.227 162.587 219.43 170.06 219.43C178.8 219.43 185.64 217.593 190.58 213.92C195.647 210.247 198.18 205.307 198.18 199.1C198.18 194.92 197.103 191.247 194.95 188.08C192.923 184.913 189.25 182.507 183.93 180.86C178.737 179.213 171.58 178.39 162.46 178.39H130.35L137.19 106H215.28V126.71H146.31L159.23 114.93L154.1 169.08L141.18 157.49H167.97C181.143 157.49 191.72 159.263 199.7 162.81C207.807 166.23 213.697 171.043 217.37 177.25C221.17 183.33 223.07 190.297 223.07 198.15C223.07 205.877 221.17 212.97 217.37 219.43C213.57 225.89 207.743 231.083 199.89 235.01C192.163 238.937 182.347 240.9 170.44 240.9Z" fill="#009D4A"/>
</g>
<path d="M1081 11.5H95C53.8548 11.5 20.5 44.8548 20.5 86V527C20.5 568.145 53.8548 601.5 95 601.5H1081C1122.15 601.5 1155.5 568.145 1155.5 527V86C1155.5 44.8548 1122.15 11.5 1081 11.5Z" stroke="#009D4A" stroke-width="3"/>
<defs>
<filter id="filter0_f_1789_190" x="-194.2" y="-233.2" width="1048.59" height="1080.56" filterUnits="userSpaceOnUse" color-interpolation-filters="sRGB">
<feFlood flood-opacity="0" result="BackgroundImageFix"/>
<feBlend mode="normal" in="SourceGraphic" in2="BackgroundImageFix" result="shape"/>
<feGaussianBlur stdDeviation="89.35" result="effect1_foregroundBlur_1789_190"/>
</filter>
</defs>
</svg>
