<svg width="855" height="431" viewBox="0 0 855 431" fill="none" xmlns="http://www.w3.org/2000/svg">
<g clip-path="url(#clip0_1773_242)">
<rect width="855" height="431" rx="78" fill="#725252"/>
<rect x="-60" y="-7" width="915" height="438" fill="black"/>
<path d="M102.76 238.48C98.7867 238.48 95.68 237.373 93.44 235.16C91.2 232.947 90.08 229.787 90.08 225.68V210H96.56V225.44C96.56 228.107 97.1067 230.027 98.2 231.2C99.2933 232.373 100.827 232.96 102.8 232.96C104.773 232.96 106.307 232.373 107.4 231.2C108.493 230.027 109.04 228.107 109.04 225.44V210H115.44V225.68C115.44 229.787 114.32 232.947 112.08 235.16C109.84 237.373 106.733 238.48 102.76 238.48ZM135.403 238.48C133.217 238.48 131.177 238.12 129.283 237.4C127.417 236.68 125.79 235.667 124.403 234.36C123.043 233.053 121.977 231.52 121.203 229.76C120.457 228 120.083 226.08 120.083 224C120.083 221.92 120.457 220 121.203 218.24C121.977 216.48 123.057 214.947 124.443 213.64C125.83 212.333 127.457 211.32 129.323 210.6C131.19 209.88 133.217 209.52 135.403 209.52C137.617 209.52 139.643 209.88 141.483 210.6C143.35 211.32 144.963 212.333 146.323 213.64C147.71 214.92 148.79 216.44 149.563 218.2C150.337 219.96 150.723 221.893 150.723 224C150.723 226.08 150.337 228.013 149.563 229.8C148.79 231.56 147.71 233.093 146.323 234.4C144.963 235.68 143.35 236.68 141.483 237.4C139.643 238.12 137.617 238.48 135.403 238.48ZM144.563 244.44C143.47 244.44 142.43 244.32 141.443 244.08C140.483 243.84 139.523 243.453 138.563 242.92C137.63 242.387 136.643 241.667 135.603 240.76C134.59 239.853 133.483 238.733 132.283 237.4L139.083 235.68C139.803 236.667 140.47 237.453 141.083 238.04C141.697 238.627 142.283 239.04 142.843 239.28C143.43 239.52 144.043 239.64 144.683 239.64C146.39 239.64 147.91 238.947 149.243 237.56L152.123 241C150.23 243.293 147.71 244.44 144.563 244.44ZM135.403 232.96C136.657 232.96 137.803 232.747 138.843 232.32C139.91 231.893 140.843 231.28 141.643 230.48C142.443 229.68 143.057 228.733 143.483 227.64C143.937 226.52 144.163 225.307 144.163 224C144.163 222.667 143.937 221.453 143.483 220.36C143.057 219.267 142.443 218.32 141.643 217.52C140.843 216.72 139.91 216.107 138.843 215.68C137.803 215.253 136.657 215.04 135.403 215.04C134.15 215.04 132.99 215.253 131.923 215.68C130.857 216.107 129.923 216.72 129.123 217.52C128.35 218.32 127.737 219.267 127.283 220.36C126.857 221.453 126.643 222.667 126.643 224C126.643 225.307 126.857 226.52 127.283 227.64C127.737 228.733 128.35 229.68 129.123 230.48C129.923 231.28 130.857 231.893 131.923 232.32C132.99 232.747 134.15 232.96 135.403 232.96ZM168.993 238.48C166.833 238.48 164.82 238.133 162.953 237.44C161.113 236.72 159.513 235.707 158.153 234.4C156.793 233.093 155.727 231.56 154.953 229.8C154.207 228.04 153.833 226.107 153.833 224C153.833 221.893 154.207 219.96 154.953 218.2C155.727 216.44 156.793 214.907 158.153 213.6C159.54 212.293 161.153 211.293 162.993 210.6C164.833 209.88 166.847 209.52 169.033 209.52C171.46 209.52 173.647 209.947 175.593 210.8C177.567 211.627 179.22 212.853 180.553 214.48L176.393 218.32C175.433 217.227 174.367 216.413 173.193 215.88C172.02 215.32 170.74 215.04 169.353 215.04C168.047 215.04 166.847 215.253 165.753 215.68C164.66 216.107 163.713 216.72 162.913 217.52C162.113 218.32 161.487 219.267 161.033 220.36C160.607 221.453 160.393 222.667 160.393 224C160.393 225.333 160.607 226.547 161.033 227.64C161.487 228.733 162.113 229.68 162.913 230.48C163.713 231.28 164.66 231.893 165.753 232.32C166.847 232.747 168.047 232.96 169.353 232.96C170.74 232.96 172.02 232.693 173.193 232.16C174.367 231.6 175.433 230.76 176.393 229.64L180.553 233.48C179.22 235.107 177.567 236.347 175.593 237.2C173.647 238.053 171.447 238.48 168.993 238.48ZM197.572 238V233.8L197.172 232.88V225.36C197.172 224.027 196.759 222.987 195.932 222.24C195.132 221.493 193.892 221.12 192.212 221.12C191.066 221.12 189.932 221.307 188.812 221.68C187.719 222.027 186.786 222.507 186.012 223.12L183.772 218.76C184.946 217.933 186.359 217.293 188.012 216.84C189.666 216.387 191.346 216.16 193.052 216.16C196.332 216.16 198.879 216.933 200.692 218.48C202.506 220.027 203.412 222.44 203.412 225.72V238H197.572ZM191.012 238.32C189.332 238.32 187.892 238.04 186.692 237.48C185.492 236.893 184.572 236.107 183.932 235.12C183.292 234.133 182.972 233.027 182.972 231.8C182.972 230.52 183.279 229.4 183.892 228.44C184.532 227.48 185.532 226.733 186.892 226.2C188.252 225.64 190.026 225.36 192.212 225.36H197.932V229H192.892C191.426 229 190.412 229.24 189.852 229.72C189.319 230.2 189.052 230.8 189.052 231.52C189.052 232.32 189.359 232.96 189.972 233.44C190.612 233.893 191.479 234.12 192.572 234.12C193.612 234.12 194.546 233.88 195.372 233.4C196.199 232.893 196.799 232.16 197.172 231.2L198.132 234.08C197.679 235.467 196.852 236.52 195.652 237.24C194.452 237.96 192.906 238.32 191.012 238.32ZM209.5 238V210H215.98V232.72H230.02V238H209.5ZM242.723 238.48C240.483 238.48 238.336 238.187 236.283 237.6C234.23 236.987 232.576 236.2 231.323 235.24L233.523 230.36C234.723 231.213 236.136 231.92 237.763 232.48C239.416 233.013 241.083 233.28 242.763 233.28C244.043 233.28 245.07 233.16 245.843 232.92C246.643 232.653 247.23 232.293 247.603 231.84C247.976 231.387 248.163 230.867 248.163 230.28C248.163 229.533 247.87 228.947 247.283 228.52C246.696 228.067 245.923 227.707 244.963 227.44C244.003 227.147 242.936 226.88 241.763 226.64C240.616 226.373 239.456 226.053 238.283 225.68C237.136 225.307 236.083 224.827 235.123 224.24C234.163 223.653 233.376 222.88 232.763 221.92C232.176 220.96 231.883 219.733 231.883 218.24C231.883 216.64 232.31 215.187 233.163 213.88C234.043 212.547 235.35 211.493 237.083 210.72C238.843 209.92 241.043 209.52 243.683 209.52C245.443 209.52 247.176 209.733 248.883 210.16C250.59 210.56 252.096 211.173 253.403 212L251.403 216.92C250.096 216.173 248.79 215.627 247.483 215.28C246.176 214.907 244.896 214.72 243.643 214.72C242.39 214.72 241.363 214.867 240.563 215.16C239.763 215.453 239.19 215.84 238.843 216.32C238.496 216.773 238.323 217.307 238.323 217.92C238.323 218.64 238.616 219.227 239.203 219.68C239.79 220.107 240.563 220.453 241.523 220.72C242.483 220.987 243.536 221.253 244.683 221.52C245.856 221.787 247.016 222.093 248.163 222.44C249.336 222.787 250.403 223.253 251.363 223.84C252.323 224.427 253.096 225.2 253.683 226.16C254.296 227.12 254.603 228.333 254.603 229.8C254.603 231.373 254.163 232.813 253.283 234.12C252.403 235.427 251.083 236.48 249.323 237.28C247.59 238.08 245.39 238.48 242.723 238.48ZM268.711 246.08C266.684 246.08 264.724 245.827 262.831 245.32C260.964 244.84 259.404 244.107 258.151 243.12L260.631 238.64C261.538 239.387 262.684 239.973 264.071 240.4C265.484 240.853 266.871 241.08 268.231 241.08C270.444 241.08 272.044 240.587 273.031 239.6C274.044 238.613 274.551 237.147 274.551 235.2V231.96L274.951 226.56L274.871 221.12V216.48H280.791V234.4C280.791 238.4 279.751 241.347 277.671 243.24C275.591 245.133 272.604 246.08 268.711 246.08ZM267.751 236.96C265.751 236.96 263.938 236.533 262.311 235.68C260.711 234.8 259.418 233.587 258.431 232.04C257.471 230.467 256.991 228.64 256.991 226.56C256.991 224.453 257.471 222.627 258.431 221.08C259.418 219.507 260.711 218.293 262.311 217.44C263.938 216.587 265.751 216.16 267.751 216.16C269.564 216.16 271.164 216.533 272.551 217.28C273.938 218 275.018 219.133 275.791 220.68C276.564 222.2 276.951 224.16 276.951 226.56C276.951 228.933 276.564 230.893 275.791 232.44C275.018 233.96 273.938 235.093 272.551 235.84C271.164 236.587 269.564 236.96 267.751 236.96ZM268.991 231.84C270.084 231.84 271.058 231.627 271.911 231.2C272.764 230.747 273.431 230.12 273.911 229.32C274.391 228.52 274.631 227.6 274.631 226.56C274.631 225.493 274.391 224.573 273.911 223.8C273.431 223 272.764 222.387 271.911 221.96C271.058 221.507 270.084 221.28 268.991 221.28C267.898 221.28 266.924 221.507 266.071 221.96C265.218 222.387 264.538 223 264.031 223.8C263.551 224.573 263.311 225.493 263.311 226.56C263.311 227.6 263.551 228.52 264.031 229.32C264.538 230.12 265.218 230.747 266.071 231.2C266.924 231.627 267.898 231.84 268.991 231.84ZM291.759 233.6L291.919 226L301.959 216.48H309.399L299.759 226.28L296.519 228.92L291.759 233.6ZM286.599 238V208.32H292.839V238H286.599ZM302.639 238L295.359 228.96L299.279 224.12L310.199 238H302.639ZM319.542 238.32C317.702 238.32 315.929 238.107 314.222 237.68C312.542 237.227 311.209 236.667 310.222 236L312.302 231.52C313.289 232.133 314.449 232.64 315.782 233.04C317.142 233.413 318.475 233.6 319.782 233.6C321.222 233.6 322.235 233.427 322.822 233.08C323.435 232.733 323.742 232.253 323.742 231.64C323.742 231.133 323.502 230.76 323.022 230.52C322.569 230.253 321.955 230.053 321.182 229.92C320.409 229.787 319.555 229.653 318.622 229.52C317.715 229.387 316.795 229.213 315.862 229C314.929 228.76 314.075 228.413 313.302 227.96C312.529 227.507 311.902 226.893 311.422 226.12C310.969 225.347 310.742 224.347 310.742 223.12C310.742 221.76 311.129 220.56 311.902 219.52C312.702 218.48 313.849 217.667 315.342 217.08C316.835 216.467 318.622 216.16 320.702 216.16C322.169 216.16 323.662 216.32 325.182 216.64C326.702 216.96 327.969 217.427 328.982 218.04L326.902 222.48C325.862 221.867 324.809 221.453 323.742 221.24C322.702 221 321.689 220.88 320.702 220.88C319.315 220.88 318.302 221.067 317.662 221.44C317.022 221.813 316.702 222.293 316.702 222.88C316.702 223.413 316.929 223.813 317.382 224.08C317.862 224.347 318.489 224.56 319.262 224.72C320.035 224.88 320.875 225.027 321.782 225.16C322.715 225.267 323.649 225.44 324.582 225.68C325.515 225.92 326.355 226.267 327.102 226.72C327.875 227.147 328.502 227.747 328.982 228.52C329.462 229.267 329.702 230.253 329.702 231.48C329.702 232.813 329.302 234 328.502 235.04C327.702 236.053 326.542 236.853 325.022 237.44C323.529 238.027 321.702 238.32 319.542 238.32ZM343.832 238.48C341.485 238.48 339.432 238.133 337.672 237.44C335.912 236.72 334.539 235.72 333.552 234.44C332.565 233.133 332.072 231.613 332.072 229.88C332.072 228.147 332.552 226.68 333.512 225.48C334.499 224.253 335.872 223.333 337.632 222.72C339.392 222.08 341.459 221.76 343.832 221.76C346.232 221.76 348.312 222.08 350.072 222.72C351.859 223.333 353.232 224.253 354.192 225.48C355.179 226.68 355.672 228.147 355.672 229.88C355.672 231.613 355.179 233.133 354.192 234.44C353.205 235.72 351.819 236.72 350.032 237.44C348.272 238.133 346.205 238.48 343.832 238.48ZM343.832 233.72C345.459 233.72 346.739 233.36 347.672 232.64C348.632 231.92 349.112 230.933 349.112 229.68C349.112 228.427 348.632 227.453 347.672 226.76C346.739 226.04 345.459 225.68 343.832 225.68C342.232 225.68 340.965 226.04 340.032 226.76C339.099 227.453 338.632 228.427 338.632 229.68C338.632 230.933 339.099 231.92 340.032 232.64C340.965 233.36 342.232 233.72 343.832 233.72ZM343.832 225.04C341.672 225.04 339.779 224.747 338.152 224.16C336.552 223.573 335.299 222.72 334.392 221.6C333.512 220.453 333.072 219.093 333.072 217.52C333.072 215.867 333.525 214.453 334.432 213.28C335.339 212.08 336.605 211.16 338.232 210.52C339.859 209.853 341.725 209.52 343.832 209.52C345.992 209.52 347.872 209.853 349.472 210.52C351.099 211.16 352.365 212.08 353.272 213.28C354.205 214.453 354.672 215.867 354.672 217.52C354.672 219.093 354.219 220.453 353.312 221.6C352.432 222.72 351.179 223.573 349.552 224.16C347.925 224.747 346.019 225.04 343.832 225.04ZM343.832 221.24C345.192 221.24 346.259 220.933 347.032 220.32C347.832 219.707 348.232 218.867 348.232 217.8C348.232 216.68 347.819 215.813 346.992 215.2C346.192 214.587 345.139 214.28 343.832 214.28C342.552 214.28 341.512 214.587 340.712 215.2C339.912 215.813 339.512 216.68 339.512 217.8C339.512 218.867 339.899 219.707 340.672 220.32C341.445 220.933 342.499 221.24 343.832 221.24ZM365.118 233.6L365.278 226L375.318 216.48H382.758L373.118 226.28L369.878 228.92L365.118 233.6ZM359.958 238V208.32H366.198V238H359.958ZM375.998 238L368.718 228.96L372.638 224.12L383.558 238H375.998ZM393.329 238L384.169 210H390.889L398.849 234.8H395.489L403.809 210H409.809L417.809 234.8H414.569L422.729 210H428.929L419.769 238H412.809L405.729 216.24H407.569L400.289 238H393.329ZM439.665 238.32C437.638 238.32 435.812 237.867 434.185 236.96C432.558 236.053 431.265 234.773 430.305 233.12C429.372 231.467 428.905 229.507 428.905 227.24C428.905 225 429.372 223.053 430.305 221.4C431.265 219.747 432.558 218.467 434.185 217.56C435.812 216.627 437.638 216.16 439.665 216.16C441.558 216.16 443.172 216.56 444.505 217.36C445.865 218.16 446.905 219.373 447.625 221C448.345 222.627 448.705 224.707 448.705 227.24C448.705 229.747 448.332 231.827 447.585 233.48C446.838 235.107 445.785 236.32 444.425 237.12C443.065 237.92 441.478 238.32 439.665 238.32ZM440.745 233.2C441.758 233.2 442.678 232.96 443.505 232.48C444.332 232 444.985 231.32 445.465 230.44C445.972 229.533 446.225 228.467 446.225 227.24C446.225 225.987 445.972 224.92 445.465 224.04C444.985 223.16 444.332 222.48 443.505 222C442.678 221.52 441.758 221.28 440.745 221.28C439.705 221.28 438.772 221.52 437.945 222C437.118 222.48 436.452 223.16 435.945 224.04C435.465 224.92 435.225 225.987 435.225 227.24C435.225 228.467 435.465 229.533 435.945 230.44C436.452 231.32 437.118 232 437.945 232.48C438.772 232.96 439.705 233.2 440.745 233.2ZM446.105 245.76V233.64L446.505 227.28L446.385 220.88V216.48H452.345V245.76H446.105ZM472.082 238.48C469.869 238.48 467.829 238.133 465.962 237.44C464.122 236.72 462.509 235.707 461.122 234.4C459.762 233.093 458.696 231.56 457.922 229.8C457.176 228.04 456.802 226.107 456.802 224C456.802 221.893 457.176 219.96 457.922 218.2C458.696 216.44 459.776 214.907 461.162 213.6C462.549 212.293 464.176 211.293 466.042 210.6C467.909 209.88 469.962 209.52 472.202 209.52C474.682 209.52 476.909 209.933 478.882 210.76C480.882 211.587 482.562 212.787 483.922 214.36L479.762 218.2C478.749 217.133 477.642 216.347 476.442 215.84C475.242 215.307 473.936 215.04 472.522 215.04C471.162 215.04 469.922 215.253 468.802 215.68C467.682 216.107 466.709 216.72 465.882 217.52C465.082 218.32 464.456 219.267 464.002 220.36C463.576 221.453 463.362 222.667 463.362 224C463.362 225.307 463.576 226.507 464.002 227.6C464.456 228.693 465.082 229.653 465.882 230.48C466.709 231.28 467.669 231.893 468.762 232.32C469.882 232.747 471.109 232.96 472.442 232.96C473.722 232.96 474.962 232.76 476.162 232.36C477.389 231.933 478.576 231.227 479.722 230.24L483.402 234.92C481.882 236.067 480.109 236.947 478.082 237.56C476.082 238.173 474.082 238.48 472.082 238.48ZM477.482 234.08V223.56H483.402V234.92L477.482 234.08ZM487.382 246.08C486.422 246.08 485.502 245.973 484.622 245.76C483.742 245.573 482.995 245.28 482.382 244.88L484.062 240.36C484.782 240.867 485.662 241.12 486.702 241.12C487.475 241.12 488.088 240.853 488.542 240.32C489.022 239.813 489.262 239.04 489.262 238V216.48H495.502V237.96C495.502 240.44 494.795 242.413 493.382 243.88C491.968 245.347 489.968 246.08 487.382 246.08ZM492.382 213.48C491.235 213.48 490.302 213.147 489.582 212.48C488.862 211.813 488.502 210.987 488.502 210C488.502 209.013 488.862 208.187 489.582 207.52C490.302 206.853 491.235 206.52 492.382 206.52C493.528 206.52 494.462 206.84 495.182 207.48C495.902 208.093 496.262 208.893 496.262 209.88C496.262 210.92 495.902 211.787 495.182 212.48C494.488 213.147 493.555 213.48 492.382 213.48ZM511.647 238.32C509.327 238.32 507.261 237.853 505.447 236.92C503.634 235.96 502.207 234.64 501.167 232.96C500.154 231.28 499.647 229.373 499.647 227.24C499.647 225.08 500.154 223.173 501.167 221.52C502.207 219.84 503.634 218.533 505.447 217.6C507.261 216.64 509.327 216.16 511.647 216.16C513.914 216.16 515.887 216.64 517.567 217.6C519.247 218.533 520.487 219.88 521.287 221.64L516.447 224.24C515.887 223.227 515.181 222.48 514.327 222C513.501 221.52 512.594 221.28 511.607 221.28C510.541 221.28 509.581 221.52 508.727 222C507.874 222.48 507.194 223.16 506.687 224.04C506.207 224.92 505.967 225.987 505.967 227.24C505.967 228.493 506.207 229.56 506.687 230.44C507.194 231.32 507.874 232 508.727 232.48C509.581 232.96 510.541 233.2 511.607 233.2C512.594 233.2 513.501 232.973 514.327 232.52C515.181 232.04 515.887 231.28 516.447 230.24L521.287 232.88C520.487 234.613 519.247 235.96 517.567 236.92C515.887 237.853 513.914 238.32 511.647 238.32ZM529.488 238L521.728 216.48H527.608L534.048 235H531.248L537.968 216.48H543.248L549.768 235H546.968L553.608 216.48H559.128L551.328 238H545.288L539.568 222.12H541.408L535.488 238H529.488ZM562.468 238V210H567.828L584.348 230.16H581.748V210H588.148V238H582.828L566.268 217.84H568.868V238H562.468ZM592.733 246.08C591.773 246.08 590.853 245.973 589.973 245.76C589.093 245.573 588.346 245.28 587.733 244.88L589.413 240.36C590.133 240.867 591.013 241.12 592.053 241.12C592.826 241.12 593.44 240.853 593.893 240.32C594.373 239.813 594.613 239.04 594.613 238V216.48H600.853V237.96C600.853 240.44 600.146 242.413 598.733 243.88C597.32 245.347 595.32 246.08 592.733 246.08ZM597.733 213.48C596.586 213.48 595.653 213.147 594.933 212.48C594.213 211.813 593.853 210.987 593.853 210C593.853 209.013 594.213 208.187 594.933 207.52C595.653 206.853 596.586 206.52 597.733 206.52C598.88 206.52 599.813 206.84 600.533 207.48C601.253 208.093 601.613 208.893 601.613 209.88C601.613 210.92 601.253 211.787 600.533 212.48C599.84 213.147 598.906 213.48 597.733 213.48ZM615.887 238.48C613.647 238.48 611.501 238.187 609.447 237.6C607.394 236.987 605.741 236.2 604.487 235.24L606.687 230.36C607.887 231.213 609.301 231.92 610.927 232.48C612.581 233.013 614.247 233.28 615.927 233.28C617.207 233.28 618.234 233.16 619.007 232.92C619.807 232.653 620.394 232.293 620.767 231.84C621.141 231.387 621.327 230.867 621.327 230.28C621.327 229.533 621.034 228.947 620.447 228.52C619.861 228.067 619.087 227.707 618.127 227.44C617.167 227.147 616.101 226.88 614.927 226.64C613.781 226.373 612.621 226.053 611.447 225.68C610.301 225.307 609.247 224.827 608.287 224.24C607.327 223.653 606.541 222.88 605.927 221.92C605.341 220.96 605.047 219.733 605.047 218.24C605.047 216.64 605.474 215.187 606.327 213.88C607.207 212.547 608.514 211.493 610.247 210.72C612.007 209.92 614.207 209.52 616.847 209.52C618.607 209.52 620.341 209.733 622.047 210.16C623.754 210.56 625.261 211.173 626.567 212L624.567 216.92C623.261 216.173 621.954 215.627 620.647 215.28C619.341 214.907 618.061 214.72 616.807 214.72C615.554 214.72 614.527 214.867 613.727 215.16C612.927 215.453 612.354 215.84 612.007 216.32C611.661 216.773 611.487 217.307 611.487 217.92C611.487 218.64 611.781 219.227 612.367 219.68C612.954 220.107 613.727 220.453 614.687 220.72C615.647 220.987 616.701 221.253 617.847 221.52C619.021 221.787 620.181 222.093 621.327 222.44C622.501 222.787 623.567 223.253 624.527 223.84C625.487 224.427 626.261 225.2 626.847 226.16C627.461 227.12 627.767 228.333 627.767 229.8C627.767 231.373 627.327 232.813 626.447 234.12C625.567 235.427 624.247 236.48 622.487 237.28C620.754 238.08 618.554 238.48 615.887 238.48ZM642.435 238.32C639.982 238.32 637.822 237.84 635.955 236.88C634.115 235.92 632.688 234.613 631.675 232.96C630.662 231.28 630.155 229.373 630.155 227.24C630.155 225.08 630.648 223.173 631.635 221.52C632.648 219.84 634.022 218.533 635.755 217.6C637.488 216.64 639.448 216.16 641.635 216.16C643.742 216.16 645.635 216.613 647.315 217.52C649.022 218.4 650.368 219.68 651.355 221.36C652.342 223.013 652.835 225 652.835 227.32C652.835 227.56 652.822 227.84 652.795 228.16C652.768 228.453 652.742 228.733 652.715 229H635.235V225.36H649.435L647.035 226.44C647.035 225.32 646.808 224.347 646.355 223.52C645.902 222.693 645.275 222.053 644.475 221.6C643.675 221.12 642.742 220.88 641.675 220.88C640.608 220.88 639.662 221.12 638.835 221.6C638.035 222.053 637.408 222.707 636.955 223.56C636.502 224.387 636.275 225.373 636.275 226.52V227.48C636.275 228.653 636.528 229.693 637.035 230.6C637.568 231.48 638.302 232.16 639.235 232.64C640.195 233.093 641.315 233.32 642.595 233.32C643.742 233.32 644.742 233.147 645.595 232.8C646.475 232.453 647.275 231.933 647.995 231.24L651.315 234.84C650.328 235.96 649.088 236.827 647.595 237.44C646.102 238.027 644.382 238.32 642.435 238.32ZM659.349 238.32C658.283 238.32 657.363 237.96 656.589 237.24C655.843 236.493 655.469 235.547 655.469 234.4C655.469 233.253 655.843 232.333 656.589 231.64C657.363 230.92 658.283 230.56 659.349 230.56C660.443 230.56 661.363 230.92 662.109 231.64C662.856 232.333 663.229 233.253 663.229 234.4C663.229 235.547 662.856 236.493 662.109 237.24C661.363 237.96 660.443 238.32 659.349 238.32ZM669.818 238.32C668.751 238.32 667.831 237.96 667.058 237.24C666.311 236.493 665.938 235.547 665.938 234.4C665.938 233.253 666.311 232.333 667.058 231.64C667.831 230.92 668.751 230.56 669.818 230.56C670.911 230.56 671.831 230.92 672.578 231.64C673.325 232.333 673.698 233.253 673.698 234.4C673.698 235.547 673.325 236.493 672.578 237.24C671.831 237.96 670.911 238.32 669.818 238.32ZM680.287 238.32C679.22 238.32 678.3 237.96 677.527 237.24C676.78 236.493 676.407 235.547 676.407 234.4C676.407 233.253 676.78 232.333 677.527 231.64C678.3 230.92 679.22 230.56 680.287 230.56C681.38 230.56 682.3 230.92 683.047 231.64C683.794 232.333 684.167 233.253 684.167 234.4C684.167 235.547 683.794 236.493 683.047 237.24C682.3 237.96 681.38 238.32 680.287 238.32Z" fill="#244ED8"/>
<rect x="87" y="62" width="477" height="97" rx="48.5" fill="#1C1917"/>
<path d="M138.16 100.6H140.496V123H138.16V100.6ZM124.144 123H121.776V100.6H124.144V123ZM138.384 112.664H123.888V110.584H138.384V112.664ZM154.713 123.16C152.964 123.16 151.428 122.797 150.105 122.072C148.783 121.325 147.748 120.312 147.001 119.032C146.255 117.731 145.881 116.248 145.881 114.584C145.881 112.92 146.233 111.448 146.937 110.168C147.663 108.888 148.644 107.885 149.881 107.16C151.14 106.413 152.548 106.04 154.105 106.04C155.684 106.04 157.081 106.403 158.297 107.128C159.535 107.832 160.505 108.835 161.209 110.136C161.913 111.416 162.265 112.899 162.265 114.584C162.265 114.691 162.255 114.808 162.233 114.936C162.233 115.043 162.233 115.16 162.233 115.288H147.609V113.592H161.017L160.121 114.264C160.121 113.048 159.855 111.971 159.321 111.032C158.809 110.072 158.105 109.325 157.209 108.792C156.313 108.259 155.279 107.992 154.105 107.992C152.953 107.992 151.919 108.259 151.001 108.792C150.084 109.325 149.369 110.072 148.857 111.032C148.345 111.992 148.089 113.091 148.089 114.328V114.68C148.089 115.96 148.367 117.091 148.921 118.072C149.497 119.032 150.287 119.789 151.289 120.344C152.313 120.877 153.476 121.144 154.777 121.144C155.801 121.144 156.751 120.963 157.625 120.6C158.521 120.237 159.289 119.683 159.929 118.936L161.209 120.408C160.463 121.304 159.524 121.987 158.393 122.456C157.284 122.925 156.057 123.16 154.713 123.16ZM167.295 123V106.2H182.399V123H180.127V107.576L180.703 108.184H168.991L169.567 107.576V123H167.295ZM197.529 123.16C196.078 123.16 194.766 122.829 193.593 122.168C192.42 121.485 191.481 120.515 190.777 119.256C190.094 117.976 189.753 116.419 189.753 114.584C189.753 112.749 190.094 111.203 190.777 109.944C191.46 108.664 192.388 107.693 193.561 107.032C194.734 106.371 196.057 106.04 197.529 106.04C199.129 106.04 200.558 106.403 201.817 107.128C203.097 107.832 204.1 108.835 204.825 110.136C205.55 111.416 205.913 112.899 205.913 114.584C205.913 116.291 205.55 117.784 204.825 119.064C204.1 120.344 203.097 121.347 201.817 122.072C200.558 122.797 199.129 123.16 197.529 123.16ZM188.857 129.208V106.2H191.033V111.256L190.809 114.616L191.129 118.008V129.208H188.857ZM197.369 121.144C198.564 121.144 199.63 120.877 200.569 120.344C201.508 119.789 202.254 119.021 202.809 118.04C203.364 117.037 203.641 115.885 203.641 114.584C203.641 113.283 203.364 112.141 202.809 111.16C202.254 110.179 201.508 109.411 200.569 108.856C199.63 108.301 198.564 108.024 197.369 108.024C196.174 108.024 195.097 108.301 194.137 108.856C193.198 109.411 192.452 110.179 191.897 111.16C191.364 112.141 191.097 113.283 191.097 114.584C191.097 115.885 191.364 117.037 191.897 118.04C192.452 119.021 193.198 119.789 194.137 120.344C195.097 120.877 196.174 121.144 197.369 121.144ZM217.995 123.16C216.245 123.16 214.709 122.797 213.387 122.072C212.064 121.325 211.029 120.312 210.283 119.032C209.536 117.731 209.163 116.248 209.163 114.584C209.163 112.92 209.515 111.448 210.219 110.168C210.944 108.888 211.925 107.885 213.163 107.16C214.421 106.413 215.829 106.04 217.387 106.04C218.965 106.04 220.363 106.403 221.579 107.128C222.816 107.832 223.787 108.835 224.491 110.136C225.195 111.416 225.547 112.899 225.547 114.584C225.547 114.691 225.536 114.808 225.515 114.936C225.515 115.043 225.515 115.16 225.515 115.288H210.891V113.592H224.299L223.403 114.264C223.403 113.048 223.136 111.971 222.603 111.032C222.091 110.072 221.387 109.325 220.491 108.792C219.595 108.259 218.56 107.992 217.387 107.992C216.235 107.992 215.2 108.259 214.283 108.792C213.365 109.325 212.651 110.072 212.139 111.032C211.627 111.992 211.371 113.091 211.371 114.328V114.68C211.371 115.96 211.648 117.091 212.203 118.072C212.779 119.032 213.568 119.789 214.571 120.344C215.595 120.877 216.757 121.144 218.059 121.144C219.083 121.144 220.032 120.963 220.907 120.6C221.803 120.237 222.571 119.683 223.211 118.936L224.491 120.408C223.744 121.304 222.805 121.987 221.675 122.456C220.565 122.925 219.339 123.16 217.995 123.16ZM241.752 121.912V108.184H233.656L233.464 111.928C233.421 113.059 233.347 114.168 233.24 115.256C233.155 116.344 232.995 117.347 232.76 118.264C232.547 119.16 232.237 119.896 231.832 120.472C231.427 121.027 230.904 121.347 230.264 121.432L227.992 121.016C228.653 121.037 229.197 120.803 229.624 120.312C230.051 119.8 230.381 119.107 230.616 118.232C230.851 117.357 231.021 116.365 231.128 115.256C231.235 114.125 231.32 112.973 231.384 111.8L231.608 106.2H244.024V121.912H241.752ZM227.288 127.064V121.016H246.648V127.064H244.504V123H229.432V127.064H227.288ZM251.076 123V106.2H258.5C260.398 106.2 261.892 106.563 262.98 107.288C264.089 108.013 264.644 109.08 264.644 110.488C264.644 111.853 264.121 112.909 263.076 113.656C262.03 114.381 260.654 114.744 258.948 114.744L259.396 114.072C261.401 114.072 262.873 114.445 263.812 115.192C264.75 115.939 265.22 117.016 265.22 118.424C265.22 119.875 264.686 121.005 263.62 121.816C262.574 122.605 260.942 123 258.724 123H251.076ZM253.284 121.208H258.628C260.057 121.208 261.134 120.984 261.86 120.536C262.606 120.067 262.98 119.32 262.98 118.296C262.98 117.272 262.649 116.525 261.988 116.056C261.326 115.587 260.281 115.352 258.852 115.352H253.284V121.208ZM253.284 113.656H258.34C259.641 113.656 260.633 113.411 261.316 112.92C262.02 112.429 262.372 111.715 262.372 110.776C262.372 109.837 262.02 109.133 261.316 108.664C260.633 108.195 259.641 107.96 258.34 107.96H253.284V113.656ZM270.545 123V106.2H272.817V119.544L284.049 106.2H286.065V123H283.793V109.624L272.593 123H270.545ZM304.096 121.912V108.184H296L295.808 111.928C295.765 113.059 295.69 114.168 295.584 115.256C295.498 116.344 295.338 117.347 295.104 118.264C294.89 119.16 294.581 119.896 294.176 120.472C293.77 121.027 293.248 121.347 292.608 121.432L290.336 121.016C290.997 121.037 291.541 120.803 291.968 120.312C292.394 119.8 292.725 119.107 292.96 118.232C293.194 117.357 293.365 116.365 293.472 115.256C293.578 114.125 293.664 112.973 293.728 111.8L293.952 106.2H306.368V121.912H304.096ZM289.632 127.064V121.016H308.992V127.064H306.848V123H291.776V127.064H289.632ZM320.62 123.16C318.87 123.16 317.334 122.797 316.012 122.072C314.689 121.325 313.654 120.312 312.908 119.032C312.161 117.731 311.788 116.248 311.788 114.584C311.788 112.92 312.14 111.448 312.844 110.168C313.569 108.888 314.55 107.885 315.788 107.16C317.046 106.413 318.454 106.04 320.012 106.04C321.59 106.04 322.988 106.403 324.204 107.128C325.441 107.832 326.412 108.835 327.116 110.136C327.82 111.416 328.172 112.899 328.172 114.584C328.172 114.691 328.161 114.808 328.14 114.936C328.14 115.043 328.14 115.16 328.14 115.288H313.516V113.592H326.924L326.028 114.264C326.028 113.048 325.761 111.971 325.228 111.032C324.716 110.072 324.012 109.325 323.116 108.792C322.22 108.259 321.185 107.992 320.012 107.992C318.86 107.992 317.825 108.259 316.908 108.792C315.99 109.325 315.276 110.072 314.764 111.032C314.252 111.992 313.996 113.091 313.996 114.328V114.68C313.996 115.96 314.273 117.091 314.828 118.072C315.404 119.032 316.193 119.789 317.196 120.344C318.22 120.877 319.382 121.144 320.684 121.144C321.708 121.144 322.657 120.963 323.532 120.6C324.428 120.237 325.196 119.683 325.836 118.936L327.116 120.408C326.369 121.304 325.43 121.987 324.3 122.456C323.19 122.925 321.964 123.16 320.62 123.16ZM333.201 123V106.2H335.473V113.624H346.065V106.2H348.337V123H346.065V115.576H335.473V123H333.201ZM354.795 123V106.2H357.067V113.624H367.659V106.2H369.931V123H367.659V115.576H357.067V123H354.795ZM392.772 123V106.2H395.044V123H392.772ZM383.46 112.12C385.572 112.141 387.183 112.611 388.292 113.528C389.402 114.445 389.956 115.768 389.956 117.496C389.956 119.288 389.359 120.664 388.164 121.624C386.97 122.584 385.263 123.053 383.044 123.032L376.388 123V106.2H378.66V112.056L383.46 112.12ZM382.884 121.304C384.463 121.325 385.647 121.016 386.436 120.376C387.247 119.715 387.652 118.755 387.652 117.496C387.652 116.237 387.258 115.32 386.468 114.744C385.679 114.147 384.484 113.837 382.884 113.816L378.66 113.752V121.24L382.884 121.304ZM408.713 123.16C406.964 123.16 405.428 122.797 404.105 122.072C402.783 121.325 401.748 120.312 401.001 119.032C400.255 117.731 399.881 116.248 399.881 114.584C399.881 112.92 400.233 111.448 400.937 110.168C401.663 108.888 402.644 107.885 403.881 107.16C405.14 106.413 406.548 106.04 408.105 106.04C409.684 106.04 411.081 106.403 412.297 107.128C413.535 107.832 414.505 108.835 415.209 110.136C415.913 111.416 416.265 112.899 416.265 114.584C416.265 114.691 416.255 114.808 416.233 114.936C416.233 115.043 416.233 115.16 416.233 115.288H401.609V113.592H415.017L414.121 114.264C414.121 113.048 413.855 111.971 413.321 111.032C412.809 110.072 412.105 109.325 411.209 108.792C410.313 108.259 409.279 107.992 408.105 107.992C406.953 107.992 405.919 108.259 405.001 108.792C404.084 109.325 403.369 110.072 402.857 111.032C402.345 111.992 402.089 113.091 402.089 114.328V114.68C402.089 115.96 402.367 117.091 402.921 118.072C403.497 119.032 404.287 119.789 405.289 120.344C406.313 120.877 407.476 121.144 408.777 121.144C409.801 121.144 410.751 120.963 411.625 120.6C412.521 120.237 413.289 119.683 413.929 118.936L415.209 120.408C414.463 121.304 413.524 121.987 412.393 122.456C411.284 122.925 410.057 123.16 408.713 123.16ZM429.67 123V106.2H431.942V113.624H442.534V106.2H444.806V123H442.534V115.576H431.942V123H429.67ZM451.551 129.368C450.762 129.368 450.005 129.24 449.279 128.984C448.575 128.728 447.967 128.344 447.455 127.832L448.511 126.136C448.938 126.541 449.397 126.851 449.887 127.064C450.399 127.299 450.965 127.416 451.583 127.416C452.33 127.416 452.97 127.203 453.503 126.776C454.058 126.371 454.581 125.645 455.071 124.6L456.159 122.136L456.415 121.784L463.327 106.2H465.567L457.151 125.016C456.682 126.104 456.159 126.968 455.583 127.608C455.029 128.248 454.421 128.696 453.759 128.952C453.098 129.229 452.362 129.368 451.551 129.368ZM456.031 123.48L448.287 106.2H450.655L457.503 121.624L456.031 123.48ZM488.074 123L482.314 114.68L484.202 113.56L490.794 123H488.074ZM478.538 115.512V113.56H483.85V115.512H478.538ZM484.426 114.84L482.25 114.52L487.85 106.2H490.314L484.426 114.84ZM468.17 123H465.45L472.042 113.56L473.898 114.68L468.17 123ZM479.242 123H476.97V106.2H479.242V123ZM477.674 115.512H472.394V113.56H477.674V115.512ZM471.85 114.84L465.93 106.2H468.394L473.962 114.52L471.85 114.84ZM506.096 121.912V108.184H498L497.808 111.928C497.765 113.059 497.69 114.168 497.584 115.256C497.498 116.344 497.338 117.347 497.104 118.264C496.89 119.16 496.581 119.896 496.176 120.472C495.77 121.027 495.248 121.347 494.608 121.432L492.336 121.016C492.997 121.037 493.541 120.803 493.968 120.312C494.394 119.8 494.725 119.107 494.96 118.232C495.194 117.357 495.365 116.365 495.472 115.256C495.578 114.125 495.664 112.973 495.728 111.8L495.952 106.2H508.368V121.912H506.096ZM491.632 127.064V121.016H510.992V127.064H508.848V123H493.776V127.064H491.632ZM531.804 123V106.2H534.076V123H531.804ZM522.492 112.12C524.604 112.141 526.214 112.611 527.324 113.528C528.433 114.445 528.988 115.768 528.988 117.496C528.988 119.288 528.39 120.664 527.196 121.624C526.001 122.584 524.294 123.053 522.076 123.032L515.42 123V106.2H517.692V112.056L522.492 112.12ZM521.916 121.304C523.494 121.325 524.678 121.016 525.468 120.376C526.278 119.715 526.684 118.755 526.684 117.496C526.684 116.237 526.289 115.32 525.5 114.744C524.71 114.147 523.516 113.837 521.916 113.816L517.692 113.752V121.24L521.916 121.304Z" fill="#244ED8"/>
<path d="M87 350L108.154 320.845L113.923 341.67L132 311" stroke="#009D4A" stroke-width="4" stroke-linecap="round"/>
<path d="M157.056 349V318.28L160.416 321.64H150.336V315.4H164.832V349H157.056ZM170.381 349V343.96L183.341 331.72C184.365 330.792 185.117 329.96 185.597 329.224C186.077 328.488 186.397 327.816 186.557 327.208C186.749 326.6 186.845 326.04 186.845 325.528C186.845 324.184 186.381 323.16 185.453 322.456C184.557 321.72 183.229 321.352 181.469 321.352C180.061 321.352 178.749 321.624 177.533 322.168C176.349 322.712 175.341 323.56 174.509 324.712L168.845 321.064C170.125 319.144 171.917 317.624 174.221 316.504C176.525 315.384 179.181 314.824 182.189 314.824C184.685 314.824 186.861 315.24 188.717 316.072C190.605 316.872 192.061 318.008 193.085 319.48C194.141 320.952 194.669 322.712 194.669 324.76C194.669 325.848 194.525 326.936 194.237 328.024C193.981 329.08 193.437 330.2 192.605 331.384C191.805 332.568 190.621 333.896 189.053 335.368L178.301 345.496L176.813 342.664H195.773V349H170.381ZM203.866 349.384C202.586 349.384 201.482 348.952 200.554 348.088C199.658 347.192 199.21 346.056 199.21 344.68C199.21 343.304 199.658 342.2 200.554 341.368C201.482 340.504 202.586 340.072 203.866 340.072C205.178 340.072 206.282 340.504 207.178 341.368C208.074 342.2 208.522 343.304 208.522 344.68C208.522 346.056 208.074 347.192 207.178 348.088C206.282 348.952 205.178 349.384 203.866 349.384ZM226.427 349.576C223.355 349.576 220.683 348.936 218.411 347.656C216.171 346.376 214.443 344.504 213.227 342.04C212.011 339.576 211.403 336.536 211.403 332.92C211.403 329.048 212.123 325.768 213.563 323.08C215.035 320.392 217.051 318.344 219.611 316.936C222.203 315.528 225.179 314.824 228.539 314.824C230.331 314.824 232.043 315.016 233.675 315.4C235.307 315.784 236.715 316.36 237.899 317.128L235.019 322.84C234.091 322.2 233.099 321.768 232.043 321.544C230.987 321.288 229.883 321.16 228.731 321.16C225.819 321.16 223.515 322.04 221.819 323.8C220.123 325.56 219.275 328.168 219.275 331.624C219.275 332.2 219.275 332.84 219.275 333.544C219.307 334.248 219.403 334.952 219.563 335.656L217.403 333.64C218.011 332.392 218.795 331.352 219.755 330.52C220.715 329.656 221.851 329.016 223.163 328.6C224.507 328.152 225.979 327.928 227.579 327.928C229.755 327.928 231.707 328.36 233.435 329.224C235.163 330.088 236.539 331.304 237.563 332.872C238.619 334.44 239.147 336.28 239.147 338.392C239.147 340.664 238.571 342.648 237.419 344.344C236.299 346.008 234.779 347.304 232.859 348.232C230.971 349.128 228.827 349.576 226.427 349.576ZM225.995 343.768C227.083 343.768 228.043 343.576 228.875 343.192C229.739 342.776 230.411 342.184 230.891 341.416C231.371 340.648 231.611 339.768 231.611 338.776C231.611 337.24 231.083 336.024 230.027 335.128C229.003 334.2 227.627 333.736 225.899 333.736C224.747 333.736 223.739 333.96 222.875 334.408C222.011 334.824 221.323 335.416 220.811 336.184C220.331 336.92 220.091 337.784 220.091 338.776C220.091 339.736 220.331 340.6 220.811 341.368C221.291 342.104 221.963 342.696 222.827 343.144C223.691 343.56 224.747 343.768 225.995 343.768ZM255.886 349.576C253.07 349.576 250.606 349.16 248.494 348.328C246.382 347.464 244.734 346.264 243.55 344.728C242.366 343.16 241.774 341.336 241.774 339.256C241.774 337.176 242.35 335.416 243.502 333.976C244.686 332.504 246.334 331.4 248.446 330.664C250.558 329.896 253.038 329.512 255.886 329.512C258.766 329.512 261.262 329.896 263.374 330.664C265.518 331.4 267.166 332.504 268.318 333.976C269.502 335.416 270.094 337.176 270.094 339.256C270.094 341.336 269.502 343.16 268.318 344.728C267.134 346.264 265.47 347.464 263.326 348.328C261.214 349.16 258.734 349.576 255.886 349.576ZM255.886 343.864C257.838 343.864 259.374 343.432 260.494 342.568C261.646 341.704 262.222 340.52 262.222 339.016C262.222 337.512 261.646 336.344 260.494 335.512C259.374 334.648 257.838 334.216 255.886 334.216C253.966 334.216 252.446 334.648 251.326 335.512C250.206 336.344 249.646 337.512 249.646 339.016C249.646 340.52 250.206 341.704 251.326 342.568C252.446 343.432 253.966 343.864 255.886 343.864ZM255.886 333.448C253.294 333.448 251.022 333.096 249.07 332.392C247.15 331.688 245.646 330.664 244.558 329.32C243.502 327.944 242.974 326.312 242.974 324.424C242.974 322.44 243.518 320.744 244.606 319.336C245.694 317.896 247.214 316.792 249.166 316.024C251.118 315.224 253.358 314.824 255.886 314.824C258.478 314.824 260.734 315.224 262.654 316.024C264.606 316.792 266.126 317.896 267.214 319.336C268.334 320.744 268.894 322.44 268.894 324.424C268.894 326.312 268.35 327.944 267.262 329.32C266.206 330.664 264.702 331.688 262.75 332.392C260.798 333.096 258.51 333.448 255.886 333.448ZM255.886 328.888C257.518 328.888 258.798 328.52 259.726 327.784C260.686 327.048 261.166 326.04 261.166 324.76C261.166 323.416 260.67 322.376 259.678 321.64C258.718 320.904 257.454 320.536 255.886 320.536C254.35 320.536 253.102 320.904 252.142 321.64C251.182 322.376 250.702 323.416 250.702 324.76C250.702 326.04 251.166 327.048 252.094 327.784C253.022 328.52 254.286 328.888 255.886 328.888ZM288.053 349.576C285.301 349.576 282.837 348.904 280.661 347.56C278.485 346.184 276.773 344.2 275.525 341.608C274.277 339.016 273.653 335.88 273.653 332.2C273.653 328.52 274.277 325.384 275.525 322.792C276.773 320.2 278.485 318.232 280.661 316.888C282.837 315.512 285.301 314.824 288.053 314.824C290.837 314.824 293.301 315.512 295.445 316.888C297.621 318.232 299.333 320.2 300.581 322.792C301.829 325.384 302.453 328.52 302.453 332.2C302.453 335.88 301.829 339.016 300.581 341.608C299.333 344.2 297.621 346.184 295.445 347.56C293.301 348.904 290.837 349.576 288.053 349.576ZM288.053 343C289.365 343 290.501 342.632 291.461 341.896C292.453 341.16 293.221 339.992 293.765 338.392C294.341 336.792 294.629 334.728 294.629 332.2C294.629 329.672 294.341 327.608 293.765 326.008C293.221 324.408 292.453 323.24 291.461 322.504C290.501 321.768 289.365 321.4 288.053 321.4C286.773 321.4 285.637 321.768 284.645 322.504C283.685 323.24 282.917 324.408 282.341 326.008C281.797 327.608 281.525 329.672 281.525 332.2C281.525 334.728 281.797 336.792 282.341 338.392C282.917 339.992 283.685 341.16 284.645 341.896C285.637 342.632 286.773 343 288.053 343ZM310.038 349.384C308.758 349.384 307.654 348.952 306.726 348.088C305.83 347.192 305.382 346.056 305.382 344.68C305.382 343.304 305.83 342.2 306.726 341.368C307.654 340.504 308.758 340.072 310.038 340.072C311.35 340.072 312.454 340.504 313.35 341.368C314.246 342.2 314.694 343.304 314.694 344.68C314.694 346.056 314.246 347.192 313.35 348.088C312.454 348.952 311.35 349.384 310.038 349.384ZM331.975 349.576C329.223 349.576 326.759 348.904 324.583 347.56C322.407 346.184 320.695 344.2 319.447 341.608C318.199 339.016 317.575 335.88 317.575 332.2C317.575 328.52 318.199 325.384 319.447 322.792C320.695 320.2 322.407 318.232 324.583 316.888C326.759 315.512 329.223 314.824 331.975 314.824C334.759 314.824 337.223 315.512 339.367 316.888C341.543 318.232 343.255 320.2 344.503 322.792C345.751 325.384 346.375 328.52 346.375 332.2C346.375 335.88 345.751 339.016 344.503 341.608C343.255 344.2 341.543 346.184 339.367 347.56C337.223 348.904 334.759 349.576 331.975 349.576ZM331.975 343C333.287 343 334.423 342.632 335.383 341.896C336.375 341.16 337.143 339.992 337.687 338.392C338.263 336.792 338.551 334.728 338.551 332.2C338.551 329.672 338.263 327.608 337.687 326.008C337.143 324.408 336.375 323.24 335.383 322.504C334.423 321.768 333.287 321.4 331.975 321.4C330.695 321.4 329.559 321.768 328.567 322.504C327.607 323.24 326.839 324.408 326.263 326.008C325.719 327.608 325.447 329.672 325.447 332.2C325.447 334.728 325.719 336.792 326.263 338.392C326.839 339.992 327.607 341.16 328.567 341.896C329.559 342.632 330.695 343 331.975 343ZM364.553 349.576C361.801 349.576 359.337 348.904 357.161 347.56C354.985 346.184 353.273 344.2 352.025 341.608C350.777 339.016 350.153 335.88 350.153 332.2C350.153 328.52 350.777 325.384 352.025 322.792C353.273 320.2 354.985 318.232 357.161 316.888C359.337 315.512 361.801 314.824 364.553 314.824C367.337 314.824 369.801 315.512 371.945 316.888C374.121 318.232 375.833 320.2 377.081 322.792C378.329 325.384 378.953 328.52 378.953 332.2C378.953 335.88 378.329 339.016 377.081 341.608C375.833 344.2 374.121 346.184 371.945 347.56C369.801 348.904 367.337 349.576 364.553 349.576ZM364.553 343C365.865 343 367.001 342.632 367.961 341.896C368.953 341.16 369.721 339.992 370.265 338.392C370.841 336.792 371.129 334.728 371.129 332.2C371.129 329.672 370.841 327.608 370.265 326.008C369.721 324.408 368.953 323.24 367.961 322.504C367.001 321.768 365.865 321.4 364.553 321.4C363.273 321.4 362.137 321.768 361.145 322.504C360.185 323.24 359.417 324.408 358.841 326.008C358.297 327.608 358.025 329.672 358.025 332.2C358.025 334.728 358.297 336.792 358.841 338.392C359.417 339.992 360.185 341.16 361.145 341.896C362.137 342.632 363.273 343 364.553 343ZM397.131 349.576C394.379 349.576 391.915 348.904 389.739 347.56C387.563 346.184 385.851 344.2 384.603 341.608C383.355 339.016 382.731 335.88 382.731 332.2C382.731 328.52 383.355 325.384 384.603 322.792C385.851 320.2 387.563 318.232 389.739 316.888C391.915 315.512 394.379 314.824 397.131 314.824C399.915 314.824 402.379 315.512 404.523 316.888C406.699 318.232 408.411 320.2 409.659 322.792C410.907 325.384 411.531 328.52 411.531 332.2C411.531 335.88 410.907 339.016 409.659 341.608C408.411 344.2 406.699 346.184 404.523 347.56C402.379 348.904 399.915 349.576 397.131 349.576ZM397.131 343C398.443 343 399.579 342.632 400.539 341.896C401.531 341.16 402.299 339.992 402.843 338.392C403.419 336.792 403.707 334.728 403.707 332.2C403.707 329.672 403.419 327.608 402.843 326.008C402.299 324.408 401.531 323.24 400.539 322.504C399.579 321.768 398.443 321.4 397.131 321.4C395.851 321.4 394.715 321.768 393.723 322.504C392.763 323.24 391.995 324.408 391.419 326.008C390.875 327.608 390.603 329.672 390.603 332.2C390.603 334.728 390.875 336.792 391.419 338.392C391.995 339.992 392.763 341.16 393.723 341.896C394.715 342.632 395.851 343 397.131 343Z" fill="white"/>
<path d="M449.08 349V334.728L450.2 335.88H443.256V331.784H459.864V335.88H452.92L454.04 334.728V349H449.08ZM469.87 349.256C468.036 349.256 466.404 348.872 464.974 348.104C463.566 347.336 462.446 346.291 461.614 344.968C460.804 343.624 460.398 342.099 460.398 340.392C460.398 338.664 460.804 337.139 461.614 335.816C462.446 334.472 463.566 333.427 464.974 332.68C466.404 331.912 468.036 331.528 469.87 331.528C471.684 331.528 473.305 331.912 474.734 332.68C476.164 333.427 477.284 334.461 478.094 335.784C478.905 337.107 479.31 338.643 479.31 340.392C479.31 342.099 478.905 343.624 478.094 344.968C477.284 346.291 476.164 347.336 474.734 348.104C473.305 348.872 471.684 349.256 469.87 349.256ZM469.87 345.16C470.702 345.16 471.449 344.968 472.11 344.584C472.772 344.2 473.294 343.656 473.678 342.952C474.062 342.227 474.254 341.373 474.254 340.392C474.254 339.389 474.062 338.536 473.678 337.832C473.294 337.128 472.772 336.584 472.11 336.2C471.449 335.816 470.702 335.624 469.87 335.624C469.038 335.624 468.292 335.816 467.63 336.2C466.969 336.584 466.436 337.128 466.03 337.832C465.646 338.536 465.454 339.389 465.454 340.392C465.454 341.373 465.646 342.227 466.03 342.952C466.436 343.656 466.969 344.2 467.63 344.584C468.292 344.968 469.038 345.16 469.87 345.16ZM494.936 349L489.176 340.84L493.24 338.44L500.824 349H494.936ZM482.744 349V331.784H487.736V349H482.744ZM486.264 342.472V338.472H492.28V342.472H486.264ZM493.72 340.968L489.048 340.456L495.096 331.784H500.408L493.72 340.968ZM511.16 349.256C509.197 349.256 507.469 348.872 505.976 348.104C504.504 347.336 503.362 346.291 502.552 344.968C501.741 343.624 501.336 342.099 501.336 340.392C501.336 338.664 501.73 337.139 502.52 335.816C503.33 334.472 504.429 333.427 505.816 332.68C507.202 331.912 508.77 331.528 510.52 331.528C512.205 331.528 513.72 331.891 515.064 332.616C516.429 333.32 517.506 334.344 518.296 335.688C519.085 337.011 519.48 338.6 519.48 340.456C519.48 340.648 519.469 340.872 519.448 341.128C519.426 341.363 519.405 341.587 519.384 341.8H505.4V338.888H516.76L514.84 339.752C514.84 338.856 514.658 338.077 514.296 337.416C513.933 336.755 513.432 336.243 512.792 335.88C512.152 335.496 511.405 335.304 510.552 335.304C509.698 335.304 508.941 335.496 508.28 335.88C507.64 336.243 507.138 336.765 506.776 337.448C506.413 338.109 506.232 338.899 506.232 339.816V340.584C506.232 341.523 506.434 342.355 506.84 343.08C507.266 343.784 507.853 344.328 508.6 344.712C509.368 345.075 510.264 345.256 511.288 345.256C512.205 345.256 513.005 345.117 513.688 344.84C514.392 344.563 515.032 344.147 515.608 343.592L518.264 346.472C517.474 347.368 516.482 348.061 515.288 348.552C514.093 349.021 512.717 349.256 511.16 349.256ZM523.306 349V331.784H528.266V338.504H535.754V331.784H540.746V349H535.754V342.568H528.266V349H523.306ZM553.589 349.256C551.754 349.256 550.122 348.872 548.693 348.104C547.285 347.336 546.165 346.291 545.333 344.968C544.522 343.624 544.117 342.099 544.117 340.392C544.117 338.664 544.522 337.139 545.333 335.816C546.165 334.472 547.285 333.427 548.693 332.68C550.122 331.912 551.754 331.528 553.589 331.528C555.402 331.528 557.024 331.912 558.453 332.68C559.882 333.427 561.002 334.461 561.813 335.784C562.624 337.107 563.029 338.643 563.029 340.392C563.029 342.099 562.624 343.624 561.813 344.968C561.002 346.291 559.882 347.336 558.453 348.104C557.024 348.872 555.402 349.256 553.589 349.256ZM553.589 345.16C554.421 345.16 555.168 344.968 555.829 344.584C556.49 344.2 557.013 343.656 557.397 342.952C557.781 342.227 557.973 341.373 557.973 340.392C557.973 339.389 557.781 338.536 557.397 337.832C557.013 337.128 556.49 336.584 555.829 336.2C555.168 335.816 554.421 335.624 553.589 335.624C552.757 335.624 552.01 335.816 551.349 336.2C550.688 336.584 550.154 337.128 549.749 337.832C549.365 338.536 549.173 339.389 549.173 340.392C549.173 341.373 549.365 342.227 549.749 342.952C550.154 343.656 550.688 344.2 551.349 344.584C552.01 344.968 552.757 345.16 553.589 345.16ZM566.463 349V331.784H575.263C577.417 331.784 579.103 332.179 580.319 332.968C581.535 333.736 582.142 334.824 582.142 336.232C582.142 337.64 581.567 338.749 580.415 339.56C579.284 340.349 577.78 340.744 575.903 340.744L576.415 339.592C578.505 339.592 580.063 339.976 581.087 340.744C582.132 341.512 582.655 342.632 582.655 344.104C582.655 345.619 582.079 346.813 580.927 347.688C579.775 348.563 578.015 349 575.647 349H566.463ZM571.039 345.608H575.231C576.148 345.608 576.831 345.459 577.279 345.16C577.748 344.84 577.983 344.36 577.983 343.72C577.983 343.059 577.769 342.579 577.343 342.28C576.916 341.96 576.244 341.8 575.327 341.8H571.039V345.608ZM571.039 338.856H574.815C575.689 338.856 576.34 338.696 576.767 338.376C577.215 338.056 577.439 337.597 577.439 337C577.439 336.381 577.215 335.923 576.767 335.624C576.34 335.325 575.689 335.176 574.815 335.176H571.039V338.856Z" fill="white"/>
<path d="M776.604 199.856L766.013 223.155C762.724 223.155 758.991 222.797 755.846 223.579H755L776.604 199.008V199.856Z" fill="#8AB8FE"/>
<path d="M755.849 223.578H766.015C769.64 231.413 772.694 239.278 776.607 246.877V247.725L755 223.578H755.849Z" fill="#4787EA"/>
<path d="M798.21 224.002C798.166 223.8 797.986 223.609 797.786 223.578C794.641 222.799 790.908 223.157 787.619 223.154L777.452 199.855H777.876C784.893 207.587 792.067 215.35 798.648 223.384L798.21 224.002Z" fill="#243FD1"/>
<path d="M797.786 223.579C797.986 223.607 798.163 223.798 798.21 224.003L777.876 246.88H777.452L787.619 223.582C790.598 223.585 795.046 223.185 797.786 223.582V223.579Z" fill="#12209E"/>
<path d="M777.877 199.855H777.452C776.923 199.9 777.045 200.487 777.009 200.887C776.373 207.543 777.034 216.251 777.031 223.156C777.031 223.298 777.031 223.439 777.031 223.581C776.889 223.581 776.748 223.581 776.606 223.581V199.007C777.244 198.948 777.652 199.284 777.877 199.855Z" fill="#697FF4"/>
<path d="M777.452 246.877H777.877C777.66 247.448 777.247 247.814 776.606 247.725V223.578C776.748 223.578 776.889 223.578 777.031 223.578C777.031 230.639 776.471 238.959 777.009 245.848C777.039 246.247 776.928 246.835 777.452 246.879V246.877Z" fill="#596DD7"/>
<path d="M776.604 223.154C773.079 223.154 769.538 223.151 766.013 223.154L776.604 199.855V223.154Z" fill="#4576F2"/>
<path d="M766.016 223.154V223.578H755.849C758.994 222.799 762.726 223.157 766.016 223.154Z" fill="#97BEF8"/>
<path d="M776.604 223.578V246.877C772.694 239.278 769.637 231.413 766.013 223.578C769.538 223.578 773.079 223.578 776.604 223.578Z" fill="#2E5FDB"/>
<path d="M787.619 223.153C784.094 223.15 780.552 223.153 777.027 223.153C777.03 216.247 776.373 207.539 777.005 200.883C777.044 200.487 776.919 199.899 777.449 199.852L787.616 223.15L787.619 223.153Z" fill="#3346F5"/>
<path d="M797.786 223.576C795.046 223.18 790.598 223.579 787.619 223.576V223.152C790.908 223.152 794.641 222.794 797.786 223.576Z" fill="#5667CF"/>
<path d="M787.619 223.579L777.452 246.878C776.927 246.833 777.038 246.246 777.008 245.846C776.47 238.957 777.03 230.637 777.03 223.577C780.555 223.577 784.096 223.571 787.621 223.577L787.619 223.579Z" fill="#1D2DC5"/>
<path d="M776.604 223.154V223.578C773.079 223.578 769.538 223.578 766.013 223.578V223.154C769.538 223.151 773.079 223.154 776.604 223.154Z" fill="#6D92EF"/>
<path d="M787.62 223.154V223.578C784.095 223.572 780.553 223.578 777.028 223.578C777.028 223.436 777.028 223.295 777.028 223.154C780.553 223.154 784.095 223.151 787.62 223.154Z" fill="#606DEA"/>
</g>
<rect x="1.5" y="1.5" width="852" height="428" rx="76.5" stroke="#244ED8" stroke-width="3"/>
<defs>
<clipPath id="clip0_1773_242">
<rect width="855" height="431" rx="78" fill="white"/>
</clipPath>
</defs>
</svg>
