<svg width="1176" height="613" viewBox="0 0 1176 613" fill="none" xmlns="http://www.w3.org/2000/svg">
<mask id="mask0_1789_194" style="mask-type:luminance" maskUnits="userSpaceOnUse" x="19" y="10" width="1138" height="593">
<path d="M1081 10H95C53.0264 10 19 44.0264 19 86V527C19 568.974 53.0264 603 95 603H1081C1122.97 603 1157 568.974 1157 527V86C1157 44.0264 1122.97 10 1081 10Z" fill="white"/>
</mask>
<g mask="url(#mask0_1789_194)">
<path d="M1081 10H95C53.0264 10 19 44.0264 19 86V527C19 568.974 53.0264 603 95 603H1081C1122.97 603 1157 568.974 1157 527V86C1157 44.0264 1122.97 10 1081 10Z" fill="black"/>
<path d="M1081 11.5H95C53.8548 11.5 20.5 44.8548 20.5 86V527C20.5 568.145 53.8548 601.5 95 601.5H1081C1122.15 601.5 1155.5 568.145 1155.5 527V86C1155.5 44.8548 1122.15 11.5 1081 11.5Z" fill="black" stroke="#003E1C" stroke-width="3"/>
<g filter="url(#filter0_f_1789_194)">
<path d="M-15 -54V614.519L220.349 668L188.256 507.556L158.169 253.519L484.448 424.659L580.727 360.482L265.145 90.4H675L626.86 -54H-15Z" fill="#009345" fill-opacity="0.5"/>
<path d="M-15 -54V614.519L220.349 668L188.256 507.556L158.169 253.519L484.448 424.659L580.727 360.482L265.145 90.4H675L626.86 -54H-15Z" stroke="black"/>
</g>
<path d="M120.72 406.322C120.357 406.322 119.995 406.29 119.632 406.226C119.269 406.162 118.875 406.087 118.448 406.002L118.736 402.386C119.035 402.471 119.355 402.514 119.696 402.514C120.592 402.514 121.307 402.151 121.84 401.426C122.373 400.679 122.757 399.591 122.992 398.162C123.227 396.733 123.387 394.973 123.472 392.882L123.792 383.602H140.272V406.002H136.176V386.098L137.136 387.122H126.48L127.376 386.066L127.152 392.722C127.088 394.941 126.939 396.893 126.704 398.578C126.469 400.263 126.107 401.682 125.616 402.834C125.147 403.965 124.517 404.829 123.728 405.426C122.939 406.023 121.936 406.322 120.72 406.322ZM153.742 406.226C151.992 406.226 150.435 405.853 149.07 405.106C147.704 404.338 146.627 403.293 145.838 401.97C145.048 400.647 144.654 399.143 144.654 397.458C144.654 395.751 145.048 394.247 145.838 392.946C146.627 391.623 147.704 390.589 149.07 389.842C150.435 389.095 151.992 388.722 153.742 388.722C155.512 388.722 157.08 389.095 158.446 389.842C159.832 390.589 160.91 391.613 161.678 392.914C162.467 394.215 162.862 395.73 162.862 397.458C162.862 399.143 162.467 400.647 161.678 401.97C160.91 403.293 159.832 404.338 158.446 405.106C157.08 405.853 155.512 406.226 153.742 406.226ZM153.742 402.802C154.723 402.802 155.598 402.589 156.366 402.162C157.134 401.735 157.731 401.117 158.158 400.306C158.606 399.495 158.83 398.546 158.83 397.458C158.83 396.349 158.606 395.399 158.158 394.61C157.731 393.799 157.134 393.181 156.366 392.754C155.598 392.327 154.734 392.114 153.774 392.114C152.792 392.114 151.918 392.327 151.15 392.754C150.403 393.181 149.806 393.799 149.358 394.61C148.91 395.399 148.686 396.349 148.686 397.458C148.686 398.546 148.91 399.495 149.358 400.306C149.806 401.117 150.403 401.735 151.15 402.162C151.918 402.589 152.782 402.802 153.742 402.802ZM166.813 406.002V388.914H179.933V392.306H169.885L170.813 391.41V406.002H166.813ZM182.844 406.002V388.914H186.844V400.178L196.284 388.914H199.932V406.002H195.932V394.738L186.524 406.002H182.844ZM216.097 399.25C215.286 399.634 214.422 399.954 213.505 400.21C212.609 400.445 211.66 400.562 210.657 400.562C208.502 400.562 206.828 400.061 205.633 399.058C204.438 398.055 203.841 396.498 203.841 394.386V388.914H207.841V394.13C207.841 395.261 208.161 396.082 208.801 396.594C209.462 397.106 210.369 397.362 211.521 397.362C212.289 397.362 213.057 397.266 213.825 397.074C214.593 396.882 215.35 396.615 216.097 396.274V399.25ZM215.809 406.002V388.914H219.809V406.002H215.809ZM225.188 406.002V388.914H229.188V395.858H237.796V388.914H241.796V406.002H237.796V399.25H229.188V406.002H225.188ZM264.405 406.002V388.914H268.405V406.002H264.405ZM255.477 394.546C257.674 394.546 259.338 395.037 260.469 396.018C261.621 396.999 262.197 398.386 262.197 400.178C262.197 402.034 261.557 403.485 260.277 404.53C259.018 405.554 257.226 406.055 254.901 406.034L247.157 406.002V388.914H251.157V394.514L255.477 394.546ZM254.549 403.09C255.722 403.111 256.618 402.866 257.237 402.354C257.855 401.842 258.165 401.095 258.165 400.114C258.165 399.133 257.855 398.429 257.237 398.002C256.639 397.554 255.743 397.319 254.549 397.298L251.157 397.266V403.058L254.549 403.09ZM273.782 406.002V388.914H277.974L284.854 401.042H283.19L290.422 388.914H294.166L294.198 406.002H290.582V393.202L291.222 393.618L284.822 404.21H283.094L276.662 393.33L277.43 393.138V406.002H273.782ZM317.879 406.226C316.492 406.226 315.223 405.906 314.071 405.266C312.94 404.626 312.033 403.666 311.351 402.386C310.689 401.085 310.359 399.442 310.359 397.458C310.359 395.453 310.679 393.81 311.319 392.53C311.98 391.25 312.876 390.301 314.007 389.682C315.137 389.042 316.428 388.722 317.879 388.722C319.564 388.722 321.047 389.085 322.327 389.81C323.628 390.535 324.652 391.549 325.399 392.85C326.167 394.151 326.551 395.687 326.551 397.458C326.551 399.229 326.167 400.775 325.399 402.098C324.652 403.399 323.628 404.413 322.327 405.138C321.047 405.863 319.564 406.226 317.879 406.226ZM308.407 412.21V388.914H312.215V392.946L312.087 397.49L312.407 402.034V412.21H308.407ZM317.431 402.802C318.391 402.802 319.244 402.589 319.991 402.162C320.759 401.735 321.367 401.117 321.815 400.306C322.263 399.495 322.487 398.546 322.487 397.458C322.487 396.349 322.263 395.399 321.815 394.61C321.367 393.799 320.759 393.181 319.991 392.754C319.244 392.327 318.391 392.114 317.431 392.114C316.471 392.114 315.607 392.327 314.839 392.754C314.071 393.181 313.463 393.799 313.015 394.61C312.567 395.399 312.343 396.349 312.343 397.458C312.343 398.546 312.567 399.495 313.015 400.306C313.463 401.117 314.071 401.735 314.839 402.162C315.607 402.589 316.471 402.802 317.431 402.802ZM340.681 406.002V402.546L340.457 401.81V395.762C340.457 394.589 340.105 393.682 339.401 393.042C338.697 392.381 337.63 392.05 336.201 392.05C335.241 392.05 334.292 392.199 333.353 392.498C332.436 392.797 331.657 393.213 331.017 393.746L329.449 390.834C330.366 390.13 331.454 389.607 332.713 389.266C333.993 388.903 335.316 388.722 336.681 388.722C339.156 388.722 341.065 389.319 342.409 390.514C343.774 391.687 344.457 393.511 344.457 395.986V406.002H340.681ZM335.305 406.226C334.025 406.226 332.905 406.013 331.945 405.586C330.985 405.138 330.238 404.53 329.705 403.762C329.193 402.973 328.937 402.087 328.937 401.106C328.937 400.146 329.161 399.282 329.609 398.514C330.078 397.746 330.836 397.138 331.881 396.69C332.926 396.242 334.313 396.018 336.041 396.018H341.001V398.674H336.329C334.964 398.674 334.046 398.898 333.577 399.346C333.108 399.773 332.873 400.306 332.873 400.946C332.873 401.671 333.161 402.247 333.737 402.674C334.313 403.101 335.113 403.314 336.137 403.314C337.118 403.314 337.993 403.09 338.761 402.642C339.55 402.194 340.116 401.533 340.457 400.658L341.129 403.058C340.745 404.061 340.052 404.839 339.049 405.394C338.068 405.949 336.82 406.226 335.305 406.226ZM354.596 406.29C353.295 406.29 352.004 406.141 350.724 405.842C349.465 405.522 348.324 405.074 347.3 404.498L348.42 401.522C349.252 401.991 350.191 402.354 351.236 402.61C352.281 402.866 353.327 402.994 354.372 402.994C355.268 402.994 356.036 402.909 356.676 402.738C357.316 402.546 357.807 402.269 358.148 401.906C358.511 401.543 358.692 401.127 358.692 400.658C358.692 399.975 358.393 399.463 357.796 399.122C357.22 398.759 356.388 398.578 355.3 398.578H352.004V395.89H354.98C355.663 395.89 356.239 395.815 356.708 395.666C357.199 395.517 357.572 395.293 357.828 394.994C358.084 394.695 358.212 394.343 358.212 393.938C358.212 393.533 358.052 393.181 357.732 392.882C357.433 392.562 356.996 392.327 356.42 392.178C355.844 392.007 355.151 391.922 354.34 391.922C353.487 391.922 352.601 392.029 351.684 392.242C350.788 392.455 349.871 392.765 348.932 393.17L347.908 390.226C348.996 389.735 350.052 389.362 351.076 389.106C352.121 388.829 353.156 388.679 354.18 388.658C355.737 388.594 357.124 388.754 358.34 389.138C359.556 389.522 360.516 390.077 361.22 390.802C361.924 391.527 362.276 392.381 362.276 393.362C362.276 394.173 362.02 394.909 361.508 395.57C361.017 396.21 360.335 396.711 359.46 397.074C358.607 397.437 357.625 397.618 356.516 397.618L356.644 396.754C358.543 396.754 360.036 397.138 361.124 397.906C362.212 398.653 362.756 399.677 362.756 400.978C362.756 402.023 362.404 402.951 361.7 403.762C360.996 404.551 360.025 405.17 358.788 405.618C357.572 406.066 356.175 406.29 354.596 406.29ZM366.876 406.002V388.914H375.228C377.297 388.914 378.918 389.298 380.092 390.066C381.286 390.834 381.884 391.922 381.884 393.33C381.884 394.717 381.329 395.805 380.22 396.594C379.11 397.362 377.638 397.746 375.804 397.746L376.284 396.754C378.353 396.754 379.889 397.138 380.892 397.906C381.916 398.653 382.428 399.751 382.428 401.202C382.428 402.717 381.862 403.901 380.732 404.754C379.601 405.586 377.884 406.002 375.58 406.002H366.876ZM370.684 403.09H375.26C376.348 403.09 377.169 402.919 377.724 402.578C378.278 402.215 378.556 401.671 378.556 400.946C378.556 400.178 378.3 399.613 377.788 399.25C377.276 398.887 376.476 398.706 375.388 398.706H370.684V403.09ZM370.684 396.05H374.876C375.9 396.05 376.668 395.869 377.18 395.506C377.713 395.122 377.98 394.589 377.98 393.906C377.98 393.202 377.713 392.679 377.18 392.338C376.668 391.997 375.9 391.826 374.876 391.826H370.684V396.05ZM386.688 406.002V388.914H390.688V400.178L400.128 388.914H403.776V406.002H399.776V394.738L390.368 406.002H386.688ZM412.709 406.002V391.346L413.637 392.306H406.693V388.914H422.693V392.306H415.781L416.709 391.346V406.002H412.709ZM425.594 406.002V388.914H429.594V400.178L439.034 388.914H442.682V406.002H438.682V394.738L429.274 406.002H425.594ZM456.031 406.226C454.132 406.226 452.468 405.853 451.039 405.106C449.631 404.338 448.532 403.293 447.743 401.97C446.975 400.647 446.591 399.143 446.591 397.458C446.591 395.751 446.964 394.247 447.711 392.946C448.479 391.623 449.524 390.589 450.847 389.842C452.191 389.095 453.716 388.722 455.423 388.722C457.087 388.722 458.57 389.085 459.871 389.81C461.172 390.535 462.196 391.559 462.943 392.882C463.69 394.205 464.063 395.762 464.063 397.554C464.063 397.725 464.052 397.917 464.031 398.13C464.031 398.343 464.02 398.546 463.999 398.738H449.759V396.082H461.887L460.319 396.914C460.34 395.933 460.138 395.069 459.711 394.322C459.284 393.575 458.698 392.989 457.951 392.562C457.226 392.135 456.383 391.922 455.423 391.922C454.442 391.922 453.578 392.135 452.831 392.562C452.106 392.989 451.53 393.586 451.103 394.354C450.698 395.101 450.495 395.986 450.495 397.01V397.65C450.495 398.674 450.73 399.581 451.199 400.37C451.668 401.159 452.33 401.767 453.183 402.194C454.036 402.621 455.018 402.834 456.127 402.834C457.087 402.834 457.951 402.685 458.719 402.386C459.487 402.087 460.17 401.618 460.767 400.978L462.911 403.442C462.143 404.338 461.172 405.031 459.999 405.522C458.847 405.991 457.524 406.226 456.031 406.226ZM468.438 406.002V388.914H472.63L479.51 401.042H477.846L485.078 388.914H488.822L488.854 406.002H485.238V393.202L485.878 393.618L479.478 404.21H477.75L471.318 393.33L472.086 393.138V406.002H468.438ZM503.063 406.002V388.914H519.447V406.002H515.479V391.378L516.407 392.306H506.135L507.063 391.378V406.002H503.063ZM534.316 406.226C532.93 406.226 531.66 405.906 530.508 405.266C529.378 404.626 528.471 403.666 527.788 402.386C527.127 401.085 526.796 399.442 526.796 397.458C526.796 395.453 527.116 393.81 527.756 392.53C528.418 391.25 529.314 390.301 530.444 389.682C531.575 389.042 532.866 388.722 534.316 388.722C536.002 388.722 537.484 389.085 538.764 389.81C540.066 390.535 541.09 391.549 541.836 392.85C542.604 394.151 542.988 395.687 542.988 397.458C542.988 399.229 542.604 400.775 541.836 402.098C541.09 403.399 540.066 404.413 538.764 405.138C537.484 405.863 536.002 406.226 534.316 406.226ZM524.844 412.21V388.914H528.652V392.946L528.524 397.49L528.844 402.034V412.21H524.844ZM533.868 402.802C534.828 402.802 535.682 402.589 536.428 402.162C537.196 401.735 537.804 401.117 538.252 400.306C538.7 399.495 538.924 398.546 538.924 397.458C538.924 396.349 538.7 395.399 538.252 394.61C537.804 393.799 537.196 393.181 536.428 392.754C535.682 392.327 534.828 392.114 533.868 392.114C532.908 392.114 532.044 392.327 531.276 392.754C530.508 393.181 529.9 393.799 529.452 394.61C529.004 395.399 528.78 396.349 528.78 397.458C528.78 398.546 529.004 399.495 529.452 400.306C529.9 401.117 530.508 401.735 531.276 402.162C532.044 402.589 532.908 402.802 533.868 402.802ZM554.585 406.226C552.836 406.226 551.279 405.853 549.913 405.106C548.548 404.338 547.471 403.293 546.681 401.97C545.892 400.647 545.497 399.143 545.497 397.458C545.497 395.751 545.892 394.247 546.681 392.946C547.471 391.623 548.548 390.589 549.913 389.842C551.279 389.095 552.836 388.722 554.585 388.722C556.356 388.722 557.924 389.095 559.289 389.842C560.676 390.589 561.753 391.613 562.521 392.914C563.311 394.215 563.705 395.73 563.705 397.458C563.705 399.143 563.311 400.647 562.521 401.97C561.753 403.293 560.676 404.338 559.289 405.106C557.924 405.853 556.356 406.226 554.585 406.226ZM554.585 402.802C555.567 402.802 556.441 402.589 557.209 402.162C557.977 401.735 558.575 401.117 559.001 400.306C559.449 399.495 559.673 398.546 559.673 397.458C559.673 396.349 559.449 395.399 559.001 394.61C558.575 393.799 557.977 393.181 557.209 392.754C556.441 392.327 555.577 392.114 554.617 392.114C553.636 392.114 552.761 392.327 551.993 392.754C551.247 393.181 550.649 393.799 550.201 394.61C549.753 395.399 549.529 396.349 549.529 397.458C549.529 398.546 549.753 399.495 550.201 400.306C550.649 401.117 551.247 401.735 551.993 402.162C552.761 402.589 553.625 402.802 554.585 402.802ZM575.625 406.226C573.726 406.226 572.062 405.853 570.633 405.106C569.225 404.338 568.126 403.293 567.337 401.97C566.569 400.647 566.185 399.143 566.185 397.458C566.185 395.751 566.558 394.247 567.305 392.946C568.073 391.623 569.118 390.589 570.441 389.842C571.785 389.095 573.31 388.722 575.017 388.722C576.681 388.722 578.163 389.085 579.465 389.81C580.766 390.535 581.79 391.559 582.537 392.882C583.283 394.205 583.657 395.762 583.657 397.554C583.657 397.725 583.646 397.917 583.625 398.13C583.625 398.343 583.614 398.546 583.593 398.738H569.353V396.082H581.481L579.913 396.914C579.934 395.933 579.731 395.069 579.305 394.322C578.878 393.575 578.291 392.989 577.545 392.562C576.819 392.135 575.977 391.922 575.017 391.922C574.035 391.922 573.171 392.135 572.425 392.562C571.699 392.989 571.123 393.586 570.697 394.354C570.291 395.101 570.089 395.986 570.089 397.01V397.65C570.089 398.674 570.323 399.581 570.793 400.37C571.262 401.159 571.923 401.767 572.777 402.194C573.63 402.621 574.611 402.834 575.721 402.834C576.681 402.834 577.545 402.685 578.313 402.386C579.081 402.087 579.763 401.618 580.361 400.978L582.505 403.442C581.737 404.338 580.766 405.031 579.593 405.522C578.441 405.991 577.118 406.226 575.625 406.226ZM600.288 406.002L594.112 397.81L597.376 395.794L604.992 406.002H600.288ZM588.032 406.002V388.914H592.032V406.002H588.032ZM590.848 399.154V395.826H596.64V399.154H590.848ZM597.76 397.938L594.016 397.49L600.288 388.914H604.576L597.76 397.938ZM611.146 406.002V391.346L612.074 392.306H605.13V388.914H621.13V392.306H614.218L615.146 391.346V406.002H611.146ZM634.4 406.002V402.546L634.176 401.81V395.762C634.176 394.589 633.824 393.682 633.12 393.042C632.416 392.381 631.349 392.05 629.92 392.05C628.96 392.05 628.01 392.199 627.072 392.498C626.154 392.797 625.376 393.213 624.736 393.746L623.168 390.834C624.085 390.13 625.173 389.607 626.432 389.266C627.712 388.903 629.034 388.722 630.4 388.722C632.874 388.722 634.784 389.319 636.128 390.514C637.493 391.687 638.176 393.511 638.176 395.986V406.002H634.4ZM629.024 406.226C627.744 406.226 626.624 406.013 625.664 405.586C624.704 405.138 623.957 404.53 623.424 403.762C622.912 402.973 622.656 402.087 622.656 401.106C622.656 400.146 622.88 399.282 623.328 398.514C623.797 397.746 624.554 397.138 625.6 396.69C626.645 396.242 628.032 396.018 629.76 396.018H634.72V398.674H630.048C628.682 398.674 627.765 398.898 627.296 399.346C626.826 399.773 626.592 400.306 626.592 400.946C626.592 401.671 626.88 402.247 627.456 402.674C628.032 403.101 628.832 403.314 629.856 403.314C630.837 403.314 631.712 403.09 632.48 402.642C633.269 402.194 633.834 401.533 634.176 400.658L634.848 403.058C634.464 404.061 633.77 404.839 632.768 405.394C631.786 405.949 630.538 406.226 629.024 406.226ZM662.817 406.002V400.178L663.393 400.85H658.273C655.927 400.85 654.081 400.359 652.737 399.378C651.415 398.375 650.753 396.935 650.753 395.058C650.753 393.053 651.457 391.527 652.865 390.482C654.295 389.437 656.193 388.914 658.561 388.914H666.401V406.002H662.817ZM650.529 406.002L655.137 399.474H659.233L654.817 406.002H650.529ZM662.817 398.898V391.218L663.393 392.274H658.689C657.452 392.274 656.492 392.509 655.809 392.978C655.148 393.426 654.817 394.162 654.817 395.186C654.817 397.106 656.065 398.066 658.561 398.066H663.393L662.817 398.898ZM671.782 406.002V388.914H680.134C682.203 388.914 683.824 389.298 684.998 390.066C686.192 390.834 686.79 391.922 686.79 393.33C686.79 394.717 686.235 395.805 685.126 396.594C684.016 397.362 682.544 397.746 680.71 397.746L681.19 396.754C683.259 396.754 684.795 397.138 685.798 397.906C686.822 398.653 687.334 399.751 687.334 401.202C687.334 402.717 686.768 403.901 685.638 404.754C684.507 405.586 682.79 406.002 680.486 406.002H671.782ZM675.59 403.09H680.166C681.254 403.09 682.075 402.919 682.63 402.578C683.184 402.215 683.462 401.671 683.462 400.946C683.462 400.178 683.206 399.613 682.694 399.25C682.182 398.887 681.382 398.706 680.294 398.706H675.59V403.09ZM675.59 396.05H679.782C680.806 396.05 681.574 395.869 682.086 395.506C682.619 395.122 682.886 394.589 682.886 393.906C682.886 393.202 682.619 392.679 682.086 392.338C681.574 391.997 680.806 391.826 679.782 391.826H675.59V396.05ZM689.098 405.97L689.29 402.61C689.44 402.631 689.578 402.653 689.706 402.674C689.834 402.695 689.952 402.706 690.058 402.706C690.72 402.706 691.232 402.503 691.594 402.098C691.957 401.693 692.224 401.149 692.394 400.466C692.586 399.762 692.714 398.983 692.778 398.13C692.864 397.255 692.928 396.381 692.97 395.506L693.258 388.914H707.082V406.002H703.082V391.218L704.01 392.306H695.882L696.746 391.186L696.522 395.698C696.458 397.213 696.33 398.621 696.138 399.922C695.968 401.202 695.69 402.322 695.306 403.282C694.944 404.242 694.432 404.989 693.77 405.522C693.13 406.055 692.309 406.322 691.306 406.322C690.986 406.322 690.634 406.29 690.25 406.226C689.888 406.162 689.504 406.077 689.098 405.97ZM723.317 406.002V400.178L723.893 400.85H718.773C716.427 400.85 714.581 400.359 713.237 399.378C711.915 398.375 711.253 396.935 711.253 395.058C711.253 393.053 711.957 391.527 713.365 390.482C714.795 389.437 716.693 388.914 719.061 388.914H726.901V406.002H723.317ZM711.029 406.002L715.637 399.474H719.733L715.317 406.002H711.029ZM723.317 398.898V391.218L723.893 392.274H719.189C717.952 392.274 716.992 392.509 716.309 392.978C715.648 393.426 715.317 394.162 715.317 395.186C715.317 397.106 716.565 398.066 719.061 398.066H723.893L723.317 398.898ZM740.25 406.226C738.351 406.226 736.687 405.853 735.258 405.106C733.85 404.338 732.751 403.293 731.962 401.97C731.194 400.647 730.81 399.143 730.81 397.458C730.81 395.751 731.183 394.247 731.93 392.946C732.698 391.623 733.743 390.589 735.066 389.842C736.41 389.095 737.935 388.722 739.642 388.722C741.306 388.722 742.788 389.085 744.09 389.81C745.391 390.535 746.415 391.559 747.162 392.882C747.908 394.205 748.282 395.762 748.282 397.554C748.282 397.725 748.271 397.917 748.25 398.13C748.25 398.343 748.239 398.546 748.218 398.738H733.978V396.082H746.106L744.538 396.914C744.559 395.933 744.356 395.069 743.93 394.322C743.503 393.575 742.916 392.989 742.17 392.562C741.444 392.135 740.602 391.922 739.642 391.922C738.66 391.922 737.796 392.135 737.05 392.562C736.324 392.989 735.748 393.586 735.322 394.354C734.916 395.101 734.714 395.986 734.714 397.01V397.65C734.714 398.674 734.948 399.581 735.418 400.37C735.887 401.159 736.548 401.767 737.402 402.194C738.255 402.621 739.236 402.834 740.346 402.834C741.306 402.834 742.17 402.685 742.938 402.386C743.706 402.087 744.388 401.618 744.986 400.978L747.13 403.442C746.362 404.338 745.391 405.031 744.218 405.522C743.066 405.991 741.743 406.226 740.25 406.226ZM755.553 406.002V391.346L756.481 392.306H749.537V388.914H765.537V392.306H758.625L759.553 391.346V406.002H755.553ZM775.464 406.226C773.672 406.226 772.072 405.853 770.664 405.106C769.277 404.338 768.189 403.293 767.4 401.97C766.611 400.647 766.216 399.143 766.216 397.458C766.216 395.751 766.611 394.247 767.4 392.946C768.189 391.623 769.277 390.589 770.664 389.842C772.072 389.095 773.672 388.722 775.464 388.722C777.128 388.722 778.589 389.063 779.848 389.746C781.128 390.407 782.099 391.389 782.76 392.69L779.688 394.482C779.176 393.671 778.547 393.074 777.8 392.69C777.075 392.306 776.285 392.114 775.432 392.114C774.451 392.114 773.565 392.327 772.776 392.754C771.987 393.181 771.368 393.799 770.92 394.61C770.472 395.399 770.248 396.349 770.248 397.458C770.248 398.567 770.472 399.527 770.92 400.338C771.368 401.127 771.987 401.735 772.776 402.162C773.565 402.589 774.451 402.802 775.432 402.802C776.285 402.802 777.075 402.61 777.8 402.226C778.547 401.842 779.176 401.245 779.688 400.434L782.76 402.226C782.099 403.506 781.128 404.498 779.848 405.202C778.589 405.885 777.128 406.226 775.464 406.226ZM796.661 406.002V400.178L797.237 400.85H792.117C789.77 400.85 787.925 400.359 786.581 399.378C785.258 398.375 784.597 396.935 784.597 395.058C784.597 393.053 785.301 391.527 786.709 390.482C788.138 389.437 790.037 388.914 792.405 388.914H800.245V406.002H796.661ZM784.373 406.002L788.981 399.474H793.077L788.661 406.002H784.373ZM796.661 398.898V391.218L797.237 392.274H792.533C791.296 392.274 790.336 392.509 789.653 392.978C788.992 393.426 788.661 394.162 788.661 395.186C788.661 397.106 789.909 398.066 792.405 398.066H797.237L796.661 398.898ZM814.469 406.002V388.914H830.853V406.002H826.885V391.378L827.813 392.306H817.541L818.469 391.378V406.002H814.469ZM844.219 406.226C842.32 406.226 840.656 405.853 839.227 405.106C837.819 404.338 836.72 403.293 835.931 401.97C835.163 400.647 834.779 399.143 834.779 397.458C834.779 395.751 835.152 394.247 835.899 392.946C836.667 391.623 837.712 390.589 839.035 389.842C840.379 389.095 841.904 388.722 843.611 388.722C845.275 388.722 846.757 389.085 848.059 389.81C849.36 390.535 850.384 391.559 851.131 392.882C851.877 394.205 852.251 395.762 852.251 397.554C852.251 397.725 852.24 397.917 852.219 398.13C852.219 398.343 852.208 398.546 852.187 398.738H837.947V396.082H850.075L848.507 396.914C848.528 395.933 848.325 395.069 847.899 394.322C847.472 393.575 846.885 392.989 846.139 392.562C845.413 392.135 844.571 391.922 843.611 391.922C842.629 391.922 841.765 392.135 841.019 392.562C840.293 392.989 839.717 393.586 839.291 394.354C838.885 395.101 838.683 395.986 838.683 397.01V397.65C838.683 398.674 838.917 399.581 839.387 400.37C839.856 401.159 840.517 401.767 841.371 402.194C842.224 402.621 843.205 402.834 844.315 402.834C845.275 402.834 846.139 402.685 846.907 402.386C847.675 402.087 848.357 401.618 848.955 400.978L851.099 403.442C850.331 404.338 849.36 405.031 848.187 405.522C847.035 405.991 845.712 406.226 844.219 406.226ZM866.098 406.226C864.711 406.226 863.442 405.906 862.29 405.266C861.159 404.626 860.252 403.666 859.57 402.386C858.908 401.085 858.578 399.442 858.578 397.458C858.578 395.453 858.898 393.81 859.538 392.53C860.199 391.25 861.095 390.301 862.226 389.682C863.356 389.042 864.647 388.722 866.098 388.722C867.783 388.722 869.266 389.085 870.546 389.81C871.847 390.535 872.871 391.549 873.618 392.85C874.386 394.151 874.77 395.687 874.77 397.458C874.77 399.229 874.386 400.775 873.618 402.098C872.871 403.399 871.847 404.413 870.546 405.138C869.266 405.863 867.783 406.226 866.098 406.226ZM856.626 412.21V388.914H860.434V392.946L860.306 397.49L860.626 402.034V412.21H856.626ZM865.65 402.802C866.61 402.802 867.463 402.589 868.21 402.162C868.978 401.735 869.586 401.117 870.034 400.306C870.482 399.495 870.706 398.546 870.706 397.458C870.706 396.349 870.482 395.399 870.034 394.61C869.586 393.799 868.978 393.181 868.21 392.754C867.463 392.327 866.61 392.114 865.65 392.114C864.69 392.114 863.826 392.327 863.058 392.754C862.29 393.181 861.682 393.799 861.234 394.61C860.786 395.399 860.562 396.349 860.562 397.458C860.562 398.546 860.786 399.495 861.234 400.306C861.682 401.117 862.29 401.735 863.058 402.162C863.826 402.589 864.69 402.802 865.65 402.802ZM886.719 406.226C884.82 406.226 883.156 405.853 881.727 405.106C880.319 404.338 879.22 403.293 878.431 401.97C877.663 400.647 877.279 399.143 877.279 397.458C877.279 395.751 877.652 394.247 878.399 392.946C879.167 391.623 880.212 390.589 881.535 389.842C882.879 389.095 884.404 388.722 886.111 388.722C887.775 388.722 889.257 389.085 890.559 389.81C891.86 390.535 892.884 391.559 893.631 392.882C894.377 394.205 894.751 395.762 894.751 397.554C894.751 397.725 894.74 397.917 894.719 398.13C894.719 398.343 894.708 398.546 894.687 398.738H880.447V396.082H892.575L891.007 396.914C891.028 395.933 890.825 395.069 890.399 394.322C889.972 393.575 889.385 392.989 888.639 392.562C887.913 392.135 887.071 391.922 886.111 391.922C885.129 391.922 884.265 392.135 883.519 392.562C882.793 392.989 882.217 393.586 881.791 394.354C881.385 395.101 881.183 395.986 881.183 397.01V397.65C881.183 398.674 881.417 399.581 881.887 400.37C882.356 401.159 883.017 401.767 883.871 402.194C884.724 402.621 885.705 402.834 886.815 402.834C887.775 402.834 888.639 402.685 889.407 402.386C890.175 402.087 890.857 401.618 891.455 400.978L893.599 403.442C892.831 404.338 891.86 405.031 890.687 405.522C889.535 405.991 888.212 406.226 886.719 406.226ZM896.129 406.002L903.649 396.21L903.585 398.354L896.417 388.914H900.865L905.889 395.634H904.193L909.249 388.914H913.569L906.337 398.354L906.369 396.21L913.857 406.002H909.345L904.065 398.866L905.729 399.09L900.545 406.002H896.129ZM923.773 406.226C922.023 406.226 920.466 405.853 919.101 405.106C917.735 404.338 916.658 403.293 915.869 401.97C915.079 400.647 914.685 399.143 914.685 397.458C914.685 395.751 915.079 394.247 915.869 392.946C916.658 391.623 917.735 390.589 919.101 389.842C920.466 389.095 922.023 388.722 923.773 388.722C925.543 388.722 927.111 389.095 928.477 389.842C929.863 390.589 930.941 391.613 931.709 392.914C932.498 394.215 932.893 395.73 932.893 397.458C932.893 399.143 932.498 400.647 931.709 401.97C930.941 403.293 929.863 404.338 928.477 405.106C927.111 405.853 925.543 406.226 923.773 406.226ZM923.773 402.802C924.754 402.802 925.629 402.589 926.397 402.162C927.165 401.735 927.762 401.117 928.189 400.306C928.637 399.495 928.861 398.546 928.861 397.458C928.861 396.349 928.637 395.399 928.189 394.61C927.762 393.799 927.165 393.181 926.397 392.754C925.629 392.327 924.765 392.114 923.805 392.114C922.823 392.114 921.949 392.327 921.181 392.754C920.434 393.181 919.837 393.799 919.389 394.61C918.941 395.399 918.717 396.349 918.717 397.458C918.717 398.546 918.941 399.495 919.389 400.306C919.837 401.117 920.434 401.735 921.181 402.162C921.949 402.589 922.813 402.802 923.773 402.802ZM948.369 404.146V392.306H941.809L941.713 395.058C941.67 396.039 941.606 396.989 941.521 397.906C941.435 398.802 941.297 399.634 941.105 400.402C940.913 401.149 940.635 401.767 940.273 402.258C939.91 402.749 939.43 403.069 938.833 403.218L934.865 402.61C935.505 402.61 936.017 402.407 936.401 402.002C936.806 401.575 937.115 400.999 937.329 400.274C937.563 399.527 937.734 398.685 937.841 397.746C937.947 396.786 938.022 395.794 938.065 394.77L938.289 388.914H952.369V404.146H948.369ZM934.257 409.81V402.61H954.897V409.81H951.153V406.002H937.969V409.81H934.257ZM967.313 406.002V388.914H971.313V395.858H979.921V388.914H983.921V406.002H979.921V399.25H971.313V406.002H967.313ZM999.65 406.002V402.546L999.426 401.81V395.762C999.426 394.589 999.074 393.682 998.37 393.042C997.666 392.381 996.599 392.05 995.17 392.05C994.21 392.05 993.26 392.199 992.322 392.498C991.404 392.797 990.626 393.213 989.986 393.746L988.418 390.834C989.335 390.13 990.423 389.607 991.682 389.266C992.962 388.903 994.284 388.722 995.65 388.722C998.124 388.722 1000.03 389.319 1001.38 390.514C1002.74 391.687 1003.43 393.511 1003.43 395.986V406.002H999.65ZM994.274 406.226C992.994 406.226 991.874 406.013 990.914 405.586C989.954 405.138 989.207 404.53 988.674 403.762C988.162 402.973 987.906 402.087 987.906 401.106C987.906 400.146 988.13 399.282 988.578 398.514C989.047 397.746 989.804 397.138 990.85 396.69C991.895 396.242 993.282 396.018 995.01 396.018H999.97V398.674H995.298C993.932 398.674 993.015 398.898 992.546 399.346C992.076 399.773 991.842 400.306 991.842 400.946C991.842 401.671 992.13 402.247 992.706 402.674C993.282 403.101 994.082 403.314 995.106 403.314C996.087 403.314 996.962 403.09 997.73 402.642C998.519 402.194 999.084 401.533 999.426 400.658L1000.1 403.058C999.714 404.061 999.02 404.839 998.018 405.394C997.036 405.949 995.788 406.226 994.274 406.226ZM120.688 450.002V432.914H124.688V446.61H132.848V432.914H136.848V450.002H120.688ZM135.696 453.81V449.906L136.624 450.002H132.848V446.61H139.44V453.81H135.696ZM150.969 450.226C149.07 450.226 147.406 449.853 145.977 449.106C144.569 448.338 143.47 447.293 142.681 445.97C141.913 444.647 141.529 443.143 141.529 441.458C141.529 439.751 141.902 438.247 142.649 436.946C143.417 435.623 144.462 434.589 145.785 433.842C147.129 433.095 148.654 432.722 150.361 432.722C152.025 432.722 153.507 433.085 154.809 433.81C156.11 434.535 157.134 435.559 157.881 436.882C158.627 438.205 159.001 439.762 159.001 441.554C159.001 441.725 158.99 441.917 158.969 442.13C158.969 442.343 158.958 442.546 158.937 442.738H144.697V440.082H156.825L155.257 440.914C155.278 439.933 155.075 439.069 154.649 438.322C154.222 437.575 153.635 436.989 152.889 436.562C152.163 436.135 151.321 435.922 150.361 435.922C149.379 435.922 148.515 436.135 147.769 436.562C147.043 436.989 146.467 437.586 146.041 438.354C145.635 439.101 145.433 439.986 145.433 441.01V441.65C145.433 442.674 145.667 443.581 146.137 444.37C146.606 445.159 147.267 445.767 148.121 446.194C148.974 446.621 149.955 446.834 151.065 446.834C152.025 446.834 152.889 446.685 153.657 446.386C154.425 446.087 155.107 445.618 155.705 444.978L157.849 447.442C157.081 448.338 156.11 449.031 154.937 449.522C153.785 449.991 152.462 450.226 150.969 450.226ZM163.376 450.002V432.914H167.376V439.858H175.984V432.914H179.984V450.002H175.984V443.25H167.376V450.002H163.376ZM188.896 450.002V435.346L189.824 436.306H182.88V432.914H198.88V436.306H191.968L192.896 435.346V450.002H188.896ZM211.254 450.226C209.867 450.226 208.598 449.906 207.446 449.266C206.315 448.626 205.408 447.666 204.726 446.386C204.064 445.085 203.734 443.442 203.734 441.458C203.734 439.453 204.054 437.81 204.694 436.53C205.355 435.25 206.251 434.301 207.382 433.682C208.512 433.042 209.803 432.722 211.254 432.722C212.939 432.722 214.422 433.085 215.702 433.81C217.003 434.535 218.027 435.549 218.774 436.85C219.542 438.151 219.926 439.687 219.926 441.458C219.926 443.229 219.542 444.775 218.774 446.098C218.027 447.399 217.003 448.413 215.702 449.138C214.422 449.863 212.939 450.226 211.254 450.226ZM201.782 456.21V432.914H205.59V436.946L205.462 441.49L205.782 446.034V456.21H201.782ZM210.806 446.802C211.766 446.802 212.619 446.589 213.366 446.162C214.134 445.735 214.742 445.117 215.19 444.306C215.638 443.495 215.862 442.546 215.862 441.458C215.862 440.349 215.638 439.399 215.19 438.61C214.742 437.799 214.134 437.181 213.366 436.754C212.619 436.327 211.766 436.114 210.806 436.114C209.846 436.114 208.982 436.327 208.214 436.754C207.446 437.181 206.838 437.799 206.39 438.61C205.942 439.399 205.718 440.349 205.718 441.458C205.718 442.546 205.942 443.495 206.39 444.306C206.838 445.117 207.446 445.735 208.214 446.162C208.982 446.589 209.846 446.802 210.806 446.802ZM234.056 450.002V446.546L233.832 445.81V439.762C233.832 438.589 233.48 437.682 232.776 437.042C232.072 436.381 231.005 436.05 229.576 436.05C228.616 436.05 227.667 436.199 226.728 436.498C225.811 436.797 225.032 437.213 224.392 437.746L222.824 434.834C223.741 434.13 224.829 433.607 226.088 433.266C227.368 432.903 228.691 432.722 230.056 432.722C232.531 432.722 234.44 433.319 235.784 434.514C237.149 435.687 237.832 437.511 237.832 439.986V450.002H234.056ZM228.68 450.226C227.4 450.226 226.28 450.013 225.32 449.586C224.36 449.138 223.613 448.53 223.08 447.762C222.568 446.973 222.312 446.087 222.312 445.106C222.312 444.146 222.536 443.282 222.984 442.514C223.453 441.746 224.211 441.138 225.256 440.69C226.301 440.242 227.688 440.018 229.416 440.018H234.376V442.674H229.704C228.339 442.674 227.421 442.898 226.952 443.346C226.483 443.773 226.248 444.306 226.248 444.946C226.248 445.671 226.536 446.247 227.112 446.674C227.688 447.101 228.488 447.314 229.512 447.314C230.493 447.314 231.368 447.09 232.136 446.642C232.925 446.194 233.491 445.533 233.832 444.658L234.504 447.058C234.12 448.061 233.427 448.839 232.424 449.394C231.443 449.949 230.195 450.226 228.68 450.226ZM240.286 449.97L240.478 446.61C240.627 446.631 240.766 446.653 240.894 446.674C241.022 446.695 241.139 446.706 241.246 446.706C241.907 446.706 242.419 446.503 242.782 446.098C243.144 445.693 243.411 445.149 243.582 444.466C243.774 443.762 243.902 442.983 243.966 442.13C244.051 441.255 244.115 440.381 244.158 439.506L244.446 432.914H258.27V450.002H254.27V435.218L255.198 436.306H247.07L247.934 435.186L247.71 439.698C247.646 441.213 247.518 442.621 247.326 443.922C247.155 445.202 246.878 446.322 246.494 447.282C246.131 448.242 245.619 448.989 244.958 449.522C244.318 450.055 243.496 450.322 242.494 450.322C242.174 450.322 241.822 450.29 241.438 450.226C241.075 450.162 240.691 450.077 240.286 449.97ZM263.657 450.002V432.914H267.657V444.178L277.097 432.914H280.745V450.002H276.745V438.738L267.337 450.002H263.657ZM291.315 450.29C290.013 450.29 288.723 450.141 287.443 449.842C286.184 449.522 285.043 449.074 284.019 448.498L285.139 445.522C285.971 445.991 286.909 446.354 287.955 446.61C289 446.866 290.045 446.994 291.091 446.994C291.987 446.994 292.755 446.909 293.395 446.738C294.035 446.546 294.525 446.269 294.867 445.906C295.229 445.543 295.411 445.127 295.411 444.658C295.411 443.975 295.112 443.463 294.515 443.122C293.939 442.759 293.107 442.578 292.019 442.578H288.723V439.89H291.699C292.381 439.89 292.957 439.815 293.427 439.666C293.917 439.517 294.291 439.293 294.547 438.994C294.803 438.695 294.931 438.343 294.931 437.938C294.931 437.533 294.771 437.181 294.451 436.882C294.152 436.562 293.715 436.327 293.139 436.178C292.563 436.007 291.869 435.922 291.059 435.922C290.205 435.922 289.32 436.029 288.403 436.242C287.507 436.455 286.589 436.765 285.651 437.17L284.627 434.226C285.715 433.735 286.771 433.362 287.795 433.106C288.84 432.829 289.875 432.679 290.899 432.658C292.456 432.594 293.843 432.754 295.059 433.138C296.275 433.522 297.235 434.077 297.939 434.802C298.643 435.527 298.995 436.381 298.995 437.362C298.995 438.173 298.739 438.909 298.227 439.57C297.736 440.21 297.053 440.711 296.179 441.074C295.325 441.437 294.344 441.618 293.235 441.618L293.363 440.754C295.261 440.754 296.755 441.138 297.843 441.906C298.931 442.653 299.475 443.677 299.475 444.978C299.475 446.023 299.123 446.951 298.419 447.762C297.715 448.551 296.744 449.17 295.507 449.618C294.291 450.066 292.893 450.29 291.315 450.29ZM311.21 450.226C309.461 450.226 307.904 449.853 306.538 449.106C305.173 448.338 304.096 447.293 303.306 445.97C302.517 444.647 302.122 443.143 302.122 441.458C302.122 439.751 302.517 438.247 303.306 436.946C304.096 435.623 305.173 434.589 306.538 433.842C307.904 433.095 309.461 432.722 311.21 432.722C312.981 432.722 314.549 433.095 315.914 433.842C317.301 434.589 318.378 435.613 319.146 436.914C319.936 438.215 320.33 439.73 320.33 441.458C320.33 443.143 319.936 444.647 319.146 445.97C318.378 447.293 317.301 448.338 315.914 449.106C314.549 449.853 312.981 450.226 311.21 450.226ZM311.21 446.802C312.192 446.802 313.066 446.589 313.834 446.162C314.602 445.735 315.2 445.117 315.626 444.306C316.074 443.495 316.298 442.546 316.298 441.458C316.298 440.349 316.074 439.399 315.626 438.61C315.2 437.799 314.602 437.181 313.834 436.754C313.066 436.327 312.202 436.114 311.242 436.114C310.261 436.114 309.386 436.327 308.618 436.754C307.872 437.181 307.274 437.799 306.826 438.61C306.378 439.399 306.154 440.349 306.154 441.458C306.154 442.546 306.378 443.495 306.826 444.306C307.274 445.117 307.872 445.735 308.618 446.162C309.386 446.589 310.25 446.802 311.21 446.802ZM324.282 450.002V432.914H332.634C334.703 432.914 336.324 433.298 337.498 434.066C338.692 434.834 339.29 435.922 339.29 437.33C339.29 438.717 338.735 439.805 337.626 440.594C336.516 441.362 335.044 441.746 333.21 441.746L333.69 440.754C335.759 440.754 337.295 441.138 338.298 441.906C339.322 442.653 339.834 443.751 339.834 445.202C339.834 446.717 339.268 447.901 338.138 448.754C337.007 449.586 335.29 450.002 332.986 450.002H324.282ZM328.09 447.09H332.666C333.754 447.09 334.575 446.919 335.13 446.578C335.684 446.215 335.962 445.671 335.962 444.946C335.962 444.178 335.706 443.613 335.194 443.25C334.682 442.887 333.882 442.706 332.794 442.706H328.09V447.09ZM328.09 440.05H332.282C333.306 440.05 334.074 439.869 334.586 439.506C335.119 439.122 335.386 438.589 335.386 437.906C335.386 437.202 335.119 436.679 334.586 436.338C334.074 435.997 333.306 435.826 332.282 435.826H328.09V440.05ZM354.462 450.002V446.546L354.238 445.81V439.762C354.238 438.589 353.886 437.682 353.182 437.042C352.478 436.381 351.412 436.05 349.982 436.05C349.022 436.05 348.073 436.199 347.134 436.498C346.217 436.797 345.438 437.213 344.798 437.746L343.23 434.834C344.148 434.13 345.236 433.607 346.494 433.266C347.774 432.903 349.097 432.722 350.462 432.722C352.937 432.722 354.846 433.319 356.19 434.514C357.556 435.687 358.238 437.511 358.238 439.986V450.002H354.462ZM349.086 450.226C347.806 450.226 346.686 450.013 345.726 449.586C344.766 449.138 344.02 448.53 343.486 447.762C342.974 446.973 342.718 446.087 342.718 445.106C342.718 444.146 342.942 443.282 343.39 442.514C343.86 441.746 344.617 441.138 345.662 440.69C346.708 440.242 348.094 440.018 349.822 440.018H354.782V442.674H350.11C348.745 442.674 347.828 442.898 347.358 443.346C346.889 443.773 346.654 444.306 346.654 444.946C346.654 445.671 346.942 446.247 347.518 446.674C348.094 447.101 348.894 447.314 349.918 447.314C350.9 447.314 351.774 447.09 352.542 446.642C353.332 446.194 353.897 445.533 354.238 444.658L354.91 447.058C354.526 448.061 353.833 448.839 352.83 449.394C351.849 449.949 350.601 450.226 349.086 450.226ZM363.188 450.002V432.914H367.188V439.858H375.796V432.914H379.796V450.002H375.796V443.25H367.188V450.002H363.188ZM385.157 450.002V432.914H389.157V439.858H397.765V432.914H401.765V450.002H397.765V443.25H389.157V450.002H385.157ZM424.374 450.002V432.914H428.374V450.002H424.374ZM415.446 438.546C417.643 438.546 419.307 439.037 420.438 440.018C421.59 440.999 422.166 442.386 422.166 444.178C422.166 446.034 421.526 447.485 420.246 448.53C418.987 449.554 417.195 450.055 414.87 450.034L407.126 450.002V432.914H411.126V438.514L415.446 438.546ZM414.518 447.09C415.691 447.111 416.587 446.866 417.206 446.354C417.824 445.842 418.134 445.095 418.134 444.114C418.134 443.133 417.824 442.429 417.206 442.002C416.608 441.554 415.712 441.319 414.518 441.298L411.126 441.266V447.058L414.518 447.09ZM441.719 450.226C439.82 450.226 438.156 449.853 436.727 449.106C435.319 448.338 434.22 447.293 433.431 445.97C432.663 444.647 432.279 443.143 432.279 441.458C432.279 439.751 432.652 438.247 433.399 436.946C434.167 435.623 435.212 434.589 436.535 433.842C437.879 433.095 439.404 432.722 441.111 432.722C442.775 432.722 444.257 433.085 445.559 433.81C446.86 434.535 447.884 435.559 448.631 436.882C449.377 438.205 449.751 439.762 449.751 441.554C449.751 441.725 449.74 441.917 449.719 442.13C449.719 442.343 449.708 442.546 449.687 442.738H435.447V440.082H447.575L446.007 440.914C446.028 439.933 445.825 439.069 445.399 438.322C444.972 437.575 444.385 436.989 443.639 436.562C442.913 436.135 442.071 435.922 441.111 435.922C440.129 435.922 439.265 436.135 438.519 436.562C437.793 436.989 437.217 437.586 436.791 438.354C436.385 439.101 436.183 439.986 436.183 441.01V441.65C436.183 442.674 436.417 443.581 436.887 444.37C437.356 445.159 438.017 445.767 438.871 446.194C439.724 446.621 440.705 446.834 441.815 446.834C442.775 446.834 443.639 446.685 444.407 446.386C445.175 446.087 445.857 445.618 446.455 444.978L448.599 447.442C447.831 448.338 446.86 449.031 445.687 449.522C444.535 449.991 443.212 450.226 441.719 450.226ZM475.225 450.002L469.049 441.81L472.313 439.794L479.929 450.002H475.225ZM462.969 450.002V432.914H466.969V450.002H462.969ZM465.785 443.154V439.826H471.577V443.154H465.785ZM472.697 441.938L468.953 441.49L475.225 432.914H479.513L472.697 441.938ZM492.223 450.226C490.836 450.226 489.567 449.906 488.415 449.266C487.284 448.626 486.377 447.666 485.695 446.386C485.033 445.085 484.703 443.442 484.703 441.458C484.703 439.453 485.023 437.81 485.663 436.53C486.324 435.25 487.22 434.301 488.351 433.682C489.481 433.042 490.772 432.722 492.223 432.722C493.908 432.722 495.391 433.085 496.671 433.81C497.972 434.535 498.996 435.549 499.743 436.85C500.511 438.151 500.895 439.687 500.895 441.458C500.895 443.229 500.511 444.775 499.743 446.098C498.996 447.399 497.972 448.413 496.671 449.138C495.391 449.863 493.908 450.226 492.223 450.226ZM482.751 456.21V432.914H486.559V436.946L486.431 441.49L486.751 446.034V456.21H482.751ZM491.775 446.802C492.735 446.802 493.588 446.589 494.335 446.162C495.103 445.735 495.711 445.117 496.159 444.306C496.607 443.495 496.831 442.546 496.831 441.458C496.831 440.349 496.607 439.399 496.159 438.61C495.711 437.799 495.103 437.181 494.335 436.754C493.588 436.327 492.735 436.114 491.775 436.114C490.815 436.114 489.951 436.327 489.183 436.754C488.415 437.181 487.807 437.799 487.359 438.61C486.911 439.399 486.687 440.349 486.687 441.458C486.687 442.546 486.911 443.495 487.359 444.306C487.807 445.117 488.415 445.735 489.183 446.162C489.951 446.589 490.815 446.802 491.775 446.802ZM504.876 450.002V432.914H508.876V444.178L518.316 432.914H521.964V450.002H517.964V438.738L508.556 450.002H504.876ZM527.344 450.002V432.914H543.728V450.002H539.76V435.378L540.688 436.306H530.416L531.344 435.378V450.002H527.344ZM552.678 450.002V435.346L553.606 436.306H546.662V432.914H562.662V436.306H555.75L556.678 435.346V450.002H552.678ZM572.429 450.226C570.68 450.226 569.122 449.853 567.757 449.106C566.392 448.338 565.314 447.293 564.525 445.97C563.736 444.647 563.341 443.143 563.341 441.458C563.341 439.751 563.736 438.247 564.525 436.946C565.314 435.623 566.392 434.589 567.757 433.842C569.122 433.095 570.68 432.722 572.429 432.722C574.2 432.722 575.768 433.095 577.133 433.842C578.52 434.589 579.597 435.613 580.365 436.914C581.154 438.215 581.549 439.73 581.549 441.458C581.549 443.143 581.154 444.647 580.365 445.97C579.597 447.293 578.52 448.338 577.133 449.106C575.768 449.853 574.2 450.226 572.429 450.226ZM572.429 446.802C573.41 446.802 574.285 446.589 575.053 446.162C575.821 445.735 576.418 445.117 576.845 444.306C577.293 443.495 577.517 442.546 577.517 441.458C577.517 440.349 577.293 439.399 576.845 438.61C576.418 437.799 575.821 437.181 575.053 436.754C574.285 436.327 573.421 436.114 572.461 436.114C571.48 436.114 570.605 436.327 569.837 436.754C569.09 437.181 568.493 437.799 568.045 438.61C567.597 439.399 567.373 440.349 567.373 441.458C567.373 442.546 567.597 443.495 568.045 444.306C568.493 445.117 569.09 445.735 569.837 446.162C570.605 446.589 571.469 446.802 572.429 446.802ZM593.661 450.322C592.253 450.322 590.994 450.109 589.885 449.682C588.775 449.255 587.815 448.605 587.005 447.73C586.215 446.834 585.607 445.703 585.181 444.338C584.754 442.973 584.541 441.351 584.541 439.474C584.541 438.109 584.658 436.861 584.893 435.73C585.127 434.599 585.479 433.586 585.949 432.69C586.418 431.773 587.005 430.962 587.709 430.258C588.434 429.554 589.277 428.967 590.237 428.498C591.197 428.029 592.285 427.666 593.501 427.41L601.437 425.714L602.013 429.298L594.813 430.77C594.407 430.855 593.917 430.983 593.341 431.154C592.786 431.303 592.21 431.538 591.613 431.858C591.037 432.157 590.493 432.594 589.981 433.17C589.49 433.725 589.085 434.45 588.765 435.346C588.466 436.221 588.317 437.319 588.317 438.642C588.317 439.047 588.327 439.357 588.349 439.57C588.391 439.762 588.423 439.975 588.445 440.21C588.487 440.423 588.509 440.743 588.509 441.17L587.005 439.602C587.431 438.514 588.018 437.586 588.765 436.818C589.533 436.029 590.418 435.431 591.421 435.026C592.445 434.599 593.554 434.386 594.749 434.386C596.349 434.386 597.767 434.717 599.005 435.378C600.242 436.039 601.213 436.967 601.917 438.162C602.621 439.357 602.973 440.711 602.973 442.226C602.973 443.805 602.589 445.202 601.821 446.418C601.053 447.634 599.965 448.594 598.557 449.298C597.17 449.981 595.538 450.322 593.661 450.322ZM593.981 447.09C594.941 447.09 595.783 446.887 596.509 446.482C597.255 446.055 597.831 445.479 598.237 444.754C598.663 444.029 598.877 443.218 598.877 442.322C598.877 441.426 598.663 440.647 598.237 439.986C597.831 439.303 597.255 438.759 596.509 438.354C595.783 437.949 594.919 437.746 593.917 437.746C592.957 437.746 592.093 437.938 591.325 438.322C590.578 438.706 589.991 439.239 589.565 439.922C589.159 440.583 588.957 441.351 588.957 442.226C588.957 443.122 589.17 443.943 589.597 444.69C590.023 445.437 590.61 446.023 591.357 446.45C592.125 446.877 592.999 447.09 593.981 447.09ZM606.844 450.002V432.914H610.844V444.178L620.284 432.914H623.932V450.002H619.932V438.738L610.524 450.002H606.844ZM638.785 450.226C637.398 450.226 636.129 449.906 634.977 449.266C633.846 448.626 632.94 447.666 632.257 446.386C631.596 445.085 631.265 443.442 631.265 441.458C631.265 439.453 631.585 437.81 632.225 436.53C632.886 435.25 633.782 434.301 634.913 433.682C636.044 433.042 637.334 432.722 638.785 432.722C640.47 432.722 641.953 433.085 643.233 433.81C644.534 434.535 645.558 435.549 646.305 436.85C647.073 438.151 647.457 439.687 647.457 441.458C647.457 443.229 647.073 444.775 646.305 446.098C645.558 447.399 644.534 448.413 643.233 449.138C641.953 449.863 640.47 450.226 638.785 450.226ZM629.313 456.21V432.914H633.121V436.946L632.993 441.49L633.313 446.034V456.21H629.313ZM638.337 446.802C639.297 446.802 640.15 446.589 640.897 446.162C641.665 445.735 642.273 445.117 642.721 444.306C643.169 443.495 643.393 442.546 643.393 441.458C643.393 440.349 643.169 439.399 642.721 438.61C642.273 437.799 641.665 437.181 640.897 436.754C640.15 436.327 639.297 436.114 638.337 436.114C637.377 436.114 636.513 436.327 635.745 436.754C634.977 437.181 634.369 437.799 633.921 438.61C633.473 439.399 633.249 440.349 633.249 441.458C633.249 442.546 633.473 443.495 633.921 444.306C634.369 445.117 634.977 445.735 635.745 446.162C636.513 446.589 637.377 446.802 638.337 446.802ZM671.26 450.002L666.267 441.81L669.532 439.794L676.028 450.002H671.26ZM663.036 443.154V439.826H668.764V443.154H663.036ZM669.916 441.938L666.14 441.49L671.324 432.914H675.58L669.916 441.938ZM653.212 450.002H648.476L654.94 439.794L658.204 441.81L653.212 450.002ZM664.22 450.002H660.252V432.914H664.22V450.002ZM661.436 443.154H655.74V439.826H661.436V443.154ZM654.556 441.938L648.892 432.914H653.148L658.3 441.49L654.556 441.938ZM679.001 450.002V432.914H683.001V444.178L692.441 432.914H696.089V450.002H692.089V438.738L682.681 450.002H679.001ZM700.349 454.834L702.205 447.762L702.749 450.13C702.003 450.13 701.373 449.906 700.861 449.458C700.371 448.989 700.125 448.359 700.125 447.57C700.125 446.759 700.371 446.119 700.861 445.65C701.373 445.159 701.992 444.914 702.717 444.914C703.464 444.914 704.083 445.159 704.573 445.65C705.064 446.141 705.309 446.781 705.309 447.57C705.309 447.783 705.288 448.018 705.245 448.274C705.203 448.509 705.128 448.786 705.021 449.106C704.936 449.426 704.787 449.831 704.573 450.322L702.941 454.834H700.349ZM728.91 443.25C728.099 443.634 727.235 443.954 726.318 444.21C725.422 444.445 724.472 444.562 723.47 444.562C721.315 444.562 719.64 444.061 718.446 443.058C717.251 442.055 716.654 440.498 716.654 438.386V432.914H720.654V438.13C720.654 439.261 720.974 440.082 721.614 440.594C722.275 441.106 723.182 441.362 724.334 441.362C725.102 441.362 725.87 441.266 726.638 441.074C727.406 440.882 728.163 440.615 728.91 440.274V443.25ZM728.622 450.002V432.914H732.622V450.002H728.622ZM741.553 450.002V435.346L742.481 436.306H735.537V432.914H751.537V436.306H744.625L745.553 435.346V450.002H741.553ZM761.304 450.226C759.555 450.226 757.997 449.853 756.632 449.106C755.267 448.338 754.189 447.293 753.4 445.97C752.611 444.647 752.216 443.143 752.216 441.458C752.216 439.751 752.611 438.247 753.4 436.946C754.189 435.623 755.267 434.589 756.632 433.842C757.997 433.095 759.555 432.722 761.304 432.722C763.075 432.722 764.643 433.095 766.008 433.842C767.395 434.589 768.472 435.613 769.24 436.914C770.029 438.215 770.424 439.73 770.424 441.458C770.424 443.143 770.029 444.647 769.24 445.97C768.472 447.293 767.395 448.338 766.008 449.106C764.643 449.853 763.075 450.226 761.304 450.226ZM761.304 446.802C762.285 446.802 763.16 446.589 763.928 446.162C764.696 445.735 765.293 445.117 765.72 444.306C766.168 443.495 766.392 442.546 766.392 441.458C766.392 440.349 766.168 439.399 765.72 438.61C765.293 437.799 764.696 437.181 763.928 436.754C763.16 436.327 762.296 436.114 761.336 436.114C760.355 436.114 759.48 436.327 758.712 436.754C757.965 437.181 757.368 437.799 756.92 438.61C756.472 439.399 756.248 440.349 756.248 441.458C756.248 442.546 756.472 443.495 756.92 444.306C757.368 445.117 757.965 445.735 758.712 446.162C759.48 446.589 760.344 446.802 761.304 446.802ZM794.931 448.146V436.306H788.371L788.275 439.058C788.233 440.039 788.169 440.989 788.083 441.906C787.998 442.802 787.859 443.634 787.667 444.402C787.475 445.149 787.198 445.767 786.835 446.258C786.473 446.749 785.993 447.069 785.395 447.218L781.427 446.61C782.067 446.61 782.579 446.407 782.963 446.002C783.369 445.575 783.678 444.999 783.891 444.274C784.126 443.527 784.297 442.685 784.403 441.746C784.51 440.786 784.585 439.794 784.627 438.77L784.851 432.914H798.931V448.146H794.931ZM780.819 453.81V446.61H801.459V453.81H797.715V450.002H784.531V453.81H780.819ZM815.4 450.002V446.546L815.176 445.81V439.762C815.176 438.589 814.824 437.682 814.12 437.042C813.416 436.381 812.349 436.05 810.92 436.05C809.96 436.05 809.01 436.199 808.072 436.498C807.154 436.797 806.376 437.213 805.736 437.746L804.168 434.834C805.085 434.13 806.173 433.607 807.432 433.266C808.712 432.903 810.034 432.722 811.4 432.722C813.874 432.722 815.784 433.319 817.128 434.514C818.493 435.687 819.176 437.511 819.176 439.986V450.002H815.4ZM810.024 450.226C808.744 450.226 807.624 450.013 806.664 449.586C805.704 449.138 804.957 448.53 804.424 447.762C803.912 446.973 803.656 446.087 803.656 445.106C803.656 444.146 803.88 443.282 804.328 442.514C804.797 441.746 805.554 441.138 806.6 440.69C807.645 440.242 809.032 440.018 810.76 440.018H815.72V442.674H811.048C809.682 442.674 808.765 442.898 808.296 443.346C807.826 443.773 807.592 444.306 807.592 444.946C807.592 445.671 807.88 446.247 808.456 446.674C809.032 447.101 809.832 447.314 810.856 447.314C811.837 447.314 812.712 447.09 813.48 446.642C814.269 446.194 814.834 445.533 815.176 444.658L815.848 447.058C815.464 448.061 814.77 448.839 813.768 449.394C812.786 449.949 811.538 450.226 810.024 450.226ZM831.902 450.226C830.11 450.226 828.51 449.853 827.102 449.106C825.715 448.338 824.627 447.293 823.838 445.97C823.048 444.647 822.654 443.143 822.654 441.458C822.654 439.751 823.048 438.247 823.838 436.946C824.627 435.623 825.715 434.589 827.102 433.842C828.51 433.095 830.11 432.722 831.902 432.722C833.566 432.722 835.027 433.063 836.286 433.746C837.566 434.407 838.536 435.389 839.198 436.69L836.126 438.482C835.614 437.671 834.984 437.074 834.238 436.69C833.512 436.306 832.723 436.114 831.87 436.114C830.888 436.114 830.003 436.327 829.214 436.754C828.424 437.181 827.806 437.799 827.358 438.61C826.91 439.399 826.686 440.349 826.686 441.458C826.686 442.567 826.91 443.527 827.358 444.338C827.806 445.127 828.424 445.735 829.214 446.162C830.003 446.589 830.888 446.802 831.87 446.802C832.723 446.802 833.512 446.61 834.238 446.226C834.984 445.842 835.614 445.245 836.126 444.434L839.198 446.226C838.536 447.506 837.566 448.498 836.286 449.202C835.027 449.885 833.566 450.226 831.902 450.226ZM846.146 450.002V435.346L847.074 436.306H840.13V432.914H856.13V436.306H849.218L850.146 435.346V450.002H846.146ZM867.876 450.002V432.914H871.876V439.858H880.484V432.914H884.484V450.002H880.484V443.25H871.876V450.002H867.876ZM900.212 450.002V446.546L899.988 445.81V439.762C899.988 438.589 899.636 437.682 898.932 437.042C898.228 436.381 897.162 436.05 895.732 436.05C894.772 436.05 893.823 436.199 892.884 436.498C891.967 436.797 891.188 437.213 890.548 437.746L888.98 434.834C889.898 434.13 890.986 433.607 892.244 433.266C893.524 432.903 894.847 432.722 896.212 432.722C898.687 432.722 900.596 433.319 901.94 434.514C903.306 435.687 903.988 437.511 903.988 439.986V450.002H900.212ZM894.836 450.226C893.556 450.226 892.436 450.013 891.476 449.586C890.516 449.138 889.77 448.53 889.236 447.762C888.724 446.973 888.468 446.087 888.468 445.106C888.468 444.146 888.692 443.282 889.14 442.514C889.61 441.746 890.367 441.138 891.412 440.69C892.458 440.242 893.844 440.018 895.572 440.018H900.532V442.674H895.86C894.495 442.674 893.578 442.898 893.108 443.346C892.639 443.773 892.404 444.306 892.404 444.946C892.404 445.671 892.692 446.247 893.268 446.674C893.844 447.101 894.644 447.314 895.668 447.314C896.65 447.314 897.524 447.09 898.292 446.642C899.082 446.194 899.647 445.533 899.988 444.658L900.66 447.058C900.276 448.061 899.583 448.839 898.58 449.394C897.599 449.949 896.351 450.226 894.836 450.226ZM908.938 450.002V432.914H913.13L920.01 445.042H918.346L925.578 432.914H929.322L929.354 450.002H925.738V437.202L926.378 437.618L919.978 448.21H918.25L911.818 437.33L912.586 437.138V450.002H908.938ZM120.688 494.002V476.914H129.04C131.109 476.914 132.731 477.298 133.904 478.066C135.099 478.834 135.696 479.922 135.696 481.33C135.696 482.717 135.141 483.805 134.032 484.594C132.923 485.362 131.451 485.746 129.616 485.746L130.096 484.754C132.165 484.754 133.701 485.138 134.704 485.906C135.728 486.653 136.24 487.751 136.24 489.202C136.24 490.717 135.675 491.901 134.544 492.754C133.413 493.586 131.696 494.002 129.392 494.002H120.688ZM124.496 491.09H129.072C130.16 491.09 130.981 490.919 131.536 490.578C132.091 490.215 132.368 489.671 132.368 488.946C132.368 488.178 132.112 487.613 131.6 487.25C131.088 486.887 130.288 486.706 129.2 486.706H124.496V491.09ZM124.496 484.05H128.688C129.712 484.05 130.48 483.869 130.992 483.506C131.525 483.122 131.792 482.589 131.792 481.906C131.792 481.202 131.525 480.679 130.992 480.338C130.48 479.997 129.712 479.826 128.688 479.826H124.496V484.05ZM148.117 494.226C146.367 494.226 144.81 493.853 143.445 493.106C142.079 492.338 141.002 491.293 140.213 489.97C139.423 488.647 139.029 487.143 139.029 485.458C139.029 483.751 139.423 482.247 140.213 480.946C141.002 479.623 142.079 478.589 143.445 477.842C144.81 477.095 146.367 476.722 148.117 476.722C149.887 476.722 151.455 477.095 152.821 477.842C154.207 478.589 155.285 479.613 156.053 480.914C156.842 482.215 157.237 483.73 157.237 485.458C157.237 487.143 156.842 488.647 156.053 489.97C155.285 491.293 154.207 492.338 152.821 493.106C151.455 493.853 149.887 494.226 148.117 494.226ZM148.117 490.802C149.098 490.802 149.973 490.589 150.741 490.162C151.509 489.735 152.106 489.117 152.533 488.306C152.981 487.495 153.205 486.546 153.205 485.458C153.205 484.349 152.981 483.399 152.533 482.61C152.106 481.799 151.509 481.181 150.741 480.754C149.973 480.327 149.109 480.114 148.149 480.114C147.167 480.114 146.293 480.327 145.525 480.754C144.778 481.181 144.181 481.799 143.733 482.61C143.285 483.399 143.061 484.349 143.061 485.458C143.061 486.546 143.285 487.495 143.733 488.306C144.181 489.117 144.778 489.735 145.525 490.162C146.293 490.589 147.157 490.802 148.117 490.802ZM166.346 494.29C165.045 494.29 163.754 494.141 162.474 493.842C161.215 493.522 160.074 493.074 159.05 492.498L160.17 489.522C161.002 489.991 161.941 490.354 162.986 490.61C164.031 490.866 165.077 490.994 166.122 490.994C167.018 490.994 167.786 490.909 168.426 490.738C169.066 490.546 169.557 490.269 169.898 489.906C170.261 489.543 170.442 489.127 170.442 488.658C170.442 487.975 170.143 487.463 169.546 487.122C168.97 486.759 168.138 486.578 167.05 486.578H163.754V483.89H166.73C167.413 483.89 167.989 483.815 168.458 483.666C168.949 483.517 169.322 483.293 169.578 482.994C169.834 482.695 169.962 482.343 169.962 481.938C169.962 481.533 169.802 481.181 169.482 480.882C169.183 480.562 168.746 480.327 168.17 480.178C167.594 480.007 166.901 479.922 166.09 479.922C165.237 479.922 164.351 480.029 163.434 480.242C162.538 480.455 161.621 480.765 160.682 481.17L159.658 478.226C160.746 477.735 161.802 477.362 162.826 477.106C163.871 476.829 164.906 476.679 165.93 476.658C167.487 476.594 168.874 476.754 170.09 477.138C171.306 477.522 172.266 478.077 172.97 478.802C173.674 479.527 174.026 480.381 174.026 481.362C174.026 482.173 173.77 482.909 173.258 483.57C172.767 484.21 172.085 484.711 171.21 485.074C170.357 485.437 169.375 485.618 168.266 485.618L168.394 484.754C170.293 484.754 171.786 485.138 172.874 485.906C173.962 486.653 174.506 487.677 174.506 488.978C174.506 490.023 174.154 490.951 173.45 491.762C172.746 492.551 171.775 493.17 170.538 493.618C169.322 494.066 167.925 494.29 166.346 494.29ZM178.626 494.002V476.914H182.818L189.698 489.042H188.034L195.266 476.914H199.01L199.042 494.002H195.426V481.202L196.066 481.618L189.666 492.21H187.938L181.506 481.33L182.274 481.138V494.002H178.626ZM212.023 494.226C210.273 494.226 208.716 493.853 207.351 493.106C205.985 492.338 204.908 491.293 204.119 489.97C203.329 488.647 202.935 487.143 202.935 485.458C202.935 483.751 203.329 482.247 204.119 480.946C204.908 479.623 205.985 478.589 207.351 477.842C208.716 477.095 210.273 476.722 212.023 476.722C213.793 476.722 215.361 477.095 216.727 477.842C218.113 478.589 219.191 479.613 219.959 480.914C220.748 482.215 221.143 483.73 221.143 485.458C221.143 487.143 220.748 488.647 219.959 489.97C219.191 491.293 218.113 492.338 216.727 493.106C215.361 493.853 213.793 494.226 212.023 494.226ZM212.023 490.802C213.004 490.802 213.879 490.589 214.647 490.162C215.415 489.735 216.012 489.117 216.439 488.306C216.887 487.495 217.111 486.546 217.111 485.458C217.111 484.349 216.887 483.399 216.439 482.61C216.012 481.799 215.415 481.181 214.647 480.754C213.879 480.327 213.015 480.114 212.055 480.114C211.073 480.114 210.199 480.327 209.431 480.754C208.684 481.181 208.087 481.799 207.639 482.61C207.191 483.399 206.967 484.349 206.967 485.458C206.967 486.546 207.191 487.495 207.639 488.306C208.087 489.117 208.684 489.735 209.431 490.162C210.199 490.589 211.063 490.802 212.023 490.802ZM244.916 494.002L239.924 485.81L243.188 483.794L249.684 494.002H244.916ZM236.692 487.154V483.826H242.42V487.154H236.692ZM243.572 485.938L239.796 485.49L244.98 476.914H249.236L243.572 485.938ZM226.868 494.002H222.132L228.596 483.794L231.86 485.81L226.868 494.002ZM237.876 494.002H233.908V476.914H237.876V494.002ZM235.092 487.154H229.396V483.826H235.092V487.154ZM228.212 485.938L222.548 476.914H226.804L231.956 485.49L228.212 485.938ZM252.657 494.002V476.914H256.657V483.858H265.265V476.914H269.265V494.002H265.265V487.25H256.657V494.002H252.657ZM282.242 494.226C280.492 494.226 278.935 493.853 277.57 493.106C276.204 492.338 275.127 491.293 274.338 489.97C273.548 488.647 273.154 487.143 273.154 485.458C273.154 483.751 273.548 482.247 274.338 480.946C275.127 479.623 276.204 478.589 277.57 477.842C278.935 477.095 280.492 476.722 282.242 476.722C284.012 476.722 285.58 477.095 286.946 477.842C288.332 478.589 289.41 479.613 290.178 480.914C290.967 482.215 291.362 483.73 291.362 485.458C291.362 487.143 290.967 488.647 290.178 489.97C289.41 491.293 288.332 492.338 286.946 493.106C285.58 493.853 284.012 494.226 282.242 494.226ZM282.242 490.802C283.223 490.802 284.098 490.589 284.866 490.162C285.634 489.735 286.231 489.117 286.658 488.306C287.106 487.495 287.33 486.546 287.33 485.458C287.33 484.349 287.106 483.399 286.658 482.61C286.231 481.799 285.634 481.181 284.866 480.754C284.098 480.327 283.234 480.114 282.274 480.114C281.292 480.114 280.418 480.327 279.65 480.754C278.903 481.181 278.306 481.799 277.858 482.61C277.41 483.399 277.186 484.349 277.186 485.458C277.186 486.546 277.41 487.495 277.858 488.306C278.306 489.117 278.903 489.735 279.65 490.162C280.418 490.589 281.282 490.802 282.242 490.802ZM303.089 494.226C301.297 494.226 299.697 493.853 298.289 493.106C296.902 492.338 295.814 491.293 295.025 489.97C294.236 488.647 293.841 487.143 293.841 485.458C293.841 483.751 294.236 482.247 295.025 480.946C295.814 479.623 296.902 478.589 298.289 477.842C299.697 477.095 301.297 476.722 303.089 476.722C304.753 476.722 306.214 477.063 307.473 477.746C308.753 478.407 309.724 479.389 310.385 480.69L307.313 482.482C306.801 481.671 306.172 481.074 305.425 480.69C304.7 480.306 303.91 480.114 303.057 480.114C302.076 480.114 301.19 480.327 300.401 480.754C299.612 481.181 298.993 481.799 298.545 482.61C298.097 483.399 297.873 484.349 297.873 485.458C297.873 486.567 298.097 487.527 298.545 488.338C298.993 489.127 299.612 489.735 300.401 490.162C301.19 490.589 302.076 490.802 303.057 490.802C303.91 490.802 304.7 490.61 305.425 490.226C306.172 489.842 306.801 489.245 307.313 488.434L310.385 490.226C309.724 491.506 308.753 492.498 307.473 493.202C306.214 493.885 304.753 494.226 303.089 494.226ZM317.334 494.002V479.346L318.262 480.306H311.318V476.914H327.318V480.306H320.406L321.334 479.346V494.002H317.334ZM338.795 482.546C340.993 482.546 342.667 483.037 343.819 484.018C344.971 484.999 345.547 486.386 345.547 488.178C345.547 490.034 344.907 491.485 343.627 492.53C342.347 493.554 340.545 494.055 338.219 494.034L330.219 494.002V476.914H334.219V482.514L338.795 482.546ZM337.867 491.09C339.041 491.111 339.937 490.866 340.555 490.354C341.174 489.842 341.483 489.095 341.483 488.114C341.483 487.133 341.174 486.429 340.555 486.002C339.958 485.554 339.062 485.319 337.867 485.298L334.219 485.266V491.058L337.867 491.09ZM367.379 494.226C365.992 494.226 364.723 493.906 363.571 493.266C362.44 492.626 361.533 491.666 360.851 490.386C360.189 489.085 359.859 487.442 359.859 485.458C359.859 483.453 360.179 481.81 360.819 480.53C361.48 479.25 362.376 478.301 363.507 477.682C364.637 477.042 365.928 476.722 367.379 476.722C369.064 476.722 370.547 477.085 371.827 477.81C373.128 478.535 374.152 479.549 374.899 480.85C375.667 482.151 376.051 483.687 376.051 485.458C376.051 487.229 375.667 488.775 374.899 490.098C374.152 491.399 373.128 492.413 371.827 493.138C370.547 493.863 369.064 494.226 367.379 494.226ZM357.907 500.21V476.914H361.715V480.946L361.587 485.49L361.907 490.034V500.21H357.907ZM366.931 490.802C367.891 490.802 368.744 490.589 369.491 490.162C370.259 489.735 370.867 489.117 371.315 488.306C371.763 487.495 371.987 486.546 371.987 485.458C371.987 484.349 371.763 483.399 371.315 482.61C370.867 481.799 370.259 481.181 369.491 480.754C368.744 480.327 367.891 480.114 366.931 480.114C365.971 480.114 365.107 480.327 364.339 480.754C363.571 481.181 362.963 481.799 362.515 482.61C362.067 483.399 361.843 484.349 361.843 485.458C361.843 486.546 362.067 487.495 362.515 488.306C362.963 489.117 363.571 489.735 364.339 490.162C365.107 490.589 365.971 490.802 366.931 490.802ZM390.181 494.002V490.546L389.957 489.81V483.762C389.957 482.589 389.605 481.682 388.901 481.042C388.197 480.381 387.13 480.05 385.701 480.05C384.741 480.05 383.792 480.199 382.853 480.498C381.936 480.797 381.157 481.213 380.517 481.746L378.949 478.834C379.866 478.13 380.954 477.607 382.213 477.266C383.493 476.903 384.816 476.722 386.181 476.722C388.656 476.722 390.565 477.319 391.909 478.514C393.274 479.687 393.957 481.511 393.957 483.986V494.002H390.181ZM384.805 494.226C383.525 494.226 382.405 494.013 381.445 493.586C380.485 493.138 379.738 492.53 379.205 491.762C378.693 490.973 378.437 490.087 378.437 489.106C378.437 488.146 378.661 487.282 379.109 486.514C379.578 485.746 380.336 485.138 381.381 484.69C382.426 484.242 383.813 484.018 385.541 484.018H390.501V486.674H385.829C384.464 486.674 383.546 486.898 383.077 487.346C382.608 487.773 382.373 488.306 382.373 488.946C382.373 489.671 382.661 490.247 383.237 490.674C383.813 491.101 384.613 491.314 385.637 491.314C386.618 491.314 387.493 491.09 388.261 490.642C389.05 490.194 389.616 489.533 389.957 488.658L390.629 491.058C390.245 492.061 389.552 492.839 388.549 493.394C387.568 493.949 386.32 494.226 384.805 494.226ZM406.683 494.226C404.891 494.226 403.291 493.853 401.883 493.106C400.496 492.338 399.408 491.293 398.619 489.97C397.829 488.647 397.435 487.143 397.435 485.458C397.435 483.751 397.829 482.247 398.619 480.946C399.408 479.623 400.496 478.589 401.883 477.842C403.291 477.095 404.891 476.722 406.683 476.722C408.347 476.722 409.808 477.063 411.067 477.746C412.347 478.407 413.317 479.389 413.979 480.69L410.907 482.482C410.395 481.671 409.765 481.074 409.019 480.69C408.293 480.306 407.504 480.114 406.651 480.114C405.669 480.114 404.784 480.327 403.995 480.754C403.205 481.181 402.587 481.799 402.139 482.61C401.691 483.399 401.467 484.349 401.467 485.458C401.467 486.567 401.691 487.527 402.139 488.338C402.587 489.127 403.205 489.735 403.995 490.162C404.784 490.589 405.669 490.802 406.651 490.802C407.504 490.802 408.293 490.61 409.019 490.226C409.765 489.842 410.395 489.245 410.907 488.434L413.979 490.226C413.317 491.506 412.347 492.498 411.067 493.202C409.808 493.885 408.347 494.226 406.683 494.226ZM428.989 490.61L428.125 491.57V476.914H432.125V491.57L431.165 490.61H439.613L438.685 491.57V476.914H442.685V494.002H417.501V476.914H421.501V491.57L420.573 490.61H428.989ZM448.063 494.002V476.914H452.063V488.178L461.503 476.914H465.151V494.002H461.151V482.738L451.743 494.002H448.063ZM480.004 494.226C478.617 494.226 477.348 493.906 476.196 493.266C475.065 492.626 474.158 491.666 473.476 490.386C472.814 489.085 472.484 487.442 472.484 485.458C472.484 483.453 472.804 481.81 473.444 480.53C474.105 479.25 475.001 478.301 476.132 477.682C477.262 477.042 478.553 476.722 480.004 476.722C481.689 476.722 483.172 477.085 484.452 477.81C485.753 478.535 486.777 479.549 487.524 480.85C488.292 482.151 488.676 483.687 488.676 485.458C488.676 487.229 488.292 488.775 487.524 490.098C486.777 491.399 485.753 492.413 484.452 493.138C483.172 493.863 481.689 494.226 480.004 494.226ZM470.532 500.21V476.914H474.34V480.946L474.212 485.49L474.532 490.034V500.21H470.532ZM479.556 490.802C480.516 490.802 481.369 490.589 482.116 490.162C482.884 489.735 483.492 489.117 483.94 488.306C484.388 487.495 484.612 486.546 484.612 485.458C484.612 484.349 484.388 483.399 483.94 482.61C483.492 481.799 482.884 481.181 482.116 480.754C481.369 480.327 480.516 480.114 479.556 480.114C478.596 480.114 477.732 480.327 476.964 480.754C476.196 481.181 475.588 481.799 475.14 482.61C474.692 483.399 474.468 484.349 474.468 485.458C474.468 486.546 474.692 487.495 475.14 488.306C475.588 489.117 476.196 489.735 476.964 490.162C477.732 490.589 478.596 490.802 479.556 490.802ZM500.625 494.226C498.726 494.226 497.062 493.853 495.633 493.106C494.225 492.338 493.126 491.293 492.337 489.97C491.569 488.647 491.185 487.143 491.185 485.458C491.185 483.751 491.558 482.247 492.305 480.946C493.073 479.623 494.118 478.589 495.441 477.842C496.785 477.095 498.31 476.722 500.017 476.722C501.681 476.722 503.163 477.085 504.465 477.81C505.766 478.535 506.79 479.559 507.537 480.882C508.283 482.205 508.657 483.762 508.657 485.554C508.657 485.725 508.646 485.917 508.625 486.13C508.625 486.343 508.614 486.546 508.593 486.738H494.353V484.082H506.481L504.913 484.914C504.934 483.933 504.731 483.069 504.305 482.322C503.878 481.575 503.291 480.989 502.545 480.562C501.819 480.135 500.977 479.922 500.017 479.922C499.035 479.922 498.171 480.135 497.425 480.562C496.699 480.989 496.123 481.586 495.697 482.354C495.291 483.101 495.089 483.986 495.089 485.01V485.65C495.089 486.674 495.323 487.581 495.793 488.37C496.262 489.159 496.923 489.767 497.777 490.194C498.63 490.621 499.611 490.834 500.721 490.834C501.681 490.834 502.545 490.685 503.313 490.386C504.081 490.087 504.763 489.618 505.361 488.978L507.505 491.442C506.737 492.338 505.766 493.031 504.593 493.522C503.441 493.991 502.118 494.226 500.625 494.226ZM513.032 494.002V476.914H517.032V483.858H525.64V476.914H529.64V494.002H525.64V487.25H517.032V494.002H513.032ZM535.001 494.002V476.914H539.001V488.178L548.441 476.914H552.089V494.002H548.089V482.738L538.681 494.002H535.001ZM568.317 494.002V488.178L568.893 488.85H563.773C561.427 488.85 559.581 488.359 558.237 487.378C556.915 486.375 556.253 484.935 556.253 483.058C556.253 481.053 556.957 479.527 558.365 478.482C559.795 477.437 561.693 476.914 564.061 476.914H571.901V494.002H568.317ZM556.029 494.002L560.637 487.474H564.733L560.317 494.002H556.029ZM568.317 486.898V479.218L568.893 480.274H564.189C562.952 480.274 561.992 480.509 561.309 480.978C560.648 481.426 560.317 482.162 560.317 483.186C560.317 485.106 561.565 486.066 564.061 486.066H568.893L568.317 486.898ZM586.126 494.002V476.914H590.126V488.178L599.566 476.914H603.214V494.002H599.214V482.738L589.806 494.002H586.126ZM617.438 494.002V476.914H633.822V494.002H629.854V479.378L630.782 480.306H620.51L621.438 479.378V494.002H617.438ZM648.691 494.226C647.305 494.226 646.035 493.906 644.883 493.266C643.753 492.626 642.846 491.666 642.163 490.386C641.502 489.085 641.171 487.442 641.171 485.458C641.171 483.453 641.491 481.81 642.131 480.53C642.793 479.25 643.689 478.301 644.819 477.682C645.95 477.042 647.241 476.722 648.691 476.722C650.377 476.722 651.859 477.085 653.139 477.81C654.441 478.535 655.465 479.549 656.211 480.85C656.979 482.151 657.363 483.687 657.363 485.458C657.363 487.229 656.979 488.775 656.211 490.098C655.465 491.399 654.441 492.413 653.139 493.138C651.859 493.863 650.377 494.226 648.691 494.226ZM639.219 500.21V476.914H643.027V480.946L642.899 485.49L643.219 490.034V500.21H639.219ZM648.243 490.802C649.203 490.802 650.057 490.589 650.803 490.162C651.571 489.735 652.179 489.117 652.627 488.306C653.075 487.495 653.299 486.546 653.299 485.458C653.299 484.349 653.075 483.399 652.627 482.61C652.179 481.799 651.571 481.181 650.803 480.754C650.057 480.327 649.203 480.114 648.243 480.114C647.283 480.114 646.419 480.327 645.651 480.754C644.883 481.181 644.275 481.799 643.827 482.61C643.379 483.399 643.155 484.349 643.155 485.458C643.155 486.546 643.379 487.495 643.827 488.306C644.275 489.117 644.883 489.735 645.651 490.162C646.419 490.589 647.283 490.802 648.243 490.802ZM661.344 494.002V476.914H665.344V488.178L674.784 476.914H678.432V494.002H674.432V482.738L665.024 494.002H661.344ZM683.813 494.002V476.914H692.165C694.234 476.914 695.856 477.298 697.029 478.066C698.224 478.834 698.821 479.922 698.821 481.33C698.821 482.717 698.266 483.805 697.157 484.594C696.048 485.362 694.576 485.746 692.741 485.746L693.221 484.754C695.29 484.754 696.826 485.138 697.829 485.906C698.853 486.653 699.365 487.751 699.365 489.202C699.365 490.717 698.8 491.901 697.669 492.754C696.538 493.586 694.821 494.002 692.517 494.002H683.813ZM687.621 491.09H692.197C693.285 491.09 694.106 490.919 694.661 490.578C695.216 490.215 695.493 489.671 695.493 488.946C695.493 488.178 695.237 487.613 694.725 487.25C694.213 486.887 693.413 486.706 692.325 486.706H687.621V491.09ZM687.621 484.05H691.813C692.837 484.05 693.605 483.869 694.117 483.506C694.65 483.122 694.917 482.589 694.917 481.906C694.917 481.202 694.65 480.679 694.117 480.338C693.605 479.997 692.837 479.826 691.813 479.826H687.621V484.05ZM701.13 493.97L701.322 490.61C701.471 490.631 701.61 490.653 701.738 490.674C701.866 490.695 701.983 490.706 702.09 490.706C702.751 490.706 703.263 490.503 703.626 490.098C703.988 489.693 704.255 489.149 704.426 488.466C704.618 487.762 704.746 486.983 704.81 486.13C704.895 485.255 704.959 484.381 705.002 483.506L705.29 476.914H719.114V494.002H715.114V479.218L716.042 480.306H707.914L708.778 479.186L708.554 483.698C708.49 485.213 708.362 486.621 708.17 487.922C707.999 489.202 707.722 490.322 707.338 491.282C706.975 492.242 706.463 492.989 705.802 493.522C705.162 494.055 704.34 494.322 703.338 494.322C703.018 494.322 702.666 494.29 702.282 494.226C701.919 494.162 701.535 494.077 701.13 493.97ZM732.469 494.226C730.57 494.226 728.906 493.853 727.477 493.106C726.069 492.338 724.97 491.293 724.181 489.97C723.413 488.647 723.029 487.143 723.029 485.458C723.029 483.751 723.402 482.247 724.149 480.946C724.917 479.623 725.962 478.589 727.285 477.842C728.629 477.095 730.154 476.722 731.861 476.722C733.525 476.722 735.007 477.085 736.309 477.81C737.61 478.535 738.634 479.559 739.381 480.882C740.127 482.205 740.501 483.762 740.501 485.554C740.501 485.725 740.49 485.917 740.469 486.13C740.469 486.343 740.458 486.546 740.437 486.738H726.197V484.082H738.325L736.757 484.914C736.778 483.933 736.575 483.069 736.149 482.322C735.722 481.575 735.135 480.989 734.389 480.562C733.663 480.135 732.821 479.922 731.861 479.922C730.879 479.922 730.015 480.135 729.269 480.562C728.543 480.989 727.967 481.586 727.541 482.354C727.135 483.101 726.933 483.986 726.933 485.01V485.65C726.933 486.674 727.167 487.581 727.637 488.37C728.106 489.159 728.767 489.767 729.621 490.194C730.474 490.621 731.455 490.834 732.565 490.834C733.525 490.834 734.389 490.685 735.157 490.386C735.925 490.087 736.607 489.618 737.205 488.978L739.349 491.442C738.581 492.338 737.61 493.031 736.437 493.522C735.285 493.991 733.962 494.226 732.469 494.226ZM755.66 487.25C754.849 487.634 753.985 487.954 753.068 488.21C752.172 488.445 751.222 488.562 750.22 488.562C748.065 488.562 746.39 488.061 745.196 487.058C744.001 486.055 743.404 484.498 743.404 482.386V476.914H747.404V482.13C747.404 483.261 747.724 484.082 748.364 484.594C749.025 485.106 749.932 485.362 751.084 485.362C751.852 485.362 752.62 485.266 753.388 485.074C754.156 484.882 754.913 484.615 755.66 484.274V487.25ZM755.372 494.002V476.914H759.372V494.002H755.372ZM772.719 494.226C770.82 494.226 769.156 493.853 767.727 493.106C766.319 492.338 765.22 491.293 764.431 489.97C763.663 488.647 763.279 487.143 763.279 485.458C763.279 483.751 763.652 482.247 764.399 480.946C765.167 479.623 766.212 478.589 767.535 477.842C768.879 477.095 770.404 476.722 772.111 476.722C773.775 476.722 775.257 477.085 776.559 477.81C777.86 478.535 778.884 479.559 779.631 480.882C780.377 482.205 780.751 483.762 780.751 485.554C780.751 485.725 780.74 485.917 780.719 486.13C780.719 486.343 780.708 486.546 780.687 486.738H766.447V484.082H778.575L777.007 484.914C777.028 483.933 776.825 483.069 776.399 482.322C775.972 481.575 775.385 480.989 774.639 480.562C773.913 480.135 773.071 479.922 772.111 479.922C771.129 479.922 770.265 480.135 769.519 480.562C768.793 480.989 768.217 481.586 767.791 482.354C767.385 483.101 767.183 483.986 767.183 485.01V485.65C767.183 486.674 767.417 487.581 767.887 488.37C768.356 489.159 769.017 489.767 769.871 490.194C770.724 490.621 771.705 490.834 772.815 490.834C773.775 490.834 774.639 490.685 775.407 490.386C776.175 490.087 776.857 489.618 777.455 488.978L779.599 491.442C778.831 492.338 777.86 493.031 776.687 493.522C775.535 493.991 774.212 494.226 772.719 494.226ZM785.126 494.002V476.914H789.126V483.858H797.734V476.914H801.734V494.002H797.734V487.25H789.126V494.002H785.126ZM807.094 494.002V476.914H811.094V488.178L820.534 476.914H824.182V494.002H820.182V482.738L810.774 494.002H807.094ZM840.411 494.002V488.178L840.987 488.85H835.867C833.52 488.85 831.675 488.359 830.331 487.378C829.008 486.375 828.347 484.935 828.347 483.058C828.347 481.053 829.051 479.527 830.459 478.482C831.888 477.437 833.787 476.914 836.155 476.914H843.995V494.002H840.411ZM828.123 494.002L832.731 487.474H836.827L832.411 494.002H828.123ZM840.411 486.898V479.218L840.987 480.274H836.283C835.046 480.274 834.086 480.509 833.403 480.978C832.742 481.426 832.411 482.162 832.411 483.186C832.411 485.106 833.659 486.066 836.155 486.066H840.987L840.411 486.898ZM858.219 494.002V476.914H862.219V483.858H870.827V476.914H874.827V494.002H870.827V487.25H862.219V494.002H858.219ZM887.804 494.226C886.055 494.226 884.497 493.853 883.132 493.106C881.767 492.338 880.689 491.293 879.9 489.97C879.111 488.647 878.716 487.143 878.716 485.458C878.716 483.751 879.111 482.247 879.9 480.946C880.689 479.623 881.767 478.589 883.132 477.842C884.497 477.095 886.055 476.722 887.804 476.722C889.575 476.722 891.143 477.095 892.508 477.842C893.895 478.589 894.972 479.613 895.74 480.914C896.529 482.215 896.924 483.73 896.924 485.458C896.924 487.143 896.529 488.647 895.74 489.97C894.972 491.293 893.895 492.338 892.508 493.106C891.143 493.853 889.575 494.226 887.804 494.226ZM887.804 490.802C888.785 490.802 889.66 490.589 890.428 490.162C891.196 489.735 891.793 489.117 892.22 488.306C892.668 487.495 892.892 486.546 892.892 485.458C892.892 484.349 892.668 483.399 892.22 482.61C891.793 481.799 891.196 481.181 890.428 480.754C889.66 480.327 888.796 480.114 887.836 480.114C886.855 480.114 885.98 480.327 885.212 480.754C884.465 481.181 883.868 481.799 883.42 482.61C882.972 483.399 882.748 484.349 882.748 485.458C882.748 486.546 882.972 487.495 883.42 488.306C883.868 489.117 884.465 489.735 885.212 490.162C885.98 490.589 886.844 490.802 887.804 490.802ZM900.876 494.002V476.914H909.228C911.297 476.914 912.918 477.298 914.092 478.066C915.286 478.834 915.884 479.922 915.884 481.33C915.884 482.717 915.329 483.805 914.22 484.594C913.11 485.362 911.638 485.746 909.804 485.746L910.284 484.754C912.353 484.754 913.889 485.138 914.892 485.906C915.916 486.653 916.428 487.751 916.428 489.202C916.428 490.717 915.862 491.901 914.732 492.754C913.601 493.586 911.884 494.002 909.58 494.002H900.876ZM904.684 491.09H909.26C910.348 491.09 911.169 490.919 911.724 490.578C912.278 490.215 912.556 489.671 912.556 488.946C912.556 488.178 912.3 487.613 911.788 487.25C911.276 486.887 910.476 486.706 909.388 486.706H904.684V491.09ZM904.684 484.05H908.876C909.9 484.05 910.668 483.869 911.18 483.506C911.713 483.122 911.98 482.589 911.98 481.906C911.98 481.202 911.713 480.679 911.18 480.338C910.668 479.997 909.9 479.826 908.876 479.826H904.684V484.05ZM928.304 494.226C926.555 494.226 924.997 493.853 923.632 493.106C922.267 492.338 921.189 491.293 920.4 489.97C919.611 488.647 919.216 487.143 919.216 485.458C919.216 483.751 919.611 482.247 920.4 480.946C921.189 479.623 922.267 478.589 923.632 477.842C924.997 477.095 926.555 476.722 928.304 476.722C930.075 476.722 931.643 477.095 933.008 477.842C934.395 478.589 935.472 479.613 936.24 480.914C937.029 482.215 937.424 483.73 937.424 485.458C937.424 487.143 937.029 488.647 936.24 489.97C935.472 491.293 934.395 492.338 933.008 493.106C931.643 493.853 930.075 494.226 928.304 494.226ZM928.304 490.802C929.285 490.802 930.16 490.589 930.928 490.162C931.696 489.735 932.293 489.117 932.72 488.306C933.168 487.495 933.392 486.546 933.392 485.458C933.392 484.349 933.168 483.399 932.72 482.61C932.293 481.799 931.696 481.181 930.928 480.754C930.16 480.327 929.296 480.114 928.336 480.114C927.355 480.114 926.48 480.327 925.712 480.754C924.965 481.181 924.368 481.799 923.92 482.61C923.472 483.399 923.248 484.349 923.248 485.458C923.248 486.546 923.472 487.495 923.92 488.306C924.368 489.117 924.965 489.735 925.712 490.162C926.48 490.589 927.344 490.802 928.304 490.802ZM941.376 494.002V476.914H945.376V488.178L954.816 476.914H958.464V494.002H954.464V482.738L945.056 494.002H941.376ZM949.664 474.898C947.957 474.898 946.645 474.503 945.728 473.714C944.81 472.903 944.341 471.73 944.32 470.194H946.976C946.997 470.962 947.232 471.57 947.68 472.018C948.149 472.466 948.8 472.69 949.632 472.69C950.442 472.69 951.082 472.466 951.552 472.018C952.042 471.57 952.298 470.962 952.32 470.194H955.04C955.018 471.73 954.538 472.903 953.6 473.714C952.682 474.503 951.37 474.898 949.664 474.898ZM131.056 538.002V534.546L130.832 533.81V527.762C130.832 526.589 130.48 525.682 129.776 525.042C129.072 524.381 128.005 524.05 126.576 524.05C125.616 524.05 124.667 524.199 123.728 524.498C122.811 524.797 122.032 525.213 121.392 525.746L119.824 522.834C120.741 522.13 121.829 521.607 123.088 521.266C124.368 520.903 125.691 520.722 127.056 520.722C129.531 520.722 131.44 521.319 132.784 522.514C134.149 523.687 134.832 525.511 134.832 527.986V538.002H131.056ZM125.68 538.226C124.4 538.226 123.28 538.013 122.32 537.586C121.36 537.138 120.613 536.53 120.08 535.762C119.568 534.973 119.312 534.087 119.312 533.106C119.312 532.146 119.536 531.282 119.984 530.514C120.453 529.746 121.211 529.138 122.256 528.69C123.301 528.242 124.688 528.018 126.416 528.018H131.376V530.674H126.704C125.339 530.674 124.421 530.898 123.952 531.346C123.483 531.773 123.248 532.306 123.248 532.946C123.248 533.671 123.536 534.247 124.112 534.674C124.688 535.101 125.488 535.314 126.512 535.314C127.493 535.314 128.368 535.09 129.136 534.642C129.925 534.194 130.491 533.533 130.832 532.658L131.504 535.058C131.12 536.061 130.427 536.839 129.424 537.394C128.443 537.949 127.195 538.226 125.68 538.226ZM141.318 544.434C140.486 544.434 139.654 544.295 138.822 544.018C137.99 543.741 137.296 543.357 136.742 542.866L138.342 539.922C138.747 540.285 139.206 540.573 139.718 540.786C140.23 540.999 140.752 541.106 141.286 541.106C142.011 541.106 142.598 540.925 143.046 540.562C143.494 540.199 143.91 539.591 144.294 538.738L145.286 536.498L145.606 536.018L152.07 520.914H155.91L147.91 539.378C147.376 540.658 146.779 541.671 146.118 542.418C145.478 543.165 144.752 543.687 143.942 543.986C143.152 544.285 142.278 544.434 141.318 544.434ZM144.838 538.61L137.126 520.914H141.286L147.558 535.666L144.838 538.61ZM169.369 536.146V524.306H162.809L162.713 527.058C162.67 528.039 162.606 528.989 162.521 529.906C162.435 530.802 162.297 531.634 162.105 532.402C161.913 533.149 161.635 533.767 161.273 534.258C160.91 534.749 160.43 535.069 159.833 535.218L155.865 534.61C156.505 534.61 157.017 534.407 157.401 534.002C157.806 533.575 158.115 532.999 158.329 532.274C158.563 531.527 158.734 530.685 158.841 529.746C158.947 528.786 159.022 527.794 159.065 526.77L159.289 520.914H173.369V536.146H169.369ZM155.257 541.81V534.61H175.897V541.81H172.153V538.002H158.969V541.81H155.257ZM179.469 538.002V520.914H183.469V532.178L192.909 520.914H196.557V538.002H192.557V526.738L183.149 538.002H179.469ZM205.49 538.002V523.346L206.418 524.306H199.474V520.914H215.474V524.306H208.562L209.49 523.346V538.002H205.49ZM225.242 538.226C223.492 538.226 221.935 537.853 220.57 537.106C219.204 536.338 218.127 535.293 217.338 533.97C216.548 532.647 216.154 531.143 216.154 529.458C216.154 527.751 216.548 526.247 217.338 524.946C218.127 523.623 219.204 522.589 220.57 521.842C221.935 521.095 223.492 520.722 225.242 520.722C227.012 520.722 228.58 521.095 229.946 521.842C231.332 522.589 232.41 523.613 233.178 524.914C233.967 526.215 234.362 527.73 234.362 529.458C234.362 531.143 233.967 532.647 233.178 533.97C232.41 535.293 231.332 536.338 229.946 537.106C228.58 537.853 227.012 538.226 225.242 538.226ZM225.242 534.802C226.223 534.802 227.098 534.589 227.866 534.162C228.634 533.735 229.231 533.117 229.658 532.306C230.106 531.495 230.33 530.546 230.33 529.458C230.33 528.349 230.106 527.399 229.658 526.61C229.231 525.799 228.634 525.181 227.866 524.754C227.098 524.327 226.234 524.114 225.274 524.114C224.292 524.114 223.418 524.327 222.65 524.754C221.903 525.181 221.306 525.799 220.858 526.61C220.41 527.399 220.186 528.349 220.186 529.458C220.186 530.546 220.41 531.495 220.858 532.306C221.306 533.117 221.903 533.735 222.65 534.162C223.418 534.589 224.282 534.802 225.242 534.802ZM247.785 538.226C246.398 538.226 245.129 537.906 243.977 537.266C242.846 536.626 241.94 535.666 241.257 534.386C240.596 533.085 240.265 531.442 240.265 529.458C240.265 527.453 240.585 525.81 241.225 524.53C241.886 523.25 242.782 522.301 243.913 521.682C245.044 521.042 246.334 520.722 247.785 520.722C249.47 520.722 250.953 521.085 252.233 521.81C253.534 522.535 254.558 523.549 255.305 524.85C256.073 526.151 256.457 527.687 256.457 529.458C256.457 531.229 256.073 532.775 255.305 534.098C254.558 535.399 253.534 536.413 252.233 537.138C250.953 537.863 249.47 538.226 247.785 538.226ZM238.313 544.21V520.914H242.121V524.946L241.993 529.49L242.313 534.034V544.21H238.313ZM247.337 534.802C248.297 534.802 249.15 534.589 249.897 534.162C250.665 533.735 251.273 533.117 251.721 532.306C252.169 531.495 252.393 530.546 252.393 529.458C252.393 528.349 252.169 527.399 251.721 526.61C251.273 525.799 250.665 525.181 249.897 524.754C249.15 524.327 248.297 524.114 247.337 524.114C246.377 524.114 245.513 524.327 244.745 524.754C243.977 525.181 243.369 525.799 242.921 526.61C242.473 527.399 242.249 528.349 242.249 529.458C242.249 530.546 242.473 531.495 242.921 532.306C243.369 533.117 243.977 533.735 244.745 534.162C245.513 534.589 246.377 534.802 247.337 534.802ZM260.438 538.002V520.914H264.438V532.178L273.878 520.914H277.526V538.002H273.526V526.738L264.118 538.002H260.438ZM282.907 538.002V520.914H286.907V532.178L296.347 520.914H299.995V538.002H295.995V526.738L286.587 538.002H282.907Z" fill="#A1A19D"/>
<path d="M117.76 326.44C117.28 326.44 116.773 326.4 116.24 326.32C115.733 326.24 115.173 326.133 114.56 326L114.96 320.52C115.333 320.627 115.72 320.68 116.12 320.68C117.213 320.68 118.066 320.24 118.68 319.36C119.293 318.453 119.733 317.16 120 315.48C120.267 313.8 120.44 311.76 120.52 309.36L120.92 298H142.44V326H136.04V301.8L137.52 303.28H125.16L126.48 301.72L126.24 309.12C126.16 311.867 125.973 314.307 125.68 316.44C125.387 318.573 124.933 320.387 124.32 321.88C123.707 323.373 122.867 324.507 121.8 325.28C120.733 326.053 119.387 326.44 117.76 326.44ZM148.953 326V304.48H155.153V317.28L165.633 304.48H171.353V326H165.153V313.2L154.713 326H148.953ZM187.592 326.32C185.272 326.32 183.205 325.853 181.392 324.92C179.578 323.96 178.152 322.64 177.112 320.96C176.098 319.28 175.592 317.373 175.592 315.24C175.592 313.08 176.098 311.173 177.112 309.52C178.152 307.84 179.578 306.533 181.392 305.6C183.205 304.64 185.272 304.16 187.592 304.16C189.858 304.16 191.832 304.64 193.512 305.6C195.192 306.533 196.432 307.88 197.232 309.64L192.392 312.24C191.832 311.227 191.125 310.48 190.272 310C189.445 309.52 188.538 309.28 187.552 309.28C186.485 309.28 185.525 309.52 184.672 310C183.818 310.48 183.138 311.16 182.632 312.04C182.152 312.92 181.912 313.987 181.912 315.24C181.912 316.493 182.152 317.56 182.632 318.44C183.138 319.32 183.818 320 184.672 320.48C185.525 320.96 186.485 321.2 187.552 321.2C188.538 321.2 189.445 320.973 190.272 320.52C191.125 320.04 191.832 319.28 192.392 318.24L197.232 320.88C196.432 322.613 195.192 323.96 193.512 324.92C191.832 325.853 189.858 326.32 187.592 326.32ZM205.584 326V308.16L206.984 309.6H198.304V304.48H219.064V309.6H210.384L211.784 308.16V326H205.584ZM222.391 326V304.48H228.591V317.28L239.071 304.48H244.791V326H238.591V313.2L228.151 326H222.391ZM250.789 326V304.48H256.989V312.88H266.349V304.48H272.589V326H266.349V317.96H256.989V326H250.789ZM278.563 326V304.48H295.803V309.6H283.363L284.763 308.24V326H278.563ZM310.438 326V304.48H316.638V312.88H325.998V304.48H332.238V326H325.998V317.96H316.638V326H310.438ZM351.091 326V321.8L350.691 320.88V313.36C350.691 312.027 350.278 310.987 349.451 310.24C348.651 309.493 347.411 309.12 345.731 309.12C344.584 309.12 343.451 309.307 342.331 309.68C341.238 310.027 340.304 310.507 339.531 311.12L337.291 306.76C338.464 305.933 339.878 305.293 341.531 304.84C343.184 304.387 344.864 304.16 346.571 304.16C349.851 304.16 352.398 304.933 354.211 306.48C356.024 308.027 356.931 310.44 356.931 313.72V326H351.091ZM344.531 326.32C342.851 326.32 341.411 326.04 340.211 325.48C339.011 324.893 338.091 324.107 337.451 323.12C336.811 322.133 336.491 321.027 336.491 319.8C336.491 318.52 336.798 317.4 337.411 316.44C338.051 315.48 339.051 314.733 340.411 314.2C341.771 313.64 343.544 313.36 345.731 313.36H351.451V317H346.411C344.944 317 343.931 317.24 343.371 317.72C342.838 318.2 342.571 318.8 342.571 319.52C342.571 320.32 342.878 320.96 343.491 321.44C344.131 321.893 344.998 322.12 346.091 322.12C347.131 322.12 348.064 321.88 348.891 321.4C349.718 320.893 350.318 320.16 350.691 319.2L351.651 322.08C351.198 323.467 350.371 324.52 349.171 325.24C347.971 325.96 346.424 326.32 344.531 326.32ZM387.4 326.48C385.24 326.48 383.226 326.133 381.36 325.44C379.52 324.72 377.92 323.707 376.56 322.4C375.2 321.093 374.133 319.56 373.36 317.8C372.613 316.04 372.24 314.107 372.24 312C372.24 309.893 372.613 307.96 373.36 306.2C374.133 304.44 375.2 302.907 376.56 301.6C377.946 300.293 379.56 299.293 381.4 298.6C383.24 297.88 385.253 297.52 387.44 297.52C389.866 297.52 392.053 297.947 394 298.8C395.973 299.627 397.626 300.853 398.96 302.48L394.8 306.32C393.84 305.227 392.773 304.413 391.6 303.88C390.426 303.32 389.146 303.04 387.76 303.04C386.453 303.04 385.253 303.253 384.16 303.68C383.066 304.107 382.12 304.72 381.32 305.52C380.52 306.32 379.893 307.267 379.44 308.36C379.013 309.453 378.8 310.667 378.8 312C378.8 313.333 379.013 314.547 379.44 315.64C379.893 316.733 380.52 317.68 381.32 318.48C382.12 319.28 383.066 319.893 384.16 320.32C385.253 320.747 386.453 320.96 387.76 320.96C389.146 320.96 390.426 320.693 391.6 320.16C392.773 319.6 393.84 318.76 394.8 317.64L398.96 321.48C397.626 323.107 395.973 324.347 394 325.2C392.053 326.053 389.853 326.48 387.4 326.48ZM409.296 309.28H422.776V314.32H409.296V309.28ZM409.776 320.8H425.016V326H403.336V298H424.496V303.2H409.776V320.8ZM426.698 326L438.738 309.4V314.12L427.218 298H434.578L442.538 309.24L439.458 309.28L447.298 298H454.338L442.898 313.84V309.2L455.018 326H447.538L439.298 314.12H442.258L434.138 326H426.698Z" fill="#009D4A"/>
<path d="M183.93 240.902C171.897 240.902 161.573 238.369 152.96 233.302C144.347 228.109 137.76 220.635 133.2 210.882C128.64 201.129 126.36 189.095 126.36 174.782C126.36 159.582 129.083 146.725 134.53 136.212C140.103 125.699 147.767 117.719 157.52 112.272C167.4 106.825 178.737 104.102 191.53 104.102C198.243 104.102 204.64 104.798 210.72 106.192C216.927 107.585 222.183 109.738 226.49 112.652L217.37 131.272C213.697 128.865 209.707 127.219 205.4 126.332C201.22 125.319 196.787 124.812 192.1 124.812C179.56 124.812 169.617 128.675 162.27 136.402C154.923 144.129 151.25 155.529 151.25 170.602C151.25 173.009 151.313 175.859 151.44 179.152C151.567 182.319 152.01 185.549 152.77 188.842L145.17 180.482C147.45 175.289 150.553 170.982 154.48 167.562C158.533 164.015 163.283 161.355 168.73 159.582C174.303 157.809 180.32 156.922 186.78 156.922C195.52 156.922 203.31 158.632 210.15 162.052C216.99 165.345 222.437 170.095 226.49 176.302C230.543 182.382 232.57 189.539 232.57 197.772C232.57 206.512 230.417 214.112 226.11 220.572C221.803 227.032 215.977 232.035 208.63 235.582C201.283 239.129 193.05 240.902 183.93 240.902ZM182.6 221.522C187.667 221.522 192.163 220.635 196.09 218.862C200.017 216.962 203.057 214.302 205.21 210.882C207.49 207.462 208.63 203.472 208.63 198.912C208.63 191.945 206.223 186.435 201.41 182.382C196.597 178.329 190.137 176.302 182.03 176.302C176.71 176.302 172.023 177.315 167.97 179.342C164.043 181.242 160.877 183.902 158.47 187.322C156.19 190.742 155.05 194.669 155.05 199.102C155.05 203.155 156.127 206.892 158.28 210.312C160.433 213.732 163.537 216.455 167.59 218.482C171.77 220.509 176.773 221.522 182.6 221.522Z" fill="#009D4A"/>
</g>
<path d="M1081 11.5H95C53.8548 11.5 20.5 44.8548 20.5 86V527C20.5 568.145 53.8548 601.5 95 601.5H1081C1122.15 601.5 1155.5 568.145 1155.5 527V86C1155.5 44.8548 1122.15 11.5 1081 11.5Z" stroke="#009D4A" stroke-width="3"/>
<defs>
<filter id="filter0_f_1789_194" x="-194.2" y="-233.2" width="1048.59" height="1080.56" filterUnits="userSpaceOnUse" color-interpolation-filters="sRGB">
<feFlood flood-opacity="0" result="BackgroundImageFix"/>
<feBlend mode="normal" in="SourceGraphic" in2="BackgroundImageFix" result="shape"/>
<feGaussianBlur stdDeviation="89.35" result="effect1_foregroundBlur_1789_194"/>
</filter>
</defs>
</svg>
