<svg width="1077" height="691" viewBox="0 0 1077 691" fill="none" xmlns="http://www.w3.org/2000/svg">
<path d="M56.5259 0C-18.2024 224.053 -18.8527 466.205 54.6711 690.656L1077 371L56.5259 0Z" fill="#4E9269"/>
<path d="M337.281 263.021L408.719 158.412H426.504L355.066 263.021H337.281ZM346.397 214.9C341.316 214.9 336.832 213.755 332.947 211.463C329.061 209.072 325.972 205.735 323.681 201.451C321.489 197.067 320.393 191.936 320.393 186.058C320.393 180.18 321.489 175.099 323.681 170.815C325.972 166.531 329.061 163.194 332.947 160.803C336.832 158.412 341.316 157.216 346.397 157.216C351.479 157.216 355.962 158.412 359.848 160.803C363.734 163.194 366.773 166.531 368.965 170.815C371.157 175.099 372.253 180.18 372.253 186.058C372.253 191.936 371.157 197.067 368.965 201.451C366.773 205.735 363.734 209.072 359.848 211.463C355.962 213.755 351.479 214.9 346.397 214.9ZM346.397 202.646C349.685 202.646 352.326 201.301 354.318 198.611C356.311 195.822 357.308 191.637 357.308 186.058C357.308 180.479 356.311 176.345 354.318 173.655C352.326 170.865 349.685 169.47 346.397 169.47C343.209 169.47 340.569 170.865 338.476 173.655C336.484 176.345 335.487 180.479 335.487 186.058C335.487 191.538 336.484 195.672 338.476 198.462C340.569 201.251 343.209 202.646 346.397 202.646ZM417.388 264.216C412.406 264.216 407.922 263.07 403.937 260.779C400.051 258.388 397.012 255.05 394.82 250.766C392.628 246.383 391.532 241.252 391.532 235.374C391.532 229.496 392.628 224.415 394.82 220.131C397.012 215.847 400.051 212.509 403.937 210.118C407.922 207.727 412.406 206.532 417.388 206.532C422.569 206.532 427.102 207.727 430.988 210.118C434.874 212.509 437.913 215.847 440.105 220.131C442.297 224.415 443.393 229.496 443.393 235.374C443.393 241.252 442.297 246.383 440.105 250.766C437.913 255.05 434.874 258.388 430.988 260.779C427.102 263.07 422.569 264.216 417.388 264.216ZM417.388 251.962C420.676 251.962 423.316 250.617 425.309 247.927C427.301 245.137 428.298 240.953 428.298 235.374C428.298 229.894 427.301 225.76 425.309 222.97C423.316 220.181 420.676 218.786 417.388 218.786C414.199 218.786 411.559 220.181 409.467 222.97C407.474 225.66 406.478 229.795 406.478 235.374C406.478 240.953 407.474 245.137 409.467 247.927C411.559 250.617 414.199 251.962 417.388 251.962Z" fill="#233126"/>
<path d="M527.494 508.384V502.771L526.959 501.542V491.492C526.959 489.711 526.407 488.321 525.302 487.323C524.233 486.325 522.576 485.826 520.331 485.826C518.799 485.826 517.284 486.076 515.788 486.575C514.326 487.038 513.079 487.679 512.046 488.499L509.052 482.673C510.62 481.568 512.509 480.713 514.718 480.107C516.928 479.501 519.173 479.198 521.454 479.198C525.837 479.198 529.24 480.232 531.663 482.298C534.086 484.365 535.298 487.59 535.298 491.973V508.384H527.494ZM518.727 508.811C516.482 508.811 514.558 508.437 512.955 507.689C511.351 506.905 510.121 505.853 509.266 504.535C508.411 503.216 507.983 501.738 507.983 500.098C507.983 498.388 508.393 496.891 509.213 495.608C510.068 494.325 511.404 493.328 513.222 492.615C515.039 491.867 517.409 491.492 520.331 491.492H527.975V496.357H521.24C519.28 496.357 517.926 496.677 517.177 497.319C516.465 497.96 516.108 498.762 516.108 499.724C516.108 500.793 516.518 501.648 517.338 502.29C518.193 502.896 519.351 503.199 520.812 503.199C522.202 503.199 523.449 502.878 524.554 502.236C525.659 501.559 526.46 500.579 526.959 499.296L528.242 503.145C527.636 504.998 526.532 506.406 524.928 507.368C523.324 508.33 521.258 508.811 518.727 508.811Z" fill="#233126"/>
<path d="M477.028 508.383V479.625H491.728C495.327 479.625 498.142 480.285 500.173 481.603C502.205 482.886 503.22 484.704 503.22 487.055C503.22 489.407 502.258 491.26 500.334 492.615C498.445 493.933 495.933 494.592 492.797 494.592L493.652 492.668C497.145 492.668 499.746 493.309 501.456 494.592C503.203 495.875 504.076 497.746 504.076 500.205C504.076 502.735 503.113 504.731 501.189 506.192C499.265 507.653 496.325 508.383 492.369 508.383H477.028ZM484.672 502.717H491.674C493.207 502.717 494.347 502.468 495.095 501.969C495.879 501.434 496.271 500.633 496.271 499.563C496.271 498.459 495.915 497.657 495.202 497.158C494.49 496.624 493.367 496.356 491.835 496.356H484.672V502.717ZM484.672 491.439H490.98C492.441 491.439 493.527 491.171 494.24 490.637C494.989 490.102 495.363 489.336 495.363 488.338C495.363 487.305 494.989 486.539 494.24 486.04C493.527 485.541 492.441 485.292 490.98 485.292H484.672V491.439Z" fill="#233126"/>
<path d="M454.566 508.383V484.543L456.437 486.467H444.838V479.625H472.58V486.467H460.981L462.852 484.543V508.383H454.566Z" fill="#233126"/>
<path d="M430.519 508.811C427.419 508.811 424.657 508.188 422.234 506.94C419.811 505.657 417.904 503.893 416.515 501.648C415.16 499.403 414.483 496.855 414.483 494.005C414.483 491.118 415.16 488.57 416.515 486.361C417.904 484.116 419.811 482.37 422.234 481.122C424.657 479.84 427.419 479.198 430.519 479.198C433.548 479.198 436.185 479.84 438.43 481.122C440.675 482.37 442.332 484.169 443.401 486.521L436.934 489.996C436.185 488.642 435.241 487.644 434.101 487.002C432.996 486.361 431.784 486.04 430.466 486.04C429.04 486.04 427.758 486.361 426.617 487.002C425.477 487.644 424.568 488.552 423.891 489.728C423.25 490.904 422.929 492.33 422.929 494.005C422.929 495.679 423.25 497.105 423.891 498.281C424.568 499.457 425.477 500.366 426.617 501.007C427.758 501.648 429.04 501.969 430.466 501.969C431.784 501.969 432.996 501.666 434.101 501.06C435.241 500.419 436.185 499.403 436.934 498.014L443.401 501.542C442.332 503.858 440.675 505.657 438.43 506.94C436.185 508.188 433.548 508.811 430.519 508.811Z" fill="#233126"/>
<path d="M396.547 508.811C393.268 508.811 390.382 508.17 387.887 506.887C385.429 505.604 383.522 503.858 382.168 501.648C380.814 499.403 380.137 496.855 380.137 494.005C380.137 491.118 380.796 488.57 382.114 486.361C383.469 484.116 385.304 482.37 387.62 481.122C389.936 479.84 392.556 479.198 395.478 479.198C398.293 479.198 400.823 479.804 403.068 481.016C405.349 482.191 407.148 483.902 408.467 486.147C409.785 488.356 410.445 491.011 410.445 494.112C410.445 494.432 410.427 494.806 410.391 495.234C410.356 495.626 410.32 496 410.284 496.357H386.925V491.492H405.901L402.694 492.936C402.694 491.439 402.391 490.138 401.785 489.033C401.179 487.929 400.342 487.074 399.273 486.468C398.204 485.826 396.957 485.506 395.531 485.506C394.106 485.506 392.841 485.826 391.736 486.468C390.667 487.074 389.83 487.947 389.224 489.087C388.618 490.192 388.315 491.51 388.315 493.042V494.325C388.315 495.893 388.654 497.283 389.331 498.495C390.043 499.671 391.023 500.579 392.271 501.221C393.553 501.827 395.05 502.129 396.761 502.129C398.293 502.129 399.629 501.898 400.77 501.435C401.946 500.971 403.015 500.276 403.977 499.35L408.413 504.161C407.095 505.657 405.438 506.816 403.442 507.635C401.447 508.419 399.148 508.811 396.547 508.811Z" fill="#233126"/>
<path d="M350.225 501.541L348.407 503.466V479.625H356.746V503.466L354.822 501.541H368.078L366.207 503.466V479.625H374.492V508.383H330.607V479.625H338.893V503.466L337.022 501.541H350.225ZM370.751 514.103V506.459L372.622 508.383H365.993V501.541H378.501V514.103H370.751Z" fill="#233126"/>
<path d="M308.914 509.025C306.562 509.025 304.424 508.686 302.5 508.009C300.575 507.296 298.9 506.21 297.475 504.749C296.085 503.252 294.998 501.345 294.214 499.029C293.466 496.713 293.092 493.951 293.092 490.744C293.092 488.463 293.288 486.379 293.68 484.49C294.072 482.601 294.66 480.891 295.444 479.358C296.228 477.79 297.225 476.418 298.437 475.242C299.684 474.031 301.128 473.033 302.767 472.249C304.442 471.429 306.33 470.806 308.433 470.378L322.117 467.652L323.239 474.815L311.159 477.22C310.446 477.363 309.627 477.559 308.7 477.808C307.809 478.022 306.9 478.361 305.974 478.824C305.083 479.287 304.246 479.946 303.462 480.802C302.713 481.621 302.108 482.708 301.644 484.062C301.181 485.381 300.949 487.02 300.949 488.98C300.949 489.586 300.967 490.049 301.003 490.37C301.074 490.69 301.128 491.029 301.163 491.385C301.234 491.742 301.27 492.294 301.27 493.042L298.597 490.423C299.381 488.748 300.379 487.323 301.591 486.147C302.838 484.971 304.263 484.08 305.867 483.474C307.506 482.833 309.324 482.512 311.319 482.512C314.028 482.512 316.397 483.064 318.429 484.169C320.495 485.238 322.099 486.753 323.239 488.713C324.38 490.673 324.95 492.9 324.95 495.394C324.95 498.103 324.273 500.49 322.919 502.557C321.564 504.588 319.676 506.174 317.253 507.314C314.865 508.455 312.085 509.025 308.914 509.025ZM309.342 502.557C310.731 502.557 311.961 502.254 313.03 501.648C314.099 501.007 314.918 500.169 315.489 499.136C316.094 498.067 316.397 496.873 316.397 495.555C316.397 494.272 316.094 493.131 315.489 492.134C314.918 491.136 314.099 490.352 313.03 489.782C311.961 489.212 310.713 488.926 309.288 488.926C307.898 488.926 306.651 489.212 305.546 489.782C304.442 490.316 303.586 491.065 302.981 492.027C302.375 492.989 302.072 494.111 302.072 495.394C302.072 496.713 302.375 497.924 302.981 499.029C303.622 500.098 304.477 500.953 305.546 501.595C306.651 502.236 307.916 502.557 309.342 502.557Z" fill="#233126"/>
<path d="M273.13 508.811C270.065 508.811 267.339 508.17 264.951 506.887C262.599 505.604 260.729 503.858 259.339 501.648C257.985 499.403 257.308 496.855 257.308 494.005C257.308 491.118 257.985 488.57 259.339 486.361C260.729 484.116 262.599 482.37 264.951 481.122C267.339 479.84 270.065 479.198 273.13 479.198C276.159 479.198 278.867 479.84 281.255 481.122C283.642 482.37 285.513 484.098 286.867 486.307C288.221 488.517 288.898 491.083 288.898 494.005C288.898 496.855 288.221 499.403 286.867 501.648C285.513 503.858 283.642 505.604 281.255 506.887C278.867 508.17 276.159 508.811 273.13 508.811ZM273.13 501.969C274.519 501.969 275.767 501.648 276.871 501.007C277.976 500.366 278.849 499.457 279.491 498.281C280.132 497.069 280.453 495.644 280.453 494.005C280.453 492.33 280.132 490.904 279.491 489.728C278.849 488.552 277.976 487.644 276.871 487.002C275.767 486.361 274.519 486.04 273.13 486.04C271.74 486.04 270.493 486.361 269.388 487.002C268.283 487.644 267.392 488.552 266.715 489.728C266.074 490.904 265.753 492.33 265.753 494.005C265.753 495.644 266.074 497.069 266.715 498.281C267.392 499.457 268.283 500.366 269.388 501.007C270.493 501.648 271.74 501.969 273.13 501.969Z" fill="#233126"/>
<path d="M238.157 508.811C235.092 508.811 232.366 508.17 229.979 506.887C227.627 505.604 225.756 503.858 224.366 501.648C223.012 499.403 222.335 496.855 222.335 494.005C222.335 491.118 223.012 488.57 224.366 486.361C225.756 484.116 227.627 482.37 229.979 481.122C232.366 479.84 235.092 479.198 238.157 479.198C241.186 479.198 243.894 479.84 246.282 481.122C248.67 482.37 250.54 484.098 251.895 486.307C253.249 488.517 253.926 491.083 253.926 494.005C253.926 496.855 253.249 499.403 251.895 501.648C250.54 503.858 248.67 505.604 246.282 506.887C243.894 508.17 241.186 508.811 238.157 508.811ZM238.157 501.969C239.547 501.969 240.794 501.648 241.899 501.007C243.003 500.366 243.877 499.457 244.518 498.281C245.159 497.069 245.48 495.644 245.48 494.005C245.48 492.33 245.159 490.904 244.518 489.728C243.877 488.552 243.003 487.644 241.899 487.002C240.794 486.361 239.547 486.04 238.157 486.04C236.767 486.04 235.52 486.361 234.415 487.002C233.311 487.644 232.42 488.552 231.743 489.728C231.101 490.904 230.781 492.33 230.781 494.005C230.781 495.644 231.101 497.069 231.743 498.281C232.42 499.457 233.311 500.366 234.415 501.007C235.52 501.648 236.767 501.969 238.157 501.969Z" fill="#233126"/>
<path d="M207.103 508.811C204.003 508.811 201.241 508.188 198.818 506.94C196.395 505.657 194.488 503.893 193.099 501.648C191.744 499.403 191.067 496.855 191.067 494.005C191.067 491.118 191.744 488.57 193.099 486.361C194.488 484.116 196.395 482.37 198.818 481.122C201.241 479.84 204.003 479.198 207.103 479.198C210.132 479.198 212.769 479.84 215.014 481.122C217.259 482.37 218.916 484.169 219.985 486.521L213.518 489.996C212.769 488.642 211.825 487.644 210.685 487.002C209.58 486.361 208.368 486.04 207.05 486.04C205.624 486.04 204.342 486.361 203.201 487.002C202.061 487.644 201.152 488.552 200.475 489.728C199.834 490.904 199.513 492.33 199.513 494.005C199.513 495.679 199.834 497.105 200.475 498.281C201.152 499.457 202.061 500.366 203.201 501.007C204.342 501.648 205.624 501.969 207.05 501.969C208.368 501.969 209.58 501.666 210.685 501.06C211.825 500.419 212.769 499.403 213.518 498.014L219.985 501.542C218.916 503.858 217.259 505.657 215.014 506.94C212.769 508.188 210.132 508.811 207.103 508.811Z" fill="#233126"/>
<path d="M155.825 508.383V484.543L157.696 486.467H146.097V479.625H173.839V486.467H162.24L164.11 484.543V508.383H155.825Z" fill="#233126"/>
<path d="M129.215 508.811C126.15 508.811 123.424 508.17 121.036 506.887C118.684 505.604 116.814 503.858 115.424 501.648C114.07 499.403 113.393 496.855 113.393 494.005C113.393 491.118 114.07 488.57 115.424 486.361C116.814 484.116 118.684 482.37 121.036 481.122C123.424 479.84 126.15 479.198 129.215 479.198C132.244 479.198 134.952 479.84 137.34 481.122C139.727 482.37 141.598 484.098 142.952 486.307C144.306 488.517 144.983 491.083 144.983 494.005C144.983 496.855 144.306 499.403 142.952 501.648C141.598 503.858 139.727 505.604 137.34 506.887C134.952 508.17 132.244 508.811 129.215 508.811ZM129.215 501.969C130.604 501.969 131.852 501.648 132.956 501.007C134.061 500.366 134.934 499.457 135.576 498.281C136.217 497.069 136.538 495.644 136.538 494.005C136.538 492.33 136.217 490.904 135.576 489.728C134.934 488.552 134.061 487.644 132.956 487.002C131.852 486.361 130.604 486.04 129.215 486.04C127.825 486.04 126.578 486.361 125.473 487.002C124.368 487.644 123.477 488.552 122.8 489.728C122.159 490.904 121.838 492.33 121.838 494.005C121.838 495.644 122.159 497.069 122.8 498.281C123.477 499.457 124.368 500.366 125.473 501.007C126.578 501.648 127.825 501.969 129.215 501.969Z" fill="#233126"/>
<path d="M471.981 441.567V412.809H480.266V441.567H471.981ZM457.495 422.003C461.273 422.039 464.106 422.894 465.994 424.569C467.919 426.208 468.881 428.542 468.881 431.571C468.881 434.743 467.794 437.219 465.62 439.001C463.446 440.747 460.364 441.62 456.373 441.62L442.368 441.567V412.809H450.653V422.003H457.495ZM455.625 435.687C457.228 435.723 458.458 435.384 459.313 434.672C460.168 433.959 460.596 432.89 460.596 431.464C460.596 430.039 460.168 429.023 459.313 428.418C458.458 427.776 457.228 427.438 455.625 427.402L450.653 427.348V435.687H455.625Z" fill="#233126"/>
<path d="M409.116 441.567V412.809H423.816C427.415 412.809 430.23 413.468 432.261 414.787C434.293 416.07 435.308 417.887 435.308 420.239C435.308 422.591 434.346 424.444 432.422 425.798C430.533 427.117 428.021 427.776 424.885 427.776L425.74 425.852C429.232 425.852 431.834 426.493 433.544 427.776C435.29 429.059 436.163 430.93 436.163 433.389C436.163 435.919 435.201 437.914 433.277 439.375C431.353 440.836 428.413 441.567 424.457 441.567H409.116ZM416.76 435.901H423.762C425.295 435.901 426.435 435.651 427.183 435.153C427.967 434.618 428.359 433.816 428.359 432.747C428.359 431.643 428.003 430.841 427.29 430.342C426.578 429.807 425.455 429.54 423.923 429.54H416.76V435.901ZM416.76 424.622H423.067C424.528 424.622 425.615 424.355 426.328 423.821C427.076 423.286 427.451 422.52 427.451 421.522C427.451 420.489 427.076 419.722 426.328 419.224C425.615 418.725 424.528 418.475 423.067 418.475H416.76V424.622Z" fill="#233126"/>
<path d="M371.166 441.567V412.809H379.451V429.914L393.456 412.809H401.1V441.567H392.815V424.462L378.863 441.567H371.166Z" fill="#233126"/>
<path d="M348.704 441.567V417.727L350.575 419.651H338.976V412.809H366.718V419.651H355.118L356.989 417.727V441.567H348.704Z" fill="#233126"/>
<path d="M327.514 441.567V435.955L326.98 434.725V424.676C326.98 422.894 326.427 421.505 325.323 420.507C324.254 419.509 322.597 419.01 320.352 419.01C318.819 419.01 317.305 419.26 315.808 419.758C314.347 420.222 313.1 420.863 312.066 421.683L309.073 415.856C310.641 414.752 312.53 413.896 314.739 413.291C316.948 412.685 319.193 412.382 321.474 412.382C325.857 412.382 329.26 413.415 331.684 415.482C334.107 417.549 335.318 420.774 335.318 425.157V441.567H327.514ZM318.748 441.995C316.503 441.995 314.579 441.621 312.975 440.872C311.371 440.088 310.142 439.037 309.287 437.719C308.432 436.4 308.004 434.921 308.004 433.282C308.004 431.572 308.414 430.075 309.233 428.792C310.089 427.509 311.425 426.511 313.242 425.799C315.06 425.05 317.429 424.676 320.352 424.676H327.995V429.54H321.26C319.3 429.54 317.946 429.861 317.198 430.502C316.485 431.144 316.129 431.946 316.129 432.908C316.129 433.977 316.539 434.832 317.358 435.474C318.213 436.079 319.372 436.382 320.833 436.382C322.222 436.382 323.47 436.062 324.574 435.42C325.679 434.743 326.481 433.763 326.98 432.48L328.263 436.329C327.657 438.182 326.552 439.59 324.949 440.552C323.345 441.514 321.278 441.995 318.748 441.995Z" fill="#233126"/>
<path d="M272.351 441.567V412.809H280.636V429.914L294.641 412.809H302.284V441.567H293.999V424.462L280.048 441.567H272.351Z" fill="#233126"/>
<path d="M234.715 441.567V412.809H243V434.725H254.599V412.809H262.938V441.567H234.715ZM259.357 447.768V441.46L261.281 441.567H254.599V434.725H267.107V447.768H259.357Z" fill="#233126"/>
<path d="M196.767 441.567V412.809H205.052V429.914L219.057 412.809H226.7V441.567H218.415V424.462L204.464 441.567H196.767Z" fill="#233126"/>
<path d="M159.651 441.567V412.809H167.937V424.034H180.445V412.809H188.783V441.567H180.445V430.823H167.937V441.567H159.651Z" fill="#233126"/>
<path d="M116.395 441.567V404.15H125V428.525L142.854 404.15H150.979V441.567H142.426V417.246L124.573 441.567H116.395Z" fill="#233126"/>
<path d="M214.116 390.216C193.521 390.216 175.607 385.925 160.375 377.343C145.358 368.761 133.773 356.21 125.621 339.69C117.469 323.17 113.393 302.787 113.393 278.543C113.393 252.583 118.22 230.592 127.874 212.57C137.742 194.548 151.258 180.816 168.42 171.376C185.797 161.936 205.749 157.216 228.275 157.216C240.289 157.216 251.766 158.503 262.707 161.078C273.649 163.653 283.088 167.514 291.026 172.664L271.718 210.961C265.496 206.67 258.846 203.773 251.766 202.271C244.687 200.555 237.285 199.697 229.562 199.697C210.04 199.697 194.593 205.597 183.223 217.397C171.853 229.197 166.168 246.683 166.168 269.854C166.168 273.716 166.168 278.007 166.168 282.727C166.382 287.447 167.026 292.167 168.098 296.887L153.617 283.371C157.694 275.003 162.95 268.031 169.386 262.452C175.822 256.659 183.438 252.368 192.233 249.579C201.244 246.576 211.112 245.074 221.839 245.074C236.427 245.074 249.514 247.97 261.098 253.763C272.683 259.556 281.908 267.709 288.773 278.222C295.853 288.734 299.393 301.071 299.393 315.231C299.393 330.464 295.531 343.766 287.808 355.137C280.299 366.294 270.109 374.983 257.237 381.205C244.579 387.212 230.206 390.216 214.116 390.216ZM211.22 351.275C218.514 351.275 224.95 349.988 230.528 347.414C236.32 344.624 240.825 340.655 244.043 335.506C247.261 330.357 248.87 324.457 248.87 317.806C248.87 307.508 245.33 299.355 238.251 293.347C231.386 287.125 222.161 284.014 210.576 284.014C202.853 284.014 196.095 285.516 190.303 288.52C184.51 291.309 179.898 295.278 176.465 300.427C173.247 305.362 171.638 311.155 171.638 317.806C171.638 324.242 173.247 330.035 176.465 335.184C179.683 340.119 184.188 344.088 189.981 347.092C195.773 349.881 202.853 351.275 211.22 351.275Z" fill="#233126"/>
</svg>
