<svg width="855" height="431" viewBox="0 0 855 431" fill="none" xmlns="http://www.w3.org/2000/svg">
<g clip-path="url(#clip0_1772_173)">
<rect width="855" height="431" rx="78" fill="#725252"/>
<rect x="-60" y="-7" width="915" height="438" fill="black"/>
<path d="M102.76 238.48C98.7867 238.48 95.68 237.373 93.44 235.16C91.2 232.947 90.08 229.787 90.08 225.68V210H96.56V225.44C96.56 228.107 97.1067 230.027 98.2 231.2C99.2933 232.373 100.827 232.96 102.8 232.96C104.773 232.96 106.307 232.373 107.4 231.2C108.493 230.027 109.04 228.107 109.04 225.44V210H115.44V225.68C115.44 229.787 114.32 232.947 112.08 235.16C109.84 237.373 106.733 238.48 102.76 238.48ZM135.403 238.48C133.217 238.48 131.177 238.12 129.283 237.4C127.417 236.68 125.79 235.667 124.403 234.36C123.043 233.053 121.977 231.52 121.203 229.76C120.457 228 120.083 226.08 120.083 224C120.083 221.92 120.457 220 121.203 218.24C121.977 216.48 123.057 214.947 124.443 213.64C125.83 212.333 127.457 211.32 129.323 210.6C131.19 209.88 133.217 209.52 135.403 209.52C137.617 209.52 139.643 209.88 141.483 210.6C143.35 211.32 144.963 212.333 146.323 213.64C147.71 214.92 148.79 216.44 149.563 218.2C150.337 219.96 150.723 221.893 150.723 224C150.723 226.08 150.337 228.013 149.563 229.8C148.79 231.56 147.71 233.093 146.323 234.4C144.963 235.68 143.35 236.68 141.483 237.4C139.643 238.12 137.617 238.48 135.403 238.48ZM144.563 244.44C143.47 244.44 142.43 244.32 141.443 244.08C140.483 243.84 139.523 243.453 138.563 242.92C137.63 242.387 136.643 241.667 135.603 240.76C134.59 239.853 133.483 238.733 132.283 237.4L139.083 235.68C139.803 236.667 140.47 237.453 141.083 238.04C141.697 238.627 142.283 239.04 142.843 239.28C143.43 239.52 144.043 239.64 144.683 239.64C146.39 239.64 147.91 238.947 149.243 237.56L152.123 241C150.23 243.293 147.71 244.44 144.563 244.44ZM135.403 232.96C136.657 232.96 137.803 232.747 138.843 232.32C139.91 231.893 140.843 231.28 141.643 230.48C142.443 229.68 143.057 228.733 143.483 227.64C143.937 226.52 144.163 225.307 144.163 224C144.163 222.667 143.937 221.453 143.483 220.36C143.057 219.267 142.443 218.32 141.643 217.52C140.843 216.72 139.91 216.107 138.843 215.68C137.803 215.253 136.657 215.04 135.403 215.04C134.15 215.04 132.99 215.253 131.923 215.68C130.857 216.107 129.923 216.72 129.123 217.52C128.35 218.32 127.737 219.267 127.283 220.36C126.857 221.453 126.643 222.667 126.643 224C126.643 225.307 126.857 226.52 127.283 227.64C127.737 228.733 128.35 229.68 129.123 230.48C129.923 231.28 130.857 231.893 131.923 232.32C132.99 232.747 134.15 232.96 135.403 232.96ZM155.593 238V210H169.273C172.793 210 175.433 210.667 177.193 212C178.98 213.333 179.873 215.093 179.873 217.28C179.873 218.747 179.513 220.027 178.793 221.12C178.073 222.187 177.087 223.013 175.833 223.6C174.58 224.187 173.14 224.48 171.513 224.48L172.273 222.84C174.033 222.84 175.593 223.133 176.953 223.72C178.313 224.28 179.367 225.12 180.113 226.24C180.887 227.36 181.273 228.733 181.273 230.36C181.273 232.76 180.327 234.64 178.433 236C176.54 237.333 173.753 238 170.073 238H155.593ZM162.033 233.12H169.593C171.273 233.12 172.54 232.853 173.393 232.32C174.273 231.76 174.713 230.88 174.713 229.68C174.713 228.507 174.273 227.64 173.393 227.08C172.54 226.493 171.273 226.2 169.593 226.2H161.553V221.48H168.473C170.047 221.48 171.247 221.213 172.073 220.68C172.927 220.12 173.353 219.28 173.353 218.16C173.353 217.067 172.927 216.253 172.073 215.72C171.247 215.16 170.047 214.88 168.473 214.88H162.033V233.12ZM185.739 238V216.48H191.979V238H185.739ZM188.859 213.48C187.713 213.48 186.779 213.147 186.059 212.48C185.339 211.813 184.979 210.987 184.979 210C184.979 209.013 185.339 208.187 186.059 207.52C186.779 206.853 187.713 206.52 188.859 206.52C190.006 206.52 190.939 206.84 191.659 207.48C192.379 208.093 192.739 208.893 192.739 209.88C192.739 210.92 192.379 211.787 191.659 212.48C190.966 213.147 190.033 213.48 188.859 213.48ZM197.771 238V216.48H204.011V238H197.771ZM200.891 213.48C199.744 213.48 198.811 213.147 198.091 212.48C197.371 211.813 197.011 210.987 197.011 210C197.011 209.013 197.371 208.187 198.091 207.52C198.811 206.853 199.744 206.52 200.891 206.52C202.037 206.52 202.971 206.84 203.691 207.48C204.411 208.093 204.771 208.893 204.771 209.88C204.771 210.92 204.411 211.787 203.691 212.48C202.997 213.147 202.064 213.48 200.891 213.48ZM213.503 238V215.28H204.543V210H228.943V215.28H219.983V238H213.503ZM232.429 238V210H244.549C247.056 210 249.216 210.413 251.029 211.24C252.843 212.04 254.243 213.2 255.229 214.72C256.216 216.24 256.709 218.053 256.709 220.16C256.709 222.24 256.216 224.04 255.229 225.56C254.243 227.08 252.843 228.253 251.029 229.08C249.216 229.88 247.056 230.28 244.549 230.28H236.029L238.909 227.36V238H232.429ZM238.909 228.08L236.029 225H244.189C246.189 225 247.683 224.573 248.669 223.72C249.656 222.867 250.149 221.68 250.149 220.16C250.149 218.613 249.656 217.413 248.669 216.56C247.683 215.707 246.189 215.28 244.189 215.28H236.029L238.909 212.2V228.08ZM270.977 246.08C268.95 246.08 266.99 245.827 265.097 245.32C263.23 244.84 261.67 244.107 260.417 243.12L262.897 238.64C263.803 239.387 264.95 239.973 266.337 240.4C267.75 240.853 269.137 241.08 270.497 241.08C272.71 241.08 274.31 240.587 275.297 239.6C276.31 238.613 276.817 237.147 276.817 235.2V231.96L277.217 226.56L277.137 221.12V216.48H283.057V234.4C283.057 238.4 282.017 241.347 279.937 243.24C277.857 245.133 274.87 246.08 270.977 246.08ZM270.017 236.96C268.017 236.96 266.203 236.533 264.577 235.68C262.977 234.8 261.683 233.587 260.697 232.04C259.737 230.467 259.257 228.64 259.257 226.56C259.257 224.453 259.737 222.627 260.697 221.08C261.683 219.507 262.977 218.293 264.577 217.44C266.203 216.587 268.017 216.16 270.017 216.16C271.83 216.16 273.43 216.533 274.817 217.28C276.203 218 277.283 219.133 278.057 220.68C278.83 222.2 279.217 224.16 279.217 226.56C279.217 228.933 278.83 230.893 278.057 232.44C277.283 233.96 276.203 235.093 274.817 235.84C273.43 236.587 271.83 236.96 270.017 236.96ZM271.257 231.84C272.35 231.84 273.323 231.627 274.177 231.2C275.03 230.747 275.697 230.12 276.177 229.32C276.657 228.52 276.897 227.6 276.897 226.56C276.897 225.493 276.657 224.573 276.177 223.8C275.697 223 275.03 222.387 274.177 221.96C273.323 221.507 272.35 221.28 271.257 221.28C270.163 221.28 269.19 221.507 268.337 221.96C267.483 222.387 266.803 223 266.297 223.8C265.817 224.573 265.577 225.493 265.577 226.56C265.577 227.6 265.817 228.52 266.297 229.32C266.803 230.12 267.483 230.747 268.337 231.2C269.19 231.627 270.163 231.84 271.257 231.84ZM296.624 238.48C294.678 238.48 292.744 238.227 290.824 237.72C288.904 237.187 287.278 236.44 285.944 235.48L288.464 230.52C289.531 231.293 290.771 231.907 292.184 232.36C293.598 232.813 295.024 233.04 296.464 233.04C298.091 233.04 299.371 232.72 300.304 232.08C301.238 231.44 301.704 230.56 301.704 229.44C301.704 228.373 301.291 227.533 300.464 226.92C299.638 226.307 298.304 226 296.464 226H293.504V221.72L301.304 212.88L302.024 215.2H287.344V210H306.944V214.2L299.184 223.04L295.904 221.16H297.784C301.224 221.16 303.824 221.933 305.584 223.48C307.344 225.027 308.224 227.013 308.224 229.44C308.224 231.013 307.811 232.493 306.984 233.88C306.158 235.24 304.891 236.347 303.184 237.2C301.478 238.053 299.291 238.48 296.624 238.48ZM326.496 238.48C324.283 238.48 322.243 238.133 320.376 237.44C318.536 236.72 316.923 235.707 315.536 234.4C314.176 233.093 313.11 231.56 312.336 229.8C311.59 228.04 311.216 226.107 311.216 224C311.216 221.893 311.59 219.96 312.336 218.2C313.11 216.44 314.19 214.907 315.576 213.6C316.963 212.293 318.59 211.293 320.456 210.6C322.323 209.88 324.376 209.52 326.616 209.52C329.096 209.52 331.323 209.933 333.296 210.76C335.296 211.587 336.976 212.787 338.336 214.36L334.176 218.2C333.163 217.133 332.056 216.347 330.856 215.84C329.656 215.307 328.35 215.04 326.936 215.04C325.576 215.04 324.336 215.253 323.216 215.68C322.096 216.107 321.123 216.72 320.296 217.52C319.496 218.32 318.87 219.267 318.416 220.36C317.99 221.453 317.776 222.667 317.776 224C317.776 225.307 317.99 226.507 318.416 227.6C318.87 228.693 319.496 229.653 320.296 230.48C321.123 231.28 322.083 231.893 323.176 232.32C324.296 232.747 325.523 232.96 326.856 232.96C328.136 232.96 329.376 232.76 330.576 232.36C331.803 231.933 332.99 231.227 334.136 230.24L337.816 234.92C336.296 236.067 334.523 236.947 332.496 237.56C330.496 238.173 328.496 238.48 326.496 238.48ZM331.896 234.08V223.56H337.816V234.92L331.896 234.08ZM356.116 238.32C354.302 238.32 352.716 237.92 351.356 237.12C349.996 236.32 348.929 235.107 348.156 233.48C347.409 231.827 347.036 229.747 347.036 227.24C347.036 224.707 347.396 222.627 348.116 221C348.836 219.373 349.876 218.16 351.236 217.36C352.596 216.56 354.222 216.16 356.116 216.16C358.142 216.16 359.956 216.627 361.556 217.56C363.182 218.467 364.462 219.747 365.396 221.4C366.356 223.053 366.836 225 366.836 227.24C366.836 229.507 366.356 231.467 365.396 233.12C364.462 234.773 363.182 236.053 361.556 236.96C359.956 237.867 358.142 238.32 356.116 238.32ZM343.396 245.76V216.48H349.356V220.88L349.236 227.28L349.636 233.64V245.76H343.396ZM355.036 233.2C356.076 233.2 356.996 232.96 357.796 232.48C358.622 232 359.276 231.32 359.756 230.44C360.262 229.533 360.516 228.467 360.516 227.24C360.516 225.987 360.262 224.92 359.756 224.04C359.276 223.16 358.622 222.48 357.796 222C356.996 221.52 356.076 221.28 355.036 221.28C353.996 221.28 353.062 221.52 352.236 222C351.409 222.48 350.756 223.16 350.276 224.04C349.796 224.92 349.556 225.987 349.556 227.24C349.556 228.467 349.796 229.533 350.276 230.44C350.756 231.32 351.409 232 352.236 232.48C353.062 232.96 353.996 233.2 355.036 233.2ZM373.147 246.08C372.027 246.08 370.92 245.907 369.827 245.56C368.734 245.213 367.84 244.733 367.147 244.12L369.427 239.68C369.907 240.107 370.454 240.44 371.067 240.68C371.707 240.92 372.334 241.04 372.947 241.04C373.827 241.04 374.52 240.827 375.027 240.4C375.56 240 376.04 239.32 376.467 238.36L377.587 235.72L378.067 235.04L385.787 216.48H391.787L382.067 239.32C381.374 241.053 380.574 242.413 379.667 243.4C378.787 244.387 377.8 245.08 376.707 245.48C375.64 245.88 374.454 246.08 373.147 246.08ZM376.827 238.84L367.227 216.48H373.667L381.107 234.48L376.827 238.84ZM408.176 238.48C405.963 238.48 403.923 238.133 402.056 237.44C400.216 236.72 398.603 235.707 397.216 234.4C395.856 233.093 394.789 231.56 394.016 229.8C393.269 228.04 392.896 226.107 392.896 224C392.896 221.893 393.269 219.96 394.016 218.2C394.789 216.44 395.869 214.907 397.256 213.6C398.643 212.293 400.269 211.293 402.136 210.6C404.003 209.88 406.056 209.52 408.296 209.52C410.776 209.52 413.003 209.933 414.976 210.76C416.976 211.587 418.656 212.787 420.016 214.36L415.856 218.2C414.843 217.133 413.736 216.347 412.536 215.84C411.336 215.307 410.029 215.04 408.616 215.04C407.256 215.04 406.016 215.253 404.896 215.68C403.776 216.107 402.803 216.72 401.976 217.52C401.176 218.32 400.549 219.267 400.096 220.36C399.669 221.453 399.456 222.667 399.456 224C399.456 225.307 399.669 226.507 400.096 227.6C400.549 228.693 401.176 229.653 401.976 230.48C402.803 231.28 403.763 231.893 404.856 232.32C405.976 232.747 407.203 232.96 408.536 232.96C409.816 232.96 411.056 232.76 412.256 232.36C413.483 231.933 414.669 231.227 415.816 230.24L419.496 234.92C417.976 236.067 416.203 236.947 414.176 237.56C412.176 238.173 410.176 238.48 408.176 238.48ZM413.576 234.08V223.56H419.496V234.92L413.576 234.08ZM432.475 238V226.56L433.955 230.48L421.635 210H428.515L437.955 225.72H433.995L443.475 210H449.835L437.515 230.48L438.955 226.56V238H432.475ZM459.35 238V226.56L460.83 230.48L448.51 210H455.39L464.83 225.72H460.87L470.35 210H476.71L464.39 230.48L465.83 226.56V238H459.35ZM479.187 238V210H491.907C494.947 210 497.627 210.587 499.947 211.76C502.267 212.907 504.081 214.52 505.387 216.6C506.694 218.68 507.347 221.147 507.347 224C507.347 226.827 506.694 229.293 505.387 231.4C504.081 233.48 502.267 235.107 499.947 236.28C497.627 237.427 494.947 238 491.907 238H479.187ZM485.667 232.68H491.587C493.454 232.68 495.067 232.333 496.427 231.64C497.814 230.92 498.881 229.907 499.627 228.6C500.401 227.293 500.787 225.76 500.787 224C500.787 222.213 500.401 220.68 499.627 219.4C498.881 218.093 497.814 217.093 496.427 216.4C495.067 215.68 493.454 215.32 491.587 215.32H485.667V232.68ZM522.474 238.32C520.021 238.32 517.861 237.84 515.994 236.88C514.154 235.92 512.727 234.613 511.714 232.96C510.701 231.28 510.194 229.373 510.194 227.24C510.194 225.08 510.687 223.173 511.674 221.52C512.687 219.84 514.061 218.533 515.794 217.6C517.527 216.64 519.487 216.16 521.674 216.16C523.781 216.16 525.674 216.613 527.354 217.52C529.061 218.4 530.407 219.68 531.394 221.36C532.381 223.013 532.874 225 532.874 227.32C532.874 227.56 532.861 227.84 532.834 228.16C532.807 228.453 532.781 228.733 532.754 229H515.274V225.36H529.474L527.074 226.44C527.074 225.32 526.847 224.347 526.394 223.52C525.941 222.693 525.314 222.053 524.514 221.6C523.714 221.12 522.781 220.88 521.714 220.88C520.647 220.88 519.701 221.12 518.874 221.6C518.074 222.053 517.447 222.707 516.994 223.56C516.541 224.387 516.314 225.373 516.314 226.52V227.48C516.314 228.653 516.567 229.693 517.074 230.6C517.607 231.48 518.341 232.16 519.274 232.64C520.234 233.093 521.354 233.32 522.634 233.32C523.781 233.32 524.781 233.147 525.634 232.8C526.514 232.453 527.314 231.933 528.034 231.24L531.354 234.84C530.367 235.96 529.127 236.827 527.634 237.44C526.141 238.027 524.421 238.32 522.474 238.32ZM547.148 246.08C545.122 246.08 543.162 245.827 541.268 245.32C539.402 244.84 537.842 244.107 536.588 243.12L539.068 238.64C539.975 239.387 541.122 239.973 542.508 240.4C543.922 240.853 545.308 241.08 546.668 241.08C548.882 241.08 550.482 240.587 551.468 239.6C552.482 238.613 552.988 237.147 552.988 235.2V231.96L553.388 226.56L553.308 221.12V216.48H559.228V234.4C559.228 238.4 558.188 241.347 556.108 243.24C554.028 245.133 551.042 246.08 547.148 246.08ZM546.188 236.96C544.188 236.96 542.375 236.533 540.748 235.68C539.148 234.8 537.855 233.587 536.868 232.04C535.908 230.467 535.428 228.64 535.428 226.56C535.428 224.453 535.908 222.627 536.868 221.08C537.855 219.507 539.148 218.293 540.748 217.44C542.375 216.587 544.188 216.16 546.188 216.16C548.002 216.16 549.602 216.533 550.988 217.28C552.375 218 553.455 219.133 554.228 220.68C555.002 222.2 555.388 224.16 555.388 226.56C555.388 228.933 555.002 230.893 554.228 232.44C553.455 233.96 552.375 235.093 550.988 235.84C549.602 236.587 548.002 236.96 546.188 236.96ZM547.428 231.84C548.522 231.84 549.495 231.627 550.348 231.2C551.202 230.747 551.868 230.12 552.348 229.32C552.828 228.52 553.068 227.6 553.068 226.56C553.068 225.493 552.828 224.573 552.348 223.8C551.868 223 551.202 222.387 550.348 221.96C549.495 221.507 548.522 221.28 547.428 221.28C546.335 221.28 545.362 221.507 544.508 221.96C543.655 222.387 542.975 223 542.468 223.8C541.988 224.573 541.748 225.493 541.748 226.56C541.748 227.6 541.988 228.52 542.468 229.32C542.975 230.12 543.655 230.747 544.508 231.2C545.362 231.627 546.335 231.84 547.428 231.84ZM573.556 209.52C576.143 209.52 578.37 210.053 580.236 211.12C582.103 212.187 583.543 213.747 584.556 215.8C585.57 217.827 586.076 220.36 586.076 223.4C586.076 226.627 585.463 229.36 584.236 231.6C583.036 233.84 581.37 235.547 579.236 236.72C577.103 237.893 574.623 238.48 571.796 238.48C570.33 238.48 568.916 238.32 567.556 238C566.196 237.68 565.023 237.2 564.036 236.56L566.436 231.8C567.21 232.333 568.036 232.707 568.916 232.92C569.796 233.107 570.716 233.2 571.676 233.2C574.076 233.2 575.983 232.467 577.396 231C578.836 229.533 579.556 227.36 579.556 224.48C579.556 224 579.543 223.467 579.516 222.88C579.49 222.293 579.423 221.707 579.316 221.12L581.076 222.8C580.623 223.84 579.983 224.72 579.156 225.44C578.33 226.133 577.37 226.667 576.276 227.04C575.183 227.387 573.956 227.56 572.596 227.56C570.81 227.56 569.183 227.2 567.716 226.48C566.276 225.76 565.116 224.747 564.236 223.44C563.383 222.133 562.956 220.6 562.956 218.84C562.956 216.92 563.423 215.267 564.356 213.88C565.316 212.493 566.596 211.427 568.196 210.68C569.823 209.907 571.61 209.52 573.556 209.52ZM573.956 214.36C573.023 214.36 572.21 214.533 571.516 214.88C570.823 215.2 570.276 215.68 569.876 216.32C569.476 216.933 569.276 217.667 569.276 218.52C569.276 219.8 569.703 220.827 570.556 221.6C571.436 222.347 572.596 222.72 574.036 222.72C574.97 222.72 575.796 222.547 576.516 222.2C577.263 221.827 577.836 221.32 578.236 220.68C578.636 220.04 578.836 219.32 578.836 218.52C578.836 217.72 578.636 217.013 578.236 216.4C577.863 215.76 577.316 215.267 576.596 214.92C575.876 214.547 574.996 214.36 573.956 214.36ZM603.585 216.16C605.292 216.16 606.812 216.507 608.145 217.2C609.505 217.867 610.572 218.907 611.345 220.32C612.118 221.707 612.505 223.493 612.505 225.68V238H606.265V226.64C606.265 224.907 605.878 223.627 605.105 222.8C604.358 221.973 603.292 221.56 601.905 221.56C600.918 221.56 600.025 221.773 599.225 222.2C598.452 222.6 597.838 223.227 597.385 224.08C596.958 224.933 596.745 226.027 596.745 227.36V238H590.505V216.48H596.465V222.44L595.345 220.64C596.118 219.2 597.225 218.093 598.665 217.32C600.105 216.547 601.745 216.16 603.585 216.16ZM624.561 221.28H638.041V226.32H624.561V221.28ZM625.041 232.8H640.281V238H618.601V210H639.761V215.2H625.041V232.8ZM647.748 238.32C646.681 238.32 645.761 237.96 644.988 237.24C644.241 236.493 643.868 235.547 643.868 234.4C643.868 233.253 644.241 232.333 644.988 231.64C645.761 230.92 646.681 230.56 647.748 230.56C648.841 230.56 649.761 230.92 650.508 231.64C651.254 232.333 651.628 233.253 651.628 234.4C651.628 235.547 651.254 236.493 650.508 237.24C649.761 237.96 648.841 238.32 647.748 238.32ZM658.217 238.32C657.15 238.32 656.23 237.96 655.457 237.24C654.71 236.493 654.337 235.547 654.337 234.4C654.337 233.253 654.71 232.333 655.457 231.64C656.23 230.92 657.15 230.56 658.217 230.56C659.31 230.56 660.23 230.92 660.977 231.64C661.723 232.333 662.097 233.253 662.097 234.4C662.097 235.547 661.723 236.493 660.977 237.24C660.23 237.96 659.31 238.32 658.217 238.32ZM668.685 238.32C667.619 238.32 666.699 237.96 665.925 237.24C665.179 236.493 664.805 235.547 664.805 234.4C664.805 233.253 665.179 232.333 665.925 231.64C666.699 230.92 667.619 230.56 668.685 230.56C669.779 230.56 670.699 230.92 671.445 231.64C672.192 232.333 672.565 233.253 672.565 234.4C672.565 235.547 672.192 236.493 671.445 237.24C670.699 237.96 669.779 238.32 668.685 238.32Z" fill="#009D4A"/>
<rect x="87" y="62" width="356" height="97" rx="48.5" fill="#1C1917"/>
<path d="M121.776 123V100.6H140.624V123H138.288V102.008L138.896 102.648H123.504L124.112 102.008V123H121.776ZM147.926 129.368C147.137 129.368 146.38 129.24 145.654 128.984C144.95 128.728 144.342 128.344 143.83 127.832L144.886 126.136C145.313 126.541 145.772 126.851 146.262 127.064C146.774 127.299 147.34 127.416 147.958 127.416C148.705 127.416 149.345 127.203 149.878 126.776C150.433 126.371 150.956 125.645 151.446 124.6L152.534 122.136L152.79 121.784L159.702 106.2H161.942L153.526 125.016C153.057 126.104 152.534 126.968 151.958 127.608C151.404 128.248 150.796 128.696 150.134 128.952C149.473 129.229 148.737 129.368 147.926 129.368ZM152.406 123.48L144.662 106.2H147.03L153.878 121.624L152.406 123.48ZM161.691 122.968L161.851 121.016C162.001 121.037 162.139 121.069 162.267 121.112C162.417 121.133 162.545 121.144 162.651 121.144C163.334 121.144 163.878 120.888 164.283 120.376C164.71 119.864 165.03 119.181 165.243 118.328C165.457 117.475 165.606 116.515 165.691 115.448C165.777 114.36 165.851 113.272 165.915 112.184L166.203 106.2H178.523V123H176.251V107.512L176.827 108.184H167.675L168.219 107.48L167.963 112.344C167.899 113.795 167.782 115.181 167.611 116.504C167.462 117.827 167.217 118.989 166.875 119.992C166.555 120.995 166.107 121.784 165.531 122.36C164.955 122.915 164.219 123.192 163.323 123.192C163.067 123.192 162.801 123.171 162.523 123.128C162.267 123.085 161.99 123.032 161.691 122.968ZM190.285 122.968L190.445 121.016C190.594 121.037 190.733 121.069 190.861 121.112C191.01 121.133 191.138 121.144 191.245 121.144C191.928 121.144 192.472 120.888 192.877 120.376C193.304 119.864 193.624 119.181 193.837 118.328C194.05 117.475 194.2 116.515 194.285 115.448C194.37 114.36 194.445 113.272 194.509 112.184L194.797 106.2H207.117V123H204.845V107.512L205.421 108.184H196.269L196.813 107.48L196.557 112.344C196.493 113.795 196.376 115.181 196.205 116.504C196.056 117.827 195.81 118.989 195.469 119.992C195.149 120.995 194.701 121.784 194.125 122.36C193.549 122.915 192.813 123.192 191.917 123.192C191.661 123.192 191.394 123.171 191.117 123.128C190.861 123.085 190.584 123.032 190.285 122.968ZM213.576 123V106.2H215.848V119.544L227.08 106.2H229.096V123H226.824V109.624L215.624 123H213.576ZM247.927 123L241.015 114.68L242.903 113.56L250.615 123H247.927ZM235.607 123V106.2H237.879V123H235.607ZM237.175 115.512V113.56H242.583V115.512H237.175ZM243.095 114.84L240.983 114.52L247.671 106.2H250.135L243.095 114.84ZM254.201 123V106.2H261.625C263.523 106.2 265.017 106.563 266.105 107.288C267.214 108.013 267.769 109.08 267.769 110.488C267.769 111.853 267.246 112.909 266.201 113.656C265.155 114.381 263.779 114.744 262.073 114.744L262.521 114.072C264.526 114.072 265.998 114.445 266.937 115.192C267.875 115.939 268.345 117.016 268.345 118.424C268.345 119.875 267.811 121.005 266.745 121.816C265.699 122.605 264.067 123 261.849 123H254.201ZM256.409 121.208H261.753C263.182 121.208 264.259 120.984 264.985 120.536C265.731 120.067 266.105 119.32 266.105 118.296C266.105 117.272 265.774 116.525 265.113 116.056C264.451 115.587 263.406 115.352 261.977 115.352H256.409V121.208ZM256.409 113.656H261.465C262.766 113.656 263.758 113.411 264.441 112.92C265.145 112.429 265.497 111.715 265.497 110.776C265.497 109.837 265.145 109.133 264.441 108.664C263.758 108.195 262.766 107.96 261.465 107.96H256.409V113.656ZM273.67 123V106.2H275.942V119.544L287.174 106.2H289.19V123H286.918V109.624L275.718 123H273.67ZM307.221 121.912V108.184H299.125L298.933 111.928C298.89 113.059 298.815 114.168 298.709 115.256C298.623 116.344 298.463 117.347 298.229 118.264C298.015 119.16 297.706 119.896 297.301 120.472C296.895 121.027 296.373 121.347 295.733 121.432L293.461 121.016C294.122 121.037 294.666 120.803 295.093 120.312C295.519 119.8 295.85 119.107 296.085 118.232C296.319 117.357 296.49 116.365 296.597 115.256C296.703 114.125 296.789 112.973 296.853 111.8L297.077 106.2H309.493V121.912H307.221ZM292.757 127.064V121.016H312.117V127.064H309.973V123H294.901V127.064H292.757ZM316.545 123V106.2H318.817V113.624H329.409V106.2H331.681V123H329.409V115.576H318.817V123H316.545ZM345.05 123.16C343.429 123.16 341.968 122.797 340.666 122.072C339.386 121.325 338.373 120.312 337.626 119.032C336.88 117.731 336.506 116.248 336.506 114.584C336.506 112.899 336.88 111.416 337.626 110.136C338.373 108.856 339.386 107.853 340.666 107.128C341.946 106.403 343.408 106.04 345.05 106.04C346.714 106.04 348.186 106.403 349.466 107.128C350.768 107.853 351.781 108.856 352.506 110.136C353.253 111.416 353.626 112.899 353.626 114.584C353.626 116.248 353.253 117.731 352.506 119.032C351.781 120.312 350.768 121.325 349.466 122.072C348.165 122.797 346.693 123.16 345.05 123.16ZM345.05 121.144C346.266 121.144 347.344 120.877 348.282 120.344C349.221 119.789 349.957 119.021 350.49 118.04C351.045 117.037 351.322 115.885 351.322 114.584C351.322 113.261 351.045 112.109 350.49 111.128C349.957 110.147 349.221 109.389 348.282 108.856C347.344 108.301 346.277 108.024 345.082 108.024C343.888 108.024 342.821 108.301 341.882 108.856C340.944 109.389 340.197 110.147 339.642 111.128C339.088 112.109 338.81 113.261 338.81 114.584C338.81 115.885 339.088 117.037 339.642 118.04C340.197 119.021 340.944 119.789 341.882 120.344C342.821 120.877 343.877 121.144 345.05 121.144ZM365.522 123.16C363.858 123.16 362.365 122.797 361.042 122.072C359.741 121.325 358.717 120.312 357.97 119.032C357.223 117.731 356.85 116.248 356.85 114.584C356.85 112.899 357.223 111.416 357.97 110.136C358.717 108.856 359.741 107.853 361.042 107.128C362.365 106.403 363.858 106.04 365.522 106.04C366.951 106.04 368.242 106.317 369.394 106.872C370.546 107.427 371.453 108.259 372.114 109.368L370.418 110.52C369.842 109.667 369.127 109.037 368.274 108.632C367.421 108.227 366.493 108.024 365.49 108.024C364.295 108.024 363.218 108.301 362.258 108.856C361.298 109.389 360.541 110.147 359.986 111.128C359.431 112.109 359.154 113.261 359.154 114.584C359.154 115.907 359.431 117.059 359.986 118.04C360.541 119.021 361.298 119.789 362.258 120.344C363.218 120.877 364.295 121.144 365.49 121.144C366.493 121.144 367.421 120.941 368.274 120.536C369.127 120.131 369.842 119.512 370.418 118.68L372.114 119.832C371.453 120.92 370.546 121.752 369.394 122.328C368.242 122.883 366.951 123.16 365.522 123.16ZM379.401 123V107.576L379.977 108.184H373.033V106.2H388.041V108.184H381.097L381.673 107.576V123H379.401ZM391.326 123V106.2H393.598V119.544L404.83 106.2H406.846V123H404.574V109.624L393.374 123H391.326Z" fill="#009D4A"/>
<path d="M87 350L108.154 320.845L113.923 341.67L132 311" stroke="#009D4A" stroke-width="4" stroke-linecap="round"/>
<path d="M151.488 341.944V336.712L167.328 315.4H175.488L159.984 336.712L156.192 335.608H182.64V341.944H151.488ZM169.584 349V341.944L169.824 335.608V329.32H177.168V349H169.584ZM184.582 341.944V336.712L200.422 315.4H208.582L193.078 336.712L189.286 335.608H215.734V341.944H184.582ZM202.678 349V341.944L202.918 335.608V329.32H210.262V349H202.678ZM223.413 349.384C222.133 349.384 221.029 348.952 220.101 348.088C219.205 347.192 218.757 346.056 218.757 344.68C218.757 343.304 219.205 342.2 220.101 341.368C221.029 340.504 222.133 340.072 223.413 340.072C224.725 340.072 225.829 340.504 226.725 341.368C227.621 342.2 228.069 343.304 228.069 344.68C228.069 346.056 227.621 347.192 226.725 348.088C225.829 348.952 224.725 349.384 223.413 349.384ZM245.974 349.576C242.902 349.576 240.23 348.936 237.958 347.656C235.718 346.376 233.99 344.504 232.774 342.04C231.558 339.576 230.95 336.536 230.95 332.92C230.95 329.048 231.67 325.768 233.11 323.08C234.582 320.392 236.598 318.344 239.158 316.936C241.75 315.528 244.726 314.824 248.086 314.824C249.878 314.824 251.59 315.016 253.222 315.4C254.854 315.784 256.262 316.36 257.446 317.128L254.566 322.84C253.638 322.2 252.646 321.768 251.59 321.544C250.534 321.288 249.43 321.16 248.278 321.16C245.366 321.16 243.062 322.04 241.366 323.8C239.67 325.56 238.822 328.168 238.822 331.624C238.822 332.2 238.822 332.84 238.822 333.544C238.854 334.248 238.95 334.952 239.11 335.656L236.95 333.64C237.558 332.392 238.342 331.352 239.302 330.52C240.262 329.656 241.398 329.016 242.71 328.6C244.054 328.152 245.526 327.928 247.126 327.928C249.302 327.928 251.254 328.36 252.982 329.224C254.71 330.088 256.086 331.304 257.11 332.872C258.166 334.44 258.694 336.28 258.694 338.392C258.694 340.664 258.118 342.648 256.966 344.344C255.846 346.008 254.326 347.304 252.406 348.232C250.518 349.128 248.374 349.576 245.974 349.576ZM245.542 343.768C246.63 343.768 247.59 343.576 248.422 343.192C249.286 342.776 249.958 342.184 250.438 341.416C250.918 340.648 251.158 339.768 251.158 338.776C251.158 337.24 250.63 336.024 249.574 335.128C248.55 334.2 247.174 333.736 245.446 333.736C244.294 333.736 243.286 333.96 242.422 334.408C241.558 334.824 240.87 335.416 240.358 336.184C239.878 336.92 239.638 337.784 239.638 338.776C239.638 339.736 239.878 340.6 240.358 341.368C240.838 342.104 241.51 342.696 242.374 343.144C243.238 343.56 244.294 343.768 245.542 343.768ZM273.321 314.824C276.425 314.824 279.097 315.464 281.337 316.744C283.577 318.024 285.305 319.896 286.521 322.36C287.737 324.792 288.345 327.832 288.345 331.48C288.345 335.352 287.609 338.632 286.137 341.32C284.697 344.008 282.697 346.056 280.137 347.464C277.577 348.872 274.601 349.576 271.209 349.576C269.449 349.576 267.753 349.384 266.121 349C264.489 348.616 263.081 348.04 261.897 347.272L264.777 341.56C265.705 342.2 266.697 342.648 267.753 342.904C268.809 343.128 269.913 343.24 271.065 343.24C273.945 343.24 276.233 342.36 277.929 340.6C279.657 338.84 280.521 336.232 280.521 332.776C280.521 332.2 280.505 331.56 280.473 330.856C280.441 330.152 280.361 329.448 280.233 328.744L282.345 330.76C281.801 332.008 281.033 333.064 280.041 333.928C279.049 334.76 277.897 335.4 276.585 335.848C275.273 336.264 273.801 336.472 272.169 336.472C270.025 336.472 268.073 336.04 266.313 335.176C264.585 334.312 263.193 333.096 262.137 331.528C261.113 329.96 260.601 328.12 260.601 326.008C260.601 323.704 261.161 321.72 262.281 320.056C263.433 318.392 264.969 317.112 266.889 316.216C268.841 315.288 270.985 314.824 273.321 314.824ZM273.801 320.632C272.681 320.632 271.705 320.84 270.873 321.256C270.041 321.64 269.385 322.216 268.905 322.984C268.425 323.72 268.185 324.6 268.185 325.624C268.185 327.16 268.697 328.392 269.721 329.32C270.777 330.216 272.169 330.664 273.897 330.664C275.017 330.664 276.009 330.456 276.873 330.04C277.769 329.592 278.457 328.984 278.937 328.216C279.417 327.448 279.657 326.584 279.657 325.624C279.657 324.664 279.417 323.816 278.937 323.08C278.489 322.312 277.833 321.72 276.969 321.304C276.105 320.856 275.049 320.632 273.801 320.632ZM297.311 349L310.847 318.376L312.863 321.736H294.767L298.223 318.088V327.208H291.311V315.4H318.239V320.44L305.759 349H297.311ZM323.819 349.384C322.539 349.384 321.435 348.952 320.507 348.088C319.611 347.192 319.163 346.056 319.163 344.68C319.163 343.304 319.611 342.2 320.507 341.368C321.435 340.504 322.539 340.072 323.819 340.072C325.131 340.072 326.235 340.504 327.131 341.368C328.027 342.2 328.475 343.304 328.475 344.68C328.475 346.056 328.027 347.192 327.131 348.088C326.235 348.952 325.131 349.384 323.819 349.384ZM343.331 349.576C340.995 349.576 338.675 349.272 336.371 348.664C334.067 348.024 332.115 347.128 330.514 345.976L333.539 340.024C334.819 340.952 336.307 341.688 338.003 342.232C339.699 342.776 341.411 343.048 343.139 343.048C345.091 343.048 346.627 342.664 347.747 341.896C348.867 341.128 349.427 340.072 349.427 338.728C349.427 337.448 348.931 336.44 347.939 335.704C346.947 334.968 345.347 334.6 343.139 334.6H339.587V329.464L348.947 318.856L349.811 321.64H332.195V315.4H355.715V320.44L346.403 331.048L342.467 328.792H344.723C348.851 328.792 351.971 329.72 354.083 331.576C356.195 333.432 357.251 335.816 357.251 338.728C357.251 340.616 356.755 342.392 355.763 344.056C354.771 345.688 353.251 347.016 351.203 348.04C349.155 349.064 346.531 349.576 343.331 349.576ZM375.241 349.576C372.489 349.576 370.025 348.904 367.849 347.56C365.673 346.184 363.961 344.2 362.713 341.608C361.465 339.016 360.841 335.88 360.841 332.2C360.841 328.52 361.465 325.384 362.713 322.792C363.961 320.2 365.673 318.232 367.849 316.888C370.025 315.512 372.489 314.824 375.241 314.824C378.025 314.824 380.489 315.512 382.633 316.888C384.809 318.232 386.521 320.2 387.769 322.792C389.017 325.384 389.641 328.52 389.641 332.2C389.641 335.88 389.017 339.016 387.769 341.608C386.521 344.2 384.809 346.184 382.633 347.56C380.489 348.904 378.025 349.576 375.241 349.576ZM375.241 343C376.553 343 377.689 342.632 378.649 341.896C379.641 341.16 380.409 339.992 380.953 338.392C381.529 336.792 381.817 334.728 381.817 332.2C381.817 329.672 381.529 327.608 380.953 326.008C380.409 324.408 379.641 323.24 378.649 322.504C377.689 321.768 376.553 321.4 375.241 321.4C373.961 321.4 372.825 321.768 371.833 322.504C370.873 323.24 370.105 324.408 369.529 326.008C368.985 327.608 368.713 329.672 368.713 332.2C368.713 334.728 368.985 336.792 369.529 338.392C370.105 339.992 370.873 341.16 371.833 341.896C372.825 342.632 373.961 343 375.241 343ZM407.819 349.576C405.067 349.576 402.603 348.904 400.427 347.56C398.251 346.184 396.539 344.2 395.291 341.608C394.043 339.016 393.419 335.88 393.419 332.2C393.419 328.52 394.043 325.384 395.291 322.792C396.539 320.2 398.251 318.232 400.427 316.888C402.603 315.512 405.067 314.824 407.819 314.824C410.603 314.824 413.067 315.512 415.211 316.888C417.387 318.232 419.099 320.2 420.347 322.792C421.595 325.384 422.219 328.52 422.219 332.2C422.219 335.88 421.595 339.016 420.347 341.608C419.099 344.2 417.387 346.184 415.211 347.56C413.067 348.904 410.603 349.576 407.819 349.576ZM407.819 343C409.131 343 410.267 342.632 411.227 341.896C412.219 341.16 412.987 339.992 413.531 338.392C414.107 336.792 414.395 334.728 414.395 332.2C414.395 329.672 414.107 327.608 413.531 326.008C412.987 324.408 412.219 323.24 411.227 322.504C410.267 321.768 409.131 321.4 407.819 321.4C406.539 321.4 405.403 321.768 404.411 322.504C403.451 323.24 402.683 324.408 402.107 326.008C401.563 327.608 401.291 329.672 401.291 332.2C401.291 334.728 401.563 336.792 402.107 338.392C402.683 339.992 403.451 341.16 404.411 341.896C405.403 342.632 406.539 343 407.819 343Z" fill="white"/>
<path d="M449.08 349V334.728L450.2 335.88H443.256V331.784H459.864V335.88H452.92L454.04 334.728V349H449.08ZM469.87 349.256C468.036 349.256 466.404 348.872 464.974 348.104C463.566 347.336 462.446 346.291 461.614 344.968C460.804 343.624 460.398 342.099 460.398 340.392C460.398 338.664 460.804 337.139 461.614 335.816C462.446 334.472 463.566 333.427 464.974 332.68C466.404 331.912 468.036 331.528 469.87 331.528C471.684 331.528 473.305 331.912 474.734 332.68C476.164 333.427 477.284 334.461 478.094 335.784C478.905 337.107 479.31 338.643 479.31 340.392C479.31 342.099 478.905 343.624 478.094 344.968C477.284 346.291 476.164 347.336 474.734 348.104C473.305 348.872 471.684 349.256 469.87 349.256ZM469.87 345.16C470.702 345.16 471.449 344.968 472.11 344.584C472.772 344.2 473.294 343.656 473.678 342.952C474.062 342.227 474.254 341.373 474.254 340.392C474.254 339.389 474.062 338.536 473.678 337.832C473.294 337.128 472.772 336.584 472.11 336.2C471.449 335.816 470.702 335.624 469.87 335.624C469.038 335.624 468.292 335.816 467.63 336.2C466.969 336.584 466.436 337.128 466.03 337.832C465.646 338.536 465.454 339.389 465.454 340.392C465.454 341.373 465.646 342.227 466.03 342.952C466.436 343.656 466.969 344.2 467.63 344.584C468.292 344.968 469.038 345.16 469.87 345.16ZM494.936 349L489.176 340.84L493.24 338.44L500.824 349H494.936ZM482.744 349V331.784H487.736V349H482.744ZM486.264 342.472V338.472H492.28V342.472H486.264ZM493.72 340.968L489.048 340.456L495.096 331.784H500.408L493.72 340.968ZM511.16 349.256C509.197 349.256 507.469 348.872 505.976 348.104C504.504 347.336 503.362 346.291 502.552 344.968C501.741 343.624 501.336 342.099 501.336 340.392C501.336 338.664 501.73 337.139 502.52 335.816C503.33 334.472 504.429 333.427 505.816 332.68C507.202 331.912 508.77 331.528 510.52 331.528C512.205 331.528 513.72 331.891 515.064 332.616C516.429 333.32 517.506 334.344 518.296 335.688C519.085 337.011 519.48 338.6 519.48 340.456C519.48 340.648 519.469 340.872 519.448 341.128C519.426 341.363 519.405 341.587 519.384 341.8H505.4V338.888H516.76L514.84 339.752C514.84 338.856 514.658 338.077 514.296 337.416C513.933 336.755 513.432 336.243 512.792 335.88C512.152 335.496 511.405 335.304 510.552 335.304C509.698 335.304 508.941 335.496 508.28 335.88C507.64 336.243 507.138 336.765 506.776 337.448C506.413 338.109 506.232 338.899 506.232 339.816V340.584C506.232 341.523 506.434 342.355 506.84 343.08C507.266 343.784 507.853 344.328 508.6 344.712C509.368 345.075 510.264 345.256 511.288 345.256C512.205 345.256 513.005 345.117 513.688 344.84C514.392 344.563 515.032 344.147 515.608 343.592L518.264 346.472C517.474 347.368 516.482 348.061 515.288 348.552C514.093 349.021 512.717 349.256 511.16 349.256ZM523.306 349V331.784H528.266V338.504H535.754V331.784H540.746V349H535.754V342.568H528.266V349H523.306ZM553.589 349.256C551.754 349.256 550.122 348.872 548.693 348.104C547.285 347.336 546.165 346.291 545.333 344.968C544.522 343.624 544.117 342.099 544.117 340.392C544.117 338.664 544.522 337.139 545.333 335.816C546.165 334.472 547.285 333.427 548.693 332.68C550.122 331.912 551.754 331.528 553.589 331.528C555.402 331.528 557.024 331.912 558.453 332.68C559.882 333.427 561.002 334.461 561.813 335.784C562.624 337.107 563.029 338.643 563.029 340.392C563.029 342.099 562.624 343.624 561.813 344.968C561.002 346.291 559.882 347.336 558.453 348.104C557.024 348.872 555.402 349.256 553.589 349.256ZM553.589 345.16C554.421 345.16 555.168 344.968 555.829 344.584C556.49 344.2 557.013 343.656 557.397 342.952C557.781 342.227 557.973 341.373 557.973 340.392C557.973 339.389 557.781 338.536 557.397 337.832C557.013 337.128 556.49 336.584 555.829 336.2C555.168 335.816 554.421 335.624 553.589 335.624C552.757 335.624 552.01 335.816 551.349 336.2C550.688 336.584 550.154 337.128 549.749 337.832C549.365 338.536 549.173 339.389 549.173 340.392C549.173 341.373 549.365 342.227 549.749 342.952C550.154 343.656 550.688 344.2 551.349 344.584C552.01 344.968 552.757 345.16 553.589 345.16ZM566.463 349V331.784H575.263C577.417 331.784 579.103 332.179 580.319 332.968C581.535 333.736 582.142 334.824 582.142 336.232C582.142 337.64 581.567 338.749 580.415 339.56C579.284 340.349 577.78 340.744 575.903 340.744L576.415 339.592C578.505 339.592 580.063 339.976 581.087 340.744C582.132 341.512 582.655 342.632 582.655 344.104C582.655 345.619 582.079 346.813 580.927 347.688C579.775 348.563 578.015 349 575.647 349H566.463ZM571.039 345.608H575.231C576.148 345.608 576.831 345.459 577.279 345.16C577.748 344.84 577.983 344.36 577.983 343.72C577.983 343.059 577.769 342.579 577.343 342.28C576.916 341.96 576.244 341.8 575.327 341.8H571.039V345.608ZM571.039 338.856H574.815C575.689 338.856 576.34 338.696 576.767 338.376C577.215 338.056 577.439 337.597 577.439 337C577.439 336.381 577.215 335.923 576.767 335.624C576.34 335.325 575.689 335.176 574.815 335.176H571.039V338.856Z" fill="white"/>
<path d="M776.604 199.856L766.013 223.155C762.724 223.155 758.991 222.797 755.846 223.579H755L776.604 199.008V199.856Z" fill="#8AB8FE"/>
<path d="M755.849 223.578H766.015C769.64 231.413 772.694 239.278 776.607 246.877V247.725L755 223.578H755.849Z" fill="#4787EA"/>
<path d="M798.21 224.002C798.166 223.8 797.986 223.609 797.786 223.578C794.641 222.799 790.908 223.157 787.619 223.154L777.452 199.855H777.876C784.893 207.587 792.067 215.35 798.648 223.384L798.21 224.002Z" fill="#243FD1"/>
<path d="M797.786 223.579C797.986 223.607 798.163 223.798 798.21 224.003L777.876 246.88H777.452L787.619 223.582C790.598 223.585 795.046 223.185 797.786 223.582V223.579Z" fill="#12209E"/>
<path d="M777.877 199.855H777.452C776.923 199.9 777.045 200.487 777.009 200.887C776.373 207.543 777.034 216.251 777.031 223.156C777.031 223.298 777.031 223.439 777.031 223.581C776.889 223.581 776.748 223.581 776.606 223.581V199.007C777.244 198.948 777.652 199.284 777.877 199.855Z" fill="#697FF4"/>
<path d="M777.452 246.877H777.877C777.66 247.448 777.247 247.814 776.606 247.725V223.578C776.748 223.578 776.889 223.578 777.031 223.578C777.031 230.639 776.471 238.959 777.009 245.848C777.039 246.247 776.928 246.835 777.452 246.879V246.877Z" fill="#596DD7"/>
<path d="M776.604 223.154C773.079 223.154 769.538 223.151 766.013 223.154L776.604 199.855V223.154Z" fill="#4576F2"/>
<path d="M766.016 223.154V223.578H755.849C758.994 222.799 762.726 223.157 766.016 223.154Z" fill="#97BEF8"/>
<path d="M776.604 223.578V246.877C772.694 239.278 769.637 231.413 766.013 223.578C769.538 223.578 773.079 223.578 776.604 223.578Z" fill="#2E5FDB"/>
<path d="M787.619 223.153C784.094 223.15 780.552 223.153 777.027 223.153C777.03 216.247 776.373 207.539 777.005 200.883C777.044 200.487 776.919 199.899 777.449 199.852L787.616 223.15L787.619 223.153Z" fill="#3346F5"/>
<path d="M797.786 223.576C795.046 223.18 790.598 223.579 787.619 223.576V223.152C790.908 223.152 794.641 222.794 797.786 223.576Z" fill="#5667CF"/>
<path d="M787.619 223.579L777.452 246.878C776.927 246.833 777.038 246.246 777.008 245.846C776.47 238.957 777.03 230.637 777.03 223.577C780.555 223.577 784.096 223.571 787.621 223.577L787.619 223.579Z" fill="#1D2DC5"/>
<path d="M776.604 223.154V223.578C773.079 223.578 769.538 223.578 766.013 223.578V223.154C769.538 223.151 773.079 223.154 776.604 223.154Z" fill="#6D92EF"/>
<path d="M787.62 223.154V223.578C784.095 223.572 780.553 223.578 777.028 223.578C777.028 223.436 777.028 223.295 777.028 223.154C780.553 223.154 784.095 223.151 787.62 223.154Z" fill="#606DEA"/>
</g>
<rect x="1.5" y="1.5" width="852" height="428" rx="76.5" stroke="#009D4A" stroke-width="3"/>
<defs>
<clipPath id="clip0_1772_173">
<rect width="855" height="431" rx="78" fill="white"/>
</clipPath>
</defs>
</svg>
