<svg width="1176" height="613" viewBox="0 0 1176 613" fill="none" xmlns="http://www.w3.org/2000/svg">
<mask id="mask0_1789_174" style="mask-type:luminance" maskUnits="userSpaceOnUse" x="19" y="10" width="1138" height="593">
<path d="M1081 10H95C53.0264 10 19 44.0264 19 86V527C19 568.974 53.0264 603 95 603H1081C1122.97 603 1157 568.974 1157 527V86C1157 44.0264 1122.97 10 1081 10Z" fill="white"/>
</mask>
<g mask="url(#mask0_1789_174)">
<path d="M1081 10H95C53.0264 10 19 44.0264 19 86V527C19 568.974 53.0264 603 95 603H1081C1122.97 603 1157 568.974 1157 527V86C1157 44.0264 1122.97 10 1081 10Z" fill="black"/>
<path d="M1081 11.5H95C53.8548 11.5 20.5 44.8548 20.5 86V527C20.5 568.145 53.8548 601.5 95 601.5H1081C1122.15 601.5 1155.5 568.145 1155.5 527V86C1155.5 44.8548 1122.15 11.5 1081 11.5Z" fill="black" stroke="#00431F" stroke-width="3"/>
<g filter="url(#filter0_f_1789_174)">
<path d="M-15 -54V614.519L220.349 668L188.256 507.556L158.169 253.519L484.448 424.659L580.727 360.482L265.145 90.4H675L626.86 -54H-15Z" fill="#009345" fill-opacity="0.5"/>
<path d="M-15 -54V614.519L220.349 668L188.256 507.556L158.169 253.519L484.448 424.659L580.727 360.482L265.145 90.4H675L626.86 -54H-15Z" stroke="black"/>
</g>
<path d="M144.424 239V116.486L157.636 129.886H118V105H175V239H144.424Z" fill="#009D4A"/>
<path d="M136.879 383.599H141.039V405.999H136.879V383.599ZM125.295 405.999H121.135V383.599H125.295V405.999ZM137.199 396.399H124.943V392.847H137.199V396.399ZM157.243 405.999V402.543L157.019 401.807V395.759C157.019 394.586 156.667 393.679 155.963 393.039C155.259 392.378 154.192 392.047 152.763 392.047C151.803 392.047 150.853 392.196 149.915 392.495C148.997 392.794 148.219 393.21 147.579 393.743L146.011 390.831C146.928 390.127 148.016 389.604 149.275 389.263C150.555 388.9 151.877 388.719 153.243 388.719C155.717 388.719 157.627 389.316 158.971 390.511C160.336 391.684 161.019 393.508 161.019 395.983V405.999H157.243ZM151.867 406.223C150.587 406.223 149.467 406.01 148.507 405.583C147.547 405.135 146.8 404.527 146.267 403.759C145.755 402.97 145.499 402.084 145.499 401.103C145.499 400.143 145.723 399.279 146.171 398.511C146.64 397.743 147.397 397.135 148.443 396.687C149.488 396.239 150.875 396.015 152.603 396.015H157.563V398.671H152.891C151.525 398.671 150.608 398.895 150.139 399.343C149.669 399.77 149.435 400.303 149.435 400.943C149.435 401.668 149.723 402.244 150.299 402.671C150.875 403.098 151.675 403.311 152.699 403.311C153.68 403.311 154.555 403.087 155.323 402.639C156.112 402.191 156.677 401.53 157.019 400.655L157.691 403.055C157.307 404.058 156.613 404.836 155.611 405.391C154.629 405.946 153.381 406.223 151.867 406.223ZM177.456 402.607L176.592 403.567V388.911H180.592V403.567L179.632 402.607H188.08L187.152 403.567V388.911H191.152V405.999H165.968V388.911H169.968V403.567L169.04 402.607H177.456ZM204.499 406.223C202.6 406.223 200.936 405.85 199.507 405.103C198.099 404.335 197 403.29 196.211 401.967C195.443 400.644 195.059 399.14 195.059 397.455C195.059 395.748 195.432 394.244 196.179 392.943C196.947 391.62 197.992 390.586 199.315 389.839C200.659 389.092 202.184 388.719 203.891 388.719C205.555 388.719 207.037 389.082 208.339 389.807C209.64 390.532 210.664 391.556 211.411 392.879C212.157 394.202 212.531 395.759 212.531 397.551C212.531 397.722 212.52 397.914 212.499 398.127C212.499 398.34 212.488 398.543 212.467 398.735H198.227V396.079H210.355L208.787 396.911C208.808 395.93 208.605 395.066 208.179 394.319C207.752 393.572 207.165 392.986 206.419 392.559C205.693 392.132 204.851 391.919 203.891 391.919C202.909 391.919 202.045 392.132 201.299 392.559C200.573 392.986 199.997 393.583 199.571 394.351C199.165 395.098 198.963 395.983 198.963 397.007V397.647C198.963 398.671 199.197 399.578 199.667 400.367C200.136 401.156 200.797 401.764 201.651 402.191C202.504 402.618 203.485 402.831 204.595 402.831C205.555 402.831 206.419 402.682 207.187 402.383C207.955 402.084 208.637 401.615 209.235 400.975L211.379 403.439C210.611 404.335 209.64 405.028 208.467 405.519C207.315 405.988 205.992 406.223 204.499 406.223ZM216.906 405.999V388.911H220.906V400.175L230.346 388.911H233.994V405.999H229.994V394.735L220.586 405.999H216.906ZM225.194 386.895C223.487 386.895 222.175 386.5 221.258 385.711C220.34 384.9 219.871 383.727 219.85 382.191H222.506C222.527 382.959 222.762 383.567 223.21 384.015C223.679 384.463 224.33 384.687 225.162 384.687C225.972 384.687 226.612 384.463 227.082 384.015C227.572 383.567 227.828 382.959 227.85 382.191H230.57C230.548 383.727 230.068 384.9 229.13 385.711C228.212 386.5 226.9 386.895 225.194 386.895ZM259.066 406.319C259.045 406.319 258.949 406.319 258.778 406.319C258.629 406.319 258.48 406.319 258.33 406.319C258.202 406.319 258.117 406.319 258.074 406.319C254.469 406.276 251.674 405.498 249.69 403.983C247.706 402.447 246.714 400.26 246.714 397.423C246.714 394.607 247.706 392.452 249.69 390.959C251.674 389.466 254.501 388.698 258.17 388.655C258.213 388.655 258.298 388.655 258.426 388.655C258.576 388.655 258.714 388.655 258.842 388.655C258.992 388.655 259.077 388.655 259.098 388.655C262.789 388.655 265.658 389.412 267.706 390.927C269.776 392.42 270.81 394.586 270.81 397.423C270.81 400.282 269.776 402.479 267.706 404.015C265.658 405.551 262.778 406.319 259.066 406.319ZM258.938 402.991C260.752 402.991 262.245 402.788 263.418 402.383C264.592 401.956 265.466 401.338 266.042 400.527C266.618 399.695 266.906 398.66 266.906 397.423C266.906 396.207 266.618 395.204 266.042 394.415C265.466 393.604 264.592 393.007 263.418 392.623C262.245 392.218 260.752 392.015 258.938 392.015C258.896 392.015 258.789 392.015 258.618 392.015C258.469 392.015 258.373 392.015 258.33 392.015C256.56 392.015 255.109 392.228 253.978 392.655C252.848 393.06 252.005 393.658 251.45 394.447C250.917 395.236 250.65 396.228 250.65 397.423C250.65 398.639 250.917 399.652 251.45 400.463C252.005 401.274 252.848 401.892 253.978 402.319C255.13 402.746 256.581 402.97 258.33 402.991C258.373 402.991 258.469 402.991 258.618 402.991C258.789 402.991 258.896 402.991 258.938 402.991ZM256.858 412.207V382.255H260.634V412.207H256.858ZM275.754 412.431C274.922 412.431 274.09 412.292 273.258 412.015C272.426 411.738 271.733 411.354 271.178 410.863L272.778 407.919C273.184 408.282 273.642 408.57 274.154 408.783C274.666 408.996 275.189 409.103 275.722 409.103C276.448 409.103 277.034 408.922 277.482 408.559C277.93 408.196 278.346 407.588 278.73 406.735L279.722 404.495L280.042 404.015L286.506 388.911H290.346L282.346 407.375C281.813 408.655 281.216 409.668 280.554 410.415C279.914 411.162 279.189 411.684 278.378 411.983C277.589 412.282 276.714 412.431 275.754 412.431ZM279.274 406.607L271.562 388.911H275.722L281.994 403.663L279.274 406.607ZM293.125 405.999V388.911H297.125V395.855H305.733V388.911H309.733V405.999H305.733V399.247H297.125V405.999H293.125ZM326.805 404.143V392.303H320.245L320.149 395.055C320.107 396.036 320.043 396.986 319.957 397.903C319.872 398.799 319.733 399.631 319.541 400.399C319.349 401.146 319.072 401.764 318.709 402.255C318.347 402.746 317.867 403.066 317.269 403.215L313.301 402.607C313.941 402.607 314.453 402.404 314.837 401.999C315.243 401.572 315.552 400.996 315.765 400.271C316 399.524 316.171 398.682 316.277 397.743C316.384 396.783 316.459 395.791 316.501 394.767L316.725 388.911H330.805V404.143H326.805ZM312.693 409.807V402.607H333.333V409.807H329.589V405.999H316.405V409.807H312.693ZM347.274 405.999V402.543L347.05 401.807V395.759C347.05 394.586 346.698 393.679 345.994 393.039C345.29 392.378 344.223 392.047 342.794 392.047C341.834 392.047 340.884 392.196 339.946 392.495C339.028 392.794 338.25 393.21 337.61 393.743L336.042 390.831C336.959 390.127 338.047 389.604 339.306 389.263C340.586 388.9 341.908 388.719 343.274 388.719C345.748 388.719 347.658 389.316 349.002 390.511C350.367 391.684 351.05 393.508 351.05 395.983V405.999H347.274ZM341.898 406.223C340.618 406.223 339.498 406.01 338.538 405.583C337.578 405.135 336.831 404.527 336.298 403.759C335.786 402.97 335.53 402.084 335.53 401.103C335.53 400.143 335.754 399.279 336.202 398.511C336.671 397.743 337.428 397.135 338.474 396.687C339.519 396.239 340.906 396.015 342.634 396.015H347.594V398.671H342.922C341.556 398.671 340.639 398.895 340.17 399.343C339.7 399.77 339.466 400.303 339.466 400.943C339.466 401.668 339.754 402.244 340.33 402.671C340.906 403.098 341.706 403.311 342.73 403.311C343.711 403.311 344.586 403.087 345.354 402.639C346.143 402.191 346.708 401.53 347.05 400.655L347.722 403.055C347.338 404.058 346.644 404.836 345.642 405.391C344.66 405.946 343.412 406.223 341.898 406.223ZM356 405.999V388.911H360.192L367.072 401.039H365.408L372.64 388.911H376.384L376.416 405.999H372.8V393.199L373.44 393.615L367.04 404.207H365.312L358.88 393.327L359.648 393.135V405.999H356ZM389.749 406.223C387.85 406.223 386.186 405.85 384.757 405.103C383.349 404.335 382.25 403.29 381.461 401.967C380.693 400.644 380.309 399.14 380.309 397.455C380.309 395.748 380.682 394.244 381.429 392.943C382.197 391.62 383.242 390.586 384.565 389.839C385.909 389.092 387.434 388.719 389.141 388.719C390.805 388.719 392.287 389.082 393.589 389.807C394.89 390.532 395.914 391.556 396.661 392.879C397.407 394.202 397.781 395.759 397.781 397.551C397.781 397.722 397.77 397.914 397.749 398.127C397.749 398.34 397.738 398.543 397.717 398.735H383.477V396.079H395.605L394.037 396.911C394.058 395.93 393.855 395.066 393.429 394.319C393.002 393.572 392.415 392.986 391.669 392.559C390.943 392.132 390.101 391.919 389.141 391.919C388.159 391.919 387.295 392.132 386.549 392.559C385.823 392.986 385.247 393.583 384.821 394.351C384.415 395.098 384.213 395.983 384.213 397.007V397.647C384.213 398.671 384.447 399.578 384.917 400.367C385.386 401.156 386.047 401.764 386.901 402.191C387.754 402.618 388.735 402.831 389.845 402.831C390.805 402.831 391.669 402.682 392.437 402.383C393.205 402.084 393.887 401.615 394.485 400.975L396.629 403.439C395.861 404.335 394.89 405.028 393.717 405.519C392.565 405.988 391.242 406.223 389.749 406.223ZM402.156 405.999V388.911H406.156V395.855H414.764V388.911H418.764V405.999H414.764V399.247H406.156V405.999H402.156ZM427.677 405.999V391.343L428.605 392.303H421.661V388.911H437.661V392.303H430.749L431.677 391.343V405.999H427.677ZM450.93 405.999V402.543L450.706 401.807V395.759C450.706 394.586 450.354 393.679 449.65 393.039C448.946 392.378 447.879 392.047 446.45 392.047C445.49 392.047 444.541 392.196 443.602 392.495C442.685 392.794 441.906 393.21 441.266 393.743L439.698 390.831C440.615 390.127 441.703 389.604 442.962 389.263C444.242 388.9 445.565 388.719 446.93 388.719C449.405 388.719 451.314 389.316 452.658 390.511C454.023 391.684 454.706 393.508 454.706 395.983V405.999H450.93ZM445.554 406.223C444.274 406.223 443.154 406.01 442.194 405.583C441.234 405.135 440.487 404.527 439.954 403.759C439.442 402.97 439.186 402.084 439.186 401.103C439.186 400.143 439.41 399.279 439.858 398.511C440.327 397.743 441.085 397.135 442.13 396.687C443.175 396.239 444.562 396.015 446.29 396.015H451.25V398.671H446.578C445.213 398.671 444.295 398.895 443.826 399.343C443.357 399.77 443.122 400.303 443.122 400.943C443.122 401.668 443.41 402.244 443.986 402.671C444.562 403.098 445.362 403.311 446.386 403.311C447.367 403.311 448.242 403.087 449.01 402.639C449.799 402.191 450.365 401.53 450.706 400.655L451.378 403.055C450.994 404.058 450.301 404.836 449.298 405.391C448.317 405.946 447.069 406.223 445.554 406.223ZM457.16 405.967L457.352 402.607C457.501 402.628 457.64 402.65 457.768 402.671C457.896 402.692 458.013 402.703 458.12 402.703C458.781 402.703 459.293 402.5 459.656 402.095C460.018 401.69 460.285 401.146 460.456 400.463C460.648 399.759 460.776 398.98 460.84 398.127C460.925 397.252 460.989 396.378 461.032 395.503L461.32 388.911H475.144V405.999H471.144V391.215L472.072 392.303H463.944L464.808 391.183L464.584 395.695C464.52 397.21 464.392 398.618 464.2 399.919C464.029 401.199 463.752 402.319 463.368 403.279C463.005 404.239 462.493 404.986 461.832 405.519C461.192 406.052 460.37 406.319 459.368 406.319C459.048 406.319 458.696 406.287 458.312 406.223C457.949 406.159 457.565 406.074 457.16 405.967ZM489.107 394.543C491.304 394.543 492.979 395.034 494.131 396.015C495.283 396.996 495.859 398.383 495.859 400.175C495.859 402.031 495.219 403.482 493.939 404.527C492.659 405.551 490.856 406.052 488.531 406.031L480.531 405.999V388.911H484.531V394.511L489.107 394.543ZM488.179 403.087C489.352 403.108 490.248 402.863 490.867 402.351C491.485 401.839 491.795 401.092 491.795 400.111C491.795 399.13 491.485 398.426 490.867 397.999C490.269 397.551 489.373 397.316 488.179 397.295L484.531 397.263V403.055L488.179 403.087ZM499.375 405.999V388.911H503.375V395.855H511.983V388.911H515.983V405.999H511.983V399.247H503.375V405.999H499.375ZM528.959 406.223C527.21 406.223 525.653 405.85 524.287 405.103C522.922 404.335 521.845 403.29 521.055 401.967C520.266 400.644 519.871 399.14 519.871 397.455C519.871 395.748 520.266 394.244 521.055 392.943C521.845 391.62 522.922 390.586 524.287 389.839C525.653 389.092 527.21 388.719 528.959 388.719C530.73 388.719 532.298 389.092 533.663 389.839C535.05 390.586 536.127 391.61 536.895 392.911C537.685 394.212 538.079 395.727 538.079 397.455C538.079 399.14 537.685 400.644 536.895 401.967C536.127 403.29 535.05 404.335 533.663 405.103C532.298 405.85 530.73 406.223 528.959 406.223ZM528.959 402.799C529.941 402.799 530.815 402.586 531.583 402.159C532.351 401.732 532.949 401.114 533.375 400.303C533.823 399.492 534.047 398.543 534.047 397.455C534.047 396.346 533.823 395.396 533.375 394.607C532.949 393.796 532.351 393.178 531.583 392.751C530.815 392.324 529.951 392.111 528.991 392.111C528.01 392.111 527.135 392.324 526.367 392.751C525.621 393.178 525.023 393.796 524.575 394.607C524.127 395.396 523.903 396.346 523.903 397.455C523.903 398.543 524.127 399.492 524.575 400.303C525.023 401.114 525.621 401.732 526.367 402.159C527.135 402.586 527.999 402.799 528.959 402.799ZM542.031 405.999V388.911H546.031V400.175L555.471 388.911H559.119V405.999H555.119V394.735L545.711 405.999H542.031ZM550.319 386.895C548.612 386.895 547.3 386.5 546.383 385.711C545.465 384.9 544.996 383.727 544.975 382.191H547.631C547.652 382.959 547.887 383.567 548.335 384.015C548.804 384.463 549.455 384.687 550.287 384.687C551.097 384.687 551.737 384.463 552.207 384.015C552.697 383.567 552.953 382.959 552.975 382.191H555.695C555.673 383.727 555.193 384.9 554.255 385.711C553.337 386.5 552.025 386.895 550.319 386.895ZM573.343 405.999V388.911H577.343V402.607H585.503V388.911H589.503V405.999H573.343ZM588.351 409.807V405.903L589.279 405.999H585.503V402.607H592.095V409.807H588.351ZM603.624 406.223C601.725 406.223 600.061 405.85 598.632 405.103C597.224 404.335 596.125 403.29 595.336 401.967C594.568 400.644 594.184 399.14 594.184 397.455C594.184 395.748 594.557 394.244 595.304 392.943C596.072 391.62 597.117 390.586 598.44 389.839C599.784 389.092 601.309 388.719 603.016 388.719C604.68 388.719 606.162 389.082 607.464 389.807C608.765 390.532 609.789 391.556 610.536 392.879C611.282 394.202 611.656 395.759 611.656 397.551C611.656 397.722 611.645 397.914 611.624 398.127C611.624 398.34 611.613 398.543 611.592 398.735H597.352V396.079H609.48L607.912 396.911C607.933 395.93 607.73 395.066 607.304 394.319C606.877 393.572 606.29 392.986 605.544 392.559C604.818 392.132 603.976 391.919 603.016 391.919C602.034 391.919 601.17 392.132 600.424 392.559C599.698 392.986 599.122 393.583 598.696 394.351C598.29 395.098 598.088 395.983 598.088 397.007V397.647C598.088 398.671 598.322 399.578 598.792 400.367C599.261 401.156 599.922 401.764 600.776 402.191C601.629 402.618 602.61 402.831 603.72 402.831C604.68 402.831 605.544 402.682 606.312 402.383C607.08 402.084 607.762 401.615 608.36 400.975L610.504 403.439C609.736 404.335 608.765 405.028 607.592 405.519C606.44 405.988 605.117 406.223 603.624 406.223ZM613.316 405.967L613.508 402.607C613.657 402.628 613.796 402.65 613.924 402.671C614.052 402.692 614.169 402.703 614.276 402.703C614.937 402.703 615.449 402.5 615.812 402.095C616.175 401.69 616.441 401.146 616.612 400.463C616.804 399.759 616.932 398.98 616.996 398.127C617.081 397.252 617.145 396.378 617.188 395.503L617.476 388.911H631.3V405.999H627.3V391.215L628.228 392.303H620.1L620.964 391.183L620.74 395.695C620.676 397.21 620.548 398.618 620.356 399.919C620.185 401.199 619.908 402.319 619.524 403.279C619.161 404.239 618.649 404.986 617.988 405.519C617.348 406.052 616.527 406.319 615.524 406.319C615.204 406.319 614.852 406.287 614.468 406.223C614.105 406.159 613.721 406.074 613.316 405.967ZM645.263 394.543C647.46 394.543 649.135 395.034 650.287 396.015C651.439 396.996 652.015 398.383 652.015 400.175C652.015 402.031 651.375 403.482 650.095 404.527C648.815 405.551 647.012 406.052 644.687 406.031L636.687 405.999V388.911H640.687V394.511L645.263 394.543ZM644.335 403.087C645.508 403.108 646.404 402.863 647.023 402.351C647.642 401.839 647.951 401.092 647.951 400.111C647.951 399.13 647.642 398.426 647.023 397.999C646.426 397.551 645.53 397.316 644.335 397.295L640.687 397.263V403.055L644.335 403.087ZM655.531 405.999V388.911H659.531V395.535H664.619V399.151H659.531V405.999H655.531ZM671.147 406.223C669.44 406.223 667.915 405.85 666.571 405.103C665.248 404.335 664.203 403.29 663.435 401.967C662.667 400.644 662.283 399.14 662.283 397.455C662.283 395.748 662.667 394.234 663.435 392.911C664.203 391.588 665.248 390.564 666.571 389.839C667.915 389.092 669.44 388.719 671.147 388.719C672.875 388.719 674.4 389.092 675.723 389.839C677.067 390.564 678.123 391.588 678.891 392.911C679.659 394.234 680.043 395.748 680.043 397.455C680.043 399.14 679.659 400.655 678.891 401.999C678.123 403.322 677.067 404.356 675.723 405.103C674.4 405.85 672.875 406.223 671.147 406.223ZM671.147 402.831C672.107 402.831 672.949 402.607 673.675 402.159C674.421 401.711 675.008 401.092 675.435 400.303C675.861 399.514 676.075 398.564 676.075 397.455C676.075 396.346 675.861 395.396 675.435 394.607C675.008 393.796 674.421 393.178 673.675 392.751C672.949 392.324 672.117 392.111 671.179 392.111C670.24 392.111 669.397 392.324 668.651 392.751C667.904 393.178 667.317 393.796 666.891 394.607C666.464 395.396 666.251 396.346 666.251 397.455C666.251 398.564 666.464 399.514 666.891 400.303C667.317 401.092 667.904 401.711 668.651 402.159C669.397 402.607 670.229 402.831 671.147 402.831ZM703.66 405.999V400.175L704.236 400.847H699.116C696.769 400.847 694.924 400.356 693.58 399.375C692.257 398.372 691.596 396.932 691.596 395.055C691.596 393.05 692.3 391.524 693.708 390.479C695.137 389.434 697.036 388.911 699.404 388.911H707.244V405.999H703.66ZM691.372 405.999L695.98 399.471H700.076L695.66 405.999H691.372ZM703.66 398.895V391.215L704.236 392.271H699.532C698.295 392.271 697.335 392.506 696.652 392.975C695.991 393.423 695.66 394.159 695.66 395.183C695.66 397.103 696.908 398.063 699.404 398.063H704.236L703.66 398.895ZM712.625 405.999V388.911H720.977C723.046 388.911 724.667 389.295 725.841 390.063C727.035 390.831 727.633 391.919 727.633 393.327C727.633 394.714 727.078 395.802 725.969 396.591C724.859 397.359 723.387 397.743 721.553 397.743L722.033 396.751C724.102 396.751 725.638 397.135 726.641 397.903C727.665 398.65 728.177 399.748 728.177 401.199C728.177 402.714 727.611 403.898 726.481 404.751C725.35 405.583 723.633 405.999 721.329 405.999H712.625ZM716.433 403.087H721.009C722.097 403.087 722.918 402.916 723.473 402.575C724.027 402.212 724.305 401.668 724.305 400.943C724.305 400.175 724.049 399.61 723.537 399.247C723.025 398.884 722.225 398.703 721.137 398.703H716.433V403.087ZM716.433 396.047H720.625C721.649 396.047 722.417 395.866 722.929 395.503C723.462 395.119 723.729 394.586 723.729 393.903C723.729 393.199 723.462 392.676 722.929 392.335C722.417 391.994 721.649 391.823 720.625 391.823H716.433V396.047ZM729.941 405.967L730.133 402.607C730.282 402.628 730.421 402.65 730.549 402.671C730.677 402.692 730.794 402.703 730.901 402.703C731.562 402.703 732.074 402.5 732.437 402.095C732.8 401.69 733.066 401.146 733.237 400.463C733.429 399.759 733.557 398.98 733.621 398.127C733.706 397.252 733.77 396.378 733.813 395.503L734.101 388.911H747.925V405.999H743.925V391.215L744.853 392.303H736.725L737.589 391.183L737.365 395.695C737.301 397.21 737.173 398.618 736.981 399.919C736.81 401.199 736.533 402.319 736.149 403.279C735.786 404.239 735.274 404.986 734.613 405.519C733.973 406.052 733.152 406.319 732.149 406.319C731.829 406.319 731.477 406.287 731.093 406.223C730.73 406.159 730.346 406.074 729.941 405.967ZM764.16 405.999V400.175L764.736 400.847H759.616C757.269 400.847 755.424 400.356 754.08 399.375C752.757 398.372 752.096 396.932 752.096 395.055C752.096 393.05 752.8 391.524 754.208 390.479C755.637 389.434 757.536 388.911 759.904 388.911H767.744V405.999H764.16ZM751.872 405.999L756.48 399.471H760.576L756.16 405.999H751.872ZM764.16 398.895V391.215L764.736 392.271H760.032C758.795 392.271 757.835 392.506 757.152 392.975C756.491 393.423 756.16 394.159 756.16 395.183C756.16 397.103 757.408 398.063 759.904 398.063H764.736L764.16 398.895ZM781.093 406.223C779.194 406.223 777.53 405.85 776.101 405.103C774.693 404.335 773.594 403.29 772.805 401.967C772.037 400.644 771.653 399.14 771.653 397.455C771.653 395.748 772.026 394.244 772.773 392.943C773.541 391.62 774.586 390.586 775.909 389.839C777.253 389.092 778.778 388.719 780.485 388.719C782.149 388.719 783.631 389.082 784.933 389.807C786.234 390.532 787.258 391.556 788.005 392.879C788.751 394.202 789.125 395.759 789.125 397.551C789.125 397.722 789.114 397.914 789.093 398.127C789.093 398.34 789.082 398.543 789.061 398.735H774.821V396.079H786.949L785.381 396.911C785.402 395.93 785.199 395.066 784.773 394.319C784.346 393.572 783.759 392.986 783.013 392.559C782.287 392.132 781.445 391.919 780.485 391.919C779.503 391.919 778.639 392.132 777.893 392.559C777.167 392.986 776.591 393.583 776.165 394.351C775.759 395.098 775.557 395.983 775.557 397.007V397.647C775.557 398.671 775.791 399.578 776.261 400.367C776.73 401.156 777.391 401.764 778.245 402.191C779.098 402.618 780.079 402.831 781.189 402.831C782.149 402.831 783.013 402.682 783.781 402.383C784.549 402.084 785.231 401.615 785.829 400.975L787.973 403.439C787.205 404.335 786.234 405.028 785.061 405.519C783.909 405.988 782.586 406.223 781.093 406.223ZM796.395 405.999V391.343L797.323 392.303H790.379V388.911H806.379V392.303H799.467L800.395 391.343V405.999H796.395ZM816.307 406.223C814.515 406.223 812.915 405.85 811.507 405.103C810.12 404.335 809.032 403.29 808.243 401.967C807.453 400.644 807.059 399.14 807.059 397.455C807.059 395.748 807.453 394.244 808.243 392.943C809.032 391.62 810.12 390.586 811.507 389.839C812.915 389.092 814.515 388.719 816.307 388.719C817.971 388.719 819.432 389.06 820.691 389.743C821.971 390.404 822.941 391.386 823.603 392.687L820.531 394.479C820.019 393.668 819.389 393.071 818.643 392.687C817.917 392.303 817.128 392.111 816.275 392.111C815.293 392.111 814.408 392.324 813.619 392.751C812.829 393.178 812.211 393.796 811.763 394.607C811.315 395.396 811.091 396.346 811.091 397.455C811.091 398.564 811.315 399.524 811.763 400.335C812.211 401.124 812.829 401.732 813.619 402.159C814.408 402.586 815.293 402.799 816.275 402.799C817.128 402.799 817.917 402.607 818.643 402.223C819.389 401.839 820.019 401.242 820.531 400.431L823.603 402.223C822.941 403.503 821.971 404.495 820.691 405.199C819.432 405.882 817.971 406.223 816.307 406.223ZM837.504 405.999V400.175L838.08 400.847H832.96C830.613 400.847 828.768 400.356 827.424 399.375C826.101 398.372 825.44 396.932 825.44 395.055C825.44 393.05 826.144 391.524 827.552 390.479C828.981 389.434 830.88 388.911 833.248 388.911H841.088V405.999H837.504ZM825.216 405.999L829.824 399.471H833.92L829.504 405.999H825.216ZM837.504 398.895V391.215L838.08 392.271H833.376C832.138 392.271 831.178 392.506 830.496 392.975C829.834 393.423 829.504 394.159 829.504 395.183C829.504 397.103 830.752 398.063 833.248 398.063H838.08L837.504 398.895ZM855.312 405.999V388.911H871.696V405.999H867.728V391.375L868.656 392.303H858.384L859.312 391.375V405.999H855.312ZM884.709 406.223C882.96 406.223 881.403 405.85 880.037 405.103C878.672 404.335 877.595 403.29 876.805 401.967C876.016 400.644 875.621 399.14 875.621 397.455C875.621 395.748 876.016 394.244 876.805 392.943C877.595 391.62 878.672 390.586 880.037 389.839C881.403 389.092 882.96 388.719 884.709 388.719C886.48 388.719 888.048 389.092 889.413 389.839C890.8 390.586 891.877 391.61 892.645 392.911C893.435 394.212 893.829 395.727 893.829 397.455C893.829 399.14 893.435 400.644 892.645 401.967C891.877 403.29 890.8 404.335 889.413 405.103C888.048 405.85 886.48 406.223 884.709 406.223ZM884.709 402.799C885.691 402.799 886.565 402.586 887.333 402.159C888.101 401.732 888.699 401.114 889.125 400.303C889.573 399.492 889.797 398.543 889.797 397.455C889.797 396.346 889.573 395.396 889.125 394.607C888.699 393.796 888.101 393.178 887.333 392.751C886.565 392.324 885.701 392.111 884.741 392.111C883.76 392.111 882.885 392.324 882.117 392.751C881.371 393.178 880.773 393.796 880.325 394.607C879.877 395.396 879.653 396.346 879.653 397.455C879.653 398.543 879.877 399.492 880.325 400.303C880.773 401.114 881.371 401.732 882.117 402.159C882.885 402.586 883.749 402.799 884.709 402.799ZM905.557 406.223C903.765 406.223 902.165 405.85 900.757 405.103C899.37 404.335 898.282 403.29 897.493 401.967C896.703 400.644 896.309 399.14 896.309 397.455C896.309 395.748 896.703 394.244 897.493 392.943C898.282 391.62 899.37 390.586 900.757 389.839C902.165 389.092 903.765 388.719 905.557 388.719C907.221 388.719 908.682 389.06 909.941 389.743C911.221 390.404 912.191 391.386 912.853 392.687L909.781 394.479C909.269 393.668 908.639 393.071 907.893 392.687C907.167 392.303 906.378 392.111 905.525 392.111C904.543 392.111 903.658 392.324 902.869 392.751C902.079 393.178 901.461 393.796 901.013 394.607C900.565 395.396 900.341 396.346 900.341 397.455C900.341 398.564 900.565 399.524 901.013 400.335C901.461 401.124 902.079 401.732 902.869 402.159C903.658 402.586 904.543 402.799 905.525 402.799C906.378 402.799 907.167 402.607 907.893 402.223C908.639 401.839 909.269 401.242 909.781 400.431L912.853 402.223C912.191 403.503 911.221 404.495 909.941 405.199C908.682 405.882 907.221 406.223 905.557 406.223ZM919.802 405.999V391.343L920.73 392.303H913.786V388.911H929.786V392.303H922.874L923.802 391.343V405.999H919.802ZM942.159 406.223C940.772 406.223 939.503 405.903 938.351 405.263C937.22 404.623 936.314 403.663 935.631 402.383C934.97 401.082 934.639 399.439 934.639 397.455C934.639 395.45 934.959 393.807 935.599 392.527C936.26 391.247 937.156 390.298 938.287 389.679C939.418 389.039 940.708 388.719 942.159 388.719C943.844 388.719 945.327 389.082 946.607 389.807C947.908 390.532 948.932 391.546 949.679 392.847C950.447 394.148 950.831 395.684 950.831 397.455C950.831 399.226 950.447 400.772 949.679 402.095C948.932 403.396 947.908 404.41 946.607 405.135C945.327 405.86 943.844 406.223 942.159 406.223ZM932.687 412.207V388.911H936.495V392.943L936.367 397.487L936.687 402.031V412.207H932.687ZM941.711 402.799C942.671 402.799 943.524 402.586 944.271 402.159C945.039 401.732 945.647 401.114 946.095 400.303C946.543 399.492 946.767 398.543 946.767 397.455C946.767 396.346 946.543 395.396 946.095 394.607C945.647 393.796 945.039 393.178 944.271 392.751C943.524 392.324 942.671 392.111 941.711 392.111C940.751 392.111 939.887 392.324 939.119 392.751C938.351 393.178 937.743 393.796 937.295 394.607C936.847 395.396 936.623 396.346 936.623 397.455C936.623 398.543 936.847 399.492 937.295 400.303C937.743 401.114 938.351 401.732 939.119 402.159C939.887 402.586 940.751 402.799 941.711 402.799ZM962.428 406.223C960.679 406.223 959.121 405.85 957.756 405.103C956.391 404.335 955.313 403.29 954.524 401.967C953.735 400.644 953.34 399.14 953.34 397.455C953.34 395.748 953.735 394.244 954.524 392.943C955.313 391.62 956.391 390.586 957.756 389.839C959.121 389.092 960.679 388.719 962.428 388.719C964.199 388.719 965.767 389.092 967.132 389.839C968.519 390.586 969.596 391.61 970.364 392.911C971.153 394.212 971.548 395.727 971.548 397.455C971.548 399.14 971.153 400.644 970.364 401.967C969.596 403.29 968.519 404.335 967.132 405.103C965.767 405.85 964.199 406.223 962.428 406.223ZM962.428 402.799C963.409 402.799 964.284 402.586 965.052 402.159C965.82 401.732 966.417 401.114 966.844 400.303C967.292 399.492 967.516 398.543 967.516 397.455C967.516 396.346 967.292 395.396 966.844 394.607C966.417 393.796 965.82 393.178 965.052 392.751C964.284 392.324 963.42 392.111 962.46 392.111C961.479 392.111 960.604 392.324 959.836 392.751C959.089 393.178 958.492 393.796 958.044 394.607C957.596 395.396 957.372 396.346 957.372 397.455C957.372 398.543 957.596 399.492 958.044 400.303C958.492 401.114 959.089 401.732 959.836 402.159C960.604 402.586 961.468 402.799 962.428 402.799ZM983.468 406.223C981.569 406.223 979.905 405.85 978.476 405.103C977.068 404.335 975.969 403.29 975.18 401.967C974.412 400.644 974.028 399.14 974.028 397.455C974.028 395.748 974.401 394.244 975.148 392.943C975.916 391.62 976.961 390.586 978.284 389.839C979.628 389.092 981.153 388.719 982.86 388.719C984.524 388.719 986.006 389.082 987.308 389.807C988.609 390.532 989.633 391.556 990.38 392.879C991.126 394.202 991.5 395.759 991.5 397.551C991.5 397.722 991.489 397.914 991.468 398.127C991.468 398.34 991.457 398.543 991.436 398.735H977.196V396.079H989.324L987.756 396.911C987.777 395.93 987.574 395.066 987.148 394.319C986.721 393.572 986.134 392.986 985.388 392.559C984.662 392.132 983.82 391.919 982.86 391.919C981.878 391.919 981.014 392.132 980.268 392.559C979.542 392.986 978.966 393.583 978.54 394.351C978.134 395.098 977.932 395.983 977.932 397.007V397.647C977.932 398.671 978.166 399.578 978.636 400.367C979.105 401.156 979.766 401.764 980.62 402.191C981.473 402.618 982.454 402.831 983.564 402.831C984.524 402.831 985.388 402.682 986.156 402.383C986.924 402.084 987.606 401.615 988.204 400.975L990.348 403.439C989.58 404.335 988.609 405.028 987.436 405.519C986.284 405.988 984.961 406.223 983.468 406.223ZM995.875 405.999V388.911H999.875V395.855H1008.48V388.911H1012.48V405.999H1008.48V399.247H999.875V405.999H995.875ZM1017.84 405.999V388.911H1021.84V400.175L1031.28 388.911H1034.93V405.999H1030.93V394.735L1021.52 405.999H1017.84ZM1048.28 406.223C1046.38 406.223 1044.72 405.85 1043.29 405.103C1041.88 404.335 1040.78 403.29 1039.99 401.967C1039.23 400.644 1038.84 399.14 1038.84 397.455C1038.84 395.748 1039.21 394.244 1039.96 392.943C1040.73 391.62 1041.77 390.586 1043.1 389.839C1044.44 389.092 1045.97 388.719 1047.67 388.719C1049.34 388.719 1050.82 389.082 1052.12 389.807C1053.42 390.532 1054.45 391.556 1055.19 392.879C1055.94 394.202 1056.31 395.759 1056.31 397.551C1056.31 397.722 1056.3 397.914 1056.28 398.127C1056.28 398.34 1056.27 398.543 1056.25 398.735H1042.01V396.079H1054.14L1052.57 396.911C1052.59 395.93 1052.39 395.066 1051.96 394.319C1051.53 393.572 1050.95 392.986 1050.2 392.559C1049.48 392.132 1048.63 391.919 1047.67 391.919C1046.69 391.919 1045.83 392.132 1045.08 392.559C1044.36 392.986 1043.78 393.583 1043.35 394.351C1042.95 395.098 1042.75 395.983 1042.75 397.007V397.647C1042.75 398.671 1042.98 399.578 1043.45 400.367C1043.92 401.156 1044.58 401.764 1045.43 402.191C1046.29 402.618 1047.27 402.831 1048.38 402.831C1049.34 402.831 1050.2 402.682 1050.97 402.383C1051.74 402.084 1052.42 401.615 1053.02 400.975L1055.16 403.439C1054.39 404.335 1053.42 405.028 1052.25 405.519C1051.1 405.988 1049.77 406.223 1048.28 406.223ZM132.399 448.143V436.303H125.839L125.743 439.055C125.7 440.036 125.636 440.986 125.551 441.903C125.466 442.799 125.327 443.631 125.135 444.399C124.943 445.146 124.666 445.764 124.303 446.255C123.94 446.746 123.46 447.066 122.863 447.215L118.895 446.607C119.535 446.607 120.047 446.404 120.431 445.999C120.836 445.572 121.146 444.996 121.359 444.271C121.594 443.524 121.764 442.682 121.871 441.743C121.978 440.783 122.052 439.791 122.095 438.767L122.319 432.911H136.399V448.143H132.399ZM118.287 453.807V446.607H138.927V453.807H135.183V449.999H121.999V453.807H118.287ZM150.468 450.223C148.569 450.223 146.905 449.85 145.476 449.103C144.068 448.335 142.969 447.29 142.18 445.967C141.412 444.644 141.028 443.14 141.028 441.455C141.028 439.748 141.401 438.244 142.148 436.943C142.916 435.62 143.961 434.586 145.284 433.839C146.628 433.092 148.153 432.719 149.86 432.719C151.524 432.719 153.006 433.082 154.308 433.807C155.609 434.532 156.633 435.556 157.38 436.879C158.126 438.202 158.5 439.759 158.5 441.551C158.5 441.722 158.489 441.914 158.468 442.127C158.468 442.34 158.457 442.543 158.436 442.735H144.196V440.079H156.324L154.756 440.911C154.777 439.93 154.574 439.066 154.148 438.319C153.721 437.572 153.134 436.986 152.388 436.559C151.662 436.132 150.82 435.919 149.86 435.919C148.878 435.919 148.014 436.132 147.268 436.559C146.542 436.986 145.966 437.583 145.54 438.351C145.134 439.098 144.932 439.983 144.932 441.007V441.647C144.932 442.671 145.166 443.578 145.636 444.367C146.105 445.156 146.766 445.764 147.62 446.191C148.473 446.618 149.454 446.831 150.564 446.831C151.524 446.831 152.388 446.682 153.156 446.383C153.924 446.084 154.606 445.615 155.204 444.975L157.348 447.439C156.58 448.335 155.609 449.028 154.436 449.519C153.284 449.988 151.961 450.223 150.468 450.223ZM162.875 449.999V432.911H166.875V446.607H175.035V432.911H179.035V449.999H162.875ZM177.883 453.807V449.903L178.811 449.999H175.035V446.607H181.627V453.807H177.883ZM193.155 450.223C191.256 450.223 189.592 449.85 188.163 449.103C186.755 448.335 185.656 447.29 184.867 445.967C184.099 444.644 183.715 443.14 183.715 441.455C183.715 439.748 184.088 438.244 184.835 436.943C185.603 435.62 186.648 434.586 187.971 433.839C189.315 433.092 190.84 432.719 192.547 432.719C194.211 432.719 195.694 433.082 196.995 433.807C198.296 434.532 199.32 435.556 200.067 436.879C200.814 438.202 201.187 439.759 201.187 441.551C201.187 441.722 201.176 441.914 201.155 442.127C201.155 442.34 201.144 442.543 201.123 442.735H186.883V440.079H199.011L197.443 440.911C197.464 439.93 197.262 439.066 196.835 438.319C196.408 437.572 195.822 436.986 195.075 436.559C194.35 436.132 193.507 435.919 192.547 435.919C191.566 435.919 190.702 436.132 189.955 436.559C189.23 436.986 188.654 437.583 188.227 438.351C187.822 439.098 187.619 439.983 187.619 441.007V441.647C187.619 442.671 187.854 443.578 188.323 444.367C188.792 445.156 189.454 445.764 190.307 446.191C191.16 446.618 192.142 446.831 193.251 446.831C194.211 446.831 195.075 446.682 195.843 446.383C196.611 446.084 197.294 445.615 197.891 444.975L200.035 447.439C199.267 448.335 198.296 449.028 197.123 449.519C195.971 449.988 194.648 450.223 193.155 450.223ZM205.562 449.999V432.911H209.562V439.855H218.17V432.911H222.17V449.999H218.17V443.247H209.562V449.999H205.562ZM231.083 449.999V435.343L232.011 436.303H225.067V432.911H241.067V436.303H234.155L235.083 435.343V449.999H231.083ZM253.44 450.223C252.054 450.223 250.784 449.903 249.632 449.263C248.502 448.623 247.595 447.663 246.912 446.383C246.251 445.082 245.92 443.439 245.92 441.455C245.92 439.45 246.24 437.807 246.88 436.527C247.542 435.247 248.438 434.298 249.568 433.679C250.699 433.039 251.99 432.719 253.44 432.719C255.126 432.719 256.608 433.082 257.888 433.807C259.19 434.532 260.214 435.546 260.96 436.847C261.728 438.148 262.112 439.684 262.112 441.455C262.112 443.226 261.728 444.772 260.96 446.095C260.214 447.396 259.19 448.41 257.888 449.135C256.608 449.86 255.126 450.223 253.44 450.223ZM243.968 456.207V432.911H247.776V436.943L247.648 441.487L247.968 446.031V456.207H243.968ZM252.992 446.799C253.952 446.799 254.806 446.586 255.552 446.159C256.32 445.732 256.928 445.114 257.376 444.303C257.824 443.492 258.048 442.543 258.048 441.455C258.048 440.346 257.824 439.396 257.376 438.607C256.928 437.796 256.32 437.178 255.552 436.751C254.806 436.324 253.952 436.111 252.992 436.111C252.032 436.111 251.168 436.324 250.4 436.751C249.632 437.178 249.024 437.796 248.576 438.607C248.128 439.396 247.904 440.346 247.904 441.455C247.904 442.543 248.128 443.492 248.576 444.303C249.024 445.114 249.632 445.732 250.4 446.159C251.168 446.586 252.032 446.799 252.992 446.799ZM276.243 449.999V446.543L276.019 445.807V439.759C276.019 438.586 275.667 437.679 274.963 437.039C274.259 436.378 273.192 436.047 271.763 436.047C270.803 436.047 269.853 436.196 268.915 436.495C267.997 436.794 267.219 437.21 266.579 437.743L265.011 434.831C265.928 434.127 267.016 433.604 268.275 433.263C269.555 432.9 270.877 432.719 272.243 432.719C274.717 432.719 276.627 433.316 277.971 434.511C279.336 435.684 280.019 437.508 280.019 439.983V449.999H276.243ZM270.867 450.223C269.587 450.223 268.467 450.01 267.507 449.583C266.547 449.135 265.8 448.527 265.267 447.759C264.755 446.97 264.499 446.084 264.499 445.103C264.499 444.143 264.723 443.279 265.171 442.511C265.64 441.743 266.397 441.135 267.443 440.687C268.488 440.239 269.875 440.015 271.603 440.015H276.563V442.671H271.891C270.525 442.671 269.608 442.895 269.139 443.343C268.669 443.77 268.435 444.303 268.435 444.943C268.435 445.668 268.723 446.244 269.299 446.671C269.875 447.098 270.675 447.311 271.699 447.311C272.68 447.311 273.555 447.087 274.323 446.639C275.112 446.191 275.677 445.53 276.019 444.655L276.691 447.055C276.307 448.058 275.613 448.836 274.611 449.391C273.629 449.946 272.381 450.223 270.867 450.223ZM282.472 449.967L282.664 446.607C282.814 446.628 282.952 446.65 283.08 446.671C283.208 446.692 283.326 446.703 283.432 446.703C284.094 446.703 284.606 446.5 284.968 446.095C285.331 445.69 285.598 445.146 285.768 444.463C285.96 443.759 286.088 442.98 286.152 442.127C286.238 441.252 286.302 440.378 286.344 439.503L286.632 432.911H300.456V449.999H296.456V435.215L297.384 436.303H289.256L290.12 435.183L289.896 439.695C289.832 441.21 289.704 442.618 289.512 443.919C289.342 445.199 289.064 446.319 288.68 447.279C288.318 448.239 287.806 448.986 287.144 449.519C286.504 450.052 285.683 450.319 284.68 450.319C284.36 450.319 284.008 450.287 283.624 450.223C283.262 450.159 282.878 450.074 282.472 449.967ZM305.843 449.999V432.911H309.843V444.175L319.283 432.911H322.931V449.999H318.931V438.735L309.523 449.999H305.843ZM333.501 450.287C332.2 450.287 330.909 450.138 329.629 449.839C328.371 449.519 327.229 449.071 326.205 448.495L327.325 445.519C328.157 445.988 329.096 446.351 330.141 446.607C331.187 446.863 332.232 446.991 333.277 446.991C334.173 446.991 334.941 446.906 335.581 446.735C336.221 446.543 336.712 446.266 337.053 445.903C337.416 445.54 337.597 445.124 337.597 444.655C337.597 443.972 337.299 443.46 336.701 443.119C336.125 442.756 335.293 442.575 334.205 442.575H330.909V439.887H333.885C334.568 439.887 335.144 439.812 335.613 439.663C336.104 439.514 336.477 439.29 336.733 438.991C336.989 438.692 337.117 438.34 337.117 437.935C337.117 437.53 336.957 437.178 336.637 436.879C336.339 436.559 335.901 436.324 335.325 436.175C334.749 436.004 334.056 435.919 333.245 435.919C332.392 435.919 331.507 436.026 330.589 436.239C329.693 436.452 328.776 436.762 327.837 437.167L326.813 434.223C327.901 433.732 328.957 433.359 329.981 433.103C331.027 432.826 332.061 432.676 333.085 432.655C334.643 432.591 336.029 432.751 337.245 433.135C338.461 433.519 339.421 434.074 340.125 434.799C340.829 435.524 341.181 436.378 341.181 437.359C341.181 438.17 340.925 438.906 340.413 439.567C339.923 440.207 339.24 440.708 338.365 441.071C337.512 441.434 336.531 441.615 335.421 441.615L335.549 440.751C337.448 440.751 338.941 441.135 340.029 441.903C341.117 442.65 341.661 443.674 341.661 444.975C341.661 446.02 341.309 446.948 340.605 447.759C339.901 448.548 338.931 449.167 337.693 449.615C336.477 450.063 335.08 450.287 333.501 450.287ZM353.397 450.223C351.647 450.223 350.09 449.85 348.725 449.103C347.359 448.335 346.282 447.29 345.493 445.967C344.703 444.644 344.309 443.14 344.309 441.455C344.309 439.748 344.703 438.244 345.493 436.943C346.282 435.62 347.359 434.586 348.725 433.839C350.09 433.092 351.647 432.719 353.397 432.719C355.167 432.719 356.735 433.092 358.101 433.839C359.487 434.586 360.565 435.61 361.333 436.911C362.122 438.212 362.517 439.727 362.517 441.455C362.517 443.14 362.122 444.644 361.333 445.967C360.565 447.29 359.487 448.335 358.101 449.103C356.735 449.85 355.167 450.223 353.397 450.223ZM353.397 446.799C354.378 446.799 355.253 446.586 356.021 446.159C356.789 445.732 357.386 445.114 357.813 444.303C358.261 443.492 358.485 442.543 358.485 441.455C358.485 440.346 358.261 439.396 357.813 438.607C357.386 437.796 356.789 437.178 356.021 436.751C355.253 436.324 354.389 436.111 353.429 436.111C352.447 436.111 351.573 436.324 350.805 436.751C350.058 437.178 349.461 437.796 349.013 438.607C348.565 439.396 348.341 440.346 348.341 441.455C348.341 442.543 348.565 443.492 349.013 444.303C349.461 445.114 350.058 445.732 350.805 446.159C351.573 446.586 352.437 446.799 353.397 446.799ZM366.468 449.999V432.911H374.82C376.89 432.911 378.511 433.295 379.684 434.063C380.879 434.831 381.476 435.919 381.476 437.327C381.476 438.714 380.922 439.802 379.812 440.591C378.703 441.359 377.231 441.743 375.396 441.743L375.876 440.751C377.946 440.751 379.482 441.135 380.484 441.903C381.508 442.65 382.02 443.748 382.02 445.199C382.02 446.714 381.455 447.898 380.324 448.751C379.194 449.583 377.476 449.999 375.172 449.999H366.468ZM370.276 447.087H374.852C375.94 447.087 376.762 446.916 377.316 446.575C377.871 446.212 378.148 445.668 378.148 444.943C378.148 444.175 377.892 443.61 377.38 443.247C376.868 442.884 376.068 442.703 374.98 442.703H370.276V447.087ZM370.276 440.047H374.468C375.492 440.047 376.26 439.866 376.772 439.503C377.306 439.119 377.572 438.586 377.572 437.903C377.572 437.199 377.306 436.676 376.772 436.335C376.26 435.994 375.492 435.823 374.468 435.823H370.276V440.047ZM396.649 449.999V446.543L396.425 445.807V439.759C396.425 438.586 396.073 437.679 395.369 437.039C394.665 436.378 393.598 436.047 392.169 436.047C391.209 436.047 390.259 436.196 389.321 436.495C388.403 436.794 387.625 437.21 386.985 437.743L385.417 434.831C386.334 434.127 387.422 433.604 388.681 433.263C389.961 432.9 391.283 432.719 392.649 432.719C395.123 432.719 397.033 433.316 398.377 434.511C399.742 435.684 400.425 437.508 400.425 439.983V449.999H396.649ZM391.273 450.223C389.993 450.223 388.873 450.01 387.913 449.583C386.953 449.135 386.206 448.527 385.673 447.759C385.161 446.97 384.905 446.084 384.905 445.103C384.905 444.143 385.129 443.279 385.577 442.511C386.046 441.743 386.803 441.135 387.849 440.687C388.894 440.239 390.281 440.015 392.009 440.015H396.969V442.671H392.297C390.931 442.671 390.014 442.895 389.545 443.343C389.075 443.77 388.841 444.303 388.841 444.943C388.841 445.668 389.129 446.244 389.705 446.671C390.281 447.098 391.081 447.311 392.105 447.311C393.086 447.311 393.961 447.087 394.729 446.639C395.518 446.191 396.083 445.53 396.425 444.655L397.097 447.055C396.713 448.058 396.019 448.836 395.017 449.391C394.035 449.946 392.787 450.223 391.273 450.223ZM405.375 449.999V432.911H409.375V439.855H417.983V432.911H421.983V449.999H417.983V443.247H409.375V449.999H405.375ZM427.343 449.999V432.911H431.343V439.855H439.951V432.911H443.951V449.999H439.951V443.247H431.343V449.999H427.343ZM456.928 450.223C455.179 450.223 453.621 449.85 452.256 449.103C450.891 448.335 449.813 447.29 449.024 445.967C448.235 444.644 447.84 443.14 447.84 441.455C447.84 439.748 448.235 438.244 449.024 436.943C449.813 435.62 450.891 434.586 452.256 433.839C453.621 433.092 455.179 432.719 456.928 432.719C458.699 432.719 460.267 433.092 461.632 433.839C463.019 434.586 464.096 435.61 464.864 436.911C465.653 438.212 466.048 439.727 466.048 441.455C466.048 443.14 465.653 444.644 464.864 445.967C464.096 447.29 463.019 448.335 461.632 449.103C460.267 449.85 458.699 450.223 456.928 450.223ZM456.928 446.799C457.909 446.799 458.784 446.586 459.552 446.159C460.32 445.732 460.917 445.114 461.344 444.303C461.792 443.492 462.016 442.543 462.016 441.455C462.016 440.346 461.792 439.396 461.344 438.607C460.917 437.796 460.32 437.178 459.552 436.751C458.784 436.324 457.92 436.111 456.96 436.111C455.979 436.111 455.104 436.324 454.336 436.751C453.589 437.178 452.992 437.796 452.544 438.607C452.096 439.396 451.872 440.346 451.872 441.455C451.872 442.543 452.096 443.492 452.544 444.303C452.992 445.114 453.589 445.732 454.336 446.159C455.104 446.586 455.968 446.799 456.928 446.799ZM470 449.999V432.911H483.12V436.303H473.072L474 435.407V449.999H470ZM492.897 450.223C491.147 450.223 489.59 449.85 488.225 449.103C486.859 448.335 485.782 447.29 484.993 445.967C484.203 444.644 483.809 443.14 483.809 441.455C483.809 439.748 484.203 438.244 484.993 436.943C485.782 435.62 486.859 434.586 488.225 433.839C489.59 433.092 491.147 432.719 492.897 432.719C494.667 432.719 496.235 433.092 497.601 433.839C498.987 434.586 500.065 435.61 500.833 436.911C501.622 438.212 502.017 439.727 502.017 441.455C502.017 443.14 501.622 444.644 500.833 445.967C500.065 447.29 498.987 448.335 497.601 449.103C496.235 449.85 494.667 450.223 492.897 450.223ZM492.897 446.799C493.878 446.799 494.753 446.586 495.521 446.159C496.289 445.732 496.886 445.114 497.313 444.303C497.761 443.492 497.985 442.543 497.985 441.455C497.985 440.346 497.761 439.396 497.313 438.607C496.886 437.796 496.289 437.178 495.521 436.751C494.753 436.324 493.889 436.111 492.929 436.111C491.947 436.111 491.073 436.324 490.305 436.751C489.558 437.178 488.961 437.796 488.513 438.607C488.065 439.396 487.841 440.346 487.841 441.455C487.841 442.543 488.065 443.492 488.513 444.303C488.961 445.114 489.558 445.732 490.305 446.159C491.073 446.586 491.937 446.799 492.897 446.799ZM527.068 449.999L520.892 441.807L524.156 439.791L531.772 449.999H527.068ZM514.812 449.999V432.911H518.812V449.999H514.812ZM517.628 443.151V439.823H523.42V443.151H517.628ZM524.54 441.935L520.796 441.487L527.068 432.911H531.356L524.54 441.935ZM541.647 450.223C539.897 450.223 538.34 449.85 536.975 449.103C535.609 448.335 534.532 447.29 533.743 445.967C532.953 444.644 532.559 443.14 532.559 441.455C532.559 439.748 532.953 438.244 533.743 436.943C534.532 435.62 535.609 434.586 536.975 433.839C538.34 433.092 539.897 432.719 541.647 432.719C543.417 432.719 544.985 433.092 546.351 433.839C547.737 434.586 548.815 435.61 549.583 436.911C550.372 438.212 550.767 439.727 550.767 441.455C550.767 443.14 550.372 444.644 549.583 445.967C548.815 447.29 547.737 448.335 546.351 449.103C544.985 449.85 543.417 450.223 541.647 450.223ZM541.647 446.799C542.628 446.799 543.503 446.586 544.271 446.159C545.039 445.732 545.636 445.114 546.063 444.303C546.511 443.492 546.735 442.543 546.735 441.455C546.735 440.346 546.511 439.396 546.063 438.607C545.636 437.796 545.039 437.178 544.271 436.751C543.503 436.324 542.639 436.111 541.679 436.111C540.697 436.111 539.823 436.324 539.055 436.751C538.308 437.178 537.711 437.796 537.263 438.607C536.815 439.396 536.591 440.346 536.591 441.455C536.591 442.543 536.815 443.492 537.263 444.303C537.711 445.114 538.308 445.732 539.055 446.159C539.823 446.586 540.687 446.799 541.647 446.799ZM554.718 449.999V432.911H558.91L565.79 445.039H564.126L571.358 432.911H575.102L575.134 449.999H571.518V437.199L572.158 437.615L565.758 448.207H564.03L557.598 437.327L558.366 437.135V449.999H554.718ZM589.076 438.543C591.273 438.543 592.948 439.034 594.1 440.015C595.252 440.996 595.828 442.383 595.828 444.175C595.828 446.031 595.188 447.482 593.908 448.527C592.628 449.551 590.825 450.052 588.5 450.031L580.5 449.999V432.911H584.5V438.511L589.076 438.543ZM588.148 447.087C589.321 447.108 590.217 446.863 590.836 446.351C591.454 445.839 591.764 445.092 591.764 444.111C591.764 443.13 591.454 442.426 590.836 441.999C590.238 441.551 589.342 441.316 588.148 441.295L584.5 441.263V447.055L588.148 447.087ZM599.343 449.999V432.911H603.343V439.535H608.431V443.151H603.343V449.999H599.343ZM614.959 450.223C613.253 450.223 611.727 449.85 610.383 449.103C609.061 448.335 608.015 447.29 607.247 445.967C606.479 444.644 606.095 443.14 606.095 441.455C606.095 439.748 606.479 438.234 607.247 436.911C608.015 435.588 609.061 434.564 610.383 433.839C611.727 433.092 613.253 432.719 614.959 432.719C616.687 432.719 618.213 433.092 619.535 433.839C620.879 434.564 621.935 435.588 622.703 436.911C623.471 438.234 623.855 439.748 623.855 441.455C623.855 443.14 623.471 444.655 622.703 445.999C621.935 447.322 620.879 448.356 619.535 449.103C618.213 449.85 616.687 450.223 614.959 450.223ZM614.959 446.831C615.919 446.831 616.762 446.607 617.487 446.159C618.234 445.711 618.821 445.092 619.247 444.303C619.674 443.514 619.887 442.564 619.887 441.455C619.887 440.346 619.674 439.396 619.247 438.607C618.821 437.796 618.234 437.178 617.487 436.751C616.762 436.324 615.93 436.111 614.991 436.111C614.053 436.111 613.21 436.324 612.463 436.751C611.717 437.178 611.13 437.796 610.703 438.607C610.277 439.396 610.063 440.346 610.063 441.455C610.063 442.564 610.277 443.514 610.703 444.303C611.13 445.092 611.717 445.711 612.463 446.159C613.21 446.607 614.042 446.831 614.959 446.831ZM627.781 449.999V432.911H631.781V439.855H640.389V432.911H644.389V449.999H640.389V443.247H631.781V449.999H627.781ZM649.75 449.999V432.911H653.75V444.175L663.19 432.911H666.838V449.999H662.838V438.735L653.43 449.999H649.75ZM675.77 449.999V435.343L676.698 436.303H669.754V432.911H685.754V436.303H678.842L679.77 435.343V449.999H675.77ZM688.656 449.999V432.911H692.656V444.175L702.096 432.911H705.744V449.999H701.744V438.735L692.336 449.999H688.656ZM710.005 454.831L711.861 447.759L712.405 450.127C711.658 450.127 711.029 449.903 710.517 449.455C710.026 448.986 709.781 448.356 709.781 447.567C709.781 446.756 710.026 446.116 710.517 445.647C711.029 445.156 711.647 444.911 712.373 444.911C713.119 444.911 713.738 445.156 714.229 445.647C714.719 446.138 714.965 446.778 714.965 447.567C714.965 447.78 714.943 448.015 714.901 448.271C714.858 448.506 714.783 448.783 714.677 449.103C714.591 449.423 714.442 449.828 714.229 450.319L712.597 454.831H710.005ZM740.037 449.999L733.861 441.807L737.125 439.791L744.741 449.999H740.037ZM727.781 449.999V432.911H731.781V449.999H727.781ZM730.597 443.151V439.823H736.389V443.151H730.597ZM737.509 441.935L733.765 441.487L740.037 432.911H744.325L737.509 441.935ZM754.616 450.223C752.866 450.223 751.309 449.85 749.944 449.103C748.578 448.335 747.501 447.29 746.712 445.967C745.922 444.644 745.528 443.14 745.528 441.455C745.528 439.748 745.922 438.244 746.712 436.943C747.501 435.62 748.578 434.586 749.944 433.839C751.309 433.092 752.866 432.719 754.616 432.719C756.386 432.719 757.954 433.092 759.32 433.839C760.706 434.586 761.784 435.61 762.552 436.911C763.341 438.212 763.736 439.727 763.736 441.455C763.736 443.14 763.341 444.644 762.552 445.967C761.784 447.29 760.706 448.335 759.32 449.103C757.954 449.85 756.386 450.223 754.616 450.223ZM754.616 446.799C755.597 446.799 756.472 446.586 757.24 446.159C758.008 445.732 758.605 445.114 759.032 444.303C759.48 443.492 759.704 442.543 759.704 441.455C759.704 440.346 759.48 439.396 759.032 438.607C758.605 437.796 758.008 437.178 757.24 436.751C756.472 436.324 755.608 436.111 754.648 436.111C753.666 436.111 752.792 436.324 752.024 436.751C751.277 437.178 750.68 437.796 750.232 438.607C749.784 439.396 749.56 440.346 749.56 441.455C749.56 442.543 749.784 443.492 750.232 444.303C750.68 445.114 751.277 445.732 752.024 446.159C752.792 446.586 753.656 446.799 754.616 446.799ZM770.614 449.999V435.343L771.542 436.303H764.598V432.911H780.598V436.303H773.686L774.614 435.343V449.999H770.614ZM790.366 450.223C788.616 450.223 787.059 449.85 785.694 449.103C784.328 448.335 783.251 447.29 782.462 445.967C781.672 444.644 781.278 443.14 781.278 441.455C781.278 439.748 781.672 438.244 782.462 436.943C783.251 435.62 784.328 434.586 785.694 433.839C787.059 433.092 788.616 432.719 790.366 432.719C792.136 432.719 793.704 433.092 795.07 433.839C796.456 434.586 797.534 435.61 798.302 436.911C799.091 438.212 799.486 439.727 799.486 441.455C799.486 443.14 799.091 444.644 798.302 445.967C797.534 447.29 796.456 448.335 795.07 449.103C793.704 449.85 792.136 450.223 790.366 450.223ZM790.366 446.799C791.347 446.799 792.222 446.586 792.99 446.159C793.758 445.732 794.355 445.114 794.782 444.303C795.23 443.492 795.454 442.543 795.454 441.455C795.454 440.346 795.23 439.396 794.782 438.607C794.355 437.796 793.758 437.178 792.99 436.751C792.222 436.324 791.358 436.111 790.398 436.111C789.416 436.111 788.542 436.324 787.774 436.751C787.027 437.178 786.43 437.796 785.982 438.607C785.534 439.396 785.31 440.346 785.31 441.455C785.31 442.543 785.534 443.492 785.982 444.303C786.43 445.114 787.027 445.732 787.774 446.159C788.542 446.586 789.406 446.799 790.366 446.799ZM812.909 450.223C811.522 450.223 810.253 449.903 809.101 449.263C807.97 448.623 807.064 447.663 806.381 446.383C805.72 445.082 805.389 443.439 805.389 441.455C805.389 439.45 805.709 437.807 806.349 436.527C807.01 435.247 807.906 434.298 809.037 433.679C810.168 433.039 811.458 432.719 812.909 432.719C814.594 432.719 816.077 433.082 817.357 433.807C818.658 434.532 819.682 435.546 820.429 436.847C821.197 438.148 821.581 439.684 821.581 441.455C821.581 443.226 821.197 444.772 820.429 446.095C819.682 447.396 818.658 448.41 817.357 449.135C816.077 449.86 814.594 450.223 812.909 450.223ZM803.437 456.207V432.911H807.245V436.943L807.117 441.487L807.437 446.031V456.207H803.437ZM812.461 446.799C813.421 446.799 814.274 446.586 815.021 446.159C815.789 445.732 816.397 445.114 816.845 444.303C817.293 443.492 817.517 442.543 817.517 441.455C817.517 440.346 817.293 439.396 816.845 438.607C816.397 437.796 815.789 437.178 815.021 436.751C814.274 436.324 813.421 436.111 812.461 436.111C811.501 436.111 810.637 436.324 809.869 436.751C809.101 437.178 808.493 437.796 808.045 438.607C807.597 439.396 807.373 440.346 807.373 441.455C807.373 442.543 807.597 443.492 808.045 444.303C808.493 445.114 809.101 445.732 809.869 446.159C810.637 446.586 811.501 446.799 812.461 446.799ZM833.178 450.223C831.429 450.223 829.871 449.85 828.506 449.103C827.141 448.335 826.063 447.29 825.274 445.967C824.485 444.644 824.09 443.14 824.09 441.455C824.09 439.748 824.485 438.244 825.274 436.943C826.063 435.62 827.141 434.586 828.506 433.839C829.871 433.092 831.429 432.719 833.178 432.719C834.949 432.719 836.517 433.092 837.882 433.839C839.269 434.586 840.346 435.61 841.114 436.911C841.903 438.212 842.298 439.727 842.298 441.455C842.298 443.14 841.903 444.644 841.114 445.967C840.346 447.29 839.269 448.335 837.882 449.103C836.517 449.85 834.949 450.223 833.178 450.223ZM833.178 446.799C834.159 446.799 835.034 446.586 835.802 446.159C836.57 445.732 837.167 445.114 837.594 444.303C838.042 443.492 838.266 442.543 838.266 441.455C838.266 440.346 838.042 439.396 837.594 438.607C837.167 437.796 836.57 437.178 835.802 436.751C835.034 436.324 834.17 436.111 833.21 436.111C832.229 436.111 831.354 436.324 830.586 436.751C829.839 437.178 829.242 437.796 828.794 438.607C828.346 439.396 828.122 440.346 828.122 441.455C828.122 442.543 828.346 443.492 828.794 444.303C829.242 445.114 829.839 445.732 830.586 446.159C831.354 446.586 832.218 446.799 833.178 446.799ZM854.218 450.223C852.319 450.223 850.655 449.85 849.226 449.103C847.818 448.335 846.719 447.29 845.93 445.967C845.162 444.644 844.778 443.14 844.778 441.455C844.778 439.748 845.151 438.244 845.898 436.943C846.666 435.62 847.711 434.586 849.034 433.839C850.378 433.092 851.903 432.719 853.61 432.719C855.274 432.719 856.756 433.082 858.058 433.807C859.359 434.532 860.383 435.556 861.13 436.879C861.876 438.202 862.25 439.759 862.25 441.551C862.25 441.722 862.239 441.914 862.218 442.127C862.218 442.34 862.207 442.543 862.186 442.735H847.946V440.079H860.074L858.506 440.911C858.527 439.93 858.324 439.066 857.898 438.319C857.471 437.572 856.884 436.986 856.138 436.559C855.412 436.132 854.57 435.919 853.61 435.919C852.628 435.919 851.764 436.132 851.018 436.559C850.292 436.986 849.716 437.583 849.29 438.351C848.884 439.098 848.682 439.983 848.682 441.007V441.647C848.682 442.671 848.916 443.578 849.386 444.367C849.855 445.156 850.516 445.764 851.37 446.191C852.223 446.618 853.204 446.831 854.314 446.831C855.274 446.831 856.138 446.682 856.906 446.383C857.674 446.084 858.356 445.615 858.954 444.975L861.098 447.439C860.33 448.335 859.359 449.028 858.186 449.519C857.034 449.988 855.711 450.223 854.218 450.223ZM875.468 449.999V432.911H891.852V449.999H887.884V435.375L888.812 436.303H878.54L879.468 435.375V449.999H875.468ZM904.866 450.223C903.116 450.223 901.559 449.85 900.194 449.103C898.828 448.335 897.751 447.29 896.962 445.967C896.172 444.644 895.778 443.14 895.778 441.455C895.778 439.748 896.172 438.244 896.962 436.943C897.751 435.62 898.828 434.586 900.194 433.839C901.559 433.092 903.116 432.719 904.866 432.719C906.636 432.719 908.204 433.092 909.57 433.839C910.956 434.586 912.034 435.61 912.802 436.911C913.591 438.212 913.986 439.727 913.986 441.455C913.986 443.14 913.591 444.644 912.802 445.967C912.034 447.29 910.956 448.335 909.57 449.103C908.204 449.85 906.636 450.223 904.866 450.223ZM904.866 446.799C905.847 446.799 906.722 446.586 907.49 446.159C908.258 445.732 908.855 445.114 909.282 444.303C909.73 443.492 909.954 442.543 909.954 441.455C909.954 440.346 909.73 439.396 909.282 438.607C908.855 437.796 908.258 437.178 907.49 436.751C906.722 436.324 905.858 436.111 904.898 436.111C903.916 436.111 903.042 436.324 902.274 436.751C901.527 437.178 900.93 437.796 900.482 438.607C900.034 439.396 899.81 440.346 899.81 441.455C899.81 442.543 900.034 443.492 900.482 444.303C900.93 445.114 901.527 445.732 902.274 446.159C903.042 446.586 903.906 446.799 904.866 446.799ZM917.937 449.999V432.911H922.129L929.009 445.039H927.345L934.577 432.911H938.321L938.353 449.999H934.737V437.199L935.377 437.615L928.977 448.207H927.249L920.817 437.327L921.585 437.135V449.999H917.937ZM951.334 450.223C949.585 450.223 948.028 449.85 946.662 449.103C945.297 448.335 944.22 447.29 943.43 445.967C942.641 444.644 942.246 443.14 942.246 441.455C942.246 439.748 942.641 438.244 943.43 436.943C944.22 435.62 945.297 434.586 946.662 433.839C948.028 433.092 949.585 432.719 951.334 432.719C953.105 432.719 954.673 433.092 956.038 433.839C957.425 434.586 958.502 435.61 959.27 436.911C960.06 438.212 960.454 439.727 960.454 441.455C960.454 443.14 960.06 444.644 959.27 445.967C958.502 447.29 957.425 448.335 956.038 449.103C954.673 449.85 953.105 450.223 951.334 450.223ZM951.334 446.799C952.316 446.799 953.19 446.586 953.958 446.159C954.726 445.732 955.324 445.114 955.75 444.303C956.198 443.492 956.422 442.543 956.422 441.455C956.422 440.346 956.198 439.396 955.75 438.607C955.324 437.796 954.726 437.178 953.958 436.751C953.19 436.324 952.326 436.111 951.366 436.111C950.385 436.111 949.51 436.324 948.742 436.751C947.996 437.178 947.398 437.796 946.95 438.607C946.502 439.396 946.278 440.346 946.278 441.455C946.278 442.543 946.502 443.492 946.95 444.303C947.398 445.114 947.996 445.732 948.742 446.159C949.51 446.586 950.374 446.799 951.334 446.799ZM964.406 449.999V432.911H977.526V436.303H967.478L968.406 435.407V449.999H964.406ZM990.805 449.999V446.543L990.581 445.807V439.759C990.581 438.586 990.229 437.679 989.525 437.039C988.821 436.378 987.754 436.047 986.325 436.047C985.365 436.047 984.416 436.196 983.477 436.495C982.56 436.794 981.781 437.21 981.141 437.743L979.573 434.831C980.49 434.127 981.578 433.604 982.837 433.263C984.117 432.9 985.44 432.719 986.805 432.719C989.28 432.719 991.189 433.316 992.533 434.511C993.898 435.684 994.581 437.508 994.581 439.983V449.999H990.805ZM985.429 450.223C984.149 450.223 983.029 450.01 982.069 449.583C981.109 449.135 980.362 448.527 979.829 447.759C979.317 446.97 979.061 446.084 979.061 445.103C979.061 444.143 979.285 443.279 979.733 442.511C980.202 441.743 980.96 441.135 982.005 440.687C983.05 440.239 984.437 440.015 986.165 440.015H991.125V442.671H986.453C985.088 442.671 984.17 442.895 983.701 443.343C983.232 443.77 982.997 444.303 982.997 444.943C982.997 445.668 983.285 446.244 983.861 446.671C984.437 447.098 985.237 447.311 986.261 447.311C987.242 447.311 988.117 447.087 988.885 446.639C989.674 446.191 990.24 445.53 990.581 444.655L991.253 447.055C990.869 448.058 990.176 448.836 989.173 449.391C988.192 449.946 986.944 450.223 985.429 450.223ZM1007.5 450.223C1005.6 450.223 1003.94 449.85 1002.51 449.103C1001.1 448.335 1000 447.29 999.211 445.967C998.443 444.644 998.059 443.14 998.059 441.455C998.059 439.748 998.432 438.244 999.179 436.943C999.947 435.62 1000.99 434.586 1002.32 433.839C1003.66 433.092 1005.18 432.719 1006.89 432.719C1008.56 432.719 1010.04 433.082 1011.34 433.807C1012.64 434.532 1013.66 435.556 1014.41 436.879C1015.16 438.202 1015.53 439.759 1015.53 441.551C1015.53 441.722 1015.52 441.914 1015.5 442.127C1015.5 442.34 1015.49 442.543 1015.47 442.735H1001.23V440.079H1013.36L1011.79 440.911C1011.81 439.93 1011.61 439.066 1011.18 438.319C1010.75 437.572 1010.17 436.986 1009.42 436.559C1008.69 436.132 1007.85 435.919 1006.89 435.919C1005.91 435.919 1005.05 436.132 1004.3 436.559C1003.57 436.986 1003 437.583 1002.57 438.351C1002.17 439.098 1001.96 439.983 1001.96 441.007V441.647C1001.96 442.671 1002.2 443.578 1002.67 444.367C1003.14 445.156 1003.8 445.764 1004.65 446.191C1005.5 446.618 1006.49 446.831 1007.6 446.831C1008.56 446.831 1009.42 446.682 1010.19 446.383C1010.96 446.084 1011.64 445.615 1012.24 444.975L1014.38 447.439C1013.61 448.335 1012.64 449.028 1011.47 449.519C1010.32 449.988 1008.99 450.223 1007.5 450.223ZM1022.8 449.999V435.343L1023.73 436.303H1016.79V432.911H1032.79V436.303H1025.87L1026.8 435.343V449.999H1022.8ZM130.159 494.223C128.772 494.223 127.503 493.903 126.351 493.263C125.22 492.623 124.314 491.663 123.631 490.383C122.97 489.082 122.639 487.439 122.639 485.455C122.639 483.45 122.959 481.807 123.599 480.527C124.26 479.247 125.156 478.298 126.287 477.679C127.418 477.039 128.708 476.719 130.159 476.719C131.844 476.719 133.327 477.082 134.607 477.807C135.908 478.532 136.932 479.546 137.679 480.847C138.447 482.148 138.831 483.684 138.831 485.455C138.831 487.226 138.447 488.772 137.679 490.095C136.932 491.396 135.908 492.41 134.607 493.135C133.327 493.86 131.844 494.223 130.159 494.223ZM120.687 500.207V476.911H124.495V480.943L124.367 485.487L124.687 490.031V500.207H120.687ZM129.711 490.799C130.671 490.799 131.524 490.586 132.271 490.159C133.039 489.732 133.647 489.114 134.095 488.303C134.543 487.492 134.767 486.543 134.767 485.455C134.767 484.346 134.543 483.396 134.095 482.607C133.647 481.796 133.039 481.178 132.271 480.751C131.524 480.324 130.671 480.111 129.711 480.111C128.751 480.111 127.887 480.324 127.119 480.751C126.351 481.178 125.743 481.796 125.295 482.607C124.847 483.396 124.623 484.346 124.623 485.455C124.623 486.543 124.847 487.492 125.295 488.303C125.743 489.114 126.351 489.732 127.119 490.159C127.887 490.586 128.751 490.799 129.711 490.799ZM152.961 493.999V490.543L152.737 489.807V483.759C152.737 482.586 152.385 481.679 151.681 481.039C150.977 480.378 149.911 480.047 148.481 480.047C147.521 480.047 146.572 480.196 145.633 480.495C144.716 480.794 143.937 481.21 143.297 481.743L141.729 478.831C142.647 478.127 143.735 477.604 144.993 477.263C146.273 476.9 147.596 476.719 148.961 476.719C151.436 476.719 153.345 477.316 154.689 478.511C156.055 479.684 156.737 481.508 156.737 483.983V493.999H152.961ZM147.585 494.223C146.305 494.223 145.185 494.01 144.225 493.583C143.265 493.135 142.519 492.527 141.985 491.759C141.473 490.97 141.217 490.084 141.217 489.103C141.217 488.143 141.441 487.279 141.889 486.511C142.359 485.743 143.116 485.135 144.161 484.687C145.207 484.239 146.593 484.015 148.321 484.015H153.281V486.671H148.609C147.244 486.671 146.327 486.895 145.857 487.343C145.388 487.77 145.153 488.303 145.153 488.943C145.153 489.668 145.441 490.244 146.017 490.671C146.593 491.098 147.393 491.311 148.417 491.311C149.399 491.311 150.273 491.087 151.041 490.639C151.831 490.191 152.396 489.53 152.737 488.655L153.409 491.055C153.025 492.058 152.332 492.836 151.329 493.391C150.348 493.946 149.1 494.223 147.585 494.223ZM166.876 494.287C165.575 494.287 164.284 494.138 163.004 493.839C161.746 493.519 160.604 493.071 159.58 492.495L160.7 489.519C161.532 489.988 162.471 490.351 163.516 490.607C164.562 490.863 165.607 490.991 166.652 490.991C167.548 490.991 168.316 490.906 168.956 490.735C169.596 490.543 170.087 490.266 170.428 489.903C170.791 489.54 170.972 489.124 170.972 488.655C170.972 487.972 170.674 487.46 170.076 487.119C169.5 486.756 168.668 486.575 167.58 486.575H164.284V483.887H167.26C167.943 483.887 168.519 483.812 168.988 483.663C169.479 483.514 169.852 483.29 170.108 482.991C170.364 482.692 170.492 482.34 170.492 481.935C170.492 481.53 170.332 481.178 170.012 480.879C169.714 480.559 169.276 480.324 168.7 480.175C168.124 480.004 167.431 479.919 166.62 479.919C165.767 479.919 164.882 480.026 163.964 480.239C163.068 480.452 162.151 480.762 161.212 481.167L160.188 478.223C161.276 477.732 162.332 477.359 163.356 477.103C164.402 476.826 165.436 476.676 166.46 476.655C168.018 476.591 169.404 476.751 170.62 477.135C171.836 477.519 172.796 478.074 173.5 478.799C174.204 479.524 174.556 480.378 174.556 481.359C174.556 482.17 174.3 482.906 173.788 483.567C173.298 484.207 172.615 484.708 171.74 485.071C170.887 485.434 169.906 485.615 168.796 485.615L168.924 484.751C170.823 484.751 172.316 485.135 173.404 485.903C174.492 486.65 175.036 487.674 175.036 488.975C175.036 490.02 174.684 490.948 173.98 491.759C173.276 492.548 172.306 493.167 171.068 493.615C169.852 494.063 168.455 494.287 166.876 494.287ZM179.156 493.999V476.911H187.508C189.577 476.911 191.198 477.295 192.372 478.063C193.566 478.831 194.164 479.919 194.164 481.327C194.164 482.714 193.609 483.802 192.5 484.591C191.39 485.359 189.918 485.743 188.084 485.743L188.564 484.751C190.633 484.751 192.169 485.135 193.172 485.903C194.196 486.65 194.708 487.748 194.708 489.199C194.708 490.714 194.142 491.898 193.012 492.751C191.881 493.583 190.164 493.999 187.86 493.999H179.156ZM182.964 491.087H187.54C188.628 491.087 189.449 490.916 190.004 490.575C190.558 490.212 190.836 489.668 190.836 488.943C190.836 488.175 190.58 487.61 190.068 487.247C189.556 486.884 188.756 486.703 187.668 486.703H182.964V491.087ZM182.964 484.047H187.156C188.18 484.047 188.948 483.866 189.46 483.503C189.993 483.119 190.26 482.586 190.26 481.903C190.26 481.199 189.993 480.676 189.46 480.335C188.948 479.994 188.18 479.823 187.156 479.823H182.964V484.047ZM198.968 493.999V476.911H202.968V488.175L212.408 476.911H216.056V493.999H212.056V482.735L202.648 493.999H198.968ZM221.437 493.999V476.911H229.789C231.858 476.911 233.48 477.295 234.653 478.063C235.848 478.831 236.445 479.919 236.445 481.327C236.445 482.714 235.89 483.802 234.781 484.591C233.672 485.359 232.2 485.743 230.365 485.743L230.845 484.751C232.914 484.751 234.45 485.135 235.453 485.903C236.477 486.65 236.989 487.748 236.989 489.199C236.989 490.714 236.424 491.898 235.293 492.751C234.162 493.583 232.445 493.999 230.141 493.999H221.437ZM225.245 491.087H229.821C230.909 491.087 231.73 490.916 232.285 490.575C232.84 490.212 233.117 489.668 233.117 488.943C233.117 488.175 232.861 487.61 232.349 487.247C231.837 486.884 231.037 486.703 229.949 486.703H225.245V491.087ZM225.245 484.047H229.437C230.461 484.047 231.229 483.866 231.741 483.503C232.274 483.119 232.541 482.586 232.541 481.903C232.541 481.199 232.274 480.676 231.741 480.335C231.229 479.994 230.461 479.823 229.437 479.823H225.245V484.047ZM251.618 493.999V490.543L251.394 489.807V483.759C251.394 482.586 251.042 481.679 250.338 481.039C249.634 480.378 248.567 480.047 247.138 480.047C246.178 480.047 245.228 480.196 244.29 480.495C243.372 480.794 242.594 481.21 241.954 481.743L240.386 478.831C241.303 478.127 242.391 477.604 243.65 477.263C244.93 476.9 246.252 476.719 247.618 476.719C250.092 476.719 252.002 477.316 253.346 478.511C254.711 479.684 255.394 481.508 255.394 483.983V493.999H251.618ZM246.242 494.223C244.962 494.223 243.842 494.01 242.882 493.583C241.922 493.135 241.175 492.527 240.642 491.759C240.13 490.97 239.874 490.084 239.874 489.103C239.874 488.143 240.098 487.279 240.546 486.511C241.015 485.743 241.772 485.135 242.818 484.687C243.863 484.239 245.25 484.015 246.978 484.015H251.938V486.671H247.266C245.9 486.671 244.983 486.895 244.514 487.343C244.044 487.77 243.81 488.303 243.81 488.943C243.81 489.668 244.098 490.244 244.674 490.671C245.25 491.098 246.05 491.311 247.074 491.311C248.055 491.311 248.93 491.087 249.698 490.639C250.487 490.191 251.052 489.53 251.394 488.655L252.066 491.055C251.682 492.058 250.988 492.836 249.986 493.391C249.004 493.946 247.756 494.223 246.242 494.223ZM263.895 493.999V479.343L264.823 480.303H257.879V476.911H273.879V480.303H266.967L267.895 479.343V493.999H263.895ZM285.357 482.543C287.554 482.543 289.229 483.034 290.381 484.015C291.533 484.996 292.109 486.383 292.109 488.175C292.109 490.031 291.469 491.482 290.189 492.527C288.909 493.551 287.106 494.052 284.781 494.031L276.781 493.999V476.911H280.781V482.511L285.357 482.543ZM284.429 491.087C285.602 491.108 286.498 490.863 287.117 490.351C287.735 489.839 288.045 489.092 288.045 488.111C288.045 487.13 287.735 486.426 287.117 485.999C286.519 485.551 285.623 485.316 284.429 485.295L280.781 485.263V491.055L284.429 491.087ZM303.401 494.223C301.609 494.223 300.009 493.85 298.601 493.103C297.214 492.335 296.126 491.29 295.337 489.967C294.547 488.644 294.153 487.14 294.153 485.455C294.153 483.748 294.547 482.244 295.337 480.943C296.126 479.62 297.214 478.586 298.601 477.839C300.009 477.092 301.609 476.719 303.401 476.719C305.065 476.719 306.526 477.06 307.785 477.743C309.065 478.404 310.035 479.386 310.697 480.687L307.625 482.479C307.113 481.668 306.483 481.071 305.737 480.687C305.011 480.303 304.222 480.111 303.369 480.111C302.387 480.111 301.502 480.324 300.713 480.751C299.923 481.178 299.305 481.796 298.857 482.607C298.409 483.396 298.185 484.346 298.185 485.455C298.185 486.564 298.409 487.524 298.857 488.335C299.305 489.124 299.923 489.732 300.713 490.159C301.502 490.586 302.387 490.799 303.369 490.799C304.222 490.799 305.011 490.607 305.737 490.223C306.483 489.839 307.113 489.242 307.625 488.431L310.697 490.223C310.035 491.503 309.065 492.495 307.785 493.199C306.526 493.882 305.065 494.223 303.401 494.223ZM324.598 493.999V488.175L325.174 488.847H320.054C317.707 488.847 315.862 488.356 314.518 487.375C313.195 486.372 312.534 484.932 312.534 483.055C312.534 481.05 313.238 479.524 314.646 478.479C316.075 477.434 317.974 476.911 320.342 476.911H328.182V493.999H324.598ZM312.31 493.999L316.918 487.471H321.014L316.598 493.999H312.31ZM324.598 486.895V479.215L325.174 480.271H320.469C319.232 480.271 318.272 480.506 317.59 480.975C316.928 481.423 316.598 482.159 316.598 483.183C316.598 485.103 317.846 486.063 320.342 486.063H325.174L324.598 486.895ZM354.662 493.999L348.486 485.807L351.75 483.791L359.366 493.999H354.662ZM342.406 493.999V476.911H346.406V493.999H342.406ZM345.222 487.151V483.823H351.014V487.151H345.222ZM352.134 485.935L348.39 485.487L354.662 476.911H358.95L352.134 485.935ZM372.243 493.999V490.543L372.019 489.807V483.759C372.019 482.586 371.667 481.679 370.963 481.039C370.259 480.378 369.192 480.047 367.763 480.047C366.803 480.047 365.853 480.196 364.915 480.495C363.997 480.794 363.219 481.21 362.579 481.743L361.011 478.831C361.928 478.127 363.016 477.604 364.275 477.263C365.555 476.9 366.877 476.719 368.243 476.719C370.717 476.719 372.627 477.316 373.971 478.511C375.336 479.684 376.019 481.508 376.019 483.983V493.999H372.243ZM366.867 494.223C365.587 494.223 364.467 494.01 363.507 493.583C362.547 493.135 361.8 492.527 361.267 491.759C360.755 490.97 360.499 490.084 360.499 489.103C360.499 488.143 360.723 487.279 361.171 486.511C361.64 485.743 362.397 485.135 363.443 484.687C364.488 484.239 365.875 484.015 367.603 484.015H372.563V486.671H367.891C366.525 486.671 365.608 486.895 365.139 487.343C364.669 487.77 364.435 488.303 364.435 488.943C364.435 489.668 364.723 490.244 365.299 490.671C365.875 491.098 366.675 491.311 367.699 491.311C368.68 491.311 369.555 491.087 370.323 490.639C371.112 490.191 371.677 489.53 372.019 488.655L372.691 491.055C372.307 492.058 371.613 492.836 370.611 493.391C369.629 493.946 368.381 494.223 366.867 494.223ZM401.352 493.999L396.36 485.807L399.624 483.791L406.12 493.999H401.352ZM393.128 487.151V483.823H398.856V487.151H393.128ZM400.008 485.935L396.232 485.487L401.416 476.911H405.672L400.008 485.935ZM383.304 493.999H378.568L385.032 483.791L388.296 485.807L383.304 493.999ZM394.312 493.999H390.344V476.911H394.312V493.999ZM391.528 487.151H385.832V483.823H391.528V487.151ZM384.648 485.935L378.984 476.911H383.24L388.392 485.487L384.648 485.935ZM420.805 492.143V480.303H414.245L414.149 483.055C414.107 484.036 414.043 484.986 413.957 485.903C413.872 486.799 413.733 487.631 413.541 488.399C413.349 489.146 413.072 489.764 412.709 490.255C412.347 490.746 411.867 491.066 411.269 491.215L407.301 490.607C407.941 490.607 408.453 490.404 408.837 489.999C409.243 489.572 409.552 488.996 409.765 488.271C410 487.524 410.171 486.682 410.277 485.743C410.384 484.783 410.459 483.791 410.501 482.767L410.725 476.911H424.805V492.143H420.805ZM406.693 497.807V490.607H427.333V497.807H423.589V493.999H410.405V497.807H406.693ZM438.522 494.223C436.772 494.223 435.215 493.85 433.85 493.103C432.484 492.335 431.407 491.29 430.618 489.967C429.828 488.644 429.434 487.14 429.434 485.455C429.434 483.748 429.828 482.244 430.618 480.943C431.407 479.62 432.484 478.586 433.85 477.839C435.215 477.092 436.772 476.719 438.522 476.719C440.292 476.719 441.86 477.092 443.226 477.839C444.612 478.586 445.69 479.61 446.458 480.911C447.247 482.212 447.642 483.727 447.642 485.455C447.642 487.14 447.247 488.644 446.458 489.967C445.69 491.29 444.612 492.335 443.226 493.103C441.86 493.85 440.292 494.223 438.522 494.223ZM438.522 490.799C439.503 490.799 440.378 490.586 441.146 490.159C441.914 489.732 442.511 489.114 442.938 488.303C443.386 487.492 443.61 486.543 443.61 485.455C443.61 484.346 443.386 483.396 442.938 482.607C442.511 481.796 441.914 481.178 441.146 480.751C440.378 480.324 439.514 480.111 438.554 480.111C437.572 480.111 436.698 480.324 435.93 480.751C435.183 481.178 434.586 481.796 434.138 482.607C433.69 483.396 433.466 484.346 433.466 485.455C433.466 486.543 433.69 487.492 434.138 488.303C434.586 489.114 435.183 489.732 435.93 490.159C436.698 490.586 437.562 490.799 438.522 490.799ZM451.593 493.999V476.911H455.785L462.665 489.039H461.001L468.233 476.911H471.977L472.009 493.999H468.393V481.199L469.033 481.615L462.633 492.207H460.905L454.473 481.327L455.241 481.135V493.999H451.593ZM478.91 500.431C478.079 500.431 477.247 500.292 476.415 500.015C475.583 499.738 474.889 499.354 474.334 498.863L475.935 495.919C476.34 496.282 476.799 496.57 477.311 496.783C477.823 496.996 478.345 497.103 478.879 497.103C479.604 497.103 480.191 496.922 480.639 496.559C481.087 496.196 481.503 495.588 481.887 494.735L482.879 492.495L483.199 492.015L489.663 476.911H493.502L485.503 495.375C484.969 496.655 484.372 497.668 483.711 498.415C483.071 499.162 482.345 499.684 481.535 499.983C480.745 500.282 479.871 500.431 478.91 500.431ZM482.431 494.607L474.719 476.911H478.879L485.151 491.663L482.431 494.607ZM505.125 493.999V476.911H509.125V488.175L518.565 476.911H522.213V493.999H518.213V482.735L508.805 493.999H505.125ZM532.783 494.287C531.481 494.287 530.191 494.138 528.91 493.839C527.652 493.519 526.511 493.071 525.487 492.495L526.607 489.519C527.439 489.988 528.377 490.351 529.423 490.607C530.468 490.863 531.513 490.991 532.559 490.991C533.455 490.991 534.223 490.906 534.863 490.735C535.503 490.543 535.993 490.266 536.335 489.903C536.697 489.54 536.879 489.124 536.879 488.655C536.879 487.972 536.58 487.46 535.983 487.119C535.407 486.756 534.575 486.575 533.487 486.575H530.191V483.887H533.167C533.849 483.887 534.425 483.812 534.895 483.663C535.385 483.514 535.759 483.29 536.015 482.991C536.271 482.692 536.399 482.34 536.399 481.935C536.399 481.53 536.239 481.178 535.919 480.879C535.62 480.559 535.183 480.324 534.607 480.175C534.031 480.004 533.337 479.919 532.527 479.919C531.673 479.919 530.788 480.026 529.871 480.239C528.975 480.452 528.057 480.762 527.119 481.167L526.095 478.223C527.183 477.732 528.239 477.359 529.263 477.103C530.308 476.826 531.343 476.676 532.367 476.655C533.924 476.591 535.311 476.751 536.527 477.135C537.743 477.519 538.703 478.074 539.407 478.799C540.111 479.524 540.463 480.378 540.463 481.359C540.463 482.17 540.207 482.906 539.695 483.567C539.204 484.207 538.521 484.708 537.647 485.071C536.793 485.434 535.812 485.615 534.703 485.615L534.831 484.751C536.729 484.751 538.223 485.135 539.311 485.903C540.399 486.65 540.943 487.674 540.943 488.975C540.943 490.02 540.591 490.948 539.887 491.759C539.183 492.548 538.212 493.167 536.975 493.615C535.759 494.063 534.361 494.287 532.783 494.287ZM553.906 493.999V476.911H557.906V483.855H566.514V476.911H570.514V493.999H566.514V487.247H557.906V493.999H553.906ZM586.243 493.999V490.543L586.019 489.807V483.759C586.019 482.586 585.667 481.679 584.963 481.039C584.259 480.378 583.192 480.047 581.763 480.047C580.803 480.047 579.853 480.196 578.915 480.495C577.997 480.794 577.219 481.21 576.579 481.743L575.011 478.831C575.928 478.127 577.016 477.604 578.275 477.263C579.555 476.9 580.877 476.719 582.243 476.719C584.717 476.719 586.627 477.316 587.971 478.511C589.336 479.684 590.019 481.508 590.019 483.983V493.999H586.243ZM580.867 494.223C579.587 494.223 578.467 494.01 577.507 493.583C576.547 493.135 575.8 492.527 575.267 491.759C574.755 490.97 574.499 490.084 574.499 489.103C574.499 488.143 574.723 487.279 575.171 486.511C575.64 485.743 576.397 485.135 577.443 484.687C578.488 484.239 579.875 484.015 581.603 484.015H586.563V486.671H581.891C580.525 486.671 579.608 486.895 579.139 487.343C578.669 487.77 578.435 488.303 578.435 488.943C578.435 489.668 578.723 490.244 579.299 490.671C579.875 491.098 580.675 491.311 581.699 491.311C582.68 491.311 583.555 491.087 584.323 490.639C585.112 490.191 585.677 489.53 586.019 488.655L586.691 491.055C586.307 492.058 585.613 492.836 584.611 493.391C583.629 493.946 582.381 494.223 580.867 494.223ZM602.744 494.223C600.952 494.223 599.352 493.85 597.944 493.103C596.558 492.335 595.47 491.29 594.68 489.967C593.891 488.644 593.496 487.14 593.496 485.455C593.496 483.748 593.891 482.244 594.68 480.943C595.47 479.62 596.558 478.586 597.944 477.839C599.352 477.092 600.952 476.719 602.744 476.719C604.408 476.719 605.87 477.06 607.128 477.743C608.408 478.404 609.379 479.386 610.04 480.687L606.968 482.479C606.456 481.668 605.827 481.071 605.08 480.687C604.355 480.303 603.566 480.111 602.712 480.111C601.731 480.111 600.846 480.324 600.056 480.751C599.267 481.178 598.648 481.796 598.2 482.607C597.752 483.396 597.528 484.346 597.528 485.455C597.528 486.564 597.752 487.524 598.2 488.335C598.648 489.124 599.267 489.732 600.056 490.159C600.846 490.586 601.731 490.799 602.712 490.799C603.566 490.799 604.355 490.607 605.08 490.223C605.827 489.839 606.456 489.242 606.968 488.431L610.04 490.223C609.379 491.503 608.408 492.495 607.128 493.199C605.87 493.882 604.408 494.223 602.744 494.223Z" fill="#A1A19D"/>
<path d="M117.48 326V298H129.6C132.107 298 134.267 298.413 136.08 299.24C137.893 300.04 139.293 301.2 140.28 302.72C141.267 304.24 141.76 306.053 141.76 308.16C141.76 310.24 141.267 312.04 140.28 313.56C139.293 315.08 137.893 316.253 136.08 317.08C134.267 317.88 132.107 318.28 129.6 318.28H121.08L123.96 315.36V326H117.48ZM123.96 316.08L121.08 313H129.24C131.24 313 132.733 312.573 133.72 311.72C134.707 310.867 135.2 309.68 135.2 308.16C135.2 306.613 134.707 305.413 133.72 304.56C132.733 303.707 131.24 303.28 129.24 303.28H121.08L123.96 300.2V316.08ZM158.239 326V321.8L157.839 320.88V313.36C157.839 312.027 157.426 310.987 156.599 310.24C155.799 309.493 154.559 309.12 152.879 309.12C151.733 309.12 150.599 309.307 149.479 309.68C148.386 310.027 147.453 310.507 146.679 311.12L144.439 306.76C145.613 305.933 147.026 305.293 148.679 304.84C150.333 304.387 152.013 304.16 153.719 304.16C156.999 304.16 159.546 304.933 161.359 306.48C163.173 308.027 164.079 310.44 164.079 313.72V326H158.239ZM151.679 326.32C149.999 326.32 148.559 326.04 147.359 325.48C146.159 324.893 145.239 324.107 144.599 323.12C143.959 322.133 143.639 321.027 143.639 319.8C143.639 318.52 143.946 317.4 144.559 316.44C145.199 315.48 146.199 314.733 147.559 314.2C148.919 313.64 150.693 313.36 152.879 313.36H158.599V317H153.559C152.093 317 151.079 317.24 150.519 317.72C149.986 318.2 149.719 318.8 149.719 319.52C149.719 320.32 150.026 320.96 150.639 321.44C151.279 321.893 152.146 322.12 153.239 322.12C154.279 322.12 155.213 321.88 156.039 321.4C156.866 320.893 157.466 320.16 157.839 319.2L158.799 322.08C158.346 323.467 157.519 324.52 156.319 325.24C155.119 325.96 153.573 326.32 151.679 326.32ZM176.585 326.4C174.931 326.4 173.278 326.227 171.625 325.88C169.998 325.533 168.491 325.013 167.105 324.32L168.785 319.96C169.878 320.493 171.065 320.907 172.345 321.2C173.651 321.467 174.971 321.6 176.305 321.6C177.265 321.6 178.091 321.507 178.785 321.32C179.505 321.107 180.051 320.813 180.425 320.44C180.798 320.067 180.985 319.613 180.985 319.08C180.985 318.387 180.691 317.867 180.105 317.52C179.518 317.147 178.665 316.96 177.545 316.96H173.145V313.08H177.025C177.745 313.08 178.358 313 178.865 312.84C179.371 312.68 179.745 312.453 179.985 312.16C180.251 311.84 180.385 311.467 180.385 311.04C180.385 310.587 180.225 310.2 179.905 309.88C179.585 309.56 179.118 309.32 178.505 309.16C177.891 308.973 177.118 308.88 176.185 308.88C175.118 308.88 174.011 309.013 172.865 309.28C171.718 309.52 170.545 309.88 169.345 310.36L167.825 306.04C169.238 305.453 170.638 304.987 172.025 304.64C173.411 304.293 174.785 304.107 176.145 304.08C178.145 304.027 179.945 304.24 181.545 304.72C183.145 305.2 184.398 305.893 185.305 306.8C186.238 307.707 186.705 308.813 186.705 310.12C186.705 311.16 186.385 312.093 185.745 312.92C185.131 313.747 184.278 314.4 183.185 314.88C182.091 315.333 180.865 315.56 179.505 315.56L179.665 314.32C182.038 314.32 183.905 314.8 185.265 315.76C186.625 316.693 187.305 317.973 187.305 319.6C187.305 320.987 186.825 322.2 185.865 323.24C184.931 324.253 183.651 325.04 182.025 325.6C180.425 326.133 178.611 326.4 176.585 326.4ZM191.766 326V304.48H202.766C205.459 304.48 207.566 304.973 209.086 305.96C210.606 306.92 211.366 308.28 211.366 310.04C211.366 311.8 210.646 313.187 209.206 314.2C207.792 315.187 205.912 315.68 203.566 315.68L204.206 314.24C206.819 314.24 208.766 314.72 210.046 315.68C211.352 316.64 212.006 318.04 212.006 319.88C212.006 321.773 211.286 323.267 209.846 324.36C208.406 325.453 206.206 326 203.246 326H191.766ZM197.486 321.76H202.726C203.872 321.76 204.726 321.573 205.286 321.2C205.872 320.8 206.166 320.2 206.166 319.4C206.166 318.573 205.899 317.973 205.366 317.6C204.832 317.2 203.992 317 202.846 317H197.486V321.76ZM197.486 313.32H202.206C203.299 313.32 204.112 313.12 204.646 312.72C205.206 312.32 205.486 311.747 205.486 311C205.486 310.227 205.206 309.653 204.646 309.28C204.112 308.907 203.299 308.72 202.206 308.72H197.486V313.32ZM216.648 326V304.48H222.848V317.28L233.328 304.48H239.048V326H232.848V313.2L222.408 326H216.648ZM249.647 326V308.16L251.047 309.6H242.367V304.48H263.127V309.6H254.447L255.847 308.16V326H249.647ZM266.453 326V304.48H272.653V317.28L283.133 304.48H288.853V326H282.653V313.2L272.213 326H266.453ZM305.372 326.32C302.918 326.32 300.758 325.84 298.892 324.88C297.052 323.92 295.625 322.613 294.612 320.96C293.598 319.28 293.092 317.373 293.092 315.24C293.092 313.08 293.585 311.173 294.572 309.52C295.585 307.84 296.958 306.533 298.692 305.6C300.425 304.64 302.385 304.16 304.572 304.16C306.678 304.16 308.572 304.613 310.252 305.52C311.958 306.4 313.305 307.68 314.292 309.36C315.278 311.013 315.772 313 315.772 315.32C315.772 315.56 315.758 315.84 315.732 316.16C315.705 316.453 315.678 316.733 315.652 317H298.172V313.36H312.372L309.972 314.44C309.972 313.32 309.745 312.347 309.292 311.52C308.838 310.693 308.212 310.053 307.412 309.6C306.612 309.12 305.678 308.88 304.612 308.88C303.545 308.88 302.598 309.12 301.772 309.6C300.972 310.053 300.345 310.707 299.892 311.56C299.438 312.387 299.212 313.373 299.212 314.52V315.48C299.212 316.653 299.465 317.693 299.972 318.6C300.505 319.48 301.238 320.16 302.172 320.64C303.132 321.093 304.252 321.32 305.532 321.32C306.678 321.32 307.678 321.147 308.532 320.8C309.412 320.453 310.212 319.933 310.932 319.24L314.252 322.84C313.265 323.96 312.025 324.827 310.532 325.44C309.038 326.027 307.318 326.32 305.372 326.32ZM347.123 326L339.923 315.8L345.003 312.8L354.483 326H347.123ZM331.883 326V304.48H338.123V326H331.883ZM336.283 317.84V312.84H343.803V317.84H336.283ZM345.603 315.96L339.763 315.32L347.323 304.48H353.963L345.603 315.96ZM370.227 326.32C368.414 326.32 366.827 325.92 365.467 325.12C364.107 324.32 363.04 323.107 362.267 321.48C361.52 319.827 361.147 317.747 361.147 315.24C361.147 312.707 361.507 310.627 362.227 309C362.947 307.373 363.987 306.16 365.347 305.36C366.707 304.56 368.334 304.16 370.227 304.16C372.254 304.16 374.067 304.627 375.667 305.56C377.294 306.467 378.574 307.747 379.507 309.4C380.467 311.053 380.947 313 380.947 315.24C380.947 317.507 380.467 319.467 379.507 321.12C378.574 322.773 377.294 324.053 375.667 324.96C374.067 325.867 372.254 326.32 370.227 326.32ZM357.507 333.76V304.48H363.467V308.88L363.347 315.28L363.747 321.64V333.76H357.507ZM369.147 321.2C370.187 321.2 371.107 320.96 371.907 320.48C372.734 320 373.387 319.32 373.867 318.44C374.374 317.533 374.627 316.467 374.627 315.24C374.627 313.987 374.374 312.92 373.867 312.04C373.387 311.16 372.734 310.48 371.907 310C371.107 309.52 370.187 309.28 369.147 309.28C368.107 309.28 367.174 309.52 366.347 310C365.52 310.48 364.867 311.16 364.387 312.04C363.907 312.92 363.667 313.987 363.667 315.24C363.667 316.467 363.907 317.533 364.387 318.44C364.867 319.32 365.52 320 366.347 320.48C367.174 320.96 368.107 321.2 369.147 321.2ZM385.32 326V304.48H391.52V317.28L402 304.48H407.72V326H401.52V313.2L391.08 326H385.32ZM413.719 326V304.48H435.119V326H428.879V308.2L430.279 309.6H418.519L419.919 308.2V326H413.719ZM445.702 326V308.16L447.102 309.6H438.422V304.48H459.182V309.6H450.502L451.902 308.16V326H445.702ZM471.689 326.32C469.396 326.32 467.356 325.84 465.569 324.88C463.809 323.92 462.409 322.613 461.369 320.96C460.356 319.28 459.849 317.373 459.849 315.24C459.849 313.08 460.356 311.173 461.369 309.52C462.409 307.84 463.809 306.533 465.569 305.6C467.356 304.64 469.396 304.16 471.689 304.16C473.956 304.16 475.983 304.64 477.769 305.6C479.556 306.533 480.956 307.827 481.969 309.48C482.983 311.133 483.489 313.053 483.489 315.24C483.489 317.373 482.983 319.28 481.969 320.96C480.956 322.613 479.556 323.92 477.769 324.88C475.983 325.84 473.956 326.32 471.689 326.32ZM471.689 321.2C472.729 321.2 473.663 320.96 474.489 320.48C475.316 320 475.969 319.32 476.449 318.44C476.929 317.533 477.169 316.467 477.169 315.24C477.169 313.987 476.929 312.92 476.449 312.04C475.969 311.16 475.316 310.48 474.489 310C473.663 309.52 472.729 309.28 471.689 309.28C470.649 309.28 469.716 309.52 468.889 310C468.063 310.48 467.396 311.16 466.889 312.04C466.409 312.92 466.169 313.987 466.169 315.24C466.169 316.467 466.409 317.533 466.889 318.44C467.396 319.32 468.063 320 468.889 320.48C469.716 320.96 470.649 321.2 471.689 321.2ZM487.252 317.24V312.24H498.572V317.24H487.252ZM514.232 326.32C511.912 326.32 509.846 325.853 508.032 324.92C506.219 323.96 504.792 322.64 503.752 320.96C502.739 319.28 502.232 317.373 502.232 315.24C502.232 313.08 502.739 311.173 503.752 309.52C504.792 307.84 506.219 306.533 508.032 305.6C509.846 304.64 511.912 304.16 514.232 304.16C516.499 304.16 518.472 304.64 520.152 305.6C521.832 306.533 523.072 307.88 523.872 309.64L519.032 312.24C518.472 311.227 517.766 310.48 516.912 310C516.086 309.52 515.179 309.28 514.192 309.28C513.126 309.28 512.166 309.52 511.312 310C510.459 310.48 509.779 311.16 509.272 312.04C508.792 312.92 508.552 313.987 508.552 315.24C508.552 316.493 508.792 317.56 509.272 318.44C509.779 319.32 510.459 320 511.312 320.48C512.166 320.96 513.126 321.2 514.192 321.2C515.179 321.2 516.086 320.973 516.912 320.52C517.766 320.04 518.472 319.28 519.032 318.24L523.872 320.88C523.072 322.613 521.832 323.96 520.152 324.92C518.472 325.853 516.499 326.32 514.232 326.32ZM537.471 326.32C535.177 326.32 533.137 325.84 531.351 324.88C529.591 323.92 528.191 322.613 527.151 320.96C526.137 319.28 525.631 317.373 525.631 315.24C525.631 313.08 526.137 311.173 527.151 309.52C528.191 307.84 529.591 306.533 531.351 305.6C533.137 304.64 535.177 304.16 537.471 304.16C539.737 304.16 541.764 304.64 543.551 305.6C545.337 306.533 546.737 307.827 547.751 309.48C548.764 311.133 549.271 313.053 549.271 315.24C549.271 317.373 548.764 319.28 547.751 320.96C546.737 322.613 545.337 323.92 543.551 324.88C541.764 325.84 539.737 326.32 537.471 326.32ZM537.471 321.2C538.511 321.2 539.444 320.96 540.271 320.48C541.097 320 541.751 319.32 542.231 318.44C542.711 317.533 542.951 316.467 542.951 315.24C542.951 313.987 542.711 312.92 542.231 312.04C541.751 311.16 541.097 310.48 540.271 310C539.444 309.52 538.511 309.28 537.471 309.28C536.431 309.28 535.497 309.52 534.671 310C533.844 310.48 533.177 311.16 532.671 312.04C532.191 312.92 531.951 313.987 531.951 315.24C531.951 316.467 532.191 317.533 532.671 318.44C533.177 319.32 533.844 320 534.671 320.48C535.497 320.96 536.431 321.2 537.471 321.2ZM563.643 326.32C561.349 326.32 559.309 325.84 557.523 324.88C555.763 323.92 554.363 322.613 553.323 320.96C552.309 319.28 551.803 317.373 551.803 315.24C551.803 313.08 552.309 311.173 553.323 309.52C554.363 307.84 555.763 306.533 557.523 305.6C559.309 304.64 561.349 304.16 563.643 304.16C565.909 304.16 567.936 304.64 569.723 305.6C571.509 306.533 572.909 307.827 573.923 309.48C574.936 311.133 575.443 313.053 575.443 315.24C575.443 317.373 574.936 319.28 573.923 320.96C572.909 322.613 571.509 323.92 569.723 324.88C567.936 325.84 565.909 326.32 563.643 326.32ZM563.643 321.2C564.683 321.2 565.616 320.96 566.443 320.48C567.269 320 567.923 319.32 568.403 318.44C568.883 317.533 569.123 316.467 569.123 315.24C569.123 313.987 568.883 312.92 568.403 312.04C567.923 311.16 567.269 310.48 566.443 310C565.616 309.52 564.683 309.28 563.643 309.28C562.603 309.28 561.669 309.52 560.842 310C560.016 310.48 559.349 311.16 558.843 312.04C558.363 312.92 558.123 313.987 558.123 315.24C558.123 316.467 558.363 317.533 558.843 318.44C559.349 319.32 560.016 320 560.842 320.48C561.669 320.96 562.603 321.2 563.643 321.2ZM590.414 326.48C588.654 326.48 587.054 326.227 585.614 325.72C584.174 325.187 582.921 324.373 581.854 323.28C580.814 322.16 580.001 320.733 579.414 319C578.854 317.267 578.574 315.2 578.574 312.8C578.574 311.093 578.721 309.533 579.014 308.12C579.308 306.707 579.748 305.427 580.334 304.28C580.921 303.107 581.668 302.08 582.574 301.2C583.508 300.293 584.588 299.547 585.814 298.96C587.068 298.347 588.481 297.88 590.054 297.56L600.294 295.52L601.134 300.88L592.094 302.68C591.561 302.787 590.948 302.933 590.254 303.12C589.588 303.28 588.908 303.533 588.214 303.88C587.548 304.227 586.921 304.72 586.334 305.36C585.774 305.973 585.321 306.787 584.974 307.8C584.628 308.787 584.454 310.013 584.454 311.48C584.454 311.933 584.468 312.28 584.494 312.52C584.548 312.76 584.588 313.013 584.614 313.28C584.668 313.547 584.694 313.96 584.694 314.52L582.694 312.56C583.281 311.307 584.028 310.24 584.934 309.36C585.868 308.48 586.934 307.813 588.134 307.36C589.361 306.88 590.721 306.64 592.214 306.64C594.241 306.64 596.014 307.053 597.534 307.88C599.081 308.68 600.281 309.813 601.134 311.28C601.988 312.747 602.414 314.413 602.414 316.28C602.414 318.307 601.908 320.093 600.894 321.64C599.881 323.16 598.468 324.347 596.654 325.2C594.868 326.053 592.788 326.48 590.414 326.48ZM590.734 321.64C591.774 321.64 592.694 321.413 593.494 320.96C594.294 320.48 594.908 319.853 595.334 319.08C595.788 318.28 596.014 317.387 596.014 316.4C596.014 315.44 595.788 314.587 595.334 313.84C594.908 313.093 594.294 312.507 593.494 312.08C592.694 311.653 591.761 311.44 590.694 311.44C589.654 311.44 588.721 311.653 587.894 312.08C587.068 312.48 586.428 313.04 585.974 313.76C585.521 314.48 585.294 315.32 585.294 316.28C585.294 317.267 585.521 318.173 585.974 319C586.454 319.8 587.094 320.44 587.894 320.92C588.721 321.4 589.668 321.64 590.734 321.64ZM621.328 320.88L619.968 322.32V304.48H626.208V322.32L624.768 320.88H634.688L633.289 322.32V304.48H639.488V326H606.648V304.48H612.848V322.32L611.448 320.88H621.328ZM636.688 330.28V324.56L638.089 326H633.128V320.88H642.488V330.28H636.688ZM655.997 326.32C653.543 326.32 651.384 325.84 649.518 324.88C647.678 323.92 646.25 322.613 645.237 320.96C644.223 319.28 643.717 317.373 643.717 315.24C643.717 313.08 644.211 311.173 645.198 309.52C646.211 307.84 647.584 306.533 649.318 305.6C651.051 304.64 653.011 304.16 655.198 304.16C657.304 304.16 659.198 304.613 660.878 305.52C662.584 306.4 663.93 307.68 664.917 309.36C665.903 311.013 666.397 313 666.397 315.32C666.397 315.56 666.383 315.84 666.357 316.16C666.33 316.453 666.303 316.733 666.277 317H648.797V313.36H662.997L660.597 314.44C660.597 313.32 660.37 312.347 659.917 311.52C659.463 310.693 658.837 310.053 658.037 309.6C657.237 309.12 656.303 308.88 655.237 308.88C654.17 308.88 653.223 309.12 652.397 309.6C651.597 310.053 650.971 310.707 650.518 311.56C650.064 312.387 649.837 313.373 649.837 314.52V315.48C649.837 316.653 650.09 317.693 650.597 318.6C651.13 319.48 651.863 320.16 652.797 320.64C653.757 321.093 654.877 321.32 656.157 321.32C657.303 321.32 658.303 321.147 659.157 320.8C660.037 320.453 660.837 319.933 661.557 319.24L664.878 322.84C663.891 323.96 662.65 324.827 661.157 325.44C659.663 326.027 657.943 326.32 655.997 326.32ZM681.42 326.32C679.1 326.32 677.033 325.853 675.22 324.92C673.406 323.96 671.98 322.64 670.94 320.96C669.926 319.28 669.42 317.373 669.42 315.24C669.42 313.08 669.926 311.173 670.94 309.52C671.98 307.84 673.406 306.533 675.22 305.6C677.033 304.64 679.1 304.16 681.42 304.16C683.686 304.16 685.661 304.64 687.341 305.6C689.021 306.533 690.26 307.88 691.06 309.64L686.22 312.24C685.66 311.227 684.953 310.48 684.1 310C683.273 309.52 682.366 309.28 681.38 309.28C680.313 309.28 679.353 309.52 678.5 310C677.646 310.48 676.967 311.16 676.461 312.04C675.981 312.92 675.74 313.987 675.74 315.24C675.74 316.493 675.981 317.56 676.461 318.44C676.967 319.32 677.646 320 678.5 320.48C679.353 320.96 680.313 321.2 681.38 321.2C682.366 321.2 683.273 320.973 684.1 320.52C684.953 320.04 685.66 319.28 686.22 318.24L691.06 320.88C690.26 322.613 689.021 323.96 687.341 324.92C685.661 325.853 683.686 326.32 681.42 326.32ZM699.414 326V308.16L700.813 309.6H692.133V304.48H712.893V309.6H704.214L705.613 308.16V326H699.414ZM716.219 326V304.48H727.219C729.912 304.48 732.019 304.973 733.539 305.96C735.059 306.92 735.819 308.28 735.819 310.04C735.819 311.8 735.099 313.187 733.659 314.2C732.245 315.187 730.365 315.68 728.019 315.68L728.659 314.24C731.272 314.24 733.22 314.72 734.5 315.68C735.806 316.64 736.459 318.04 736.459 319.88C736.459 321.773 735.739 323.267 734.299 324.36C732.859 325.453 730.659 326 727.699 326H716.219ZM721.94 321.76H727.18C728.326 321.76 729.18 321.573 729.74 321.2C730.326 320.8 730.62 320.2 730.62 319.4C730.62 318.573 730.352 317.973 729.819 317.6C729.285 317.2 728.445 317 727.299 317H721.94V321.76ZM721.94 313.32H726.659C727.752 313.32 728.565 313.12 729.099 312.72C729.659 312.32 729.94 311.747 729.94 311C729.94 310.227 729.659 309.653 729.099 309.28C728.565 308.907 727.752 308.72 726.659 308.72H721.94V313.32ZM753.982 326V321.8L753.582 320.88V313.36C753.582 312.027 753.168 310.987 752.342 310.24C751.542 309.493 750.302 309.12 748.622 309.12C747.475 309.12 746.342 309.307 745.222 309.68C744.128 310.027 743.195 310.507 742.422 311.12L740.182 306.76C741.355 305.933 742.768 305.293 744.422 304.84C746.075 304.387 747.755 304.16 749.462 304.16C752.742 304.16 755.288 304.933 757.102 306.48C758.915 308.027 759.823 310.44 759.823 313.72V326H753.982ZM747.422 326.32C745.742 326.32 744.302 326.04 743.102 325.48C741.902 324.893 740.982 324.107 740.342 323.12C739.702 322.133 739.383 321.027 739.383 319.8C739.383 318.52 739.688 317.4 740.302 316.44C740.942 315.48 741.942 314.733 743.302 314.2C744.662 313.64 746.435 313.36 748.622 313.36H754.342V317H749.302C747.835 317 746.823 317.24 746.263 317.72C745.729 318.2 745.462 318.8 745.462 319.52C745.462 320.32 745.769 320.96 746.383 321.44C747.023 321.893 747.888 322.12 748.982 322.12C750.022 322.12 750.955 321.88 751.782 321.4C752.608 320.893 753.208 320.16 753.582 319.2L754.542 322.08C754.088 323.467 753.263 324.52 752.062 325.24C750.862 325.96 749.315 326.32 747.422 326.32Z" fill="#009D4A"/>
</g>
<path d="M1081 11.5H95C53.8548 11.5 20.5 44.8548 20.5 86V527C20.5 568.145 53.8548 601.5 95 601.5H1081C1122.15 601.5 1155.5 568.145 1155.5 527V86C1155.5 44.8548 1122.15 11.5 1081 11.5Z" stroke="#009D4A" stroke-width="3"/>
<defs>
<filter id="filter0_f_1789_174" x="-194.2" y="-233.2" width="1048.59" height="1080.56" filterUnits="userSpaceOnUse" color-interpolation-filters="sRGB">
<feFlood flood-opacity="0" result="BackgroundImageFix"/>
<feBlend mode="normal" in="SourceGraphic" in2="BackgroundImageFix" result="shape"/>
<feGaussianBlur stdDeviation="89.35" result="effect1_foregroundBlur_1789_174"/>
</filter>
</defs>
</svg>
