<svg width="1200" height="560" viewBox="0 0 1200 560" fill="none" xmlns="http://www.w3.org/2000/svg">
<g opacity="0.6">
<circle cx="1121" cy="1" r="1" fill="#D9D9D9" fill-opacity="0.59"/>
<circle cx="1121" cy="79" r="1" fill="#D9D9D9" fill-opacity="0.59"/>
<circle cx="1199" cy="1" r="1" fill="#D9D9D9" fill-opacity="0.59"/>
<circle cx="1199" cy="79" r="1" fill="#D9D9D9" fill-opacity="0.59"/>
<circle cx="1121" cy="321" r="1" fill="#D9D9D9" fill-opacity="0.59"/>
<circle cx="1121" cy="399" r="1" fill="#D9D9D9" fill-opacity="0.59"/>
<circle cx="1199" cy="321" r="1" fill="#D9D9D9" fill-opacity="0.59"/>
<circle cx="1199" cy="399" r="1" fill="#D9D9D9" fill-opacity="0.59"/>
<circle cx="1121" cy="161" r="1" fill="#D9D9D9" fill-opacity="0.59"/>
<circle cx="1121" cy="239" r="1" fill="#D9D9D9" fill-opacity="0.59"/>
<circle cx="1199" cy="161" r="1" fill="#D9D9D9" fill-opacity="0.59"/>
<circle cx="1199" cy="239" r="1" fill="#D9D9D9" fill-opacity="0.59"/>
<circle cx="1121" cy="481" r="1" fill="#D9D9D9" fill-opacity="0.59"/>
<circle cx="1121" cy="559" r="1" fill="#D9D9D9" fill-opacity="0.59"/>
<circle cx="1199" cy="481" r="1" fill="#D9D9D9" fill-opacity="0.59"/>
<circle cx="1199" cy="559" r="1" fill="#D9D9D9" fill-opacity="0.59"/>
<circle cx="481" cy="1" r="1" fill="#D9D9D9" fill-opacity="0.59"/>
<circle cx="481" cy="79" r="1" fill="#D9D9D9" fill-opacity="0.59"/>
<circle cx="559" cy="1" r="1" fill="#D9D9D9" fill-opacity="0.59"/>
<circle cx="559" cy="79" r="1" fill="#D9D9D9" fill-opacity="0.59"/>
<circle cx="481" cy="321" r="1" fill="#D9D9D9" fill-opacity="0.59"/>
<circle cx="481" cy="399" r="1" fill="#D9D9D9" fill-opacity="0.59"/>
<circle cx="559" cy="321" r="1" fill="#D9D9D9" fill-opacity="0.59"/>
<circle cx="559" cy="399" r="1" fill="#D9D9D9" fill-opacity="0.59"/>
<circle cx="481" cy="161" r="1" fill="#D9D9D9" fill-opacity="0.59"/>
<circle cx="481" cy="239" r="1" fill="#D9D9D9" fill-opacity="0.59"/>
<circle cx="559" cy="161" r="1" fill="#D9D9D9" fill-opacity="0.59"/>
<circle cx="559" cy="239" r="1" fill="#D9D9D9" fill-opacity="0.59"/>
<circle cx="481" cy="481" r="1" fill="#D9D9D9" fill-opacity="0.59"/>
<circle cx="481" cy="559" r="1" fill="#D9D9D9" fill-opacity="0.59"/>
<circle cx="559" cy="481" r="1" fill="#D9D9D9" fill-opacity="0.59"/>
<circle cx="559" cy="559" r="1" fill="#D9D9D9" fill-opacity="0.59"/>
<circle cx="801" cy="1" r="1" fill="#D9D9D9" fill-opacity="0.59"/>
<circle cx="801" cy="79" r="1" fill="#D9D9D9" fill-opacity="0.59"/>
<circle cx="879" cy="1" r="1" fill="#D9D9D9" fill-opacity="0.59"/>
<circle cx="879" cy="79" r="1" fill="#D9D9D9" fill-opacity="0.59"/>
<circle cx="801" cy="321" r="1" fill="#D9D9D9" fill-opacity="0.59"/>
<circle cx="801" cy="399" r="1" fill="#D9D9D9" fill-opacity="0.59"/>
<circle cx="879" cy="321" r="1" fill="#D9D9D9" fill-opacity="0.59"/>
<circle cx="879" cy="399" r="1" fill="#D9D9D9" fill-opacity="0.59"/>
<circle cx="801" cy="161" r="1" fill="#D9D9D9" fill-opacity="0.59"/>
<circle cx="801" cy="239" r="1" fill="#D9D9D9" fill-opacity="0.59"/>
<circle cx="879" cy="161" r="1" fill="#D9D9D9" fill-opacity="0.59"/>
<circle cx="879" cy="239" r="1" fill="#D9D9D9" fill-opacity="0.59"/>
<circle cx="801" cy="481" r="1" fill="#D9D9D9" fill-opacity="0.59"/>
<circle cx="801" cy="559" r="1" fill="#D9D9D9" fill-opacity="0.59"/>
<circle cx="879" cy="481" r="1" fill="#D9D9D9" fill-opacity="0.59"/>
<circle cx="879" cy="559" r="1" fill="#D9D9D9" fill-opacity="0.59"/>
<circle cx="161" cy="1" r="1" fill="#D9D9D9" fill-opacity="0.59"/>
<circle cx="161" cy="79" r="1" fill="#D9D9D9" fill-opacity="0.59"/>
<circle cx="239" cy="1" r="1" fill="#D9D9D9" fill-opacity="0.59"/>
<circle cx="239" cy="79" r="1" fill="#D9D9D9" fill-opacity="0.59"/>
<circle cx="161" cy="321" r="1" fill="#D9D9D9" fill-opacity="0.59"/>
<circle cx="161" cy="399" r="1" fill="#D9D9D9" fill-opacity="0.59"/>
<circle cx="239" cy="321" r="1" fill="#D9D9D9" fill-opacity="0.59"/>
<circle cx="239" cy="399" r="1" fill="#D9D9D9" fill-opacity="0.59"/>
<circle cx="161" cy="161" r="1" fill="#D9D9D9" fill-opacity="0.59"/>
<circle cx="161" cy="239" r="1" fill="#D9D9D9" fill-opacity="0.59"/>
<circle cx="239" cy="161" r="1" fill="#D9D9D9" fill-opacity="0.59"/>
<circle cx="239" cy="239" r="1" fill="#D9D9D9" fill-opacity="0.59"/>
<circle cx="161" cy="481" r="1" fill="#D9D9D9" fill-opacity="0.59"/>
<circle cx="161" cy="559" r="1" fill="#D9D9D9" fill-opacity="0.59"/>
<circle cx="239" cy="481" r="1" fill="#D9D9D9" fill-opacity="0.59"/>
<circle cx="239" cy="559" r="1" fill="#D9D9D9" fill-opacity="0.59"/>
<circle cx="961" cy="1" r="1" fill="#D9D9D9" fill-opacity="0.59"/>
<circle cx="961" cy="79" r="1" fill="#D9D9D9" fill-opacity="0.59"/>
<circle cx="1039" cy="1" r="1" fill="#D9D9D9" fill-opacity="0.59"/>
<circle cx="1039" cy="79" r="1" fill="#D9D9D9" fill-opacity="0.59"/>
<circle cx="961" cy="321" r="1" fill="#D9D9D9" fill-opacity="0.59"/>
<circle cx="961" cy="399" r="1" fill="#D9D9D9" fill-opacity="0.59"/>
<circle cx="1039" cy="321" r="1" fill="#D9D9D9" fill-opacity="0.59"/>
<circle cx="1039" cy="399" r="1" fill="#D9D9D9" fill-opacity="0.59"/>
<circle cx="961" cy="161" r="1" fill="#D9D9D9" fill-opacity="0.59"/>
<circle cx="961" cy="239" r="1" fill="#D9D9D9" fill-opacity="0.59"/>
<circle cx="1039" cy="161" r="1" fill="#D9D9D9" fill-opacity="0.59"/>
<circle cx="1039" cy="239" r="1" fill="#D9D9D9" fill-opacity="0.59"/>
<circle cx="961" cy="481" r="1" fill="#D9D9D9" fill-opacity="0.59"/>
<circle cx="961" cy="559" r="1" fill="#D9D9D9" fill-opacity="0.59"/>
<circle cx="1039" cy="481" r="1" fill="#D9D9D9" fill-opacity="0.59"/>
<circle cx="1039" cy="559" r="1" fill="#D9D9D9" fill-opacity="0.59"/>
<circle cx="321" cy="1" r="1" fill="#D9D9D9" fill-opacity="0.59"/>
<circle cx="321" cy="79" r="1" fill="#D9D9D9" fill-opacity="0.59"/>
<circle cx="399" cy="1" r="1" fill="#D9D9D9" fill-opacity="0.59"/>
<circle cx="399" cy="79" r="1" fill="#D9D9D9" fill-opacity="0.59"/>
<circle cx="321" cy="321" r="1" fill="#D9D9D9" fill-opacity="0.59"/>
<circle cx="321" cy="399" r="1" fill="#D9D9D9" fill-opacity="0.59"/>
<circle cx="399" cy="321" r="1" fill="#D9D9D9" fill-opacity="0.59"/>
<circle cx="399" cy="399" r="1" fill="#D9D9D9" fill-opacity="0.59"/>
<circle cx="321" cy="161" r="1" fill="#D9D9D9" fill-opacity="0.59"/>
<circle cx="321" cy="239" r="1" fill="#D9D9D9" fill-opacity="0.59"/>
<circle cx="399" cy="161" r="1" fill="#D9D9D9" fill-opacity="0.59"/>
<circle cx="399" cy="239" r="1" fill="#D9D9D9" fill-opacity="0.59"/>
<circle cx="321" cy="481" r="1" fill="#D9D9D9" fill-opacity="0.59"/>
<circle cx="321" cy="559" r="1" fill="#D9D9D9" fill-opacity="0.59"/>
<circle cx="399" cy="481" r="1" fill="#D9D9D9" fill-opacity="0.59"/>
<circle cx="399" cy="559" r="1" fill="#D9D9D9" fill-opacity="0.59"/>
<circle cx="641" cy="1" r="1" fill="#D9D9D9" fill-opacity="0.59"/>
<circle cx="641" cy="79" r="1" fill="#D9D9D9" fill-opacity="0.59"/>
<circle cx="719" cy="1" r="1" fill="#D9D9D9" fill-opacity="0.59"/>
<circle cx="719" cy="79" r="1" fill="#D9D9D9" fill-opacity="0.59"/>
<circle cx="641" cy="321" r="1" fill="#D9D9D9" fill-opacity="0.59"/>
<circle cx="641" cy="399" r="1" fill="#D9D9D9" fill-opacity="0.59"/>
<circle cx="719" cy="321" r="1" fill="#D9D9D9" fill-opacity="0.59"/>
<circle cx="719" cy="399" r="1" fill="#D9D9D9" fill-opacity="0.59"/>
<circle cx="641" cy="161" r="1" fill="#D9D9D9" fill-opacity="0.59"/>
<circle cx="641" cy="239" r="1" fill="#D9D9D9" fill-opacity="0.59"/>
<circle cx="719" cy="161" r="1" fill="#D9D9D9" fill-opacity="0.59"/>
<circle cx="719" cy="239" r="1" fill="#D9D9D9" fill-opacity="0.59"/>
<circle cx="641" cy="481" r="1" fill="#D9D9D9" fill-opacity="0.59"/>
<circle cx="641" cy="559" r="1" fill="#D9D9D9" fill-opacity="0.59"/>
<circle cx="719" cy="481" r="1" fill="#D9D9D9" fill-opacity="0.59"/>
<circle cx="719" cy="559" r="1" fill="#D9D9D9" fill-opacity="0.59"/>
<circle cx="1" cy="1" r="1" fill="#D9D9D9" fill-opacity="0.59"/>
<circle cx="1" cy="79" r="1" fill="#D9D9D9" fill-opacity="0.59"/>
<circle cx="79" cy="1" r="1" fill="#D9D9D9" fill-opacity="0.59"/>
<circle cx="79" cy="79" r="1" fill="#D9D9D9" fill-opacity="0.59"/>
<circle cx="1" cy="321" r="1" fill="#D9D9D9" fill-opacity="0.59"/>
<circle cx="1" cy="399" r="1" fill="#D9D9D9" fill-opacity="0.59"/>
<circle cx="79" cy="321" r="1" fill="#D9D9D9" fill-opacity="0.59"/>
<circle cx="79" cy="399" r="1" fill="#D9D9D9" fill-opacity="0.59"/>
<circle cx="1" cy="161" r="1" fill="#D9D9D9" fill-opacity="0.59"/>
<circle cx="1" cy="239" r="1" fill="#D9D9D9" fill-opacity="0.59"/>
<circle cx="79" cy="161" r="1" fill="#D9D9D9" fill-opacity="0.59"/>
<circle cx="79" cy="239" r="1" fill="#D9D9D9" fill-opacity="0.59"/>
<circle cx="1" cy="481" r="1" fill="#D9D9D9" fill-opacity="0.59"/>
<circle cx="1" cy="559" r="1" fill="#D9D9D9" fill-opacity="0.59"/>
<circle cx="79" cy="481" r="1" fill="#D9D9D9" fill-opacity="0.59"/>
<circle cx="79" cy="559" r="1" fill="#D9D9D9" fill-opacity="0.59"/>
</g>
</svg>
