<svg width="855" height="431" viewBox="0 0 855 431" fill="none" xmlns="http://www.w3.org/2000/svg">
<g clip-path="url(#clip0_1772_150)">
<rect width="855" height="431" rx="78" fill="#725252"/>
<rect x="-60" y="-7" width="915" height="438" fill="black"/>
<path d="M102.76 238.48C98.7867 238.48 95.68 237.373 93.44 235.16C91.2 232.947 90.08 229.787 90.08 225.68V210H96.56V225.44C96.56 228.107 97.1067 230.027 98.2 231.2C99.2933 232.373 100.827 232.96 102.8 232.96C104.773 232.96 106.307 232.373 107.4 231.2C108.493 230.027 109.04 228.107 109.04 225.44V210H115.44V225.68C115.44 229.787 114.32 232.947 112.08 235.16C109.84 237.373 106.733 238.48 102.76 238.48ZM135.403 238.48C133.217 238.48 131.177 238.12 129.283 237.4C127.417 236.68 125.79 235.667 124.403 234.36C123.043 233.053 121.977 231.52 121.203 229.76C120.457 228 120.083 226.08 120.083 224C120.083 221.92 120.457 220 121.203 218.24C121.977 216.48 123.057 214.947 124.443 213.64C125.83 212.333 127.457 211.32 129.323 210.6C131.19 209.88 133.217 209.52 135.403 209.52C137.617 209.52 139.643 209.88 141.483 210.6C143.35 211.32 144.963 212.333 146.323 213.64C147.71 214.92 148.79 216.44 149.563 218.2C150.337 219.96 150.723 221.893 150.723 224C150.723 226.08 150.337 228.013 149.563 229.8C148.79 231.56 147.71 233.093 146.323 234.4C144.963 235.68 143.35 236.68 141.483 237.4C139.643 238.12 137.617 238.48 135.403 238.48ZM144.563 244.44C143.47 244.44 142.43 244.32 141.443 244.08C140.483 243.84 139.523 243.453 138.563 242.92C137.63 242.387 136.643 241.667 135.603 240.76C134.59 239.853 133.483 238.733 132.283 237.4L139.083 235.68C139.803 236.667 140.47 237.453 141.083 238.04C141.697 238.627 142.283 239.04 142.843 239.28C143.43 239.52 144.043 239.64 144.683 239.64C146.39 239.64 147.91 238.947 149.243 237.56L152.123 241C150.23 243.293 147.71 244.44 144.563 244.44ZM135.403 232.96C136.657 232.96 137.803 232.747 138.843 232.32C139.91 231.893 140.843 231.28 141.643 230.48C142.443 229.68 143.057 228.733 143.483 227.64C143.937 226.52 144.163 225.307 144.163 224C144.163 222.667 143.937 221.453 143.483 220.36C143.057 219.267 142.443 218.32 141.643 217.52C140.843 216.72 139.91 216.107 138.843 215.68C137.803 215.253 136.657 215.04 135.403 215.04C134.15 215.04 132.99 215.253 131.923 215.68C130.857 216.107 129.923 216.72 129.123 217.52C128.35 218.32 127.737 219.267 127.283 220.36C126.857 221.453 126.643 222.667 126.643 224C126.643 225.307 126.857 226.52 127.283 227.64C127.737 228.733 128.35 229.68 129.123 230.48C129.923 231.28 130.857 231.893 131.923 232.32C132.99 232.747 134.15 232.96 135.403 232.96ZM151.523 238L164.003 210H170.403L182.923 238H176.123L165.883 213.28H168.443L158.163 238H151.523ZM157.763 232L159.483 227.08H173.883L175.643 232H157.763ZM198.837 238.48C196.677 238.48 194.664 238.133 192.797 237.44C190.957 236.72 189.357 235.707 187.997 234.4C186.637 233.093 185.571 231.56 184.797 229.8C184.051 228.04 183.677 226.107 183.677 224C183.677 221.893 184.051 219.96 184.797 218.2C185.571 216.44 186.637 214.907 187.997 213.6C189.384 212.293 190.997 211.293 192.837 210.6C194.677 209.88 196.691 209.52 198.877 209.52C201.304 209.52 203.491 209.947 205.437 210.8C207.411 211.627 209.064 212.853 210.397 214.48L206.237 218.32C205.277 217.227 204.211 216.413 203.037 215.88C201.864 215.32 200.584 215.04 199.197 215.04C197.891 215.04 196.691 215.253 195.597 215.68C194.504 216.107 193.557 216.72 192.757 217.52C191.957 218.32 191.331 219.267 190.877 220.36C190.451 221.453 190.237 222.667 190.237 224C190.237 225.333 190.451 226.547 190.877 227.64C191.331 228.733 191.957 229.68 192.757 230.48C193.557 231.28 194.504 231.893 195.597 232.32C196.691 232.747 197.891 232.96 199.197 232.96C200.584 232.96 201.864 232.693 203.037 232.16C204.211 231.6 205.277 230.76 206.237 229.64L210.397 233.48C209.064 235.107 207.411 236.347 205.437 237.2C203.491 238.053 201.291 238.48 198.837 238.48ZM224.271 238.48C221.978 238.48 219.924 237.92 218.111 236.8C216.298 235.653 214.871 234 213.831 231.84C212.791 229.68 212.271 227.067 212.271 224C212.271 220.933 212.791 218.32 213.831 216.16C214.871 214 216.298 212.36 218.111 211.24C219.924 210.093 221.978 209.52 224.271 209.52C226.591 209.52 228.644 210.093 230.431 211.24C232.244 212.36 233.671 214 234.711 216.16C235.751 218.32 236.271 220.933 236.271 224C236.271 227.067 235.751 229.68 234.711 231.84C233.671 234 232.244 235.653 230.431 236.8C228.644 237.92 226.591 238.48 224.271 238.48ZM224.271 233C225.364 233 226.311 232.693 227.111 232.08C227.938 231.467 228.578 230.493 229.031 229.16C229.511 227.827 229.751 226.107 229.751 224C229.751 221.893 229.511 220.173 229.031 218.84C228.578 217.507 227.938 216.533 227.111 215.92C226.311 215.307 225.364 215 224.271 215C223.204 215 222.258 215.307 221.431 215.92C220.631 216.533 219.991 217.507 219.511 218.84C219.058 220.173 218.831 221.893 218.831 224C218.831 226.107 219.058 227.827 219.511 229.16C219.991 230.493 220.631 231.467 221.431 232.08C222.258 232.693 223.204 233 224.271 233ZM247.179 222.6H260.619V227.8H247.179V222.6ZM247.659 238H241.179V210H262.339V215.2H247.659V238ZM273.686 238V226.56L275.166 230.48L262.846 210H269.726L279.166 225.72H275.206L284.686 210H291.046L278.726 230.48L280.166 226.56V238H273.686ZM303.9 238V233.8L303.5 232.88V225.36C303.5 224.027 303.087 222.987 302.26 222.24C301.46 221.493 300.22 221.12 298.54 221.12C297.394 221.12 296.26 221.307 295.14 221.68C294.047 222.027 293.114 222.507 292.34 223.12L290.1 218.76C291.274 217.933 292.687 217.293 294.34 216.84C295.994 216.387 297.674 216.16 299.38 216.16C302.66 216.16 305.207 216.933 307.02 218.48C308.834 220.027 309.74 222.44 309.74 225.72V238H303.9ZM297.34 238.32C295.66 238.32 294.22 238.04 293.02 237.48C291.82 236.893 290.9 236.107 290.26 235.12C289.62 234.133 289.3 233.027 289.3 231.8C289.3 230.52 289.607 229.4 290.22 228.44C290.86 227.48 291.86 226.733 293.22 226.2C294.58 225.64 296.354 225.36 298.54 225.36H304.26V229H299.22C297.754 229 296.74 229.24 296.18 229.72C295.647 230.2 295.38 230.8 295.38 231.52C295.38 232.32 295.687 232.96 296.3 233.44C296.94 233.893 297.807 234.12 298.9 234.12C299.94 234.12 300.874 233.88 301.7 233.4C302.527 232.893 303.127 232.16 303.5 231.2L304.46 234.08C304.007 235.467 303.18 236.52 301.98 237.24C300.78 237.96 299.234 238.32 297.34 238.32ZM315.828 238V210H327.948C330.454 210 332.614 210.413 334.428 211.24C336.241 212.04 337.641 213.2 338.628 214.72C339.614 216.24 340.108 218.053 340.108 220.16C340.108 222.24 339.614 224.04 338.628 225.56C337.641 227.08 336.241 228.253 334.428 229.08C332.614 229.88 330.454 230.28 327.948 230.28H319.428L322.308 227.36V238H315.828ZM322.308 228.08L319.428 225H327.588C329.588 225 331.081 224.573 332.068 223.72C333.054 222.867 333.548 221.68 333.548 220.16C333.548 218.613 333.054 217.413 332.068 216.56C331.081 215.707 329.588 215.28 327.588 215.28H319.428L322.308 212.2V228.08ZM350.734 222.6H364.174V227.8H350.734V222.6ZM351.214 238H344.734V210H365.894V215.2H351.214V238ZM380.572 238.48C378.012 238.48 375.786 237.947 373.892 236.88C372.026 235.813 370.586 234.253 369.572 232.2C368.559 230.147 368.052 227.613 368.052 224.6C368.052 221.373 368.652 218.64 369.852 216.4C371.079 214.16 372.759 212.453 374.892 211.28C377.052 210.107 379.532 209.52 382.332 209.52C383.826 209.52 385.252 209.68 386.612 210C387.972 210.32 389.146 210.8 390.132 211.44L387.732 216.2C386.959 215.667 386.132 215.307 385.252 215.12C384.372 214.907 383.452 214.8 382.492 214.8C380.066 214.8 378.146 215.533 376.732 217C375.319 218.467 374.612 220.64 374.612 223.52C374.612 224 374.612 224.533 374.612 225.12C374.639 225.707 374.719 226.293 374.852 226.88L373.052 225.2C373.559 224.16 374.212 223.293 375.012 222.6C375.812 221.88 376.759 221.347 377.852 221C378.972 220.627 380.199 220.44 381.532 220.44C383.346 220.44 384.972 220.8 386.412 221.52C387.852 222.24 388.999 223.253 389.852 224.56C390.732 225.867 391.172 227.4 391.172 229.16C391.172 231.053 390.692 232.707 389.732 234.12C388.799 235.507 387.532 236.587 385.932 237.36C384.359 238.107 382.572 238.48 380.572 238.48ZM380.212 233.64C381.119 233.64 381.919 233.48 382.612 233.16C383.332 232.813 383.892 232.32 384.292 231.68C384.692 231.04 384.892 230.307 384.892 229.48C384.892 228.2 384.452 227.187 383.572 226.44C382.719 225.667 381.572 225.28 380.132 225.28C379.172 225.28 378.332 225.467 377.612 225.84C376.892 226.187 376.319 226.68 375.892 227.32C375.492 227.933 375.292 228.653 375.292 229.48C375.292 230.28 375.492 231 375.892 231.64C376.292 232.253 376.852 232.747 377.572 233.12C378.292 233.467 379.172 233.64 380.212 233.64ZM391.961 241.6V238H411.961V241.6H391.961ZM413.8 238L425.84 221.4V226.12L414.32 210H421.68L429.64 221.24L426.56 221.28L434.4 210H441.44L430 225.84V221.2L442.12 238H434.64L426.4 226.12H429.36L421.24 238H413.8ZM458.059 238.48C455.845 238.48 453.805 238.133 451.939 237.44C450.099 236.72 448.485 235.707 447.099 234.4C445.739 233.093 444.672 231.56 443.899 229.8C443.152 228.04 442.779 226.107 442.779 224C442.779 221.893 443.152 219.96 443.899 218.2C444.672 216.44 445.752 214.907 447.139 213.6C448.525 212.293 450.152 211.293 452.019 210.6C453.885 209.88 455.939 209.52 458.179 209.52C460.659 209.52 462.885 209.933 464.859 210.76C466.859 211.587 468.539 212.787 469.899 214.36L465.739 218.2C464.725 217.133 463.619 216.347 462.419 215.84C461.219 215.307 459.912 215.04 458.499 215.04C457.139 215.04 455.899 215.253 454.779 215.68C453.659 216.107 452.685 216.72 451.859 217.52C451.059 218.32 450.432 219.267 449.979 220.36C449.552 221.453 449.339 222.667 449.339 224C449.339 225.307 449.552 226.507 449.979 227.6C450.432 228.693 451.059 229.653 451.859 230.48C452.685 231.28 453.645 231.893 454.739 232.32C455.859 232.747 457.085 232.96 458.419 232.96C459.699 232.96 460.939 232.76 462.139 232.36C463.365 231.933 464.552 231.227 465.699 230.24L469.379 234.92C467.859 236.067 466.085 236.947 464.059 237.56C462.059 238.173 460.059 238.48 458.059 238.48ZM463.459 234.08V223.56H469.379V234.92L463.459 234.08ZM483.798 238L471.718 210H478.718L489.278 234.8H485.158L495.878 210H502.318L490.198 238H483.798ZM504.656 238V210H517.376C520.416 210 523.096 210.587 525.416 211.76C527.736 212.907 529.549 214.52 530.856 216.6C532.163 218.68 532.816 221.147 532.816 224C532.816 226.827 532.163 229.293 530.856 231.4C529.549 233.48 527.736 235.107 525.416 236.28C523.096 237.427 520.416 238 517.376 238H504.656ZM511.136 232.68H517.056C518.923 232.68 520.536 232.333 521.896 231.64C523.283 230.92 524.349 229.907 525.096 228.6C525.869 227.293 526.256 225.76 526.256 224C526.256 222.213 525.869 220.68 525.096 219.4C524.349 218.093 523.283 217.093 521.896 216.4C520.536 215.68 518.923 215.32 517.056 215.32H511.136V232.68ZM547.503 238.32C545.209 238.32 543.169 237.84 541.383 236.88C539.623 235.92 538.223 234.613 537.183 232.96C536.169 231.28 535.663 229.373 535.663 227.24C535.663 225.08 536.169 223.173 537.183 221.52C538.223 219.84 539.623 218.533 541.383 217.6C543.169 216.64 545.209 216.16 547.503 216.16C549.769 216.16 551.796 216.64 553.583 217.6C555.369 218.533 556.769 219.827 557.783 221.48C558.796 223.133 559.303 225.053 559.303 227.24C559.303 229.373 558.796 231.28 557.783 232.96C556.769 234.613 555.369 235.92 553.583 236.88C551.796 237.84 549.769 238.32 547.503 238.32ZM547.503 233.2C548.543 233.2 549.476 232.96 550.303 232.48C551.129 232 551.783 231.32 552.263 230.44C552.743 229.533 552.983 228.467 552.983 227.24C552.983 225.987 552.743 224.92 552.263 224.04C551.783 223.16 551.129 222.48 550.303 222C549.476 221.52 548.543 221.28 547.503 221.28C546.463 221.28 545.529 221.52 544.703 222C543.876 222.48 543.209 223.16 542.703 224.04C542.223 224.92 541.983 225.987 541.983 227.24C541.983 228.467 542.223 229.533 542.703 230.44C543.209 231.32 543.876 232 544.703 232.48C545.529 232.96 546.463 233.2 547.503 233.2ZM564.234 238V216C564.234 213.573 564.954 211.64 566.394 210.2C567.834 208.733 569.887 208 572.554 208C573.46 208 574.327 208.093 575.154 208.28C576.007 208.467 576.727 208.76 577.314 209.16L575.674 213.68C575.327 213.44 574.94 213.253 574.514 213.12C574.087 212.987 573.634 212.92 573.154 212.92C572.247 212.92 571.54 213.187 571.034 213.72C570.554 214.227 570.314 215 570.314 216.04V218.04L570.474 220.72V238H564.234ZM560.914 221.76V216.96H575.834V221.76H560.914ZM583.548 238L594.828 212.48L596.508 215.28H581.428L584.308 212.24V219.84H578.548V210H600.988V214.2L590.588 238H583.548ZM599.531 238L612.011 210H618.411L630.931 238H624.131L613.891 213.28H616.451L606.171 238H599.531ZM605.771 232L607.491 227.08H621.891L623.651 232H605.771ZM640.44 238.32C638.6 238.32 636.827 238.107 635.12 237.68C633.44 237.227 632.107 236.667 631.12 236L633.2 231.52C634.187 232.133 635.347 232.64 636.68 233.04C638.04 233.413 639.374 233.6 640.68 233.6C642.12 233.6 643.134 233.427 643.72 233.08C644.334 232.733 644.64 232.253 644.64 231.64C644.64 231.133 644.4 230.76 643.92 230.52C643.467 230.253 642.854 230.053 642.08 229.92C641.307 229.787 640.454 229.653 639.52 229.52C638.614 229.387 637.694 229.213 636.76 229C635.827 228.76 634.974 228.413 634.2 227.96C633.427 227.507 632.8 226.893 632.32 226.12C631.867 225.347 631.64 224.347 631.64 223.12C631.64 221.76 632.027 220.56 632.8 219.52C633.6 218.48 634.747 217.667 636.24 217.08C637.734 216.467 639.52 216.16 641.6 216.16C643.067 216.16 644.56 216.32 646.08 216.64C647.6 216.96 648.867 217.427 649.88 218.04L647.8 222.48C646.76 221.867 645.707 221.453 644.64 221.24C643.6 221 642.587 220.88 641.6 220.88C640.214 220.88 639.2 221.067 638.56 221.44C637.92 221.813 637.6 222.293 637.6 222.88C637.6 223.413 637.827 223.813 638.28 224.08C638.76 224.347 639.387 224.56 640.16 224.72C640.934 224.88 641.774 225.027 642.68 225.16C643.614 225.267 644.547 225.44 645.48 225.68C646.414 225.92 647.254 226.267 648 226.72C648.774 227.147 649.4 227.747 649.88 228.52C650.36 229.267 650.6 230.253 650.6 231.48C650.6 232.813 650.2 234 649.4 235.04C648.6 236.053 647.44 236.853 645.92 237.44C644.427 238.027 642.6 238.32 640.44 238.32ZM656.81 238.32C655.744 238.32 654.824 237.96 654.05 237.24C653.304 236.493 652.93 235.547 652.93 234.4C652.93 233.253 653.304 232.333 654.05 231.64C654.824 230.92 655.744 230.56 656.81 230.56C657.904 230.56 658.824 230.92 659.57 231.64C660.317 232.333 660.69 233.253 660.69 234.4C660.69 235.547 660.317 236.493 659.57 237.24C658.824 237.96 657.904 238.32 656.81 238.32ZM667.279 238.32C666.212 238.32 665.292 237.96 664.519 237.24C663.772 236.493 663.399 235.547 663.399 234.4C663.399 233.253 663.772 232.333 664.519 231.64C665.292 230.92 666.212 230.56 667.279 230.56C668.372 230.56 669.292 230.92 670.039 231.64C670.786 232.333 671.159 233.253 671.159 234.4C671.159 235.547 670.786 236.493 670.039 237.24C669.292 237.96 668.372 238.32 667.279 238.32ZM677.748 238.32C676.681 238.32 675.761 237.96 674.988 237.24C674.241 236.493 673.868 235.547 673.868 234.4C673.868 233.253 674.241 232.333 674.988 231.64C675.761 230.92 676.681 230.56 677.748 230.56C678.841 230.56 679.761 230.92 680.508 231.64C681.254 232.333 681.628 233.253 681.628 234.4C681.628 235.547 681.254 236.493 680.508 237.24C679.761 237.96 678.841 238.32 677.748 238.32Z" fill="#244ED8"/>
<rect x="87" y="62" width="476" height="97" rx="48.5" fill="#1C1917"/>
<path d="M121.776 123V100.6H123.728L133.968 118.072H132.944L143.088 100.6H145.04V123H142.768V104.152H143.312L133.968 120.152H132.848L123.44 104.152H124.048V123H121.776ZM162.477 123V119.288L162.381 118.68V112.472C162.381 111.043 161.975 109.944 161.165 109.176C160.375 108.408 159.191 108.024 157.613 108.024C156.525 108.024 155.49 108.205 154.509 108.568C153.527 108.931 152.695 109.411 152.013 110.008L150.989 108.312C151.842 107.587 152.866 107.032 154.061 106.648C155.255 106.243 156.514 106.04 157.837 106.04C160.013 106.04 161.687 106.584 162.861 107.672C164.055 108.739 164.653 110.371 164.653 112.568V123H162.477ZM156.685 123.16C155.426 123.16 154.327 122.957 153.389 122.552C152.471 122.125 151.767 121.549 151.277 120.824C150.786 120.077 150.541 119.224 150.541 118.264C150.541 117.389 150.743 116.6 151.149 115.896C151.575 115.171 152.258 114.595 153.197 114.168C154.157 113.72 155.437 113.496 157.036 113.496H162.829V115.192H157.101C155.479 115.192 154.349 115.48 153.709 116.056C153.09 116.632 152.781 117.347 152.781 118.2C152.781 119.16 153.154 119.928 153.901 120.504C154.647 121.08 155.693 121.368 157.036 121.368C158.317 121.368 159.415 121.08 160.333 120.504C161.271 119.907 161.954 119.053 162.381 117.944L162.893 119.512C162.466 120.621 161.719 121.507 160.653 122.168C159.607 122.829 158.285 123.16 156.685 123.16ZM179.373 123.16C177.922 123.16 176.61 122.829 175.437 122.168C174.263 121.485 173.325 120.515 172.621 119.256C171.938 117.976 171.597 116.419 171.597 114.584C171.597 112.749 171.938 111.203 172.621 109.944C173.303 108.664 174.231 107.693 175.405 107.032C176.578 106.371 177.901 106.04 179.373 106.04C180.973 106.04 182.402 106.403 183.661 107.128C184.941 107.832 185.943 108.835 186.669 110.136C187.394 111.416 187.757 112.899 187.757 114.584C187.757 116.291 187.394 117.784 186.669 119.064C185.943 120.344 184.941 121.347 183.661 122.072C182.402 122.797 180.973 123.16 179.373 123.16ZM170.701 129.208V106.2H172.877V111.256L172.653 114.616L172.973 118.008V129.208H170.701ZM179.213 121.144C180.407 121.144 181.474 120.877 182.413 120.344C183.351 119.789 184.098 119.021 184.653 118.04C185.207 117.037 185.485 115.885 185.485 114.584C185.485 113.283 185.207 112.141 184.653 111.16C184.098 110.179 183.351 109.411 182.413 108.856C181.474 108.301 180.407 108.024 179.213 108.024C178.018 108.024 176.941 108.301 175.981 108.856C175.042 109.411 174.295 110.179 173.741 111.16C173.207 112.141 172.941 113.283 172.941 114.584C172.941 115.885 173.207 117.037 173.741 118.04C174.295 119.021 175.042 119.789 175.981 120.344C176.941 120.877 178.018 121.144 179.213 121.144ZM204.958 123L198.046 114.68L199.934 113.56L207.646 123H204.958ZM192.638 123V106.2H194.91V123H192.638ZM194.206 115.512V113.56H199.614V115.512H194.206ZM200.126 114.84L198.014 114.52L204.702 106.2H207.166L200.126 114.84ZM217.838 123.16C216.089 123.16 214.553 122.797 213.23 122.072C211.908 121.325 210.873 120.312 210.126 119.032C209.38 117.731 209.006 116.248 209.006 114.584C209.006 112.92 209.358 111.448 210.062 110.168C210.788 108.888 211.769 107.885 213.006 107.16C214.265 106.413 215.673 106.04 217.23 106.04C218.809 106.04 220.206 106.403 221.422 107.128C222.66 107.832 223.63 108.835 224.334 110.136C225.038 111.416 225.39 112.899 225.39 114.584C225.39 114.691 225.38 114.808 225.358 114.936C225.358 115.043 225.358 115.16 225.358 115.288H210.734V113.592H224.142L223.246 114.264C223.246 113.048 222.98 111.971 222.446 111.032C221.934 110.072 221.23 109.325 220.334 108.792C219.438 108.259 218.404 107.992 217.23 107.992C216.078 107.992 215.044 108.259 214.126 108.792C213.209 109.325 212.494 110.072 211.982 111.032C211.47 111.992 211.214 113.091 211.214 114.328V114.68C211.214 115.96 211.492 117.091 212.046 118.072C212.622 119.032 213.412 119.789 214.414 120.344C215.438 120.877 216.601 121.144 217.902 121.144C218.926 121.144 219.876 120.963 220.75 120.6C221.646 120.237 222.414 119.683 223.054 118.936L224.334 120.408C223.588 121.304 222.649 121.987 221.518 122.456C220.409 122.925 219.182 123.16 217.838 123.16ZM232.87 123V107.576L233.446 108.184H226.502V106.2H241.51V108.184H234.566L235.142 107.576V123H232.87ZM244.795 123V106.2H247.067V119.544L258.299 106.2H260.315V123H258.043V109.624L246.843 123H244.795ZM266.826 123V106.2H269.098V113.624H279.69V106.2H281.962V123H279.69V115.576H269.098V123H266.826ZM288.42 123V106.2H300.324V108.184H290.116L290.692 107.608V123H288.42ZM311.982 123V106.2H314.254V119.544L325.486 106.2H327.502V123H325.23V109.624L314.03 123H311.982ZM344.724 115.32V113.592H354.484V115.32H344.724ZM346.964 106.04C348.671 106.04 350.196 106.413 351.54 107.16C352.884 107.885 353.94 108.899 354.708 110.2C355.498 111.48 355.892 112.941 355.892 114.584C355.892 116.227 355.498 117.699 354.708 119C353.94 120.301 352.884 121.325 351.54 122.072C350.196 122.819 348.671 123.192 346.964 123.192C345.578 123.192 344.287 122.979 343.092 122.552C341.919 122.104 340.927 121.464 340.116 120.632L341.46 119.288C342.186 119.971 343.007 120.483 343.924 120.824C344.842 121.144 345.823 121.304 346.868 121.304C348.191 121.304 349.364 121.016 350.388 120.44C351.434 119.843 352.255 119.043 352.852 118.04C353.45 117.016 353.748 115.864 353.748 114.584C353.748 113.304 353.45 112.163 352.852 111.16C352.255 110.136 351.434 109.336 350.388 108.76C349.364 108.184 348.191 107.896 346.868 107.896C345.823 107.896 344.842 108.067 343.924 108.408C343.007 108.728 342.186 109.229 341.46 109.912L340.116 108.6C340.927 107.747 341.919 107.107 343.092 106.68C344.287 106.253 345.578 106.04 346.964 106.04ZM372.99 123L366.078 114.68L367.966 113.56L375.678 123H372.99ZM360.67 123V106.2H362.942V123H360.67ZM362.238 115.512V113.56H367.646V115.512H362.238ZM368.158 114.84L366.046 114.52L372.734 106.2H375.198L368.158 114.84ZM385.582 123.16C383.96 123.16 382.499 122.797 381.198 122.072C379.918 121.325 378.904 120.312 378.158 119.032C377.411 117.731 377.038 116.248 377.038 114.584C377.038 112.899 377.411 111.416 378.158 110.136C378.904 108.856 379.918 107.853 381.198 107.128C382.478 106.403 383.939 106.04 385.582 106.04C387.246 106.04 388.718 106.403 389.998 107.128C391.299 107.853 392.312 108.856 393.038 110.136C393.784 111.416 394.158 112.899 394.158 114.584C394.158 116.248 393.784 117.731 393.038 119.032C392.312 120.312 391.299 121.325 389.998 122.072C388.696 122.797 387.224 123.16 385.582 123.16ZM385.582 121.144C386.798 121.144 387.875 120.877 388.814 120.344C389.752 119.789 390.488 119.021 391.022 118.04C391.576 117.037 391.854 115.885 391.854 114.584C391.854 113.261 391.576 112.109 391.022 111.128C390.488 110.147 389.752 109.389 388.814 108.856C387.875 108.301 386.808 108.024 385.614 108.024C384.419 108.024 383.352 108.301 382.414 108.856C381.475 109.389 380.728 110.147 380.174 111.128C379.619 112.109 379.342 113.261 379.342 114.584C379.342 115.885 379.619 117.037 380.174 118.04C380.728 119.021 381.475 119.789 382.414 120.344C383.352 120.877 384.408 121.144 385.582 121.144ZM406.053 123.16C404.389 123.16 402.896 122.797 401.573 122.072C400.272 121.325 399.248 120.312 398.501 119.032C397.755 117.731 397.381 116.248 397.381 114.584C397.381 112.899 397.755 111.416 398.501 110.136C399.248 108.856 400.272 107.853 401.573 107.128C402.896 106.403 404.389 106.04 406.053 106.04C407.483 106.04 408.773 106.317 409.925 106.872C411.077 107.427 411.984 108.259 412.645 109.368L410.949 110.52C410.373 109.667 409.659 109.037 408.805 108.632C407.952 108.227 407.024 108.024 406.021 108.024C404.827 108.024 403.749 108.301 402.789 108.856C401.829 109.389 401.072 110.147 400.517 111.128C399.963 112.109 399.685 113.261 399.685 114.584C399.685 115.907 399.963 117.059 400.517 118.04C401.072 119.021 401.829 119.789 402.789 120.344C403.749 120.877 404.827 121.144 406.021 121.144C407.024 121.144 407.952 120.941 408.805 120.536C409.659 120.131 410.373 119.512 410.949 118.68L412.645 119.832C411.984 120.92 411.077 121.752 409.925 122.328C408.773 122.883 407.483 123.16 406.053 123.16ZM417.045 123V106.2H419.317V119.544L430.549 106.2H432.565V123H430.293V109.624L419.093 123H417.045ZM446.116 123.16C444.452 123.16 442.958 122.797 441.636 122.072C440.334 121.325 439.31 120.312 438.564 119.032C437.817 117.731 437.444 116.248 437.444 114.584C437.444 112.899 437.817 111.416 438.564 110.136C439.31 108.856 440.334 107.853 441.636 107.128C442.958 106.403 444.452 106.04 446.116 106.04C447.545 106.04 448.836 106.317 449.988 106.872C451.14 107.427 452.046 108.259 452.708 109.368L451.012 110.52C450.436 109.667 449.721 109.037 448.868 108.632C448.014 108.227 447.086 108.024 446.084 108.024C444.889 108.024 443.812 108.301 442.852 108.856C441.892 109.389 441.134 110.147 440.58 111.128C440.025 112.109 439.748 113.261 439.748 114.584C439.748 115.907 440.025 117.059 440.58 118.04C441.134 119.021 441.892 119.789 442.852 120.344C443.812 120.877 444.889 121.144 446.084 121.144C447.086 121.144 448.014 120.941 448.868 120.536C449.721 120.131 450.436 119.512 451.012 118.68L452.708 119.832C452.046 120.92 451.14 121.752 449.988 122.328C448.836 122.883 447.545 123.16 446.116 123.16ZM459.995 123V107.576L460.571 108.184H453.627V106.2H468.635V108.184H461.691L462.267 107.576V123H459.995ZM478.338 123.16C476.589 123.16 475.053 122.797 473.73 122.072C472.408 121.325 471.373 120.312 470.626 119.032C469.88 117.731 469.506 116.248 469.506 114.584C469.506 112.92 469.858 111.448 470.562 110.168C471.288 108.888 472.269 107.885 473.506 107.16C474.765 106.413 476.173 106.04 477.73 106.04C479.309 106.04 480.706 106.403 481.922 107.128C483.16 107.832 484.13 108.835 484.834 110.136C485.538 111.416 485.89 112.899 485.89 114.584C485.89 114.691 485.88 114.808 485.858 114.936C485.858 115.043 485.858 115.16 485.858 115.288H471.234V113.592H484.642L483.746 114.264C483.746 113.048 483.48 111.971 482.946 111.032C482.434 110.072 481.73 109.325 480.834 108.792C479.938 108.259 478.904 107.992 477.73 107.992C476.578 107.992 475.544 108.259 474.626 108.792C473.709 109.325 472.994 110.072 472.482 111.032C471.97 111.992 471.714 113.091 471.714 114.328V114.68C471.714 115.96 471.992 117.091 472.546 118.072C473.122 119.032 473.912 119.789 474.914 120.344C475.938 120.877 477.101 121.144 478.402 121.144C479.426 121.144 480.376 120.963 481.25 120.6C482.146 120.237 482.914 119.683 483.554 118.936L484.834 120.408C484.088 121.304 483.149 121.987 482.018 122.456C480.909 122.925 479.682 123.16 478.338 123.16ZM490.92 123V106.2H493.224L500.84 119.096H499.88L507.624 106.2H509.736V123H507.656V108.792L508.072 108.984L500.84 120.952H499.816L492.52 108.856L493 108.76V123H490.92ZM526.633 123V119.288L526.537 118.68V112.472C526.537 111.043 526.131 109.944 525.321 109.176C524.531 108.408 523.347 108.024 521.769 108.024C520.681 108.024 519.646 108.205 518.665 108.568C517.683 108.931 516.851 109.411 516.169 110.008L515.145 108.312C515.998 107.587 517.022 107.032 518.217 106.648C519.411 106.243 520.67 106.04 521.993 106.04C524.169 106.04 525.843 106.584 527.017 107.672C528.211 108.739 528.809 110.371 528.809 112.568V123H526.633ZM520.841 123.16C519.582 123.16 518.483 122.957 517.545 122.552C516.627 122.125 515.923 121.549 515.433 120.824C514.942 120.077 514.697 119.224 514.697 118.264C514.697 117.389 514.899 116.6 515.305 115.896C515.731 115.171 516.414 114.595 517.353 114.168C518.313 113.72 519.593 113.496 521.193 113.496H526.985V115.192H521.257C519.635 115.192 518.505 115.48 517.865 116.056C517.246 116.632 516.937 117.347 516.937 118.2C516.937 119.16 517.31 119.928 518.057 120.504C518.803 121.08 519.849 121.368 521.193 121.368C522.473 121.368 523.571 121.08 524.489 120.504C525.427 119.907 526.11 119.053 526.537 117.944L527.049 119.512C526.622 120.621 525.875 121.507 524.809 122.168C523.763 122.829 522.441 123.16 520.841 123.16Z" fill="#244ED8"/>
<path d="M87 350L108.154 320.845L113.923 341.67L132 311" stroke="#009D4A" stroke-width="4" stroke-linecap="round"/>
<path d="M157.248 349L170.784 318.376L172.8 321.736H154.704L158.16 318.088V327.208H151.248V315.4H178.176V320.44L165.696 349H157.248ZM193.446 314.824C196.55 314.824 199.222 315.464 201.462 316.744C203.702 318.024 205.43 319.896 206.646 322.36C207.862 324.792 208.47 327.832 208.47 331.48C208.47 335.352 207.734 338.632 206.262 341.32C204.822 344.008 202.822 346.056 200.262 347.464C197.702 348.872 194.726 349.576 191.334 349.576C189.574 349.576 187.878 349.384 186.246 349C184.614 348.616 183.206 348.04 182.022 347.272L184.902 341.56C185.83 342.2 186.822 342.648 187.878 342.904C188.934 343.128 190.038 343.24 191.19 343.24C194.07 343.24 196.358 342.36 198.054 340.6C199.782 338.84 200.646 336.232 200.646 332.776C200.646 332.2 200.63 331.56 200.598 330.856C200.566 330.152 200.486 329.448 200.358 328.744L202.47 330.76C201.926 332.008 201.158 333.064 200.166 333.928C199.174 334.76 198.022 335.4 196.71 335.848C195.398 336.264 193.926 336.472 192.294 336.472C190.15 336.472 188.198 336.04 186.438 335.176C184.71 334.312 183.318 333.096 182.262 331.528C181.238 329.96 180.726 328.12 180.726 326.008C180.726 323.704 181.286 321.72 182.406 320.056C183.558 318.392 185.094 317.112 187.014 316.216C188.966 315.288 191.11 314.824 193.446 314.824ZM193.926 320.632C192.806 320.632 191.83 320.84 190.998 321.256C190.166 321.64 189.51 322.216 189.03 322.984C188.55 323.72 188.31 324.6 188.31 325.624C188.31 327.16 188.822 328.392 189.846 329.32C190.902 330.216 192.294 330.664 194.022 330.664C195.142 330.664 196.134 330.456 196.998 330.04C197.894 329.592 198.582 328.984 199.062 328.216C199.542 327.448 199.782 326.584 199.782 325.624C199.782 324.664 199.542 323.816 199.062 323.08C198.614 322.312 197.958 321.72 197.094 321.304C196.23 320.856 195.174 320.632 193.926 320.632ZM216.007 349.384C214.727 349.384 213.623 348.952 212.695 348.088C211.799 347.192 211.351 346.056 211.351 344.68C211.351 343.304 211.799 342.2 212.695 341.368C213.623 340.504 214.727 340.072 216.007 340.072C217.319 340.072 218.423 340.504 219.319 341.368C220.215 342.2 220.663 343.304 220.663 344.68C220.663 346.056 220.215 347.192 219.319 348.088C218.423 348.952 217.319 349.384 216.007 349.384ZM235.518 349.576C233.182 349.576 230.862 349.272 228.558 348.664C226.254 348.024 224.302 347.128 222.702 345.976L225.726 340.024C227.006 340.952 228.494 341.688 230.19 342.232C231.886 342.776 233.598 343.048 235.326 343.048C237.278 343.048 238.814 342.664 239.934 341.896C241.054 341.128 241.614 340.072 241.614 338.728C241.614 337.448 241.118 336.44 240.126 335.704C239.134 334.968 237.534 334.6 235.326 334.6H231.774V329.464L241.134 318.856L241.998 321.64H224.382V315.4H247.902V320.44L238.59 331.048L234.654 328.792H236.91C241.038 328.792 244.158 329.72 246.27 331.576C248.382 333.432 249.438 335.816 249.438 338.728C249.438 340.616 248.942 342.392 247.95 344.056C246.958 345.688 245.438 347.016 243.39 348.04C241.342 349.064 238.718 349.576 235.518 349.576ZM267.428 349.576C264.676 349.576 262.212 348.904 260.036 347.56C257.86 346.184 256.148 344.2 254.9 341.608C253.652 339.016 253.028 335.88 253.028 332.2C253.028 328.52 253.652 325.384 254.9 322.792C256.148 320.2 257.86 318.232 260.036 316.888C262.212 315.512 264.676 314.824 267.428 314.824C270.212 314.824 272.676 315.512 274.82 316.888C276.996 318.232 278.708 320.2 279.956 322.792C281.204 325.384 281.828 328.52 281.828 332.2C281.828 335.88 281.204 339.016 279.956 341.608C278.708 344.2 276.996 346.184 274.82 347.56C272.676 348.904 270.212 349.576 267.428 349.576ZM267.428 343C268.74 343 269.876 342.632 270.836 341.896C271.828 341.16 272.596 339.992 273.14 338.392C273.716 336.792 274.004 334.728 274.004 332.2C274.004 329.672 273.716 327.608 273.14 326.008C272.596 324.408 271.828 323.24 270.836 322.504C269.876 321.768 268.74 321.4 267.428 321.4C266.148 321.4 265.012 321.768 264.02 322.504C263.06 323.24 262.292 324.408 261.716 326.008C261.172 327.608 260.9 329.672 260.9 332.2C260.9 334.728 261.172 336.792 261.716 338.392C262.292 339.992 263.06 341.16 264.02 341.896C265.012 342.632 266.148 343 267.428 343ZM300.006 349.576C297.254 349.576 294.79 348.904 292.614 347.56C290.438 346.184 288.726 344.2 287.478 341.608C286.23 339.016 285.606 335.88 285.606 332.2C285.606 328.52 286.23 325.384 287.478 322.792C288.726 320.2 290.438 318.232 292.614 316.888C294.79 315.512 297.254 314.824 300.006 314.824C302.79 314.824 305.254 315.512 307.398 316.888C309.574 318.232 311.286 320.2 312.534 322.792C313.782 325.384 314.406 328.52 314.406 332.2C314.406 335.88 313.782 339.016 312.534 341.608C311.286 344.2 309.574 346.184 307.398 347.56C305.254 348.904 302.79 349.576 300.006 349.576ZM300.006 343C301.318 343 302.454 342.632 303.414 341.896C304.406 341.16 305.174 339.992 305.718 338.392C306.294 336.792 306.582 334.728 306.582 332.2C306.582 329.672 306.294 327.608 305.718 326.008C305.174 324.408 304.406 323.24 303.414 322.504C302.454 321.768 301.318 321.4 300.006 321.4C298.726 321.4 297.59 321.768 296.598 322.504C295.638 323.24 294.87 324.408 294.294 326.008C293.75 327.608 293.478 329.672 293.478 332.2C293.478 334.728 293.75 336.792 294.294 338.392C294.87 339.992 295.638 341.16 296.598 341.896C297.59 342.632 298.726 343 300.006 343ZM321.991 349.384C320.711 349.384 319.607 348.952 318.679 348.088C317.783 347.192 317.335 346.056 317.335 344.68C317.335 343.304 317.783 342.2 318.679 341.368C319.607 340.504 320.711 340.072 321.991 340.072C323.303 340.072 324.407 340.504 325.303 341.368C326.199 342.2 326.647 343.304 326.647 344.68C326.647 346.056 326.199 347.192 325.303 348.088C324.407 348.952 323.303 349.384 321.991 349.384ZM343.928 349.576C341.176 349.576 338.712 348.904 336.536 347.56C334.36 346.184 332.648 344.2 331.4 341.608C330.152 339.016 329.528 335.88 329.528 332.2C329.528 328.52 330.152 325.384 331.4 322.792C332.648 320.2 334.36 318.232 336.536 316.888C338.712 315.512 341.176 314.824 343.928 314.824C346.712 314.824 349.176 315.512 351.32 316.888C353.496 318.232 355.208 320.2 356.456 322.792C357.704 325.384 358.328 328.52 358.328 332.2C358.328 335.88 357.704 339.016 356.456 341.608C355.208 344.2 353.496 346.184 351.32 347.56C349.176 348.904 346.712 349.576 343.928 349.576ZM343.928 343C345.24 343 346.376 342.632 347.336 341.896C348.328 341.16 349.096 339.992 349.64 338.392C350.216 336.792 350.504 334.728 350.504 332.2C350.504 329.672 350.216 327.608 349.64 326.008C349.096 324.408 348.328 323.24 347.336 322.504C346.376 321.768 345.24 321.4 343.928 321.4C342.648 321.4 341.512 321.768 340.52 322.504C339.56 323.24 338.792 324.408 338.216 326.008C337.672 327.608 337.4 329.672 337.4 332.2C337.4 334.728 337.672 336.792 338.216 338.392C338.792 339.992 339.56 341.16 340.52 341.896C341.512 342.632 342.648 343 343.928 343ZM376.506 349.576C373.754 349.576 371.29 348.904 369.114 347.56C366.938 346.184 365.226 344.2 363.978 341.608C362.73 339.016 362.106 335.88 362.106 332.2C362.106 328.52 362.73 325.384 363.978 322.792C365.226 320.2 366.938 318.232 369.114 316.888C371.29 315.512 373.754 314.824 376.506 314.824C379.29 314.824 381.754 315.512 383.898 316.888C386.074 318.232 387.786 320.2 389.034 322.792C390.282 325.384 390.906 328.52 390.906 332.2C390.906 335.88 390.282 339.016 389.034 341.608C387.786 344.2 386.074 346.184 383.898 347.56C381.754 348.904 379.29 349.576 376.506 349.576ZM376.506 343C377.818 343 378.954 342.632 379.914 341.896C380.906 341.16 381.674 339.992 382.218 338.392C382.794 336.792 383.082 334.728 383.082 332.2C383.082 329.672 382.794 327.608 382.218 326.008C381.674 324.408 380.906 323.24 379.914 322.504C378.954 321.768 377.818 321.4 376.506 321.4C375.226 321.4 374.09 321.768 373.098 322.504C372.138 323.24 371.37 324.408 370.794 326.008C370.25 327.608 369.978 329.672 369.978 332.2C369.978 334.728 370.25 336.792 370.794 338.392C371.37 339.992 372.138 341.16 373.098 341.896C374.09 342.632 375.226 343 376.506 343ZM409.085 349.576C406.333 349.576 403.869 348.904 401.693 347.56C399.517 346.184 397.805 344.2 396.557 341.608C395.309 339.016 394.685 335.88 394.685 332.2C394.685 328.52 395.309 325.384 396.557 322.792C397.805 320.2 399.517 318.232 401.693 316.888C403.869 315.512 406.333 314.824 409.085 314.824C411.869 314.824 414.333 315.512 416.477 316.888C418.653 318.232 420.365 320.2 421.613 322.792C422.861 325.384 423.485 328.52 423.485 332.2C423.485 335.88 422.861 339.016 421.613 341.608C420.365 344.2 418.653 346.184 416.477 347.56C414.333 348.904 411.869 349.576 409.085 349.576ZM409.085 343C410.397 343 411.533 342.632 412.493 341.896C413.485 341.16 414.253 339.992 414.797 338.392C415.373 336.792 415.661 334.728 415.661 332.2C415.661 329.672 415.373 327.608 414.797 326.008C414.253 324.408 413.485 323.24 412.493 322.504C411.533 321.768 410.397 321.4 409.085 321.4C407.805 321.4 406.669 321.768 405.677 322.504C404.717 323.24 403.949 324.408 403.373 326.008C402.829 327.608 402.557 329.672 402.557 332.2C402.557 334.728 402.829 336.792 403.373 338.392C403.949 339.992 404.717 341.16 405.677 341.896C406.669 342.632 407.805 343 409.085 343Z" fill="white"/>
<path d="M449.08 349V334.728L450.2 335.88H443.256V331.784H459.864V335.88H452.92L454.04 334.728V349H449.08ZM469.87 349.256C468.036 349.256 466.404 348.872 464.974 348.104C463.566 347.336 462.446 346.291 461.614 344.968C460.804 343.624 460.398 342.099 460.398 340.392C460.398 338.664 460.804 337.139 461.614 335.816C462.446 334.472 463.566 333.427 464.974 332.68C466.404 331.912 468.036 331.528 469.87 331.528C471.684 331.528 473.305 331.912 474.734 332.68C476.164 333.427 477.284 334.461 478.094 335.784C478.905 337.107 479.31 338.643 479.31 340.392C479.31 342.099 478.905 343.624 478.094 344.968C477.284 346.291 476.164 347.336 474.734 348.104C473.305 348.872 471.684 349.256 469.87 349.256ZM469.87 345.16C470.702 345.16 471.449 344.968 472.11 344.584C472.772 344.2 473.294 343.656 473.678 342.952C474.062 342.227 474.254 341.373 474.254 340.392C474.254 339.389 474.062 338.536 473.678 337.832C473.294 337.128 472.772 336.584 472.11 336.2C471.449 335.816 470.702 335.624 469.87 335.624C469.038 335.624 468.292 335.816 467.63 336.2C466.969 336.584 466.436 337.128 466.03 337.832C465.646 338.536 465.454 339.389 465.454 340.392C465.454 341.373 465.646 342.227 466.03 342.952C466.436 343.656 466.969 344.2 467.63 344.584C468.292 344.968 469.038 345.16 469.87 345.16ZM494.936 349L489.176 340.84L493.24 338.44L500.824 349H494.936ZM482.744 349V331.784H487.736V349H482.744ZM486.264 342.472V338.472H492.28V342.472H486.264ZM493.72 340.968L489.048 340.456L495.096 331.784H500.408L493.72 340.968ZM511.16 349.256C509.197 349.256 507.469 348.872 505.976 348.104C504.504 347.336 503.362 346.291 502.552 344.968C501.741 343.624 501.336 342.099 501.336 340.392C501.336 338.664 501.73 337.139 502.52 335.816C503.33 334.472 504.429 333.427 505.816 332.68C507.202 331.912 508.77 331.528 510.52 331.528C512.205 331.528 513.72 331.891 515.064 332.616C516.429 333.32 517.506 334.344 518.296 335.688C519.085 337.011 519.48 338.6 519.48 340.456C519.48 340.648 519.469 340.872 519.448 341.128C519.426 341.363 519.405 341.587 519.384 341.8H505.4V338.888H516.76L514.84 339.752C514.84 338.856 514.658 338.077 514.296 337.416C513.933 336.755 513.432 336.243 512.792 335.88C512.152 335.496 511.405 335.304 510.552 335.304C509.698 335.304 508.941 335.496 508.28 335.88C507.64 336.243 507.138 336.765 506.776 337.448C506.413 338.109 506.232 338.899 506.232 339.816V340.584C506.232 341.523 506.434 342.355 506.84 343.08C507.266 343.784 507.853 344.328 508.6 344.712C509.368 345.075 510.264 345.256 511.288 345.256C512.205 345.256 513.005 345.117 513.688 344.84C514.392 344.563 515.032 344.147 515.608 343.592L518.264 346.472C517.474 347.368 516.482 348.061 515.288 348.552C514.093 349.021 512.717 349.256 511.16 349.256ZM523.306 349V331.784H528.266V338.504H535.754V331.784H540.746V349H535.754V342.568H528.266V349H523.306ZM553.589 349.256C551.754 349.256 550.122 348.872 548.693 348.104C547.285 347.336 546.165 346.291 545.333 344.968C544.522 343.624 544.117 342.099 544.117 340.392C544.117 338.664 544.522 337.139 545.333 335.816C546.165 334.472 547.285 333.427 548.693 332.68C550.122 331.912 551.754 331.528 553.589 331.528C555.402 331.528 557.024 331.912 558.453 332.68C559.882 333.427 561.002 334.461 561.813 335.784C562.624 337.107 563.029 338.643 563.029 340.392C563.029 342.099 562.624 343.624 561.813 344.968C561.002 346.291 559.882 347.336 558.453 348.104C557.024 348.872 555.402 349.256 553.589 349.256ZM553.589 345.16C554.421 345.16 555.168 344.968 555.829 344.584C556.49 344.2 557.013 343.656 557.397 342.952C557.781 342.227 557.973 341.373 557.973 340.392C557.973 339.389 557.781 338.536 557.397 337.832C557.013 337.128 556.49 336.584 555.829 336.2C555.168 335.816 554.421 335.624 553.589 335.624C552.757 335.624 552.01 335.816 551.349 336.2C550.688 336.584 550.154 337.128 549.749 337.832C549.365 338.536 549.173 339.389 549.173 340.392C549.173 341.373 549.365 342.227 549.749 342.952C550.154 343.656 550.688 344.2 551.349 344.584C552.01 344.968 552.757 345.16 553.589 345.16ZM566.463 349V331.784H575.263C577.417 331.784 579.103 332.179 580.319 332.968C581.535 333.736 582.142 334.824 582.142 336.232C582.142 337.64 581.567 338.749 580.415 339.56C579.284 340.349 577.78 340.744 575.903 340.744L576.415 339.592C578.505 339.592 580.063 339.976 581.087 340.744C582.132 341.512 582.655 342.632 582.655 344.104C582.655 345.619 582.079 346.813 580.927 347.688C579.775 348.563 578.015 349 575.647 349H566.463ZM571.039 345.608H575.231C576.148 345.608 576.831 345.459 577.279 345.16C577.748 344.84 577.983 344.36 577.983 343.72C577.983 343.059 577.769 342.579 577.343 342.28C576.916 341.96 576.244 341.8 575.327 341.8H571.039V345.608ZM571.039 338.856H574.815C575.689 338.856 576.34 338.696 576.767 338.376C577.215 338.056 577.439 337.597 577.439 337C577.439 336.381 577.215 335.923 576.767 335.624C576.34 335.325 575.689 335.176 574.815 335.176H571.039V338.856Z" fill="white"/>
<path d="M776.604 199.856L766.013 223.155C762.724 223.155 758.991 222.797 755.846 223.579H755L776.604 199.008V199.856Z" fill="#8AB8FE"/>
<path d="M755.849 223.578H766.015C769.64 231.413 772.694 239.278 776.607 246.877V247.725L755 223.578H755.849Z" fill="#4787EA"/>
<path d="M798.21 224.002C798.166 223.8 797.986 223.609 797.786 223.578C794.641 222.799 790.908 223.157 787.619 223.154L777.452 199.855H777.876C784.893 207.587 792.067 215.35 798.648 223.384L798.21 224.002Z" fill="#243FD1"/>
<path d="M797.786 223.579C797.986 223.607 798.163 223.798 798.21 224.003L777.876 246.88H777.452L787.619 223.582C790.598 223.585 795.046 223.185 797.786 223.582V223.579Z" fill="#12209E"/>
<path d="M777.877 199.855H777.452C776.923 199.9 777.045 200.487 777.009 200.887C776.373 207.543 777.034 216.251 777.031 223.156C777.031 223.298 777.031 223.439 777.031 223.581C776.889 223.581 776.748 223.581 776.606 223.581V199.007C777.244 198.948 777.652 199.284 777.877 199.855Z" fill="#697FF4"/>
<path d="M777.452 246.877H777.877C777.66 247.448 777.247 247.814 776.606 247.725V223.578C776.748 223.578 776.889 223.578 777.031 223.578C777.031 230.639 776.471 238.959 777.009 245.848C777.039 246.247 776.928 246.835 777.452 246.879V246.877Z" fill="#596DD7"/>
<path d="M776.604 223.154C773.079 223.154 769.538 223.151 766.013 223.154L776.604 199.855V223.154Z" fill="#4576F2"/>
<path d="M766.016 223.154V223.578H755.849C758.994 222.799 762.726 223.157 766.016 223.154Z" fill="#97BEF8"/>
<path d="M776.604 223.578V246.877C772.694 239.278 769.637 231.413 766.013 223.578C769.538 223.578 773.079 223.578 776.604 223.578Z" fill="#2E5FDB"/>
<path d="M787.619 223.153C784.094 223.15 780.552 223.153 777.027 223.153C777.03 216.247 776.373 207.539 777.005 200.883C777.044 200.487 776.919 199.899 777.449 199.852L787.616 223.15L787.619 223.153Z" fill="#3346F5"/>
<path d="M797.786 223.576C795.046 223.18 790.598 223.579 787.619 223.576V223.152C790.908 223.152 794.641 222.794 797.786 223.576Z" fill="#5667CF"/>
<path d="M787.619 223.579L777.452 246.878C776.927 246.833 777.038 246.246 777.008 245.846C776.47 238.957 777.03 230.637 777.03 223.577C780.555 223.577 784.096 223.571 787.621 223.577L787.619 223.579Z" fill="#1D2DC5"/>
<path d="M776.604 223.154V223.578C773.079 223.578 769.538 223.578 766.013 223.578V223.154C769.538 223.151 773.079 223.154 776.604 223.154Z" fill="#6D92EF"/>
<path d="M787.62 223.154V223.578C784.095 223.572 780.553 223.578 777.028 223.578C777.028 223.436 777.028 223.295 777.028 223.154C780.553 223.154 784.095 223.151 787.62 223.154Z" fill="#606DEA"/>
</g>
<rect x="1.5" y="1.5" width="852" height="428" rx="76.5" stroke="#244ED8" stroke-width="3"/>
<defs>
<clipPath id="clip0_1772_150">
<rect width="855" height="431" rx="78" fill="white"/>
</clipPath>
</defs>
</svg>
