<svg width="57" height="51" viewBox="0 0 57 51" fill="none" xmlns="http://www.w3.org/2000/svg">
<rect x="13.0723" y="15.204" width="31.4392" height="24.213" fill="white"/>
<path d="M37.5621 0.0286088C37.7046 0.123539 43.6016 3.55442 46.7186 5.33568C47.0682 5.53534 47.1824 5.7629 47.1807 6.15263C47.1694 9.06647 47.1911 11.9812 47.1711 14.895C47.1676 15.3702 47.3272 15.6257 47.7326 15.8558C50.1102 17.2003 52.4669 18.5813 54.8454 19.9232C55.2578 20.156 55.3947 20.421 55.3912 20.8866C55.3703 23.9521 55.3729 27.0177 55.3886 30.0824C55.3912 30.5183 55.2727 30.7712 54.8707 30.9935C52.4443 32.3371 50.0378 33.7173 47.6192 35.0739C47.2836 35.2622 47.1571 35.482 47.1606 35.8839C47.1833 38.6033 47.1632 41.3236 47.1833 44.0439C47.1859 44.4397 47.0743 44.662 46.7299 44.8547C43.4446 46.6909 40.1646 48.5375 36.8924 50.3981C36.5315 50.603 36.2647 50.6134 35.8985 50.3972C33.6386 49.0641 31.356 47.7702 29.0986 46.4328C28.6671 46.1773 28.3506 46.1939 27.9294 46.4423C25.6704 47.7763 23.3904 49.0754 21.127 50.4024C20.7957 50.5969 20.5402 50.6248 20.1888 50.4242C16.8826 48.5384 13.5677 46.6647 10.2441 44.8093C9.91977 44.628 9.85874 44.4214 9.86048 44.0936C9.87007 41.3733 9.85438 38.6539 9.87792 35.9336C9.88141 35.4837 9.73231 35.25 9.35043 35.0364C6.92833 33.6841 4.52454 32.2996 2.10244 30.9473C1.77548 30.7651 1.6508 30.568 1.65255 30.1966C1.6665 27.0474 1.66911 23.8955 1.64993 20.7436C1.64731 20.3277 1.82867 20.1394 2.15388 19.9537C4.52715 18.6014 6.8856 17.2238 9.26498 15.882C9.71749 15.6274 9.87443 15.3344 9.87007 14.8165C9.8474 11.9454 9.87181 9.07432 9.85961 6.2032C9.85786 5.79516 9.9529 5.54319 10.333 5.32609C13.3419 3.61284 16.3342 1.86907 19.3431 0.155812C19.5114 0.0599048 19.8322 0.0721111 20.0057 0.169762C22.7086 1.67987 25.4027 3.20741 28.089 4.74803C28.4107 4.93287 28.6496 4.92066 28.9626 4.74105C31.7422 3.14725 34.2568 1.72279 37.1017 0.105441C37.1017 0.105441 37.4196 -0.0663215 37.5621 0.0286088ZM27.674 17.0032C25.3739 18.3363 23.1471 19.618 20.936 20.9276C20.7887 21.0148 20.6989 21.3121 20.6972 21.5126C20.6815 23.756 20.6876 25.9985 20.691 28.2418C20.691 28.4267 20.7155 28.6124 20.7346 28.8809C22.4592 27.8826 24.1123 26.9279 25.7637 25.9706C26.3766 25.6148 27.2241 25.389 27.5301 24.8554C27.7115 24.1623 27.667 23.4378 27.6705 22.7106C27.681 20.8387 27.674 18.9667 27.674 17.0041V17.0032ZM29.3654 17.0102C29.3654 19.5884 29.3576 22.0671 29.3811 24.5459C29.3829 24.7246 29.5729 24.9644 29.7412 25.0682C30.6384 25.6175 31.5565 26.1327 32.4685 26.6602C33.7266 27.3874 34.9847 28.1145 36.2647 28.8548C36.3065 28.7257 36.3423 28.6664 36.3423 28.6063C36.3458 26.1903 36.3545 23.7752 36.3327 21.3592C36.3309 21.1796 36.1487 20.9328 35.9822 20.8352C33.8164 19.5666 31.6384 18.3198 29.3654 17.0102ZM34.4433 30.099C32.4877 28.9559 30.6218 27.8608 28.7464 26.7814C28.6304 26.7152 28.409 26.7152 28.293 26.7814C26.4176 27.8608 24.5518 28.9559 22.597 30.099C24.0565 30.963 25.4367 31.7808 26.8187 32.5969C27.3741 32.9247 27.9347 33.5071 28.4883 33.5002C29.0707 33.4932 29.6514 32.9308 30.2234 32.5952C31.6071 31.7834 32.9855 30.9621 34.4442 30.099H34.4433Z" fill="white"/>
<path d="M18.2997 10.71C16.045 12.0091 13.8993 13.2463 11.6733 14.5288L11.6733 6.97479C13.8766 8.21723 16.0354 9.43351 18.2997 10.71Z" fill="black"/>
<path d="M45.3499 6.97076V14.5318C43.1257 13.2501 40.9791 12.0138 38.7227 10.7138C40.966 9.44692 43.1292 8.22541 45.3499 6.97164V6.97076Z" fill="black"/>
<path d="M20.7129 48.3083V41.5913C22.6912 42.7239 24.5753 43.8024 26.5528 44.935C24.5605 46.0859 22.6598 47.1845 20.7129 48.3092V48.3083Z" fill="black"/>
<path d="M36.3084 41.588V48.305C34.3885 47.1986 32.487 46.1026 30.4668 44.9387C32.4338 43.8104 34.324 42.7267 36.3084 41.588Z" fill="black"/>
<path d="M5.39062 20.598C6.89114 19.7322 8.3158 18.91 9.81196 18.0469V23.1021C8.35852 22.279 6.93125 21.4708 5.39062 20.598Z" fill="black"/>
<path d="M51.6272 20.5948C50.1223 21.451 48.695 22.2636 47.2041 23.112V18.0498C48.6811 18.8999 50.1179 19.7264 51.6272 20.5948Z" fill="black"/>
<path d="M34.4327 30.2514L28.5091 26.6906L22.5864 30.2523L28.5091 33.9029L34.4327 30.2514Z" fill="black"/>
<path d="M27.6657 25.1605L20.7246 29.0334L20.7246 21.2361L27.6639 17.1566L27.6657 25.1605Z" fill="black"/>
<path d="M29.375 25.1497L36.317 29.0234V21.2253L29.3776 17.1458L29.375 25.1497Z" fill="black"/>
<path d="M11.6162 17.1482L18.7735 21.2255V47.6297L11.671 43.7277L11.6162 17.1482Z" fill="#009345"/>
<path d="M11.6162 17.1482L18.7735 21.2255V47.6297L11.671 43.7277L11.6162 17.1482Z" fill="#009345"/>
<path d="M3.5166 21.9161L27.5642 35.299L27.5642 43.2783L3.5166 29.6214L3.5166 21.9161Z" fill="#009345"/>
<path d="M45.3833 17.1482L38.226 21.2255V47.6297L45.3285 43.7277L45.3833 17.1482Z" fill="#009345"/>
<path d="M45.3833 17.1482L38.226 21.2255V47.6297L45.3285 43.7277L45.3833 17.1482Z" fill="#009345"/>
<path d="M53.4834 21.9161L29.4358 35.299L29.4358 43.2783L53.4834 29.6214L53.4834 21.9161Z" fill="#009345"/>
<path d="M13.7974 5.78196L37.571 19.3951L43.7747 15.9315L19.76 2.40614L13.7974 5.78196Z" fill="#009345"/>
<path d="M13.3809 15.9205L19.4969 19.395L43.2924 5.7929L37.4065 2.32935L13.3809 15.9205Z" fill="#009345"/>
<path d="M13.3809 15.9205L19.4969 19.395L43.2924 5.7929L37.4065 2.32935L13.3809 15.9205Z" fill="#009345"/>
</svg>
