<svg width="1409" height="2177" viewBox="0 0 1409 2177" fill="none" xmlns="http://www.w3.org/2000/svg">
<path d="M723.043 2176.15C903.988 2067.92 1058.33 1920.45 1174.68 1744.62C1291.02 1568.78 1366.41 1369.07 1395.29 1160.21C1424.16 951.352 1405.77 738.678 1341.48 537.873C1277.2 337.069 1168.65 153.258 1023.85 0L0 967L723.043 2176.15Z" fill="url(#paint0_linear_1754_67)"/>
<path d="M975.767 1330.33C973.642 1330.33 971.542 1330 969.468 1329.34C967.393 1328.68 965.698 1327.77 964.383 1326.61L968.709 1318.18C969.62 1318.99 970.657 1319.63 971.821 1320.08C973.035 1320.54 974.224 1320.77 975.388 1320.77C977.057 1320.77 978.373 1320.36 979.334 1319.55C980.346 1318.79 981.257 1317.5 982.067 1315.68L984.192 1310.67L985.102 1309.38L999.75 1274.16H1011.13L992.692 1317.5C991.376 1320.79 989.859 1323.37 988.138 1325.24C986.469 1327.11 984.596 1328.43 982.522 1329.19C980.498 1329.95 978.246 1330.33 975.767 1330.33ZM982.75 1316.59L964.535 1274.16H976.754L990.87 1308.32L982.75 1316.59Z" fill="white"/>
<path d="M923.02 1315V1274.16H943.891C949.001 1274.16 952.998 1275.1 955.882 1276.97C958.766 1278.79 960.208 1281.38 960.208 1284.71C960.208 1288.05 958.842 1290.68 956.11 1292.61C953.428 1294.48 949.861 1295.42 945.409 1295.42L946.623 1292.68C951.582 1292.68 955.275 1293.59 957.704 1295.42C960.183 1297.24 961.423 1299.89 961.423 1303.38C961.423 1306.98 960.057 1309.81 957.324 1311.89C954.592 1313.96 950.418 1315 944.802 1315H923.02ZM933.873 1306.95H943.815C945.991 1306.95 947.61 1306.6 948.672 1305.89C949.785 1305.13 950.342 1303.99 950.342 1302.47C950.342 1300.91 949.836 1299.77 948.824 1299.06C947.812 1298.3 946.218 1297.92 944.043 1297.92H933.873V1306.95ZM933.873 1290.94H942.828C944.903 1290.94 946.446 1290.56 947.458 1289.8C948.521 1289.04 949.052 1287.95 949.052 1286.54C949.052 1285.07 948.521 1283.98 947.458 1283.27C946.446 1282.56 944.903 1282.21 942.828 1282.21H933.873V1290.94Z" fill="white"/>
<path d="M891.127 1315V1281.15L893.783 1283.88H877.313V1274.16H916.703V1283.88H900.234L902.89 1281.15V1315H891.127Z" fill="white"/>
<path d="M856.989 1315.6C852.587 1315.6 848.666 1314.72 845.226 1312.95C841.785 1311.13 839.078 1308.62 837.105 1305.43C835.182 1302.25 834.221 1298.63 834.221 1294.58C834.221 1290.48 835.182 1286.86 837.105 1283.73C839.078 1280.54 841.785 1278.06 845.226 1276.29C848.666 1274.47 852.587 1273.56 856.989 1273.56C861.29 1273.56 865.034 1274.47 868.222 1276.29C871.41 1278.06 873.762 1280.62 875.28 1283.96L866.097 1288.89C865.034 1286.97 863.694 1285.55 862.074 1284.64C860.506 1283.73 858.786 1283.27 856.914 1283.27C854.89 1283.27 853.068 1283.73 851.449 1284.64C849.83 1285.55 848.54 1286.84 847.578 1288.51C846.668 1290.18 846.212 1292.2 846.212 1294.58C846.212 1296.96 846.668 1298.98 847.578 1300.65C848.54 1302.32 849.83 1303.61 851.449 1304.52C853.068 1305.43 854.89 1305.89 856.914 1305.89C858.786 1305.89 860.506 1305.46 862.074 1304.6C863.694 1303.69 865.034 1302.25 866.097 1300.27L875.28 1305.28C873.762 1308.57 871.41 1311.13 868.222 1312.95C865.034 1314.72 861.29 1315.6 856.989 1315.6Z" fill="white"/>
<path d="M808.752 1315.6C804.097 1315.6 799.999 1314.69 796.457 1312.87C792.966 1311.05 790.259 1308.57 788.336 1305.43C786.413 1302.25 785.452 1298.63 785.452 1294.58C785.452 1290.48 786.388 1286.86 788.26 1283.73C790.183 1280.54 792.789 1278.06 796.078 1276.29C799.366 1274.47 803.085 1273.56 807.234 1273.56C811.231 1273.56 814.824 1274.42 818.011 1276.14C821.25 1277.81 823.805 1280.24 825.677 1283.42C827.549 1286.56 828.485 1290.33 828.485 1294.73C828.485 1295.19 828.46 1295.72 828.409 1296.33C828.359 1296.88 828.308 1297.41 828.257 1297.92H795.091V1291.01H822.034L817.48 1293.06C817.48 1290.94 817.05 1289.09 816.19 1287.52C815.33 1285.95 814.141 1284.74 812.623 1283.88C811.105 1282.97 809.334 1282.51 807.31 1282.51C805.286 1282.51 803.49 1282.97 801.922 1283.88C800.404 1284.74 799.215 1285.98 798.354 1287.6C797.494 1289.17 797.064 1291.04 797.064 1293.21V1295.04C797.064 1297.26 797.545 1299.24 798.506 1300.96C799.518 1302.63 800.91 1303.92 802.681 1304.83C804.502 1305.69 806.627 1306.12 809.056 1306.12C811.231 1306.12 813.129 1305.79 814.748 1305.13C816.418 1304.47 817.936 1303.49 819.302 1302.17L825.601 1309C823.729 1311.13 821.376 1312.77 818.543 1313.93C815.709 1315.05 812.446 1315.6 808.752 1315.6Z" fill="white"/>
<path d="M742.975 1305.28L740.394 1308.01V1274.16H752.234V1308.01L749.502 1305.28H768.324L765.668 1308.01V1274.16H777.432V1315H715.121V1274.16H726.885V1308.01L724.229 1305.28H742.975ZM772.119 1323.12V1312.26L774.775 1315H765.364V1305.28H783.124V1323.12H772.119Z" fill="white"/>
<path d="M684.315 1315.91C680.975 1315.91 677.94 1315.43 675.207 1314.47C672.475 1313.45 670.097 1311.91 668.073 1309.84C666.1 1307.71 664.557 1305 663.443 1301.72C662.381 1298.43 661.85 1294.51 661.85 1289.95C661.85 1286.71 662.128 1283.75 662.684 1281.07C663.241 1278.39 664.076 1275.96 665.189 1273.79C666.302 1271.56 667.719 1269.61 669.439 1267.94C671.21 1266.22 673.259 1264.8 675.587 1263.69C677.965 1262.53 680.646 1261.64 683.632 1261.03L703.061 1257.16L704.655 1267.33L687.502 1270.75C686.49 1270.95 685.327 1271.23 684.011 1271.58C682.746 1271.89 681.456 1272.37 680.141 1273.03C678.876 1273.68 677.687 1274.62 676.573 1275.83C675.511 1277 674.651 1278.54 673.993 1280.46C673.335 1282.34 673.006 1284.66 673.006 1287.45C673.006 1288.31 673.032 1288.96 673.082 1289.42C673.183 1289.88 673.259 1290.36 673.31 1290.86C673.411 1291.37 673.462 1292.15 673.462 1293.21L669.667 1289.5C670.78 1287.12 672.197 1285.09 673.917 1283.42C675.688 1281.75 677.712 1280.49 679.989 1279.63C682.316 1278.72 684.897 1278.26 687.73 1278.26C691.575 1278.26 694.94 1279.05 697.824 1280.62C700.759 1282.13 703.036 1284.28 704.655 1287.07C706.274 1289.85 707.084 1293.01 707.084 1296.55C707.084 1300.4 706.122 1303.79 704.2 1306.72C702.277 1309.61 699.595 1311.86 696.155 1313.48C692.765 1315.1 688.818 1315.91 684.315 1315.91ZM684.922 1306.72C686.895 1306.72 688.641 1306.29 690.159 1305.43C691.677 1304.52 692.84 1303.33 693.65 1301.87C694.51 1300.35 694.94 1298.65 694.94 1296.78C694.94 1294.96 694.51 1293.34 693.65 1291.92C692.84 1290.51 691.677 1289.39 690.159 1288.59C688.641 1287.78 686.87 1287.37 684.846 1287.37C682.873 1287.37 681.102 1287.78 679.533 1288.59C677.965 1289.34 676.75 1290.41 675.89 1291.77C675.03 1293.14 674.6 1294.73 674.6 1296.55C674.6 1298.43 675.03 1300.15 675.89 1301.72C676.801 1303.23 678.015 1304.45 679.533 1305.36C681.102 1306.27 682.898 1306.72 684.922 1306.72Z" fill="white"/>
<path d="M633.52 1315.6C629.169 1315.6 625.298 1314.69 621.908 1312.87C618.568 1311.05 615.912 1308.57 613.939 1305.43C612.016 1302.25 611.055 1298.63 611.055 1294.58C611.055 1290.48 612.016 1286.86 613.939 1283.73C615.912 1280.54 618.568 1278.06 621.908 1276.29C625.298 1274.47 629.169 1273.56 633.52 1273.56C637.821 1273.56 641.666 1274.47 645.056 1276.29C648.446 1278.06 651.102 1280.51 653.025 1283.65C654.948 1286.79 655.909 1290.43 655.909 1294.58C655.909 1298.63 654.948 1302.25 653.025 1305.43C651.102 1308.57 648.446 1311.05 645.056 1312.87C641.666 1314.69 637.821 1315.6 633.52 1315.6ZM633.52 1305.89C635.493 1305.89 637.264 1305.43 638.833 1304.52C640.401 1303.61 641.641 1302.32 642.551 1300.65C643.462 1298.93 643.918 1296.91 643.918 1294.58C643.918 1292.2 643.462 1290.18 642.551 1288.51C641.641 1286.84 640.401 1285.55 638.833 1284.64C637.264 1283.73 635.493 1283.27 633.52 1283.27C631.547 1283.27 629.776 1283.73 628.207 1284.64C626.639 1285.55 625.374 1286.84 624.412 1288.51C623.502 1290.18 623.046 1292.2 623.046 1294.58C623.046 1296.91 623.502 1298.93 624.412 1300.65C625.374 1302.32 626.639 1303.61 628.207 1304.52C629.776 1305.43 631.547 1305.89 633.52 1305.89Z" fill="white"/>
<path d="M583.861 1315.6C579.509 1315.6 575.639 1314.69 572.249 1312.87C568.909 1311.05 566.253 1308.57 564.28 1305.43C562.357 1302.25 561.396 1298.63 561.396 1294.58C561.396 1290.48 562.357 1286.86 564.28 1283.73C566.253 1280.54 568.909 1278.06 572.249 1276.29C575.639 1274.47 579.509 1273.56 583.861 1273.56C588.161 1273.56 592.007 1274.47 595.397 1276.29C598.787 1278.06 601.443 1280.51 603.366 1283.65C605.289 1286.79 606.25 1290.43 606.25 1294.58C606.25 1298.63 605.289 1302.25 603.366 1305.43C601.443 1308.57 598.787 1311.05 595.397 1312.87C592.007 1314.69 588.161 1315.6 583.861 1315.6ZM583.861 1305.89C585.834 1305.89 587.605 1305.43 589.173 1304.52C590.742 1303.61 591.982 1302.32 592.892 1300.65C593.803 1298.93 594.258 1296.91 594.258 1294.58C594.258 1292.2 593.803 1290.18 592.892 1288.51C591.982 1286.84 590.742 1285.55 589.173 1284.64C587.605 1283.73 585.834 1283.27 583.861 1283.27C581.887 1283.27 580.116 1283.73 578.548 1284.64C576.979 1285.55 575.715 1286.84 574.753 1288.51C573.842 1290.18 573.387 1292.2 573.387 1294.58C573.387 1296.91 573.842 1298.93 574.753 1300.65C575.715 1302.32 576.979 1303.61 578.548 1304.52C580.116 1305.43 581.887 1305.89 583.861 1305.89Z" fill="white"/>
<path d="M539.769 1315.6C535.367 1315.6 531.446 1314.72 528.005 1312.95C524.564 1311.13 521.857 1308.62 519.884 1305.43C517.961 1302.25 517 1298.63 517 1294.58C517 1290.48 517.961 1286.86 519.884 1283.73C521.857 1280.54 524.564 1278.06 528.005 1276.29C531.446 1274.47 535.367 1273.56 539.769 1273.56C544.07 1273.56 547.814 1274.47 551.001 1276.29C554.189 1278.06 556.542 1280.62 558.06 1283.96L548.876 1288.89C547.814 1286.97 546.473 1285.55 544.854 1284.64C543.285 1283.73 541.565 1283.27 539.693 1283.27C537.669 1283.27 535.847 1283.73 534.228 1284.64C532.609 1285.55 531.319 1286.84 530.358 1288.51C529.447 1290.18 528.992 1292.2 528.992 1294.58C528.992 1296.96 529.447 1298.98 530.358 1300.65C531.319 1302.32 532.609 1303.61 534.228 1304.52C535.847 1305.43 537.669 1305.89 539.693 1305.89C541.565 1305.89 543.285 1305.46 544.854 1304.6C546.473 1303.69 547.814 1302.25 548.876 1300.27L558.06 1305.28C556.542 1308.57 554.189 1311.13 551.001 1312.95C547.814 1314.72 544.07 1315.6 539.769 1315.6Z" fill="white"/>
<path d="M1207.34 1220.13V1206.54L1209.01 1208.44H1197.7C1191.83 1208.44 1187.23 1207.22 1183.89 1204.8C1180.55 1202.37 1178.88 1198.88 1178.88 1194.32C1178.88 1189.47 1180.63 1185.75 1184.12 1183.17C1187.66 1180.59 1192.41 1179.3 1198.38 1179.3H1217.89V1220.13H1207.34ZM1178.27 1220.13L1189.13 1204.57H1201.19L1190.87 1220.13H1178.27ZM1207.34 1202.9V1185.9L1209.01 1188.93H1198.61C1196.18 1188.93 1194.29 1189.39 1192.92 1190.3C1191.6 1191.21 1190.95 1192.68 1190.95 1194.7C1190.95 1198.6 1193.45 1200.55 1198.46 1200.55H1209.01L1207.34 1202.9Z" fill="white"/>
<path d="M1127.73 1220.13V1179.3H1139.49V1203.58L1159.38 1179.3H1170.23V1220.13H1158.47V1195.84L1138.66 1220.13H1127.73Z" fill="white"/>
<path d="M1075.03 1220.13V1179.3H1086.8V1195.23H1104.56V1179.3H1116.4V1220.13H1104.56V1204.87H1086.8V1220.13H1075.03Z" fill="white"/>
<path d="M1046.22 1220.73C1041.57 1220.73 1037.47 1219.82 1033.93 1218C1030.44 1216.18 1027.73 1213.7 1025.81 1210.56C1023.88 1207.38 1022.92 1203.76 1022.92 1199.71C1022.92 1195.61 1023.86 1192 1025.73 1188.86C1027.65 1185.67 1030.26 1183.19 1033.55 1181.42C1036.84 1179.6 1040.56 1178.69 1044.7 1178.69C1048.7 1178.69 1052.29 1179.55 1055.48 1181.27C1058.72 1182.94 1061.28 1185.37 1063.15 1188.55C1065.02 1191.69 1065.96 1195.46 1065.96 1199.86C1065.96 1200.32 1065.93 1200.85 1065.88 1201.46C1065.83 1202.01 1065.78 1202.54 1065.73 1203.05H1032.56V1196.14H1059.5L1054.95 1198.19C1054.95 1196.07 1054.52 1194.22 1053.66 1192.65C1052.8 1191.08 1051.61 1189.87 1050.09 1189.01C1048.58 1188.1 1046.8 1187.64 1044.78 1187.64C1042.76 1187.64 1040.96 1188.1 1039.39 1189.01C1037.87 1189.87 1036.69 1191.11 1035.83 1192.73C1034.97 1194.3 1034.53 1196.17 1034.53 1198.35V1200.17C1034.53 1202.39 1035.02 1204.37 1035.98 1206.09C1036.99 1207.76 1038.38 1209.05 1040.15 1209.96C1041.97 1210.82 1044.1 1211.25 1046.53 1211.25C1048.7 1211.25 1050.6 1210.92 1052.22 1210.26C1053.89 1209.6 1055.41 1208.62 1056.77 1207.3L1063.07 1214.13C1061.2 1216.26 1058.85 1217.9 1056.01 1219.06C1053.18 1220.18 1049.92 1220.73 1046.22 1220.73Z" fill="white"/>
<path d="M1001.13 1214.81V1189.01H987.77L987.543 1194.25C987.441 1196.42 987.315 1198.5 987.163 1200.47C987.011 1202.44 986.708 1204.24 986.252 1205.86C985.848 1207.43 985.24 1208.77 984.431 1209.88C983.621 1210.94 982.533 1211.68 981.167 1212.08L969.479 1210.41C970.947 1210.41 972.136 1209.98 973.047 1209.12C973.957 1208.21 974.666 1206.97 975.172 1205.4C975.678 1203.78 976.057 1201.96 976.31 1199.94C976.563 1197.86 976.74 1195.69 976.841 1193.41L977.373 1179.3H1012.97V1214.81H1001.13ZM968.113 1228.93V1210.41H1018.81V1228.93H1007.81V1220.13H979.118V1228.93H968.113Z" fill="white"/>
<path d="M952.853 1220.13L942 1200.77L951.563 1195.08L966.894 1220.13H952.853ZM935.018 1204.64V1195.16H949.21V1204.64H935.018ZM952.777 1201.08L941.621 1199.86L953.384 1179.3H965.907L952.777 1201.08ZM912.477 1220.13H898.512L913.767 1195.08L923.33 1200.77L912.477 1220.13ZM938.509 1220.13H926.821V1179.3H938.509V1220.13ZM930.312 1204.64H916.195V1195.16H930.312V1204.64ZM912.552 1201.08L899.422 1179.3H911.945L923.633 1199.86L912.552 1201.08Z" fill="white"/>
<path d="M882.38 1220.13V1212.16L881.621 1210.41V1196.14C881.621 1193.61 880.837 1191.64 879.268 1190.22C877.75 1188.81 875.397 1188.1 872.21 1188.1C870.034 1188.1 867.884 1188.45 865.759 1189.16C863.684 1189.82 861.913 1190.73 860.446 1191.89L856.196 1183.62C858.422 1182.05 861.104 1180.84 864.241 1179.98C867.378 1179.12 870.565 1178.69 873.804 1178.69C880.027 1178.69 884.859 1180.16 888.3 1183.09C891.74 1186.02 893.461 1190.6 893.461 1196.83V1220.13H882.38ZM869.933 1220.73C866.745 1220.73 864.013 1220.2 861.736 1219.14C859.459 1218.03 857.714 1216.53 856.499 1214.66C855.285 1212.79 854.678 1210.69 854.678 1208.36C854.678 1205.93 855.26 1203.81 856.423 1201.99C857.638 1200.17 859.535 1198.75 862.116 1197.74C864.696 1196.68 868.061 1196.14 872.21 1196.14H883.063V1203.05H873.5C870.717 1203.05 868.794 1203.51 867.732 1204.42C866.72 1205.33 866.214 1206.47 866.214 1207.83C866.214 1209.35 866.796 1210.56 867.96 1211.48C869.174 1212.34 870.818 1212.77 872.893 1212.77C874.866 1212.77 876.637 1212.31 878.205 1211.4C879.774 1210.44 880.912 1209.05 881.621 1207.22L883.442 1212.69C882.582 1215.32 881.014 1217.32 878.737 1218.69C876.46 1220.05 873.525 1220.73 869.933 1220.73Z" fill="white"/>
<path d="M829.969 1220.73C826.528 1220.73 823.518 1219.98 820.937 1218.46C818.357 1216.94 816.333 1214.64 814.866 1211.55C813.449 1208.41 812.741 1204.47 812.741 1199.71C812.741 1194.9 813.424 1190.96 814.79 1187.87C816.156 1184.78 818.129 1182.48 820.71 1180.96C823.29 1179.45 826.376 1178.69 829.969 1178.69C833.814 1178.69 837.255 1179.57 840.291 1181.34C843.377 1183.06 845.806 1185.49 847.577 1188.63C849.398 1191.77 850.309 1195.46 850.309 1199.71C850.309 1204.01 849.398 1207.73 847.577 1210.87C845.806 1214 843.377 1216.43 840.291 1218.15C837.255 1219.87 833.814 1220.73 829.969 1220.73ZM805.834 1234.85V1179.3H817.142V1187.64L816.915 1199.79L817.674 1211.85V1234.85H805.834ZM827.92 1211.02C829.893 1211.02 831.639 1210.56 833.156 1209.65C834.725 1208.74 835.965 1207.45 836.875 1205.78C837.837 1204.06 838.317 1202.04 838.317 1199.71C838.317 1197.33 837.837 1195.31 836.875 1193.64C835.965 1191.97 834.725 1190.68 833.156 1189.77C831.639 1188.86 829.893 1188.4 827.92 1188.4C825.946 1188.4 824.175 1188.86 822.607 1189.77C821.038 1190.68 819.799 1191.97 818.888 1193.64C817.977 1195.31 817.522 1197.33 817.522 1199.71C817.522 1202.04 817.977 1204.06 818.888 1205.78C819.799 1207.45 821.038 1208.74 822.607 1209.65C824.175 1210.56 825.946 1211.02 827.92 1211.02Z" fill="white"/>
<path d="M766.93 1220.13V1179.3H799.641V1189.01H776.037L778.694 1186.43V1220.13H766.93Z" fill="white"/>
<path d="M745.559 1220.13V1212.16L744.8 1210.41V1196.14C744.8 1193.61 744.016 1191.64 742.448 1190.22C740.93 1188.81 738.577 1188.1 735.389 1188.1C733.214 1188.1 731.063 1188.45 728.938 1189.16C726.864 1189.82 725.093 1190.73 723.626 1191.89L719.375 1183.62C721.602 1182.05 724.283 1180.84 727.42 1179.98C730.557 1179.12 733.745 1178.69 736.983 1178.69C743.207 1178.69 748.039 1180.16 751.479 1183.09C754.92 1186.02 756.64 1190.6 756.64 1196.83V1220.13H745.559ZM733.113 1220.73C729.925 1220.73 727.193 1220.2 724.916 1219.14C722.639 1218.03 720.893 1216.53 719.679 1214.66C718.465 1212.79 717.857 1210.69 717.857 1208.36C717.857 1205.93 718.439 1203.81 719.603 1201.99C720.817 1200.17 722.715 1198.75 725.295 1197.74C727.876 1196.68 731.24 1196.14 735.389 1196.14H746.242V1203.05H736.68C733.897 1203.05 731.974 1203.51 730.912 1204.42C729.9 1205.33 729.394 1206.47 729.394 1207.83C729.394 1209.35 729.975 1210.56 731.139 1211.48C732.354 1212.34 733.998 1212.77 736.072 1212.77C738.046 1212.77 739.817 1212.31 741.385 1211.4C742.954 1210.44 744.092 1209.05 744.8 1207.22L746.622 1212.69C745.762 1215.32 744.193 1217.32 741.916 1218.69C739.64 1220.05 736.705 1220.73 733.113 1220.73Z" fill="white"/>
<path d="M668.427 1220.13V1179.3H680.191V1195.23H697.95V1179.3H709.79V1220.13H697.95V1204.87H680.191V1220.13H668.427Z" fill="white"/>
<path d="M639.622 1220.89C636.485 1220.89 633.348 1220.56 630.211 1219.9C627.125 1219.24 624.266 1218.26 621.635 1216.94L624.822 1208.67C626.897 1209.68 629.148 1210.46 631.577 1211.02C634.056 1211.53 636.561 1211.78 639.091 1211.78C640.912 1211.78 642.481 1211.6 643.796 1211.25C645.162 1210.84 646.2 1210.29 646.908 1209.58C647.616 1208.87 647.971 1208.01 647.971 1207C647.971 1205.68 647.414 1204.69 646.301 1204.04C645.188 1203.33 643.569 1202.97 641.444 1202.97H633.095V1195.61H640.457C641.823 1195.61 642.987 1195.46 643.948 1195.16C644.909 1194.85 645.618 1194.42 646.073 1193.87C646.579 1193.26 646.832 1192.55 646.832 1191.74C646.832 1190.88 646.529 1190.15 645.921 1189.54C645.314 1188.93 644.429 1188.48 643.265 1188.17C642.101 1187.82 640.634 1187.64 638.863 1187.64C636.839 1187.64 634.739 1187.9 632.564 1188.4C630.388 1188.86 628.162 1189.54 625.885 1190.45L623.001 1182.26C625.683 1181.14 628.339 1180.26 630.97 1179.6C633.601 1178.94 636.207 1178.59 638.787 1178.54C642.582 1178.43 645.997 1178.84 649.033 1179.75C652.069 1180.66 654.447 1181.98 656.167 1183.7C657.938 1185.42 658.824 1187.52 658.824 1190C658.824 1191.97 658.217 1193.74 657.002 1195.31C655.839 1196.88 654.219 1198.12 652.145 1199.03C650.07 1199.89 647.743 1200.32 645.162 1200.32L645.466 1197.97C649.969 1197.97 653.511 1198.88 656.091 1200.7C658.672 1202.47 659.962 1204.9 659.962 1207.98C659.962 1210.61 659.051 1212.92 657.23 1214.89C655.459 1216.81 653.03 1218.31 649.944 1219.37C646.908 1220.38 643.467 1220.89 639.622 1220.89Z" fill="white"/>
<path d="M596.016 1220.73C591.665 1220.73 587.794 1219.82 584.404 1218C581.064 1216.18 578.408 1213.7 576.435 1210.56C574.512 1207.38 573.551 1203.76 573.551 1199.71C573.551 1195.61 574.512 1192 576.435 1188.86C578.408 1185.67 581.064 1183.19 584.404 1181.42C587.794 1179.6 591.665 1178.69 596.016 1178.69C600.317 1178.69 604.162 1179.6 607.552 1181.42C610.942 1183.19 613.599 1185.65 615.521 1188.78C617.444 1191.92 618.405 1195.56 618.405 1199.71C618.405 1203.76 617.444 1207.38 615.521 1210.56C613.599 1213.7 610.942 1216.18 607.552 1218C604.162 1219.82 600.317 1220.73 596.016 1220.73ZM596.016 1211.02C597.989 1211.02 599.76 1210.56 601.329 1209.65C602.897 1208.74 604.137 1207.45 605.048 1205.78C605.958 1204.06 606.414 1202.04 606.414 1199.71C606.414 1197.33 605.958 1195.31 605.048 1193.64C604.137 1191.97 602.897 1190.68 601.329 1189.77C599.76 1188.86 597.989 1188.4 596.016 1188.4C594.043 1188.4 592.272 1188.86 590.703 1189.77C589.135 1190.68 587.87 1191.97 586.908 1193.64C585.998 1195.31 585.542 1197.33 585.542 1199.71C585.542 1202.04 585.998 1204.06 586.908 1205.78C587.87 1207.45 589.135 1208.74 590.703 1209.65C592.272 1210.56 594.043 1211.02 596.016 1211.02Z" fill="white"/>
<path d="M521.249 1220.13V1167H545.991C552.164 1167 556.971 1168.19 560.411 1170.57C563.852 1172.95 565.572 1176.34 565.572 1180.74C565.572 1185.09 563.953 1188.48 560.715 1190.91C557.477 1193.29 553.176 1194.47 547.813 1194.47L549.255 1191.29C555.225 1191.29 559.855 1192.48 563.144 1194.85C566.432 1197.23 568.077 1200.67 568.077 1205.18C568.077 1209.83 566.306 1213.5 562.764 1216.18C559.273 1218.81 554.163 1220.13 547.433 1220.13H521.249ZM533.468 1211.02H546.978C549.811 1211.02 551.962 1210.46 553.429 1209.35C554.896 1208.24 555.63 1206.52 555.63 1204.19C555.63 1201.96 554.896 1200.32 553.429 1199.26C551.962 1198.14 549.811 1197.59 546.978 1197.59H533.468V1211.02ZM533.468 1189.01H544.929C547.61 1189.01 549.634 1188.48 551 1187.42C552.366 1186.3 553.049 1184.68 553.049 1182.56C553.049 1180.43 552.366 1178.84 551 1177.78C549.634 1176.66 547.61 1176.11 544.929 1176.11H533.468V1189.01Z" fill="white"/>
<path d="M1061.89 943.804L1133.33 839.196H1151.11L1079.67 943.804H1061.89ZM1071 895.684C1065.92 895.684 1061.44 894.539 1057.55 892.247C1053.67 889.856 1050.58 886.519 1048.29 882.235C1046.1 877.851 1045 872.72 1045 866.842C1045 860.964 1046.1 855.883 1048.29 851.599C1050.58 847.315 1053.67 843.978 1057.55 841.587C1061.44 839.196 1065.92 838 1071 838C1076.09 838 1080.57 839.196 1084.46 841.587C1088.34 843.978 1091.38 847.315 1093.57 851.599C1095.76 855.883 1096.86 860.964 1096.86 866.842C1096.86 872.72 1095.76 877.851 1093.57 882.235C1091.38 886.519 1088.34 889.856 1084.46 892.247C1080.57 894.539 1076.09 895.684 1071 895.684ZM1071 883.43C1074.29 883.43 1076.93 882.085 1078.93 879.395C1080.92 876.606 1081.91 872.421 1081.91 866.842C1081.91 861.263 1080.92 857.128 1078.93 854.439C1076.93 851.649 1074.29 850.254 1071 850.254C1067.82 850.254 1065.18 851.649 1063.08 854.439C1061.09 857.128 1060.09 861.263 1060.09 866.842C1060.09 872.322 1061.09 876.456 1063.08 879.246C1065.18 882.035 1067.82 883.43 1071 883.43ZM1142 945C1137.01 945 1132.53 943.854 1128.54 941.563C1124.66 939.172 1121.62 935.834 1119.43 931.55C1117.24 927.167 1116.14 922.036 1116.14 916.158C1116.14 910.28 1117.24 905.199 1119.43 900.915C1121.62 896.631 1124.66 893.293 1128.54 890.902C1132.53 888.511 1137.01 887.316 1142 887.316C1147.18 887.316 1151.71 888.511 1155.6 890.902C1159.48 893.293 1162.52 896.631 1164.71 900.915C1166.9 905.199 1168 910.28 1168 916.158C1168 922.036 1166.9 927.167 1164.71 931.55C1162.52 935.834 1159.48 939.172 1155.6 941.563C1151.71 943.854 1147.18 945 1142 945ZM1142 932.746C1145.28 932.746 1147.92 931.401 1149.92 928.711C1151.91 925.921 1152.91 921.737 1152.91 916.158C1152.91 910.678 1151.91 906.544 1149.92 903.754C1147.92 900.965 1145.28 899.57 1142 899.57C1138.81 899.57 1136.17 900.965 1134.07 903.754C1132.08 906.444 1131.09 910.579 1131.09 916.158C1131.09 921.737 1132.08 925.921 1134.07 928.711C1136.17 931.401 1138.81 932.746 1142 932.746Z" fill="white"/>
<path d="M898.507 1134.44C875.032 1134.44 854.014 1128.71 835.452 1117.25C816.89 1105.51 802.286 1088.58 791.64 1066.47C780.995 1044.36 775.672 1017.61 775.672 986.222C775.672 954.83 780.995 928.079 791.64 905.969C802.286 883.859 816.89 867.071 835.452 855.606C854.014 843.869 875.032 838 898.507 838C922.256 838 943.274 843.869 961.563 855.606C980.125 867.071 994.729 883.859 1005.37 905.969C1016.02 928.079 1021.34 954.83 1021.34 986.222C1021.34 1017.61 1016.02 1044.36 1005.37 1066.47C994.729 1088.58 980.125 1105.51 961.563 1117.25C943.274 1128.71 922.256 1134.44 898.507 1134.44ZM898.507 1078.35C909.699 1078.35 919.389 1075.21 927.579 1068.93C936.041 1062.65 942.592 1052.69 947.232 1039.04C952.146 1025.39 954.602 1007.79 954.602 986.222C954.602 964.657 952.146 947.051 947.232 933.402C942.592 919.754 936.041 909.791 927.579 903.512C919.389 897.234 909.699 894.095 898.507 894.095C887.589 894.095 877.898 897.234 869.436 903.512C861.247 909.791 854.696 919.754 849.783 933.402C845.142 947.051 842.822 964.657 842.822 986.222C842.822 1007.79 845.142 1025.39 849.783 1039.04C854.696 1052.69 861.247 1062.65 869.436 1068.93C877.898 1075.21 887.589 1078.35 898.507 1078.35Z" fill="white"/>
<path d="M626.324 1134.44C606.397 1134.44 586.607 1131.85 566.953 1126.66C547.299 1121.2 530.648 1113.56 517 1103.73L542.795 1052.96C553.714 1060.88 566.407 1067.16 580.874 1071.8C595.342 1076.44 609.946 1078.76 624.686 1078.76C641.337 1078.76 654.439 1075.48 663.993 1068.93C673.547 1062.38 678.324 1053.37 678.324 1041.91C678.324 1030.99 674.093 1022.39 665.631 1016.11C657.169 1009.83 643.521 1006.69 624.686 1006.69H594.386V962.883L674.23 872.394L681.6 896.142H531.331V842.913H731.962V885.906L652.529 976.395L618.954 957.15H638.198C673.411 957.15 700.025 965.067 718.041 980.899C736.057 996.731 745.065 1017.07 745.065 1041.91C745.065 1058.01 740.834 1073.16 732.372 1087.36C723.91 1101.28 710.944 1112.61 693.474 1121.34C676.004 1130.08 653.62 1134.44 626.324 1134.44Z" fill="white"/>
<defs>
<linearGradient id="paint0_linear_1754_67" x1="1018.66" y1="102.997" x2="781.656" y2="2086.5" gradientUnits="userSpaceOnUse">
<stop stop-color="#488962"/>
<stop offset="1" stop-color="#1C382B"/>
</linearGradient>
</defs>
</svg>
