<svg width="2025" height="673" viewBox="0 0 2025 673" fill="none" xmlns="http://www.w3.org/2000/svg">
<path d="M1815.05 6.13672C1876.26 6.13672 1926.56 25.2587 1965.93 63.5026C2005.31 101.746 2025 150.527 2025 209.844C2025 269.551 2005.31 318.527 1965.93 356.771C1926.56 395.015 1876.26 414.137 1815.05 414.137H1663V6.13672H1815.05ZM1814.47 326.332C1846.44 326.332 1872.56 315.405 1892.83 293.551C1913.11 271.698 1923.24 243.6 1923.24 209.259C1923.24 175.698 1913.11 148.186 1892.83 126.722C1872.56 104.868 1846.44 93.9416 1814.47 93.9416H1762.42V326.332H1814.47Z" fill="white"/>
<path d="M1598 93.9416H1406.34V167.112H1583.98V250.82H1406.34V326.332H1598V414.137H1307V6.13672H1598V93.9416Z" fill="white"/>
<path d="M1265 6.13672V93.9416H1151.49V414.137H1051.51V93.9416H938V6.13672H1265Z" fill="white"/>
<path d="M894 6.13672V414.137H795V6.13672H894Z" fill="white"/>
<path d="M395 414.137V152.971C395 108.077 410.373 71.3814 441.118 42.8835C472.253 14.3857 511.949 0.136719 560.208 0.136719C608.856 0.136719 648.553 14.3857 679.298 42.8835C710.433 71.3814 726 108.077 726 152.971V414.137H626.758V158.241C626.758 138.332 620.532 122.326 608.078 110.224C595.624 97.7322 579.667 91.4861 560.208 91.4861C540.749 91.4861 524.793 97.7322 512.339 110.224C499.885 122.326 493.658 138.332 493.658 158.241V414.137H395Z" fill="white"/>
<path d="M332 6.13672V267.302C332 312.196 316.581 348.892 285.743 377.39C254.904 405.888 215.283 420.137 166.878 420.137C118.083 420.137 78.0717 405.888 46.843 377.39C15.6143 348.892 0 312.196 0 267.302V6.13672H99.5415V262.032C99.5415 281.942 105.787 298.142 118.279 310.635C130.77 322.736 146.775 328.787 166.293 328.787C185.811 328.787 201.815 322.736 214.307 310.635C226.798 298.142 233.044 281.942 233.044 262.032V6.13672H332Z" fill="white"/>
<path d="M1035.62 571.491C1046.03 561.255 1059.33 556.137 1075.5 556.137C1091.67 556.137 1104.97 561.255 1115.38 571.491C1125.79 581.727 1131 594.75 1131 610.561C1131 626.371 1125.79 639.445 1115.38 649.782C1104.97 660.019 1091.67 665.137 1075.5 665.137C1059.33 665.137 1046.03 660.019 1035.62 649.782C1025.21 639.445 1020 626.371 1020 610.561C1020 594.75 1025.21 581.727 1035.62 571.491ZM1096.43 588.517C1090.97 582.741 1083.99 579.852 1075.5 579.852C1067.01 579.852 1059.98 582.741 1054.42 588.517C1048.96 594.193 1046.23 601.49 1046.23 610.409C1046.23 619.429 1048.96 626.878 1054.42 632.756C1059.98 638.533 1067.01 641.421 1075.5 641.421C1083.99 641.421 1090.97 638.533 1096.43 632.756C1101.99 626.878 1104.77 619.429 1104.77 610.409C1104.77 601.49 1101.99 594.193 1096.43 588.517Z" fill="white"/>
<path d="M914 562.137V585.164H884.842V669.137H859.158V585.164H830V562.137H914Z" fill="white"/>
<path d="M688.142 562.137C698.873 562.137 707.699 565.565 714.619 572.422C721.54 579.279 725 588.081 725 598.827C725 609.573 721.54 618.374 714.619 625.231C707.699 632.088 698.873 635.517 688.142 635.517H665.575V669.137H640V562.137H688.142ZM685.283 613.411C689.295 613.411 692.555 612.08 695.062 609.419C697.67 606.656 698.973 603.228 698.973 599.134C698.973 595.04 697.72 591.714 695.212 589.155C692.705 586.494 689.395 585.164 685.283 585.164H665.575V613.411H685.283Z" fill="white"/>
<path d="M532 560.137L492.327 623.709V665.137H466.972V624.462L427 560.137H455.636L479.5 602.317L503.364 560.137H532Z" fill="white"/>
<path d="M304.188 617.834C315.295 621.65 320.849 630.187 320.849 643.444V665.137H295.251V643.293C295.251 639.276 294.09 635.962 291.768 633.35C289.445 630.739 286.365 629.434 282.528 629.434H258.749V665.137H233V560.137H284.346C295.453 560.137 304.339 562.949 311.003 568.573C317.668 574.197 321 581.729 321 591.17C321 597.296 319.485 602.669 316.456 607.289C313.528 611.909 309.438 615.424 304.188 617.834ZM281.468 608.795C285.507 608.795 288.688 607.64 291.01 605.33C293.434 602.92 294.645 599.706 294.645 595.689C294.645 591.672 293.434 588.508 291.01 586.198C288.688 583.889 285.507 582.734 281.468 582.734H258.749V608.795H281.468Z" fill="white"/>
<path d="M127 623.099C125.182 636.455 119.222 647.3 109.121 655.635C99.1212 663.969 86.899 668.137 72.4545 668.137C56.2929 668.137 43.0101 663.066 32.6061 652.923C22.202 642.681 17 629.727 17 614.061C17 598.396 22.202 585.492 32.6061 575.35C43.0101 565.208 56.2929 560.137 72.4545 560.137C86.899 560.137 99.1212 564.304 109.121 572.639C119.222 580.873 125.182 591.668 127 605.024H100.636C99.1212 598.697 95.7879 593.576 90.6364 589.66C85.5859 585.643 79.5252 583.635 72.4545 583.635C63.8687 583.635 56.8485 586.497 51.3939 592.22C45.9394 597.844 43.2121 605.074 43.2121 613.911C43.2121 622.848 45.9394 630.229 51.3939 636.053C56.8485 641.777 63.8687 644.639 72.4545 644.639C79.4242 644.639 85.4343 642.681 90.4848 638.764C95.6364 634.748 99.0202 629.526 100.636 623.099H127Z" fill="white"/>
<path d="M1374.11 612.754C1380.18 614.461 1384.99 617.675 1388.53 622.395C1392.18 627.015 1394 632.639 1394 639.267C1394 647.603 1391.22 654.332 1385.65 659.454C1380.08 664.576 1373 667.137 1364.39 667.137H1307V562.137H1359.69C1368.39 562.137 1375.53 564.647 1381.09 569.669C1386.66 574.59 1389.45 581.068 1389.45 589.102C1389.45 594.526 1388.08 599.296 1385.35 603.414C1382.61 607.531 1378.87 610.645 1374.11 612.754ZM1364.39 594.224C1364.39 591.312 1363.43 588.952 1361.51 587.144C1359.58 585.236 1357.16 584.282 1354.22 584.282H1332.81V604.317H1354.22C1357.16 604.317 1359.58 603.363 1361.51 601.455C1363.43 599.447 1364.39 597.036 1364.39 594.224ZM1357.41 644.992C1360.34 644.992 1362.77 644.038 1364.7 642.13C1366.72 640.221 1367.73 637.761 1367.73 634.748C1367.73 631.735 1366.72 629.274 1364.7 627.366C1362.77 625.458 1360.34 624.504 1357.41 624.504H1332.81V644.992H1357.41Z" fill="white"/>
<path d="M1944.72 560.137C1956.3 560.137 1965.89 563.42 1973.48 569.986C1981.06 576.552 1984.91 585.009 1985.01 595.356H1960.3C1960.2 590.978 1958.65 587.446 1955.66 584.76C1952.76 582.074 1948.92 580.731 1944.13 580.731C1939.83 580.731 1936.34 581.726 1933.64 583.716C1930.95 585.606 1929.6 588.193 1929.6 591.476C1929.6 594.46 1931.05 596.898 1933.94 598.788C1936.84 600.579 1940.43 601.822 1944.72 602.519C1949.02 603.215 1953.71 604.21 1958.8 605.504C1963.89 606.797 1968.58 608.339 1972.88 610.13C1977.17 611.821 1980.76 614.756 1983.66 618.934C1986.55 623.014 1988 628.087 1988 634.156C1988 644.304 1983.91 652.363 1975.72 658.332C1967.64 664.202 1957.1 667.137 1944.13 667.137C1931.45 667.137 1921.12 663.903 1913.13 657.437C1905.24 650.97 1901.2 642.314 1901 631.47H1926.46C1926.56 635.848 1928.3 639.479 1931.7 642.364C1935.09 645.15 1939.63 646.543 1945.32 646.543C1950.22 646.543 1954.21 645.498 1957.3 643.409C1960.5 641.319 1962.09 638.583 1962.09 635.201C1962.09 632.316 1960.65 629.978 1957.75 628.187C1954.86 626.396 1951.26 625.153 1946.97 624.456C1942.68 623.76 1937.99 622.765 1932.9 621.471C1927.8 620.079 1923.11 618.537 1918.82 616.845C1914.53 615.154 1910.93 612.269 1908.04 608.19C1905.14 604.111 1903.7 599.087 1903.7 593.117C1903.7 583.069 1907.49 575.06 1915.08 569.091C1922.66 563.121 1932.55 560.137 1944.72 560.137Z" fill="white"/>
<path d="M1805 568.137L1765.33 631.104V672.137H1739.97V631.85L1700 568.137H1728.64L1752.5 609.916L1776.36 568.137H1805Z" fill="white"/>
<path d="M1511.2 580.209C1521.33 570.161 1534.26 565.137 1550 565.137C1565.74 565.137 1578.67 570.161 1588.8 580.209C1598.93 590.258 1604 603.042 1604 618.562C1604 634.082 1598.93 646.916 1588.8 657.064C1578.67 667.113 1565.74 672.137 1550 672.137C1534.26 672.137 1521.33 667.113 1511.2 657.064C1501.07 646.916 1496 634.082 1496 618.562C1496 603.042 1501.07 590.258 1511.2 580.209ZM1570.36 596.923C1565.05 591.252 1558.26 588.417 1550 588.417C1541.74 588.417 1534.9 591.252 1529.49 596.923C1524.18 602.495 1521.52 609.658 1521.52 618.413C1521.52 627.267 1524.18 634.58 1529.49 640.35C1534.9 646.021 1541.74 648.856 1550 648.856C1558.26 648.856 1565.05 646.021 1570.36 640.35C1575.77 634.58 1578.48 627.267 1578.48 618.413C1578.48 609.658 1575.77 602.495 1570.36 596.923Z" fill="white"/>
</svg>
