<svg width="855" height="431" viewBox="0 0 855 431" fill="none" xmlns="http://www.w3.org/2000/svg">
<g clip-path="url(#clip0_1773_196)">
<rect width="855" height="431" rx="78" fill="#725252"/>
<rect x="-60" y="-7" width="915" height="438" fill="black"/>
<path d="M102.76 238.48C98.7867 238.48 95.68 237.373 93.44 235.16C91.2 232.947 90.08 229.787 90.08 225.68V210H96.56V225.44C96.56 228.107 97.1067 230.027 98.2 231.2C99.2933 232.373 100.827 232.96 102.8 232.96C104.773 232.96 106.307 232.373 107.4 231.2C108.493 230.027 109.04 228.107 109.04 225.44V210H115.44V225.68C115.44 229.787 114.32 232.947 112.08 235.16C109.84 237.373 106.733 238.48 102.76 238.48ZM135.403 238.48C133.217 238.48 131.177 238.12 129.283 237.4C127.417 236.68 125.79 235.667 124.403 234.36C123.043 233.053 121.977 231.52 121.203 229.76C120.457 228 120.083 226.08 120.083 224C120.083 221.92 120.457 220 121.203 218.24C121.977 216.48 123.057 214.947 124.443 213.64C125.83 212.333 127.457 211.32 129.323 210.6C131.19 209.88 133.217 209.52 135.403 209.52C137.617 209.52 139.643 209.88 141.483 210.6C143.35 211.32 144.963 212.333 146.323 213.64C147.71 214.92 148.79 216.44 149.563 218.2C150.337 219.96 150.723 221.893 150.723 224C150.723 226.08 150.337 228.013 149.563 229.8C148.79 231.56 147.71 233.093 146.323 234.4C144.963 235.68 143.35 236.68 141.483 237.4C139.643 238.12 137.617 238.48 135.403 238.48ZM144.563 244.44C143.47 244.44 142.43 244.32 141.443 244.08C140.483 243.84 139.523 243.453 138.563 242.92C137.63 242.387 136.643 241.667 135.603 240.76C134.59 239.853 133.483 238.733 132.283 237.4L139.083 235.68C139.803 236.667 140.47 237.453 141.083 238.04C141.697 238.627 142.283 239.04 142.843 239.28C143.43 239.52 144.043 239.64 144.683 239.64C146.39 239.64 147.91 238.947 149.243 237.56L152.123 241C150.23 243.293 147.71 244.44 144.563 244.44ZM135.403 232.96C136.657 232.96 137.803 232.747 138.843 232.32C139.91 231.893 140.843 231.28 141.643 230.48C142.443 229.68 143.057 228.733 143.483 227.64C143.937 226.52 144.163 225.307 144.163 224C144.163 222.667 143.937 221.453 143.483 220.36C143.057 219.267 142.443 218.32 141.643 217.52C140.843 216.72 139.91 216.107 138.843 215.68C137.803 215.253 136.657 215.04 135.403 215.04C134.15 215.04 132.99 215.253 131.923 215.68C130.857 216.107 129.923 216.72 129.123 217.52C128.35 218.32 127.737 219.267 127.283 220.36C126.857 221.453 126.643 222.667 126.643 224C126.643 225.307 126.857 226.52 127.283 227.64C127.737 228.733 128.35 229.68 129.123 230.48C129.923 231.28 130.857 231.893 131.923 232.32C132.99 232.747 134.15 232.96 135.403 232.96ZM155.593 238V210H169.273C172.793 210 175.433 210.667 177.193 212C178.98 213.333 179.873 215.093 179.873 217.28C179.873 218.747 179.513 220.027 178.793 221.12C178.073 222.187 177.087 223.013 175.833 223.6C174.58 224.187 173.14 224.48 171.513 224.48L172.273 222.84C174.033 222.84 175.593 223.133 176.953 223.72C178.313 224.28 179.367 225.12 180.113 226.24C180.887 227.36 181.273 228.733 181.273 230.36C181.273 232.76 180.327 234.64 178.433 236C176.54 237.333 173.753 238 170.073 238H155.593ZM162.033 233.12H169.593C171.273 233.12 172.54 232.853 173.393 232.32C174.273 231.76 174.713 230.88 174.713 229.68C174.713 228.507 174.273 227.64 173.393 227.08C172.54 226.493 171.273 226.2 169.593 226.2H161.553V221.48H168.473C170.047 221.48 171.247 221.213 172.073 220.68C172.927 220.12 173.353 219.28 173.353 218.16C173.353 217.067 172.927 216.253 172.073 215.72C171.247 215.16 170.047 214.88 168.473 214.88H162.033V233.12ZM191.339 238.48C189.446 238.48 187.699 238.133 186.099 237.44C184.526 236.72 183.233 235.707 182.219 234.4L185.819 230.08C186.593 231.093 187.406 231.867 188.259 232.4C189.113 232.907 190.033 233.16 191.019 233.16C193.659 233.16 194.979 231.613 194.979 228.52V215.2H185.139V210H201.419V228.16C201.419 231.627 200.566 234.213 198.859 235.92C197.153 237.627 194.646 238.48 191.339 238.48ZM217.66 238.48C215.313 238.48 213.26 238.133 211.5 237.44C209.74 236.72 208.367 235.72 207.38 234.44C206.393 233.133 205.9 231.613 205.9 229.88C205.9 228.147 206.38 226.68 207.34 225.48C208.327 224.253 209.7 223.333 211.46 222.72C213.22 222.08 215.287 221.76 217.66 221.76C220.06 221.76 222.14 222.08 223.9 222.72C225.687 223.333 227.06 224.253 228.02 225.48C229.007 226.68 229.5 228.147 229.5 229.88C229.5 231.613 229.007 233.133 228.02 234.44C227.033 235.72 225.647 236.72 223.86 237.44C222.1 238.133 220.033 238.48 217.66 238.48ZM217.66 233.72C219.287 233.72 220.567 233.36 221.5 232.64C222.46 231.92 222.94 230.933 222.94 229.68C222.94 228.427 222.46 227.453 221.5 226.76C220.567 226.04 219.287 225.68 217.66 225.68C216.06 225.68 214.793 226.04 213.86 226.76C212.927 227.453 212.46 228.427 212.46 229.68C212.46 230.933 212.927 231.92 213.86 232.64C214.793 233.36 216.06 233.72 217.66 233.72ZM217.66 225.04C215.5 225.04 213.607 224.747 211.98 224.16C210.38 223.573 209.127 222.72 208.22 221.6C207.34 220.453 206.9 219.093 206.9 217.52C206.9 215.867 207.353 214.453 208.26 213.28C209.167 212.08 210.433 211.16 212.06 210.52C213.687 209.853 215.553 209.52 217.66 209.52C219.82 209.52 221.7 209.853 223.3 210.52C224.927 211.16 226.193 212.08 227.1 213.28C228.033 214.453 228.5 215.867 228.5 217.52C228.5 219.093 228.047 220.453 227.14 221.6C226.26 222.72 225.007 223.573 223.38 224.16C221.753 224.747 219.847 225.04 217.66 225.04ZM217.66 221.24C219.02 221.24 220.087 220.933 220.86 220.32C221.66 219.707 222.06 218.867 222.06 217.8C222.06 216.68 221.647 215.813 220.82 215.2C220.02 214.587 218.967 214.28 217.66 214.28C216.38 214.28 215.34 214.587 214.54 215.2C213.74 215.813 213.34 216.68 213.34 217.8C213.34 218.867 213.727 219.707 214.5 220.32C215.273 220.933 216.327 221.24 217.66 221.24ZM243.906 246.08C241.88 246.08 239.92 245.827 238.026 245.32C236.16 244.84 234.6 244.107 233.346 243.12L235.826 238.64C236.733 239.387 237.88 239.973 239.266 240.4C240.68 240.853 242.066 241.08 243.426 241.08C245.64 241.08 247.24 240.587 248.226 239.6C249.24 238.613 249.746 237.147 249.746 235.2V231.96L250.146 226.56L250.066 221.12V216.48H255.986V234.4C255.986 238.4 254.946 241.347 252.866 243.24C250.786 245.133 247.8 246.08 243.906 246.08ZM242.946 236.96C240.946 236.96 239.133 236.533 237.506 235.68C235.906 234.8 234.613 233.587 233.626 232.04C232.666 230.467 232.186 228.64 232.186 226.56C232.186 224.453 232.666 222.627 233.626 221.08C234.613 219.507 235.906 218.293 237.506 217.44C239.133 216.587 240.946 216.16 242.946 216.16C244.76 216.16 246.36 216.533 247.746 217.28C249.133 218 250.213 219.133 250.986 220.68C251.76 222.2 252.146 224.16 252.146 226.56C252.146 228.933 251.76 230.893 250.986 232.44C250.213 233.96 249.133 235.093 247.746 235.84C246.36 236.587 244.76 236.96 242.946 236.96ZM244.186 231.84C245.28 231.84 246.253 231.627 247.106 231.2C247.96 230.747 248.626 230.12 249.106 229.32C249.586 228.52 249.826 227.6 249.826 226.56C249.826 225.493 249.586 224.573 249.106 223.8C248.626 223 247.96 222.387 247.106 221.96C246.253 221.507 245.28 221.28 244.186 221.28C243.093 221.28 242.12 221.507 241.266 221.96C240.413 222.387 239.733 223 239.226 223.8C238.746 224.573 238.506 225.493 238.506 226.56C238.506 227.6 238.746 228.52 239.226 229.32C239.733 230.12 240.413 230.747 241.266 231.2C242.12 231.627 243.093 231.84 244.186 231.84ZM261.794 238V216.48H268.034V238H261.794ZM264.914 213.48C263.767 213.48 262.834 213.147 262.114 212.48C261.394 211.813 261.034 210.987 261.034 210C261.034 209.013 261.394 208.187 262.114 207.52C262.834 206.853 263.767 206.52 264.914 206.52C266.061 206.52 266.994 206.84 267.714 207.48C268.434 208.093 268.794 208.893 268.794 209.88C268.794 210.92 268.434 211.787 267.714 212.48C267.021 213.147 266.087 213.48 264.914 213.48ZM279.624 238V226.56L281.104 230.48L268.784 210H275.664L285.104 225.72H281.144L290.624 210H296.984L284.664 230.48L286.104 226.56V238H279.624ZM305.438 238L296.278 210H302.998L310.958 234.8H307.598L315.918 210H321.918L329.918 234.8H326.678L334.838 210H341.038L331.878 238H324.918L317.838 216.24H319.678L312.398 238H305.438ZM353.294 238.32C350.841 238.32 348.681 237.84 346.814 236.88C344.974 235.92 343.548 234.613 342.534 232.96C341.521 231.28 341.014 229.373 341.014 227.24C341.014 225.08 341.508 223.173 342.494 221.52C343.508 219.84 344.881 218.533 346.614 217.6C348.348 216.64 350.308 216.16 352.494 216.16C354.601 216.16 356.494 216.613 358.174 217.52C359.881 218.4 361.228 219.68 362.214 221.36C363.201 223.013 363.694 225 363.694 227.32C363.694 227.56 363.681 227.84 363.654 228.16C363.628 228.453 363.601 228.733 363.574 229H346.094V225.36H360.294L357.894 226.44C357.894 225.32 357.668 224.347 357.214 223.52C356.761 222.693 356.134 222.053 355.334 221.6C354.534 221.12 353.601 220.88 352.534 220.88C351.468 220.88 350.521 221.12 349.694 221.6C348.894 222.053 348.268 222.707 347.814 223.56C347.361 224.387 347.134 225.373 347.134 226.52V227.48C347.134 228.653 347.388 229.693 347.894 230.6C348.428 231.48 349.161 232.16 350.094 232.64C351.054 233.093 352.174 233.32 353.454 233.32C354.601 233.32 355.601 233.147 356.454 232.8C357.334 232.453 358.134 231.933 358.854 231.24L362.174 234.84C361.188 235.96 359.948 236.827 358.454 237.44C356.961 238.027 355.241 238.32 353.294 238.32ZM378.249 238.32C375.929 238.32 373.862 237.853 372.049 236.92C370.235 235.96 368.809 234.64 367.769 232.96C366.755 231.28 366.249 229.373 366.249 227.24C366.249 225.08 366.755 223.173 367.769 221.52C368.809 219.84 370.235 218.533 372.049 217.6C373.862 216.64 375.929 216.16 378.249 216.16C380.515 216.16 382.489 216.64 384.169 217.6C385.849 218.533 387.089 219.88 387.889 221.64L383.049 224.24C382.489 223.227 381.782 222.48 380.929 222C380.102 221.52 379.195 221.28 378.209 221.28C377.142 221.28 376.182 221.52 375.329 222C374.475 222.48 373.795 223.16 373.289 224.04C372.809 224.92 372.569 225.987 372.569 227.24C372.569 228.493 372.809 229.56 373.289 230.44C373.795 231.32 374.475 232 375.329 232.48C376.182 232.96 377.142 233.2 378.209 233.2C379.195 233.2 380.102 232.973 380.929 232.52C381.782 232.04 382.489 231.28 383.049 230.24L387.889 232.88C387.089 234.613 385.849 235.96 384.169 236.92C382.489 237.853 380.515 238.32 378.249 238.32ZM396.089 238L388.329 216.48H394.209L400.649 235H397.849L404.569 216.48H409.849L416.369 235H413.569L420.209 216.48H425.729L417.929 238H411.889L406.169 222.12H408.009L402.089 238H396.089ZM434.87 231.6L434.51 224.12L447.91 210H455.11L443.03 223L439.43 226.84L434.87 231.6ZM429.07 238V210H435.51V238H429.07ZM448.23 238L438.27 225.8L442.51 221.2L455.79 238H448.23ZM462.021 238V212.4L464.821 215.2H456.421V210H468.501V238H462.021ZM474.685 238V216.48H480.645V222.56L479.805 220.8C480.445 219.28 481.471 218.133 482.885 217.36C484.298 216.56 486.018 216.16 488.045 216.16V221.92C487.778 221.893 487.538 221.88 487.325 221.88C487.111 221.853 486.885 221.84 486.645 221.84C484.938 221.84 483.551 222.333 482.485 223.32C481.445 224.28 480.925 225.787 480.925 227.84V238H474.685ZM497.511 238.48C495.618 238.48 493.871 238.133 492.271 237.44C490.698 236.72 489.405 235.707 488.391 234.4L491.991 230.08C492.765 231.093 493.578 231.867 494.431 232.4C495.285 232.907 496.205 233.16 497.191 233.16C499.831 233.16 501.151 231.613 501.151 228.52V215.2H491.311V210H507.591V228.16C507.591 231.627 506.738 234.213 505.031 235.92C503.325 237.627 500.818 238.48 497.511 238.48ZM516.272 246.08C515.152 246.08 514.045 245.907 512.952 245.56C511.859 245.213 510.965 244.733 510.272 244.12L512.552 239.68C513.032 240.107 513.579 240.44 514.192 240.68C514.832 240.92 515.459 241.04 516.072 241.04C516.952 241.04 517.645 240.827 518.152 240.4C518.685 240 519.165 239.32 519.592 238.36L520.712 235.72L521.192 235.04L528.912 216.48H534.912L525.192 239.32C524.499 241.053 523.699 242.413 522.792 243.4C521.912 244.387 520.925 245.08 519.832 245.48C518.765 245.88 517.579 246.08 516.272 246.08ZM519.952 238.84L510.352 216.48H516.792L524.232 234.48L519.952 238.84ZM547.189 209.52C549.776 209.52 552.002 210.053 553.869 211.12C555.736 212.187 557.176 213.747 558.189 215.8C559.202 217.827 559.709 220.36 559.709 223.4C559.709 226.627 559.096 229.36 557.869 231.6C556.669 233.84 555.002 235.547 552.869 236.72C550.736 237.893 548.256 238.48 545.429 238.48C543.962 238.48 542.549 238.32 541.189 238C539.829 237.68 538.656 237.2 537.669 236.56L540.069 231.8C540.842 232.333 541.669 232.707 542.549 232.92C543.429 233.107 544.349 233.2 545.309 233.2C547.709 233.2 549.616 232.467 551.029 231C552.469 229.533 553.189 227.36 553.189 224.48C553.189 224 553.176 223.467 553.149 222.88C553.122 222.293 553.056 221.707 552.949 221.12L554.709 222.8C554.256 223.84 553.616 224.72 552.789 225.44C551.962 226.133 551.002 226.667 549.909 227.04C548.816 227.387 547.589 227.56 546.229 227.56C544.442 227.56 542.816 227.2 541.349 226.48C539.909 225.76 538.749 224.747 537.869 223.44C537.016 222.133 536.589 220.6 536.589 218.84C536.589 216.92 537.056 215.267 537.989 213.88C538.949 212.493 540.229 211.427 541.829 210.68C543.456 209.907 545.242 209.52 547.189 209.52ZM547.589 214.36C546.656 214.36 545.842 214.533 545.149 214.88C544.456 215.2 543.909 215.68 543.509 216.32C543.109 216.933 542.909 217.667 542.909 218.52C542.909 219.8 543.336 220.827 544.189 221.6C545.069 222.347 546.229 222.72 547.669 222.72C548.602 222.72 549.429 222.547 550.149 222.2C550.896 221.827 551.469 221.32 551.869 220.68C552.269 220.04 552.469 219.32 552.469 218.52C552.469 217.72 552.269 217.013 551.869 216.4C551.496 215.76 550.949 215.267 550.229 214.92C549.509 214.547 548.629 214.36 547.589 214.36ZM574.538 238.32C572.218 238.32 570.151 237.853 568.338 236.92C566.524 235.96 565.098 234.64 564.058 232.96C563.044 231.28 562.538 229.373 562.538 227.24C562.538 225.08 563.044 223.173 564.058 221.52C565.098 219.84 566.524 218.533 568.338 217.6C570.151 216.64 572.218 216.16 574.538 216.16C576.804 216.16 578.778 216.64 580.458 217.6C582.138 218.533 583.378 219.88 584.178 221.64L579.338 224.24C578.778 223.227 578.071 222.48 577.218 222C576.391 221.52 575.484 221.28 574.498 221.28C573.431 221.28 572.471 221.52 571.618 222C570.764 222.48 570.084 223.16 569.578 224.04C569.098 224.92 568.858 225.987 568.858 227.24C568.858 228.493 569.098 229.56 569.578 230.44C570.084 231.32 570.764 232 571.618 232.48C572.471 232.96 573.431 233.2 574.498 233.2C575.484 233.2 576.391 232.973 577.218 232.52C578.071 232.04 578.778 231.28 579.338 230.24L584.178 232.88C583.378 234.613 582.138 235.96 580.458 236.92C578.778 237.853 576.804 238.32 574.538 238.32ZM600.733 216.16C602.44 216.16 603.96 216.507 605.293 217.2C606.653 217.867 607.72 218.907 608.493 220.32C609.267 221.707 609.653 223.493 609.653 225.68V238H603.413V226.64C603.413 224.907 603.027 223.627 602.253 222.8C601.507 221.973 600.44 221.56 599.053 221.56C598.067 221.56 597.173 221.773 596.373 222.2C595.6 222.6 594.987 223.227 594.533 224.08C594.107 224.933 593.893 226.027 593.893 227.36V238H587.653V208.32H593.893V222.44L592.493 220.64C593.267 219.2 594.373 218.093 595.813 217.32C597.253 216.547 598.893 216.16 600.733 216.16ZM621.75 222.6H635.19V227.8H621.75V222.6ZM622.23 238H615.75V210H636.91V215.2H622.23V238ZM642.826 238.32C641.759 238.32 640.839 237.96 640.066 237.24C639.319 236.493 638.946 235.547 638.946 234.4C638.946 233.253 639.319 232.333 640.066 231.64C640.839 230.92 641.759 230.56 642.826 230.56C643.919 230.56 644.839 230.92 645.586 231.64C646.333 232.333 646.706 233.253 646.706 234.4C646.706 235.547 646.333 236.493 645.586 237.24C644.839 237.96 643.919 238.32 642.826 238.32ZM653.295 238.32C652.228 238.32 651.308 237.96 650.535 237.24C649.788 236.493 649.415 235.547 649.415 234.4C649.415 233.253 649.788 232.333 650.535 231.64C651.308 230.92 652.228 230.56 653.295 230.56C654.388 230.56 655.308 230.92 656.055 231.64C656.801 232.333 657.175 233.253 657.175 234.4C657.175 235.547 656.801 236.493 656.055 237.24C655.308 237.96 654.388 238.32 653.295 238.32ZM663.763 238.32C662.697 238.32 661.777 237.96 661.003 237.24C660.257 236.493 659.883 235.547 659.883 234.4C659.883 233.253 660.257 232.333 661.003 231.64C661.777 230.92 662.697 230.56 663.763 230.56C664.857 230.56 665.777 230.92 666.523 231.64C667.27 232.333 667.643 233.253 667.643 234.4C667.643 235.547 667.27 236.493 666.523 237.24C665.777 237.96 664.857 238.32 663.763 238.32Z" fill="#244ED8"/>
<rect x="87" y="62" width="305" height="97" rx="48.5" fill="#1C1917"/>
<path d="M136.656 121.88V102.648H125.936L125.744 108.088C125.68 109.773 125.573 111.395 125.424 112.952C125.296 114.488 125.083 115.875 124.784 117.112C124.507 118.328 124.123 119.32 123.632 120.088C123.163 120.856 122.544 121.304 121.776 121.432L119.184 120.952C120.037 120.995 120.741 120.685 121.296 120.024C121.872 119.363 122.309 118.435 122.608 117.24C122.928 116.045 123.163 114.648 123.312 113.048C123.461 111.448 123.568 109.72 123.632 107.864L123.888 100.6H138.992V121.88H136.656ZM118.352 128.024L118.384 120.952H142.352V128.024H140.144V123H120.592L120.56 128.024H118.352ZM153.082 123.16C151.46 123.16 149.999 122.797 148.698 122.072C147.418 121.325 146.404 120.312 145.658 119.032C144.911 117.731 144.538 116.248 144.538 114.584C144.538 112.899 144.911 111.416 145.658 110.136C146.404 108.856 147.418 107.853 148.698 107.128C149.978 106.403 151.439 106.04 153.082 106.04C154.746 106.04 156.218 106.403 157.498 107.128C158.799 107.853 159.812 108.856 160.538 110.136C161.284 111.416 161.658 112.899 161.658 114.584C161.658 116.248 161.284 117.731 160.538 119.032C159.812 120.312 158.799 121.325 157.498 122.072C156.196 122.797 154.724 123.16 153.082 123.16ZM153.082 121.144C154.298 121.144 155.375 120.877 156.314 120.344C157.252 119.789 157.988 119.021 158.522 118.04C159.076 117.037 159.354 115.885 159.354 114.584C159.354 113.261 159.076 112.109 158.522 111.128C157.988 110.147 157.252 109.389 156.314 108.856C155.375 108.301 154.308 108.024 153.114 108.024C151.919 108.024 150.852 108.301 149.914 108.856C148.975 109.389 148.228 110.147 147.674 111.128C147.119 112.109 146.842 113.261 146.842 114.584C146.842 115.885 147.119 117.037 147.674 118.04C148.228 119.021 148.975 119.789 149.914 120.344C150.852 120.877 151.908 121.144 153.082 121.144ZM163.348 122.968L163.508 121.016C163.657 121.037 163.796 121.069 163.924 121.112C164.073 121.133 164.201 121.144 164.308 121.144C164.99 121.144 165.534 120.888 165.94 120.376C166.366 119.864 166.686 119.181 166.9 118.328C167.113 117.475 167.262 116.515 167.348 115.448C167.433 114.36 167.508 113.272 167.572 112.184L167.86 106.2H180.18V123H177.908V107.512L178.484 108.184H169.332L169.876 107.48L169.62 112.344C169.556 113.795 169.438 115.181 169.268 116.504C169.118 117.827 168.873 118.989 168.532 119.992C168.212 120.995 167.764 121.784 167.188 122.36C166.612 122.915 165.876 123.192 164.98 123.192C164.724 123.192 164.457 123.171 164.18 123.128C163.924 123.085 163.646 123.032 163.348 122.968ZM197.486 123V116.952L197.902 117.432H192.206C190.052 117.432 188.366 116.963 187.15 116.024C185.934 115.085 185.326 113.72 185.326 111.928C185.326 110.008 185.977 108.579 187.278 107.64C188.58 106.68 190.318 106.2 192.494 106.2H199.566V123H197.486ZM185.198 123L189.806 116.536H192.174L187.662 123H185.198ZM197.486 116.28V107.512L197.902 108.184H192.558C191.001 108.184 189.785 108.483 188.91 109.08C188.057 109.677 187.63 110.648 187.63 111.992C187.63 114.488 189.22 115.736 192.398 115.736H197.902L197.486 116.28ZM226.74 123L219.828 114.68L221.716 113.56L229.428 123H226.74ZM214.42 123V106.2H216.692V123H214.42ZM215.988 115.512V113.56H221.396V115.512H215.988ZM221.908 114.84L219.796 114.52L226.484 106.2H228.948L221.908 114.84ZM239.332 123.16C237.71 123.16 236.249 122.797 234.948 122.072C233.668 121.325 232.654 120.312 231.908 119.032C231.161 117.731 230.788 116.248 230.788 114.584C230.788 112.899 231.161 111.416 231.908 110.136C232.654 108.856 233.668 107.853 234.948 107.128C236.228 106.403 237.689 106.04 239.332 106.04C240.996 106.04 242.468 106.403 243.748 107.128C245.049 107.853 246.062 108.856 246.788 110.136C247.534 111.416 247.908 112.899 247.908 114.584C247.908 116.248 247.534 117.731 246.788 119.032C246.062 120.312 245.049 121.325 243.748 122.072C242.446 122.797 240.974 123.16 239.332 123.16ZM239.332 121.144C240.548 121.144 241.625 120.877 242.564 120.344C243.502 119.789 244.238 119.021 244.772 118.04C245.326 117.037 245.604 115.885 245.604 114.584C245.604 113.261 245.326 112.109 244.772 111.128C244.238 110.147 243.502 109.389 242.564 108.856C241.625 108.301 240.558 108.024 239.364 108.024C238.169 108.024 237.102 108.301 236.164 108.856C235.225 109.389 234.478 110.147 233.924 111.128C233.369 112.109 233.092 113.261 233.092 114.584C233.092 115.885 233.369 117.037 233.924 118.04C234.478 119.021 235.225 119.789 236.164 120.344C237.102 120.877 238.158 121.144 239.332 121.144ZM252.763 123V106.2H255.067L262.683 119.096H261.723L269.467 106.2H271.579V123H269.499V108.792L269.915 108.984L262.683 120.952H261.659L254.363 108.856L254.843 108.76V123H252.763ZM288.477 123V119.288L288.381 118.68V112.472C288.381 111.043 287.975 109.944 287.165 109.176C286.375 108.408 285.191 108.024 283.613 108.024C282.525 108.024 281.49 108.205 280.509 108.568C279.527 108.931 278.695 109.411 278.013 110.008L276.989 108.312C277.842 107.587 278.866 107.032 280.061 106.648C281.255 106.243 282.514 106.04 283.837 106.04C286.013 106.04 287.687 106.584 288.861 107.672C290.055 108.739 290.653 110.371 290.653 112.568V123H288.477ZM282.685 123.16C281.426 123.16 280.327 122.957 279.389 122.552C278.471 122.125 277.767 121.549 277.277 120.824C276.786 120.077 276.541 119.224 276.541 118.264C276.541 117.389 276.743 116.6 277.149 115.896C277.575 115.171 278.258 114.595 279.197 114.168C280.157 113.72 281.437 113.496 283.036 113.496H288.829V115.192H283.101C281.479 115.192 280.349 115.48 279.709 116.056C279.09 116.632 278.781 117.347 278.781 118.2C278.781 119.16 279.154 119.928 279.901 120.504C280.647 121.08 281.693 121.368 283.036 121.368C284.317 121.368 285.415 121.08 286.333 120.504C287.271 119.907 287.954 119.053 288.381 117.944L288.893 119.512C288.466 120.621 287.719 121.507 286.653 122.168C285.607 122.829 284.285 123.16 282.685 123.16ZM296.701 123V106.2H298.973V113.624H309.565V106.2H311.837V123H309.565V115.576H298.973V123H296.701ZM329.815 121.912V108.184H321.719L321.527 111.928C321.484 113.059 321.409 114.168 321.303 115.256C321.217 116.344 321.057 117.347 320.823 118.264C320.609 119.16 320.3 119.896 319.895 120.472C319.489 121.027 318.967 121.347 318.327 121.432L316.055 121.016C316.716 121.037 317.26 120.803 317.687 120.312C318.113 119.8 318.444 119.107 318.679 118.232C318.913 117.357 319.084 116.365 319.191 115.256C319.297 114.125 319.383 112.973 319.447 111.8L319.671 106.2H332.087V121.912H329.815ZM315.351 127.064V121.016H334.711V127.064H332.567V123H317.495V127.064H315.351ZM355.522 123V106.2H357.794V123H355.522ZM346.21 112.12C348.322 112.141 349.933 112.611 351.042 113.528C352.152 114.445 352.706 115.768 352.706 117.496C352.706 119.288 352.109 120.664 350.914 121.624C349.72 122.584 348.013 123.053 345.794 123.032L339.138 123V106.2H341.41V112.056L346.21 112.12ZM345.634 121.304C347.213 121.325 348.397 121.016 349.186 120.376C349.997 119.715 350.402 118.755 350.402 117.496C350.402 116.237 350.008 115.32 349.218 114.744C348.429 114.147 347.234 113.837 345.634 113.816L341.41 113.752V121.24L345.634 121.304Z" fill="#244ED8"/>
<path d="M87 350L108.154 320.845L113.923 341.67L132 311" stroke="#009D4A" stroke-width="4" stroke-linecap="round"/>
<path d="M151.488 341.944V336.712L167.328 315.4H175.488L159.984 336.712L156.192 335.608H182.64V341.944H151.488ZM169.584 349V341.944L169.824 335.608V329.32H177.168V349H169.584ZM188.373 349L201.909 318.376L203.925 321.736H185.829L189.285 318.088V327.208H182.373V315.4H209.301V320.44L196.821 349H188.373ZM214.882 349.384C213.602 349.384 212.498 348.952 211.57 348.088C210.674 347.192 210.226 346.056 210.226 344.68C210.226 343.304 210.674 342.2 211.57 341.368C212.498 340.504 213.602 340.072 214.882 340.072C216.194 340.072 217.298 340.504 218.194 341.368C219.09 342.2 219.538 343.304 219.538 344.68C219.538 346.056 219.09 347.192 218.194 348.088C217.298 348.952 216.194 349.384 214.882 349.384ZM234.452 349.576C232.116 349.576 229.796 349.272 227.492 348.664C225.22 348.024 223.268 347.128 221.636 345.976L224.708 340.024C225.988 340.952 227.46 341.688 229.124 342.232C230.82 342.776 232.532 343.048 234.26 343.048C236.212 343.048 237.748 342.664 238.868 341.896C239.988 341.128 240.548 340.056 240.548 338.68C240.548 337.816 240.324 337.048 239.876 336.376C239.428 335.704 238.628 335.192 237.476 334.84C236.356 334.488 234.772 334.312 232.724 334.312H224.132L225.86 315.4H246.356V321.64H228.644L232.676 318.088L231.476 331.576L227.444 328.024H234.548C237.876 328.024 240.548 328.488 242.564 329.416C244.612 330.312 246.1 331.544 247.028 333.112C247.956 334.68 248.42 336.456 248.42 338.44C248.42 340.424 247.924 342.264 246.932 343.96C245.94 345.624 244.404 346.984 242.324 348.04C240.276 349.064 237.652 349.576 234.452 349.576ZM265.495 349.576C262.679 349.576 260.215 349.16 258.103 348.328C255.991 347.464 254.343 346.264 253.159 344.728C251.975 343.16 251.383 341.336 251.383 339.256C251.383 337.176 251.959 335.416 253.111 333.976C254.295 332.504 255.943 331.4 258.055 330.664C260.167 329.896 262.647 329.512 265.495 329.512C268.375 329.512 270.871 329.896 272.983 330.664C275.127 331.4 276.775 332.504 277.927 333.976C279.111 335.416 279.703 337.176 279.703 339.256C279.703 341.336 279.111 343.16 277.927 344.728C276.743 346.264 275.079 347.464 272.935 348.328C270.823 349.16 268.343 349.576 265.495 349.576ZM265.495 343.864C267.447 343.864 268.983 343.432 270.103 342.568C271.255 341.704 271.831 340.52 271.831 339.016C271.831 337.512 271.255 336.344 270.103 335.512C268.983 334.648 267.447 334.216 265.495 334.216C263.575 334.216 262.055 334.648 260.935 335.512C259.815 336.344 259.255 337.512 259.255 339.016C259.255 340.52 259.815 341.704 260.935 342.568C262.055 343.432 263.575 343.864 265.495 343.864ZM265.495 333.448C262.903 333.448 260.631 333.096 258.679 332.392C256.759 331.688 255.255 330.664 254.167 329.32C253.111 327.944 252.583 326.312 252.583 324.424C252.583 322.44 253.127 320.744 254.215 319.336C255.303 317.896 256.823 316.792 258.775 316.024C260.727 315.224 262.967 314.824 265.495 314.824C268.087 314.824 270.343 315.224 272.263 316.024C274.215 316.792 275.735 317.896 276.823 319.336C277.943 320.744 278.503 322.44 278.503 324.424C278.503 326.312 277.959 327.944 276.871 329.32C275.815 330.664 274.311 331.688 272.359 332.392C270.407 333.096 268.119 333.448 265.495 333.448ZM265.495 328.888C267.127 328.888 268.407 328.52 269.335 327.784C270.295 327.048 270.775 326.04 270.775 324.76C270.775 323.416 270.279 322.376 269.287 321.64C268.327 320.904 267.063 320.536 265.495 320.536C263.959 320.536 262.711 320.904 261.751 321.64C260.791 322.376 260.311 323.416 260.311 324.76C260.311 326.04 260.775 327.048 261.703 327.784C262.631 328.52 263.895 328.888 265.495 328.888ZM297.663 349.576C294.911 349.576 292.447 348.904 290.271 347.56C288.095 346.184 286.383 344.2 285.135 341.608C283.887 339.016 283.263 335.88 283.263 332.2C283.263 328.52 283.887 325.384 285.135 322.792C286.383 320.2 288.095 318.232 290.271 316.888C292.447 315.512 294.911 314.824 297.663 314.824C300.447 314.824 302.911 315.512 305.055 316.888C307.231 318.232 308.943 320.2 310.191 322.792C311.439 325.384 312.063 328.52 312.063 332.2C312.063 335.88 311.439 339.016 310.191 341.608C308.943 344.2 307.231 346.184 305.055 347.56C302.911 348.904 300.447 349.576 297.663 349.576ZM297.663 343C298.975 343 300.111 342.632 301.071 341.896C302.063 341.16 302.831 339.992 303.375 338.392C303.951 336.792 304.239 334.728 304.239 332.2C304.239 329.672 303.951 327.608 303.375 326.008C302.831 324.408 302.063 323.24 301.071 322.504C300.111 321.768 298.975 321.4 297.663 321.4C296.383 321.4 295.247 321.768 294.255 322.504C293.295 323.24 292.527 324.408 291.951 326.008C291.407 327.608 291.135 329.672 291.135 332.2C291.135 334.728 291.407 336.792 291.951 338.392C292.527 339.992 293.295 341.16 294.255 341.896C295.247 342.632 296.383 343 297.663 343ZM319.647 349.384C318.367 349.384 317.263 348.952 316.335 348.088C315.439 347.192 314.991 346.056 314.991 344.68C314.991 343.304 315.439 342.2 316.335 341.368C317.263 340.504 318.367 340.072 319.647 340.072C320.959 340.072 322.063 340.504 322.959 341.368C323.855 342.2 324.303 343.304 324.303 344.68C324.303 346.056 323.855 347.192 322.959 348.088C322.063 348.952 320.959 349.384 319.647 349.384ZM341.585 349.576C338.833 349.576 336.369 348.904 334.193 347.56C332.017 346.184 330.305 344.2 329.057 341.608C327.809 339.016 327.185 335.88 327.185 332.2C327.185 328.52 327.809 325.384 329.057 322.792C330.305 320.2 332.017 318.232 334.193 316.888C336.369 315.512 338.833 314.824 341.585 314.824C344.369 314.824 346.833 315.512 348.977 316.888C351.153 318.232 352.865 320.2 354.113 322.792C355.361 325.384 355.985 328.52 355.985 332.2C355.985 335.88 355.361 339.016 354.113 341.608C352.865 344.2 351.153 346.184 348.977 347.56C346.833 348.904 344.369 349.576 341.585 349.576ZM341.585 343C342.897 343 344.033 342.632 344.993 341.896C345.985 341.16 346.753 339.992 347.297 338.392C347.873 336.792 348.161 334.728 348.161 332.2C348.161 329.672 347.873 327.608 347.297 326.008C346.753 324.408 345.985 323.24 344.993 322.504C344.033 321.768 342.897 321.4 341.585 321.4C340.305 321.4 339.169 321.768 338.177 322.504C337.217 323.24 336.449 324.408 335.873 326.008C335.329 327.608 335.057 329.672 335.057 332.2C335.057 334.728 335.329 336.792 335.873 338.392C336.449 339.992 337.217 341.16 338.177 341.896C339.169 342.632 340.305 343 341.585 343ZM374.163 349.576C371.411 349.576 368.947 348.904 366.771 347.56C364.595 346.184 362.883 344.2 361.635 341.608C360.387 339.016 359.763 335.88 359.763 332.2C359.763 328.52 360.387 325.384 361.635 322.792C362.883 320.2 364.595 318.232 366.771 316.888C368.947 315.512 371.411 314.824 374.163 314.824C376.947 314.824 379.411 315.512 381.555 316.888C383.731 318.232 385.443 320.2 386.691 322.792C387.939 325.384 388.563 328.52 388.563 332.2C388.563 335.88 387.939 339.016 386.691 341.608C385.443 344.2 383.731 346.184 381.555 347.56C379.411 348.904 376.947 349.576 374.163 349.576ZM374.163 343C375.475 343 376.611 342.632 377.571 341.896C378.563 341.16 379.331 339.992 379.875 338.392C380.451 336.792 380.739 334.728 380.739 332.2C380.739 329.672 380.451 327.608 379.875 326.008C379.331 324.408 378.563 323.24 377.571 322.504C376.611 321.768 375.475 321.4 374.163 321.4C372.883 321.4 371.747 321.768 370.755 322.504C369.795 323.24 369.027 324.408 368.451 326.008C367.907 327.608 367.635 329.672 367.635 332.2C367.635 334.728 367.907 336.792 368.451 338.392C369.027 339.992 369.795 341.16 370.755 341.896C371.747 342.632 372.883 343 374.163 343ZM406.741 349.576C403.989 349.576 401.525 348.904 399.349 347.56C397.173 346.184 395.461 344.2 394.213 341.608C392.965 339.016 392.341 335.88 392.341 332.2C392.341 328.52 392.965 325.384 394.213 322.792C395.461 320.2 397.173 318.232 399.349 316.888C401.525 315.512 403.989 314.824 406.741 314.824C409.525 314.824 411.989 315.512 414.133 316.888C416.309 318.232 418.021 320.2 419.269 322.792C420.517 325.384 421.141 328.52 421.141 332.2C421.141 335.88 420.517 339.016 419.269 341.608C418.021 344.2 416.309 346.184 414.133 347.56C411.989 348.904 409.525 349.576 406.741 349.576ZM406.741 343C408.053 343 409.189 342.632 410.149 341.896C411.141 341.16 411.909 339.992 412.453 338.392C413.029 336.792 413.317 334.728 413.317 332.2C413.317 329.672 413.029 327.608 412.453 326.008C411.909 324.408 411.141 323.24 410.149 322.504C409.189 321.768 408.053 321.4 406.741 321.4C405.461 321.4 404.325 321.768 403.333 322.504C402.373 323.24 401.605 324.408 401.029 326.008C400.485 327.608 400.213 329.672 400.213 332.2C400.213 334.728 400.485 336.792 401.029 338.392C401.605 339.992 402.373 341.16 403.333 341.896C404.325 342.632 405.461 343 406.741 343Z" fill="white"/>
<path d="M449.08 349V334.728L450.2 335.88H443.256V331.784H459.864V335.88H452.92L454.04 334.728V349H449.08ZM469.87 349.256C468.036 349.256 466.404 348.872 464.974 348.104C463.566 347.336 462.446 346.291 461.614 344.968C460.804 343.624 460.398 342.099 460.398 340.392C460.398 338.664 460.804 337.139 461.614 335.816C462.446 334.472 463.566 333.427 464.974 332.68C466.404 331.912 468.036 331.528 469.87 331.528C471.684 331.528 473.305 331.912 474.734 332.68C476.164 333.427 477.284 334.461 478.094 335.784C478.905 337.107 479.31 338.643 479.31 340.392C479.31 342.099 478.905 343.624 478.094 344.968C477.284 346.291 476.164 347.336 474.734 348.104C473.305 348.872 471.684 349.256 469.87 349.256ZM469.87 345.16C470.702 345.16 471.449 344.968 472.11 344.584C472.772 344.2 473.294 343.656 473.678 342.952C474.062 342.227 474.254 341.373 474.254 340.392C474.254 339.389 474.062 338.536 473.678 337.832C473.294 337.128 472.772 336.584 472.11 336.2C471.449 335.816 470.702 335.624 469.87 335.624C469.038 335.624 468.292 335.816 467.63 336.2C466.969 336.584 466.436 337.128 466.03 337.832C465.646 338.536 465.454 339.389 465.454 340.392C465.454 341.373 465.646 342.227 466.03 342.952C466.436 343.656 466.969 344.2 467.63 344.584C468.292 344.968 469.038 345.16 469.87 345.16ZM494.936 349L489.176 340.84L493.24 338.44L500.824 349H494.936ZM482.744 349V331.784H487.736V349H482.744ZM486.264 342.472V338.472H492.28V342.472H486.264ZM493.72 340.968L489.048 340.456L495.096 331.784H500.408L493.72 340.968ZM511.16 349.256C509.197 349.256 507.469 348.872 505.976 348.104C504.504 347.336 503.362 346.291 502.552 344.968C501.741 343.624 501.336 342.099 501.336 340.392C501.336 338.664 501.73 337.139 502.52 335.816C503.33 334.472 504.429 333.427 505.816 332.68C507.202 331.912 508.77 331.528 510.52 331.528C512.205 331.528 513.72 331.891 515.064 332.616C516.429 333.32 517.506 334.344 518.296 335.688C519.085 337.011 519.48 338.6 519.48 340.456C519.48 340.648 519.469 340.872 519.448 341.128C519.426 341.363 519.405 341.587 519.384 341.8H505.4V338.888H516.76L514.84 339.752C514.84 338.856 514.658 338.077 514.296 337.416C513.933 336.755 513.432 336.243 512.792 335.88C512.152 335.496 511.405 335.304 510.552 335.304C509.698 335.304 508.941 335.496 508.28 335.88C507.64 336.243 507.138 336.765 506.776 337.448C506.413 338.109 506.232 338.899 506.232 339.816V340.584C506.232 341.523 506.434 342.355 506.84 343.08C507.266 343.784 507.853 344.328 508.6 344.712C509.368 345.075 510.264 345.256 511.288 345.256C512.205 345.256 513.005 345.117 513.688 344.84C514.392 344.563 515.032 344.147 515.608 343.592L518.264 346.472C517.474 347.368 516.482 348.061 515.288 348.552C514.093 349.021 512.717 349.256 511.16 349.256ZM523.306 349V331.784H528.266V338.504H535.754V331.784H540.746V349H535.754V342.568H528.266V349H523.306ZM553.589 349.256C551.754 349.256 550.122 348.872 548.693 348.104C547.285 347.336 546.165 346.291 545.333 344.968C544.522 343.624 544.117 342.099 544.117 340.392C544.117 338.664 544.522 337.139 545.333 335.816C546.165 334.472 547.285 333.427 548.693 332.68C550.122 331.912 551.754 331.528 553.589 331.528C555.402 331.528 557.024 331.912 558.453 332.68C559.882 333.427 561.002 334.461 561.813 335.784C562.624 337.107 563.029 338.643 563.029 340.392C563.029 342.099 562.624 343.624 561.813 344.968C561.002 346.291 559.882 347.336 558.453 348.104C557.024 348.872 555.402 349.256 553.589 349.256ZM553.589 345.16C554.421 345.16 555.168 344.968 555.829 344.584C556.49 344.2 557.013 343.656 557.397 342.952C557.781 342.227 557.973 341.373 557.973 340.392C557.973 339.389 557.781 338.536 557.397 337.832C557.013 337.128 556.49 336.584 555.829 336.2C555.168 335.816 554.421 335.624 553.589 335.624C552.757 335.624 552.01 335.816 551.349 336.2C550.688 336.584 550.154 337.128 549.749 337.832C549.365 338.536 549.173 339.389 549.173 340.392C549.173 341.373 549.365 342.227 549.749 342.952C550.154 343.656 550.688 344.2 551.349 344.584C552.01 344.968 552.757 345.16 553.589 345.16ZM566.463 349V331.784H575.263C577.417 331.784 579.103 332.179 580.319 332.968C581.535 333.736 582.142 334.824 582.142 336.232C582.142 337.64 581.567 338.749 580.415 339.56C579.284 340.349 577.78 340.744 575.903 340.744L576.415 339.592C578.505 339.592 580.063 339.976 581.087 340.744C582.132 341.512 582.655 342.632 582.655 344.104C582.655 345.619 582.079 346.813 580.927 347.688C579.775 348.563 578.015 349 575.647 349H566.463ZM571.039 345.608H575.231C576.148 345.608 576.831 345.459 577.279 345.16C577.748 344.84 577.983 344.36 577.983 343.72C577.983 343.059 577.769 342.579 577.343 342.28C576.916 341.96 576.244 341.8 575.327 341.8H571.039V345.608ZM571.039 338.856H574.815C575.689 338.856 576.34 338.696 576.767 338.376C577.215 338.056 577.439 337.597 577.439 337C577.439 336.381 577.215 335.923 576.767 335.624C576.34 335.325 575.689 335.176 574.815 335.176H571.039V338.856Z" fill="white"/>
<path d="M776.604 199.856L766.013 223.155C762.724 223.155 758.991 222.797 755.846 223.579H755L776.604 199.008V199.856Z" fill="#8AB8FE"/>
<path d="M755.849 223.578H766.015C769.64 231.413 772.694 239.278 776.607 246.877V247.725L755 223.578H755.849Z" fill="#4787EA"/>
<path d="M798.21 224.002C798.166 223.8 797.986 223.609 797.786 223.578C794.641 222.799 790.908 223.157 787.619 223.154L777.452 199.855H777.876C784.893 207.587 792.067 215.35 798.648 223.384L798.21 224.002Z" fill="#243FD1"/>
<path d="M797.786 223.579C797.986 223.607 798.163 223.798 798.21 224.003L777.876 246.88H777.452L787.619 223.582C790.598 223.585 795.046 223.185 797.786 223.582V223.579Z" fill="#12209E"/>
<path d="M777.877 199.855H777.452C776.923 199.9 777.045 200.487 777.009 200.887C776.373 207.543 777.034 216.251 777.031 223.156C777.031 223.298 777.031 223.439 777.031 223.581C776.889 223.581 776.748 223.581 776.606 223.581V199.007C777.244 198.948 777.652 199.284 777.877 199.855Z" fill="#697FF4"/>
<path d="M777.452 246.877H777.877C777.66 247.448 777.247 247.814 776.606 247.725V223.578C776.748 223.578 776.889 223.578 777.031 223.578C777.031 230.639 776.471 238.959 777.009 245.848C777.039 246.247 776.928 246.835 777.452 246.879V246.877Z" fill="#596DD7"/>
<path d="M776.604 223.154C773.079 223.154 769.538 223.151 766.013 223.154L776.604 199.855V223.154Z" fill="#4576F2"/>
<path d="M766.016 223.154V223.578H755.849C758.994 222.799 762.726 223.157 766.016 223.154Z" fill="#97BEF8"/>
<path d="M776.604 223.578V246.877C772.694 239.278 769.637 231.413 766.013 223.578C769.538 223.578 773.079 223.578 776.604 223.578Z" fill="#2E5FDB"/>
<path d="M787.619 223.153C784.094 223.15 780.552 223.153 777.027 223.153C777.03 216.247 776.373 207.539 777.005 200.883C777.044 200.487 776.919 199.899 777.449 199.852L787.616 223.15L787.619 223.153Z" fill="#3346F5"/>
<path d="M797.786 223.576C795.046 223.18 790.598 223.579 787.619 223.576V223.152C790.908 223.152 794.641 222.794 797.786 223.576Z" fill="#5667CF"/>
<path d="M787.619 223.579L777.452 246.878C776.927 246.833 777.038 246.246 777.008 245.846C776.47 238.957 777.03 230.637 777.03 223.577C780.555 223.577 784.096 223.571 787.621 223.577L787.619 223.579Z" fill="#1D2DC5"/>
<path d="M776.604 223.154V223.578C773.079 223.578 769.538 223.578 766.013 223.578V223.154C769.538 223.151 773.079 223.154 776.604 223.154Z" fill="#6D92EF"/>
<path d="M787.62 223.154V223.578C784.095 223.572 780.553 223.578 777.028 223.578C777.028 223.436 777.028 223.295 777.028 223.154C780.553 223.154 784.095 223.151 787.62 223.154Z" fill="#606DEA"/>
</g>
<rect x="1.5" y="1.5" width="852" height="428" rx="76.5" stroke="#244ED8" stroke-width="3"/>
<defs>
<clipPath id="clip0_1773_196">
<rect width="855" height="431" rx="78" fill="white"/>
</clipPath>
</defs>
</svg>
