<svg width="1048" height="1069" viewBox="0 0 1048 1069" fill="none" xmlns="http://www.w3.org/2000/svg">
<path d="M0 327.766C60.5734 518.455 172.804 688.629 324.235 819.397C475.665 950.165 660.371 1036.41 857.849 1068.56L1048 0L0 327.766Z" fill="#F3F3F3"/>
<path d="M825.086 677.995V642.2H835.398V663.491L852.83 642.2H862.344V677.995H852.032V656.704L834.667 677.995H825.086Z" fill="#969696"/>
<path d="M797.128 677.995V648.321L799.457 650.716H785.02V642.2H819.55V650.716H805.112L807.441 648.321V677.995H797.128Z" fill="#969696"/>
<path d="M767.203 678.527C763.344 678.527 759.907 677.751 756.89 676.198C753.874 674.602 751.501 672.406 749.771 669.612C748.086 666.817 747.243 663.646 747.243 660.098C747.243 656.505 748.086 653.333 749.771 650.583C751.501 647.789 753.874 645.616 756.89 644.063C759.907 642.466 763.344 641.668 767.203 641.668C770.973 641.668 774.255 642.466 777.05 644.063C779.844 645.616 781.907 647.856 783.237 650.783L775.187 655.108C774.255 653.422 773.08 652.18 771.661 651.382C770.286 650.583 768.778 650.184 767.136 650.184C765.362 650.184 763.765 650.583 762.346 651.382C760.927 652.18 759.796 653.311 758.953 654.775C758.155 656.239 757.755 658.013 757.755 660.098C757.755 662.182 758.155 663.956 758.953 665.42C759.796 666.884 760.927 668.015 762.346 668.813C763.765 669.612 765.362 670.011 767.136 670.011C768.778 670.011 770.286 669.634 771.661 668.88C773.08 668.081 774.255 666.817 775.187 665.088L783.237 669.479C781.907 672.362 779.844 674.602 777.05 676.198C774.255 677.751 770.973 678.527 767.203 678.527Z" fill="#969696"/>
<path d="M723.405 678.527C719.59 678.527 716.197 677.729 713.225 676.132C710.298 674.535 707.969 672.362 706.239 669.612C704.554 666.817 703.711 663.646 703.711 660.098C703.711 656.505 704.554 653.333 706.239 650.583C707.969 647.789 710.298 645.616 713.225 644.063C716.197 642.466 719.59 641.668 723.405 641.668C727.175 641.668 730.546 642.466 733.518 644.063C736.489 645.616 738.818 647.767 740.503 650.517C742.189 653.267 743.032 656.46 743.032 660.098C743.032 663.646 742.189 666.817 740.503 669.612C738.818 672.362 736.489 674.535 733.518 676.132C730.546 677.729 727.175 678.527 723.405 678.527ZM723.405 670.011C725.134 670.011 726.687 669.612 728.062 668.813C729.437 668.015 730.524 666.884 731.322 665.42C732.12 663.912 732.52 662.138 732.52 660.098C732.52 658.013 732.12 656.239 731.322 654.775C730.524 653.311 729.437 652.18 728.062 651.382C726.687 650.583 725.134 650.184 723.405 650.184C721.675 650.184 720.122 650.583 718.747 651.382C717.372 652.18 716.263 653.311 715.421 654.775C714.622 656.239 714.223 658.013 714.223 660.098C714.223 662.138 714.622 663.912 715.421 665.42C716.263 666.884 717.372 668.015 718.747 668.813C720.122 669.612 721.675 670.011 723.405 670.011Z" fill="#969696"/>
<path d="M660.444 677.995V642.2H670.757V656.172H686.326V642.2H696.705V677.995H686.326V664.622H670.757V677.995H660.444Z" fill="#969696"/>
<path d="M638.408 673.338V650.716H626.699L626.499 655.307C626.41 657.214 626.3 659.033 626.166 660.763C626.033 662.493 625.767 664.067 625.368 665.487C625.013 666.862 624.481 668.037 623.771 669.013C623.062 669.944 622.108 670.588 620.91 670.942L610.664 669.479C611.951 669.479 612.993 669.102 613.791 668.348C614.59 667.549 615.211 666.463 615.654 665.088C616.098 663.668 616.431 662.071 616.652 660.297C616.874 658.479 617.029 656.571 617.118 654.575L617.584 642.2H648.788V673.338H638.408ZM609.467 685.713V669.479H653.911V685.713H644.263V677.995H619.114V685.713H609.467Z" fill="#969696"/>
<path d="M566.558 677.995V642.2H576.87V663.491L594.302 642.2H603.816V677.995H593.503V656.704L576.138 677.995H566.558Z" fill="#969696"/>
<path d="M525.17 677.995V642.2H543.466C547.946 642.2 551.45 643.021 553.979 644.662C556.507 646.259 557.771 648.521 557.771 651.448C557.771 654.376 556.573 656.682 554.178 658.368C551.827 660.009 548.7 660.829 544.797 660.829L545.862 658.434C550.208 658.434 553.446 659.233 555.575 660.829C557.749 662.426 558.835 664.755 558.835 667.815C558.835 670.965 557.638 673.448 555.243 675.267C552.847 677.086 549.188 677.995 544.265 677.995H525.17ZM534.684 670.942H543.4C545.307 670.942 546.726 670.632 547.658 670.011C548.634 669.346 549.122 668.348 549.122 667.017C549.122 665.642 548.678 664.644 547.791 664.023C546.904 663.358 545.507 663.025 543.599 663.025H534.684V670.942ZM534.684 656.904H542.535C544.353 656.904 545.706 656.571 546.593 655.906C547.525 655.241 547.991 654.287 547.991 653.045C547.991 651.759 547.525 650.805 546.593 650.184C545.706 649.563 544.353 649.253 542.535 649.253H534.684V656.904Z" fill="#969696"/>
<path d="M507.831 677.995L495.855 661.029L504.305 656.039L520.073 677.995H507.831ZM482.482 677.995V642.2H492.861V677.995H482.482ZM489.801 664.422V656.106H502.309V664.422H489.801ZM505.303 661.295L495.589 660.231L508.164 642.2H519.208L505.303 661.295Z" fill="#969696"/>
<path d="M435.247 677.995V642.2H445.56V663.491L462.991 642.2H472.505V677.995H462.193V656.704L444.828 677.995H435.247Z" fill="#969696"/>
<path d="M386.409 677.928L386.941 669.412C387.208 669.456 387.474 669.501 387.74 669.545C388.006 669.545 388.25 669.545 388.472 669.545C389.714 669.545 390.689 669.19 391.399 668.481C392.109 667.771 392.641 666.817 392.996 665.62C393.351 664.378 393.595 662.981 393.728 661.428C393.905 659.876 394.038 658.257 394.127 656.571L394.659 642.2H425.264V677.995H414.885V648.188L417.214 650.716H401.512L403.708 648.055L403.242 657.037C403.109 660.231 402.843 663.158 402.444 665.819C402.089 668.481 401.49 670.787 400.647 672.739C399.804 674.646 398.673 676.132 397.254 677.196C395.835 678.217 394.016 678.727 391.798 678.727C391 678.727 390.157 678.66 389.27 678.527C388.383 678.394 387.429 678.194 386.409 677.928Z" fill="#969696"/>
<path d="M323.255 677.928L323.787 669.412C324.053 669.456 324.319 669.501 324.586 669.545C324.852 669.545 325.096 669.545 325.317 669.545C326.559 669.545 327.535 669.19 328.245 668.481C328.955 667.771 329.487 666.817 329.842 665.62C330.196 664.378 330.44 662.981 330.573 661.428C330.751 659.876 330.884 658.257 330.973 656.571L331.505 642.2H362.11V677.995H351.731V648.188L354.059 650.716H338.358L340.553 648.055L340.088 657.037C339.955 660.231 339.688 663.158 339.289 665.819C338.934 668.481 338.336 670.787 337.493 672.739C336.65 674.646 335.519 676.132 334.1 677.196C332.68 678.217 330.862 678.727 328.644 678.727C327.846 678.727 327.003 678.66 326.116 678.527C325.229 678.394 324.275 678.194 323.255 677.928Z" fill="#969696"/>
<path d="M294.299 691.434C292.436 691.434 290.596 691.146 288.777 690.57C286.958 689.993 285.473 689.195 284.319 688.174L288.112 680.789C288.91 681.499 289.819 682.053 290.84 682.453C291.904 682.852 292.946 683.051 293.967 683.051C295.43 683.051 296.584 682.696 297.426 681.987C298.313 681.321 299.112 680.19 299.821 678.594L301.684 674.202L302.483 673.071L315.324 642.2H325.303L309.136 680.19C307.983 683.074 306.652 685.336 305.144 686.977C303.68 688.618 302.039 689.771 300.221 690.436C298.446 691.102 296.473 691.434 294.299 691.434ZM300.42 679.392L284.452 642.2H295.164L307.539 672.14L300.42 679.392Z" fill="#969696"/>
<path d="M236.25 677.995V631.422H278.698V677.995H267.986V637.742L270.448 640.204H244.5L246.962 637.742V677.995H236.25Z" fill="#969696"/>
<path d="M572.561 606.21C551.038 606.21 531.768 600.955 514.75 590.443C497.731 579.682 484.342 564.165 474.582 543.894C464.822 523.623 459.941 499.097 459.941 470.316C459.941 441.535 464.822 417.009 474.582 396.738C484.342 376.466 497.731 361.075 514.75 350.564C531.768 339.803 551.038 334.422 572.561 334.422C594.334 334.422 613.604 339.803 630.372 350.564C647.39 361.075 660.779 376.466 670.54 396.738C680.3 417.009 685.18 441.535 685.18 470.316C685.18 499.097 680.3 523.623 670.54 543.894C660.779 564.165 647.39 579.682 630.372 590.443C613.604 600.955 594.334 606.21 572.561 606.21ZM572.561 554.781C582.822 554.781 591.706 551.903 599.214 546.146C606.972 540.39 612.979 531.256 617.233 518.742C621.738 506.229 623.99 490.087 623.99 470.316C623.99 450.545 621.738 434.403 617.233 421.89C612.979 409.376 606.972 400.242 599.214 394.486C591.706 388.729 582.822 385.851 572.561 385.851C562.55 385.851 553.666 388.729 545.908 394.486C538.4 400.242 532.393 409.376 527.888 421.89C523.634 434.403 521.507 450.545 521.507 470.316C521.507 490.087 523.634 506.229 527.888 518.742C532.393 531.256 538.4 540.39 545.908 546.146C553.666 551.903 562.55 554.781 572.561 554.781Z" fill="#969696"/>
<path d="M236.263 601.705V562.289L337.62 466.562C345.629 459.304 351.51 452.797 355.264 447.041C359.018 441.285 361.521 436.03 362.772 431.275C364.273 426.52 365.024 422.14 365.024 418.136C365.024 407.625 361.395 399.616 354.138 394.11C347.13 388.354 336.744 385.476 322.98 385.476C311.968 385.476 301.707 387.603 292.197 391.858C282.937 396.112 275.054 402.744 268.547 411.754L224.25 383.224C234.261 368.208 248.275 356.32 266.295 347.561C284.314 338.802 305.086 334.422 328.611 334.422C348.131 334.422 365.149 337.675 379.665 344.182C394.43 350.439 405.818 359.323 413.826 370.835C422.085 382.348 426.214 396.112 426.214 412.129C426.214 420.638 425.088 429.147 422.836 437.656C420.833 445.915 416.579 454.674 410.072 463.934C403.815 473.194 394.556 483.58 382.293 495.092L298.203 574.301L286.566 552.153H434.848V601.705H236.263Z" fill="#969696"/>
<path d="M729.138 440.226L800.577 335.617H818.362L746.923 440.226H729.138ZM738.255 392.106C733.173 392.106 728.69 390.961 724.804 388.669C720.918 386.278 717.83 382.94 715.538 378.657C713.346 374.273 712.25 369.142 712.25 363.264C712.25 357.386 713.346 352.305 715.538 348.021C717.83 343.737 720.918 340.4 724.804 338.008C728.69 335.617 733.173 334.422 738.255 334.422C743.336 334.422 747.82 335.617 751.706 338.008C755.591 340.4 758.63 343.737 760.822 348.021C763.014 352.305 764.11 357.386 764.11 363.264C764.11 369.142 763.014 374.273 760.822 378.657C758.63 382.94 755.591 386.278 751.706 388.669C747.82 390.961 743.336 392.106 738.255 392.106ZM738.255 379.852C741.543 379.852 744.183 378.507 746.176 375.817C748.169 373.028 749.165 368.843 749.165 363.264C749.165 357.685 748.169 353.55 746.176 350.86C744.183 348.071 741.543 346.676 738.255 346.676C735.067 346.676 732.426 348.071 730.334 350.86C728.341 353.55 727.345 357.685 727.345 363.264C727.345 368.744 728.341 372.878 730.334 375.668C732.426 378.457 735.067 379.852 738.255 379.852ZM809.245 441.422C804.263 441.422 799.78 440.276 795.794 437.985C791.909 435.594 788.87 432.256 786.678 427.972C784.486 423.589 783.39 418.458 783.39 412.58C783.39 406.702 784.486 401.621 786.678 397.337C788.87 393.053 791.909 389.715 795.794 387.324C799.78 384.933 804.263 383.738 809.245 383.738C814.426 383.738 818.96 384.933 822.845 387.324C826.731 389.715 829.77 393.053 831.962 397.337C834.154 401.621 835.25 406.702 835.25 412.58C835.25 418.458 834.154 423.589 831.962 427.972C829.77 432.256 826.731 435.594 822.845 437.985C818.96 440.276 814.426 441.422 809.245 441.422ZM809.245 429.168C812.533 429.168 815.173 427.823 817.166 425.133C819.159 422.343 820.155 418.159 820.155 412.58C820.155 407.1 819.159 402.966 817.166 400.176C815.173 397.386 812.533 395.992 809.245 395.992C806.057 395.992 803.416 397.386 801.324 400.176C799.331 402.866 798.335 407.001 798.335 412.58C798.335 418.159 799.331 422.343 801.324 425.133C803.416 427.823 806.057 429.168 809.245 429.168Z" fill="#969696"/>
</svg>
