<svg width="953" height="1237" viewBox="0 0 953 1237" fill="none" xmlns="http://www.w3.org/2000/svg">
<path d="M952.5 337.325C807.545 188.209 612.141 66.1396 414.978 0L0 1237L952.5 337.325Z" fill="#4E4E4E"/>
<path d="M573.808 315.775L645.247 211.166H663.032L591.593 315.775H573.808ZM582.925 267.655C577.843 267.655 573.36 266.509 569.474 264.217C565.588 261.826 562.5 258.489 560.208 254.205C558.016 249.821 556.92 244.69 556.92 238.812C556.92 232.934 558.016 227.853 560.208 223.569C562.5 219.285 565.588 215.948 569.474 213.557C573.36 211.166 577.843 209.97 582.925 209.97C588.006 209.97 592.49 211.166 596.376 213.557C600.261 215.948 603.3 219.285 605.492 223.569C607.684 227.853 608.78 232.934 608.78 238.812C608.78 244.69 607.684 249.821 605.492 254.205C603.3 258.489 600.261 261.826 596.376 264.217C592.49 266.509 588.006 267.655 582.925 267.655ZM582.925 255.4C586.213 255.4 588.853 254.055 590.846 251.365C592.839 248.576 593.835 244.392 593.835 238.812C593.835 233.233 592.839 229.099 590.846 226.409C588.853 223.619 586.213 222.224 582.925 222.224C579.736 222.224 577.096 223.619 575.004 226.409C573.011 229.099 572.015 233.233 572.015 238.812C572.015 244.292 573.011 248.426 575.004 251.216C577.096 254.006 579.736 255.4 582.925 255.4ZM653.915 316.97C648.933 316.97 644.45 315.824 640.464 313.533C636.578 311.142 633.54 307.804 631.348 303.52C629.156 299.137 628.06 294.006 628.06 288.128C628.06 282.25 629.156 277.169 631.348 272.885C633.54 268.601 636.578 265.264 640.464 262.872C644.45 260.481 648.933 259.286 653.915 259.286C659.096 259.286 663.63 260.481 667.515 262.872C671.401 265.264 674.44 268.601 676.632 272.885C678.824 277.169 679.92 282.25 679.92 288.128C679.92 294.006 678.824 299.137 676.632 303.52C674.44 307.804 671.401 311.142 667.515 313.533C663.63 315.824 659.096 316.97 653.915 316.97ZM653.915 304.716C657.203 304.716 659.843 303.371 661.836 300.681C663.829 297.892 664.825 293.707 664.825 288.128C664.825 282.649 663.829 278.514 661.836 275.724C659.843 272.935 657.203 271.54 653.915 271.54C650.727 271.54 648.086 272.935 645.994 275.724C644.001 278.414 643.005 282.549 643.005 288.128C643.005 293.707 644.001 297.892 645.994 300.681C648.086 303.371 650.727 304.716 653.915 304.716Z" fill="white"/>
<path d="M523.081 617.967V583.756H532.937V617.967H523.081ZM505.849 594.693C510.342 594.736 513.713 595.753 515.959 597.746C518.249 599.696 519.393 602.472 519.393 606.076C519.393 609.849 518.1 612.795 515.514 614.914C512.928 616.992 509.261 618.03 504.514 618.03L487.854 617.967V583.756H497.71V594.693H505.849ZM503.623 610.972C505.531 611.014 506.993 610.612 508.011 609.764C509.028 608.916 509.537 607.644 509.537 605.949C509.537 604.253 509.028 603.045 508.011 602.324C506.993 601.561 505.531 601.158 503.623 601.116L497.71 601.052V610.972H503.623Z" fill="white"/>
<path d="M466.789 613.516V591.896H455.597L455.406 596.283C455.322 598.106 455.216 599.844 455.089 601.497C454.961 603.151 454.707 604.656 454.325 606.012C453.986 607.326 453.478 608.45 452.799 609.382C452.121 610.273 451.21 610.887 450.065 611.226L440.273 609.827C441.502 609.827 442.498 609.467 443.261 608.746C444.024 607.983 444.618 606.945 445.042 605.631C445.466 604.274 445.783 602.748 445.995 601.052C446.207 599.314 446.356 597.491 446.441 595.584L446.886 583.756H476.708V613.516H466.789ZM439.128 625.343V609.827H481.605V625.343H472.384V617.967H448.348V625.343H439.128Z" fill="white"/>
<path d="M426.347 617.967L417.254 601.752L425.266 596.983L438.111 617.967H426.347ZM411.404 604.995V597.046H423.295V604.995H411.404ZM426.284 602.006L416.936 600.989L426.792 583.756H437.284L426.284 602.006ZM392.519 617.967H380.818L393.6 596.983L401.612 601.752L392.519 617.967ZM414.329 617.967H404.537V583.756H414.329V617.967ZM407.462 604.995H395.634V597.046H407.462V604.995ZM392.582 602.006L381.581 583.756H392.073L401.866 600.989L392.582 602.006Z" fill="white"/>
<path d="M352.716 630.811C350.935 630.811 349.176 630.536 347.438 629.985C345.7 629.434 344.28 628.671 343.178 627.696L346.802 620.637C347.565 621.316 348.434 621.846 349.409 622.227C350.427 622.609 351.423 622.799 352.398 622.799C353.797 622.799 354.899 622.46 355.705 621.782C356.552 621.146 357.315 620.065 357.994 618.539L359.774 614.342L360.537 613.261L372.81 583.756H382.348L366.896 620.065C365.794 622.821 364.522 624.983 363.081 626.551C361.682 628.12 360.113 629.222 358.375 629.858C356.68 630.494 354.793 630.811 352.716 630.811ZM358.566 619.302L343.305 583.756H353.543L365.37 612.371L358.566 619.302Z" fill="white"/>
<path d="M303.92 617.967V583.756H313.776V597.11H328.656V583.756H338.575V617.967H328.656V605.186H313.776V617.967H303.92Z" fill="white"/>
<path d="M899.387 538.991C895.487 538.991 892.053 538.228 889.085 536.702C886.16 535.175 883.892 533.098 882.282 530.47C880.671 527.799 879.865 524.768 879.865 521.377C879.865 517.943 880.649 514.912 882.218 512.284C883.829 509.613 886.012 507.536 888.768 506.052C891.523 504.526 894.639 503.763 898.115 503.763C901.464 503.763 904.474 504.484 907.144 505.925C909.858 507.324 911.998 509.359 913.567 512.029C915.135 514.658 915.92 517.816 915.92 521.504C915.92 521.886 915.898 522.331 915.856 522.839C915.814 523.306 915.771 523.751 915.729 524.175H887.941V518.388H910.515L906.699 520.105C906.699 518.325 906.339 516.777 905.618 515.463C904.898 514.149 903.901 513.132 902.63 512.411C901.358 511.648 899.874 511.266 898.179 511.266C896.483 511.266 894.978 511.648 893.664 512.411C892.392 513.132 891.396 514.17 890.675 515.527C889.955 516.841 889.594 518.409 889.594 520.232V521.758C889.594 523.624 889.997 525.277 890.802 526.718C891.65 528.117 892.816 529.198 894.3 529.961C895.826 530.682 897.606 531.042 899.641 531.042C901.464 531.042 903.054 530.767 904.41 530.216C905.809 529.664 907.081 528.838 908.225 527.736L913.503 533.459C911.935 535.239 909.964 536.617 907.59 537.592C905.216 538.524 902.481 538.991 899.387 538.991Z" fill="white"/>
<path d="M863.252 538.482V504.271H873.108V538.482H863.252ZM846.02 515.208C850.513 515.251 853.884 516.268 856.13 518.261C858.419 520.211 859.564 522.987 859.564 526.591C859.564 530.364 858.271 533.31 855.685 535.429C853.099 537.507 849.432 538.545 844.684 538.545L828.024 538.482V504.271H837.881V515.208H846.02ZM843.794 531.487C845.702 531.529 847.164 531.127 848.182 530.279C849.199 529.431 849.708 528.159 849.708 526.464C849.708 524.768 849.199 523.56 848.182 522.839C847.164 522.076 845.702 521.673 843.794 521.631L837.881 521.567V531.487H843.794Z" fill="white"/>
<path d="M783.873 538.482V504.271H793.729V517.625H808.609V504.271H818.528V538.482H808.609V525.701H793.729V538.482H783.873Z" fill="white"/>
<path d="M739.722 538.482V504.271H749.578V517.625H764.457V504.271H774.377V538.482H764.457V525.701H749.578V538.482H739.722Z" fill="white"/>
<path d="M715.579 538.991C711.679 538.991 708.245 538.228 705.278 536.702C702.353 535.175 700.085 533.098 698.474 530.47C696.863 527.799 696.058 524.768 696.058 521.377C696.058 517.943 696.842 514.912 698.41 512.284C700.021 509.613 702.204 507.536 704.96 506.052C707.715 504.526 710.831 503.763 714.307 503.763C717.656 503.763 720.666 504.484 723.337 505.925C726.05 507.324 728.191 509.359 729.759 512.029C731.328 514.658 732.112 517.816 732.112 521.504C732.112 521.886 732.091 522.331 732.048 522.839C732.006 523.306 731.964 523.751 731.921 524.175H704.133V518.388H726.707L722.892 520.105C722.892 518.325 722.531 516.777 721.811 515.463C721.09 514.149 720.094 513.132 718.822 512.411C717.55 511.648 716.067 511.266 714.371 511.266C712.675 511.266 711.17 511.648 709.856 512.411C708.584 513.132 707.588 514.17 706.868 515.527C706.147 516.841 705.787 518.409 705.787 520.232V521.758C705.787 523.624 706.189 525.277 706.995 526.718C707.843 528.117 709.008 529.198 710.492 529.961C712.018 530.682 713.799 531.042 715.833 531.042C717.656 531.042 719.246 530.767 720.603 530.216C722.001 529.664 723.273 528.838 724.418 527.736L729.696 533.459C728.127 535.239 726.156 536.617 723.782 537.592C721.408 538.524 718.674 538.991 715.579 538.991Z" fill="white"/>
<path d="M677.797 534.031V512.411H666.605L666.414 516.798C666.329 518.621 666.224 520.359 666.096 522.012C665.969 523.666 665.715 525.171 665.333 526.527C664.994 527.841 664.485 528.965 663.807 529.897C663.129 530.788 662.217 531.402 661.073 531.741L651.28 530.342C652.51 530.342 653.506 529.982 654.269 529.261C655.032 528.498 655.625 527.46 656.049 526.146C656.473 524.789 656.791 523.263 657.003 521.567C657.215 519.829 657.364 518.006 657.448 516.099L657.893 504.271H687.716V534.031H677.797ZM650.136 545.858V530.342H692.612V545.858H683.392V538.482H659.356V545.858H650.136Z" fill="white"/>
<path d="M609.13 538.482V504.271H618.986V524.62L635.646 504.271H644.739V538.482H634.883V518.134L618.287 538.482H609.13Z" fill="white"/>
<path d="M569.574 538.482V504.271H587.061C591.342 504.271 594.691 505.056 597.108 506.624C599.524 508.15 600.732 510.312 600.732 513.11C600.732 515.908 599.588 518.112 597.299 519.723C595.052 521.292 592.063 522.076 588.333 522.076L589.35 519.787C593.504 519.787 596.599 520.55 598.634 522.076C600.711 523.602 601.75 525.828 601.75 528.753C601.75 531.763 600.605 534.137 598.316 535.875C596.027 537.613 592.529 538.482 587.824 538.482H569.574ZM578.667 531.741H586.997C588.82 531.741 590.177 531.445 591.067 530.851C592 530.215 592.466 529.261 592.466 527.99C592.466 526.676 592.042 525.722 591.194 525.128C590.346 524.492 589.011 524.174 587.188 524.174H578.667V531.741ZM578.667 518.324H586.171C587.909 518.324 589.202 518.006 590.05 517.37C590.94 516.735 591.385 515.823 591.385 514.636C591.385 513.407 590.94 512.495 590.05 511.902C589.202 511.308 587.909 511.012 586.171 511.012H578.667V518.324Z" fill="white"/>
<path d="M548.509 534.031V512.411H537.318L537.127 516.798C537.042 518.621 536.936 520.359 536.809 522.012C536.682 523.666 536.428 525.171 536.046 526.527C535.707 527.841 535.198 528.965 534.52 529.897C533.842 530.788 532.93 531.402 531.786 531.741L521.993 530.342C523.223 530.342 524.219 529.982 524.982 529.261C525.745 528.498 526.338 527.46 526.762 526.146C527.186 524.789 527.504 523.263 527.716 521.567C527.928 519.829 528.076 518.006 528.161 516.099L528.606 504.271H558.429V534.031H548.509ZM520.849 545.858V530.342H563.325V545.858H554.105V538.482H530.069V545.858H520.849Z" fill="white"/>
<path d="M501.154 538.991C497.254 538.991 493.82 538.228 490.853 536.702C487.928 535.175 485.66 533.098 484.049 530.47C482.438 527.799 481.633 524.768 481.633 521.377C481.633 517.943 482.417 514.912 483.986 512.284C485.596 509.613 487.78 507.536 490.535 506.052C493.291 504.526 496.406 503.763 499.883 503.763C503.232 503.763 506.241 504.484 508.912 505.925C511.625 507.324 513.766 509.359 515.334 512.029C516.903 514.658 517.687 517.816 517.687 521.504C517.687 521.886 517.666 522.331 517.624 522.839C517.581 523.306 517.539 523.751 517.496 524.175H489.708V518.388H512.282L508.467 520.105C508.467 518.325 508.107 516.777 507.386 515.463C506.665 514.149 505.669 513.132 504.397 512.411C503.126 511.648 501.642 511.266 499.946 511.266C498.25 511.266 496.746 511.648 495.431 512.411C494.16 513.132 493.163 514.17 492.443 515.527C491.722 516.841 491.362 518.409 491.362 520.232V521.758C491.362 523.624 491.764 525.277 492.57 526.718C493.418 528.117 494.584 529.198 496.067 529.961C497.593 530.682 499.374 531.042 501.409 531.042C503.232 531.042 504.821 530.767 506.178 530.216C507.577 529.664 508.848 528.838 509.993 527.736L515.271 533.459C513.702 535.239 511.731 536.617 509.357 537.592C506.983 538.524 504.249 538.991 501.154 538.991Z" fill="white"/>
<path d="M460.446 538.991C457.563 538.991 455.041 538.355 452.879 537.083C450.717 535.811 449.021 533.882 447.792 531.297C446.605 528.668 446.011 525.362 446.011 521.377C446.011 517.35 446.583 514.043 447.728 511.457C448.873 508.871 450.526 506.942 452.688 505.671C454.85 504.399 457.436 503.763 460.446 503.763C463.667 503.763 466.55 504.505 469.094 505.989C471.679 507.43 473.714 509.465 475.198 512.093C476.724 514.721 477.487 517.816 477.487 521.377C477.487 524.98 476.724 528.096 475.198 530.724C473.714 533.353 471.679 535.387 469.094 536.829C466.55 538.27 463.667 538.991 460.446 538.991ZM440.225 550.818V504.272H449.699V511.266L449.508 521.44L450.144 531.551V550.818H440.225ZM458.729 530.851C460.382 530.851 461.845 530.47 463.116 529.707C464.43 528.944 465.469 527.863 466.232 526.464C467.038 525.023 467.44 523.327 467.44 521.377C467.44 519.384 467.038 517.689 466.232 516.29C465.469 514.891 464.43 513.81 463.116 513.047C461.845 512.284 460.382 511.902 458.729 511.902C457.075 511.902 455.592 512.284 454.278 513.047C452.963 513.81 451.925 514.891 451.162 516.29C450.399 517.689 450.017 519.384 450.017 521.377C450.017 523.327 450.399 525.023 451.162 526.464C451.925 527.863 452.963 528.944 454.278 529.707C455.592 530.47 457.075 530.851 458.729 530.851Z" fill="white"/>
<path d="M396.756 538.482V504.271H430.775V538.482H420.856V510.185L423.081 512.411H404.386L406.612 510.185V538.482H396.756Z" fill="white"/>
<path d="M372.612 538.991C368.712 538.991 365.279 538.228 362.311 536.702C359.386 535.175 357.118 533.098 355.507 530.47C353.896 527.799 353.091 524.768 353.091 521.377C353.091 517.943 353.875 514.912 355.444 512.284C357.054 509.613 359.238 507.536 361.993 506.052C364.749 504.526 367.864 503.763 371.341 503.763C374.69 503.763 377.699 504.484 380.37 505.925C383.083 507.324 385.224 509.359 386.792 512.029C388.361 514.658 389.145 517.816 389.145 521.504C389.145 521.886 389.124 522.331 389.082 522.839C389.039 523.306 388.997 523.751 388.954 524.175H361.166V518.388H383.74L379.925 520.105C379.925 518.325 379.565 516.777 378.844 515.463C378.123 514.149 377.127 513.132 375.855 512.411C374.584 511.648 373.1 511.266 371.404 511.266C369.708 511.266 368.204 511.648 366.889 512.411C365.618 513.132 364.621 514.17 363.901 515.527C363.18 516.841 362.82 518.409 362.82 520.232V521.758C362.82 523.624 363.223 525.277 364.028 526.718C364.876 528.117 366.042 529.198 367.525 529.961C369.051 530.682 370.832 531.042 372.867 531.042C374.69 531.042 376.279 530.767 377.636 530.216C379.035 529.664 380.306 528.838 381.451 527.736L386.729 533.459C385.16 535.239 383.189 536.617 380.815 537.592C378.441 538.524 375.707 538.991 372.612 538.991Z" fill="white"/>
<path d="M335.208 493.97H345.509V538.482H335.208V493.97ZM314.987 538.482H304.686V493.97H314.987V538.482ZM335.971 520.232H314.224V511.52H335.971V520.232Z" fill="white"/>
<path d="M303.92 411.42V371.713L423.92 209.97H485.738L368.284 371.713L339.556 363.334H539.92V411.42H303.92ZM441.011 464.97V411.42L442.829 363.334V315.613H498.465V464.97H441.011Z" fill="white"/>
</svg>
