<svg width="1176" height="613" viewBox="0 0 1176 613" fill="none" xmlns="http://www.w3.org/2000/svg">
<mask id="mask0_1792_224" style="mask-type:luminance" maskUnits="userSpaceOnUse" x="19" y="10" width="1138" height="593">
<path d="M1081 10H95C53.0264 10 19 44.0264 19 86V527C19 568.974 53.0264 603 95 603H1081C1122.97 603 1157 568.974 1157 527V86C1157 44.0264 1122.97 10 1081 10Z" fill="white"/>
</mask>
<g mask="url(#mask0_1792_224)">
<path d="M1081 10H95C53.0264 10 19 44.0264 19 86V527C19 568.974 53.0264 603 95 603H1081C1122.97 603 1157 568.974 1157 527V86C1157 44.0264 1122.97 10 1081 10Z" fill="black"/>
<path d="M1081 11.5H95C53.8548 11.5 20.5 44.8548 20.5 86V527C20.5 568.145 53.8548 601.5 95 601.5H1081C1122.15 601.5 1155.5 568.145 1155.5 527V86C1155.5 44.8548 1122.15 11.5 1081 11.5Z" fill="black" stroke="#003E1C" stroke-width="3"/>
<g filter="url(#filter0_f_1792_224)">
<path d="M-15 -54V614.519L220.349 668L188.256 507.556L158.169 253.519L484.448 424.659L580.727 360.481L265.145 90.4H675L626.86 -54H-15Z" fill="#009345" fill-opacity="0.5"/>
<path d="M-15 -54V614.519L220.349 668L188.256 507.556L158.169 253.519L484.448 424.659L580.727 360.481L265.145 90.4H675L626.86 -54H-15Z" stroke="black"/>
</g>
<path d="M121.168 405.999V383.599H131.184C133.701 383.599 135.664 384.1 137.072 385.103C138.48 386.084 139.184 387.503 139.184 389.359C139.184 391.194 138.512 392.612 137.168 393.615C135.824 394.596 134.053 395.087 131.856 395.087L132.432 393.935C134.928 393.935 136.859 394.436 138.224 395.439C139.589 396.442 140.272 397.892 140.272 399.791C140.272 401.732 139.557 403.258 138.128 404.367C136.699 405.455 134.587 405.999 131.792 405.999H121.168ZM125.264 402.799H131.664C133.115 402.799 134.213 402.532 134.96 401.999C135.707 401.444 136.08 400.602 136.08 399.471C136.08 398.34 135.707 397.519 134.96 397.007C134.213 396.474 133.115 396.207 131.664 396.207H125.264V402.799ZM125.264 393.167H130.832C132.176 393.167 133.2 392.9 133.904 392.367C134.608 391.812 134.96 391.023 134.96 389.999C134.96 388.932 134.608 388.132 133.904 387.599C133.2 387.066 132.176 386.799 130.832 386.799H125.264V393.167ZM162.879 406.223C161.492 406.223 160.223 405.903 159.071 405.263C157.94 404.623 157.033 403.663 156.351 402.383C155.689 401.082 155.359 399.439 155.359 397.455C155.359 395.45 155.679 393.807 156.319 392.527C156.98 391.247 157.876 390.298 159.007 389.679C160.137 389.039 161.428 388.719 162.879 388.719C164.564 388.719 166.047 389.082 167.327 389.807C168.628 390.532 169.652 391.546 170.399 392.847C171.167 394.148 171.551 395.684 171.551 397.455C171.551 399.226 171.167 400.772 170.399 402.095C169.652 403.396 168.628 404.41 167.327 405.135C166.047 405.86 164.564 406.223 162.879 406.223ZM153.407 412.207V388.911H157.215V392.943L157.087 397.487L157.407 402.031V412.207H153.407ZM162.431 402.799C163.391 402.799 164.244 402.586 164.991 402.159C165.759 401.732 166.367 401.114 166.815 400.303C167.263 399.492 167.487 398.543 167.487 397.455C167.487 396.346 167.263 395.396 166.815 394.607C166.367 393.796 165.759 393.178 164.991 392.751C164.244 392.324 163.391 392.111 162.431 392.111C161.471 392.111 160.607 392.324 159.839 392.751C159.071 393.178 158.463 393.796 158.015 394.607C157.567 395.396 157.343 396.346 157.343 397.455C157.343 398.543 157.567 399.492 158.015 400.303C158.463 401.114 159.071 401.732 159.839 402.159C160.607 402.586 161.471 402.799 162.431 402.799ZM185.681 405.999V402.543L185.457 401.807V395.759C185.457 394.586 185.105 393.679 184.401 393.039C183.697 392.378 182.63 392.047 181.201 392.047C180.241 392.047 179.292 392.196 178.353 392.495C177.436 392.794 176.657 393.21 176.017 393.743L174.449 390.831C175.366 390.127 176.454 389.604 177.713 389.263C178.993 388.9 180.316 388.719 181.681 388.719C184.156 388.719 186.065 389.316 187.409 390.511C188.774 391.684 189.457 393.508 189.457 395.983V405.999H185.681ZM180.305 406.223C179.025 406.223 177.905 406.01 176.945 405.583C175.985 405.135 175.238 404.527 174.705 403.759C174.193 402.97 173.937 402.084 173.937 401.103C173.937 400.143 174.161 399.279 174.609 398.511C175.078 397.743 175.836 397.135 176.881 396.687C177.926 396.239 179.313 396.015 181.041 396.015H186.001V398.671H181.329C179.964 398.671 179.046 398.895 178.577 399.343C178.108 399.77 177.873 400.303 177.873 400.943C177.873 401.668 178.161 402.244 178.737 402.671C179.313 403.098 180.113 403.311 181.137 403.311C182.118 403.311 182.993 403.087 183.761 402.639C184.55 402.191 185.116 401.53 185.457 400.655L186.129 403.055C185.745 404.058 185.052 404.836 184.049 405.391C183.068 405.946 181.82 406.223 180.305 406.223ZM194.407 405.999V388.911H198.599L205.479 401.039H203.815L211.047 388.911H214.791L214.823 405.999H211.207V393.199L211.847 393.615L205.447 404.207H203.719L197.287 393.327L198.055 393.135V405.999H194.407ZM232.444 405.999L226.268 397.807L229.532 395.791L237.148 405.999H232.444ZM220.188 405.999V388.911H224.188V405.999H220.188ZM223.004 399.151V395.823H228.796V399.151H223.004ZM229.916 397.935L226.172 397.487L232.444 388.911H236.732L229.916 397.935ZM250.025 405.999V402.543L249.801 401.807V395.759C249.801 394.586 249.449 393.679 248.745 393.039C248.041 392.378 246.974 392.047 245.545 392.047C244.585 392.047 243.635 392.196 242.697 392.495C241.779 392.794 241.001 393.21 240.361 393.743L238.793 390.831C239.71 390.127 240.798 389.604 242.057 389.263C243.337 388.9 244.659 388.719 246.025 388.719C248.499 388.719 250.409 389.316 251.753 390.511C253.118 391.684 253.801 393.508 253.801 395.983V405.999H250.025ZM244.649 406.223C243.369 406.223 242.249 406.01 241.289 405.583C240.329 405.135 239.582 404.527 239.049 403.759C238.537 402.97 238.281 402.084 238.281 401.103C238.281 400.143 238.505 399.279 238.953 398.511C239.422 397.743 240.179 397.135 241.225 396.687C242.27 396.239 243.657 396.015 245.385 396.015H250.345V398.671H245.673C244.307 398.671 243.39 398.895 242.921 399.343C242.451 399.77 242.217 400.303 242.217 400.943C242.217 401.668 242.505 402.244 243.081 402.671C243.657 403.098 244.457 403.311 245.481 403.311C246.462 403.311 247.337 403.087 248.105 402.639C248.894 402.191 249.459 401.53 249.801 400.655L250.473 403.055C250.089 404.058 249.395 404.836 248.393 405.391C247.411 405.946 246.163 406.223 244.649 406.223ZM256.223 405.999L263.743 396.207L263.679 398.351L256.511 388.911H260.959L265.983 395.631H264.286L269.343 388.911H273.663L266.431 398.351L266.463 396.207L273.951 405.999H269.439L264.159 398.863L265.823 399.087L260.639 405.999H256.223ZM285.657 405.999V388.911H302.041V405.999H298.073V391.375L299.001 392.303H288.729L289.657 391.375V405.999H285.657ZM315.054 406.223C313.305 406.223 311.747 405.85 310.382 405.103C309.017 404.335 307.939 403.29 307.15 401.967C306.361 400.644 305.966 399.14 305.966 397.455C305.966 395.748 306.361 394.244 307.15 392.943C307.939 391.62 309.017 390.586 310.382 389.839C311.747 389.092 313.305 388.719 315.054 388.719C316.825 388.719 318.393 389.092 319.758 389.839C321.145 390.586 322.222 391.61 322.99 392.911C323.779 394.212 324.174 395.727 324.174 397.455C324.174 399.14 323.779 400.644 322.99 401.967C322.222 403.29 321.145 404.335 319.758 405.103C318.393 405.85 316.825 406.223 315.054 406.223ZM315.054 402.799C316.035 402.799 316.91 402.586 317.678 402.159C318.446 401.732 319.043 401.114 319.47 400.303C319.918 399.492 320.142 398.543 320.142 397.455C320.142 396.346 319.918 395.396 319.47 394.607C319.043 393.796 318.446 393.178 317.678 392.751C316.91 392.324 316.046 392.111 315.086 392.111C314.105 392.111 313.23 392.324 312.462 392.751C311.715 393.178 311.118 393.796 310.67 394.607C310.222 395.396 309.998 396.346 309.998 397.455C309.998 398.543 310.222 399.492 310.67 400.303C311.118 401.114 311.715 401.732 312.462 402.159C313.23 402.586 314.094 402.799 315.054 402.799ZM339.65 404.143V392.303H333.09L332.994 395.055C332.951 396.036 332.887 396.986 332.802 397.903C332.717 398.799 332.578 399.631 332.386 400.399C332.194 401.146 331.917 401.764 331.554 402.255C331.191 402.746 330.711 403.066 330.114 403.215L326.146 402.607C326.786 402.607 327.298 402.404 327.682 401.999C328.087 401.572 328.397 400.996 328.61 400.271C328.845 399.524 329.015 398.682 329.122 397.743C329.229 396.783 329.303 395.791 329.346 394.767L329.57 388.911H343.65V404.143H339.65ZM325.538 409.807V402.607H346.178V409.807H342.434V405.999H329.25V409.807H325.538ZM361.463 404.143V392.303H354.903L354.807 395.055C354.764 396.036 354.7 396.986 354.615 397.903C354.529 398.799 354.391 399.631 354.199 400.399C354.007 401.146 353.729 401.764 353.367 402.255C353.004 402.746 352.524 403.066 351.927 403.215L347.959 402.607C348.599 402.607 349.111 402.404 349.495 401.999C349.9 401.572 350.209 400.996 350.423 400.271C350.657 399.524 350.828 398.682 350.935 397.743C351.041 396.783 351.116 395.791 351.159 394.767L351.383 388.911H365.463V404.143H361.463ZM347.351 409.807V402.607H367.991V409.807H364.247V405.999H351.062V409.807H347.351ZM379.531 406.223C377.632 406.223 375.968 405.85 374.539 405.103C373.131 404.335 372.032 403.29 371.243 401.967C370.475 400.644 370.091 399.14 370.091 397.455C370.091 395.748 370.464 394.244 371.211 392.943C371.979 391.62 373.024 390.586 374.347 389.839C375.691 389.092 377.216 388.719 378.923 388.719C380.587 388.719 382.07 389.082 383.371 389.807C384.672 390.532 385.696 391.556 386.443 392.879C387.19 394.202 387.563 395.759 387.563 397.551C387.563 397.722 387.552 397.914 387.531 398.127C387.531 398.34 387.52 398.543 387.499 398.735H373.259V396.079H385.387L383.819 396.911C383.84 395.93 383.638 395.066 383.211 394.319C382.784 393.572 382.198 392.986 381.451 392.559C380.726 392.132 379.883 391.919 378.923 391.919C377.942 391.919 377.078 392.132 376.331 392.559C375.606 392.986 375.03 393.583 374.603 394.351C374.198 395.098 373.995 395.983 373.995 397.007V397.647C373.995 398.671 374.23 399.578 374.699 400.367C375.168 401.156 375.83 401.764 376.683 402.191C377.536 402.618 378.518 402.831 379.627 402.831C380.587 402.831 381.451 402.682 382.219 402.383C382.987 402.084 383.67 401.615 384.267 400.975L386.411 403.439C385.643 404.335 384.672 405.028 383.499 405.519C382.347 405.988 381.024 406.223 379.531 406.223ZM401.41 406.223C400.023 406.223 398.754 405.903 397.602 405.263C396.471 404.623 395.565 403.663 394.882 402.383C394.221 401.082 393.89 399.439 393.89 397.455C393.89 395.45 394.21 393.807 394.85 392.527C395.511 391.247 396.407 390.298 397.538 389.679C398.669 389.039 399.959 388.719 401.41 388.719C403.095 388.719 404.578 389.082 405.858 389.807C407.159 390.532 408.183 391.546 408.93 392.847C409.698 394.148 410.082 395.684 410.082 397.455C410.082 399.226 409.698 400.772 408.93 402.095C408.183 403.396 407.159 404.41 405.858 405.135C404.578 405.86 403.095 406.223 401.41 406.223ZM391.938 412.207V388.911H395.746V392.943L395.618 397.487L395.938 402.031V412.207H391.938ZM400.962 402.799C401.922 402.799 402.775 402.586 403.522 402.159C404.29 401.732 404.898 401.114 405.346 400.303C405.794 399.492 406.018 398.543 406.018 397.455C406.018 396.346 405.794 395.396 405.346 394.607C404.898 393.796 404.29 393.178 403.522 392.751C402.775 392.324 401.922 392.111 400.962 392.111C400.002 392.111 399.138 392.324 398.37 392.751C397.602 393.178 396.994 393.796 396.546 394.607C396.098 395.396 395.874 396.346 395.874 397.455C395.874 398.543 396.098 399.492 396.546 400.303C396.994 401.114 397.602 401.732 398.37 402.159C399.138 402.586 400.002 402.799 400.962 402.799ZM433.885 405.999L428.892 397.807L432.157 395.791L438.653 405.999H433.885ZM425.661 399.151V395.823H431.389V399.151H425.661ZM432.541 397.935L428.765 397.487L433.949 388.911H438.205L432.541 397.935ZM415.837 405.999H411.101L417.565 395.791L420.829 397.807L415.837 405.999ZM426.845 405.999H422.877V388.911H426.845V405.999ZM424.061 399.151H418.365V395.823H424.061V399.151ZM417.181 397.935L411.517 388.911H415.773L420.925 397.487L417.181 397.935ZM451.681 405.999V402.543L451.457 401.807V395.759C451.457 394.586 451.105 393.679 450.401 393.039C449.697 392.378 448.63 392.047 447.201 392.047C446.241 392.047 445.292 392.196 444.353 392.495C443.436 392.794 442.657 393.21 442.017 393.743L440.449 390.831C441.366 390.127 442.454 389.604 443.713 389.263C444.993 388.9 446.316 388.719 447.681 388.719C450.156 388.719 452.065 389.316 453.409 390.511C454.774 391.684 455.457 393.508 455.457 395.983V405.999H451.681ZM446.305 406.223C445.025 406.223 443.905 406.01 442.945 405.583C441.985 405.135 441.238 404.527 440.705 403.759C440.193 402.97 439.937 402.084 439.937 401.103C439.937 400.143 440.161 399.279 440.609 398.511C441.078 397.743 441.836 397.135 442.881 396.687C443.926 396.239 445.313 396.015 447.041 396.015H452.001V398.671H447.329C445.964 398.671 445.046 398.895 444.577 399.343C444.108 399.77 443.873 400.303 443.873 400.943C443.873 401.668 444.161 402.244 444.737 402.671C445.313 403.098 446.113 403.311 447.137 403.311C448.118 403.311 448.993 403.087 449.761 402.639C450.55 402.191 451.116 401.53 451.457 400.655L452.129 403.055C451.745 404.058 451.052 404.836 450.049 405.391C449.068 405.946 447.82 406.223 446.305 406.223ZM460.407 405.999V388.911H464.407V395.855H473.015V388.911H477.015V405.999H473.015V399.247H464.407V405.999H460.407ZM482.376 405.999V388.911H486.376V400.175L495.816 388.911H499.464V405.999H495.464V394.735L486.056 405.999H482.376ZM515.692 405.999V400.175L516.268 400.847H511.148C508.802 400.847 506.956 400.356 505.612 399.375C504.29 398.372 503.628 396.932 503.628 395.055C503.628 393.05 504.332 391.524 505.74 390.479C507.17 389.434 509.068 388.911 511.436 388.911H519.276V405.999H515.692ZM503.404 405.999L508.012 399.471H512.108L507.692 405.999H503.404ZM515.692 398.895V391.215L516.268 392.271H511.564C510.327 392.271 509.367 392.506 508.684 392.975C508.023 393.423 507.692 394.159 507.692 395.183C507.692 397.103 508.94 398.063 511.436 398.063H516.268L515.692 398.895ZM533.501 405.999V388.911H549.885V405.999H545.917V391.375L546.845 392.303H536.573L537.501 391.375V405.999H533.501ZM564.754 406.223C563.367 406.223 562.098 405.903 560.946 405.263C559.815 404.623 558.908 403.663 558.226 402.383C557.564 401.082 557.234 399.439 557.234 397.455C557.234 395.45 557.554 393.807 558.194 392.527C558.855 391.247 559.751 390.298 560.882 389.679C562.012 389.039 563.303 388.719 564.754 388.719C566.439 388.719 567.922 389.082 569.202 389.807C570.503 390.532 571.527 391.546 572.274 392.847C573.042 394.148 573.426 395.684 573.426 397.455C573.426 399.226 573.042 400.772 572.274 402.095C571.527 403.396 570.503 404.41 569.202 405.135C567.922 405.86 566.439 406.223 564.754 406.223ZM555.282 412.207V388.911H559.09V392.943L558.962 397.487L559.282 402.031V412.207H555.282ZM564.306 402.799C565.266 402.799 566.119 402.586 566.866 402.159C567.634 401.732 568.242 401.114 568.69 400.303C569.138 399.492 569.362 398.543 569.362 397.455C569.362 396.346 569.138 395.396 568.69 394.607C568.242 393.796 567.634 393.178 566.866 392.751C566.119 392.324 565.266 392.111 564.306 392.111C563.346 392.111 562.482 392.324 561.714 392.751C560.946 393.178 560.338 393.796 559.89 394.607C559.442 395.396 559.218 396.346 559.218 397.455C559.218 398.543 559.442 399.492 559.89 400.303C560.338 401.114 560.946 401.732 561.714 402.159C562.482 402.586 563.346 402.799 564.306 402.799ZM585.023 406.223C583.273 406.223 581.716 405.85 580.351 405.103C578.985 404.335 577.908 403.29 577.119 401.967C576.329 400.644 575.935 399.14 575.935 397.455C575.935 395.748 576.329 394.244 577.119 392.943C577.908 391.62 578.985 390.586 580.351 389.839C581.716 389.092 583.273 388.719 585.023 388.719C586.793 388.719 588.361 389.092 589.727 389.839C591.113 390.586 592.191 391.61 592.959 392.911C593.748 394.212 594.143 395.727 594.143 397.455C594.143 399.14 593.748 400.644 592.959 401.967C592.191 403.29 591.113 404.335 589.727 405.103C588.361 405.85 586.793 406.223 585.023 406.223ZM585.023 402.799C586.004 402.799 586.879 402.586 587.647 402.159C588.415 401.732 589.012 401.114 589.439 400.303C589.887 399.492 590.111 398.543 590.111 397.455C590.111 396.346 589.887 395.396 589.439 394.607C589.012 393.796 588.415 393.178 587.647 392.751C586.879 392.324 586.015 392.111 585.055 392.111C584.073 392.111 583.199 392.324 582.431 392.751C581.684 393.178 581.087 393.796 580.639 394.607C580.191 395.396 579.967 396.346 579.967 397.455C579.967 398.543 580.191 399.492 580.639 400.303C581.087 401.114 581.684 401.732 582.431 402.159C583.199 402.586 584.063 402.799 585.023 402.799ZM606.062 406.223C604.164 406.223 602.5 405.85 601.07 405.103C599.662 404.335 598.564 403.29 597.774 401.967C597.006 400.644 596.622 399.14 596.622 397.455C596.622 395.748 596.996 394.244 597.742 392.943C598.51 391.62 599.556 390.586 600.878 389.839C602.222 389.092 603.748 388.719 605.454 388.719C607.118 388.719 608.601 389.082 609.902 389.807C611.204 390.532 612.228 391.556 612.974 392.879C613.721 394.202 614.094 395.759 614.094 397.551C614.094 397.722 614.084 397.914 614.062 398.127C614.062 398.34 614.052 398.543 614.03 398.735H599.79V396.079H611.918L610.35 396.911C610.372 395.93 610.169 395.066 609.742 394.319C609.316 393.572 608.729 392.986 607.982 392.559C607.257 392.132 606.414 391.919 605.454 391.919C604.473 391.919 603.609 392.132 602.862 392.559C602.137 392.986 601.561 393.583 601.134 394.351C600.729 395.098 600.526 395.983 600.526 397.007V397.647C600.526 398.671 600.761 399.578 601.23 400.367C601.7 401.156 602.361 401.764 603.214 402.191C604.068 402.618 605.049 402.831 606.158 402.831C607.118 402.831 607.982 402.682 608.75 402.383C609.518 402.084 610.201 401.615 610.798 400.975L612.942 403.439C612.174 404.335 611.204 405.028 610.03 405.519C608.878 405.988 607.556 406.223 606.062 406.223ZM630.725 405.999L624.549 397.807L627.813 395.791L635.429 405.999H630.725ZM618.469 405.999V388.911H622.469V405.999H618.469ZM621.285 399.151V395.823H627.077V399.151H621.285ZM628.197 397.935L624.453 397.487L630.725 388.911H635.013L628.197 397.935ZM641.584 405.999V391.343L642.512 392.303H635.568V388.911H651.568V392.303H644.656L645.584 391.343V405.999H641.584ZM664.837 405.999V402.543L664.613 401.807V395.759C664.613 394.586 664.261 393.679 663.557 393.039C662.853 392.378 661.787 392.047 660.357 392.047C659.397 392.047 658.448 392.196 657.509 392.495C656.592 392.794 655.813 393.21 655.173 393.743L653.605 390.831C654.523 390.127 655.611 389.604 656.869 389.263C658.149 388.9 659.472 388.719 660.837 388.719C663.312 388.719 665.221 389.316 666.565 390.511C667.931 391.684 668.613 393.508 668.613 395.983V405.999H664.837ZM659.461 406.223C658.181 406.223 657.061 406.01 656.101 405.583C655.141 405.135 654.395 404.527 653.861 403.759C653.349 402.97 653.093 402.084 653.093 401.103C653.093 400.143 653.317 399.279 653.765 398.511C654.235 397.743 654.992 397.135 656.037 396.687C657.083 396.239 658.469 396.015 660.197 396.015H665.157V398.671H660.485C659.12 398.671 658.203 398.895 657.733 399.343C657.264 399.77 657.029 400.303 657.029 400.943C657.029 401.668 657.317 402.244 657.893 402.671C658.469 403.098 659.269 403.311 660.293 403.311C661.275 403.311 662.149 403.087 662.917 402.639C663.707 402.191 664.272 401.53 664.613 400.655L665.285 403.055C664.901 404.058 664.208 404.836 663.205 405.391C662.224 405.946 660.976 406.223 659.461 406.223ZM672.443 410.831L674.299 403.759L674.843 406.127C674.096 406.127 673.467 405.903 672.955 405.455C672.464 404.986 672.219 404.356 672.219 403.567C672.219 402.756 672.464 402.116 672.955 401.647C673.467 401.156 674.086 400.911 674.811 400.911C675.558 400.911 676.176 401.156 676.667 401.647C677.158 402.138 677.403 402.778 677.403 403.567C677.403 403.78 677.382 404.015 677.339 404.271C677.296 404.506 677.222 404.783 677.115 405.103C677.03 405.423 676.88 405.828 676.667 406.319L675.035 410.831H672.443ZM698.379 406.319C696.971 406.319 695.713 406.106 694.603 405.679C693.494 405.252 692.534 404.602 691.723 403.727C690.934 402.831 690.326 401.7 689.899 400.335C689.473 398.97 689.259 397.348 689.259 395.471C689.259 394.106 689.377 392.858 689.611 391.727C689.846 390.596 690.198 389.583 690.667 388.687C691.137 387.77 691.723 386.959 692.427 386.255C693.153 385.551 693.995 384.964 694.955 384.495C695.915 384.026 697.003 383.663 698.219 383.407L706.155 381.711L706.731 385.295L699.531 386.767C699.126 386.852 698.635 386.98 698.059 387.151C697.505 387.3 696.929 387.535 696.331 387.855C695.755 388.154 695.211 388.591 694.699 389.167C694.209 389.722 693.803 390.447 693.483 391.343C693.185 392.218 693.035 393.316 693.035 394.639C693.035 395.044 693.046 395.354 693.067 395.567C693.11 395.759 693.142 395.972 693.163 396.207C693.206 396.42 693.227 396.74 693.227 397.167L691.723 395.599C692.15 394.511 692.737 393.583 693.483 392.815C694.251 392.026 695.137 391.428 696.139 391.023C697.163 390.596 698.273 390.383 699.467 390.383C701.067 390.383 702.486 390.714 703.723 391.375C704.961 392.036 705.931 392.964 706.635 394.159C707.339 395.354 707.691 396.708 707.691 398.223C707.691 399.802 707.307 401.199 706.539 402.415C705.771 403.631 704.683 404.591 703.275 405.295C701.889 405.978 700.257 406.319 698.379 406.319ZM698.699 403.087C699.659 403.087 700.502 402.884 701.227 402.479C701.974 402.052 702.55 401.476 702.955 400.751C703.382 400.026 703.595 399.215 703.595 398.319C703.595 397.423 703.382 396.644 702.955 395.983C702.55 395.3 701.974 394.756 701.227 394.351C700.502 393.946 699.638 393.743 698.635 393.743C697.675 393.743 696.811 393.935 696.043 394.319C695.297 394.703 694.71 395.236 694.283 395.919C693.878 396.58 693.675 397.348 693.675 398.223C693.675 399.119 693.889 399.94 694.315 400.687C694.742 401.434 695.329 402.02 696.075 402.447C696.843 402.874 697.718 403.087 698.699 403.087ZM712.63 412.431C711.798 412.431 710.966 412.292 710.134 412.015C709.302 411.738 708.609 411.354 708.054 410.863L709.654 407.919C710.06 408.282 710.518 408.57 711.03 408.783C711.542 408.996 712.065 409.103 712.598 409.103C713.324 409.103 713.91 408.922 714.358 408.559C714.806 408.196 715.222 407.588 715.606 406.735L716.598 404.495L716.918 404.015L723.382 388.911H727.222L719.222 407.375C718.689 408.655 718.092 409.668 717.43 410.415C716.79 411.162 716.065 411.684 715.254 411.983C714.465 412.282 713.59 412.431 712.63 412.431ZM716.15 406.607L708.438 388.911H712.598L718.87 403.663L716.15 406.607ZM740.681 404.143V392.303H734.121L734.025 395.055C733.983 396.036 733.919 396.986 733.833 397.903C733.748 398.799 733.609 399.631 733.417 400.399C733.225 401.146 732.948 401.764 732.585 402.255C732.223 402.746 731.743 403.066 731.145 403.215L727.177 402.607C727.817 402.607 728.329 402.404 728.713 401.999C729.119 401.572 729.428 400.996 729.641 400.271C729.876 399.524 730.047 398.682 730.153 397.743C730.26 396.783 730.335 395.791 730.377 394.767L730.601 388.911H744.681V404.143H740.681ZM726.569 409.807V402.607H747.209V409.807H743.465V405.999H730.281V409.807H726.569ZM752.318 412.431C751.486 412.431 750.654 412.292 749.822 412.015C748.99 411.738 748.296 411.354 747.742 410.863L749.342 407.919C749.747 408.282 750.206 408.57 750.718 408.783C751.23 408.996 751.752 409.103 752.286 409.103C753.011 409.103 753.598 408.922 754.046 408.559C754.494 408.196 754.91 407.588 755.294 406.735L756.286 404.495L756.606 404.015L763.07 388.911H766.91L758.91 407.375C758.376 408.655 757.779 409.668 757.118 410.415C756.478 411.162 755.752 411.684 754.942 411.983C754.152 412.282 753.278 412.431 752.318 412.431ZM755.838 406.607L748.126 388.911H752.286L758.558 403.663L755.838 406.607ZM773.271 405.999V391.343L774.199 392.303H767.255V388.911H783.255V392.303H776.343L777.271 391.343V405.999H773.271ZM795.001 405.999V388.911H811.385V405.999H807.417V391.375L808.345 392.303H798.073L799.001 391.375V405.999H795.001ZM826.254 406.223C824.867 406.223 823.598 405.903 822.446 405.263C821.315 404.623 820.408 403.663 819.726 402.383C819.064 401.082 818.734 399.439 818.734 397.455C818.734 395.45 819.054 393.807 819.694 392.527C820.355 391.247 821.251 390.298 822.382 389.679C823.512 389.039 824.803 388.719 826.254 388.719C827.939 388.719 829.422 389.082 830.702 389.807C832.003 390.532 833.027 391.546 833.774 392.847C834.542 394.148 834.926 395.684 834.926 397.455C834.926 399.226 834.542 400.772 833.774 402.095C833.027 403.396 832.003 404.41 830.702 405.135C829.422 405.86 827.939 406.223 826.254 406.223ZM816.782 412.207V388.911H820.59V392.943L820.462 397.487L820.782 402.031V412.207H816.782ZM825.806 402.799C826.766 402.799 827.619 402.586 828.366 402.159C829.134 401.732 829.742 401.114 830.19 400.303C830.638 399.492 830.862 398.543 830.862 397.455C830.862 396.346 830.638 395.396 830.19 394.607C829.742 393.796 829.134 393.178 828.366 392.751C827.619 392.324 826.766 392.111 825.806 392.111C824.846 392.111 823.982 392.324 823.214 392.751C822.446 393.178 821.838 393.796 821.39 394.607C820.942 395.396 820.718 396.346 820.718 397.455C820.718 398.543 820.942 399.492 821.39 400.303C821.838 401.114 822.446 401.732 823.214 402.159C823.982 402.586 824.846 402.799 825.806 402.799ZM846.523 406.223C844.773 406.223 843.216 405.85 841.851 405.103C840.485 404.335 839.408 403.29 838.619 401.967C837.829 400.644 837.435 399.14 837.435 397.455C837.435 395.748 837.829 394.244 838.619 392.943C839.408 391.62 840.485 390.586 841.851 389.839C843.216 389.092 844.773 388.719 846.523 388.719C848.293 388.719 849.861 389.092 851.227 389.839C852.613 390.586 853.691 391.61 854.459 392.911C855.248 394.212 855.643 395.727 855.643 397.455C855.643 399.14 855.248 400.644 854.459 401.967C853.691 403.29 852.613 404.335 851.227 405.103C849.861 405.85 848.293 406.223 846.523 406.223ZM846.523 402.799C847.504 402.799 848.379 402.586 849.147 402.159C849.915 401.732 850.512 401.114 850.939 400.303C851.387 399.492 851.611 398.543 851.611 397.455C851.611 396.346 851.387 395.396 850.939 394.607C850.512 393.796 849.915 393.178 849.147 392.751C848.379 392.324 847.515 392.111 846.555 392.111C845.573 392.111 844.699 392.324 843.931 392.751C843.184 393.178 842.587 393.796 842.139 394.607C841.691 395.396 841.467 396.346 841.467 397.455C841.467 398.543 841.691 399.492 842.139 400.303C842.587 401.114 843.184 401.732 843.931 402.159C844.699 402.586 845.563 402.799 846.523 402.799ZM859.594 405.999V388.911H863.594V400.175L873.034 388.911H876.682V405.999H872.682V394.735L863.274 405.999H859.594ZM887.252 406.287C885.951 406.287 884.66 406.138 883.38 405.839C882.122 405.519 880.98 405.071 879.956 404.495L881.076 401.519C881.908 401.988 882.847 402.351 883.892 402.607C884.938 402.863 885.983 402.991 887.028 402.991C887.924 402.991 888.692 402.906 889.332 402.735C889.972 402.543 890.463 402.266 890.804 401.903C891.167 401.54 891.348 401.124 891.348 400.655C891.348 399.972 891.05 399.46 890.452 399.119C889.876 398.756 889.044 398.575 887.956 398.575H884.66V395.887H887.636C888.319 395.887 888.895 395.812 889.364 395.663C889.855 395.514 890.228 395.29 890.484 394.991C890.74 394.692 890.868 394.34 890.868 393.935C890.868 393.53 890.708 393.178 890.388 392.879C890.09 392.559 889.652 392.324 889.076 392.175C888.5 392.004 887.807 391.919 886.996 391.919C886.143 391.919 885.258 392.026 884.34 392.239C883.444 392.452 882.527 392.762 881.588 393.167L880.564 390.223C881.652 389.732 882.708 389.359 883.732 389.103C884.778 388.826 885.812 388.676 886.836 388.655C888.394 388.591 889.78 388.751 890.996 389.135C892.212 389.519 893.172 390.074 893.876 390.799C894.58 391.524 894.932 392.378 894.932 393.359C894.932 394.17 894.676 394.906 894.164 395.567C893.674 396.207 892.991 396.708 892.116 397.071C891.263 397.434 890.282 397.615 889.172 397.615L889.3 396.751C891.199 396.751 892.692 397.135 893.78 397.903C894.868 398.65 895.412 399.674 895.412 400.975C895.412 402.02 895.06 402.948 894.356 403.759C893.652 404.548 892.682 405.167 891.444 405.615C890.228 406.063 888.831 406.287 887.252 406.287ZM899.532 405.999V388.911H907.884C909.953 388.911 911.574 389.295 912.748 390.063C913.942 390.831 914.54 391.919 914.54 393.327C914.54 394.714 913.985 395.802 912.876 396.591C911.766 397.359 910.294 397.743 908.46 397.743L908.94 396.751C911.009 396.751 912.545 397.135 913.548 397.903C914.572 398.65 915.084 399.748 915.084 401.199C915.084 402.714 914.518 403.898 913.388 404.751C912.257 405.583 910.54 405.999 908.236 405.999H899.532ZM903.34 403.087H907.916C909.004 403.087 909.825 402.916 910.38 402.575C910.934 402.212 911.212 401.668 911.212 400.943C911.212 400.175 910.956 399.61 910.444 399.247C909.932 398.884 909.132 398.703 908.044 398.703H903.34V403.087ZM903.34 396.047H907.532C908.556 396.047 909.324 395.866 909.836 395.503C910.369 395.119 910.636 394.586 910.636 393.903C910.636 393.199 910.369 392.676 909.836 392.335C909.324 391.994 908.556 391.823 907.532 391.823H903.34V396.047ZM926.96 406.223C925.211 406.223 923.654 405.85 922.288 405.103C920.923 404.335 919.846 403.29 919.056 401.967C918.267 400.644 917.872 399.14 917.872 397.455C917.872 395.748 918.267 394.244 919.056 392.943C919.846 391.62 920.923 390.586 922.288 389.839C923.654 389.092 925.211 388.719 926.96 388.719C928.731 388.719 930.299 389.092 931.664 389.839C933.051 390.586 934.128 391.61 934.896 392.911C935.686 394.212 936.08 395.727 936.08 397.455C936.08 399.14 935.686 400.644 934.896 401.967C934.128 403.29 933.051 404.335 931.664 405.103C930.299 405.85 928.731 406.223 926.96 406.223ZM926.96 402.799C927.942 402.799 928.816 402.586 929.584 402.159C930.352 401.732 930.95 401.114 931.376 400.303C931.824 399.492 932.048 398.543 932.048 397.455C932.048 396.346 931.824 395.396 931.376 394.607C930.95 393.796 930.352 393.178 929.584 392.751C928.816 392.324 927.952 392.111 926.992 392.111C926.011 392.111 925.136 392.324 924.368 392.751C923.622 393.178 923.024 393.796 922.576 394.607C922.128 395.396 921.904 396.346 921.904 397.455C921.904 398.543 922.128 399.492 922.576 400.303C923.024 401.114 923.622 401.732 924.368 402.159C925.136 402.586 926 402.799 926.96 402.799ZM951.556 404.143V392.303H944.996L944.9 395.055C944.858 396.036 944.794 396.986 944.708 397.903C944.623 398.799 944.484 399.631 944.292 400.399C944.1 401.146 943.823 401.764 943.46 402.255C943.098 402.746 942.618 403.066 942.02 403.215L938.052 402.607C938.692 402.607 939.204 402.404 939.588 401.999C939.994 401.572 940.303 400.996 940.516 400.271C940.751 399.524 940.922 398.682 941.028 397.743C941.135 396.783 941.21 395.791 941.252 394.767L941.476 388.911H955.556V404.143H951.556ZM937.444 409.807V402.607H958.084V409.807H954.34V405.999H941.156V409.807H937.444ZM961.657 405.999V388.911H965.657V400.175L975.097 388.911H978.745V405.999H974.745V394.735L965.337 405.999H961.657ZM987.678 405.999V391.343L988.606 392.303H981.662V388.911H997.662V392.303H990.75L991.678 391.343V405.999H987.678ZM1009.14 394.543C1011.34 394.543 1013.01 395.034 1014.16 396.015C1015.31 396.996 1015.89 398.383 1015.89 400.175C1015.89 402.031 1015.25 403.482 1013.97 404.527C1012.69 405.551 1010.89 406.052 1008.56 406.031L1000.56 405.999V388.911H1004.56V394.511L1009.14 394.543ZM1008.21 403.087C1009.38 403.108 1010.28 402.863 1010.9 402.351C1011.52 401.839 1011.83 401.092 1011.83 400.111C1011.83 399.13 1011.52 398.426 1010.9 397.999C1010.3 397.551 1009.41 397.316 1008.21 397.295L1004.56 397.263V403.055L1008.21 403.087ZM1027.18 406.223C1025.39 406.223 1023.79 405.85 1022.38 405.103C1021 404.335 1019.91 403.29 1019.12 401.967C1018.33 400.644 1017.93 399.14 1017.93 397.455C1017.93 395.748 1018.33 394.244 1019.12 392.943C1019.91 391.62 1021 390.586 1022.38 389.839C1023.79 389.092 1025.39 388.719 1027.18 388.719C1028.85 388.719 1030.31 389.06 1031.57 389.743C1032.85 390.404 1033.82 391.386 1034.48 392.687L1031.41 394.479C1030.89 393.668 1030.27 393.071 1029.52 392.687C1028.79 392.303 1028 392.111 1027.15 392.111C1026.17 392.111 1025.28 392.324 1024.49 392.751C1023.71 393.178 1023.09 393.796 1022.64 394.607C1022.19 395.396 1021.97 396.346 1021.97 397.455C1021.97 398.564 1022.19 399.524 1022.64 400.335C1023.09 401.124 1023.71 401.732 1024.49 402.159C1025.28 402.586 1026.17 402.799 1027.15 402.799C1028 402.799 1028.79 402.607 1029.52 402.223C1030.27 401.839 1030.89 401.242 1031.41 400.431L1034.48 402.223C1033.82 403.503 1032.85 404.495 1031.57 405.199C1030.31 405.882 1028.85 406.223 1027.18 406.223ZM1048.38 405.999V400.175L1048.96 400.847H1043.84C1041.49 400.847 1039.64 400.356 1038.3 399.375C1036.98 398.372 1036.32 396.932 1036.32 395.055C1036.32 393.05 1037.02 391.524 1038.43 390.479C1039.86 389.434 1041.76 388.911 1044.12 388.911H1051.96V405.999H1048.38ZM1036.09 405.999L1040.7 399.471H1044.8L1040.38 405.999H1036.09ZM1048.38 398.895V391.215L1048.96 392.271H1044.25C1043.01 392.271 1042.05 392.506 1041.37 392.975C1040.71 393.423 1040.38 394.159 1040.38 395.183C1040.38 397.103 1041.63 398.063 1044.12 398.063H1048.96L1048.38 398.895ZM128.656 450.223C126.757 450.223 125.093 449.85 123.664 449.103C122.256 448.335 121.157 447.29 120.368 445.967C119.6 444.644 119.216 443.14 119.216 441.455C119.216 439.748 119.589 438.244 120.336 436.943C121.104 435.62 122.149 434.586 123.472 433.839C124.816 433.092 126.341 432.719 128.048 432.719C129.712 432.719 131.195 433.082 132.496 433.807C133.797 434.532 134.821 435.556 135.568 436.879C136.315 438.202 136.688 439.759 136.688 441.551C136.688 441.722 136.677 441.914 136.656 442.127C136.656 442.34 136.645 442.543 136.624 442.735H122.384V440.079H134.512L132.944 440.911C132.965 439.93 132.763 439.066 132.336 438.319C131.909 437.572 131.323 436.986 130.576 436.559C129.851 436.132 129.008 435.919 128.048 435.919C127.067 435.919 126.203 436.132 125.456 436.559C124.731 436.986 124.155 437.583 123.728 438.351C123.323 439.098 123.12 439.983 123.12 441.007V441.647C123.12 442.671 123.355 443.578 123.824 444.367C124.293 445.156 124.955 445.764 125.808 446.191C126.661 446.618 127.643 446.831 128.752 446.831C129.712 446.831 130.576 446.682 131.344 446.383C132.112 446.084 132.795 445.615 133.392 444.975L135.536 447.439C134.768 448.335 133.797 449.028 132.624 449.519C131.472 449.988 130.149 450.223 128.656 450.223ZM160.978 449.999L155.986 441.807L159.25 439.791L165.746 449.999H160.978ZM152.754 443.151V439.823H158.482V443.151H152.754ZM159.634 441.935L155.858 441.487L161.042 432.911H165.298L159.634 441.935ZM142.93 449.999H138.194L144.658 439.791L147.922 441.807L142.93 449.999ZM153.938 449.999H149.97V432.911H153.938V449.999ZM151.154 443.151H145.458V439.823H151.154V443.151ZM144.274 441.935L138.61 432.911H142.866L148.018 441.487L144.274 441.935ZM176.125 450.223C174.226 450.223 172.562 449.85 171.133 449.103C169.725 448.335 168.626 447.29 167.837 445.967C167.069 444.644 166.685 443.14 166.685 441.455C166.685 439.748 167.058 438.244 167.805 436.943C168.573 435.62 169.618 434.586 170.941 433.839C172.285 433.092 173.81 432.719 175.517 432.719C177.181 432.719 178.663 433.082 179.965 433.807C181.266 434.532 182.29 435.556 183.037 436.879C183.783 438.202 184.157 439.759 184.157 441.551C184.157 441.722 184.146 441.914 184.125 442.127C184.125 442.34 184.114 442.543 184.093 442.735H169.853V440.079H181.981L180.413 440.911C180.434 439.93 180.231 439.066 179.805 438.319C179.378 437.572 178.791 436.986 178.045 436.559C177.319 436.132 176.477 435.919 175.517 435.919C174.535 435.919 173.671 436.132 172.925 436.559C172.199 436.986 171.623 437.583 171.197 438.351C170.791 439.098 170.589 439.983 170.589 441.007V441.647C170.589 442.671 170.823 443.578 171.293 444.367C171.762 445.156 172.423 445.764 173.277 446.191C174.13 446.618 175.111 446.831 176.221 446.831C177.181 446.831 178.045 446.682 178.813 446.383C179.581 446.084 180.263 445.615 180.861 444.975L183.005 447.439C182.237 448.335 181.266 449.028 180.093 449.519C178.941 449.988 177.618 450.223 176.125 450.223ZM188.532 449.999V432.911H192.724L199.604 445.039H197.94L205.172 432.911H208.916L208.948 449.999H205.332V437.199L205.972 437.615L199.572 448.207H197.844L191.412 437.327L192.18 437.135V449.999H188.532ZM222.281 450.223C220.382 450.223 218.718 449.85 217.289 449.103C215.881 448.335 214.782 447.29 213.993 445.967C213.225 444.644 212.841 443.14 212.841 441.455C212.841 439.748 213.214 438.244 213.961 436.943C214.729 435.62 215.774 434.586 217.097 433.839C218.441 433.092 219.966 432.719 221.673 432.719C223.337 432.719 224.82 433.082 226.121 433.807C227.422 434.532 228.446 435.556 229.193 436.879C229.94 438.202 230.313 439.759 230.313 441.551C230.313 441.722 230.302 441.914 230.281 442.127C230.281 442.34 230.27 442.543 230.249 442.735H216.009V440.079H228.137L226.569 440.911C226.59 439.93 226.388 439.066 225.961 438.319C225.534 437.572 224.948 436.986 224.201 436.559C223.476 436.132 222.633 435.919 221.673 435.919C220.692 435.919 219.828 436.132 219.081 436.559C218.356 436.986 217.78 437.583 217.353 438.351C216.948 439.098 216.745 439.983 216.745 441.007V441.647C216.745 442.671 216.98 443.578 217.449 444.367C217.918 445.156 218.58 445.764 219.433 446.191C220.286 446.618 221.268 446.831 222.377 446.831C223.337 446.831 224.201 446.682 224.969 446.383C225.737 446.084 226.42 445.615 227.017 444.975L229.161 447.439C228.393 448.335 227.422 449.028 226.249 449.519C225.097 449.988 223.774 450.223 222.281 450.223ZM242.464 450.223C240.672 450.223 239.072 449.85 237.664 449.103C236.277 448.335 235.189 447.29 234.4 445.967C233.611 444.644 233.216 443.14 233.216 441.455C233.216 439.748 233.611 438.244 234.4 436.943C235.189 435.62 236.277 434.586 237.664 433.839C239.072 433.092 240.672 432.719 242.464 432.719C244.128 432.719 245.589 433.06 246.848 433.743C248.128 434.404 249.099 435.386 249.76 436.687L246.688 438.479C246.176 437.668 245.547 437.071 244.8 436.687C244.075 436.303 243.285 436.111 242.432 436.111C241.451 436.111 240.565 436.324 239.776 436.751C238.987 437.178 238.368 437.796 237.92 438.607C237.472 439.396 237.248 440.346 237.248 441.455C237.248 442.564 237.472 443.524 237.92 444.335C238.368 445.124 238.987 445.732 239.776 446.159C240.565 446.586 241.451 446.799 242.432 446.799C243.285 446.799 244.075 446.607 244.8 446.223C245.547 445.839 246.176 445.242 246.688 444.431L249.76 446.223C249.099 447.503 248.128 448.495 246.848 449.199C245.589 449.882 244.128 450.223 242.464 450.223ZM263.661 449.999V444.175L264.237 444.847H259.117C256.77 444.847 254.925 444.356 253.581 443.375C252.258 442.372 251.597 440.932 251.597 439.055C251.597 437.05 252.301 435.524 253.709 434.479C255.138 433.434 257.037 432.911 259.405 432.911H267.245V449.999H263.661ZM251.373 449.999L255.981 443.471H260.077L255.661 449.999H251.373ZM263.661 442.895V435.215L264.237 436.271H259.533C258.296 436.271 257.336 436.506 256.653 436.975C255.992 437.423 255.661 438.159 255.661 439.183C255.661 441.103 256.909 442.063 259.405 442.063H264.237L263.661 442.895ZM283.41 443.247C282.599 443.631 281.735 443.951 280.818 444.207C279.922 444.442 278.972 444.559 277.97 444.559C275.815 444.559 274.14 444.058 272.946 443.055C271.751 442.052 271.154 440.495 271.154 438.383V432.911H275.154V438.127C275.154 439.258 275.474 440.079 276.114 440.591C276.775 441.103 277.682 441.359 278.834 441.359C279.602 441.359 280.37 441.263 281.138 441.071C281.906 440.879 282.663 440.612 283.41 440.271V443.247ZM283.122 449.999V432.911H287.122V449.999H283.122ZM292.501 449.999V432.911H296.501V439.855H305.109V432.911H309.109V449.999H305.109V443.247H296.501V449.999H292.501ZM331.717 449.999V432.911H335.717V449.999H331.717ZM322.789 438.543C324.987 438.543 326.651 439.034 327.781 440.015C328.933 440.996 329.509 442.383 329.509 444.175C329.509 446.031 328.869 447.482 327.589 448.527C326.331 449.551 324.539 450.052 322.213 450.031L314.469 449.999V432.911H318.469V438.511L322.789 438.543ZM321.861 447.087C323.035 447.108 323.931 446.863 324.549 446.351C325.168 445.839 325.477 445.092 325.477 444.111C325.477 443.13 325.168 442.426 324.549 441.999C323.952 441.551 323.056 441.316 321.861 441.295L318.469 441.263V447.055L321.861 447.087ZM349.062 450.223C347.164 450.223 345.5 449.85 344.07 449.103C342.662 448.335 341.564 447.29 340.774 445.967C340.006 444.644 339.622 443.14 339.622 441.455C339.622 439.748 339.996 438.244 340.742 436.943C341.51 435.62 342.556 434.586 343.878 433.839C345.222 433.092 346.748 432.719 348.454 432.719C350.118 432.719 351.601 433.082 352.902 433.807C354.204 434.532 355.228 435.556 355.974 436.879C356.721 438.202 357.094 439.759 357.094 441.551C357.094 441.722 357.084 441.914 357.062 442.127C357.062 442.34 357.052 442.543 357.03 442.735H342.79V440.079H354.918L353.35 440.911C353.372 439.93 353.169 439.066 352.742 438.319C352.316 437.572 351.729 436.986 350.982 436.559C350.257 436.132 349.414 435.919 348.454 435.919C347.473 435.919 346.609 436.132 345.862 436.559C345.137 436.986 344.561 437.583 344.134 438.351C343.729 439.098 343.526 439.983 343.526 441.007V441.647C343.526 442.671 343.761 443.578 344.23 444.367C344.7 445.156 345.361 445.764 346.214 446.191C347.068 446.618 348.049 446.831 349.158 446.831C350.118 446.831 350.982 446.682 351.75 446.383C352.518 446.084 353.201 445.615 353.798 444.975L355.942 447.439C355.174 448.335 354.204 449.028 353.03 449.519C351.878 449.988 350.556 450.223 349.062 450.223ZM378.473 450.319C377.065 450.319 375.806 450.106 374.697 449.679C373.588 449.252 372.628 448.602 371.817 447.727C371.028 446.831 370.42 445.7 369.993 444.335C369.566 442.97 369.353 441.348 369.353 439.471C369.353 438.106 369.47 436.858 369.705 435.727C369.94 434.596 370.292 433.583 370.761 432.687C371.23 431.77 371.817 430.959 372.521 430.255C373.246 429.551 374.089 428.964 375.049 428.495C376.009 428.026 377.097 427.663 378.313 427.407L386.249 425.711L386.825 429.295L379.625 430.767C379.22 430.852 378.729 430.98 378.153 431.151C377.598 431.3 377.022 431.535 376.425 431.855C375.849 432.154 375.305 432.591 374.793 433.167C374.302 433.722 373.897 434.447 373.577 435.343C373.278 436.218 373.129 437.316 373.129 438.639C373.129 439.044 373.14 439.354 373.161 439.567C373.204 439.759 373.236 439.972 373.257 440.207C373.3 440.42 373.321 440.74 373.321 441.167L371.817 439.599C372.244 438.511 372.83 437.583 373.577 436.815C374.345 436.026 375.23 435.428 376.233 435.023C377.257 434.596 378.366 434.383 379.561 434.383C381.161 434.383 382.58 434.714 383.817 435.375C385.054 436.036 386.025 436.964 386.729 438.159C387.433 439.354 387.785 440.708 387.785 442.223C387.785 443.802 387.401 445.199 386.633 446.415C385.865 447.631 384.777 448.591 383.369 449.295C381.982 449.978 380.35 450.319 378.473 450.319ZM378.793 447.087C379.753 447.087 380.596 446.884 381.321 446.479C382.068 446.052 382.644 445.476 383.049 444.751C383.476 444.026 383.689 443.215 383.689 442.319C383.689 441.423 383.476 440.644 383.049 439.983C382.644 439.3 382.068 438.756 381.321 438.351C380.596 437.946 379.732 437.743 378.729 437.743C377.769 437.743 376.905 437.935 376.137 438.319C375.39 438.703 374.804 439.236 374.377 439.919C373.972 440.58 373.769 441.348 373.769 442.223C373.769 443.119 373.982 443.94 374.409 444.687C374.836 445.434 375.422 446.02 376.169 446.447C376.937 446.874 377.812 447.087 378.793 447.087ZM401.806 449.999V446.543L401.582 445.807V439.759C401.582 438.586 401.23 437.679 400.526 437.039C399.822 436.378 398.755 436.047 397.326 436.047C396.366 436.047 395.417 436.196 394.478 436.495C393.561 436.794 392.782 437.21 392.142 437.743L390.574 434.831C391.491 434.127 392.579 433.604 393.838 433.263C395.118 432.9 396.441 432.719 397.806 432.719C400.281 432.719 402.19 433.316 403.534 434.511C404.899 435.684 405.582 437.508 405.582 439.983V449.999H401.806ZM396.43 450.223C395.15 450.223 394.03 450.01 393.07 449.583C392.11 449.135 391.363 448.527 390.83 447.759C390.318 446.97 390.062 446.084 390.062 445.103C390.062 444.143 390.286 443.279 390.734 442.511C391.203 441.743 391.961 441.135 393.006 440.687C394.051 440.239 395.438 440.015 397.166 440.015H402.126V442.671H397.454C396.089 442.671 395.171 442.895 394.702 443.343C394.233 443.77 393.998 444.303 393.998 444.943C393.998 445.668 394.286 446.244 394.862 446.671C395.438 447.098 396.238 447.311 397.262 447.311C398.243 447.311 399.118 447.087 399.886 446.639C400.675 446.191 401.241 445.53 401.582 444.655L402.254 447.055C401.87 448.058 401.177 448.836 400.174 449.391C399.193 449.946 397.945 450.223 396.43 450.223ZM410.532 449.999V432.911H414.532V444.175L423.972 432.911H427.62V449.999H423.62V438.735L414.212 449.999H410.532ZM418.82 430.895C417.113 430.895 415.801 430.5 414.884 429.711C413.966 428.9 413.497 427.727 413.476 426.191H416.132C416.153 426.959 416.388 427.567 416.836 428.015C417.305 428.463 417.956 428.687 418.788 428.687C419.598 428.687 420.238 428.463 420.708 428.015C421.198 427.567 421.454 426.959 421.476 426.191H424.196C424.174 427.727 423.694 428.9 422.756 429.711C421.838 430.5 420.526 430.895 418.82 430.895ZM441.161 450.319C439.753 450.319 438.494 450.106 437.385 449.679C436.275 449.252 435.315 448.602 434.505 447.727C433.715 446.831 433.107 445.7 432.681 444.335C432.254 442.97 432.041 441.348 432.041 439.471C432.041 438.106 432.158 436.858 432.393 435.727C432.627 434.596 432.979 433.583 433.449 432.687C433.918 431.77 434.505 430.959 435.209 430.255C435.934 429.551 436.777 428.964 437.737 428.495C438.697 428.026 439.785 427.663 441.001 427.407L448.937 425.711L449.513 429.295L442.313 430.767C441.907 430.852 441.417 430.98 440.841 431.151C440.286 431.3 439.71 431.535 439.113 431.855C438.537 432.154 437.993 432.591 437.481 433.167C436.99 433.722 436.585 434.447 436.265 435.343C435.966 436.218 435.817 437.316 435.817 438.639C435.817 439.044 435.827 439.354 435.849 439.567C435.891 439.759 435.923 439.972 435.945 440.207C435.987 440.42 436.009 440.74 436.009 441.167L434.505 439.599C434.931 438.511 435.518 437.583 436.265 436.815C437.033 436.026 437.918 435.428 438.921 435.023C439.945 434.596 441.054 434.383 442.249 434.383C443.849 434.383 445.267 434.714 446.505 435.375C447.742 436.036 448.713 436.964 449.417 438.159C450.121 439.354 450.473 440.708 450.473 442.223C450.473 443.802 450.089 445.199 449.321 446.415C448.553 447.631 447.465 448.591 446.057 449.295C444.67 449.978 443.038 450.319 441.161 450.319ZM441.481 447.087C442.441 447.087 443.283 446.884 444.009 446.479C444.755 446.052 445.331 445.476 445.737 444.751C446.163 444.026 446.377 443.215 446.377 442.319C446.377 441.423 446.163 440.644 445.737 439.983C445.331 439.3 444.755 438.756 444.009 438.351C443.283 437.946 442.419 437.743 441.417 437.743C440.457 437.743 439.593 437.935 438.825 438.319C438.078 438.703 437.491 439.236 437.065 439.919C436.659 440.58 436.457 441.348 436.457 442.223C436.457 443.119 436.67 443.94 437.097 444.687C437.523 445.434 438.11 446.02 438.857 446.447C439.625 446.874 440.499 447.087 441.481 447.087ZM462.312 450.223C460.414 450.223 458.75 449.85 457.32 449.103C455.912 448.335 454.814 447.29 454.024 445.967C453.256 444.644 452.872 443.14 452.872 441.455C452.872 439.748 453.246 438.244 453.992 436.943C454.76 435.62 455.806 434.586 457.128 433.839C458.472 433.092 459.998 432.719 461.704 432.719C463.368 432.719 464.851 433.082 466.152 433.807C467.454 434.532 468.478 435.556 469.224 436.879C469.971 438.202 470.344 439.759 470.344 441.551C470.344 441.722 470.334 441.914 470.312 442.127C470.312 442.34 470.302 442.543 470.28 442.735H456.04V440.079H468.168L466.6 440.911C466.622 439.93 466.419 439.066 465.992 438.319C465.566 437.572 464.979 436.986 464.232 436.559C463.507 436.132 462.664 435.919 461.704 435.919C460.723 435.919 459.859 436.132 459.112 436.559C458.387 436.986 457.811 437.583 457.384 438.351C456.979 439.098 456.776 439.983 456.776 441.007V441.647C456.776 442.671 457.011 443.578 457.48 444.367C457.95 445.156 458.611 445.764 459.464 446.191C460.318 446.618 461.299 446.831 462.408 446.831C463.368 446.831 464.232 446.682 465 446.383C465.768 446.084 466.451 445.615 467.048 444.975L469.192 447.439C468.424 448.335 467.454 449.028 466.28 449.519C465.128 449.988 463.806 450.223 462.312 450.223ZM486.975 449.999L480.799 441.807L484.063 439.791L491.679 449.999H486.975ZM474.719 449.999V432.911H478.719V449.999H474.719ZM477.535 443.151V439.823H483.327V443.151H477.535ZM484.447 441.935L480.703 441.487L486.975 432.911H491.263L484.447 441.935ZM494.501 449.999V432.911H498.501V444.175L507.941 432.911H511.589V449.999H507.589V438.735L498.181 449.999H494.501ZM525.813 449.999V432.911H529.813V439.855H538.421V432.911H542.421V449.999H538.421V443.247H529.813V449.999H525.813ZM558.15 449.999V446.543L557.926 445.807V439.759C557.926 438.586 557.574 437.679 556.87 437.039C556.166 436.378 555.099 436.047 553.67 436.047C552.71 436.047 551.76 436.196 550.822 436.495C549.904 436.794 549.126 437.21 548.486 437.743L546.918 434.831C547.835 434.127 548.923 433.604 550.182 433.263C551.462 432.9 552.784 432.719 554.15 432.719C556.624 432.719 558.534 433.316 559.878 434.511C561.243 435.684 561.926 437.508 561.926 439.983V449.999H558.15ZM552.774 450.223C551.494 450.223 550.374 450.01 549.414 449.583C548.454 449.135 547.707 448.527 547.174 447.759C546.662 446.97 546.406 446.084 546.406 445.103C546.406 444.143 546.63 443.279 547.078 442.511C547.547 441.743 548.304 441.135 549.35 440.687C550.395 440.239 551.782 440.015 553.51 440.015H558.47V442.671H553.798C552.432 442.671 551.515 442.895 551.046 443.343C550.576 443.77 550.342 444.303 550.342 444.943C550.342 445.668 550.63 446.244 551.206 446.671C551.782 447.098 552.582 447.311 553.606 447.311C554.587 447.311 555.462 447.087 556.23 446.639C557.019 446.191 557.584 445.53 557.926 444.655L558.598 447.055C558.214 448.058 557.52 448.836 556.518 449.391C555.536 449.946 554.288 450.223 552.774 450.223ZM574.151 449.999V447.215L583.047 438.767C583.794 438.063 584.349 437.444 584.711 436.911C585.074 436.378 585.309 435.887 585.415 435.439C585.543 434.97 585.607 434.532 585.607 434.127C585.607 433.103 585.255 432.314 584.551 431.759C583.847 431.183 582.813 430.895 581.447 430.895C580.359 430.895 579.367 431.087 578.471 431.471C577.597 431.855 576.839 432.442 576.199 433.231L573.287 430.991C574.162 429.818 575.335 428.911 576.807 428.271C578.301 427.61 579.965 427.279 581.799 427.279C583.421 427.279 584.829 427.546 586.023 428.079C587.239 428.591 588.167 429.327 588.807 430.287C589.469 431.247 589.799 432.388 589.799 433.711C589.799 434.436 589.703 435.162 589.511 435.887C589.319 436.591 588.957 437.338 588.423 438.127C587.89 438.916 587.111 439.802 586.087 440.783L578.439 448.047L577.575 446.479H590.663V449.999H574.151ZM602.408 450.319C600.638 450.319 599.038 449.871 597.608 448.975C596.2 448.079 595.091 446.778 594.28 445.071C593.47 443.343 593.064 441.252 593.064 438.799C593.064 436.346 593.47 434.266 594.28 432.559C595.091 430.831 596.2 429.519 597.608 428.623C599.038 427.727 600.638 427.279 602.408 427.279C604.2 427.279 605.8 427.727 607.208 428.623C608.616 429.519 609.726 430.831 610.536 432.559C611.368 434.266 611.784 436.346 611.784 438.799C611.784 441.252 611.368 443.343 610.536 445.071C609.726 446.778 608.616 448.079 607.208 448.975C605.8 449.871 604.2 450.319 602.408 450.319ZM602.408 446.703C603.454 446.703 604.36 446.426 605.128 445.871C605.896 445.295 606.494 444.42 606.92 443.247C607.368 442.074 607.592 440.591 607.592 438.799C607.592 436.986 607.368 435.503 606.92 434.351C606.494 433.178 605.896 432.314 605.128 431.759C604.36 431.183 603.454 430.895 602.408 430.895C601.406 430.895 600.51 431.183 599.72 431.759C598.952 432.314 598.344 433.178 597.896 434.351C597.47 435.503 597.256 436.986 597.256 438.799C597.256 440.591 597.47 442.074 597.896 443.247C598.344 444.42 598.952 445.295 599.72 445.871C600.51 446.426 601.406 446.703 602.408 446.703ZM617.732 449.999L633.028 427.599H636.164L620.868 449.999H617.732ZM619.588 439.663C618.542 439.663 617.614 439.407 616.804 438.895C615.993 438.383 615.364 437.668 614.916 436.751C614.468 435.834 614.243 434.756 614.243 433.519C614.243 432.282 614.468 431.204 614.916 430.287C615.364 429.37 615.993 428.655 616.804 428.143C617.614 427.631 618.542 427.375 619.588 427.375C620.676 427.375 621.614 427.631 622.404 428.143C623.214 428.655 623.844 429.37 624.292 430.287C624.74 431.204 624.964 432.282 624.964 433.519C624.964 434.756 624.74 435.834 624.292 436.751C623.844 437.668 623.214 438.383 622.404 438.895C621.614 439.407 620.676 439.663 619.588 439.663ZM619.62 437.423C620.473 437.423 621.134 437.092 621.604 436.431C622.094 435.748 622.34 434.778 622.34 433.519C622.34 432.26 622.094 431.3 621.604 430.639C621.134 429.956 620.473 429.615 619.62 429.615C618.766 429.615 618.084 429.956 617.572 430.639C617.081 431.322 616.836 432.282 616.836 433.519C616.836 434.756 617.081 435.716 617.572 436.399C618.084 437.082 618.766 437.423 619.62 437.423ZM634.276 450.223C633.23 450.223 632.302 449.967 631.492 449.455C630.681 448.943 630.052 448.228 629.604 447.311C629.156 446.394 628.932 445.316 628.932 444.079C628.932 442.842 629.156 441.764 629.604 440.847C630.052 439.93 630.681 439.215 631.492 438.703C632.302 438.191 633.23 437.935 634.276 437.935C635.364 437.935 636.302 438.191 637.092 438.703C637.902 439.215 638.532 439.93 638.98 440.847C639.428 441.764 639.652 442.842 639.652 444.079C639.652 445.316 639.428 446.394 638.98 447.311C638.532 448.228 637.902 448.943 637.092 449.455C636.302 449.967 635.364 450.223 634.276 450.223ZM634.276 447.983C635.129 447.983 635.801 447.642 636.292 446.959C636.782 446.276 637.028 445.316 637.028 444.079C637.028 442.842 636.782 441.882 636.292 441.199C635.801 440.516 635.129 440.175 634.276 440.175C633.444 440.175 632.772 440.516 632.26 441.199C631.769 441.86 631.524 442.82 631.524 444.079C631.524 445.338 631.769 446.308 632.26 446.991C632.772 447.652 633.444 447.983 634.276 447.983ZM660.027 450.223C658.235 450.223 656.635 449.85 655.227 449.103C653.84 448.335 652.752 447.29 651.963 445.967C651.173 444.644 650.779 443.14 650.779 441.455C650.779 439.748 651.173 438.244 651.963 436.943C652.752 435.62 653.84 434.586 655.227 433.839C656.635 433.092 658.235 432.719 660.027 432.719C661.691 432.719 663.152 433.06 664.411 433.743C665.691 434.404 666.661 435.386 667.323 436.687L664.251 438.479C663.739 437.668 663.109 437.071 662.363 436.687C661.637 436.303 660.848 436.111 659.995 436.111C659.013 436.111 658.128 436.324 657.339 436.751C656.549 437.178 655.931 437.796 655.483 438.607C655.035 439.396 654.811 440.346 654.811 441.455C654.811 442.564 655.035 443.524 655.483 444.335C655.931 445.124 656.549 445.732 657.339 446.159C658.128 446.586 659.013 446.799 659.995 446.799C660.848 446.799 661.637 446.607 662.363 446.223C663.109 445.839 663.739 445.242 664.251 444.431L667.323 446.223C666.661 447.503 665.691 448.495 664.411 449.199C663.152 449.882 661.691 450.223 660.027 450.223ZM679.688 449.999V432.911H688.04C690.109 432.911 691.731 433.295 692.904 434.063C694.099 434.831 694.696 435.919 694.696 437.327C694.696 438.714 694.141 439.802 693.032 440.591C691.923 441.359 690.451 441.743 688.616 441.743L689.096 440.751C691.165 440.751 692.701 441.135 693.704 441.903C694.728 442.65 695.24 443.748 695.24 445.199C695.24 446.714 694.675 447.898 693.544 448.751C692.413 449.583 690.696 449.999 688.392 449.999H679.688ZM683.496 447.087H688.072C689.16 447.087 689.981 446.916 690.536 446.575C691.091 446.212 691.368 445.668 691.368 444.943C691.368 444.175 691.112 443.61 690.6 443.247C690.088 442.884 689.288 442.703 688.2 442.703H683.496V447.087ZM683.496 440.047H687.688C688.712 440.047 689.48 439.866 689.992 439.503C690.525 439.119 690.792 438.586 690.792 437.903C690.792 437.199 690.525 436.676 689.992 436.335C689.48 435.994 688.712 435.823 687.688 435.823H683.496V440.047ZM716.749 449.999V432.911H720.749V449.999H716.749ZM707.821 438.543C710.018 438.543 711.682 439.034 712.812 440.015C713.965 440.996 714.541 442.383 714.541 444.175C714.541 446.031 713.901 447.482 712.621 448.527C711.362 449.551 709.57 450.052 707.245 450.031L699.501 449.999V432.911H703.501V438.511L707.821 438.543ZM706.893 447.087C708.066 447.108 708.962 446.863 709.581 446.351C710.199 445.839 710.509 445.092 710.509 444.111C710.509 443.13 710.199 442.426 709.581 441.999C708.983 441.551 708.087 441.316 706.893 441.295L703.501 441.263V447.055L706.893 447.087ZM735.598 450.223C734.211 450.223 732.942 449.903 731.79 449.263C730.659 448.623 729.752 447.663 729.07 446.383C728.408 445.082 728.078 443.439 728.078 441.455C728.078 439.45 728.398 437.807 729.038 436.527C729.699 435.247 730.595 434.298 731.726 433.679C732.856 433.039 734.147 432.719 735.598 432.719C737.283 432.719 738.766 433.082 740.046 433.807C741.347 434.532 742.371 435.546 743.118 436.847C743.886 438.148 744.27 439.684 744.27 441.455C744.27 443.226 743.886 444.772 743.118 446.095C742.371 447.396 741.347 448.41 740.046 449.135C738.766 449.86 737.283 450.223 735.598 450.223ZM726.126 456.207V432.911H729.934V436.943L729.806 441.487L730.126 446.031V456.207H726.126ZM735.15 446.799C736.11 446.799 736.963 446.586 737.71 446.159C738.478 445.732 739.086 445.114 739.534 444.303C739.982 443.492 740.206 442.543 740.206 441.455C740.206 440.346 739.982 439.396 739.534 438.607C739.086 437.796 738.478 437.178 737.71 436.751C736.963 436.324 736.11 436.111 735.15 436.111C734.19 436.111 733.326 436.324 732.558 436.751C731.79 437.178 731.182 437.796 730.734 438.607C730.286 439.396 730.062 440.346 730.062 441.455C730.062 442.543 730.286 443.492 730.734 444.303C731.182 445.114 731.79 445.732 732.558 446.159C733.326 446.586 734.19 446.799 735.15 446.799ZM749.318 456.431C748.486 456.431 747.654 456.292 746.822 456.015C745.99 455.738 745.296 455.354 744.742 454.863L746.342 451.919C746.747 452.282 747.206 452.57 747.718 452.783C748.23 452.996 748.752 453.103 749.286 453.103C750.011 453.103 750.598 452.922 751.046 452.559C751.494 452.196 751.91 451.588 752.294 450.735L753.286 448.495L753.606 448.015L760.07 432.911H763.91L755.91 451.375C755.376 452.655 754.779 453.668 754.118 454.415C753.478 455.162 752.752 455.684 751.942 455.983C751.152 456.282 750.278 456.431 749.318 456.431ZM752.838 450.607L745.126 432.911H749.286L755.558 447.663L752.838 450.607ZM777.472 443.247C776.661 443.631 775.797 443.951 774.88 444.207C773.984 444.442 773.035 444.559 772.032 444.559C769.877 444.559 768.203 444.058 767.008 443.055C765.813 442.052 765.216 440.495 765.216 438.383V432.911H769.216V438.127C769.216 439.258 769.536 440.079 770.176 440.591C770.837 441.103 771.744 441.359 772.896 441.359C773.664 441.359 774.432 441.263 775.2 441.071C775.968 440.879 776.725 440.612 777.472 440.271V443.247ZM777.184 449.999V432.911H781.184V449.999H777.184ZM794.531 450.223C792.632 450.223 790.968 449.85 789.539 449.103C788.131 448.335 787.032 447.29 786.243 445.967C785.475 444.644 785.091 443.14 785.091 441.455C785.091 439.748 785.464 438.244 786.211 436.943C786.979 435.62 788.024 434.586 789.347 433.839C790.691 433.092 792.216 432.719 793.923 432.719C795.587 432.719 797.07 433.082 798.371 433.807C799.672 434.532 800.696 435.556 801.443 436.879C802.19 438.202 802.563 439.759 802.563 441.551C802.563 441.722 802.552 441.914 802.531 442.127C802.531 442.34 802.52 442.543 802.499 442.735H788.259V440.079H800.387L798.819 440.911C798.84 439.93 798.638 439.066 798.211 438.319C797.784 437.572 797.198 436.986 796.451 436.559C795.726 436.132 794.883 435.919 793.923 435.919C792.942 435.919 792.078 436.132 791.331 436.559C790.606 436.986 790.03 437.583 789.603 438.351C789.198 439.098 788.995 439.983 788.995 441.007V441.647C788.995 442.671 789.23 443.578 789.699 444.367C790.168 445.156 790.83 445.764 791.683 446.191C792.536 446.618 793.518 446.831 794.627 446.831C795.587 446.831 796.451 446.682 797.219 446.383C797.987 446.084 798.67 445.615 799.267 444.975L801.411 447.439C800.643 448.335 799.672 449.028 798.499 449.519C797.347 449.988 796.024 450.223 794.531 450.223ZM806.938 449.999V432.911H810.938V439.855H819.546V432.911H823.546V449.999H819.546V443.247H810.938V449.999H806.938ZM828.907 449.999V432.911H832.907V439.855H841.515V432.911H845.515V449.999H841.515V443.247H832.907V449.999H828.907ZM868.124 449.999V432.911H872.124V449.999H868.124ZM859.196 438.543C861.393 438.543 863.057 439.034 864.188 440.015C865.34 440.996 865.916 442.383 865.916 444.175C865.916 446.031 865.276 447.482 863.996 448.527C862.737 449.551 860.945 450.052 858.62 450.031L850.876 449.999V432.911H854.876V438.511L859.196 438.543ZM858.268 447.087C859.441 447.108 860.337 446.863 860.956 446.351C861.574 445.839 861.884 445.092 861.884 444.111C861.884 443.13 861.574 442.426 860.956 441.999C860.358 441.551 859.462 441.316 858.268 441.295L854.876 441.263V447.055L858.268 447.087ZM874.973 449.999L882.493 440.207L882.429 442.351L875.261 432.911H879.709L884.733 439.631H883.036L888.093 432.911H892.413L885.181 442.351L885.213 440.207L892.701 449.999H888.189L882.909 442.863L884.573 443.087L879.389 449.999H874.973ZM909.815 450.287C908.513 450.287 907.223 450.138 905.943 449.839C904.684 449.519 903.543 449.071 902.519 448.495L903.639 445.519C904.471 445.988 905.409 446.351 906.455 446.607C907.5 446.863 908.545 446.991 909.591 446.991C910.487 446.991 911.255 446.906 911.895 446.735C912.535 446.543 913.025 446.266 913.367 445.903C913.729 445.54 913.911 445.124 913.911 444.655C913.911 443.972 913.612 443.46 913.015 443.119C912.439 442.756 911.607 442.575 910.519 442.575H907.223V439.887H910.199C910.881 439.887 911.457 439.812 911.927 439.663C912.417 439.514 912.791 439.29 913.047 438.991C913.303 438.692 913.431 438.34 913.431 437.935C913.431 437.53 913.271 437.178 912.951 436.879C912.652 436.559 912.215 436.324 911.639 436.175C911.063 436.004 910.369 435.919 909.559 435.919C908.705 435.919 907.82 436.026 906.903 436.239C906.007 436.452 905.089 436.762 904.151 437.167L903.127 434.223C904.215 433.732 905.271 433.359 906.295 433.103C907.34 432.826 908.375 432.676 909.399 432.655C910.956 432.591 912.343 432.751 913.559 433.135C914.775 433.519 915.735 434.074 916.439 434.799C917.143 435.524 917.495 436.378 917.495 437.359C917.495 438.17 917.239 438.906 916.727 439.567C916.236 440.207 915.553 440.708 914.679 441.071C913.825 441.434 912.844 441.615 911.735 441.615L911.863 440.751C913.761 440.751 915.255 441.135 916.343 441.903C917.431 442.65 917.975 443.674 917.975 444.975C917.975 446.02 917.623 446.948 916.919 447.759C916.215 448.548 915.244 449.167 914.007 449.615C912.791 450.063 911.393 450.287 909.815 450.287ZM932.462 449.999V446.543L932.238 445.807V439.759C932.238 438.586 931.886 437.679 931.182 437.039C930.478 436.378 929.412 436.047 927.982 436.047C927.022 436.047 926.073 436.196 925.134 436.495C924.217 436.794 923.438 437.21 922.798 437.743L921.23 434.831C922.148 434.127 923.236 433.604 924.494 433.263C925.774 432.9 927.097 432.719 928.462 432.719C930.937 432.719 932.846 433.316 934.19 434.511C935.556 435.684 936.238 437.508 936.238 439.983V449.999H932.462ZM927.086 450.223C925.806 450.223 924.686 450.01 923.726 449.583C922.766 449.135 922.02 448.527 921.486 447.759C920.974 446.97 920.718 446.084 920.718 445.103C920.718 444.143 920.942 443.279 921.39 442.511C921.86 441.743 922.617 441.135 923.662 440.687C924.708 440.239 926.094 440.015 927.822 440.015H932.782V442.671H928.11C926.745 442.671 925.828 442.895 925.358 443.343C924.889 443.77 924.654 444.303 924.654 444.943C924.654 445.668 924.942 446.244 925.518 446.671C926.094 447.098 926.894 447.311 927.918 447.311C928.9 447.311 929.774 447.087 930.542 446.639C931.332 446.191 931.897 445.53 932.238 444.655L932.91 447.055C932.526 448.058 931.833 448.836 930.83 449.391C929.849 449.946 928.601 450.223 927.086 450.223ZM132.944 493.999L126.768 485.807L130.032 483.791L137.648 493.999H132.944ZM120.688 493.999V476.911H124.688V493.999H120.688ZM123.504 487.151V483.823H129.296V487.151H123.504ZM130.416 485.935L126.672 485.487L132.944 476.911H137.232L130.416 485.935ZM147.523 494.223C145.773 494.223 144.216 493.85 142.851 493.103C141.485 492.335 140.408 491.29 139.619 489.967C138.829 488.644 138.435 487.14 138.435 485.455C138.435 483.748 138.829 482.244 139.619 480.943C140.408 479.62 141.485 478.586 142.851 477.839C144.216 477.092 145.773 476.719 147.523 476.719C149.293 476.719 150.861 477.092 152.227 477.839C153.613 478.586 154.691 479.61 155.459 480.911C156.248 482.212 156.643 483.727 156.643 485.455C156.643 487.14 156.248 488.644 155.459 489.967C154.691 491.29 153.613 492.335 152.227 493.103C150.861 493.85 149.293 494.223 147.523 494.223ZM147.523 490.799C148.504 490.799 149.379 490.586 150.147 490.159C150.915 489.732 151.512 489.114 151.939 488.303C152.387 487.492 152.611 486.543 152.611 485.455C152.611 484.346 152.387 483.396 151.939 482.607C151.512 481.796 150.915 481.178 150.147 480.751C149.379 480.324 148.515 480.111 147.555 480.111C146.573 480.111 145.699 480.324 144.931 480.751C144.184 481.178 143.587 481.796 143.139 482.607C142.691 483.396 142.467 484.346 142.467 485.455C142.467 486.543 142.691 487.492 143.139 488.303C143.587 489.114 144.184 489.732 144.931 490.159C145.699 490.586 146.563 490.799 147.523 490.799ZM160.594 493.999V476.911H164.786L171.666 489.039H170.002L177.234 476.911H180.978L181.01 493.999H177.394V481.199L178.034 481.615L171.634 492.207H169.906L163.474 481.327L164.242 481.135V493.999H160.594ZM186.376 493.999V476.911H190.376V488.175L199.816 476.911H203.464V493.999H199.464V482.735L190.056 493.999H186.376ZM216.62 494.223C214.828 494.223 213.228 493.85 211.82 493.103C210.434 492.335 209.346 491.29 208.556 489.967C207.767 488.644 207.372 487.14 207.372 485.455C207.372 483.748 207.767 482.244 208.556 480.943C209.346 479.62 210.434 478.586 211.82 477.839C213.228 477.092 214.828 476.719 216.62 476.719C218.284 476.719 219.746 477.06 221.004 477.743C222.284 478.404 223.255 479.386 223.916 480.687L220.844 482.479C220.332 481.668 219.703 481.071 218.956 480.687C218.231 480.303 217.442 480.111 216.588 480.111C215.607 480.111 214.722 480.324 213.932 480.751C213.143 481.178 212.524 481.796 212.076 482.607C211.628 483.396 211.404 484.346 211.404 485.455C211.404 486.564 211.628 487.524 212.076 488.335C212.524 489.124 213.143 489.732 213.932 490.159C214.722 490.586 215.607 490.799 216.588 490.799C217.442 490.799 218.231 490.607 218.956 490.223C219.703 489.839 220.332 489.242 220.844 488.431L223.916 490.223C223.255 491.503 222.284 492.495 221.004 493.199C219.746 493.882 218.284 494.223 216.62 494.223ZM234.964 494.223C233.172 494.223 231.572 493.85 230.164 493.103C228.777 492.335 227.689 491.29 226.9 489.967C226.111 488.644 225.716 487.14 225.716 485.455C225.716 483.748 226.111 482.244 226.9 480.943C227.689 479.62 228.777 478.586 230.164 477.839C231.572 477.092 233.172 476.719 234.964 476.719C236.628 476.719 238.089 477.06 239.348 477.743C240.628 478.404 241.599 479.386 242.26 480.687L239.188 482.479C238.676 481.668 238.047 481.071 237.3 480.687C236.575 480.303 235.785 480.111 234.932 480.111C233.951 480.111 233.065 480.324 232.276 480.751C231.487 481.178 230.868 481.796 230.42 482.607C229.972 483.396 229.748 484.346 229.748 485.455C229.748 486.564 229.972 487.524 230.42 488.335C230.868 489.124 231.487 489.732 232.276 490.159C233.065 490.586 233.951 490.799 234.932 490.799C235.785 490.799 236.575 490.607 237.3 490.223C238.047 489.839 238.676 489.242 239.188 488.431L242.26 490.223C241.599 491.503 240.628 492.495 239.348 493.199C238.089 493.882 236.628 494.223 234.964 494.223ZM245.782 493.999V476.911H249.782V488.175L259.222 476.911H262.87V493.999H258.87V482.735L249.462 493.999H245.782ZM268.251 493.999V476.911H272.251V483.535H277.339V487.151H272.251V493.999H268.251ZM283.867 494.223C282.16 494.223 280.635 493.85 279.291 493.103C277.968 492.335 276.923 491.29 276.155 489.967C275.387 488.644 275.003 487.14 275.003 485.455C275.003 483.748 275.387 482.234 276.155 480.911C276.923 479.588 277.968 478.564 279.291 477.839C280.635 477.092 282.16 476.719 283.867 476.719C285.595 476.719 287.12 477.092 288.443 477.839C289.787 478.564 290.843 479.588 291.611 480.911C292.379 482.234 292.763 483.748 292.763 485.455C292.763 487.14 292.379 488.655 291.611 489.999C290.843 491.322 289.787 492.356 288.443 493.103C287.12 493.85 285.595 494.223 283.867 494.223ZM283.867 490.831C284.827 490.831 285.669 490.607 286.395 490.159C287.141 489.711 287.728 489.092 288.155 488.303C288.581 487.514 288.795 486.564 288.795 485.455C288.795 484.346 288.581 483.396 288.155 482.607C287.728 481.796 287.141 481.178 286.395 480.751C285.669 480.324 284.837 480.111 283.899 480.111C282.96 480.111 282.117 480.324 281.371 480.751C280.624 481.178 280.037 481.796 279.611 482.607C279.184 483.396 278.971 484.346 278.971 485.455C278.971 486.564 279.184 487.514 279.611 488.303C280.037 489.092 280.624 489.711 281.371 490.159C282.117 490.607 282.949 490.831 283.867 490.831ZM313.308 494.223C311.516 494.223 309.916 493.85 308.508 493.103C307.121 492.335 306.033 491.29 305.244 489.967C304.454 488.644 304.06 487.14 304.06 485.455C304.06 483.748 304.454 482.244 305.244 480.943C306.033 479.62 307.121 478.586 308.508 477.839C309.916 477.092 311.516 476.719 313.308 476.719C314.972 476.719 316.433 477.06 317.692 477.743C318.972 478.404 319.942 479.386 320.604 480.687L317.532 482.479C317.02 481.668 316.39 481.071 315.644 480.687C314.918 480.303 314.129 480.111 313.276 480.111C312.294 480.111 311.409 480.324 310.62 480.751C309.83 481.178 309.212 481.796 308.764 482.607C308.316 483.396 308.092 484.346 308.092 485.455C308.092 486.564 308.316 487.524 308.764 488.335C309.212 489.124 309.83 489.732 310.62 490.159C311.409 490.586 312.294 490.799 313.276 490.799C314.129 490.799 314.918 490.607 315.644 490.223C316.39 489.839 317.02 489.242 317.532 488.431L320.604 490.223C319.942 491.503 318.972 492.495 317.692 493.199C316.433 493.882 314.972 494.223 313.308 494.223ZM333.598 494.223C332.211 494.223 330.942 493.903 329.79 493.263C328.659 492.623 327.752 491.663 327.07 490.383C326.408 489.082 326.078 487.439 326.078 485.455C326.078 483.45 326.398 481.807 327.038 480.527C327.699 479.247 328.595 478.298 329.726 477.679C330.856 477.039 332.147 476.719 333.598 476.719C335.283 476.719 336.766 477.082 338.046 477.807C339.347 478.532 340.371 479.546 341.118 480.847C341.886 482.148 342.27 483.684 342.27 485.455C342.27 487.226 341.886 488.772 341.118 490.095C340.371 491.396 339.347 492.41 338.046 493.135C336.766 493.86 335.283 494.223 333.598 494.223ZM324.126 500.207V476.911H327.934V480.943L327.806 485.487L328.126 490.031V500.207H324.126ZM333.15 490.799C334.11 490.799 334.963 490.586 335.71 490.159C336.478 489.732 337.086 489.114 337.534 488.303C337.982 487.492 338.206 486.543 338.206 485.455C338.206 484.346 337.982 483.396 337.534 482.607C337.086 481.796 336.478 481.178 335.71 480.751C334.963 480.324 334.11 480.111 333.15 480.111C332.19 480.111 331.326 480.324 330.558 480.751C329.79 481.178 329.182 481.796 328.734 482.607C328.286 483.396 328.062 484.346 328.062 485.455C328.062 486.543 328.286 487.492 328.734 488.303C329.182 489.114 329.79 489.732 330.558 490.159C331.326 490.586 332.19 490.799 333.15 490.799ZM354.219 494.223C352.32 494.223 350.656 493.85 349.227 493.103C347.819 492.335 346.72 491.29 345.931 489.967C345.163 488.644 344.779 487.14 344.779 485.455C344.779 483.748 345.152 482.244 345.899 480.943C346.667 479.62 347.712 478.586 349.035 477.839C350.379 477.092 351.904 476.719 353.611 476.719C355.275 476.719 356.757 477.082 358.059 477.807C359.36 478.532 360.384 479.556 361.131 480.879C361.877 482.202 362.251 483.759 362.251 485.551C362.251 485.722 362.24 485.914 362.219 486.127C362.219 486.34 362.208 486.543 362.187 486.735H347.947V484.079H360.075L358.507 484.911C358.528 483.93 358.325 483.066 357.899 482.319C357.472 481.572 356.885 480.986 356.139 480.559C355.413 480.132 354.571 479.919 353.611 479.919C352.629 479.919 351.765 480.132 351.019 480.559C350.293 480.986 349.717 481.583 349.291 482.351C348.885 483.098 348.683 483.983 348.683 485.007V485.647C348.683 486.671 348.917 487.578 349.387 488.367C349.856 489.156 350.517 489.764 351.371 490.191C352.224 490.618 353.205 490.831 354.315 490.831C355.275 490.831 356.139 490.682 356.907 490.383C357.675 490.084 358.357 489.615 358.955 488.975L361.099 491.439C360.331 492.335 359.36 493.028 358.187 493.519C357.035 493.988 355.712 494.223 354.219 494.223ZM378.119 492.143V480.303H371.559L371.463 483.055C371.42 484.036 371.356 484.986 371.271 485.903C371.185 486.799 371.047 487.631 370.855 488.399C370.663 489.146 370.385 489.764 370.023 490.255C369.66 490.746 369.18 491.066 368.583 491.215L364.615 490.607C365.255 490.607 365.767 490.404 366.151 489.999C366.556 489.572 366.865 488.996 367.079 488.271C367.313 487.524 367.484 486.682 367.591 485.743C367.697 484.783 367.772 483.791 367.815 482.767L368.039 476.911H382.119V492.143H378.119ZM364.007 497.807V490.607H384.647V497.807H380.903V493.999H367.719V497.807H364.007ZM395.995 494.223C394.203 494.223 392.603 493.85 391.195 493.103C389.809 492.335 388.721 491.29 387.931 489.967C387.142 488.644 386.747 487.14 386.747 485.455C386.747 483.748 387.142 482.244 387.931 480.943C388.721 479.62 389.809 478.586 391.195 477.839C392.603 477.092 394.203 476.719 395.995 476.719C397.659 476.719 399.121 477.06 400.379 477.743C401.659 478.404 402.63 479.386 403.291 480.687L400.219 482.479C399.707 481.668 399.078 481.071 398.331 480.687C397.606 480.303 396.817 480.111 395.963 480.111C394.982 480.111 394.097 480.324 393.307 480.751C392.518 481.178 391.899 481.796 391.451 482.607C391.003 483.396 390.779 484.346 390.779 485.455C390.779 486.564 391.003 487.524 391.451 488.335C391.899 489.124 392.518 489.732 393.307 490.159C394.097 490.586 394.982 490.799 395.963 490.799C396.817 490.799 397.606 490.607 398.331 490.223C399.078 489.839 399.707 489.242 400.219 488.431L403.291 490.223C402.63 491.503 401.659 492.495 400.379 493.199C399.121 493.882 397.659 494.223 395.995 494.223ZM410.24 493.999V479.343L411.168 480.303H404.224V476.911H420.224V480.303H413.312L414.24 479.343V493.999H410.24ZM423.126 493.999V476.911H431.478C433.547 476.911 435.168 477.295 436.342 478.063C437.536 478.831 438.134 479.919 438.134 481.327C438.134 482.714 437.579 483.802 436.47 484.591C435.36 485.359 433.888 485.743 432.054 485.743L432.534 484.751C434.603 484.751 436.139 485.135 437.142 485.903C438.166 486.65 438.678 487.748 438.678 489.199C438.678 490.714 438.112 491.898 436.982 492.751C435.851 493.583 434.134 493.999 431.83 493.999H423.126ZM426.934 491.087H431.51C432.598 491.087 433.419 490.916 433.974 490.575C434.528 490.212 434.806 489.668 434.806 488.943C434.806 488.175 434.55 487.61 434.038 487.247C433.526 486.884 432.726 486.703 431.638 486.703H426.934V491.087ZM426.934 484.047H431.126C432.15 484.047 432.918 483.866 433.43 483.503C433.963 483.119 434.23 482.586 434.23 481.903C434.23 481.199 433.963 480.676 433.43 480.335C432.918 479.994 432.15 479.823 431.126 479.823H426.934V484.047Z" fill="#A1A19D"/>
<path d="M117.32 326V298H131C134.52 298 137.16 298.667 138.92 300C140.707 301.333 141.6 303.093 141.6 305.28C141.6 306.747 141.24 308.027 140.52 309.12C139.8 310.187 138.813 311.013 137.56 311.6C136.307 312.187 134.867 312.48 133.24 312.48L134 310.84C135.76 310.84 137.32 311.133 138.68 311.72C140.04 312.28 141.093 313.12 141.84 314.24C142.613 315.36 143 316.733 143 318.36C143 320.76 142.053 322.64 140.16 324C138.267 325.333 135.48 326 131.8 326H117.32ZM123.76 321.12H131.32C133 321.12 134.267 320.853 135.12 320.32C136 319.76 136.44 318.88 136.44 317.68C136.44 316.507 136 315.64 135.12 315.08C134.267 314.493 133 314.2 131.32 314.2H123.28V309.48H130.2C131.773 309.48 132.973 309.213 133.8 308.68C134.653 308.12 135.08 307.28 135.08 306.16C135.08 305.067 134.653 304.253 133.8 303.72C132.973 303.16 131.773 302.88 130.2 302.88H123.76V321.12ZM156.546 326.32C154.759 326.32 153.159 325.973 151.746 325.28C150.359 324.587 149.279 323.533 148.506 322.12C147.733 320.68 147.346 318.853 147.346 316.64V304.48H153.586V315.72C153.586 317.507 153.959 318.827 154.706 319.68C155.479 320.507 156.559 320.92 157.946 320.92C158.906 320.92 159.759 320.72 160.506 320.32C161.253 319.893 161.839 319.253 162.266 318.4C162.693 317.52 162.906 316.427 162.906 315.12V304.48H169.146V326H163.226V320.08L164.306 321.8C163.586 323.293 162.519 324.427 161.106 325.2C159.719 325.947 158.199 326.32 156.546 326.32ZM177.647 334.08C176.527 334.08 175.42 333.907 174.327 333.56C173.234 333.213 172.34 332.733 171.647 332.12L173.927 327.68C174.407 328.107 174.954 328.44 175.567 328.68C176.207 328.92 176.834 329.04 177.447 329.04C178.327 329.04 179.02 328.827 179.527 328.4C180.06 328 180.54 327.32 180.967 326.36L182.087 323.72L182.567 323.04L190.287 304.48H196.287L186.567 327.32C185.874 329.053 185.074 330.413 184.167 331.4C183.287 332.387 182.3 333.08 181.207 333.48C180.14 333.88 178.954 334.08 177.647 334.08ZM181.327 326.84L171.727 304.48H178.167L185.607 322.48L181.327 326.84ZM211.553 326.32C209.66 326.32 208.033 325.92 206.673 325.12C205.313 324.32 204.273 323.107 203.553 321.48C202.833 319.827 202.473 317.747 202.473 315.24C202.473 312.707 202.846 310.627 203.593 309C204.366 307.373 205.433 306.16 206.793 305.36C208.153 304.56 209.74 304.16 211.553 304.16C213.58 304.16 215.393 304.613 216.993 305.52C218.62 306.427 219.9 307.707 220.833 309.36C221.793 311.013 222.273 312.973 222.273 315.24C222.273 317.48 221.793 319.427 220.833 321.08C219.9 322.733 218.62 324.027 216.993 324.96C215.393 325.867 213.58 326.32 211.553 326.32ZM198.833 326V296.32H205.073V308.84L204.673 315.2L204.793 321.6V326H198.833ZM210.473 321.2C211.513 321.2 212.433 320.96 213.233 320.48C214.06 320 214.713 319.32 215.193 318.44C215.7 317.533 215.953 316.467 215.953 315.24C215.953 313.987 215.7 312.92 215.193 312.04C214.713 311.16 214.06 310.48 213.233 310C212.433 309.52 211.513 309.28 210.473 309.28C209.433 309.28 208.5 309.52 207.673 310C206.846 310.48 206.193 311.16 205.713 312.04C205.233 312.92 204.993 313.987 204.993 315.24C204.993 316.467 205.233 317.533 205.713 318.44C206.193 319.32 206.846 320 207.673 320.48C208.5 320.96 209.433 321.2 210.473 321.2ZM239.299 326V321.8L238.899 320.88V313.36C238.899 312.027 238.485 310.987 237.659 310.24C236.859 309.493 235.619 309.12 233.939 309.12C232.792 309.12 231.659 309.307 230.539 309.68C229.445 310.027 228.512 310.507 227.739 311.12L225.499 306.76C226.672 305.933 228.085 305.293 229.739 304.84C231.392 304.387 233.072 304.16 234.779 304.16C238.059 304.16 240.605 304.933 242.419 306.48C244.232 308.027 245.139 310.44 245.139 313.72V326H239.299ZM232.739 326.32C231.059 326.32 229.619 326.04 228.419 325.48C227.219 324.893 226.299 324.107 225.659 323.12C225.019 322.133 224.699 321.027 224.699 319.8C224.699 318.52 225.005 317.4 225.619 316.44C226.259 315.48 227.259 314.733 228.619 314.2C229.979 313.64 231.752 313.36 233.939 313.36H239.659V317H234.619C233.152 317 232.139 317.24 231.579 317.72C231.045 318.2 230.779 318.8 230.779 319.52C230.779 320.32 231.085 320.96 231.699 321.44C232.339 321.893 233.205 322.12 234.299 322.12C235.339 322.12 236.272 321.88 237.099 321.4C237.925 320.893 238.525 320.16 238.899 319.2L239.859 322.08C239.405 323.467 238.579 324.52 237.379 325.24C236.179 325.96 234.632 326.32 232.739 326.32ZM261.343 326.32C259.023 326.32 256.956 325.853 255.143 324.92C253.329 323.96 251.903 322.64 250.863 320.96C249.849 319.28 249.343 317.373 249.343 315.24C249.343 313.08 249.849 311.173 250.863 309.52C251.903 307.84 253.329 306.533 255.143 305.6C256.956 304.64 259.023 304.16 261.343 304.16C263.609 304.16 265.583 304.64 267.263 305.6C268.943 306.533 270.183 307.88 270.983 309.64L266.143 312.24C265.583 311.227 264.876 310.48 264.023 310C263.196 309.52 262.289 309.28 261.303 309.28C260.236 309.28 259.276 309.52 258.423 310C257.569 310.48 256.889 311.16 256.383 312.04C255.903 312.92 255.663 313.987 255.663 315.24C255.663 316.493 255.903 317.56 256.383 318.44C256.889 319.32 257.569 320 258.423 320.48C259.276 320.96 260.236 321.2 261.303 321.2C262.289 321.2 263.196 320.973 264.023 320.52C264.876 320.04 265.583 319.28 266.143 318.24L270.983 320.88C270.183 322.613 268.943 323.96 267.263 324.92C265.583 325.853 263.609 326.32 261.343 326.32ZM279.618 321.6L279.778 314L289.818 304.48H297.258L287.618 314.28L284.378 316.92L279.618 321.6ZM274.458 326V296.32H280.698V326H274.458ZM290.498 326L283.218 316.96L287.138 312.12L298.058 326H290.498ZM307.401 326.32C305.561 326.32 303.788 326.107 302.081 325.68C300.401 325.227 299.068 324.667 298.081 324L300.161 319.52C301.148 320.133 302.308 320.64 303.641 321.04C305.001 321.413 306.335 321.6 307.641 321.6C309.081 321.6 310.095 321.427 310.681 321.08C311.295 320.733 311.601 320.253 311.601 319.64C311.601 319.133 311.361 318.76 310.881 318.52C310.428 318.253 309.815 318.053 309.041 317.92C308.268 317.787 307.415 317.653 306.481 317.52C305.575 317.387 304.655 317.213 303.721 317C302.788 316.76 301.935 316.413 301.161 315.96C300.388 315.507 299.761 314.893 299.281 314.12C298.828 313.347 298.601 312.347 298.601 311.12C298.601 309.76 298.988 308.56 299.761 307.52C300.561 306.48 301.708 305.667 303.201 305.08C304.695 304.467 306.481 304.16 308.561 304.16C310.028 304.16 311.521 304.32 313.041 304.64C314.561 304.96 315.828 305.427 316.841 306.04L314.761 310.48C313.721 309.867 312.668 309.453 311.601 309.24C310.561 309 309.548 308.88 308.561 308.88C307.175 308.88 306.161 309.067 305.521 309.44C304.881 309.813 304.561 310.293 304.561 310.88C304.561 311.413 304.788 311.813 305.241 312.08C305.721 312.347 306.348 312.56 307.121 312.72C307.895 312.88 308.735 313.027 309.641 313.16C310.575 313.267 311.508 313.44 312.441 313.68C313.375 313.92 314.215 314.267 314.961 314.72C315.735 315.147 316.361 315.747 316.841 316.52C317.321 317.267 317.561 318.253 317.561 319.48C317.561 320.813 317.161 322 316.361 323.04C315.561 324.053 314.401 324.853 312.881 325.44C311.388 326.027 309.561 326.32 307.401 326.32Z" fill="#009D4A"/>
<path d="M148.59 239L203.5 115.88L209.96 126.9H134.53L146.31 114.93V149.51H123.32V106H226.68V122.53L175 239H148.59Z" fill="#009D4A"/>
</g>
<path d="M1081 11.5H95C53.8548 11.5 20.5 44.8548 20.5 86V527C20.5 568.145 53.8548 601.5 95 601.5H1081C1122.15 601.5 1155.5 568.145 1155.5 527V86C1155.5 44.8548 1122.15 11.5 1081 11.5Z" stroke="#009D4A" stroke-width="3"/>
<defs>
<filter id="filter0_f_1792_224" x="-194.2" y="-233.2" width="1048.59" height="1080.56" filterUnits="userSpaceOnUse" color-interpolation-filters="sRGB">
<feFlood flood-opacity="0" result="BackgroundImageFix"/>
<feBlend mode="normal" in="SourceGraphic" in2="BackgroundImageFix" result="shape"/>
<feGaussianBlur stdDeviation="89.35" result="effect1_foregroundBlur_1792_224"/>
</filter>
</defs>
</svg>
