<svg width="31" height="8" viewBox="0 0 31 8" fill="none" xmlns="http://www.w3.org/2000/svg">
<path d="M31 1H30V0H31V1ZM31 2.75H30V1.75H31V2.75ZM31 4.5H30V3.5H31V4.5ZM31 6.25H30V5.25H31V6.25ZM31 8H30V7H31V8Z" fill="#1A1A1A"/>
<path d="M24.1111 1H23V0H24.1111V1ZM28 1H26.8889V0H28V1ZM24.1111 2.75H23V1.75H24.1111V2.75ZM28 2.75H26.8889V1.75H28V2.75ZM24.1111 4.5H23V3.5H24.1111V4.5ZM26.0556 4.5H24.9444V3.5H26.0556V4.5ZM28 4.5H26.8889V3.5H28V4.5ZM24.1111 6.25H23V5.25H24.1111V6.25ZM28 6.25H26.8889V5.25H28V6.25ZM24.1111 8H23V7H24.1111V8ZM28 8H26.8889V7H28V8Z" fill="#1A1A1A"/>
<path d="M15.1111 1H14V0H15.1111V1ZM19 1H17.8889V0H19V1ZM15.1111 2.75H14V1.75H15.1111V2.75ZM19 2.75H17.8889V1.75H19V2.75ZM17.0556 4.5H15.9444V3.5H17.0556V4.5ZM17.0556 6.25H15.9444V5.25H17.0556V6.25ZM17.0556 8H15.9444V7H17.0556V8Z" fill="#1A1A1A"/>
<path d="M10.0556 1H8.94444V0H10.0556V1ZM8.11111 2.75H7V1.75H8.11111V2.75ZM12 2.75H10.8889V1.75H12V2.75ZM8.11111 4.5H7V3.5H8.11111V4.5ZM10.0556 4.5H8.94444V3.5H10.0556V4.5ZM12 4.5H10.8889V3.5H12V4.5ZM8.11111 6.25H7V5.25H8.11111V6.25ZM12 6.25H10.8889V5.25H12V6.25ZM8.11111 8H7V7H8.11111V8ZM12 8H10.8889V7H12V8Z" fill="#1A1A1A"/>
<path d="M3.05556 1H1.94444V0H3.05556V1ZM5 1H3.88889V0H5V1ZM1.11111 2.75H0V1.75H1.11111V2.75ZM1.11111 4.5H0V3.5H1.11111V4.5ZM3.05556 4.5H1.94444V3.5H3.05556V4.5ZM5 4.5H3.88889V3.5H5V4.5ZM5 6.25H3.88889V5.25H5V6.25ZM1.11111 8H0V7H1.11111V8ZM3.05556 8H1.94444V7H3.05556V8Z" fill="#1A1A1A"/>
</svg>
