<svg width="316" height="145" viewBox="0 0 316 145" fill="none" xmlns="http://www.w3.org/2000/svg">
<rect width="316" height="145" rx="72.5" fill="#99330B"/>
<rect x="3.5" y="3.5" width="309" height="138" rx="69" stroke="white" stroke-width="7"/>
<path d="M184.993 95.9478C181.636 95.9478 178.301 95.5109 174.99 94.637C171.679 93.7172 168.873 92.4294 166.573 90.7737L170.92 82.2191C172.759 83.5529 174.898 84.6107 177.336 85.3926C179.773 86.1745 182.234 86.5654 184.717 86.5654C187.523 86.5654 189.731 86.0135 191.34 84.9097C192.95 83.8059 193.755 82.2881 193.755 80.3564C193.755 78.5168 193.042 77.068 191.616 76.0102C190.19 74.9524 187.891 74.4234 184.717 74.4234H179.612V67.0417L193.065 51.7953L194.307 55.7966H168.988V46.8281H202.792V54.0719L189.409 69.3183L183.752 66.0759H186.994C192.927 66.0759 197.411 67.4096 200.447 70.0772C203.482 72.7447 205 76.1712 205 80.3564C205 83.07 204.287 85.6225 202.861 88.0141C201.436 90.3597 199.251 92.2684 196.307 93.7402C193.364 95.2119 189.593 95.9478 184.993 95.9478Z" fill="white"/>
<path d="M138.423 95.9475C134.651 95.9475 131.133 95.3266 127.867 94.0849C124.648 92.8431 121.842 91.0954 119.451 88.8417C117.105 86.5881 115.265 83.9436 113.932 80.9081C112.644 77.8726 112 74.5612 112 70.9738C112 67.3864 112.644 64.0749 113.932 61.0395C115.265 58.004 117.128 55.3594 119.52 53.1058C121.911 50.8522 124.717 49.1045 127.936 47.8627C131.156 46.6209 134.651 46 138.423 46C142.24 46 145.735 46.6209 148.909 47.8627C152.128 49.1045 154.911 50.8522 157.256 53.1058C159.648 55.3134 161.511 57.935 162.844 60.9705C164.178 64.0059 164.845 67.3404 164.845 70.9738C164.845 74.5612 164.178 77.8956 162.844 80.9771C161.511 84.0126 159.648 86.6571 157.256 88.9107C154.911 91.1184 152.128 92.8431 148.909 94.0849C145.735 95.3266 142.24 95.9475 138.423 95.9475ZM154.221 106.227C152.335 106.227 150.541 106.02 148.84 105.606C147.184 105.192 145.528 104.525 143.873 103.605C142.263 102.685 140.561 101.444 138.767 99.8799C137.02 98.3161 135.111 96.3845 133.041 94.0849L144.769 91.1184C146.011 92.8201 147.161 94.1768 148.219 95.1887C149.277 96.2005 150.289 96.9134 151.254 97.3273C152.266 97.7412 153.324 97.9482 154.428 97.9482C157.371 97.9482 159.993 96.7524 162.292 94.3608L167.26 100.294C163.994 104.249 159.648 106.227 154.221 106.227ZM138.423 86.4272C140.584 86.4272 142.562 86.0592 144.356 85.3233C146.195 84.5875 147.805 83.5296 149.185 82.1499C150.564 80.7701 151.622 79.1374 152.358 77.2517C153.14 75.32 153.531 73.2274 153.531 70.9738C153.531 68.6742 153.14 66.5815 152.358 64.6958C151.622 62.8102 150.564 61.1774 149.185 59.7977C147.805 58.4179 146.195 57.3601 144.356 56.6242C142.562 55.8883 140.584 55.5204 138.423 55.5204C136.261 55.5204 134.26 55.8883 132.421 56.6242C130.581 57.3601 128.971 58.4179 127.591 59.7977C126.258 61.1774 125.2 62.8102 124.418 64.6958C123.682 66.5815 123.314 68.6742 123.314 70.9738C123.314 73.2274 123.682 75.32 124.418 77.2517C125.2 79.1374 126.258 80.7701 127.591 82.1499C128.971 83.5296 130.581 84.5875 132.421 85.3233C134.26 86.0592 136.261 86.4272 138.423 86.4272Z" fill="white"/>
</svg>
