<svg width="944" height="1169" viewBox="0 0 944 1169" fill="none" xmlns="http://www.w3.org/2000/svg">
<path d="M943.295 895.075C814.119 1003.77 662.832 1083.05 499.939 1127.4C337.046 1171.75 166.451 1180.12 0 1151.91L263 0L943.295 895.075Z" fill="#ADFFCC"/>
<path d="M370.877 838.85C356.54 838.85 342.302 836.985 328.162 833.253C314.218 829.326 302.239 823.827 292.223 816.757L311.076 780.228C318.932 785.923 327.966 790.44 338.178 793.779C348.586 797.118 359.093 798.787 369.698 798.787C381.678 798.787 391.105 796.43 397.978 791.717C404.852 787.004 408.289 780.425 408.289 771.98C408.289 766.677 406.914 761.964 404.165 757.84C401.415 753.716 396.505 750.573 389.435 748.413C382.562 746.253 372.841 745.173 360.272 745.173H307.541L318.146 629.106H443.934V667.402H335.232L359.977 645.603L352.612 728.381L327.867 706.582H371.466C391.89 706.582 408.289 709.43 420.661 715.125C433.23 720.624 442.362 728.185 448.058 737.808C453.753 747.431 456.601 758.331 456.601 770.507C456.601 782.683 453.557 793.975 447.469 804.384C441.38 814.596 431.954 822.943 419.188 829.424C406.62 835.708 390.516 838.85 370.877 838.85Z" fill="#1D3926"/>
<path d="M217.242 835.315V646.781L237.863 667.402H176V629.106H264.964V835.315H217.242Z" fill="#1D3926"/>
<path d="M491.888 734.911L563.327 630.302H581.112L509.673 734.911H491.888ZM501.005 686.791C495.923 686.791 491.44 685.645 487.554 683.354C483.668 680.963 480.58 677.625 478.288 673.341C476.096 668.957 475 663.827 475 657.949C475 652.071 476.096 646.99 478.288 642.706C480.58 638.422 483.668 635.084 487.554 632.693C491.44 630.302 495.923 629.106 501.005 629.106C506.086 629.106 510.57 630.302 514.456 632.693C518.341 635.084 521.38 638.422 523.572 642.706C525.764 646.99 526.86 652.071 526.86 657.949C526.86 663.827 525.764 668.957 523.572 673.341C521.38 677.625 518.341 680.963 514.456 683.354C510.57 685.645 506.086 686.791 501.005 686.791ZM501.005 674.537C504.293 674.537 506.933 673.192 508.926 670.502C510.919 667.712 511.915 663.528 511.915 657.949C511.915 652.369 510.919 648.235 508.926 645.545C506.933 642.755 504.293 641.361 501.005 641.361C497.817 641.361 495.176 642.755 493.084 645.545C491.091 648.235 490.095 652.369 490.095 657.949C490.095 663.428 491.091 667.563 493.084 670.352C495.176 673.142 497.817 674.537 501.005 674.537ZM571.995 736.106C567.013 736.106 562.53 734.961 558.544 732.669C554.659 730.278 551.62 726.941 549.428 722.657C547.236 718.273 546.14 713.142 546.14 707.264C546.14 701.386 547.236 696.305 549.428 692.021C551.62 687.737 554.659 684.4 558.544 682.009C562.53 679.618 567.013 678.422 571.995 678.422C577.176 678.422 581.71 679.618 585.595 682.009C589.481 684.4 592.52 687.737 594.712 692.021C596.904 696.305 598 701.386 598 707.264C598 713.142 596.904 718.273 594.712 722.657C592.52 726.941 589.481 730.278 585.595 732.669C581.71 734.961 577.176 736.106 571.995 736.106ZM571.995 723.852C575.283 723.852 577.923 722.507 579.916 719.817C581.909 717.028 582.905 712.843 582.905 707.264C582.905 701.785 581.909 697.65 579.916 694.861C577.923 692.071 575.283 690.676 571.995 690.676C568.807 690.676 566.166 692.071 564.074 694.861C562.081 697.551 561.085 701.685 561.085 707.264C561.085 712.843 562.081 717.028 564.074 719.817C566.166 722.507 568.807 723.852 571.995 723.852Z" fill="#1D3926"/>
<path d="M662.884 896.046V862.275H672.613V896.046H662.884ZM645.873 873.072C650.309 873.114 653.636 874.118 655.854 876.085C658.113 878.01 659.243 880.751 659.243 884.308C659.243 888.032 657.967 890.94 655.414 893.033C652.862 895.083 649.242 896.108 644.555 896.108L628.109 896.046V862.275H637.839V873.072H645.873ZM643.676 889.141C645.559 889.183 647.003 888.785 648.007 887.948C649.012 887.111 649.514 885.856 649.514 884.182C649.514 882.508 649.012 881.315 648.007 880.604C647.003 879.851 645.559 879.453 643.676 879.411L637.839 879.349V889.141H643.676Z" fill="#1D3926"/>
<path d="M607.314 891.652V870.31H596.266L596.078 874.641C595.994 876.44 595.89 878.156 595.764 879.788C595.639 881.42 595.387 882.906 595.011 884.245C594.676 885.542 594.174 886.651 593.504 887.572C592.835 888.45 591.935 889.057 590.805 889.392L581.139 888.011C582.352 888.011 583.336 887.655 584.089 886.944C584.842 886.191 585.428 885.165 585.846 883.868C586.265 882.529 586.579 881.023 586.788 879.349C586.997 877.633 587.144 875.834 587.227 873.95L587.667 862.275H617.106V891.652H607.314ZM580.009 903.327V888.011H621.939V903.327H612.838V896.046H589.11V903.327H580.009Z" fill="#1D3926"/>
<path d="M540.514 896.046V862.275H550.243V875.457H564.931V862.275H574.723V896.046H564.931V883.429H550.243V896.046H540.514Z" fill="#1D3926"/>
<path d="M522.846 896.046V889.455L522.218 888.011V876.21C522.218 874.118 521.569 872.486 520.272 871.314C519.017 870.142 517.071 869.557 514.434 869.557C512.635 869.557 510.857 869.849 509.099 870.435C507.383 870.979 505.919 871.733 504.705 872.695L501.19 865.853C503.031 864.556 505.249 863.552 507.844 862.84C510.438 862.129 513.074 861.773 515.753 861.773C520.9 861.773 524.896 862.987 527.742 865.414C530.587 867.841 532.01 871.628 532.01 876.775V896.046H522.846ZM512.551 896.548C509.915 896.548 507.655 896.108 505.772 895.23C503.889 894.309 502.445 893.074 501.441 891.526C500.437 889.978 499.935 888.241 499.935 886.316C499.935 884.308 500.416 882.55 501.378 881.043C502.383 879.537 503.952 878.365 506.086 877.528C508.22 876.65 511.003 876.21 514.434 876.21H523.411V881.922H515.502C513.2 881.922 511.61 882.299 510.731 883.052C509.894 883.805 509.476 884.747 509.476 885.877C509.476 887.132 509.957 888.136 510.919 888.89C511.924 889.601 513.284 889.957 514.999 889.957C516.631 889.957 518.096 889.58 519.393 888.827C520.691 888.032 521.632 886.881 522.218 885.375L523.724 889.894C523.013 892.07 521.716 893.723 519.833 894.853C517.95 895.983 515.522 896.548 512.551 896.548Z" fill="#1D3926"/>
<path d="M451.445 896.046V862.275H461.677L474.419 885.375H470.339L483.96 862.275H493.125L493.25 896.046H484.4V872.318L485.906 873.323L474.294 892.781H470.151L458.476 872.632L460.296 872.193V896.046H451.445Z" fill="#1D3926"/>
<path d="M426.186 896.548C422.588 896.548 419.386 895.794 416.583 894.288C413.821 892.781 411.624 890.731 409.992 888.136C408.402 885.5 407.606 882.508 407.606 879.16C407.606 875.771 408.402 872.779 409.992 870.184C411.624 867.548 413.821 865.497 416.583 864.033C419.386 862.526 422.588 861.773 426.186 861.773C429.743 861.773 432.924 862.526 435.727 864.033C438.531 865.497 440.728 867.527 442.318 870.121C443.908 872.716 444.704 875.729 444.704 879.16C444.704 882.508 443.908 885.5 442.318 888.136C440.728 890.731 438.531 892.781 435.727 894.288C432.924 895.794 429.743 896.548 426.186 896.548ZM426.186 888.513C427.818 888.513 429.283 888.136 430.58 887.383C431.878 886.63 432.903 885.563 433.656 884.182C434.409 882.759 434.786 881.085 434.786 879.16C434.786 877.194 434.409 875.52 433.656 874.139C432.903 872.758 431.878 871.691 430.58 870.937C429.283 870.184 427.818 869.808 426.186 869.808C424.554 869.808 423.09 870.184 421.792 870.937C420.495 871.691 419.449 872.758 418.654 874.139C417.901 875.52 417.524 877.194 417.524 879.16C417.524 881.085 417.901 882.759 418.654 884.182C419.449 885.563 420.495 886.63 421.792 887.383C423.09 888.136 424.554 888.513 426.186 888.513Z" fill="#1D3926"/>
<path d="M395.06 896.046L383.761 880.039L391.733 875.331L406.61 896.046H395.06ZM371.145 896.046V862.275H380.937V896.046H371.145ZM378.049 883.24V875.394H389.85V883.24H378.049ZM392.675 880.29L383.51 879.286L395.374 862.275H405.794L392.675 880.29Z" fill="#1D3926"/>
<path d="M335.226 896.046V884.81L336.607 886.379H327.255C322.4 886.379 318.592 885.375 315.831 883.366C313.069 881.357 311.688 878.47 311.688 874.704C311.688 870.686 313.131 867.611 316.019 865.476C318.948 863.342 322.882 862.275 327.82 862.275H343.952V896.046H335.226ZM311.186 896.046L320.162 883.178H330.142L321.605 896.046H311.186ZM335.226 881.797V867.736L336.607 870.247H328.008C325.999 870.247 324.43 870.624 323.3 871.377C322.212 872.13 321.668 873.344 321.668 875.018C321.668 878.24 323.74 879.851 327.882 879.851H336.607L335.226 881.797Z" fill="#1D3926"/>
<path d="M267.877 895.983L268.379 887.948C268.63 887.99 268.881 888.032 269.132 888.074C269.383 888.074 269.614 888.074 269.823 888.074C270.995 888.074 271.915 887.739 272.585 887.069C273.254 886.4 273.756 885.5 274.091 884.37C274.426 883.199 274.656 881.88 274.782 880.416C274.949 878.951 275.075 877.424 275.158 875.834L275.66 862.275H304.535V896.046H294.743V867.925L296.939 870.31H282.126L284.197 867.799L283.758 876.273C283.632 879.286 283.381 882.048 283.005 884.559C282.67 887.069 282.105 889.245 281.31 891.087C280.515 892.886 279.448 894.288 278.108 895.292C276.769 896.255 275.054 896.736 272.961 896.736C272.208 896.736 271.413 896.673 270.576 896.548C269.739 896.422 268.839 896.234 267.877 895.983Z" fill="#1D3926"/>
<path d="M247.378 896.548C243.779 896.548 240.578 895.794 237.774 894.288C235.012 892.781 232.815 890.731 231.183 888.136C229.593 885.5 228.798 882.508 228.798 879.16C228.798 875.771 229.593 872.779 231.183 870.184C232.815 867.548 235.012 865.497 237.774 864.033C240.578 862.526 243.779 861.773 247.378 861.773C250.935 861.773 254.115 862.526 256.919 864.033C259.723 865.497 261.92 867.527 263.51 870.121C265.1 872.716 265.895 875.729 265.895 879.16C265.895 882.508 265.1 885.5 263.51 888.136C261.92 890.731 259.723 892.781 256.919 894.288C254.115 895.794 250.935 896.548 247.378 896.548ZM247.378 888.513C249.01 888.513 250.474 888.136 251.772 887.383C253.069 886.63 254.094 885.563 254.847 884.182C255.601 882.759 255.977 881.085 255.977 879.16C255.977 877.194 255.601 875.52 254.847 874.139C254.094 872.758 253.069 871.691 251.772 870.937C250.474 870.184 249.01 869.808 247.378 869.808C245.746 869.808 244.281 870.184 242.984 870.937C241.687 871.691 240.64 872.758 239.845 874.139C239.092 875.52 238.716 877.194 238.716 879.16C238.716 881.085 239.092 882.759 239.845 884.182C240.64 885.563 241.687 886.63 242.984 887.383C244.281 888.136 245.746 888.513 247.378 888.513Z" fill="#1D3926"/>
<path d="M209.645 891.526V860.392H194.58L194.392 866.795C194.266 869.515 194.078 872.088 193.827 874.515C193.617 876.942 193.283 879.16 192.822 881.169C192.362 883.136 191.755 884.81 191.002 886.191C190.291 887.571 189.391 888.555 188.303 889.141L177.444 887.76C178.95 887.802 180.185 887.279 181.147 886.191C182.151 885.103 182.947 883.575 183.532 881.608C184.118 879.6 184.537 877.256 184.788 874.578C185.081 871.9 185.29 868.992 185.416 865.853L185.918 852.106H219.688V891.526H209.645ZM176 905.147L176.063 887.76H225.839V905.147H216.424V896.045H185.416V905.147H176Z" fill="#1D3926"/>
</svg>
