<svg width="31" height="8" viewBox="0 0 31 8" fill="none" xmlns="http://www.w3.org/2000/svg">
<path d="M23.3542 0H23.6458C23.684 0.0476191 23.7396 0.0793651 23.8125 0.0952381C23.8125 0.119048 23.8542 0.174603 23.9375 0.261905C23.9375 0.313492 23.9583 0.361111 24 0.404762V0.738095C23.9583 0.781746 23.9306 0.845238 23.9167 0.928571C23.8958 0.928571 23.8472 0.976191 23.7708 1.07143H23.6875V1.21429C23.8056 1.21429 23.8889 1.29365 23.9375 1.45238C23.9375 1.47619 23.9583 1.50794 24 1.54762V1.88095C23.9583 1.9246 23.9306 1.9881 23.9167 2.07143C23.8958 2.07143 23.8472 2.11905 23.7708 2.21429H23.6875V2.35714C23.8056 2.35714 23.8889 2.43651 23.9375 2.59524C23.9375 2.61905 23.9583 2.65079 24 2.69048V3.02381C23.9583 3.06746 23.9306 3.13095 23.9167 3.21429C23.8194 3.30952 23.7639 3.35714 23.75 3.35714H23.6875V3.5C23.8056 3.5 23.8889 3.57937 23.9375 3.7381V3.78571H24.0625C24.0625 3.65079 24.1319 3.55556 24.2708 3.5C24.2917 3.5 24.3194 3.47619 24.3542 3.42857H24.6458C24.684 3.47619 24.7396 3.50794 24.8125 3.52381C24.8125 3.54762 24.8542 3.60317 24.9375 3.69048V3.78571H25.0625C25.0625 3.65079 25.1319 3.55556 25.2708 3.5C25.2917 3.5 25.3194 3.47619 25.3542 3.42857H25.6458C25.684 3.47619 25.7396 3.50794 25.8125 3.52381C25.8958 3.63492 25.9375 3.69841 25.9375 3.71429V3.78571H26.0625C26.0625 3.65079 26.1319 3.55556 26.2708 3.5C26.2917 3.5 26.3194 3.47619 26.3542 3.42857H26.6458C26.684 3.47619 26.7396 3.50794 26.8125 3.52381C26.8125 3.54762 26.8542 3.60317 26.9375 3.69048V3.78571H27.0625C27.0625 3.65079 27.1319 3.55556 27.2708 3.5H27.3125V3.35714C27.1806 3.35714 27.0972 3.26984 27.0625 3.09524L27 3.02381V2.69048C27.0417 2.64683 27.0694 2.58333 27.0833 2.5C27.1806 2.40476 27.2361 2.35714 27.25 2.35714H27.3125V2.21429C27.1806 2.21429 27.0972 2.12698 27.0625 1.95238L27 1.88095V1.54762C27.0417 1.50397 27.0694 1.44048 27.0833 1.35714C27.1042 1.35714 27.1528 1.30952 27.2292 1.21429H27.3125V1.07143C27.1806 1.07143 27.0972 0.984127 27.0625 0.809524L27 0.738095V0.404762C27.0417 0.361111 27.0694 0.297619 27.0833 0.214286C27.1042 0.214286 27.1528 0.166667 27.2292 0.0714286C27.2778 0.0714286 27.3194 0.0476191 27.3542 0H27.6458C27.684 0.0476191 27.7396 0.0793651 27.8125 0.0952381C27.8958 0.206349 27.9375 0.269841 27.9375 0.285714C27.9375 0.325397 27.9583 0.365079 28 0.404762V0.738095C27.9583 0.781746 27.9306 0.845238 27.9167 0.928571C27.8194 1.02381 27.7639 1.07143 27.75 1.07143H27.6875V1.21429C27.8056 1.21429 27.8889 1.29365 27.9375 1.45238C27.9375 1.47619 27.9583 1.50794 28 1.54762V1.88095C27.9583 1.9246 27.9306 1.9881 27.9167 2.07143C27.8958 2.07143 27.8472 2.11905 27.7708 2.21429H27.6875V2.35714C27.8056 2.35714 27.8889 2.43651 27.9375 2.59524C27.9375 2.61905 27.9583 2.65079 28 2.69048V3.02381C27.9583 3.06746 27.9306 3.13095 27.9167 3.21429C27.8194 3.30952 27.7639 3.35714 27.75 3.35714H27.6875V3.5C27.8056 3.5 27.8889 3.57937 27.9375 3.7381C27.9375 3.7619 27.9583 3.79365 28 3.83333V4.16667C27.9583 4.21032 27.9306 4.27381 27.9167 4.35714C27.8958 4.35714 27.8472 4.40476 27.7708 4.5H27.6875V4.64286C27.8056 4.64286 27.8889 4.72222 27.9375 4.88095C27.9375 4.90476 27.9583 4.93651 28 4.97619V5.30952C27.9583 5.35317 27.9306 5.41667 27.9167 5.5C27.8958 5.5 27.8472 5.54762 27.7708 5.64286H27.6875V5.78571C27.8056 5.78571 27.8889 5.86508 27.9375 6.02381C27.9375 6.04762 27.9583 6.07937 28 6.11905V6.45238C27.9583 6.49603 27.9306 6.55952 27.9167 6.64286C27.8958 6.64286 27.8472 6.69048 27.7708 6.78571H27.6875V6.92857C27.8056 6.92857 27.8889 7.00794 27.9375 7.16667C27.9375 7.19048 27.9583 7.22222 28 7.26191V7.59524C27.9583 7.63889 27.9306 7.70238 27.9167 7.78571C27.8958 7.78571 27.8472 7.83333 27.7708 7.92857C27.7257 7.92857 27.684 7.95238 27.6458 8H27.3542C27.316 7.95238 27.2604 7.92064 27.1875 7.90476C27.1875 7.88095 27.1458 7.8254 27.0625 7.7381C27.0625 7.68254 27.0417 7.63492 27 7.59524V7.26191C27.0417 7.21825 27.0694 7.15476 27.0833 7.07143C27.1042 7.07143 27.1528 7.02381 27.2292 6.92857H27.3125V6.78571C27.1806 6.78571 27.0972 6.69841 27.0625 6.52381L27 6.45238V6.11905C27.0417 6.0754 27.0694 6.01191 27.0833 5.92857C27.1806 5.83333 27.2361 5.78571 27.25 5.78571H27.3125V5.64286C27.1806 5.64286 27.0972 5.55556 27.0625 5.38095L27 5.30952V4.97619C27.0417 4.93254 27.0694 4.86905 27.0833 4.78571C27.1042 4.78571 27.1528 4.7381 27.2292 4.64286H27.3125V4.5C27.1806 4.5 27.0972 4.4127 27.0625 4.2381V4.21429H26.9375C26.9375 4.36508 26.8611 4.46032 26.7083 4.5C26.6771 4.54762 26.6563 4.57143 26.6458 4.57143H26.3542C26.316 4.52381 26.2604 4.49206 26.1875 4.47619C26.1042 4.36508 26.0625 4.30159 26.0625 4.28571V4.21429H25.9375C25.9375 4.36508 25.8611 4.46032 25.7083 4.5C25.6771 4.54762 25.6563 4.57143 25.6458 4.57143H25.3542C25.316 4.52381 25.2604 4.49206 25.1875 4.47619C25.1875 4.45238 25.1458 4.39683 25.0625 4.30952V4.21429H24.9375C24.9375 4.36508 24.8611 4.46032 24.7083 4.5C24.6771 4.54762 24.6563 4.57143 24.6458 4.57143H24.3542C24.316 4.52381 24.2604 4.49206 24.1875 4.47619C24.1042 4.36508 24.0625 4.30159 24.0625 4.28571V4.21429H23.9375C23.9375 4.36508 23.8611 4.46032 23.7083 4.5H23.6875V4.64286C23.8056 4.64286 23.8889 4.72222 23.9375 4.88095C23.9375 4.90476 23.9583 4.93651 24 4.97619V5.30952C23.9583 5.35317 23.9306 5.41667 23.9167 5.5C23.8958 5.5 23.8472 5.54762 23.7708 5.64286H23.6875V5.78571C23.8056 5.78571 23.8889 5.86508 23.9375 6.02381C23.9375 6.04762 23.9583 6.07937 24 6.11905V6.45238C23.9583 6.49603 23.9306 6.55952 23.9167 6.64286C23.8194 6.7381 23.7639 6.78571 23.75 6.78571H23.6875V6.92857C23.8056 6.92857 23.8889 7.00794 23.9375 7.16667C23.9375 7.19048 23.9583 7.22222 24 7.26191V7.59524C23.9583 7.63889 23.9306 7.70238 23.9167 7.78571C23.8958 7.78571 23.8472 7.83333 23.7708 7.92857C23.7257 7.92857 23.684 7.95238 23.6458 8H23.3542C23.316 7.95238 23.2604 7.92064 23.1875 7.90476C23.1875 7.88095 23.1458 7.8254 23.0625 7.7381C23.0625 7.68254 23.0417 7.63492 23 7.59524V7.26191C23.0417 7.21825 23.0694 7.15476 23.0833 7.07143C23.1042 7.07143 23.1528 7.02381 23.2292 6.92857H23.3125V6.78571C23.1806 6.78571 23.0972 6.69841 23.0625 6.52381C23.0208 6.4881 23 6.46429 23 6.45238V6.11905C23.0417 6.0754 23.0694 6.01191 23.0833 5.92857C23.1806 5.83333 23.2361 5.78571 23.25 5.78571H23.3125V5.64286C23.1806 5.64286 23.0972 5.55556 23.0625 5.38095L23 5.30952V4.97619C23.0417 4.93254 23.0694 4.86905 23.0833 4.78571C23.1042 4.78571 23.1528 4.7381 23.2292 4.64286H23.3125V4.5C23.1806 4.5 23.0972 4.4127 23.0625 4.2381C23.0208 4.20238 23 4.17857 23 4.16667V3.83333C23.0417 3.78968 23.0694 3.72619 23.0833 3.64286C23.1042 3.64286 23.1528 3.59524 23.2292 3.5H23.3125V3.35714C23.1806 3.35714 23.0972 3.26984 23.0625 3.09524L23 3.02381V2.69048C23.0417 2.64683 23.0694 2.58333 23.0833 2.5C23.1042 2.5 23.1528 2.45238 23.2292 2.35714H23.3125V2.21429C23.1806 2.21429 23.0972 2.12698 23.0625 1.95238C23.0208 1.91667 23 1.89286 23 1.88095V1.54762C23.0417 1.50397 23.0694 1.44048 23.0833 1.35714C23.1042 1.35714 23.1528 1.30952 23.2292 1.21429H23.3125V1.07143C23.1806 1.07143 23.0972 0.984127 23.0625 0.809524C23.0208 0.77381 23 0.75 23 0.738095V0.404762C23.0417 0.361111 23.0694 0.297619 23.0833 0.214286C23.1042 0.214286 23.1528 0.166667 23.2292 0.0714286C23.2778 0.0714286 23.3194 0.0476191 23.3542 0Z" fill="#1A1A1A"/>
<path d="M14.3542 0H14.6458C14.684 0.0476191 14.7396 0.0793651 14.8125 0.0952381C14.8125 0.119048 14.8542 0.174603 14.9375 0.261905C14.9375 0.313492 14.9583 0.361111 15 0.404762V0.738095C14.9583 0.781746 14.9306 0.845238 14.9167 0.928571C14.8958 0.928571 14.8472 0.976191 14.7708 1.07143H14.6875V1.21429C14.8056 1.21429 14.8889 1.29365 14.9375 1.45238C14.9375 1.47619 14.9583 1.50794 15 1.54762V1.88095C14.9583 1.9246 14.9306 1.9881 14.9167 2.07143C14.8958 2.07143 14.8472 2.11905 14.7708 2.21429C14.7257 2.21429 14.684 2.2381 14.6458 2.28571H14.3542C14.316 2.2381 14.2604 2.20635 14.1875 2.19048C14.1875 2.16667 14.1458 2.11111 14.0625 2.02381C14.0625 1.96825 14.0417 1.92064 14 1.88095V1.54762C14.0417 1.50397 14.0694 1.44048 14.0833 1.35714C14.1042 1.35714 14.1528 1.30952 14.2292 1.21429H14.3125V1.07143C14.1806 1.07143 14.0972 0.984127 14.0625 0.809524C14.0208 0.77381 14 0.75 14 0.738095V0.404762C14.0417 0.361111 14.0694 0.297619 14.0833 0.214286C14.1042 0.214286 14.1528 0.166667 14.2292 0.0714286C14.2778 0.0714286 14.3194 0.0476191 14.3542 0ZM18.3542 0H18.6458C18.684 0.0476191 18.7396 0.0793651 18.8125 0.0952381C18.8958 0.206349 18.9375 0.269841 18.9375 0.285714C18.9375 0.325397 18.9583 0.365079 19 0.404762V0.738095C18.9583 0.781746 18.9306 0.845238 18.9167 0.928571C18.8194 1.02381 18.7639 1.07143 18.75 1.07143H18.6875V1.21429C18.8056 1.21429 18.8889 1.29365 18.9375 1.45238C18.9375 1.47619 18.9583 1.50794 19 1.54762V1.88095C18.9583 1.9246 18.9306 1.9881 18.9167 2.07143C18.8958 2.07143 18.8472 2.11905 18.7708 2.21429C18.7257 2.21429 18.684 2.2381 18.6458 2.28571H18.3542C18.316 2.2381 18.2604 2.20635 18.1875 2.19048C18.1042 2.07937 18.0625 2.01587 18.0625 2C18.0625 1.96032 18.0417 1.92064 18 1.88095V1.54762C18.0417 1.50397 18.0694 1.44048 18.0833 1.35714C18.1042 1.35714 18.1528 1.30952 18.2292 1.21429H18.3125V1.07143C18.1806 1.07143 18.0972 0.984127 18.0625 0.809524L18 0.738095V0.404762C18.0417 0.361111 18.0694 0.297619 18.0833 0.214286C18.1042 0.214286 18.1528 0.166667 18.2292 0.0714286C18.2778 0.0714286 18.3194 0.0476191 18.3542 0ZM15.3542 2.28571H15.6458C15.684 2.33333 15.7396 2.36508 15.8125 2.38095C15.8125 2.40476 15.8542 2.46032 15.9375 2.54762C15.9375 2.59921 15.9583 2.64683 16 2.69048V3.02381C15.9583 3.06746 15.9306 3.13095 15.9167 3.21429C15.8958 3.21429 15.8472 3.26191 15.7708 3.35714C15.7257 3.35714 15.684 3.38095 15.6458 3.42857H15.3542C15.316 3.38095 15.2604 3.34921 15.1875 3.33333C15.1875 3.30952 15.1458 3.25397 15.0625 3.16667C15.0625 3.11111 15.0417 3.06349 15 3.02381V2.69048C15.0417 2.64683 15.0694 2.58333 15.0833 2.5C15.1042 2.5 15.1528 2.45238 15.2292 2.35714C15.2778 2.35714 15.3194 2.33333 15.3542 2.28571ZM17.3542 2.28571H17.6458C17.684 2.33333 17.7396 2.36508 17.8125 2.38095C17.8125 2.40476 17.8542 2.46032 17.9375 2.54762C17.9375 2.59921 17.9583 2.64683 18 2.69048V3.02381C17.9583 3.06746 17.9306 3.13095 17.9167 3.21429C17.8194 3.30952 17.7639 3.35714 17.75 3.35714C17.7153 3.35714 17.6806 3.38095 17.6458 3.42857H17.3542C17.316 3.38095 17.2604 3.34921 17.1875 3.33333C17.1875 3.30952 17.1458 3.25397 17.0625 3.16667C17.0625 3.11111 17.0417 3.06349 17 3.02381V2.69048C17.0417 2.64683 17.0694 2.58333 17.0833 2.5C17.1042 2.5 17.1528 2.45238 17.2292 2.35714C17.2778 2.35714 17.3194 2.33333 17.3542 2.28571ZM16.3542 3.42857H16.6458C16.684 3.47619 16.7396 3.50794 16.8125 3.52381C16.8958 3.63492 16.9375 3.69841 16.9375 3.71429C16.9375 3.75397 16.9583 3.79365 17 3.83333V4.16667C16.9583 4.21032 16.9306 4.27381 16.9167 4.35714C16.8958 4.35714 16.8472 4.40476 16.7708 4.5H16.6875V4.64286C16.8056 4.64286 16.8889 4.72222 16.9375 4.88095C16.9375 4.90476 16.9583 4.93651 17 4.97619V5.30952C16.9583 5.35317 16.9306 5.41667 16.9167 5.5C16.8958 5.5 16.8472 5.54762 16.7708 5.64286H16.6875V5.78571C16.8056 5.78571 16.8889 5.86508 16.9375 6.02381C16.9375 6.04762 16.9583 6.07937 17 6.11905V6.45238C16.9583 6.49603 16.9306 6.55952 16.9167 6.64286C16.8958 6.64286 16.8472 6.69048 16.7708 6.78571H16.6875V6.92857C16.8056 6.92857 16.8889 7.00794 16.9375 7.16667C16.9375 7.19048 16.9583 7.22222 17 7.26191V7.59524C16.9583 7.63889 16.9306 7.70238 16.9167 7.78571C16.8194 7.88095 16.7639 7.92857 16.75 7.92857C16.7153 7.92857 16.6806 7.95238 16.6458 8H16.3542C16.316 7.95238 16.2604 7.92064 16.1875 7.90476C16.1875 7.88095 16.1458 7.8254 16.0625 7.7381C16.0625 7.68254 16.0417 7.63492 16 7.59524V7.26191C16.0417 7.21825 16.0694 7.15476 16.0833 7.07143C16.1042 7.07143 16.1528 7.02381 16.2292 6.92857H16.3125V6.78571C16.1806 6.78571 16.0972 6.69841 16.0625 6.52381C16.0208 6.4881 16 6.46429 16 6.45238V6.11905C16.0417 6.0754 16.0694 6.01191 16.0833 5.92857C16.1042 5.92857 16.1528 5.88095 16.2292 5.78571H16.3125V5.64286C16.1806 5.64286 16.0972 5.55556 16.0625 5.38095L16 5.30952V4.97619C16.0417 4.93254 16.0694 4.86905 16.0833 4.78571C16.1042 4.78571 16.1528 4.7381 16.2292 4.64286H16.3125V4.5C16.1806 4.5 16.0972 4.4127 16.0625 4.2381L16 4.16667V3.83333C16.0417 3.78968 16.0694 3.72619 16.0833 3.64286C16.1042 3.64286 16.1528 3.59524 16.2292 3.5C16.2778 3.5 16.3194 3.47619 16.3542 3.42857Z" fill="#1A1A1A"/>
<path d="M30.3542 3.42847H30.6458C30.684 3.47609 30.7396 3.50783 30.8125 3.5237C30.8958 3.63482 30.9375 3.69831 30.9375 3.71418C30.9375 3.75386 30.9583 3.79355 31 3.83323V4.16656C30.9583 4.21021 30.9306 4.2737 30.9167 4.35704C30.8958 4.35704 30.8472 4.40466 30.7708 4.4999H30.6875V4.64275C30.8056 4.64275 30.8889 4.72212 30.9375 4.88085C30.9375 4.90466 30.9583 4.9364 31 4.97609V5.30942C30.9583 5.35307 30.9306 5.41656 30.9167 5.4999C30.8958 5.4999 30.8472 5.54751 30.7708 5.64275H30.6875V5.78561C30.8056 5.78561 30.8889 5.86497 30.9375 6.02371C30.9375 6.04751 30.9583 6.07926 31 6.11894V6.45228C30.9583 6.49593 30.9306 6.55942 30.9167 6.64275C30.8958 6.64275 30.8472 6.69037 30.7708 6.78561H30.6875V6.92847C30.8056 6.92847 30.8889 7.00783 30.9375 7.16656C30.9375 7.19037 30.9583 7.22212 31 7.2618V7.59513C30.9583 7.63878 30.9306 7.70228 30.9167 7.78561C30.8194 7.88085 30.7639 7.92847 30.75 7.92847C30.7153 7.92847 30.6806 7.95228 30.6458 7.9999H30.3542C30.316 7.95228 30.2604 7.92053 30.1875 7.90466C30.1875 7.88085 30.1458 7.82529 30.0625 7.73799C30.0625 7.68244 30.0417 7.63482 30 7.59513V7.2618C30.0417 7.21815 30.0694 7.15466 30.0833 7.07132C30.1042 7.07132 30.1528 7.0237 30.2292 6.92847H30.3125V6.78561C30.1806 6.78561 30.0972 6.69831 30.0625 6.52371C30.0208 6.48799 30 6.46418 30 6.45228V6.11894C30.0417 6.07529 30.0694 6.0118 30.0833 5.92847C30.1042 5.92847 30.1528 5.88085 30.2292 5.78561H30.3125V5.64275C30.1806 5.64275 30.0972 5.55545 30.0625 5.38085L30 5.30942V4.97609C30.0417 4.93243 30.0694 4.86894 30.0833 4.78561C30.1042 4.78561 30.1528 4.73799 30.2292 4.64275H30.3125V4.4999C30.1806 4.4999 30.0972 4.41259 30.0625 4.23799L30 4.16656V3.83323C30.0417 3.78958 30.0694 3.72609 30.0833 3.64275C30.1042 3.64275 30.1528 3.59513 30.2292 3.4999C30.2778 3.4999 30.3194 3.47609 30.3542 3.42847Z" fill="#1A1A1A"/>
<path d="M30.3542 0H30.6458C30.684 0.0476191 30.7396 0.079365 30.8125 0.095238C30.8958 0.206349 30.9375 0.269841 30.9375 0.285714C30.9375 0.325397 30.9583 0.365079 31 0.404762V0.738095C30.9583 0.781746 30.9306 0.845238 30.9167 0.928571C30.8958 0.928571 30.8472 0.976191 30.7708 1.07143H30.6875V1.21429C30.8056 1.21429 30.8889 1.29365 30.9375 1.45238C30.9375 1.47619 30.9583 1.50794 31 1.54762V1.88095C30.9583 1.9246 30.9306 1.9881 30.9167 2.07143C30.8958 2.07143 30.8472 2.11905 30.7708 2.21429H30.6875V2.35714C30.8056 2.35714 30.8889 2.43651 30.9375 2.59524C30.9375 2.61905 30.9583 2.65079 31 2.69048V3.02381C30.9583 3.06746 30.9306 3.13095 30.9167 3.21429C30.8958 3.21429 30.8472 3.2619 30.7708 3.35714H30.6875V3.5C30.8056 3.5 30.8889 3.57937 30.9375 3.7381C30.9375 3.7619 30.9583 3.79365 31 3.83333V4.16667C30.9583 4.21032 30.9306 4.27381 30.9167 4.35714C30.8194 4.45238 30.7639 4.5 30.75 4.5C30.7153 4.5 30.6806 4.52381 30.6458 4.57143H30.3542C30.316 4.52381 30.2604 4.49206 30.1875 4.47619C30.1875 4.45238 30.1458 4.39683 30.0625 4.30952C30.0625 4.25397 30.0417 4.20635 30 4.16667V3.83333C30.0417 3.78968 30.0694 3.72619 30.0833 3.64286C30.1042 3.64286 30.1528 3.59524 30.2292 3.5H30.3125V3.35714C30.1806 3.35714 30.0972 3.26984 30.0625 3.09524C30.0208 3.05952 30 3.03571 30 3.02381V2.69048C30.0417 2.64683 30.0694 2.58333 30.0833 2.5C30.1042 2.5 30.1528 2.45238 30.2292 2.35714H30.3125V2.21429C30.1806 2.21429 30.0972 2.12698 30.0625 1.95238L30 1.88095V1.54762C30.0417 1.50397 30.0694 1.44048 30.0833 1.35714C30.1042 1.35714 30.1528 1.30952 30.2292 1.21429H30.3125V1.07143C30.1806 1.07143 30.0972 0.984127 30.0625 0.809524L30 0.738095V0.404762C30.0417 0.361111 30.0694 0.297619 30.0833 0.214286C30.1042 0.214286 30.1528 0.166667 30.2292 0.0714285C30.2778 0.0714285 30.3194 0.0476191 30.3542 0Z" fill="#1A1A1A"/>
<path d="M9.35417 0H9.64583C9.68403 0.0476191 9.73958 0.0793651 9.8125 0.0952381C9.8125 0.119048 9.85417 0.174603 9.9375 0.261905C9.9375 0.313492 9.95833 0.361111 10 0.404762V0.738095C9.95833 0.781746 9.93056 0.845238 9.91667 0.928571C9.89583 0.928571 9.84722 0.976191 9.77083 1.07143C9.72569 1.07143 9.68403 1.09524 9.64583 1.14286H9.35417C9.31597 1.09524 9.26042 1.06349 9.1875 1.04762C9.10417 0.936508 9.0625 0.873016 9.0625 0.857143C9.0625 0.81746 9.04167 0.777778 9 0.738095V0.404762C9.04167 0.361111 9.06944 0.297619 9.08333 0.214286C9.10417 0.214286 9.15278 0.166667 9.22917 0.0714286C9.27778 0.0714286 9.31944 0.0476191 9.35417 0ZM8.35417 1.14286H8.64583C8.68403 1.19048 8.73958 1.22222 8.8125 1.2381C8.8125 1.2619 8.85417 1.31746 8.9375 1.40476C8.9375 1.45635 8.95833 1.50397 9 1.54762V1.88095C8.95833 1.9246 8.93056 1.9881 8.91667 2.07143C8.81944 2.16667 8.76389 2.21429 8.75 2.21429C8.71528 2.21429 8.68056 2.2381 8.64583 2.28571H8.35417C8.31597 2.2381 8.26042 2.20635 8.1875 2.19048C8.1875 2.16667 8.14583 2.11111 8.0625 2.02381C8.0625 1.96825 8.04167 1.92064 8 1.88095V1.54762C8.04167 1.50397 8.06944 1.44048 8.08333 1.35714C8.10417 1.35714 8.15278 1.30952 8.22917 1.21429C8.27778 1.21429 8.31944 1.19048 8.35417 1.14286ZM10.3542 1.14286H10.6458C10.684 1.19048 10.7396 1.22222 10.8125 1.2381C10.8125 1.2619 10.8542 1.31746 10.9375 1.40476C10.9375 1.45635 10.9583 1.50397 11 1.54762V1.88095C10.9583 1.9246 10.9306 1.9881 10.9167 2.07143C10.8194 2.16667 10.7639 2.21429 10.75 2.21429C10.7153 2.21429 10.6806 2.2381 10.6458 2.28571H10.3542C10.316 2.2381 10.2604 2.20635 10.1875 2.19048C10.1875 2.16667 10.1458 2.11111 10.0625 2.02381C10.0625 1.96825 10.0417 1.92064 10 1.88095V1.54762C10.0417 1.50397 10.0694 1.44048 10.0833 1.35714C10.1042 1.35714 10.1528 1.30952 10.2292 1.21429C10.2778 1.21429 10.3194 1.19048 10.3542 1.14286ZM7.35417 2.28571H7.64583C7.68403 2.33333 7.73958 2.36508 7.8125 2.38095C7.8125 2.40476 7.85417 2.46032 7.9375 2.54762C7.9375 2.59921 7.95833 2.64683 8 2.69048V3.02381C7.95833 3.06746 7.93056 3.13095 7.91667 3.21429C7.81944 3.30952 7.76389 3.35714 7.75 3.35714H7.6875V3.5C7.80556 3.5 7.88889 3.57937 7.9375 3.7381C7.9375 3.7619 7.95833 3.79365 8 3.83333V4.16667C7.95833 4.21032 7.93056 4.27381 7.91667 4.35714C7.81944 4.45238 7.76389 4.5 7.75 4.5H7.6875V4.64286C7.80556 4.64286 7.88889 4.72222 7.9375 4.88095V4.92857H8.0625C8.0625 4.79365 8.13194 4.69841 8.27083 4.64286C8.29167 4.64286 8.31944 4.61905 8.35417 4.57143H8.64583C8.68403 4.61905 8.73958 4.65079 8.8125 4.66667C8.8125 4.69048 8.85417 4.74603 8.9375 4.83333V4.92857H9.0625C9.0625 4.79365 9.13194 4.69841 9.27083 4.64286C9.29167 4.64286 9.31944 4.61905 9.35417 4.57143H9.64583C9.68403 4.61905 9.73958 4.65079 9.8125 4.66667C9.89583 4.77778 9.9375 4.84127 9.9375 4.85714V4.92857H10.0625C10.0625 4.79365 10.1319 4.69841 10.2708 4.64286C10.2917 4.64286 10.3194 4.61905 10.3542 4.57143H10.6458C10.684 4.61905 10.7396 4.65079 10.8125 4.66667C10.8125 4.69048 10.8542 4.74603 10.9375 4.83333V4.92857H11.0625C11.0625 4.79365 11.1319 4.69841 11.2708 4.64286H11.3125V4.5C11.1806 4.5 11.0972 4.4127 11.0625 4.2381L11 4.16667V3.83333C11.0417 3.78968 11.0694 3.72619 11.0833 3.64286C11.1042 3.64286 11.1528 3.59524 11.2292 3.5H11.3125V3.35714C11.1806 3.35714 11.0972 3.26984 11.0625 3.09524L11 3.02381V2.69048C11.0417 2.64683 11.0694 2.58333 11.0833 2.5C11.1806 2.40476 11.2361 2.35714 11.25 2.35714C11.2847 2.35714 11.3194 2.33333 11.3542 2.28571H11.6458C11.684 2.33333 11.7396 2.36508 11.8125 2.38095C11.8958 2.49206 11.9375 2.55556 11.9375 2.57143C11.9375 2.61111 11.9583 2.65079 12 2.69048V3.02381C11.9583 3.06746 11.9306 3.13095 11.9167 3.21429C11.8194 3.30952 11.7639 3.35714 11.75 3.35714H11.6875V3.5C11.8056 3.5 11.8889 3.57937 11.9375 3.7381C11.9375 3.7619 11.9583 3.79365 12 3.83333V4.16667C11.9583 4.21032 11.9306 4.27381 11.9167 4.35714C11.8958 4.35714 11.8472 4.40476 11.7708 4.5H11.6875V4.64286C11.8056 4.64286 11.8889 4.72222 11.9375 4.88095C11.9375 4.90476 11.9583 4.93651 12 4.97619V5.30952C11.9583 5.35317 11.9306 5.41667 11.9167 5.5C11.8958 5.5 11.8472 5.54762 11.7708 5.64286H11.6875V5.78571C11.8056 5.78571 11.8889 5.86508 11.9375 6.02381C11.9375 6.04762 11.9583 6.07937 12 6.11905V6.45238C11.9583 6.49603 11.9306 6.55952 11.9167 6.64286C11.8958 6.64286 11.8472 6.69048 11.7708 6.78571H11.6875V6.92857C11.8056 6.92857 11.8889 7.00794 11.9375 7.16667C11.9375 7.19048 11.9583 7.22222 12 7.26191V7.59524C11.9583 7.63889 11.9306 7.70238 11.9167 7.78571C11.8958 7.78571 11.8472 7.83333 11.7708 7.92857C11.7257 7.92857 11.684 7.95238 11.6458 8H11.3542C11.316 7.95238 11.2604 7.92064 11.1875 7.90476C11.1875 7.88095 11.1458 7.8254 11.0625 7.7381C11.0625 7.68254 11.0417 7.63492 11 7.59524V7.26191C11.0417 7.21825 11.0694 7.15476 11.0833 7.07143C11.1042 7.07143 11.1528 7.02381 11.2292 6.92857H11.3125V6.78571C11.1806 6.78571 11.0972 6.69841 11.0625 6.52381L11 6.45238V6.11905C11.0417 6.0754 11.0694 6.01191 11.0833 5.92857C11.1806 5.83333 11.2361 5.78571 11.25 5.78571H11.3125V5.64286C11.1806 5.64286 11.0972 5.55556 11.0625 5.38095V5.35714H10.9375C10.9375 5.50794 10.8611 5.60317 10.7083 5.64286C10.6771 5.69048 10.6563 5.71429 10.6458 5.71429H10.3542C10.316 5.66667 10.2604 5.63492 10.1875 5.61905C10.1875 5.59524 10.1458 5.53968 10.0625 5.45238V5.35714H9.9375C9.9375 5.50794 9.86111 5.60317 9.70833 5.64286C9.67708 5.69048 9.65625 5.71429 9.64583 5.71429H9.35417C9.31597 5.66667 9.26042 5.63492 9.1875 5.61905C9.1875 5.59524 9.14583 5.53968 9.0625 5.45238V5.35714H8.9375C8.9375 5.50794 8.86111 5.60317 8.70833 5.64286C8.67708 5.69048 8.65625 5.71429 8.64583 5.71429H8.35417C8.31597 5.66667 8.26042 5.63492 8.1875 5.61905C8.10417 5.50794 8.0625 5.44444 8.0625 5.42857V5.35714H7.9375C7.9375 5.50794 7.86111 5.60317 7.70833 5.64286H7.6875V5.78571C7.80556 5.78571 7.88889 5.86508 7.9375 6.02381C7.9375 6.04762 7.95833 6.07937 8 6.11905V6.45238C7.95833 6.49603 7.93056 6.55952 7.91667 6.64286C7.81944 6.7381 7.76389 6.78571 7.75 6.78571H7.6875V6.92857C7.80556 6.92857 7.88889 7.00794 7.9375 7.16667C7.9375 7.19048 7.95833 7.22222 8 7.26191V7.59524C7.95833 7.63889 7.93056 7.70238 7.91667 7.78571C7.89583 7.78571 7.84722 7.83333 7.77083 7.92857C7.72569 7.92857 7.68403 7.95238 7.64583 8H7.35417C7.31597 7.95238 7.26042 7.92064 7.1875 7.90476C7.1875 7.88095 7.14583 7.8254 7.0625 7.7381C7.0625 7.68254 7.04167 7.63492 7 7.59524V7.26191C7.04167 7.21825 7.06944 7.15476 7.08333 7.07143C7.10417 7.07143 7.15278 7.02381 7.22917 6.92857H7.3125V6.78571C7.18056 6.78571 7.09722 6.69841 7.0625 6.52381C7.02083 6.4881 7 6.46429 7 6.45238V6.11905C7.04167 6.0754 7.06944 6.01191 7.08333 5.92857C7.18056 5.83333 7.23611 5.78571 7.25 5.78571H7.3125V5.64286C7.18056 5.64286 7.09722 5.55556 7.0625 5.38095L7 5.30952V4.97619C7.04167 4.93254 7.06944 4.86905 7.08333 4.78571C7.10417 4.78571 7.15278 4.7381 7.22917 4.64286H7.3125V4.5C7.18056 4.5 7.09722 4.4127 7.0625 4.2381C7.02083 4.20238 7 4.17857 7 4.16667V3.83333C7.04167 3.78968 7.06944 3.72619 7.08333 3.64286C7.10417 3.64286 7.15278 3.59524 7.22917 3.5H7.3125V3.35714C7.18056 3.35714 7.09722 3.26984 7.0625 3.09524L7 3.02381V2.69048C7.04167 2.64683 7.06944 2.58333 7.08333 2.5C7.10417 2.5 7.15278 2.45238 7.22917 2.35714C7.27778 2.35714 7.31944 2.33333 7.35417 2.28571Z" fill="#1A1A1A"/>
<path d="M1.35417 0H1.64583C1.68403 0.0476191 1.73958 0.0793651 1.8125 0.0952381C1.8125 0.119048 1.85417 0.174603 1.9375 0.261905V0.357143H2.0625C2.0625 0.222222 2.13194 0.126984 2.27083 0.0714286C2.29167 0.0714286 2.31944 0.0476191 2.35417 0H2.64583C2.68403 0.0476191 2.73958 0.0793651 2.8125 0.0952381C2.8125 0.119048 2.85417 0.174603 2.9375 0.261905V0.357143H3.0625C3.0625 0.222222 3.13194 0.126984 3.27083 0.0714286C3.29167 0.0714286 3.31944 0.0476191 3.35417 0H3.64583C3.68403 0.0476191 3.73958 0.0793651 3.8125 0.0952381C3.8125 0.119048 3.85417 0.174603 3.9375 0.261905C3.9375 0.313492 3.95833 0.361111 4 0.404762V0.738095C3.95833 0.781746 3.93056 0.845238 3.91667 0.928571C3.89583 0.928571 3.84722 0.976191 3.77083 1.07143C3.72569 1.07143 3.68403 1.09524 3.64583 1.14286H3.35417C3.31597 1.09524 3.26042 1.06349 3.1875 1.04762C3.10417 0.936508 3.0625 0.873016 3.0625 0.857143V0.785714H2.9375C2.9375 0.936508 2.86111 1.03175 2.70833 1.07143C2.67708 1.11905 2.65625 1.14286 2.64583 1.14286H2.35417C2.31597 1.09524 2.26042 1.06349 2.1875 1.04762C2.10417 0.936508 2.0625 0.873016 2.0625 0.857143V0.785714H1.9375C1.9375 0.936508 1.86111 1.03175 1.70833 1.07143C1.67708 1.11905 1.65625 1.14286 1.64583 1.14286H1.35417C1.31597 1.09524 1.26042 1.06349 1.1875 1.04762C1.1875 1.02381 1.14583 0.968254 1.0625 0.880952C1.0625 0.825397 1.04167 0.777778 1 0.738095V0.404762C1.04167 0.361111 1.06944 0.297619 1.08333 0.214286C1.10417 0.214286 1.15278 0.166667 1.22917 0.0714286C1.27778 0.0714286 1.31944 0.0476191 1.35417 0ZM0.354167 1.14286H0.645833C0.684028 1.19048 0.739583 1.22222 0.8125 1.2381C0.8125 1.2619 0.854167 1.31746 0.9375 1.40476C0.9375 1.45635 0.958333 1.50397 1 1.54762V1.88095C0.958333 1.9246 0.930556 1.9881 0.916667 2.07143C0.895833 2.07143 0.847222 2.11905 0.770833 2.21429H0.6875V2.35714C0.805556 2.35714 0.888889 2.43651 0.9375 2.59524C0.9375 2.61905 0.958333 2.65079 1 2.69048V3.02381C0.958333 3.06746 0.930556 3.13095 0.916667 3.21429C0.819444 3.30952 0.763889 3.35714 0.75 3.35714C0.715278 3.35714 0.680556 3.38095 0.645833 3.42857H0.354167C0.315972 3.38095 0.260417 3.34921 0.1875 3.33333C0.1875 3.30952 0.145833 3.25397 0.0625 3.16667C0.0625 3.11111 0.0416667 3.06349 0 3.02381V2.69048C0.0416667 2.64683 0.0694444 2.58333 0.0833333 2.5C0.104167 2.5 0.152778 2.45238 0.229167 2.35714H0.3125V2.21429C0.180556 2.21429 0.0972222 2.12698 0.0625 1.95238C0.0208333 1.91667 0 1.89286 0 1.88095V1.54762C0.0416667 1.50397 0.0694444 1.44048 0.0833333 1.35714C0.104167 1.35714 0.152778 1.30952 0.229167 1.21429C0.277778 1.21429 0.319444 1.19048 0.354167 1.14286ZM4.35417 1.14286H4.64583C4.68403 1.19048 4.73958 1.22222 4.8125 1.2381C4.8125 1.2619 4.85417 1.31746 4.9375 1.40476C4.9375 1.45635 4.95833 1.50397 5 1.54762V1.88095C4.95833 1.9246 4.93056 1.9881 4.91667 2.07143C4.89583 2.07143 4.84722 2.11905 4.77083 2.21429C4.72569 2.21429 4.68403 2.2381 4.64583 2.28571H4.35417C4.31597 2.2381 4.26042 2.20635 4.1875 2.19048C4.10417 2.07937 4.0625 2.01587 4.0625 2C4.0625 1.96032 4.04167 1.92064 4 1.88095V1.54762C4.04167 1.50397 4.06944 1.44048 4.08333 1.35714C4.10417 1.35714 4.15278 1.30952 4.22917 1.21429C4.27778 1.21429 4.31944 1.19048 4.35417 1.14286ZM1.35417 3.42857H1.64583C1.68403 3.47619 1.73958 3.50794 1.8125 3.52381C1.8125 3.54762 1.85417 3.60317 1.9375 3.69048V3.78571H2.0625C2.0625 3.65079 2.13194 3.55556 2.27083 3.5C2.29167 3.5 2.31944 3.47619 2.35417 3.42857H2.64583C2.68403 3.47619 2.73958 3.50794 2.8125 3.52381C2.89583 3.63492 2.9375 3.69841 2.9375 3.71429V3.78571H3.0625C3.0625 3.65079 3.13194 3.55556 3.27083 3.5C3.29167 3.5 3.31944 3.47619 3.35417 3.42857H3.64583C3.68403 3.47619 3.73958 3.50794 3.8125 3.52381C3.8125 3.54762 3.85417 3.60317 3.9375 3.69048C3.9375 3.74206 3.95833 3.78968 4 3.83333V4.16667C3.95833 4.21032 3.93056 4.27381 3.91667 4.35714C3.89583 4.35714 3.84722 4.40476 3.77083 4.5C3.72569 4.5 3.68403 4.52381 3.64583 4.57143H3.35417C3.31597 4.52381 3.26042 4.49206 3.1875 4.47619C3.10417 4.36508 3.0625 4.30159 3.0625 4.28571V4.21429H2.9375C2.9375 4.36508 2.86111 4.46032 2.70833 4.5C2.67708 4.54762 2.65625 4.57143 2.64583 4.57143H2.35417C2.31597 4.52381 2.26042 4.49206 2.1875 4.47619C2.1875 4.45238 2.14583 4.39683 2.0625 4.30952V4.21429H1.9375C1.9375 4.36508 1.86111 4.46032 1.70833 4.5C1.67708 4.54762 1.65625 4.57143 1.64583 4.57143H1.35417C1.31597 4.52381 1.26042 4.49206 1.1875 4.47619C1.10417 4.36508 1.0625 4.30159 1.0625 4.28571C1.0625 4.24603 1.04167 4.20635 1 4.16667V3.83333C1.04167 3.78968 1.06944 3.72619 1.08333 3.64286C1.18056 3.54762 1.23611 3.5 1.25 3.5C1.28472 3.5 1.31944 3.47619 1.35417 3.42857ZM4.35417 4.57143H4.64583C4.68403 4.61905 4.73958 4.65079 4.8125 4.66667C4.8125 4.69048 4.85417 4.74603 4.9375 4.83333C4.9375 4.88492 4.95833 4.93254 5 4.97619V5.30952C4.95833 5.35317 4.93056 5.41667 4.91667 5.5C4.89583 5.5 4.84722 5.54762 4.77083 5.64286H4.6875V5.78571C4.80556 5.78571 4.88889 5.86508 4.9375 6.02381C4.9375 6.04762 4.95833 6.07937 5 6.11905V6.45238C4.95833 6.49603 4.93056 6.55952 4.91667 6.64286C4.89583 6.64286 4.84722 6.69048 4.77083 6.78571C4.72569 6.78571 4.68403 6.80952 4.64583 6.85714H4.35417C4.31597 6.80952 4.26042 6.77778 4.1875 6.76191C4.1875 6.7381 4.14583 6.68254 4.0625 6.59524C4.0625 6.53968 4.04167 6.49206 4 6.45238V6.11905C4.04167 6.0754 4.06944 6.01191 4.08333 5.92857C4.18056 5.83333 4.23611 5.78571 4.25 5.78571H4.3125V5.64286C4.18056 5.64286 4.09722 5.55556 4.0625 5.38095L4 5.30952V4.97619C4.04167 4.93254 4.06944 4.86905 4.08333 4.78571C4.10417 4.78571 4.15278 4.7381 4.22917 4.64286C4.27778 4.64286 4.31944 4.61905 4.35417 4.57143ZM0.354167 5.71429H0.645833C0.684028 5.76191 0.739583 5.79365 0.8125 5.80952C0.8125 5.83333 0.854167 5.88889 0.9375 5.97619C0.9375 6.02778 0.958333 6.0754 1 6.11905V6.45238C0.958333 6.49603 0.930556 6.55952 0.916667 6.64286C0.819444 6.7381 0.763889 6.78571 0.75 6.78571C0.715278 6.78571 0.680556 6.80952 0.645833 6.85714H0.354167C0.315972 6.80952 0.260417 6.77778 0.1875 6.76191C0.1875 6.7381 0.145833 6.68254 0.0625 6.59524C0.0625 6.53968 0.0416667 6.49206 0 6.45238V6.11905C0.0416667 6.0754 0.0694444 6.01191 0.0833333 5.92857C0.180556 5.83333 0.236111 5.78571 0.25 5.78571C0.284722 5.78571 0.319444 5.76191 0.354167 5.71429ZM1.35417 6.85714H1.64583C1.68403 6.90476 1.73958 6.93651 1.8125 6.95238C1.89583 7.06349 1.9375 7.12698 1.9375 7.14286V7.21429H2.0625C2.0625 7.07937 2.13194 6.98413 2.27083 6.92857C2.29167 6.92857 2.31944 6.90476 2.35417 6.85714H2.64583C2.68403 6.90476 2.73958 6.93651 2.8125 6.95238C2.8125 6.97619 2.85417 7.03175 2.9375 7.11905V7.21429H3.0625C3.0625 7.07937 3.13194 6.98413 3.27083 6.92857C3.29167 6.92857 3.31944 6.90476 3.35417 6.85714H3.64583C3.68403 6.90476 3.73958 6.93651 3.8125 6.95238C3.8125 6.97619 3.85417 7.03175 3.9375 7.11905C3.9375 7.17064 3.95833 7.21825 4 7.26191V7.59524C3.95833 7.63889 3.93056 7.70238 3.91667 7.78571C3.89583 7.78571 3.84722 7.83333 3.77083 7.92857C3.72569 7.92857 3.68403 7.95238 3.64583 8H3.35417C3.31597 7.95238 3.26042 7.92064 3.1875 7.90476C3.1875 7.88095 3.14583 7.8254 3.0625 7.7381V7.64286H2.9375C2.9375 7.79365 2.86111 7.88889 2.70833 7.92857L2.64583 8H2.35417C2.31597 7.95238 2.26042 7.92064 2.1875 7.90476C2.1875 7.88095 2.14583 7.8254 2.0625 7.7381V7.64286H1.9375C1.9375 7.79365 1.86111 7.88889 1.70833 7.92857L1.64583 8H1.35417C1.31597 7.95238 1.26042 7.92064 1.1875 7.90476C1.10417 7.79365 1.0625 7.73016 1.0625 7.71429C1.0625 7.6746 1.04167 7.63492 1 7.59524V7.26191C1.04167 7.21825 1.06944 7.15476 1.08333 7.07143C1.18056 6.97619 1.23611 6.92857 1.25 6.92857C1.28472 6.92857 1.31944 6.90476 1.35417 6.85714Z" fill="#1A1A1A"/>
</svg>
